<?xml version="1.0" encoding="utf-8" standalone="no"?>
<!DOCTYPE svg PUBLIC "-//W3C//DTD SVG 1.1//EN"
  "http://www.w3.org/Graphics/SVG/1.1/DTD/svg11.dtd">
<!-- Created with matplotlib (https://matplotlib.org/) -->
<svg height="852.24475pt" version="1.1" viewBox="0 0 697.915625 852.24475" width="697.915625pt" xmlns="http://www.w3.org/2000/svg" xmlns:xlink="http://www.w3.org/1999/xlink">
 <defs>
  <style type="text/css">
*{stroke-linecap:butt;stroke-linejoin:round;}
  </style>
 </defs>
 <g id="figure_1">
  <g id="patch_1">
   <path d="M 0 852.24475 
L 697.915625 852.24475 
L 697.915625 0 
L 0 0 
z
" style="fill:#ffffff;"/>
  </g>
  <g id="axes_1">
   <g id="patch_2">
    <path d="M 132.715625 734.7635 
L 690.715625 734.7635 
L 690.715625 180.3635 
L 132.715625 180.3635 
z
" style="fill:#ffffff;"/>
   </g>
   <g id="matplotlib.axis_1">
    <g id="xtick_1">
     <g id="line2d_1">
      <defs>
       <path d="M 0 0 
L 0 6 
" id="m88ffc23255" style="stroke:#262626;stroke-width:1.25;"/>
      </defs>
      <g>
       <use style="fill:#262626;stroke:#262626;stroke-width:1.25;" x="225.715625" xlink:href="#m88ffc23255" y="734.7635"/>
      </g>
     </g>
     <g id="text_1">
      <!-- Gs -->
      <defs>
       <path d="M 59.515625 10.40625 
L 59.515625 29.984375 
L 43.40625 29.984375 
L 43.40625 38.09375 
L 69.28125 38.09375 
L 69.28125 6.78125 
Q 63.578125 2.734375 56.6875 0.65625 
Q 49.8125 -1.421875 42 -1.421875 
Q 24.90625 -1.421875 15.25 8.5625 
Q 5.609375 18.5625 5.609375 36.375 
Q 5.609375 54.25 15.25 64.234375 
Q 24.90625 74.21875 42 74.21875 
Q 49.125 74.21875 55.546875 72.453125 
Q 61.96875 70.703125 67.390625 67.28125 
L 67.390625 56.78125 
Q 61.921875 61.421875 55.765625 63.765625 
Q 49.609375 66.109375 42.828125 66.109375 
Q 29.4375 66.109375 22.71875 58.640625 
Q 16.015625 51.171875 16.015625 36.375 
Q 16.015625 21.625 22.71875 14.15625 
Q 29.4375 6.6875 42.828125 6.6875 
Q 48.046875 6.6875 52.140625 7.59375 
Q 56.25 8.5 59.515625 10.40625 
z
" id="DejaVuSans-71"/>
       <path d="M 44.28125 53.078125 
L 44.28125 44.578125 
Q 40.484375 46.53125 36.375 47.5 
Q 32.28125 48.484375 27.875 48.484375 
Q 21.1875 48.484375 17.84375 46.4375 
Q 14.5 44.390625 14.5 40.28125 
Q 14.5 37.15625 16.890625 35.375 
Q 19.28125 33.59375 26.515625 31.984375 
L 29.59375 31.296875 
Q 39.15625 29.25 43.1875 25.515625 
Q 47.21875 21.78125 47.21875 15.09375 
Q 47.21875 7.46875 41.1875 3.015625 
Q 35.15625 -1.421875 24.609375 -1.421875 
Q 20.21875 -1.421875 15.453125 -0.5625 
Q 10.6875 0.296875 5.421875 2 
L 5.421875 11.28125 
Q 10.40625 8.6875 15.234375 7.390625 
Q 20.0625 6.109375 24.8125 6.109375 
Q 31.15625 6.109375 34.5625 8.28125 
Q 37.984375 10.453125 37.984375 14.40625 
Q 37.984375 18.0625 35.515625 20.015625 
Q 33.0625 21.96875 24.703125 23.78125 
L 21.578125 24.515625 
Q 13.234375 26.265625 9.515625 29.90625 
Q 5.8125 33.546875 5.8125 39.890625 
Q 5.8125 47.609375 11.28125 51.796875 
Q 16.75 56 26.8125 56 
Q 31.78125 56 36.171875 55.265625 
Q 40.578125 54.546875 44.28125 53.078125 
z
" id="DejaVuSans-115"/>
      </defs>
      <g style="fill:#262626;" transform="translate(193.321094 782.255688)scale(0.5 -0.5)">
       <use xlink:href="#DejaVuSans-71"/>
       <use x="77.490234" xlink:href="#DejaVuSans-115"/>
      </g>
     </g>
    </g>
    <g id="xtick_2">
     <g id="line2d_2">
      <g>
       <use style="fill:#262626;stroke:#262626;stroke-width:1.25;" x="411.715625" xlink:href="#m88ffc23255" y="734.7635"/>
      </g>
     </g>
     <g id="text_2">
      <!-- Gio -->
      <defs>
       <path d="M 9.421875 54.6875 
L 18.40625 54.6875 
L 18.40625 0 
L 9.421875 0 
z
M 9.421875 75.984375 
L 18.40625 75.984375 
L 18.40625 64.59375 
L 9.421875 64.59375 
z
" id="DejaVuSans-105"/>
       <path d="M 30.609375 48.390625 
Q 23.390625 48.390625 19.1875 42.75 
Q 14.984375 37.109375 14.984375 27.296875 
Q 14.984375 17.484375 19.15625 11.84375 
Q 23.34375 6.203125 30.609375 6.203125 
Q 37.796875 6.203125 41.984375 11.859375 
Q 46.1875 17.53125 46.1875 27.296875 
Q 46.1875 37.015625 41.984375 42.703125 
Q 37.796875 48.390625 30.609375 48.390625 
z
M 30.609375 56 
Q 42.328125 56 49.015625 48.375 
Q 55.71875 40.765625 55.71875 27.296875 
Q 55.71875 13.875 49.015625 6.21875 
Q 42.328125 -1.421875 30.609375 -1.421875 
Q 18.84375 -1.421875 12.171875 6.21875 
Q 5.515625 13.875 5.515625 27.296875 
Q 5.515625 40.765625 12.171875 48.375 
Q 18.84375 56 30.609375 56 
z
" id="DejaVuSans-111"/>
      </defs>
      <g style="fill:#262626;" transform="translate(370.102344 782.255688)scale(0.5 -0.5)">
       <use xlink:href="#DejaVuSans-71"/>
       <use x="77.490234" xlink:href="#DejaVuSans-105"/>
       <use x="105.273438" xlink:href="#DejaVuSans-111"/>
      </g>
     </g>
    </g>
    <g id="xtick_3">
     <g id="line2d_3">
      <g>
       <use style="fill:#262626;stroke:#262626;stroke-width:1.25;" x="597.715625" xlink:href="#m88ffc23255" y="734.7635"/>
      </g>
     </g>
     <g id="text_3">
      <!-- Gq11 -->
      <defs>
       <path d="M 14.796875 27.296875 
Q 14.796875 17.390625 18.875 11.75 
Q 22.953125 6.109375 30.078125 6.109375 
Q 37.203125 6.109375 41.296875 11.75 
Q 45.40625 17.390625 45.40625 27.296875 
Q 45.40625 37.203125 41.296875 42.84375 
Q 37.203125 48.484375 30.078125 48.484375 
Q 22.953125 48.484375 18.875 42.84375 
Q 14.796875 37.203125 14.796875 27.296875 
z
M 45.40625 8.203125 
Q 42.578125 3.328125 38.25 0.953125 
Q 33.9375 -1.421875 27.875 -1.421875 
Q 17.96875 -1.421875 11.734375 6.484375 
Q 5.515625 14.40625 5.515625 27.296875 
Q 5.515625 40.1875 11.734375 48.09375 
Q 17.96875 56 27.875 56 
Q 33.9375 56 38.25 53.625 
Q 42.578125 51.265625 45.40625 46.390625 
L 45.40625 54.6875 
L 54.390625 54.6875 
L 54.390625 -20.796875 
L 45.40625 -20.796875 
z
" id="DejaVuSans-113"/>
       <path d="M 12.40625 8.296875 
L 28.515625 8.296875 
L 28.515625 63.921875 
L 10.984375 60.40625 
L 10.984375 69.390625 
L 28.421875 72.90625 
L 38.28125 72.90625 
L 38.28125 8.296875 
L 54.390625 8.296875 
L 54.390625 0 
L 12.40625 0 
z
" id="DejaVuSans-49"/>
      </defs>
      <g style="fill:#262626;" transform="translate(530.660938 782.255688)scale(0.5 -0.5)">
       <use xlink:href="#DejaVuSans-71"/>
       <use x="77.490234" xlink:href="#DejaVuSans-113"/>
       <use x="140.966797" xlink:href="#DejaVuSans-49"/>
       <use x="204.589844" xlink:href="#DejaVuSans-49"/>
      </g>
     </g>
    </g>
    <g id="text_4">
     <!-- G-protein -->
     <defs>
      <path d="M 4.890625 31.390625 
L 31.203125 31.390625 
L 31.203125 23.390625 
L 4.890625 23.390625 
z
" id="DejaVuSans-45"/>
      <path d="M 18.109375 8.203125 
L 18.109375 -20.796875 
L 9.078125 -20.796875 
L 9.078125 54.6875 
L 18.109375 54.6875 
L 18.109375 46.390625 
Q 20.953125 51.265625 25.265625 53.625 
Q 29.59375 56 35.59375 56 
Q 45.5625 56 51.78125 48.09375 
Q 58.015625 40.1875 58.015625 27.296875 
Q 58.015625 14.40625 51.78125 6.484375 
Q 45.5625 -1.421875 35.59375 -1.421875 
Q 29.59375 -1.421875 25.265625 0.953125 
Q 20.953125 3.328125 18.109375 8.203125 
z
M 48.6875 27.296875 
Q 48.6875 37.203125 44.609375 42.84375 
Q 40.53125 48.484375 33.40625 48.484375 
Q 26.265625 48.484375 22.1875 42.84375 
Q 18.109375 37.203125 18.109375 27.296875 
Q 18.109375 17.390625 22.1875 11.75 
Q 26.265625 6.109375 33.40625 6.109375 
Q 40.53125 6.109375 44.609375 11.75 
Q 48.6875 17.390625 48.6875 27.296875 
z
" id="DejaVuSans-112"/>
      <path d="M 41.109375 46.296875 
Q 39.59375 47.171875 37.8125 47.578125 
Q 36.03125 48 33.890625 48 
Q 26.265625 48 22.1875 43.046875 
Q 18.109375 38.09375 18.109375 28.8125 
L 18.109375 0 
L 9.078125 0 
L 9.078125 54.6875 
L 18.109375 54.6875 
L 18.109375 46.1875 
Q 20.953125 51.171875 25.484375 53.578125 
Q 30.03125 56 36.53125 56 
Q 37.453125 56 38.578125 55.875 
Q 39.703125 55.765625 41.0625 55.515625 
z
" id="DejaVuSans-114"/>
      <path d="M 18.3125 70.21875 
L 18.3125 54.6875 
L 36.8125 54.6875 
L 36.8125 47.703125 
L 18.3125 47.703125 
L 18.3125 18.015625 
Q 18.3125 11.328125 20.140625 9.421875 
Q 21.96875 7.515625 27.59375 7.515625 
L 36.8125 7.515625 
L 36.8125 0 
L 27.59375 0 
Q 17.1875 0 13.234375 3.875 
Q 9.28125 7.765625 9.28125 18.015625 
L 9.28125 47.703125 
L 2.6875 47.703125 
L 2.6875 54.6875 
L 9.28125 54.6875 
L 9.28125 70.21875 
z
" id="DejaVuSans-116"/>
      <path d="M 56.203125 29.59375 
L 56.203125 25.203125 
L 14.890625 25.203125 
Q 15.484375 15.921875 20.484375 11.0625 
Q 25.484375 6.203125 34.421875 6.203125 
Q 39.59375 6.203125 44.453125 7.46875 
Q 49.3125 8.734375 54.109375 11.28125 
L 54.109375 2.78125 
Q 49.265625 0.734375 44.1875 -0.34375 
Q 39.109375 -1.421875 33.890625 -1.421875 
Q 20.796875 -1.421875 13.15625 6.1875 
Q 5.515625 13.8125 5.515625 26.8125 
Q 5.515625 40.234375 12.765625 48.109375 
Q 20.015625 56 32.328125 56 
Q 43.359375 56 49.78125 48.890625 
Q 56.203125 41.796875 56.203125 29.59375 
z
M 47.21875 32.234375 
Q 47.125 39.59375 43.09375 43.984375 
Q 39.0625 48.390625 32.421875 48.390625 
Q 24.90625 48.390625 20.390625 44.140625 
Q 15.875 39.890625 15.1875 32.171875 
z
" id="DejaVuSans-101"/>
      <path d="M 54.890625 33.015625 
L 54.890625 0 
L 45.90625 0 
L 45.90625 32.71875 
Q 45.90625 40.484375 42.875 44.328125 
Q 39.84375 48.1875 33.796875 48.1875 
Q 26.515625 48.1875 22.3125 43.546875 
Q 18.109375 38.921875 18.109375 30.90625 
L 18.109375 0 
L 9.078125 0 
L 9.078125 54.6875 
L 18.109375 54.6875 
L 18.109375 46.1875 
Q 21.34375 51.125 25.703125 53.5625 
Q 30.078125 56 35.796875 56 
Q 45.21875 56 50.046875 50.171875 
Q 54.890625 44.34375 54.890625 33.015625 
z
" id="DejaVuSans-110"/>
     </defs>
     <g style="fill:#262626;" transform="translate(294.469531 834.646313)scale(0.5 -0.5)">
      <use xlink:href="#DejaVuSans-71"/>
      <use x="77.490234" xlink:href="#DejaVuSans-45"/>
      <use x="113.574219" xlink:href="#DejaVuSans-112"/>
      <use x="177.050781" xlink:href="#DejaVuSans-114"/>
      <use x="215.914062" xlink:href="#DejaVuSans-111"/>
      <use x="277.095703" xlink:href="#DejaVuSans-116"/>
      <use x="316.304688" xlink:href="#DejaVuSans-101"/>
      <use x="377.828125" xlink:href="#DejaVuSans-105"/>
      <use x="405.611328" xlink:href="#DejaVuSans-110"/>
     </g>
    </g>
   </g>
   <g id="matplotlib.axis_2">
    <g id="ytick_1">
     <g id="line2d_4">
      <defs>
       <path d="M 0 0 
L -6 0 
" id="m9faa488c0c" style="stroke:#262626;stroke-width:1.25;"/>
      </defs>
      <g>
       <use style="fill:#262626;stroke:#262626;stroke-width:1.25;" x="132.715625" xlink:href="#m9faa488c0c" y="684.3635"/>
      </g>
     </g>
     <g id="text_5">
      <!-- 0 -->
      <defs>
       <path d="M 31.78125 66.40625 
Q 24.171875 66.40625 20.328125 58.90625 
Q 16.5 51.421875 16.5 36.375 
Q 16.5 21.390625 20.328125 13.890625 
Q 24.171875 6.390625 31.78125 6.390625 
Q 39.453125 6.390625 43.28125 13.890625 
Q 47.125 21.390625 47.125 36.375 
Q 47.125 51.421875 43.28125 58.90625 
Q 39.453125 66.40625 31.78125 66.40625 
z
M 31.78125 74.21875 
Q 44.046875 74.21875 50.515625 64.515625 
Q 56.984375 54.828125 56.984375 36.375 
Q 56.984375 17.96875 50.515625 8.265625 
Q 44.046875 -1.421875 31.78125 -1.421875 
Q 19.53125 -1.421875 13.0625 8.265625 
Q 6.59375 17.96875 6.59375 36.375 
Q 6.59375 54.828125 13.0625 64.515625 
Q 19.53125 74.21875 31.78125 74.21875 
z
" id="DejaVuSans-48"/>
      </defs>
      <g style="fill:#262626;" transform="translate(91.403125 703.359594)scale(0.5 -0.5)">
       <use xlink:href="#DejaVuSans-48"/>
      </g>
     </g>
    </g>
    <g id="ytick_2">
     <g id="line2d_5">
      <g>
       <use style="fill:#262626;stroke:#262626;stroke-width:1.25;" x="132.715625" xlink:href="#m9faa488c0c" y="617.1635"/>
      </g>
     </g>
     <g id="text_6">
      <!-- 4 -->
      <defs>
       <path d="M 37.796875 64.3125 
L 12.890625 25.390625 
L 37.796875 25.390625 
z
M 35.203125 72.90625 
L 47.609375 72.90625 
L 47.609375 25.390625 
L 58.015625 25.390625 
L 58.015625 17.1875 
L 47.609375 17.1875 
L 47.609375 0 
L 37.796875 0 
L 37.796875 17.1875 
L 4.890625 17.1875 
L 4.890625 26.703125 
z
" id="DejaVuSans-52"/>
      </defs>
      <g style="fill:#262626;" transform="translate(91.403125 636.159594)scale(0.5 -0.5)">
       <use xlink:href="#DejaVuSans-52"/>
      </g>
     </g>
    </g>
    <g id="ytick_3">
     <g id="line2d_6">
      <g>
       <use style="fill:#262626;stroke:#262626;stroke-width:1.25;" x="132.715625" xlink:href="#m9faa488c0c" y="549.9635"/>
      </g>
     </g>
     <g id="text_7">
      <!-- 8 -->
      <defs>
       <path d="M 31.78125 34.625 
Q 24.75 34.625 20.71875 30.859375 
Q 16.703125 27.09375 16.703125 20.515625 
Q 16.703125 13.921875 20.71875 10.15625 
Q 24.75 6.390625 31.78125 6.390625 
Q 38.8125 6.390625 42.859375 10.171875 
Q 46.921875 13.96875 46.921875 20.515625 
Q 46.921875 27.09375 42.890625 30.859375 
Q 38.875 34.625 31.78125 34.625 
z
M 21.921875 38.8125 
Q 15.578125 40.375 12.03125 44.71875 
Q 8.5 49.078125 8.5 55.328125 
Q 8.5 64.0625 14.71875 69.140625 
Q 20.953125 74.21875 31.78125 74.21875 
Q 42.671875 74.21875 48.875 69.140625 
Q 55.078125 64.0625 55.078125 55.328125 
Q 55.078125 49.078125 51.53125 44.71875 
Q 48 40.375 41.703125 38.8125 
Q 48.828125 37.15625 52.796875 32.3125 
Q 56.78125 27.484375 56.78125 20.515625 
Q 56.78125 9.90625 50.3125 4.234375 
Q 43.84375 -1.421875 31.78125 -1.421875 
Q 19.734375 -1.421875 13.25 4.234375 
Q 6.78125 9.90625 6.78125 20.515625 
Q 6.78125 27.484375 10.78125 32.3125 
Q 14.796875 37.15625 21.921875 38.8125 
z
M 18.3125 54.390625 
Q 18.3125 48.734375 21.84375 45.5625 
Q 25.390625 42.390625 31.78125 42.390625 
Q 38.140625 42.390625 41.71875 45.5625 
Q 45.3125 48.734375 45.3125 54.390625 
Q 45.3125 60.0625 41.71875 63.234375 
Q 38.140625 66.40625 31.78125 66.40625 
Q 25.390625 66.40625 21.84375 63.234375 
Q 18.3125 60.0625 18.3125 54.390625 
z
" id="DejaVuSans-56"/>
      </defs>
      <g style="fill:#262626;" transform="translate(91.403125 568.959594)scale(0.5 -0.5)">
       <use xlink:href="#DejaVuSans-56"/>
      </g>
     </g>
    </g>
    <g id="ytick_4">
     <g id="line2d_7">
      <g>
       <use style="fill:#262626;stroke:#262626;stroke-width:1.25;" x="132.715625" xlink:href="#m9faa488c0c" y="482.7635"/>
      </g>
     </g>
     <g id="text_8">
      <!-- 12 -->
      <defs>
       <path d="M 19.1875 8.296875 
L 53.609375 8.296875 
L 53.609375 0 
L 7.328125 0 
L 7.328125 8.296875 
Q 12.9375 14.109375 22.625 23.890625 
Q 32.328125 33.6875 34.8125 36.53125 
Q 39.546875 41.84375 41.421875 45.53125 
Q 43.3125 49.21875 43.3125 52.78125 
Q 43.3125 58.59375 39.234375 62.25 
Q 35.15625 65.921875 28.609375 65.921875 
Q 23.96875 65.921875 18.8125 64.3125 
Q 13.671875 62.703125 7.8125 59.421875 
L 7.8125 69.390625 
Q 13.765625 71.78125 18.9375 73 
Q 24.125 74.21875 28.421875 74.21875 
Q 39.75 74.21875 46.484375 68.546875 
Q 53.21875 62.890625 53.21875 53.421875 
Q 53.21875 48.921875 51.53125 44.890625 
Q 49.859375 40.875 45.40625 35.40625 
Q 44.1875 33.984375 37.640625 27.21875 
Q 31.109375 20.453125 19.1875 8.296875 
z
" id="DejaVuSans-50"/>
      </defs>
      <g style="fill:#262626;" transform="translate(59.590625 501.759594)scale(0.5 -0.5)">
       <use xlink:href="#DejaVuSans-49"/>
       <use x="63.623047" xlink:href="#DejaVuSans-50"/>
      </g>
     </g>
    </g>
    <g id="ytick_5">
     <g id="line2d_8">
      <g>
       <use style="fill:#262626;stroke:#262626;stroke-width:1.25;" x="132.715625" xlink:href="#m9faa488c0c" y="415.5635"/>
      </g>
     </g>
     <g id="text_9">
      <!-- 16 -->
      <defs>
       <path d="M 33.015625 40.375 
Q 26.375 40.375 22.484375 35.828125 
Q 18.609375 31.296875 18.609375 23.390625 
Q 18.609375 15.53125 22.484375 10.953125 
Q 26.375 6.390625 33.015625 6.390625 
Q 39.65625 6.390625 43.53125 10.953125 
Q 47.40625 15.53125 47.40625 23.390625 
Q 47.40625 31.296875 43.53125 35.828125 
Q 39.65625 40.375 33.015625 40.375 
z
M 52.59375 71.296875 
L 52.59375 62.3125 
Q 48.875 64.0625 45.09375 64.984375 
Q 41.3125 65.921875 37.59375 65.921875 
Q 27.828125 65.921875 22.671875 59.328125 
Q 17.53125 52.734375 16.796875 39.40625 
Q 19.671875 43.65625 24.015625 45.921875 
Q 28.375 48.1875 33.59375 48.1875 
Q 44.578125 48.1875 50.953125 41.515625 
Q 57.328125 34.859375 57.328125 23.390625 
Q 57.328125 12.15625 50.6875 5.359375 
Q 44.046875 -1.421875 33.015625 -1.421875 
Q 20.359375 -1.421875 13.671875 8.265625 
Q 6.984375 17.96875 6.984375 36.375 
Q 6.984375 53.65625 15.1875 63.9375 
Q 23.390625 74.21875 37.203125 74.21875 
Q 40.921875 74.21875 44.703125 73.484375 
Q 48.484375 72.75 52.59375 71.296875 
z
" id="DejaVuSans-54"/>
      </defs>
      <g style="fill:#262626;" transform="translate(59.590625 434.559594)scale(0.5 -0.5)">
       <use xlink:href="#DejaVuSans-49"/>
       <use x="63.623047" xlink:href="#DejaVuSans-54"/>
      </g>
     </g>
    </g>
    <g id="ytick_6">
     <g id="line2d_9">
      <g>
       <use style="fill:#262626;stroke:#262626;stroke-width:1.25;" x="132.715625" xlink:href="#m9faa488c0c" y="348.3635"/>
      </g>
     </g>
     <g id="text_10">
      <!-- 20 -->
      <g style="fill:#262626;" transform="translate(59.590625 367.359594)scale(0.5 -0.5)">
       <use xlink:href="#DejaVuSans-50"/>
       <use x="63.623047" xlink:href="#DejaVuSans-48"/>
      </g>
     </g>
    </g>
    <g id="ytick_7">
     <g id="line2d_10">
      <g>
       <use style="fill:#262626;stroke:#262626;stroke-width:1.25;" x="132.715625" xlink:href="#m9faa488c0c" y="281.1635"/>
      </g>
     </g>
     <g id="text_11">
      <!-- 24 -->
      <g style="fill:#262626;" transform="translate(59.590625 300.159594)scale(0.5 -0.5)">
       <use xlink:href="#DejaVuSans-50"/>
       <use x="63.623047" xlink:href="#DejaVuSans-52"/>
      </g>
     </g>
    </g>
    <g id="ytick_8">
     <g id="line2d_11">
      <g>
       <use style="fill:#262626;stroke:#262626;stroke-width:1.25;" x="132.715625" xlink:href="#m9faa488c0c" y="213.9635"/>
      </g>
     </g>
     <g id="text_12">
      <!-- 28 -->
      <g style="fill:#262626;" transform="translate(59.590625 232.959594)scale(0.5 -0.5)">
       <use xlink:href="#DejaVuSans-50"/>
       <use x="63.623047" xlink:href="#DejaVuSans-56"/>
      </g>
     </g>
    </g>
    <g id="text_13">
     <!-- RMSD -->
     <defs>
      <path d="M 44.390625 34.1875 
Q 47.5625 33.109375 50.5625 29.59375 
Q 53.5625 26.078125 56.59375 19.921875 
L 66.609375 0 
L 56 0 
L 46.6875 18.703125 
Q 43.0625 26.03125 39.671875 28.421875 
Q 36.28125 30.8125 30.421875 30.8125 
L 19.671875 30.8125 
L 19.671875 0 
L 9.8125 0 
L 9.8125 72.90625 
L 32.078125 72.90625 
Q 44.578125 72.90625 50.734375 67.671875 
Q 56.890625 62.453125 56.890625 51.90625 
Q 56.890625 45.015625 53.6875 40.46875 
Q 50.484375 35.9375 44.390625 34.1875 
z
M 19.671875 64.796875 
L 19.671875 38.921875 
L 32.078125 38.921875 
Q 39.203125 38.921875 42.84375 42.21875 
Q 46.484375 45.515625 46.484375 51.90625 
Q 46.484375 58.296875 42.84375 61.546875 
Q 39.203125 64.796875 32.078125 64.796875 
z
" id="DejaVuSans-82"/>
      <path d="M 9.8125 72.90625 
L 24.515625 72.90625 
L 43.109375 23.296875 
L 61.8125 72.90625 
L 76.515625 72.90625 
L 76.515625 0 
L 66.890625 0 
L 66.890625 64.015625 
L 48.09375 14.015625 
L 38.1875 14.015625 
L 19.390625 64.015625 
L 19.390625 0 
L 9.8125 0 
z
" id="DejaVuSans-77"/>
      <path d="M 53.515625 70.515625 
L 53.515625 60.890625 
Q 47.90625 63.578125 42.921875 64.890625 
Q 37.9375 66.21875 33.296875 66.21875 
Q 25.25 66.21875 20.875 63.09375 
Q 16.5 59.96875 16.5 54.203125 
Q 16.5 49.359375 19.40625 46.890625 
Q 22.3125 44.4375 30.421875 42.921875 
L 36.375 41.703125 
Q 47.40625 39.59375 52.65625 34.296875 
Q 57.90625 29 57.90625 20.125 
Q 57.90625 9.515625 50.796875 4.046875 
Q 43.703125 -1.421875 29.984375 -1.421875 
Q 24.8125 -1.421875 18.96875 -0.25 
Q 13.140625 0.921875 6.890625 3.21875 
L 6.890625 13.375 
Q 12.890625 10.015625 18.65625 8.296875 
Q 24.421875 6.59375 29.984375 6.59375 
Q 38.421875 6.59375 43.015625 9.90625 
Q 47.609375 13.234375 47.609375 19.390625 
Q 47.609375 24.75 44.3125 27.78125 
Q 41.015625 30.8125 33.5 32.328125 
L 27.484375 33.5 
Q 16.453125 35.6875 11.515625 40.375 
Q 6.59375 45.0625 6.59375 53.421875 
Q 6.59375 63.09375 13.40625 68.65625 
Q 20.21875 74.21875 32.171875 74.21875 
Q 37.3125 74.21875 42.625 73.28125 
Q 47.953125 72.359375 53.515625 70.515625 
z
" id="DejaVuSans-83"/>
      <path d="M 19.671875 64.796875 
L 19.671875 8.109375 
L 31.59375 8.109375 
Q 46.6875 8.109375 53.6875 14.9375 
Q 60.6875 21.78125 60.6875 36.53125 
Q 60.6875 51.171875 53.6875 57.984375 
Q 46.6875 64.796875 31.59375 64.796875 
z
M 9.8125 72.90625 
L 30.078125 72.90625 
Q 51.265625 72.90625 61.171875 64.09375 
Q 71.09375 55.28125 71.09375 36.53125 
Q 71.09375 17.671875 61.125 8.828125 
Q 51.171875 0 30.078125 0 
L 9.8125 0 
z
" id="DejaVuSans-68"/>
     </defs>
     <g style="fill:#262626;" transform="translate(45.192187 531.626)rotate(-90)scale(0.5 -0.5)">
      <use xlink:href="#DejaVuSans-82"/>
      <use x="69.482422" xlink:href="#DejaVuSans-77"/>
      <use x="155.761719" xlink:href="#DejaVuSans-83"/>
      <use x="219.238281" xlink:href="#DejaVuSans-68"/>
     </g>
    </g>
   </g>
   <g id="PolyCollection_1">
    <defs>
     <path d="M 225.968521 -150.913043 
L 225.462729 -150.913043 
L 225.314028 -153.851995 
L 225.097153 -156.790946 
L 224.791404 -159.729898 
L 224.374606 -162.668849 
L 223.824995 -165.607801 
L 223.123595 -168.546752 
L 222.256789 -171.485704 
L 221.218653 -174.424655 
L 220.012579 -177.363607 
L 218.651824 -180.302558 
L 217.158831 -183.24151 
L 215.563452 -186.180461 
L 213.900498 -189.119412 
L 212.20717 -192.058364 
L 210.520919 -194.997315 
L 208.878045 -197.936267 
L 207.313019 -200.875218 
L 205.858181 -203.81417 
L 204.543285 -206.753121 
L 203.394429 -209.692073 
L 202.432192 -212.631024 
L 201.669198 -215.569976 
L 201.107716 -218.508927 
L 200.738065 -221.447879 
L 200.538509 -224.38683 
L 200.476984 -227.325781 
L 200.514547 -230.264733 
L 200.60998 -233.203684 
L 200.724735 -236.142636 
L 200.827324 -239.081587 
L 200.89644 -242.020539 
L 200.922394 -244.95949 
L 200.906784 -247.898442 
L 200.860645 -250.837393 
L 200.801554 -253.776345 
L 200.750289 -256.715296 
L 200.727656 -259.654248 
L 200.752008 -262.593199 
L 200.837766 -265.53215 
L 200.995024 -268.471102 
L 201.230054 -271.410053 
L 201.546324 -274.349005 
L 201.945578 -277.287956 
L 202.428563 -280.226908 
L 202.995167 -283.165859 
L 203.643964 -286.104811 
L 204.371374 -289.043762 
L 205.170793 -291.982714 
L 206.032021 -294.921665 
L 206.941245 -297.860617 
L 207.881602 -300.799568 
L 208.834221 -303.738519 
L 209.7795 -306.677471 
L 210.69839 -309.616422 
L 211.573529 -312.555374 
L 212.390182 -315.494325 
L 213.137021 -318.433277 
L 213.806753 -321.372228 
L 214.396603 -324.31118 
L 214.908517 -327.250131 
L 215.348968 -330.189083 
L 215.728265 -333.128034 
L 216.059376 -336.066986 
L 216.356438 -339.005937 
L 216.633196 -341.944888 
L 216.901657 -344.88384 
L 217.171177 -347.822791 
L 217.448078 -350.761743 
L 217.735771 -353.700694 
L 218.035279 -356.639646 
L 218.345982 -359.578597 
L 218.666442 -362.517549 
L 218.995156 -365.4565 
L 219.331129 -368.395452 
L 219.674173 -371.334403 
L 220.02488 -374.273355 
L 220.384287 -377.212306 
L 220.753299 -380.151257 
L 221.132016 -383.090209 
L 221.519158 -386.02916 
L 221.911738 -388.968112 
L 222.305102 -391.907063 
L 222.693336 -394.846015 
L 223.069936 -397.784966 
L 223.428589 -400.723918 
L 223.763861 -403.662869 
L 224.071671 -406.601821 
L 224.349478 -409.540772 
L 224.596204 -412.479724 
L 224.811986 -415.418675 
L 224.997858 -418.357626 
L 225.15546 -421.296578 
L 225.286825 -424.235529 
L 225.394254 -427.174481 
L 225.480249 -430.113432 
L 225.547461 -433.052384 
L 225.598627 -435.991335 
L 225.636479 -438.930287 
L 225.663639 -441.869238 
L 225.767611 -441.869238 
L 225.767611 -441.869238 
L 225.794771 -438.930287 
L 225.832623 -435.991335 
L 225.883789 -433.052384 
L 225.951001 -430.113432 
L 226.036996 -427.174481 
L 226.144425 -424.235529 
L 226.27579 -421.296578 
L 226.433392 -418.357626 
L 226.619264 -415.418675 
L 226.835046 -412.479724 
L 227.081772 -409.540772 
L 227.359579 -406.601821 
L 227.667389 -403.662869 
L 228.002661 -400.723918 
L 228.361314 -397.784966 
L 228.737914 -394.846015 
L 229.126148 -391.907063 
L 229.519512 -388.968112 
L 229.912092 -386.02916 
L 230.299234 -383.090209 
L 230.677951 -380.151257 
L 231.046963 -377.212306 
L 231.40637 -374.273355 
L 231.757077 -371.334403 
L 232.100121 -368.395452 
L 232.436094 -365.4565 
L 232.764808 -362.517549 
L 233.085268 -359.578597 
L 233.395971 -356.639646 
L 233.695479 -353.700694 
L 233.983172 -350.761743 
L 234.260073 -347.822791 
L 234.529593 -344.88384 
L 234.798054 -341.944888 
L 235.074812 -339.005937 
L 235.371874 -336.066986 
L 235.702985 -333.128034 
L 236.082282 -330.189083 
L 236.522733 -327.250131 
L 237.034647 -324.31118 
L 237.624497 -321.372228 
L 238.294229 -318.433277 
L 239.041068 -315.494325 
L 239.857721 -312.555374 
L 240.73286 -309.616422 
L 241.65175 -306.677471 
L 242.597029 -303.738519 
L 243.549648 -300.799568 
L 244.490005 -297.860617 
L 245.399229 -294.921665 
L 246.260457 -291.982714 
L 247.059876 -289.043762 
L 247.787286 -286.104811 
L 248.436083 -283.165859 
L 249.002687 -280.226908 
L 249.485672 -277.287956 
L 249.884926 -274.349005 
L 250.201196 -271.410053 
L 250.436226 -268.471102 
L 250.593484 -265.53215 
L 250.679242 -262.593199 
L 250.703594 -259.654248 
L 250.680961 -256.715296 
L 250.629696 -253.776345 
L 250.570605 -250.837393 
L 250.524466 -247.898442 
L 250.508856 -244.95949 
L 250.53481 -242.020539 
L 250.603926 -239.081587 
L 250.706515 -236.142636 
L 250.82127 -233.203684 
L 250.916703 -230.264733 
L 250.954266 -227.325781 
L 250.892741 -224.38683 
L 250.693185 -221.447879 
L 250.323534 -218.508927 
L 249.762052 -215.569976 
L 248.999058 -212.631024 
L 248.036821 -209.692073 
L 246.887965 -206.753121 
L 245.573069 -203.81417 
L 244.118231 -200.875218 
L 242.553205 -197.936267 
L 240.910331 -194.997315 
L 239.22408 -192.058364 
L 237.530752 -189.119412 
L 235.867798 -186.180461 
L 234.272419 -183.24151 
L 232.779426 -180.302558 
L 231.418671 -177.363607 
L 230.212597 -174.424655 
L 229.174461 -171.485704 
L 228.307655 -168.546752 
L 227.606255 -165.607801 
L 227.056644 -162.668849 
L 226.639846 -159.729898 
L 226.334097 -156.790946 
L 226.117222 -153.851995 
L 225.968521 -150.913043 
z
" id="m4400404259" style="stroke:#262626;stroke-width:1.5;"/>
    </defs>
    <g clip-path="url(#p7aa303212c)">
     <use style="fill:#b55d60;stroke:#262626;stroke-width:1.5;" x="0" xlink:href="#m4400404259" y="852.24475"/>
    </g>
   </g>
   <g id="PolyCollection_2">
    <defs>
     <path d="M 411.804999 -149.770251 
L 411.626251 -149.770251 
L 411.524087 -155.133854 
L 411.332964 -160.497457 
L 411.00093 -165.86106 
L 410.463922 -171.224663 
L 409.65316 -176.588266 
L 408.506946 -181.951869 
L 406.984131 -187.315471 
L 405.075056 -192.679074 
L 402.806276 -198.042677 
L 400.237952 -203.40628 
L 397.456164 -208.769883 
L 394.564417 -214.133486 
L 391.677948 -219.497089 
L 388.921488 -224.860692 
L 386.427719 -230.224294 
L 384.331949 -235.587897 
L 382.759755 -240.9515 
L 381.808326 -246.315103 
L 381.526923 -251.678706 
L 381.904259 -257.042309 
L 382.868675 -262.405912 
L 384.301638 -267.769515 
L 386.05988 -273.133117 
L 387.999544 -278.49672 
L 389.997002 -283.860323 
L 391.963092 -289.223926 
L 393.848434 -294.587529 
L 395.638347 -299.951132 
L 397.338551 -305.314735 
L 398.957034 -310.678338 
L 400.489877 -316.04194 
L 401.916635 -321.405543 
L 403.205229 -326.769146 
L 404.321591 -332.132749 
L 405.238815 -337.496352 
L 405.943555 -342.859955 
L 406.440143 -348.223558 
L 406.752777 -353.587161 
L 406.924137 -358.950763 
L 407.008175 -364.314366 
L 407.057344 -369.677969 
L 407.108816 -375.041572 
L 407.1763 -380.405175 
L 407.251787 -385.768778 
L 407.316096 -391.132381 
L 407.352414 -396.495983 
L 407.35629 -401.859586 
L 407.338541 -407.223189 
L 407.321517 -412.586792 
L 407.331546 -417.950395 
L 407.390659 -423.313998 
L 407.510132 -428.677601 
L 407.68773 -434.041204 
L 407.909581 -439.404806 
L 408.155831 -444.768409 
L 408.407375 -450.132012 
L 408.650429 -455.495615 
L 408.877286 -460.859218 
L 409.084118 -466.222821 
L 409.268337 -471.586424 
L 409.427616 -476.950027 
L 409.560882 -482.313629 
L 409.67003 -487.677232 
L 409.760855 -493.040835 
L 409.842488 -498.404438 
L 409.925534 -503.768041 
L 410.019589 -509.131644 
L 410.130943 -514.495247 
L 410.261213 -519.85885 
L 410.407466 -525.222452 
L 410.563701 -530.586055 
L 410.722874 -535.949658 
L 410.878396 -541.313261 
L 411.024613 -546.676864 
L 411.156635 -552.040467 
L 411.270358 -557.40407 
L 411.363143 -562.767672 
L 411.43482 -568.131275 
L 411.488166 -573.494878 
L 411.528207 -578.858481 
L 411.560471 -584.222084 
L 411.589021 -589.585687 
L 411.61529 -594.94929 
L 411.638182 -600.312893 
L 411.655203 -605.676495 
L 411.663935 -611.040098 
L 411.66326 -616.403701 
L 411.654038 -621.767304 
L 411.639213 -627.130907 
L 411.623284 -632.49451 
L 411.611194 -637.858113 
L 411.606861 -643.221716 
L 411.611928 -648.585318 
L 411.625312 -653.948921 
L 411.643829 -659.312524 
L 411.663542 -664.676127 
L 411.681152 -670.03973 
L 411.694808 -675.403333 
L 411.704156 -680.766936 
L 411.727094 -680.766936 
L 411.727094 -680.766936 
L 411.736442 -675.403333 
L 411.750098 -670.03973 
L 411.767708 -664.676127 
L 411.787421 -659.312524 
L 411.805938 -653.948921 
L 411.819322 -648.585318 
L 411.824389 -643.221716 
L 411.820056 -637.858113 
L 411.807966 -632.49451 
L 411.792037 -627.130907 
L 411.777212 -621.767304 
L 411.76799 -616.403701 
L 411.767315 -611.040098 
L 411.776047 -605.676495 
L 411.793068 -600.312893 
L 411.81596 -594.94929 
L 411.842229 -589.585687 
L 411.870779 -584.222084 
L 411.903043 -578.858481 
L 411.943084 -573.494878 
L 411.99643 -568.131275 
L 412.068107 -562.767672 
L 412.160892 -557.40407 
L 412.274615 -552.040467 
L 412.406637 -546.676864 
L 412.552854 -541.313261 
L 412.708376 -535.949658 
L 412.867549 -530.586055 
L 413.023784 -525.222452 
L 413.170037 -519.85885 
L 413.300307 -514.495247 
L 413.411661 -509.131644 
L 413.505716 -503.768041 
L 413.588762 -498.404438 
L 413.670395 -493.040835 
L 413.76122 -487.677232 
L 413.870368 -482.313629 
L 414.003634 -476.950027 
L 414.162913 -471.586424 
L 414.347132 -466.222821 
L 414.553964 -460.859218 
L 414.780821 -455.495615 
L 415.023875 -450.132012 
L 415.275419 -444.768409 
L 415.521669 -439.404806 
L 415.74352 -434.041204 
L 415.921118 -428.677601 
L 416.040591 -423.313998 
L 416.099704 -417.950395 
L 416.109733 -412.586792 
L 416.092709 -407.223189 
L 416.07496 -401.859586 
L 416.078836 -396.495983 
L 416.115154 -391.132381 
L 416.179463 -385.768778 
L 416.25495 -380.405175 
L 416.322434 -375.041572 
L 416.373906 -369.677969 
L 416.423075 -364.314366 
L 416.507113 -358.950763 
L 416.678473 -353.587161 
L 416.991107 -348.223558 
L 417.487695 -342.859955 
L 418.192435 -337.496352 
L 419.109659 -332.132749 
L 420.226021 -326.769146 
L 421.514615 -321.405543 
L 422.941373 -316.04194 
L 424.474216 -310.678338 
L 426.092699 -305.314735 
L 427.792903 -299.951132 
L 429.582816 -294.587529 
L 431.468158 -289.223926 
L 433.434248 -283.860323 
L 435.431706 -278.49672 
L 437.37137 -273.133117 
L 439.129612 -267.769515 
L 440.562575 -262.405912 
L 441.526991 -257.042309 
L 441.904327 -251.678706 
L 441.622924 -246.315103 
L 440.671495 -240.9515 
L 439.099301 -235.587897 
L 437.003531 -230.224294 
L 434.509762 -224.860692 
L 431.753302 -219.497089 
L 428.866833 -214.133486 
L 425.975086 -208.769883 
L 423.193298 -203.40628 
L 420.624974 -198.042677 
L 418.356194 -192.679074 
L 416.447119 -187.315471 
L 414.924304 -181.951869 
L 413.77809 -176.588266 
L 412.967328 -171.224663 
L 412.43032 -165.86106 
L 412.098286 -160.497457 
L 411.907163 -155.133854 
L 411.804999 -149.770251 
z
" id="m9a2f73558e" style="stroke:#262626;stroke-width:1.5;"/>
    </defs>
    <g clip-path="url(#p7aa303212c)">
     <use style="fill:#5875a4;stroke:#262626;stroke-width:1.5;" x="0" xlink:href="#m9a2f73558e" y="852.24475"/>
    </g>
   </g>
   <g id="PolyCollection_3">
    <defs>
     <path d="M 601.228683 -198.254285 
L 594.202567 -198.254285 
L 593.5697 -199.141052 
L 592.848064 -200.027819 
L 592.030044 -200.914586 
L 591.108209 -201.801353 
L 590.075461 -202.68812 
L 588.925217 -203.574887 
L 587.651583 -204.461654 
L 586.249544 -205.348421 
L 584.715154 -206.235188 
L 583.045721 -207.121955 
L 581.239985 -208.008722 
L 579.298287 -208.895489 
L 577.222719 -209.782256 
L 575.017257 -210.669023 
L 572.68786 -211.55579 
L 570.242552 -212.442558 
L 567.691462 -213.329325 
L 565.046834 -214.216092 
L 562.322999 -215.102859 
L 559.536305 -215.989626 
L 556.705004 -216.876393 
L 553.849102 -217.76316 
L 550.990159 -218.649927 
L 548.151051 -219.536694 
L 545.355683 -220.423461 
L 542.628664 -221.310228 
L 539.994946 -222.196995 
L 537.479419 -223.083762 
L 535.10648 -223.970529 
L 532.899584 -224.857296 
L 530.880764 -225.744063 
L 529.070161 -226.630831 
L 527.485548 -227.517598 
L 526.141882 -228.404365 
L 525.05088 -229.291132 
L 524.220648 -230.177899 
L 523.655379 -231.064666 
L 523.355116 -231.951433 
L 523.315625 -232.8382 
L 523.528356 -233.724967 
L 523.980533 -234.611734 
L 524.655349 -235.498501 
L 525.532298 -236.385268 
L 526.587613 -237.272035 
L 527.794818 -238.158802 
L 529.125383 -239.045569 
L 530.549456 -239.932336 
L 532.036649 -240.819104 
L 533.55687 -241.705871 
L 535.081148 -242.592638 
L 536.582444 -243.479405 
L 538.036408 -244.366172 
L 539.422049 -245.252939 
L 540.722307 -246.139706 
L 541.924492 -247.026473 
L 543.020576 -247.91324 
L 544.007331 -248.800007 
L 544.886296 -249.686774 
L 545.663588 -250.573541 
L 546.349558 -251.460308 
L 546.958298 -252.347075 
L 547.507038 -253.233842 
L 548.015429 -254.120609 
L 548.504778 -255.007376 
L 548.99722 -255.894144 
L 549.5149 -256.780911 
L 550.079171 -257.667678 
L 550.709844 -258.554445 
L 551.424519 -259.441212 
L 552.238014 -260.327979 
L 553.161921 -261.214746 
L 554.204283 -262.101513 
L 555.369415 -262.98828 
L 556.657862 -263.875047 
L 558.066488 -264.761814 
L 559.58869 -265.648581 
L 561.214718 -266.535348 
L 562.932086 -267.422115 
L 564.726052 -268.308882 
L 566.580146 -269.195649 
L 568.476725 -270.082417 
L 570.397521 -270.969184 
L 572.324186 -271.855951 
L 574.238791 -272.742718 
L 576.124276 -273.629485 
L 577.96484 -274.516252 
L 579.746258 -275.403019 
L 581.456122 -276.289786 
L 583.084005 -277.176553 
L 584.621551 -278.06332 
L 586.062495 -278.950087 
L 587.402612 -279.836854 
L 588.639622 -280.723621 
L 589.773044 -281.610388 
L 590.804011 -282.497155 
L 591.735067 -283.383922 
L 592.569949 -284.27069 
L 593.313358 -285.157457 
L 593.970738 -286.044224 
L 601.460512 -286.044224 
L 601.460512 -286.044224 
L 602.117892 -285.157457 
L 602.861301 -284.27069 
L 603.696183 -283.383922 
L 604.627239 -282.497155 
L 605.658206 -281.610388 
L 606.791628 -280.723621 
L 608.028638 -279.836854 
L 609.368755 -278.950087 
L 610.809699 -278.06332 
L 612.347245 -277.176553 
L 613.975128 -276.289786 
L 615.684992 -275.403019 
L 617.46641 -274.516252 
L 619.306974 -273.629485 
L 621.192459 -272.742718 
L 623.107064 -271.855951 
L 625.033729 -270.969184 
L 626.954525 -270.082417 
L 628.851104 -269.195649 
L 630.705198 -268.308882 
L 632.499164 -267.422115 
L 634.216532 -266.535348 
L 635.84256 -265.648581 
L 637.364762 -264.761814 
L 638.773388 -263.875047 
L 640.061835 -262.98828 
L 641.226967 -262.101513 
L 642.269329 -261.214746 
L 643.193236 -260.327979 
L 644.006731 -259.441212 
L 644.721406 -258.554445 
L 645.352079 -257.667678 
L 645.91635 -256.780911 
L 646.43403 -255.894144 
L 646.926472 -255.007376 
L 647.415821 -254.120609 
L 647.924212 -253.233842 
L 648.472952 -252.347075 
L 649.081692 -251.460308 
L 649.767662 -250.573541 
L 650.544954 -249.686774 
L 651.423919 -248.800007 
L 652.410674 -247.91324 
L 653.506758 -247.026473 
L 654.708943 -246.139706 
L 656.009201 -245.252939 
L 657.394842 -244.366172 
L 658.848806 -243.479405 
L 660.350102 -242.592638 
L 661.87438 -241.705871 
L 663.394601 -240.819104 
L 664.881794 -239.932336 
L 666.305867 -239.045569 
L 667.636432 -238.158802 
L 668.843637 -237.272035 
L 669.898952 -236.385268 
L 670.775901 -235.498501 
L 671.450717 -234.611734 
L 671.902894 -233.724967 
L 672.115625 -232.8382 
L 672.076134 -231.951433 
L 671.775871 -231.064666 
L 671.210602 -230.177899 
L 670.38037 -229.291132 
L 669.289368 -228.404365 
L 667.945702 -227.517598 
L 666.361089 -226.630831 
L 664.550486 -225.744063 
L 662.531666 -224.857296 
L 660.32477 -223.970529 
L 657.951831 -223.083762 
L 655.436304 -222.196995 
L 652.802586 -221.310228 
L 650.075567 -220.423461 
L 647.280199 -219.536694 
L 644.441091 -218.649927 
L 641.582148 -217.76316 
L 638.726246 -216.876393 
L 635.894945 -215.989626 
L 633.108251 -215.102859 
L 630.384416 -214.216092 
L 627.739788 -213.329325 
L 625.188698 -212.442558 
L 622.74339 -211.55579 
L 620.413993 -210.669023 
L 618.208531 -209.782256 
L 616.132963 -208.895489 
L 614.191265 -208.008722 
L 612.385529 -207.121955 
L 610.716096 -206.235188 
L 609.181706 -205.348421 
L 607.779667 -204.461654 
L 606.506033 -203.574887 
L 605.355789 -202.68812 
L 604.323041 -201.801353 
L 603.401206 -200.914586 
L 602.583186 -200.027819 
L 601.86155 -199.141052 
L 601.228683 -198.254285 
z
" id="m641d6013e3" style="stroke:#262626;stroke-width:1.5;"/>
    </defs>
    <g clip-path="url(#p7aa303212c)">
     <use style="fill:#107010;stroke:#262626;stroke-width:1.5;" x="0" xlink:href="#m641d6013e3" y="852.24475"/>
    </g>
   </g>
   <g id="line2d_12">
    <path clip-path="url(#p7aa303212c)" d="M 225.715625 670.868486 
L 225.715625 445.310746 
" style="fill:none;stroke:#262626;stroke-linecap:round;stroke-width:1.5;"/>
   </g>
   <g id="line2d_13">
    <path clip-path="url(#p7aa303212c)" d="M 225.715625 627.993311 
L 225.715625 553.802424 
" style="fill:none;stroke:#262626;stroke-linecap:round;stroke-width:4.5;"/>
   </g>
   <g id="line2d_14">
    <path clip-path="url(#p7aa303212c)" d="M 411.715625 667.394981 
L 411.715625 434.072152 
" style="fill:none;stroke:#262626;stroke-linecap:round;stroke-width:1.5;"/>
   </g>
   <g id="line2d_15">
    <path clip-path="url(#p7aa303212c)" d="M 411.715625 611.784137 
L 411.715625 540.323868 
" style="fill:none;stroke:#262626;stroke-linecap:round;stroke-width:4.5;"/>
   </g>
   <g id="line2d_16">
    <path clip-path="url(#p7aa303212c)" d="M 597.715625 631.095978 
L 597.715625 589.095014 
" style="fill:none;stroke:#262626;stroke-linecap:round;stroke-width:1.5;"/>
   </g>
   <g id="line2d_17">
    <path clip-path="url(#p7aa303212c)" d="M 597.715625 621.4974 
L 597.715625 599.763561 
" style="fill:none;stroke:#262626;stroke-linecap:round;stroke-width:4.5;"/>
   </g>
   <g id="line2d_18">
    <path d="M 225.715625 163.7315 
L 225.715625 152.6435 
L 411.715625 152.6435 
L 411.715625 163.7315 
" style="fill:none;stroke:#333333;stroke-linecap:round;stroke-width:1.5;"/>
   </g>
   <g id="line2d_19">
    <path d="M 411.715625 103.1235 
L 411.715625 92.0355 
L 597.715625 92.0355 
L 597.715625 103.1235 
" style="fill:none;stroke:#333333;stroke-linecap:round;stroke-width:1.5;"/>
   </g>
   <g id="line2d_20">
    <path d="M 225.715625 42.5155 
L 225.715625 31.4275 
L 597.715625 31.4275 
L 597.715625 42.5155 
" style="fill:none;stroke:#333333;stroke-linecap:round;stroke-width:1.5;"/>
   </g>
   <g id="patch_3">
    <path d="M 132.715625 734.7635 
L 132.715625 180.3635 
" style="fill:none;stroke:#262626;stroke-linecap:square;stroke-linejoin:miter;stroke-width:1.25;"/>
   </g>
   <g id="patch_4">
    <path d="M 690.715625 734.7635 
L 690.715625 180.3635 
" style="fill:none;stroke:#262626;stroke-linecap:square;stroke-linejoin:miter;stroke-width:1.25;"/>
   </g>
   <g id="patch_5">
    <path d="M 132.715625 734.7635 
L 690.715625 734.7635 
" style="fill:none;stroke:#262626;stroke-linecap:square;stroke-linejoin:miter;stroke-width:1.25;"/>
   </g>
   <g id="patch_6">
    <path d="M 132.715625 180.3635 
L 690.715625 180.3635 
" style="fill:none;stroke:#262626;stroke-linecap:square;stroke-linejoin:miter;stroke-width:1.25;"/>
   </g>
   <g id="PathCollection_1">
    <defs>
     <path d="M 0 1.5 
C 0.397805 1.5 0.77937 1.341951 1.06066 1.06066 
C 1.341951 0.77937 1.5 0.397805 1.5 0 
C 1.5 -0.397805 1.341951 -0.77937 1.06066 -1.06066 
C 0.77937 -1.341951 0.397805 -1.5 0 -1.5 
C -0.397805 -1.5 -0.77937 -1.341951 -1.06066 -1.06066 
C -1.341951 -0.77937 -1.5 -0.397805 -1.5 0 
C -1.5 0.397805 -1.341951 0.77937 -1.06066 1.06066 
C -0.77937 1.341951 -0.397805 1.5 0 1.5 
z
" id="m6a97179030" style="stroke:#262626;"/>
    </defs>
    <g clip-path="url(#p7aa303212c)">
     <use style="fill:#ffffff;stroke:#262626;" x="225.715625" xlink:href="#m6a97179030" y="591.079034"/>
    </g>
   </g>
   <g id="PathCollection_2">
    <g clip-path="url(#p7aa303212c)">
     <use style="fill:#ffffff;stroke:#262626;" x="411.715625" xlink:href="#m6a97179030" y="585.779609"/>
    </g>
   </g>
   <g id="PathCollection_3">
    <g clip-path="url(#p7aa303212c)">
     <use style="fill:#ffffff;stroke:#262626;" x="597.715625" xlink:href="#m6a97179030" y="616.047187"/>
    </g>
   </g>
   <g id="text_14">
    <!-- Ranksum p = 4.367e-06 -->
    <defs>
     <path d="M 34.28125 27.484375 
Q 23.390625 27.484375 19.1875 25 
Q 14.984375 22.515625 14.984375 16.5 
Q 14.984375 11.71875 18.140625 8.90625 
Q 21.296875 6.109375 26.703125 6.109375 
Q 34.1875 6.109375 38.703125 11.40625 
Q 43.21875 16.703125 43.21875 25.484375 
L 43.21875 27.484375 
z
M 52.203125 31.203125 
L 52.203125 0 
L 43.21875 0 
L 43.21875 8.296875 
Q 40.140625 3.328125 35.546875 0.953125 
Q 30.953125 -1.421875 24.3125 -1.421875 
Q 15.921875 -1.421875 10.953125 3.296875 
Q 6 8.015625 6 15.921875 
Q 6 25.140625 12.171875 29.828125 
Q 18.359375 34.515625 30.609375 34.515625 
L 43.21875 34.515625 
L 43.21875 35.40625 
Q 43.21875 41.609375 39.140625 45 
Q 35.0625 48.390625 27.6875 48.390625 
Q 23 48.390625 18.546875 47.265625 
Q 14.109375 46.140625 10.015625 43.890625 
L 10.015625 52.203125 
Q 14.9375 54.109375 19.578125 55.046875 
Q 24.21875 56 28.609375 56 
Q 40.484375 56 46.34375 49.84375 
Q 52.203125 43.703125 52.203125 31.203125 
z
" id="DejaVuSans-97"/>
     <path d="M 9.078125 75.984375 
L 18.109375 75.984375 
L 18.109375 31.109375 
L 44.921875 54.6875 
L 56.390625 54.6875 
L 27.390625 29.109375 
L 57.625 0 
L 45.90625 0 
L 18.109375 26.703125 
L 18.109375 0 
L 9.078125 0 
z
" id="DejaVuSans-107"/>
     <path d="M 8.5 21.578125 
L 8.5 54.6875 
L 17.484375 54.6875 
L 17.484375 21.921875 
Q 17.484375 14.15625 20.5 10.265625 
Q 23.53125 6.390625 29.59375 6.390625 
Q 36.859375 6.390625 41.078125 11.03125 
Q 45.3125 15.671875 45.3125 23.6875 
L 45.3125 54.6875 
L 54.296875 54.6875 
L 54.296875 0 
L 45.3125 0 
L 45.3125 8.40625 
Q 42.046875 3.421875 37.71875 1 
Q 33.40625 -1.421875 27.6875 -1.421875 
Q 18.265625 -1.421875 13.375 4.4375 
Q 8.5 10.296875 8.5 21.578125 
z
M 31.109375 56 
z
" id="DejaVuSans-117"/>
     <path d="M 52 44.1875 
Q 55.375 50.25 60.0625 53.125 
Q 64.75 56 71.09375 56 
Q 79.640625 56 84.28125 50.015625 
Q 88.921875 44.046875 88.921875 33.015625 
L 88.921875 0 
L 79.890625 0 
L 79.890625 32.71875 
Q 79.890625 40.578125 77.09375 44.375 
Q 74.3125 48.1875 68.609375 48.1875 
Q 61.625 48.1875 57.5625 43.546875 
Q 53.515625 38.921875 53.515625 30.90625 
L 53.515625 0 
L 44.484375 0 
L 44.484375 32.71875 
Q 44.484375 40.625 41.703125 44.40625 
Q 38.921875 48.1875 33.109375 48.1875 
Q 26.21875 48.1875 22.15625 43.53125 
Q 18.109375 38.875 18.109375 30.90625 
L 18.109375 0 
L 9.078125 0 
L 9.078125 54.6875 
L 18.109375 54.6875 
L 18.109375 46.1875 
Q 21.1875 51.21875 25.484375 53.609375 
Q 29.78125 56 35.6875 56 
Q 41.65625 56 45.828125 52.96875 
Q 50 49.953125 52 44.1875 
z
" id="DejaVuSans-109"/>
     <path id="DejaVuSans-32"/>
     <path d="M 10.59375 45.40625 
L 73.1875 45.40625 
L 73.1875 37.203125 
L 10.59375 37.203125 
z
M 10.59375 25.484375 
L 73.1875 25.484375 
L 73.1875 17.1875 
L 10.59375 17.1875 
z
" id="DejaVuSans-61"/>
     <path d="M 10.6875 12.40625 
L 21 12.40625 
L 21 0 
L 10.6875 0 
z
" id="DejaVuSans-46"/>
     <path d="M 40.578125 39.3125 
Q 47.65625 37.796875 51.625 33 
Q 55.609375 28.21875 55.609375 21.1875 
Q 55.609375 10.40625 48.1875 4.484375 
Q 40.765625 -1.421875 27.09375 -1.421875 
Q 22.515625 -1.421875 17.65625 -0.515625 
Q 12.796875 0.390625 7.625 2.203125 
L 7.625 11.71875 
Q 11.71875 9.328125 16.59375 8.109375 
Q 21.484375 6.890625 26.8125 6.890625 
Q 36.078125 6.890625 40.9375 10.546875 
Q 45.796875 14.203125 45.796875 21.1875 
Q 45.796875 27.640625 41.28125 31.265625 
Q 36.765625 34.90625 28.71875 34.90625 
L 20.21875 34.90625 
L 20.21875 43.015625 
L 29.109375 43.015625 
Q 36.375 43.015625 40.234375 45.921875 
Q 44.09375 48.828125 44.09375 54.296875 
Q 44.09375 59.90625 40.109375 62.90625 
Q 36.140625 65.921875 28.71875 65.921875 
Q 24.65625 65.921875 20.015625 65.03125 
Q 15.375 64.15625 9.8125 62.3125 
L 9.8125 71.09375 
Q 15.4375 72.65625 20.34375 73.4375 
Q 25.25 74.21875 29.59375 74.21875 
Q 40.828125 74.21875 47.359375 69.109375 
Q 53.90625 64.015625 53.90625 55.328125 
Q 53.90625 49.265625 50.4375 45.09375 
Q 46.96875 40.921875 40.578125 39.3125 
z
" id="DejaVuSans-51"/>
     <path d="M 8.203125 72.90625 
L 55.078125 72.90625 
L 55.078125 68.703125 
L 28.609375 0 
L 18.3125 0 
L 43.21875 64.59375 
L 8.203125 64.59375 
z
" id="DejaVuSans-55"/>
    </defs>
    <g style="fill:#262626;" transform="translate(172.743125 146.65225)scale(0.24 -0.24)">
     <use xlink:href="#DejaVuSans-82"/>
     <use x="67.232422" xlink:href="#DejaVuSans-97"/>
     <use x="128.511719" xlink:href="#DejaVuSans-110"/>
     <use x="191.890625" xlink:href="#DejaVuSans-107"/>
     <use x="249.800781" xlink:href="#DejaVuSans-115"/>
     <use x="301.900391" xlink:href="#DejaVuSans-117"/>
     <use x="365.279297" xlink:href="#DejaVuSans-109"/>
     <use x="462.691406" xlink:href="#DejaVuSans-32"/>
     <use x="494.478516" xlink:href="#DejaVuSans-112"/>
     <use x="557.955078" xlink:href="#DejaVuSans-32"/>
     <use x="589.742188" xlink:href="#DejaVuSans-61"/>
     <use x="673.53125" xlink:href="#DejaVuSans-32"/>
     <use x="705.318359" xlink:href="#DejaVuSans-52"/>
     <use x="768.941406" xlink:href="#DejaVuSans-46"/>
     <use x="800.728516" xlink:href="#DejaVuSans-51"/>
     <use x="864.351562" xlink:href="#DejaVuSans-54"/>
     <use x="927.974609" xlink:href="#DejaVuSans-55"/>
     <use x="991.597656" xlink:href="#DejaVuSans-101"/>
     <use x="1053.121094" xlink:href="#DejaVuSans-45"/>
     <use x="1089.205078" xlink:href="#DejaVuSans-48"/>
     <use x="1152.828125" xlink:href="#DejaVuSans-54"/>
    </g>
   </g>
   <g id="text_15">
    <!-- Ranksum p = 4.665e-02 -->
    <defs>
     <path d="M 10.796875 72.90625 
L 49.515625 72.90625 
L 49.515625 64.59375 
L 19.828125 64.59375 
L 19.828125 46.734375 
Q 21.96875 47.46875 24.109375 47.828125 
Q 26.265625 48.1875 28.421875 48.1875 
Q 40.625 48.1875 47.75 41.5 
Q 54.890625 34.8125 54.890625 23.390625 
Q 54.890625 11.625 47.5625 5.09375 
Q 40.234375 -1.421875 26.90625 -1.421875 
Q 22.3125 -1.421875 17.546875 -0.640625 
Q 12.796875 0.140625 7.71875 1.703125 
L 7.71875 11.625 
Q 12.109375 9.234375 16.796875 8.0625 
Q 21.484375 6.890625 26.703125 6.890625 
Q 35.15625 6.890625 40.078125 11.328125 
Q 45.015625 15.765625 45.015625 23.390625 
Q 45.015625 31 40.078125 35.4375 
Q 35.15625 39.890625 26.703125 39.890625 
Q 22.75 39.890625 18.8125 39.015625 
Q 14.890625 38.140625 10.796875 36.28125 
z
" id="DejaVuSans-53"/>
    </defs>
    <g style="fill:#262626;" transform="translate(358.743125 86.04425)scale(0.24 -0.24)">
     <use xlink:href="#DejaVuSans-82"/>
     <use x="67.232422" xlink:href="#DejaVuSans-97"/>
     <use x="128.511719" xlink:href="#DejaVuSans-110"/>
     <use x="191.890625" xlink:href="#DejaVuSans-107"/>
     <use x="249.800781" xlink:href="#DejaVuSans-115"/>
     <use x="301.900391" xlink:href="#DejaVuSans-117"/>
     <use x="365.279297" xlink:href="#DejaVuSans-109"/>
     <use x="462.691406" xlink:href="#DejaVuSans-32"/>
     <use x="494.478516" xlink:href="#DejaVuSans-112"/>
     <use x="557.955078" xlink:href="#DejaVuSans-32"/>
     <use x="589.742188" xlink:href="#DejaVuSans-61"/>
     <use x="673.53125" xlink:href="#DejaVuSans-32"/>
     <use x="705.318359" xlink:href="#DejaVuSans-52"/>
     <use x="768.941406" xlink:href="#DejaVuSans-46"/>
     <use x="800.728516" xlink:href="#DejaVuSans-54"/>
     <use x="864.351562" xlink:href="#DejaVuSans-54"/>
     <use x="927.974609" xlink:href="#DejaVuSans-53"/>
     <use x="991.597656" xlink:href="#DejaVuSans-101"/>
     <use x="1053.121094" xlink:href="#DejaVuSans-45"/>
     <use x="1089.205078" xlink:href="#DejaVuSans-48"/>
     <use x="1152.828125" xlink:href="#DejaVuSans-50"/>
    </g>
   </g>
   <g id="text_16">
    <!-- Ranksum p = 2.365e-01 -->
    <g style="fill:#262626;" transform="translate(265.743125 25.43625)scale(0.24 -0.24)">
     <use xlink:href="#DejaVuSans-82"/>
     <use x="67.232422" xlink:href="#DejaVuSans-97"/>
     <use x="128.511719" xlink:href="#DejaVuSans-110"/>
     <use x="191.890625" xlink:href="#DejaVuSans-107"/>
     <use x="249.800781" xlink:href="#DejaVuSans-115"/>
     <use x="301.900391" xlink:href="#DejaVuSans-117"/>
     <use x="365.279297" xlink:href="#DejaVuSans-109"/>
     <use x="462.691406" xlink:href="#DejaVuSans-32"/>
     <use x="494.478516" xlink:href="#DejaVuSans-112"/>
     <use x="557.955078" xlink:href="#DejaVuSans-32"/>
     <use x="589.742188" xlink:href="#DejaVuSans-61"/>
     <use x="673.53125" xlink:href="#DejaVuSans-32"/>
     <use x="705.318359" xlink:href="#DejaVuSans-50"/>
     <use x="768.941406" xlink:href="#DejaVuSans-46"/>
     <use x="800.728516" xlink:href="#DejaVuSans-51"/>
     <use x="864.351562" xlink:href="#DejaVuSans-54"/>
     <use x="927.974609" xlink:href="#DejaVuSans-53"/>
     <use x="991.597656" xlink:href="#DejaVuSans-101"/>
     <use x="1053.121094" xlink:href="#DejaVuSans-45"/>
     <use x="1089.205078" xlink:href="#DejaVuSans-48"/>
     <use x="1152.828125" xlink:href="#DejaVuSans-49"/>
    </g>
   </g>
  </g>
 </g>
 <defs>
  <clipPath id="p7aa303212c">
   <rect height="554.4" width="558" x="132.715625" y="180.3635"/>
  </clipPath>
 </defs>
</svg>
