<?xml version="1.0" encoding="utf-8" standalone="no"?>
<!DOCTYPE svg PUBLIC "-//W3C//DTD SVG 1.1//EN"
  "http://www.w3.org/Graphics/SVG/1.1/DTD/svg11.dtd">
<!-- Created with matplotlib (https://matplotlib.org/) -->
<svg height="852.24475pt" version="1.1" viewBox="0 0 697.915625 852.24475" width="697.915625pt" xmlns="http://www.w3.org/2000/svg" xmlns:xlink="http://www.w3.org/1999/xlink">
 <defs>
  <style type="text/css">
*{stroke-linecap:butt;stroke-linejoin:round;}
  </style>
 </defs>
 <g id="figure_1">
  <g id="patch_1">
   <path d="M 0 852.24475 
L 697.915625 852.24475 
L 697.915625 0 
L 0 0 
z
" style="fill:#ffffff;"/>
  </g>
  <g id="axes_1">
   <g id="patch_2">
    <path d="M 132.715625 734.7635 
L 690.715625 734.7635 
L 690.715625 180.3635 
L 132.715625 180.3635 
z
" style="fill:#ffffff;"/>
   </g>
   <g id="matplotlib.axis_1">
    <g id="xtick_1">
     <g id="line2d_1">
      <defs>
       <path d="M 0 0 
L 0 6 
" id="ma7657b3f67" style="stroke:#262626;stroke-width:1.25;"/>
      </defs>
      <g>
       <use style="fill:#262626;stroke:#262626;stroke-width:1.25;" x="225.715625" xlink:href="#ma7657b3f67" y="734.7635"/>
      </g>
     </g>
     <g id="text_1">
      <!-- Gs -->
      <defs>
       <path d="M 59.515625 10.40625 
L 59.515625 29.984375 
L 43.40625 29.984375 
L 43.40625 38.09375 
L 69.28125 38.09375 
L 69.28125 6.78125 
Q 63.578125 2.734375 56.6875 0.65625 
Q 49.8125 -1.421875 42 -1.421875 
Q 24.90625 -1.421875 15.25 8.5625 
Q 5.609375 18.5625 5.609375 36.375 
Q 5.609375 54.25 15.25 64.234375 
Q 24.90625 74.21875 42 74.21875 
Q 49.125 74.21875 55.546875 72.453125 
Q 61.96875 70.703125 67.390625 67.28125 
L 67.390625 56.78125 
Q 61.921875 61.421875 55.765625 63.765625 
Q 49.609375 66.109375 42.828125 66.109375 
Q 29.4375 66.109375 22.71875 58.640625 
Q 16.015625 51.171875 16.015625 36.375 
Q 16.015625 21.625 22.71875 14.15625 
Q 29.4375 6.6875 42.828125 6.6875 
Q 48.046875 6.6875 52.140625 7.59375 
Q 56.25 8.5 59.515625 10.40625 
z
" id="DejaVuSans-71"/>
       <path d="M 44.28125 53.078125 
L 44.28125 44.578125 
Q 40.484375 46.53125 36.375 47.5 
Q 32.28125 48.484375 27.875 48.484375 
Q 21.1875 48.484375 17.84375 46.4375 
Q 14.5 44.390625 14.5 40.28125 
Q 14.5 37.15625 16.890625 35.375 
Q 19.28125 33.59375 26.515625 31.984375 
L 29.59375 31.296875 
Q 39.15625 29.25 43.1875 25.515625 
Q 47.21875 21.78125 47.21875 15.09375 
Q 47.21875 7.46875 41.1875 3.015625 
Q 35.15625 -1.421875 24.609375 -1.421875 
Q 20.21875 -1.421875 15.453125 -0.5625 
Q 10.6875 0.296875 5.421875 2 
L 5.421875 11.28125 
Q 10.40625 8.6875 15.234375 7.390625 
Q 20.0625 6.109375 24.8125 6.109375 
Q 31.15625 6.109375 34.5625 8.28125 
Q 37.984375 10.453125 37.984375 14.40625 
Q 37.984375 18.0625 35.515625 20.015625 
Q 33.0625 21.96875 24.703125 23.78125 
L 21.578125 24.515625 
Q 13.234375 26.265625 9.515625 29.90625 
Q 5.8125 33.546875 5.8125 39.890625 
Q 5.8125 47.609375 11.28125 51.796875 
Q 16.75 56 26.8125 56 
Q 31.78125 56 36.171875 55.265625 
Q 40.578125 54.546875 44.28125 53.078125 
z
" id="DejaVuSans-115"/>
      </defs>
      <g style="fill:#262626;" transform="translate(193.321094 782.255688)scale(0.5 -0.5)">
       <use xlink:href="#DejaVuSans-71"/>
       <use x="77.490234" xlink:href="#DejaVuSans-115"/>
      </g>
     </g>
    </g>
    <g id="xtick_2">
     <g id="line2d_2">
      <g>
       <use style="fill:#262626;stroke:#262626;stroke-width:1.25;" x="411.715625" xlink:href="#ma7657b3f67" y="734.7635"/>
      </g>
     </g>
     <g id="text_2">
      <!-- Gio -->
      <defs>
       <path d="M 9.421875 54.6875 
L 18.40625 54.6875 
L 18.40625 0 
L 9.421875 0 
z
M 9.421875 75.984375 
L 18.40625 75.984375 
L 18.40625 64.59375 
L 9.421875 64.59375 
z
" id="DejaVuSans-105"/>
       <path d="M 30.609375 48.390625 
Q 23.390625 48.390625 19.1875 42.75 
Q 14.984375 37.109375 14.984375 27.296875 
Q 14.984375 17.484375 19.15625 11.84375 
Q 23.34375 6.203125 30.609375 6.203125 
Q 37.796875 6.203125 41.984375 11.859375 
Q 46.1875 17.53125 46.1875 27.296875 
Q 46.1875 37.015625 41.984375 42.703125 
Q 37.796875 48.390625 30.609375 48.390625 
z
M 30.609375 56 
Q 42.328125 56 49.015625 48.375 
Q 55.71875 40.765625 55.71875 27.296875 
Q 55.71875 13.875 49.015625 6.21875 
Q 42.328125 -1.421875 30.609375 -1.421875 
Q 18.84375 -1.421875 12.171875 6.21875 
Q 5.515625 13.875 5.515625 27.296875 
Q 5.515625 40.765625 12.171875 48.375 
Q 18.84375 56 30.609375 56 
z
" id="DejaVuSans-111"/>
      </defs>
      <g style="fill:#262626;" transform="translate(370.102344 782.255688)scale(0.5 -0.5)">
       <use xlink:href="#DejaVuSans-71"/>
       <use x="77.490234" xlink:href="#DejaVuSans-105"/>
       <use x="105.273438" xlink:href="#DejaVuSans-111"/>
      </g>
     </g>
    </g>
    <g id="xtick_3">
     <g id="line2d_3">
      <g>
       <use style="fill:#262626;stroke:#262626;stroke-width:1.25;" x="597.715625" xlink:href="#ma7657b3f67" y="734.7635"/>
      </g>
     </g>
     <g id="text_3">
      <!-- Gq11 -->
      <defs>
       <path d="M 14.796875 27.296875 
Q 14.796875 17.390625 18.875 11.75 
Q 22.953125 6.109375 30.078125 6.109375 
Q 37.203125 6.109375 41.296875 11.75 
Q 45.40625 17.390625 45.40625 27.296875 
Q 45.40625 37.203125 41.296875 42.84375 
Q 37.203125 48.484375 30.078125 48.484375 
Q 22.953125 48.484375 18.875 42.84375 
Q 14.796875 37.203125 14.796875 27.296875 
z
M 45.40625 8.203125 
Q 42.578125 3.328125 38.25 0.953125 
Q 33.9375 -1.421875 27.875 -1.421875 
Q 17.96875 -1.421875 11.734375 6.484375 
Q 5.515625 14.40625 5.515625 27.296875 
Q 5.515625 40.1875 11.734375 48.09375 
Q 17.96875 56 27.875 56 
Q 33.9375 56 38.25 53.625 
Q 42.578125 51.265625 45.40625 46.390625 
L 45.40625 54.6875 
L 54.390625 54.6875 
L 54.390625 -20.796875 
L 45.40625 -20.796875 
z
" id="DejaVuSans-113"/>
       <path d="M 12.40625 8.296875 
L 28.515625 8.296875 
L 28.515625 63.921875 
L 10.984375 60.40625 
L 10.984375 69.390625 
L 28.421875 72.90625 
L 38.28125 72.90625 
L 38.28125 8.296875 
L 54.390625 8.296875 
L 54.390625 0 
L 12.40625 0 
z
" id="DejaVuSans-49"/>
      </defs>
      <g style="fill:#262626;" transform="translate(530.660938 782.255688)scale(0.5 -0.5)">
       <use xlink:href="#DejaVuSans-71"/>
       <use x="77.490234" xlink:href="#DejaVuSans-113"/>
       <use x="140.966797" xlink:href="#DejaVuSans-49"/>
       <use x="204.589844" xlink:href="#DejaVuSans-49"/>
      </g>
     </g>
    </g>
    <g id="text_4">
     <!-- G-protein -->
     <defs>
      <path d="M 4.890625 31.390625 
L 31.203125 31.390625 
L 31.203125 23.390625 
L 4.890625 23.390625 
z
" id="DejaVuSans-45"/>
      <path d="M 18.109375 8.203125 
L 18.109375 -20.796875 
L 9.078125 -20.796875 
L 9.078125 54.6875 
L 18.109375 54.6875 
L 18.109375 46.390625 
Q 20.953125 51.265625 25.265625 53.625 
Q 29.59375 56 35.59375 56 
Q 45.5625 56 51.78125 48.09375 
Q 58.015625 40.1875 58.015625 27.296875 
Q 58.015625 14.40625 51.78125 6.484375 
Q 45.5625 -1.421875 35.59375 -1.421875 
Q 29.59375 -1.421875 25.265625 0.953125 
Q 20.953125 3.328125 18.109375 8.203125 
z
M 48.6875 27.296875 
Q 48.6875 37.203125 44.609375 42.84375 
Q 40.53125 48.484375 33.40625 48.484375 
Q 26.265625 48.484375 22.1875 42.84375 
Q 18.109375 37.203125 18.109375 27.296875 
Q 18.109375 17.390625 22.1875 11.75 
Q 26.265625 6.109375 33.40625 6.109375 
Q 40.53125 6.109375 44.609375 11.75 
Q 48.6875 17.390625 48.6875 27.296875 
z
" id="DejaVuSans-112"/>
      <path d="M 41.109375 46.296875 
Q 39.59375 47.171875 37.8125 47.578125 
Q 36.03125 48 33.890625 48 
Q 26.265625 48 22.1875 43.046875 
Q 18.109375 38.09375 18.109375 28.8125 
L 18.109375 0 
L 9.078125 0 
L 9.078125 54.6875 
L 18.109375 54.6875 
L 18.109375 46.1875 
Q 20.953125 51.171875 25.484375 53.578125 
Q 30.03125 56 36.53125 56 
Q 37.453125 56 38.578125 55.875 
Q 39.703125 55.765625 41.0625 55.515625 
z
" id="DejaVuSans-114"/>
      <path d="M 18.3125 70.21875 
L 18.3125 54.6875 
L 36.8125 54.6875 
L 36.8125 47.703125 
L 18.3125 47.703125 
L 18.3125 18.015625 
Q 18.3125 11.328125 20.140625 9.421875 
Q 21.96875 7.515625 27.59375 7.515625 
L 36.8125 7.515625 
L 36.8125 0 
L 27.59375 0 
Q 17.1875 0 13.234375 3.875 
Q 9.28125 7.765625 9.28125 18.015625 
L 9.28125 47.703125 
L 2.6875 47.703125 
L 2.6875 54.6875 
L 9.28125 54.6875 
L 9.28125 70.21875 
z
" id="DejaVuSans-116"/>
      <path d="M 56.203125 29.59375 
L 56.203125 25.203125 
L 14.890625 25.203125 
Q 15.484375 15.921875 20.484375 11.0625 
Q 25.484375 6.203125 34.421875 6.203125 
Q 39.59375 6.203125 44.453125 7.46875 
Q 49.3125 8.734375 54.109375 11.28125 
L 54.109375 2.78125 
Q 49.265625 0.734375 44.1875 -0.34375 
Q 39.109375 -1.421875 33.890625 -1.421875 
Q 20.796875 -1.421875 13.15625 6.1875 
Q 5.515625 13.8125 5.515625 26.8125 
Q 5.515625 40.234375 12.765625 48.109375 
Q 20.015625 56 32.328125 56 
Q 43.359375 56 49.78125 48.890625 
Q 56.203125 41.796875 56.203125 29.59375 
z
M 47.21875 32.234375 
Q 47.125 39.59375 43.09375 43.984375 
Q 39.0625 48.390625 32.421875 48.390625 
Q 24.90625 48.390625 20.390625 44.140625 
Q 15.875 39.890625 15.1875 32.171875 
z
" id="DejaVuSans-101"/>
      <path d="M 54.890625 33.015625 
L 54.890625 0 
L 45.90625 0 
L 45.90625 32.71875 
Q 45.90625 40.484375 42.875 44.328125 
Q 39.84375 48.1875 33.796875 48.1875 
Q 26.515625 48.1875 22.3125 43.546875 
Q 18.109375 38.921875 18.109375 30.90625 
L 18.109375 0 
L 9.078125 0 
L 9.078125 54.6875 
L 18.109375 54.6875 
L 18.109375 46.1875 
Q 21.34375 51.125 25.703125 53.5625 
Q 30.078125 56 35.796875 56 
Q 45.21875 56 50.046875 50.171875 
Q 54.890625 44.34375 54.890625 33.015625 
z
" id="DejaVuSans-110"/>
     </defs>
     <g style="fill:#262626;" transform="translate(294.469531 834.646313)scale(0.5 -0.5)">
      <use xlink:href="#DejaVuSans-71"/>
      <use x="77.490234" xlink:href="#DejaVuSans-45"/>
      <use x="113.574219" xlink:href="#DejaVuSans-112"/>
      <use x="177.050781" xlink:href="#DejaVuSans-114"/>
      <use x="215.914062" xlink:href="#DejaVuSans-111"/>
      <use x="277.095703" xlink:href="#DejaVuSans-116"/>
      <use x="316.304688" xlink:href="#DejaVuSans-101"/>
      <use x="377.828125" xlink:href="#DejaVuSans-105"/>
      <use x="405.611328" xlink:href="#DejaVuSans-110"/>
     </g>
    </g>
   </g>
   <g id="matplotlib.axis_2">
    <g id="ytick_1">
     <g id="line2d_4">
      <defs>
       <path d="M 0 0 
L -6 0 
" id="mbd155b2511" style="stroke:#262626;stroke-width:1.25;"/>
      </defs>
      <g>
       <use style="fill:#262626;stroke:#262626;stroke-width:1.25;" x="132.715625" xlink:href="#mbd155b2511" y="684.3635"/>
      </g>
     </g>
     <g id="text_5">
      <!-- 0 -->
      <defs>
       <path d="M 31.78125 66.40625 
Q 24.171875 66.40625 20.328125 58.90625 
Q 16.5 51.421875 16.5 36.375 
Q 16.5 21.390625 20.328125 13.890625 
Q 24.171875 6.390625 31.78125 6.390625 
Q 39.453125 6.390625 43.28125 13.890625 
Q 47.125 21.390625 47.125 36.375 
Q 47.125 51.421875 43.28125 58.90625 
Q 39.453125 66.40625 31.78125 66.40625 
z
M 31.78125 74.21875 
Q 44.046875 74.21875 50.515625 64.515625 
Q 56.984375 54.828125 56.984375 36.375 
Q 56.984375 17.96875 50.515625 8.265625 
Q 44.046875 -1.421875 31.78125 -1.421875 
Q 19.53125 -1.421875 13.0625 8.265625 
Q 6.59375 17.96875 6.59375 36.375 
Q 6.59375 54.828125 13.0625 64.515625 
Q 19.53125 74.21875 31.78125 74.21875 
z
" id="DejaVuSans-48"/>
      </defs>
      <g style="fill:#262626;" transform="translate(91.403125 703.359594)scale(0.5 -0.5)">
       <use xlink:href="#DejaVuSans-48"/>
      </g>
     </g>
    </g>
    <g id="ytick_2">
     <g id="line2d_5">
      <g>
       <use style="fill:#262626;stroke:#262626;stroke-width:1.25;" x="132.715625" xlink:href="#mbd155b2511" y="617.1635"/>
      </g>
     </g>
     <g id="text_6">
      <!-- 4 -->
      <defs>
       <path d="M 37.796875 64.3125 
L 12.890625 25.390625 
L 37.796875 25.390625 
z
M 35.203125 72.90625 
L 47.609375 72.90625 
L 47.609375 25.390625 
L 58.015625 25.390625 
L 58.015625 17.1875 
L 47.609375 17.1875 
L 47.609375 0 
L 37.796875 0 
L 37.796875 17.1875 
L 4.890625 17.1875 
L 4.890625 26.703125 
z
" id="DejaVuSans-52"/>
      </defs>
      <g style="fill:#262626;" transform="translate(91.403125 636.159594)scale(0.5 -0.5)">
       <use xlink:href="#DejaVuSans-52"/>
      </g>
     </g>
    </g>
    <g id="ytick_3">
     <g id="line2d_6">
      <g>
       <use style="fill:#262626;stroke:#262626;stroke-width:1.25;" x="132.715625" xlink:href="#mbd155b2511" y="549.9635"/>
      </g>
     </g>
     <g id="text_7">
      <!-- 8 -->
      <defs>
       <path d="M 31.78125 34.625 
Q 24.75 34.625 20.71875 30.859375 
Q 16.703125 27.09375 16.703125 20.515625 
Q 16.703125 13.921875 20.71875 10.15625 
Q 24.75 6.390625 31.78125 6.390625 
Q 38.8125 6.390625 42.859375 10.171875 
Q 46.921875 13.96875 46.921875 20.515625 
Q 46.921875 27.09375 42.890625 30.859375 
Q 38.875 34.625 31.78125 34.625 
z
M 21.921875 38.8125 
Q 15.578125 40.375 12.03125 44.71875 
Q 8.5 49.078125 8.5 55.328125 
Q 8.5 64.0625 14.71875 69.140625 
Q 20.953125 74.21875 31.78125 74.21875 
Q 42.671875 74.21875 48.875 69.140625 
Q 55.078125 64.0625 55.078125 55.328125 
Q 55.078125 49.078125 51.53125 44.71875 
Q 48 40.375 41.703125 38.8125 
Q 48.828125 37.15625 52.796875 32.3125 
Q 56.78125 27.484375 56.78125 20.515625 
Q 56.78125 9.90625 50.3125 4.234375 
Q 43.84375 -1.421875 31.78125 -1.421875 
Q 19.734375 -1.421875 13.25 4.234375 
Q 6.78125 9.90625 6.78125 20.515625 
Q 6.78125 27.484375 10.78125 32.3125 
Q 14.796875 37.15625 21.921875 38.8125 
z
M 18.3125 54.390625 
Q 18.3125 48.734375 21.84375 45.5625 
Q 25.390625 42.390625 31.78125 42.390625 
Q 38.140625 42.390625 41.71875 45.5625 
Q 45.3125 48.734375 45.3125 54.390625 
Q 45.3125 60.0625 41.71875 63.234375 
Q 38.140625 66.40625 31.78125 66.40625 
Q 25.390625 66.40625 21.84375 63.234375 
Q 18.3125 60.0625 18.3125 54.390625 
z
" id="DejaVuSans-56"/>
      </defs>
      <g style="fill:#262626;" transform="translate(91.403125 568.959594)scale(0.5 -0.5)">
       <use xlink:href="#DejaVuSans-56"/>
      </g>
     </g>
    </g>
    <g id="ytick_4">
     <g id="line2d_7">
      <g>
       <use style="fill:#262626;stroke:#262626;stroke-width:1.25;" x="132.715625" xlink:href="#mbd155b2511" y="482.7635"/>
      </g>
     </g>
     <g id="text_8">
      <!-- 12 -->
      <defs>
       <path d="M 19.1875 8.296875 
L 53.609375 8.296875 
L 53.609375 0 
L 7.328125 0 
L 7.328125 8.296875 
Q 12.9375 14.109375 22.625 23.890625 
Q 32.328125 33.6875 34.8125 36.53125 
Q 39.546875 41.84375 41.421875 45.53125 
Q 43.3125 49.21875 43.3125 52.78125 
Q 43.3125 58.59375 39.234375 62.25 
Q 35.15625 65.921875 28.609375 65.921875 
Q 23.96875 65.921875 18.8125 64.3125 
Q 13.671875 62.703125 7.8125 59.421875 
L 7.8125 69.390625 
Q 13.765625 71.78125 18.9375 73 
Q 24.125 74.21875 28.421875 74.21875 
Q 39.75 74.21875 46.484375 68.546875 
Q 53.21875 62.890625 53.21875 53.421875 
Q 53.21875 48.921875 51.53125 44.890625 
Q 49.859375 40.875 45.40625 35.40625 
Q 44.1875 33.984375 37.640625 27.21875 
Q 31.109375 20.453125 19.1875 8.296875 
z
" id="DejaVuSans-50"/>
      </defs>
      <g style="fill:#262626;" transform="translate(59.590625 501.759594)scale(0.5 -0.5)">
       <use xlink:href="#DejaVuSans-49"/>
       <use x="63.623047" xlink:href="#DejaVuSans-50"/>
      </g>
     </g>
    </g>
    <g id="ytick_5">
     <g id="line2d_8">
      <g>
       <use style="fill:#262626;stroke:#262626;stroke-width:1.25;" x="132.715625" xlink:href="#mbd155b2511" y="415.5635"/>
      </g>
     </g>
     <g id="text_9">
      <!-- 16 -->
      <defs>
       <path d="M 33.015625 40.375 
Q 26.375 40.375 22.484375 35.828125 
Q 18.609375 31.296875 18.609375 23.390625 
Q 18.609375 15.53125 22.484375 10.953125 
Q 26.375 6.390625 33.015625 6.390625 
Q 39.65625 6.390625 43.53125 10.953125 
Q 47.40625 15.53125 47.40625 23.390625 
Q 47.40625 31.296875 43.53125 35.828125 
Q 39.65625 40.375 33.015625 40.375 
z
M 52.59375 71.296875 
L 52.59375 62.3125 
Q 48.875 64.0625 45.09375 64.984375 
Q 41.3125 65.921875 37.59375 65.921875 
Q 27.828125 65.921875 22.671875 59.328125 
Q 17.53125 52.734375 16.796875 39.40625 
Q 19.671875 43.65625 24.015625 45.921875 
Q 28.375 48.1875 33.59375 48.1875 
Q 44.578125 48.1875 50.953125 41.515625 
Q 57.328125 34.859375 57.328125 23.390625 
Q 57.328125 12.15625 50.6875 5.359375 
Q 44.046875 -1.421875 33.015625 -1.421875 
Q 20.359375 -1.421875 13.671875 8.265625 
Q 6.984375 17.96875 6.984375 36.375 
Q 6.984375 53.65625 15.1875 63.9375 
Q 23.390625 74.21875 37.203125 74.21875 
Q 40.921875 74.21875 44.703125 73.484375 
Q 48.484375 72.75 52.59375 71.296875 
z
" id="DejaVuSans-54"/>
      </defs>
      <g style="fill:#262626;" transform="translate(59.590625 434.559594)scale(0.5 -0.5)">
       <use xlink:href="#DejaVuSans-49"/>
       <use x="63.623047" xlink:href="#DejaVuSans-54"/>
      </g>
     </g>
    </g>
    <g id="ytick_6">
     <g id="line2d_9">
      <g>
       <use style="fill:#262626;stroke:#262626;stroke-width:1.25;" x="132.715625" xlink:href="#mbd155b2511" y="348.3635"/>
      </g>
     </g>
     <g id="text_10">
      <!-- 20 -->
      <g style="fill:#262626;" transform="translate(59.590625 367.359594)scale(0.5 -0.5)">
       <use xlink:href="#DejaVuSans-50"/>
       <use x="63.623047" xlink:href="#DejaVuSans-48"/>
      </g>
     </g>
    </g>
    <g id="ytick_7">
     <g id="line2d_10">
      <g>
       <use style="fill:#262626;stroke:#262626;stroke-width:1.25;" x="132.715625" xlink:href="#mbd155b2511" y="281.1635"/>
      </g>
     </g>
     <g id="text_11">
      <!-- 24 -->
      <g style="fill:#262626;" transform="translate(59.590625 300.159594)scale(0.5 -0.5)">
       <use xlink:href="#DejaVuSans-50"/>
       <use x="63.623047" xlink:href="#DejaVuSans-52"/>
      </g>
     </g>
    </g>
    <g id="ytick_8">
     <g id="line2d_11">
      <g>
       <use style="fill:#262626;stroke:#262626;stroke-width:1.25;" x="132.715625" xlink:href="#mbd155b2511" y="213.9635"/>
      </g>
     </g>
     <g id="text_12">
      <!-- 28 -->
      <g style="fill:#262626;" transform="translate(59.590625 232.959594)scale(0.5 -0.5)">
       <use xlink:href="#DejaVuSans-50"/>
       <use x="63.623047" xlink:href="#DejaVuSans-56"/>
      </g>
     </g>
    </g>
    <g id="text_13">
     <!-- RMSD -->
     <defs>
      <path d="M 44.390625 34.1875 
Q 47.5625 33.109375 50.5625 29.59375 
Q 53.5625 26.078125 56.59375 19.921875 
L 66.609375 0 
L 56 0 
L 46.6875 18.703125 
Q 43.0625 26.03125 39.671875 28.421875 
Q 36.28125 30.8125 30.421875 30.8125 
L 19.671875 30.8125 
L 19.671875 0 
L 9.8125 0 
L 9.8125 72.90625 
L 32.078125 72.90625 
Q 44.578125 72.90625 50.734375 67.671875 
Q 56.890625 62.453125 56.890625 51.90625 
Q 56.890625 45.015625 53.6875 40.46875 
Q 50.484375 35.9375 44.390625 34.1875 
z
M 19.671875 64.796875 
L 19.671875 38.921875 
L 32.078125 38.921875 
Q 39.203125 38.921875 42.84375 42.21875 
Q 46.484375 45.515625 46.484375 51.90625 
Q 46.484375 58.296875 42.84375 61.546875 
Q 39.203125 64.796875 32.078125 64.796875 
z
" id="DejaVuSans-82"/>
      <path d="M 9.8125 72.90625 
L 24.515625 72.90625 
L 43.109375 23.296875 
L 61.8125 72.90625 
L 76.515625 72.90625 
L 76.515625 0 
L 66.890625 0 
L 66.890625 64.015625 
L 48.09375 14.015625 
L 38.1875 14.015625 
L 19.390625 64.015625 
L 19.390625 0 
L 9.8125 0 
z
" id="DejaVuSans-77"/>
      <path d="M 53.515625 70.515625 
L 53.515625 60.890625 
Q 47.90625 63.578125 42.921875 64.890625 
Q 37.9375 66.21875 33.296875 66.21875 
Q 25.25 66.21875 20.875 63.09375 
Q 16.5 59.96875 16.5 54.203125 
Q 16.5 49.359375 19.40625 46.890625 
Q 22.3125 44.4375 30.421875 42.921875 
L 36.375 41.703125 
Q 47.40625 39.59375 52.65625 34.296875 
Q 57.90625 29 57.90625 20.125 
Q 57.90625 9.515625 50.796875 4.046875 
Q 43.703125 -1.421875 29.984375 -1.421875 
Q 24.8125 -1.421875 18.96875 -0.25 
Q 13.140625 0.921875 6.890625 3.21875 
L 6.890625 13.375 
Q 12.890625 10.015625 18.65625 8.296875 
Q 24.421875 6.59375 29.984375 6.59375 
Q 38.421875 6.59375 43.015625 9.90625 
Q 47.609375 13.234375 47.609375 19.390625 
Q 47.609375 24.75 44.3125 27.78125 
Q 41.015625 30.8125 33.5 32.328125 
L 27.484375 33.5 
Q 16.453125 35.6875 11.515625 40.375 
Q 6.59375 45.0625 6.59375 53.421875 
Q 6.59375 63.09375 13.40625 68.65625 
Q 20.21875 74.21875 32.171875 74.21875 
Q 37.3125 74.21875 42.625 73.28125 
Q 47.953125 72.359375 53.515625 70.515625 
z
" id="DejaVuSans-83"/>
      <path d="M 19.671875 64.796875 
L 19.671875 8.109375 
L 31.59375 8.109375 
Q 46.6875 8.109375 53.6875 14.9375 
Q 60.6875 21.78125 60.6875 36.53125 
Q 60.6875 51.171875 53.6875 57.984375 
Q 46.6875 64.796875 31.59375 64.796875 
z
M 9.8125 72.90625 
L 30.078125 72.90625 
Q 51.265625 72.90625 61.171875 64.09375 
Q 71.09375 55.28125 71.09375 36.53125 
Q 71.09375 17.671875 61.125 8.828125 
Q 51.171875 0 30.078125 0 
L 9.8125 0 
z
" id="DejaVuSans-68"/>
     </defs>
     <g style="fill:#262626;" transform="translate(45.192187 531.626)rotate(-90)scale(0.5 -0.5)">
      <use xlink:href="#DejaVuSans-82"/>
      <use x="69.482422" xlink:href="#DejaVuSans-77"/>
      <use x="155.761719" xlink:href="#DejaVuSans-83"/>
      <use x="219.238281" xlink:href="#DejaVuSans-68"/>
     </g>
    </g>
   </g>
   <g id="PolyCollection_1">
    <defs>
     <path d="M 225.941309 -153.949638 
L 225.489941 -153.949638 
L 225.403511 -156.147259 
L 225.290365 -158.344879 
L 225.144519 -160.542499 
L 224.959336 -162.740119 
L 224.727631 -164.937739 
L 224.441847 -167.135359 
L 224.094272 -169.33298 
L 223.677332 -171.5306 
L 223.183928 -173.72822 
L 222.607814 -175.92584 
L 221.943994 -178.12346 
L 221.189101 -180.32108 
L 220.34173 -182.518701 
L 219.402666 -184.716321 
L 218.374998 -186.913941 
L 217.264069 -189.111561 
L 216.077272 -191.309181 
L 214.823703 -193.506801 
L 213.513716 -195.704422 
L 212.158433 -197.902042 
L 210.769276 -200.099662 
L 209.357591 -202.297282 
L 207.934381 -204.494902 
L 206.510196 -206.692522 
L 205.095127 -208.890143 
L 203.698902 -211.087763 
L 202.33099 -213.285383 
L 201.000699 -215.483003 
L 199.717197 -217.680623 
L 198.489466 -219.878243 
L 197.326191 -222.075864 
L 196.235616 -224.273484 
L 195.225404 -226.471104 
L 194.302526 -228.668724 
L 193.473181 -230.866344 
L 192.742727 -233.063964 
L 192.115588 -235.261584 
L 191.595081 -237.459205 
L 191.183152 -239.656825 
L 190.880028 -241.854445 
L 190.683818 -244.052065 
L 190.590183 -246.249685 
L 190.592165 -248.447305 
L 190.680294 -250.644926 
L 190.843042 -252.842546 
L 191.067627 -255.040166 
L 191.341103 -257.237786 
L 191.651582 -259.435406 
L 191.989417 -261.633026 
L 192.348124 -263.830647 
L 192.724888 -266.028267 
L 193.120546 -268.225887 
L 193.539039 -270.423507 
L 193.986406 -272.621127 
L 194.469493 -274.818747 
L 194.994564 -277.016368 
L 195.566038 -279.213988 
L 196.185537 -281.411608 
L 196.851348 -283.609228 
L 197.558376 -285.806848 
L 198.298561 -288.004468 
L 199.061677 -290.202089 
L 199.836392 -292.399709 
L 200.611456 -294.597329 
L 201.376863 -296.794949 
L 202.12486 -298.992569 
L 202.850698 -301.190189 
L 203.55306 -303.38781 
L 204.234129 -305.58543 
L 204.899307 -307.78305 
L 205.556633 -309.98067 
L 206.215969 -312.17829 
L 206.888043 -314.37591 
L 207.583456 -316.573531 
L 208.311734 -318.771151 
L 209.080514 -320.968771 
L 209.894896 -323.166391 
L 210.757012 -325.364011 
L 211.665804 -327.561631 
L 212.61701 -329.759252 
L 213.603345 -331.956872 
L 214.61485 -334.154492 
L 215.639391 -336.352112 
L 216.663282 -338.549732 
L 217.672008 -340.747352 
L 218.650993 -342.944973 
L 219.586384 -345.142593 
L 220.465783 -347.340213 
L 221.27888 -349.537833 
L 222.017922 -351.735453 
L 222.678002 -353.933073 
L 223.257124 -356.130694 
L 223.756073 -358.328314 
L 224.178096 -360.525934 
L 224.528451 -362.723554 
L 224.81387 -364.921174 
L 225.042003 -367.118794 
L 225.220879 -369.316414 
L 225.358452 -371.514035 
L 226.072798 -371.514035 
L 226.072798 -371.514035 
L 226.210371 -369.316414 
L 226.389247 -367.118794 
L 226.61738 -364.921174 
L 226.902799 -362.723554 
L 227.253154 -360.525934 
L 227.675177 -358.328314 
L 228.174126 -356.130694 
L 228.753248 -353.933073 
L 229.413328 -351.735453 
L 230.15237 -349.537833 
L 230.965467 -347.340213 
L 231.844866 -345.142593 
L 232.780257 -342.944973 
L 233.759242 -340.747352 
L 234.767968 -338.549732 
L 235.791859 -336.352112 
L 236.8164 -334.154492 
L 237.827905 -331.956872 
L 238.81424 -329.759252 
L 239.765446 -327.561631 
L 240.674238 -325.364011 
L 241.536354 -323.166391 
L 242.350736 -320.968771 
L 243.119516 -318.771151 
L 243.847794 -316.573531 
L 244.543207 -314.37591 
L 245.215281 -312.17829 
L 245.874617 -309.98067 
L 246.531943 -307.78305 
L 247.197121 -305.58543 
L 247.87819 -303.38781 
L 248.580552 -301.190189 
L 249.30639 -298.992569 
L 250.054387 -296.794949 
L 250.819794 -294.597329 
L 251.594858 -292.399709 
L 252.369573 -290.202089 
L 253.132689 -288.004468 
L 253.872874 -285.806848 
L 254.579902 -283.609228 
L 255.245713 -281.411608 
L 255.865212 -279.213988 
L 256.436686 -277.016368 
L 256.961757 -274.818747 
L 257.444844 -272.621127 
L 257.892211 -270.423507 
L 258.310704 -268.225887 
L 258.706362 -266.028267 
L 259.083126 -263.830647 
L 259.441833 -261.633026 
L 259.779668 -259.435406 
L 260.090147 -257.237786 
L 260.363623 -255.040166 
L 260.588208 -252.842546 
L 260.750956 -250.644926 
L 260.839085 -248.447305 
L 260.841067 -246.249685 
L 260.747432 -244.052065 
L 260.551222 -241.854445 
L 260.248098 -239.656825 
L 259.836169 -237.459205 
L 259.315662 -235.261584 
L 258.688523 -233.063964 
L 257.958069 -230.866344 
L 257.128724 -228.668724 
L 256.205846 -226.471104 
L 255.195634 -224.273484 
L 254.105059 -222.075864 
L 252.941784 -219.878243 
L 251.714053 -217.680623 
L 250.430551 -215.483003 
L 249.10026 -213.285383 
L 247.732348 -211.087763 
L 246.336123 -208.890143 
L 244.921054 -206.692522 
L 243.496869 -204.494902 
L 242.073659 -202.297282 
L 240.661974 -200.099662 
L 239.272817 -197.902042 
L 237.917534 -195.704422 
L 236.607547 -193.506801 
L 235.353978 -191.309181 
L 234.167181 -189.111561 
L 233.056252 -186.913941 
L 232.028584 -184.716321 
L 231.08952 -182.518701 
L 230.242149 -180.32108 
L 229.487256 -178.12346 
L 228.823436 -175.92584 
L 228.247322 -173.72822 
L 227.753918 -171.5306 
L 227.336978 -169.33298 
L 226.989403 -167.135359 
L 226.703619 -164.937739 
L 226.471914 -162.740119 
L 226.286731 -160.542499 
L 226.140885 -158.344879 
L 226.027739 -156.147259 
L 225.941309 -153.949638 
z
" id="m5910c33bdc" style="stroke:#262626;stroke-width:1.5;"/>
    </defs>
    <g clip-path="url(#p7e90bfd993)">
     <use style="fill:#b55d60;stroke:#262626;stroke-width:1.5;" x="0" xlink:href="#m5910c33bdc" y="852.24475"/>
    </g>
   </g>
   <g id="PolyCollection_2">
    <defs>
     <path d="M 411.82866 -154.275326 
L 411.60259 -154.275326 
L 411.473481 -159.153521 
L 411.233713 -164.031717 
L 410.821592 -168.909912 
L 410.163832 -173.788108 
L 409.185509 -178.666303 
L 407.824042 -183.544499 
L 406.043372 -188.422694 
L 403.843417 -193.30089 
L 401.261165 -198.179086 
L 398.363167 -203.057281 
L 395.233255 -207.935477 
L 391.961486 -212.813672 
L 388.639113 -217.691868 
L 385.360416 -222.570063 
L 382.228211 -227.448259 
L 379.358075 -232.326454 
L 376.876961 -237.20465 
L 374.913923 -242.082845 
L 373.583406 -246.961041 
L 372.964958 -251.839236 
L 373.086165 -256.717432 
L 373.915728 -261.595627 
L 375.369536 -266.473823 
L 377.326424 -271.352018 
L 379.646339 -276.230214 
L 382.185032 -281.108409 
L 384.804711 -285.986605 
L 387.384314 -290.8648 
L 389.831818 -295.742996 
L 392.095321 -300.621191 
L 394.165434 -305.499387 
L 396.06415 -310.377582 
L 397.823921 -315.255778 
L 399.467858 -320.133973 
L 401.001184 -325.012169 
L 402.415856 -329.890364 
L 403.701692 -334.76856 
L 404.855072 -339.646755 
L 405.88076 -344.524951 
L 406.788502 -349.403146 
L 407.5889 -354.281342 
L 408.291539 -359.159537 
L 408.905216 -364.037733 
L 409.438385 -368.915928 
L 409.898544 -373.794124 
L 410.290976 -378.67232 
L 410.618333 -383.550515 
L 410.882055 -388.428711 
L 411.085092 -393.306906 
L 411.234205 -398.185102 
L 411.340114 -403.063297 
L 411.415226 -407.941493 
L 411.470318 -412.819688 
L 411.51223 -417.697884 
L 411.543818 -422.576079 
L 411.565709 -427.454275 
L 411.578181 -432.33247 
L 411.581677 -437.210666 
L 411.575716 -442.088861 
L 411.55739 -446.967057 
L 411.521056 -451.845252 
L 411.459934 -456.723448 
L 411.368892 -461.601643 
L 411.246746 -466.479839 
L 411.096794 -471.358034 
L 410.925673 -476.23623 
L 410.741791 -481.114425 
L 410.554499 -485.992621 
L 410.373892 -490.870816 
L 410.210174 -495.749012 
L 410.071918 -500.627207 
L 409.964081 -505.505403 
L 409.887478 -510.383598 
L 409.840589 -515.261794 
L 409.822608 -520.139989 
L 409.835433 -525.018185 
L 409.883017 -529.89638 
L 409.968517 -534.774576 
L 410.091234 -539.652771 
L 410.245238 -544.530967 
L 410.420232 -549.409162 
L 410.603821 -554.287358 
L 410.783939 -559.165554 
L 410.950596 -564.043749 
L 411.096675 -568.921945 
L 411.217956 -573.80014 
L 411.312762 -578.678336 
L 411.381756 -583.556531 
L 411.428114 -588.434727 
L 411.457681 -593.312922 
L 411.478343 -598.191118 
L 411.498168 -603.069313 
L 411.522934 -607.947509 
L 411.554358 -612.825704 
L 411.590135 -617.7039 
L 411.625699 -622.582095 
L 411.656616 -627.460291 
L 411.680282 -632.338486 
L 411.696339 -637.216682 
L 411.734911 -637.216682 
L 411.734911 -637.216682 
L 411.750968 -632.338486 
L 411.774634 -627.460291 
L 411.805551 -622.582095 
L 411.841115 -617.7039 
L 411.876892 -612.825704 
L 411.908316 -607.947509 
L 411.933082 -603.069313 
L 411.952907 -598.191118 
L 411.973569 -593.312922 
L 412.003136 -588.434727 
L 412.049494 -583.556531 
L 412.118488 -578.678336 
L 412.213294 -573.80014 
L 412.334575 -568.921945 
L 412.480654 -564.043749 
L 412.647311 -559.165554 
L 412.827429 -554.287358 
L 413.011018 -549.409162 
L 413.186012 -544.530967 
L 413.340016 -539.652771 
L 413.462733 -534.774576 
L 413.548233 -529.89638 
L 413.595817 -525.018185 
L 413.608642 -520.139989 
L 413.590661 -515.261794 
L 413.543772 -510.383598 
L 413.467169 -505.505403 
L 413.359332 -500.627207 
L 413.221076 -495.749012 
L 413.057358 -490.870816 
L 412.876751 -485.992621 
L 412.689459 -481.114425 
L 412.505577 -476.23623 
L 412.334456 -471.358034 
L 412.184504 -466.479839 
L 412.062358 -461.601643 
L 411.971316 -456.723448 
L 411.910194 -451.845252 
L 411.87386 -446.967057 
L 411.855534 -442.088861 
L 411.849573 -437.210666 
L 411.853069 -432.33247 
L 411.865541 -427.454275 
L 411.887432 -422.576079 
L 411.91902 -417.697884 
L 411.960932 -412.819688 
L 412.016024 -407.941493 
L 412.091136 -403.063297 
L 412.197045 -398.185102 
L 412.346158 -393.306906 
L 412.549195 -388.428711 
L 412.812917 -383.550515 
L 413.140274 -378.67232 
L 413.532706 -373.794124 
L 413.992865 -368.915928 
L 414.526034 -364.037733 
L 415.139711 -359.159537 
L 415.84235 -354.281342 
L 416.642748 -349.403146 
L 417.55049 -344.524951 
L 418.576178 -339.646755 
L 419.729558 -334.76856 
L 421.015394 -329.890364 
L 422.430066 -325.012169 
L 423.963392 -320.133973 
L 425.607329 -315.255778 
L 427.3671 -310.377582 
L 429.265816 -305.499387 
L 431.335929 -300.621191 
L 433.599432 -295.742996 
L 436.046936 -290.8648 
L 438.626539 -285.986605 
L 441.246218 -281.108409 
L 443.784911 -276.230214 
L 446.104826 -271.352018 
L 448.061714 -266.473823 
L 449.515522 -261.595627 
L 450.345085 -256.717432 
L 450.466292 -251.839236 
L 449.847844 -246.961041 
L 448.517327 -242.082845 
L 446.554289 -237.20465 
L 444.073175 -232.326454 
L 441.203039 -227.448259 
L 438.070834 -222.570063 
L 434.792137 -217.691868 
L 431.469764 -212.813672 
L 428.197995 -207.935477 
L 425.068083 -203.057281 
L 422.170085 -198.179086 
L 419.587833 -193.30089 
L 417.387878 -188.422694 
L 415.607208 -183.544499 
L 414.245741 -178.666303 
L 413.267418 -173.788108 
L 412.609658 -168.909912 
L 412.197537 -164.031717 
L 411.957769 -159.153521 
L 411.82866 -154.275326 
z
" id="md98fe6ea5d" style="stroke:#262626;stroke-width:1.5;"/>
    </defs>
    <g clip-path="url(#p7e90bfd993)">
     <use style="fill:#5875a4;stroke:#262626;stroke-width:1.5;" x="0" xlink:href="#md98fe6ea5d" y="852.24475"/>
    </g>
   </g>
   <g id="PolyCollection_3">
    <defs>
     <path d="M 601.583118 -199.780204 
L 593.848132 -199.780204 
L 593.149784 -200.742526 
L 592.353518 -201.704849 
L 591.451108 -202.667171 
L 590.434613 -203.629494 
L 589.296579 -204.591816 
L 588.030251 -205.554138 
L 586.629794 -206.516461 
L 585.090527 -207.478783 
L 583.409151 -208.441106 
L 581.583971 -209.403428 
L 579.615102 -210.365751 
L 577.50466 -211.328073 
L 575.256919 -212.290396 
L 572.878435 -213.252718 
L 570.378128 -214.21504 
L 567.767319 -215.177363 
L 565.059714 -216.139685 
L 562.271337 -217.102008 
L 559.420402 -218.06433 
L 556.527138 -219.026653 
L 553.61355 -219.988975 
L 550.703134 -220.951297 
L 547.820541 -221.91362 
L 544.991203 -222.875942 
L 542.240918 -223.838265 
L 539.59541 -224.800587 
L 537.07987 -225.76291 
L 534.718487 -226.725232 
L 532.533976 -227.687555 
L 530.547121 -228.649877 
L 528.776337 -229.612199 
L 527.237263 -230.574522 
L 525.942399 -231.536844 
L 524.900799 -232.499167 
L 524.117819 -233.461489 
L 523.594945 -234.423812 
L 523.329699 -235.386134 
L 523.315625 -236.348456 
L 523.542378 -237.310779 
L 523.995897 -238.273101 
L 524.658676 -239.235424 
L 525.510126 -240.197746 
L 526.527027 -241.160069 
L 527.684051 -242.122391 
L 528.954359 -243.084714 
L 530.310245 -244.047036 
L 531.723821 -245.009358 
L 533.167711 -245.971681 
L 534.61575 -246.934003 
L 536.043649 -247.896326 
L 537.429618 -248.858648 
L 538.754914 -249.820971 
L 540.004312 -250.783293 
L 541.166455 -251.745615 
L 542.234097 -252.707938 
L 543.204218 -253.67026 
L 544.077994 -254.632583 
L 544.860645 -255.594905 
L 545.561148 -256.557228 
L 546.191834 -257.51955 
L 546.767876 -258.481873 
L 547.306693 -259.444195 
L 547.827293 -260.406517 
L 548.349567 -261.36884 
L 548.893579 -262.331162 
L 549.478855 -263.293485 
L 550.123718 -264.255807 
L 550.84468 -265.21813 
L 551.655906 -266.180452 
L 552.568787 -267.142775 
L 553.59161 -268.105097 
L 554.729351 -269.067419 
L 555.983588 -270.029742 
L 557.352526 -270.992064 
L 558.831141 -271.954387 
L 560.411419 -272.916709 
L 562.082685 -273.879032 
L 563.832002 -274.841354 
L 565.644623 -275.803676 
L 567.504474 -276.765999 
L 569.394656 -277.728321 
L 571.297935 -278.690644 
L 573.197216 -279.652966 
L 575.075978 -280.615289 
L 576.918662 -281.577611 
L 578.710995 -282.539934 
L 580.440258 -283.502256 
L 582.095479 -284.464578 
L 583.667559 -285.426901 
L 585.149331 -286.389223 
L 586.535566 -287.351546 
L 587.822907 -288.313868 
L 589.009771 -289.276191 
L 590.096206 -290.238513 
L 591.083718 -291.200835 
L 591.975079 -292.163158 
L 592.774125 -293.12548 
L 593.485545 -294.087803 
L 594.114682 -295.050125 
L 601.316568 -295.050125 
L 601.316568 -295.050125 
L 601.945705 -294.087803 
L 602.657125 -293.12548 
L 603.456171 -292.163158 
L 604.347532 -291.200835 
L 605.335044 -290.238513 
L 606.421479 -289.276191 
L 607.608343 -288.313868 
L 608.895684 -287.351546 
L 610.281919 -286.389223 
L 611.763691 -285.426901 
L 613.335771 -284.464578 
L 614.990992 -283.502256 
L 616.720255 -282.539934 
L 618.512588 -281.577611 
L 620.355272 -280.615289 
L 622.234034 -279.652966 
L 624.133315 -278.690644 
L 626.036594 -277.728321 
L 627.926776 -276.765999 
L 629.786627 -275.803676 
L 631.599248 -274.841354 
L 633.348565 -273.879032 
L 635.019831 -272.916709 
L 636.600109 -271.954387 
L 638.078724 -270.992064 
L 639.447662 -270.029742 
L 640.701899 -269.067419 
L 641.83964 -268.105097 
L 642.862463 -267.142775 
L 643.775344 -266.180452 
L 644.58657 -265.21813 
L 645.307532 -264.255807 
L 645.952395 -263.293485 
L 646.537671 -262.331162 
L 647.081683 -261.36884 
L 647.603957 -260.406517 
L 648.124557 -259.444195 
L 648.663374 -258.481873 
L 649.239416 -257.51955 
L 649.870102 -256.557228 
L 650.570605 -255.594905 
L 651.353256 -254.632583 
L 652.227032 -253.67026 
L 653.197153 -252.707938 
L 654.264795 -251.745615 
L 655.426938 -250.783293 
L 656.676336 -249.820971 
L 658.001632 -248.858648 
L 659.387601 -247.896326 
L 660.8155 -246.934003 
L 662.263539 -245.971681 
L 663.707429 -245.009358 
L 665.121005 -244.047036 
L 666.476891 -243.084714 
L 667.747199 -242.122391 
L 668.904223 -241.160069 
L 669.921124 -240.197746 
L 670.772574 -239.235424 
L 671.435353 -238.273101 
L 671.888872 -237.310779 
L 672.115625 -236.348456 
L 672.101551 -235.386134 
L 671.836305 -234.423812 
L 671.313431 -233.461489 
L 670.530451 -232.499167 
L 669.488851 -231.536844 
L 668.193987 -230.574522 
L 666.654913 -229.612199 
L 664.884129 -228.649877 
L 662.897274 -227.687555 
L 660.712763 -226.725232 
L 658.35138 -225.76291 
L 655.83584 -224.800587 
L 653.190332 -223.838265 
L 650.440047 -222.875942 
L 647.610709 -221.91362 
L 644.728116 -220.951297 
L 641.8177 -219.988975 
L 638.904112 -219.026653 
L 636.010848 -218.06433 
L 633.159913 -217.102008 
L 630.371536 -216.139685 
L 627.663931 -215.177363 
L 625.053122 -214.21504 
L 622.552815 -213.252718 
L 620.174331 -212.290396 
L 617.92659 -211.328073 
L 615.816148 -210.365751 
L 613.847279 -209.403428 
L 612.022099 -208.441106 
L 610.340723 -207.478783 
L 608.801456 -206.516461 
L 607.400999 -205.554138 
L 606.134671 -204.591816 
L 604.996637 -203.629494 
L 603.980142 -202.667171 
L 603.077732 -201.704849 
L 602.281466 -200.742526 
L 601.583118 -199.780204 
z
" id="m0d22dc18b4" style="stroke:#262626;stroke-width:1.5;"/>
    </defs>
    <g clip-path="url(#p7e90bfd993)">
     <use style="fill:#107010;stroke:#262626;stroke-width:1.5;" x="0" xlink:href="#m0d22dc18b4" y="852.24475"/>
    </g>
   </g>
   <g id="line2d_12">
    <path clip-path="url(#p7e90bfd993)" d="M 225.715625 667.485659 
L 225.715625 511.540168 
" style="fill:none;stroke:#262626;stroke-linecap:round;stroke-width:1.5;"/>
   </g>
   <g id="line2d_13">
    <path clip-path="url(#p7e90bfd993)" d="M 225.715625 619.628441 
L 225.715625 561.847351 
" style="fill:none;stroke:#262626;stroke-linecap:round;stroke-width:4.5;"/>
   </g>
   <g id="line2d_14">
    <path clip-path="url(#p7e90bfd993)" d="M 411.715625 666.620545 
L 411.715625 485.280422 
" style="fill:none;stroke:#262626;stroke-linecap:round;stroke-width:1.5;"/>
   </g>
   <g id="line2d_15">
    <path clip-path="url(#p7e90bfd993)" d="M 411.715625 614.477214 
L 411.715625 562.011986 
" style="fill:none;stroke:#262626;stroke-linecap:round;stroke-width:4.5;"/>
   </g>
   <g id="line2d_16">
    <path clip-path="url(#p7e90bfd993)" d="M 597.715625 627.505722 
L 597.715625 582.153449 
" style="fill:none;stroke:#262626;stroke-linecap:round;stroke-width:1.5;"/>
   </g>
   <g id="line2d_17">
    <path clip-path="url(#p7e90bfd993)" d="M 597.715625 619.003652 
L 597.715625 594.210977 
" style="fill:none;stroke:#262626;stroke-linecap:round;stroke-width:4.5;"/>
   </g>
   <g id="line2d_18">
    <path d="M 225.715625 163.7315 
L 225.715625 152.6435 
L 411.715625 152.6435 
L 411.715625 163.7315 
" style="fill:none;stroke:#333333;stroke-linecap:round;stroke-width:1.5;"/>
   </g>
   <g id="line2d_19">
    <path d="M 411.715625 103.1235 
L 411.715625 92.0355 
L 597.715625 92.0355 
L 597.715625 103.1235 
" style="fill:none;stroke:#333333;stroke-linecap:round;stroke-width:1.5;"/>
   </g>
   <g id="line2d_20">
    <path d="M 225.715625 42.5155 
L 225.715625 31.4275 
L 597.715625 31.4275 
L 597.715625 42.5155 
" style="fill:none;stroke:#333333;stroke-linecap:round;stroke-width:1.5;"/>
   </g>
   <g id="patch_3">
    <path d="M 132.715625 734.7635 
L 132.715625 180.3635 
" style="fill:none;stroke:#262626;stroke-linecap:square;stroke-linejoin:miter;stroke-width:1.25;"/>
   </g>
   <g id="patch_4">
    <path d="M 690.715625 734.7635 
L 690.715625 180.3635 
" style="fill:none;stroke:#262626;stroke-linecap:square;stroke-linejoin:miter;stroke-width:1.25;"/>
   </g>
   <g id="patch_5">
    <path d="M 132.715625 734.7635 
L 690.715625 734.7635 
" style="fill:none;stroke:#262626;stroke-linecap:square;stroke-linejoin:miter;stroke-width:1.25;"/>
   </g>
   <g id="patch_6">
    <path d="M 132.715625 180.3635 
L 690.715625 180.3635 
" style="fill:none;stroke:#262626;stroke-linecap:square;stroke-linejoin:miter;stroke-width:1.25;"/>
   </g>
   <g id="PathCollection_1">
    <defs>
     <path d="M 0 1.5 
C 0.397805 1.5 0.77937 1.341951 1.06066 1.06066 
C 1.341951 0.77937 1.5 0.397805 1.5 0 
C 1.5 -0.397805 1.341951 -0.77937 1.06066 -1.06066 
C 0.77937 -1.341951 0.397805 -1.5 0 -1.5 
C -0.397805 -1.5 -0.77937 -1.341951 -1.06066 -1.06066 
C -1.341951 -0.77937 -1.5 -0.397805 -1.5 0 
C -1.5 0.397805 -1.341951 0.77937 -1.06066 1.06066 
C -0.77937 1.341951 -0.397805 1.5 0 1.5 
z
" id="m3cbec971fd" style="stroke:#262626;"/>
    </defs>
    <g clip-path="url(#p7e90bfd993)">
     <use style="fill:#ffffff;stroke:#262626;" x="225.715625" xlink:href="#m3cbec971fd" y="596.57789"/>
    </g>
   </g>
   <g id="PathCollection_2">
    <g clip-path="url(#p7e90bfd993)">
     <use style="fill:#ffffff;stroke:#262626;" x="411.715625" xlink:href="#m3cbec971fd" y="591.56385"/>
    </g>
   </g>
   <g id="PathCollection_3">
    <g clip-path="url(#p7e90bfd993)">
     <use style="fill:#ffffff;stroke:#262626;" x="597.715625" xlink:href="#m3cbec971fd" y="611.693842"/>
    </g>
   </g>
   <g id="text_14">
    <!-- Ranksum p = 3.761e-01 -->
    <defs>
     <path d="M 34.28125 27.484375 
Q 23.390625 27.484375 19.1875 25 
Q 14.984375 22.515625 14.984375 16.5 
Q 14.984375 11.71875 18.140625 8.90625 
Q 21.296875 6.109375 26.703125 6.109375 
Q 34.1875 6.109375 38.703125 11.40625 
Q 43.21875 16.703125 43.21875 25.484375 
L 43.21875 27.484375 
z
M 52.203125 31.203125 
L 52.203125 0 
L 43.21875 0 
L 43.21875 8.296875 
Q 40.140625 3.328125 35.546875 0.953125 
Q 30.953125 -1.421875 24.3125 -1.421875 
Q 15.921875 -1.421875 10.953125 3.296875 
Q 6 8.015625 6 15.921875 
Q 6 25.140625 12.171875 29.828125 
Q 18.359375 34.515625 30.609375 34.515625 
L 43.21875 34.515625 
L 43.21875 35.40625 
Q 43.21875 41.609375 39.140625 45 
Q 35.0625 48.390625 27.6875 48.390625 
Q 23 48.390625 18.546875 47.265625 
Q 14.109375 46.140625 10.015625 43.890625 
L 10.015625 52.203125 
Q 14.9375 54.109375 19.578125 55.046875 
Q 24.21875 56 28.609375 56 
Q 40.484375 56 46.34375 49.84375 
Q 52.203125 43.703125 52.203125 31.203125 
z
" id="DejaVuSans-97"/>
     <path d="M 9.078125 75.984375 
L 18.109375 75.984375 
L 18.109375 31.109375 
L 44.921875 54.6875 
L 56.390625 54.6875 
L 27.390625 29.109375 
L 57.625 0 
L 45.90625 0 
L 18.109375 26.703125 
L 18.109375 0 
L 9.078125 0 
z
" id="DejaVuSans-107"/>
     <path d="M 8.5 21.578125 
L 8.5 54.6875 
L 17.484375 54.6875 
L 17.484375 21.921875 
Q 17.484375 14.15625 20.5 10.265625 
Q 23.53125 6.390625 29.59375 6.390625 
Q 36.859375 6.390625 41.078125 11.03125 
Q 45.3125 15.671875 45.3125 23.6875 
L 45.3125 54.6875 
L 54.296875 54.6875 
L 54.296875 0 
L 45.3125 0 
L 45.3125 8.40625 
Q 42.046875 3.421875 37.71875 1 
Q 33.40625 -1.421875 27.6875 -1.421875 
Q 18.265625 -1.421875 13.375 4.4375 
Q 8.5 10.296875 8.5 21.578125 
z
M 31.109375 56 
z
" id="DejaVuSans-117"/>
     <path d="M 52 44.1875 
Q 55.375 50.25 60.0625 53.125 
Q 64.75 56 71.09375 56 
Q 79.640625 56 84.28125 50.015625 
Q 88.921875 44.046875 88.921875 33.015625 
L 88.921875 0 
L 79.890625 0 
L 79.890625 32.71875 
Q 79.890625 40.578125 77.09375 44.375 
Q 74.3125 48.1875 68.609375 48.1875 
Q 61.625 48.1875 57.5625 43.546875 
Q 53.515625 38.921875 53.515625 30.90625 
L 53.515625 0 
L 44.484375 0 
L 44.484375 32.71875 
Q 44.484375 40.625 41.703125 44.40625 
Q 38.921875 48.1875 33.109375 48.1875 
Q 26.21875 48.1875 22.15625 43.53125 
Q 18.109375 38.875 18.109375 30.90625 
L 18.109375 0 
L 9.078125 0 
L 9.078125 54.6875 
L 18.109375 54.6875 
L 18.109375 46.1875 
Q 21.1875 51.21875 25.484375 53.609375 
Q 29.78125 56 35.6875 56 
Q 41.65625 56 45.828125 52.96875 
Q 50 49.953125 52 44.1875 
z
" id="DejaVuSans-109"/>
     <path id="DejaVuSans-32"/>
     <path d="M 10.59375 45.40625 
L 73.1875 45.40625 
L 73.1875 37.203125 
L 10.59375 37.203125 
z
M 10.59375 25.484375 
L 73.1875 25.484375 
L 73.1875 17.1875 
L 10.59375 17.1875 
z
" id="DejaVuSans-61"/>
     <path d="M 40.578125 39.3125 
Q 47.65625 37.796875 51.625 33 
Q 55.609375 28.21875 55.609375 21.1875 
Q 55.609375 10.40625 48.1875 4.484375 
Q 40.765625 -1.421875 27.09375 -1.421875 
Q 22.515625 -1.421875 17.65625 -0.515625 
Q 12.796875 0.390625 7.625 2.203125 
L 7.625 11.71875 
Q 11.71875 9.328125 16.59375 8.109375 
Q 21.484375 6.890625 26.8125 6.890625 
Q 36.078125 6.890625 40.9375 10.546875 
Q 45.796875 14.203125 45.796875 21.1875 
Q 45.796875 27.640625 41.28125 31.265625 
Q 36.765625 34.90625 28.71875 34.90625 
L 20.21875 34.90625 
L 20.21875 43.015625 
L 29.109375 43.015625 
Q 36.375 43.015625 40.234375 45.921875 
Q 44.09375 48.828125 44.09375 54.296875 
Q 44.09375 59.90625 40.109375 62.90625 
Q 36.140625 65.921875 28.71875 65.921875 
Q 24.65625 65.921875 20.015625 65.03125 
Q 15.375 64.15625 9.8125 62.3125 
L 9.8125 71.09375 
Q 15.4375 72.65625 20.34375 73.4375 
Q 25.25 74.21875 29.59375 74.21875 
Q 40.828125 74.21875 47.359375 69.109375 
Q 53.90625 64.015625 53.90625 55.328125 
Q 53.90625 49.265625 50.4375 45.09375 
Q 46.96875 40.921875 40.578125 39.3125 
z
" id="DejaVuSans-51"/>
     <path d="M 10.6875 12.40625 
L 21 12.40625 
L 21 0 
L 10.6875 0 
z
" id="DejaVuSans-46"/>
     <path d="M 8.203125 72.90625 
L 55.078125 72.90625 
L 55.078125 68.703125 
L 28.609375 0 
L 18.3125 0 
L 43.21875 64.59375 
L 8.203125 64.59375 
z
" id="DejaVuSans-55"/>
    </defs>
    <g style="fill:#262626;" transform="translate(172.743125 146.65225)scale(0.24 -0.24)">
     <use xlink:href="#DejaVuSans-82"/>
     <use x="67.232422" xlink:href="#DejaVuSans-97"/>
     <use x="128.511719" xlink:href="#DejaVuSans-110"/>
     <use x="191.890625" xlink:href="#DejaVuSans-107"/>
     <use x="249.800781" xlink:href="#DejaVuSans-115"/>
     <use x="301.900391" xlink:href="#DejaVuSans-117"/>
     <use x="365.279297" xlink:href="#DejaVuSans-109"/>
     <use x="462.691406" xlink:href="#DejaVuSans-32"/>
     <use x="494.478516" xlink:href="#DejaVuSans-112"/>
     <use x="557.955078" xlink:href="#DejaVuSans-32"/>
     <use x="589.742188" xlink:href="#DejaVuSans-61"/>
     <use x="673.53125" xlink:href="#DejaVuSans-32"/>
     <use x="705.318359" xlink:href="#DejaVuSans-51"/>
     <use x="768.941406" xlink:href="#DejaVuSans-46"/>
     <use x="800.728516" xlink:href="#DejaVuSans-55"/>
     <use x="864.351562" xlink:href="#DejaVuSans-54"/>
     <use x="927.974609" xlink:href="#DejaVuSans-49"/>
     <use x="991.597656" xlink:href="#DejaVuSans-101"/>
     <use x="1053.121094" xlink:href="#DejaVuSans-45"/>
     <use x="1089.205078" xlink:href="#DejaVuSans-48"/>
     <use x="1152.828125" xlink:href="#DejaVuSans-49"/>
    </g>
   </g>
   <g id="text_15">
    <!-- Ranksum p = 1.650e-01 -->
    <defs>
     <path d="M 10.796875 72.90625 
L 49.515625 72.90625 
L 49.515625 64.59375 
L 19.828125 64.59375 
L 19.828125 46.734375 
Q 21.96875 47.46875 24.109375 47.828125 
Q 26.265625 48.1875 28.421875 48.1875 
Q 40.625 48.1875 47.75 41.5 
Q 54.890625 34.8125 54.890625 23.390625 
Q 54.890625 11.625 47.5625 5.09375 
Q 40.234375 -1.421875 26.90625 -1.421875 
Q 22.3125 -1.421875 17.546875 -0.640625 
Q 12.796875 0.140625 7.71875 1.703125 
L 7.71875 11.625 
Q 12.109375 9.234375 16.796875 8.0625 
Q 21.484375 6.890625 26.703125 6.890625 
Q 35.15625 6.890625 40.078125 11.328125 
Q 45.015625 15.765625 45.015625 23.390625 
Q 45.015625 31 40.078125 35.4375 
Q 35.15625 39.890625 26.703125 39.890625 
Q 22.75 39.890625 18.8125 39.015625 
Q 14.890625 38.140625 10.796875 36.28125 
z
" id="DejaVuSans-53"/>
    </defs>
    <g style="fill:#262626;" transform="translate(358.743125 86.04425)scale(0.24 -0.24)">
     <use xlink:href="#DejaVuSans-82"/>
     <use x="67.232422" xlink:href="#DejaVuSans-97"/>
     <use x="128.511719" xlink:href="#DejaVuSans-110"/>
     <use x="191.890625" xlink:href="#DejaVuSans-107"/>
     <use x="249.800781" xlink:href="#DejaVuSans-115"/>
     <use x="301.900391" xlink:href="#DejaVuSans-117"/>
     <use x="365.279297" xlink:href="#DejaVuSans-109"/>
     <use x="462.691406" xlink:href="#DejaVuSans-32"/>
     <use x="494.478516" xlink:href="#DejaVuSans-112"/>
     <use x="557.955078" xlink:href="#DejaVuSans-32"/>
     <use x="589.742188" xlink:href="#DejaVuSans-61"/>
     <use x="673.53125" xlink:href="#DejaVuSans-32"/>
     <use x="705.318359" xlink:href="#DejaVuSans-49"/>
     <use x="768.941406" xlink:href="#DejaVuSans-46"/>
     <use x="800.728516" xlink:href="#DejaVuSans-54"/>
     <use x="864.351562" xlink:href="#DejaVuSans-53"/>
     <use x="927.974609" xlink:href="#DejaVuSans-48"/>
     <use x="991.597656" xlink:href="#DejaVuSans-101"/>
     <use x="1053.121094" xlink:href="#DejaVuSans-45"/>
     <use x="1089.205078" xlink:href="#DejaVuSans-48"/>
     <use x="1152.828125" xlink:href="#DejaVuSans-49"/>
    </g>
   </g>
   <g id="text_16">
    <!-- Ranksum p = 2.743e-01 -->
    <g style="fill:#262626;" transform="translate(265.743125 25.43625)scale(0.24 -0.24)">
     <use xlink:href="#DejaVuSans-82"/>
     <use x="67.232422" xlink:href="#DejaVuSans-97"/>
     <use x="128.511719" xlink:href="#DejaVuSans-110"/>
     <use x="191.890625" xlink:href="#DejaVuSans-107"/>
     <use x="249.800781" xlink:href="#DejaVuSans-115"/>
     <use x="301.900391" xlink:href="#DejaVuSans-117"/>
     <use x="365.279297" xlink:href="#DejaVuSans-109"/>
     <use x="462.691406" xlink:href="#DejaVuSans-32"/>
     <use x="494.478516" xlink:href="#DejaVuSans-112"/>
     <use x="557.955078" xlink:href="#DejaVuSans-32"/>
     <use x="589.742188" xlink:href="#DejaVuSans-61"/>
     <use x="673.53125" xlink:href="#DejaVuSans-32"/>
     <use x="705.318359" xlink:href="#DejaVuSans-50"/>
     <use x="768.941406" xlink:href="#DejaVuSans-46"/>
     <use x="800.728516" xlink:href="#DejaVuSans-55"/>
     <use x="864.351562" xlink:href="#DejaVuSans-52"/>
     <use x="927.974609" xlink:href="#DejaVuSans-51"/>
     <use x="991.597656" xlink:href="#DejaVuSans-101"/>
     <use x="1053.121094" xlink:href="#DejaVuSans-45"/>
     <use x="1089.205078" xlink:href="#DejaVuSans-48"/>
     <use x="1152.828125" xlink:href="#DejaVuSans-49"/>
    </g>
   </g>
  </g>
 </g>
 <defs>
  <clipPath id="p7e90bfd993">
   <rect height="554.4" width="558" x="132.715625" y="180.3635"/>
  </clipPath>
 </defs>
</svg>
