<?xml version="1.0" encoding="utf-8" standalone="no"?>
<!DOCTYPE svg PUBLIC "-//W3C//DTD SVG 1.1//EN"
  "http://www.w3.org/Graphics/SVG/1.1/DTD/svg11.dtd">
<!-- Created with matplotlib (https://matplotlib.org/) -->
<svg height="852.24475pt" version="1.1" viewBox="0 0 697.915625 852.24475" width="697.915625pt" xmlns="http://www.w3.org/2000/svg" xmlns:xlink="http://www.w3.org/1999/xlink">
 <defs>
  <style type="text/css">
*{stroke-linecap:butt;stroke-linejoin:round;}
  </style>
 </defs>
 <g id="figure_1">
  <g id="patch_1">
   <path d="M 0 852.24475 
L 697.915625 852.24475 
L 697.915625 0 
L 0 0 
z
" style="fill:#ffffff;"/>
  </g>
  <g id="axes_1">
   <g id="patch_2">
    <path d="M 132.715625 734.7635 
L 690.715625 734.7635 
L 690.715625 180.3635 
L 132.715625 180.3635 
z
" style="fill:#ffffff;"/>
   </g>
   <g id="matplotlib.axis_1">
    <g id="xtick_1">
     <g id="line2d_1">
      <defs>
       <path d="M 0 0 
L 0 6 
" id="mca9b01692a" style="stroke:#262626;stroke-width:1.25;"/>
      </defs>
      <g>
       <use style="fill:#262626;stroke:#262626;stroke-width:1.25;" x="225.715625" xlink:href="#mca9b01692a" y="734.7635"/>
      </g>
     </g>
     <g id="text_1">
      <!-- Gs -->
      <defs>
       <path d="M 59.515625 10.40625 
L 59.515625 29.984375 
L 43.40625 29.984375 
L 43.40625 38.09375 
L 69.28125 38.09375 
L 69.28125 6.78125 
Q 63.578125 2.734375 56.6875 0.65625 
Q 49.8125 -1.421875 42 -1.421875 
Q 24.90625 -1.421875 15.25 8.5625 
Q 5.609375 18.5625 5.609375 36.375 
Q 5.609375 54.25 15.25 64.234375 
Q 24.90625 74.21875 42 74.21875 
Q 49.125 74.21875 55.546875 72.453125 
Q 61.96875 70.703125 67.390625 67.28125 
L 67.390625 56.78125 
Q 61.921875 61.421875 55.765625 63.765625 
Q 49.609375 66.109375 42.828125 66.109375 
Q 29.4375 66.109375 22.71875 58.640625 
Q 16.015625 51.171875 16.015625 36.375 
Q 16.015625 21.625 22.71875 14.15625 
Q 29.4375 6.6875 42.828125 6.6875 
Q 48.046875 6.6875 52.140625 7.59375 
Q 56.25 8.5 59.515625 10.40625 
z
" id="DejaVuSans-71"/>
       <path d="M 44.28125 53.078125 
L 44.28125 44.578125 
Q 40.484375 46.53125 36.375 47.5 
Q 32.28125 48.484375 27.875 48.484375 
Q 21.1875 48.484375 17.84375 46.4375 
Q 14.5 44.390625 14.5 40.28125 
Q 14.5 37.15625 16.890625 35.375 
Q 19.28125 33.59375 26.515625 31.984375 
L 29.59375 31.296875 
Q 39.15625 29.25 43.1875 25.515625 
Q 47.21875 21.78125 47.21875 15.09375 
Q 47.21875 7.46875 41.1875 3.015625 
Q 35.15625 -1.421875 24.609375 -1.421875 
Q 20.21875 -1.421875 15.453125 -0.5625 
Q 10.6875 0.296875 5.421875 2 
L 5.421875 11.28125 
Q 10.40625 8.6875 15.234375 7.390625 
Q 20.0625 6.109375 24.8125 6.109375 
Q 31.15625 6.109375 34.5625 8.28125 
Q 37.984375 10.453125 37.984375 14.40625 
Q 37.984375 18.0625 35.515625 20.015625 
Q 33.0625 21.96875 24.703125 23.78125 
L 21.578125 24.515625 
Q 13.234375 26.265625 9.515625 29.90625 
Q 5.8125 33.546875 5.8125 39.890625 
Q 5.8125 47.609375 11.28125 51.796875 
Q 16.75 56 26.8125 56 
Q 31.78125 56 36.171875 55.265625 
Q 40.578125 54.546875 44.28125 53.078125 
z
" id="DejaVuSans-115"/>
      </defs>
      <g style="fill:#262626;" transform="translate(193.321094 782.255688)scale(0.5 -0.5)">
       <use xlink:href="#DejaVuSans-71"/>
       <use x="77.490234" xlink:href="#DejaVuSans-115"/>
      </g>
     </g>
    </g>
    <g id="xtick_2">
     <g id="line2d_2">
      <g>
       <use style="fill:#262626;stroke:#262626;stroke-width:1.25;" x="411.715625" xlink:href="#mca9b01692a" y="734.7635"/>
      </g>
     </g>
     <g id="text_2">
      <!-- Gio -->
      <defs>
       <path d="M 9.421875 54.6875 
L 18.40625 54.6875 
L 18.40625 0 
L 9.421875 0 
z
M 9.421875 75.984375 
L 18.40625 75.984375 
L 18.40625 64.59375 
L 9.421875 64.59375 
z
" id="DejaVuSans-105"/>
       <path d="M 30.609375 48.390625 
Q 23.390625 48.390625 19.1875 42.75 
Q 14.984375 37.109375 14.984375 27.296875 
Q 14.984375 17.484375 19.15625 11.84375 
Q 23.34375 6.203125 30.609375 6.203125 
Q 37.796875 6.203125 41.984375 11.859375 
Q 46.1875 17.53125 46.1875 27.296875 
Q 46.1875 37.015625 41.984375 42.703125 
Q 37.796875 48.390625 30.609375 48.390625 
z
M 30.609375 56 
Q 42.328125 56 49.015625 48.375 
Q 55.71875 40.765625 55.71875 27.296875 
Q 55.71875 13.875 49.015625 6.21875 
Q 42.328125 -1.421875 30.609375 -1.421875 
Q 18.84375 -1.421875 12.171875 6.21875 
Q 5.515625 13.875 5.515625 27.296875 
Q 5.515625 40.765625 12.171875 48.375 
Q 18.84375 56 30.609375 56 
z
" id="DejaVuSans-111"/>
      </defs>
      <g style="fill:#262626;" transform="translate(370.102344 782.255688)scale(0.5 -0.5)">
       <use xlink:href="#DejaVuSans-71"/>
       <use x="77.490234" xlink:href="#DejaVuSans-105"/>
       <use x="105.273438" xlink:href="#DejaVuSans-111"/>
      </g>
     </g>
    </g>
    <g id="xtick_3">
     <g id="line2d_3">
      <g>
       <use style="fill:#262626;stroke:#262626;stroke-width:1.25;" x="597.715625" xlink:href="#mca9b01692a" y="734.7635"/>
      </g>
     </g>
     <g id="text_3">
      <!-- Gq11 -->
      <defs>
       <path d="M 14.796875 27.296875 
Q 14.796875 17.390625 18.875 11.75 
Q 22.953125 6.109375 30.078125 6.109375 
Q 37.203125 6.109375 41.296875 11.75 
Q 45.40625 17.390625 45.40625 27.296875 
Q 45.40625 37.203125 41.296875 42.84375 
Q 37.203125 48.484375 30.078125 48.484375 
Q 22.953125 48.484375 18.875 42.84375 
Q 14.796875 37.203125 14.796875 27.296875 
z
M 45.40625 8.203125 
Q 42.578125 3.328125 38.25 0.953125 
Q 33.9375 -1.421875 27.875 -1.421875 
Q 17.96875 -1.421875 11.734375 6.484375 
Q 5.515625 14.40625 5.515625 27.296875 
Q 5.515625 40.1875 11.734375 48.09375 
Q 17.96875 56 27.875 56 
Q 33.9375 56 38.25 53.625 
Q 42.578125 51.265625 45.40625 46.390625 
L 45.40625 54.6875 
L 54.390625 54.6875 
L 54.390625 -20.796875 
L 45.40625 -20.796875 
z
" id="DejaVuSans-113"/>
       <path d="M 12.40625 8.296875 
L 28.515625 8.296875 
L 28.515625 63.921875 
L 10.984375 60.40625 
L 10.984375 69.390625 
L 28.421875 72.90625 
L 38.28125 72.90625 
L 38.28125 8.296875 
L 54.390625 8.296875 
L 54.390625 0 
L 12.40625 0 
z
" id="DejaVuSans-49"/>
      </defs>
      <g style="fill:#262626;" transform="translate(530.660938 782.255688)scale(0.5 -0.5)">
       <use xlink:href="#DejaVuSans-71"/>
       <use x="77.490234" xlink:href="#DejaVuSans-113"/>
       <use x="140.966797" xlink:href="#DejaVuSans-49"/>
       <use x="204.589844" xlink:href="#DejaVuSans-49"/>
      </g>
     </g>
    </g>
    <g id="text_4">
     <!-- G-protein -->
     <defs>
      <path d="M 4.890625 31.390625 
L 31.203125 31.390625 
L 31.203125 23.390625 
L 4.890625 23.390625 
z
" id="DejaVuSans-45"/>
      <path d="M 18.109375 8.203125 
L 18.109375 -20.796875 
L 9.078125 -20.796875 
L 9.078125 54.6875 
L 18.109375 54.6875 
L 18.109375 46.390625 
Q 20.953125 51.265625 25.265625 53.625 
Q 29.59375 56 35.59375 56 
Q 45.5625 56 51.78125 48.09375 
Q 58.015625 40.1875 58.015625 27.296875 
Q 58.015625 14.40625 51.78125 6.484375 
Q 45.5625 -1.421875 35.59375 -1.421875 
Q 29.59375 -1.421875 25.265625 0.953125 
Q 20.953125 3.328125 18.109375 8.203125 
z
M 48.6875 27.296875 
Q 48.6875 37.203125 44.609375 42.84375 
Q 40.53125 48.484375 33.40625 48.484375 
Q 26.265625 48.484375 22.1875 42.84375 
Q 18.109375 37.203125 18.109375 27.296875 
Q 18.109375 17.390625 22.1875 11.75 
Q 26.265625 6.109375 33.40625 6.109375 
Q 40.53125 6.109375 44.609375 11.75 
Q 48.6875 17.390625 48.6875 27.296875 
z
" id="DejaVuSans-112"/>
      <path d="M 41.109375 46.296875 
Q 39.59375 47.171875 37.8125 47.578125 
Q 36.03125 48 33.890625 48 
Q 26.265625 48 22.1875 43.046875 
Q 18.109375 38.09375 18.109375 28.8125 
L 18.109375 0 
L 9.078125 0 
L 9.078125 54.6875 
L 18.109375 54.6875 
L 18.109375 46.1875 
Q 20.953125 51.171875 25.484375 53.578125 
Q 30.03125 56 36.53125 56 
Q 37.453125 56 38.578125 55.875 
Q 39.703125 55.765625 41.0625 55.515625 
z
" id="DejaVuSans-114"/>
      <path d="M 18.3125 70.21875 
L 18.3125 54.6875 
L 36.8125 54.6875 
L 36.8125 47.703125 
L 18.3125 47.703125 
L 18.3125 18.015625 
Q 18.3125 11.328125 20.140625 9.421875 
Q 21.96875 7.515625 27.59375 7.515625 
L 36.8125 7.515625 
L 36.8125 0 
L 27.59375 0 
Q 17.1875 0 13.234375 3.875 
Q 9.28125 7.765625 9.28125 18.015625 
L 9.28125 47.703125 
L 2.6875 47.703125 
L 2.6875 54.6875 
L 9.28125 54.6875 
L 9.28125 70.21875 
z
" id="DejaVuSans-116"/>
      <path d="M 56.203125 29.59375 
L 56.203125 25.203125 
L 14.890625 25.203125 
Q 15.484375 15.921875 20.484375 11.0625 
Q 25.484375 6.203125 34.421875 6.203125 
Q 39.59375 6.203125 44.453125 7.46875 
Q 49.3125 8.734375 54.109375 11.28125 
L 54.109375 2.78125 
Q 49.265625 0.734375 44.1875 -0.34375 
Q 39.109375 -1.421875 33.890625 -1.421875 
Q 20.796875 -1.421875 13.15625 6.1875 
Q 5.515625 13.8125 5.515625 26.8125 
Q 5.515625 40.234375 12.765625 48.109375 
Q 20.015625 56 32.328125 56 
Q 43.359375 56 49.78125 48.890625 
Q 56.203125 41.796875 56.203125 29.59375 
z
M 47.21875 32.234375 
Q 47.125 39.59375 43.09375 43.984375 
Q 39.0625 48.390625 32.421875 48.390625 
Q 24.90625 48.390625 20.390625 44.140625 
Q 15.875 39.890625 15.1875 32.171875 
z
" id="DejaVuSans-101"/>
      <path d="M 54.890625 33.015625 
L 54.890625 0 
L 45.90625 0 
L 45.90625 32.71875 
Q 45.90625 40.484375 42.875 44.328125 
Q 39.84375 48.1875 33.796875 48.1875 
Q 26.515625 48.1875 22.3125 43.546875 
Q 18.109375 38.921875 18.109375 30.90625 
L 18.109375 0 
L 9.078125 0 
L 9.078125 54.6875 
L 18.109375 54.6875 
L 18.109375 46.1875 
Q 21.34375 51.125 25.703125 53.5625 
Q 30.078125 56 35.796875 56 
Q 45.21875 56 50.046875 50.171875 
Q 54.890625 44.34375 54.890625 33.015625 
z
" id="DejaVuSans-110"/>
     </defs>
     <g style="fill:#262626;" transform="translate(294.469531 834.646313)scale(0.5 -0.5)">
      <use xlink:href="#DejaVuSans-71"/>
      <use x="77.490234" xlink:href="#DejaVuSans-45"/>
      <use x="113.574219" xlink:href="#DejaVuSans-112"/>
      <use x="177.050781" xlink:href="#DejaVuSans-114"/>
      <use x="215.914062" xlink:href="#DejaVuSans-111"/>
      <use x="277.095703" xlink:href="#DejaVuSans-116"/>
      <use x="316.304688" xlink:href="#DejaVuSans-101"/>
      <use x="377.828125" xlink:href="#DejaVuSans-105"/>
      <use x="405.611328" xlink:href="#DejaVuSans-110"/>
     </g>
    </g>
   </g>
   <g id="matplotlib.axis_2">
    <g id="ytick_1">
     <g id="line2d_4">
      <defs>
       <path d="M 0 0 
L -6 0 
" id="m37f90a257b" style="stroke:#262626;stroke-width:1.25;"/>
      </defs>
      <g>
       <use style="fill:#262626;stroke:#262626;stroke-width:1.25;" x="132.715625" xlink:href="#m37f90a257b" y="684.3635"/>
      </g>
     </g>
     <g id="text_5">
      <!-- 0 -->
      <defs>
       <path d="M 31.78125 66.40625 
Q 24.171875 66.40625 20.328125 58.90625 
Q 16.5 51.421875 16.5 36.375 
Q 16.5 21.390625 20.328125 13.890625 
Q 24.171875 6.390625 31.78125 6.390625 
Q 39.453125 6.390625 43.28125 13.890625 
Q 47.125 21.390625 47.125 36.375 
Q 47.125 51.421875 43.28125 58.90625 
Q 39.453125 66.40625 31.78125 66.40625 
z
M 31.78125 74.21875 
Q 44.046875 74.21875 50.515625 64.515625 
Q 56.984375 54.828125 56.984375 36.375 
Q 56.984375 17.96875 50.515625 8.265625 
Q 44.046875 -1.421875 31.78125 -1.421875 
Q 19.53125 -1.421875 13.0625 8.265625 
Q 6.59375 17.96875 6.59375 36.375 
Q 6.59375 54.828125 13.0625 64.515625 
Q 19.53125 74.21875 31.78125 74.21875 
z
" id="DejaVuSans-48"/>
      </defs>
      <g style="fill:#262626;" transform="translate(91.403125 703.359594)scale(0.5 -0.5)">
       <use xlink:href="#DejaVuSans-48"/>
      </g>
     </g>
    </g>
    <g id="ytick_2">
     <g id="line2d_5">
      <g>
       <use style="fill:#262626;stroke:#262626;stroke-width:1.25;" x="132.715625" xlink:href="#m37f90a257b" y="617.1635"/>
      </g>
     </g>
     <g id="text_6">
      <!-- 4 -->
      <defs>
       <path d="M 37.796875 64.3125 
L 12.890625 25.390625 
L 37.796875 25.390625 
z
M 35.203125 72.90625 
L 47.609375 72.90625 
L 47.609375 25.390625 
L 58.015625 25.390625 
L 58.015625 17.1875 
L 47.609375 17.1875 
L 47.609375 0 
L 37.796875 0 
L 37.796875 17.1875 
L 4.890625 17.1875 
L 4.890625 26.703125 
z
" id="DejaVuSans-52"/>
      </defs>
      <g style="fill:#262626;" transform="translate(91.403125 636.159594)scale(0.5 -0.5)">
       <use xlink:href="#DejaVuSans-52"/>
      </g>
     </g>
    </g>
    <g id="ytick_3">
     <g id="line2d_6">
      <g>
       <use style="fill:#262626;stroke:#262626;stroke-width:1.25;" x="132.715625" xlink:href="#m37f90a257b" y="549.9635"/>
      </g>
     </g>
     <g id="text_7">
      <!-- 8 -->
      <defs>
       <path d="M 31.78125 34.625 
Q 24.75 34.625 20.71875 30.859375 
Q 16.703125 27.09375 16.703125 20.515625 
Q 16.703125 13.921875 20.71875 10.15625 
Q 24.75 6.390625 31.78125 6.390625 
Q 38.8125 6.390625 42.859375 10.171875 
Q 46.921875 13.96875 46.921875 20.515625 
Q 46.921875 27.09375 42.890625 30.859375 
Q 38.875 34.625 31.78125 34.625 
z
M 21.921875 38.8125 
Q 15.578125 40.375 12.03125 44.71875 
Q 8.5 49.078125 8.5 55.328125 
Q 8.5 64.0625 14.71875 69.140625 
Q 20.953125 74.21875 31.78125 74.21875 
Q 42.671875 74.21875 48.875 69.140625 
Q 55.078125 64.0625 55.078125 55.328125 
Q 55.078125 49.078125 51.53125 44.71875 
Q 48 40.375 41.703125 38.8125 
Q 48.828125 37.15625 52.796875 32.3125 
Q 56.78125 27.484375 56.78125 20.515625 
Q 56.78125 9.90625 50.3125 4.234375 
Q 43.84375 -1.421875 31.78125 -1.421875 
Q 19.734375 -1.421875 13.25 4.234375 
Q 6.78125 9.90625 6.78125 20.515625 
Q 6.78125 27.484375 10.78125 32.3125 
Q 14.796875 37.15625 21.921875 38.8125 
z
M 18.3125 54.390625 
Q 18.3125 48.734375 21.84375 45.5625 
Q 25.390625 42.390625 31.78125 42.390625 
Q 38.140625 42.390625 41.71875 45.5625 
Q 45.3125 48.734375 45.3125 54.390625 
Q 45.3125 60.0625 41.71875 63.234375 
Q 38.140625 66.40625 31.78125 66.40625 
Q 25.390625 66.40625 21.84375 63.234375 
Q 18.3125 60.0625 18.3125 54.390625 
z
" id="DejaVuSans-56"/>
      </defs>
      <g style="fill:#262626;" transform="translate(91.403125 568.959594)scale(0.5 -0.5)">
       <use xlink:href="#DejaVuSans-56"/>
      </g>
     </g>
    </g>
    <g id="ytick_4">
     <g id="line2d_7">
      <g>
       <use style="fill:#262626;stroke:#262626;stroke-width:1.25;" x="132.715625" xlink:href="#m37f90a257b" y="482.7635"/>
      </g>
     </g>
     <g id="text_8">
      <!-- 12 -->
      <defs>
       <path d="M 19.1875 8.296875 
L 53.609375 8.296875 
L 53.609375 0 
L 7.328125 0 
L 7.328125 8.296875 
Q 12.9375 14.109375 22.625 23.890625 
Q 32.328125 33.6875 34.8125 36.53125 
Q 39.546875 41.84375 41.421875 45.53125 
Q 43.3125 49.21875 43.3125 52.78125 
Q 43.3125 58.59375 39.234375 62.25 
Q 35.15625 65.921875 28.609375 65.921875 
Q 23.96875 65.921875 18.8125 64.3125 
Q 13.671875 62.703125 7.8125 59.421875 
L 7.8125 69.390625 
Q 13.765625 71.78125 18.9375 73 
Q 24.125 74.21875 28.421875 74.21875 
Q 39.75 74.21875 46.484375 68.546875 
Q 53.21875 62.890625 53.21875 53.421875 
Q 53.21875 48.921875 51.53125 44.890625 
Q 49.859375 40.875 45.40625 35.40625 
Q 44.1875 33.984375 37.640625 27.21875 
Q 31.109375 20.453125 19.1875 8.296875 
z
" id="DejaVuSans-50"/>
      </defs>
      <g style="fill:#262626;" transform="translate(59.590625 501.759594)scale(0.5 -0.5)">
       <use xlink:href="#DejaVuSans-49"/>
       <use x="63.623047" xlink:href="#DejaVuSans-50"/>
      </g>
     </g>
    </g>
    <g id="ytick_5">
     <g id="line2d_8">
      <g>
       <use style="fill:#262626;stroke:#262626;stroke-width:1.25;" x="132.715625" xlink:href="#m37f90a257b" y="415.5635"/>
      </g>
     </g>
     <g id="text_9">
      <!-- 16 -->
      <defs>
       <path d="M 33.015625 40.375 
Q 26.375 40.375 22.484375 35.828125 
Q 18.609375 31.296875 18.609375 23.390625 
Q 18.609375 15.53125 22.484375 10.953125 
Q 26.375 6.390625 33.015625 6.390625 
Q 39.65625 6.390625 43.53125 10.953125 
Q 47.40625 15.53125 47.40625 23.390625 
Q 47.40625 31.296875 43.53125 35.828125 
Q 39.65625 40.375 33.015625 40.375 
z
M 52.59375 71.296875 
L 52.59375 62.3125 
Q 48.875 64.0625 45.09375 64.984375 
Q 41.3125 65.921875 37.59375 65.921875 
Q 27.828125 65.921875 22.671875 59.328125 
Q 17.53125 52.734375 16.796875 39.40625 
Q 19.671875 43.65625 24.015625 45.921875 
Q 28.375 48.1875 33.59375 48.1875 
Q 44.578125 48.1875 50.953125 41.515625 
Q 57.328125 34.859375 57.328125 23.390625 
Q 57.328125 12.15625 50.6875 5.359375 
Q 44.046875 -1.421875 33.015625 -1.421875 
Q 20.359375 -1.421875 13.671875 8.265625 
Q 6.984375 17.96875 6.984375 36.375 
Q 6.984375 53.65625 15.1875 63.9375 
Q 23.390625 74.21875 37.203125 74.21875 
Q 40.921875 74.21875 44.703125 73.484375 
Q 48.484375 72.75 52.59375 71.296875 
z
" id="DejaVuSans-54"/>
      </defs>
      <g style="fill:#262626;" transform="translate(59.590625 434.559594)scale(0.5 -0.5)">
       <use xlink:href="#DejaVuSans-49"/>
       <use x="63.623047" xlink:href="#DejaVuSans-54"/>
      </g>
     </g>
    </g>
    <g id="ytick_6">
     <g id="line2d_9">
      <g>
       <use style="fill:#262626;stroke:#262626;stroke-width:1.25;" x="132.715625" xlink:href="#m37f90a257b" y="348.3635"/>
      </g>
     </g>
     <g id="text_10">
      <!-- 20 -->
      <g style="fill:#262626;" transform="translate(59.590625 367.359594)scale(0.5 -0.5)">
       <use xlink:href="#DejaVuSans-50"/>
       <use x="63.623047" xlink:href="#DejaVuSans-48"/>
      </g>
     </g>
    </g>
    <g id="ytick_7">
     <g id="line2d_10">
      <g>
       <use style="fill:#262626;stroke:#262626;stroke-width:1.25;" x="132.715625" xlink:href="#m37f90a257b" y="281.1635"/>
      </g>
     </g>
     <g id="text_11">
      <!-- 24 -->
      <g style="fill:#262626;" transform="translate(59.590625 300.159594)scale(0.5 -0.5)">
       <use xlink:href="#DejaVuSans-50"/>
       <use x="63.623047" xlink:href="#DejaVuSans-52"/>
      </g>
     </g>
    </g>
    <g id="ytick_8">
     <g id="line2d_11">
      <g>
       <use style="fill:#262626;stroke:#262626;stroke-width:1.25;" x="132.715625" xlink:href="#m37f90a257b" y="213.9635"/>
      </g>
     </g>
     <g id="text_12">
      <!-- 28 -->
      <g style="fill:#262626;" transform="translate(59.590625 232.959594)scale(0.5 -0.5)">
       <use xlink:href="#DejaVuSans-50"/>
       <use x="63.623047" xlink:href="#DejaVuSans-56"/>
      </g>
     </g>
    </g>
    <g id="text_13">
     <!-- RMSD -->
     <defs>
      <path d="M 44.390625 34.1875 
Q 47.5625 33.109375 50.5625 29.59375 
Q 53.5625 26.078125 56.59375 19.921875 
L 66.609375 0 
L 56 0 
L 46.6875 18.703125 
Q 43.0625 26.03125 39.671875 28.421875 
Q 36.28125 30.8125 30.421875 30.8125 
L 19.671875 30.8125 
L 19.671875 0 
L 9.8125 0 
L 9.8125 72.90625 
L 32.078125 72.90625 
Q 44.578125 72.90625 50.734375 67.671875 
Q 56.890625 62.453125 56.890625 51.90625 
Q 56.890625 45.015625 53.6875 40.46875 
Q 50.484375 35.9375 44.390625 34.1875 
z
M 19.671875 64.796875 
L 19.671875 38.921875 
L 32.078125 38.921875 
Q 39.203125 38.921875 42.84375 42.21875 
Q 46.484375 45.515625 46.484375 51.90625 
Q 46.484375 58.296875 42.84375 61.546875 
Q 39.203125 64.796875 32.078125 64.796875 
z
" id="DejaVuSans-82"/>
      <path d="M 9.8125 72.90625 
L 24.515625 72.90625 
L 43.109375 23.296875 
L 61.8125 72.90625 
L 76.515625 72.90625 
L 76.515625 0 
L 66.890625 0 
L 66.890625 64.015625 
L 48.09375 14.015625 
L 38.1875 14.015625 
L 19.390625 64.015625 
L 19.390625 0 
L 9.8125 0 
z
" id="DejaVuSans-77"/>
      <path d="M 53.515625 70.515625 
L 53.515625 60.890625 
Q 47.90625 63.578125 42.921875 64.890625 
Q 37.9375 66.21875 33.296875 66.21875 
Q 25.25 66.21875 20.875 63.09375 
Q 16.5 59.96875 16.5 54.203125 
Q 16.5 49.359375 19.40625 46.890625 
Q 22.3125 44.4375 30.421875 42.921875 
L 36.375 41.703125 
Q 47.40625 39.59375 52.65625 34.296875 
Q 57.90625 29 57.90625 20.125 
Q 57.90625 9.515625 50.796875 4.046875 
Q 43.703125 -1.421875 29.984375 -1.421875 
Q 24.8125 -1.421875 18.96875 -0.25 
Q 13.140625 0.921875 6.890625 3.21875 
L 6.890625 13.375 
Q 12.890625 10.015625 18.65625 8.296875 
Q 24.421875 6.59375 29.984375 6.59375 
Q 38.421875 6.59375 43.015625 9.90625 
Q 47.609375 13.234375 47.609375 19.390625 
Q 47.609375 24.75 44.3125 27.78125 
Q 41.015625 30.8125 33.5 32.328125 
L 27.484375 33.5 
Q 16.453125 35.6875 11.515625 40.375 
Q 6.59375 45.0625 6.59375 53.421875 
Q 6.59375 63.09375 13.40625 68.65625 
Q 20.21875 74.21875 32.171875 74.21875 
Q 37.3125 74.21875 42.625 73.28125 
Q 47.953125 72.359375 53.515625 70.515625 
z
" id="DejaVuSans-83"/>
      <path d="M 19.671875 64.796875 
L 19.671875 8.109375 
L 31.59375 8.109375 
Q 46.6875 8.109375 53.6875 14.9375 
Q 60.6875 21.78125 60.6875 36.53125 
Q 60.6875 51.171875 53.6875 57.984375 
Q 46.6875 64.796875 31.59375 64.796875 
z
M 9.8125 72.90625 
L 30.078125 72.90625 
Q 51.265625 72.90625 61.171875 64.09375 
Q 71.09375 55.28125 71.09375 36.53125 
Q 71.09375 17.671875 61.125 8.828125 
Q 51.171875 0 30.078125 0 
L 9.8125 0 
z
" id="DejaVuSans-68"/>
     </defs>
     <g style="fill:#262626;" transform="translate(45.192187 531.626)rotate(-90)scale(0.5 -0.5)">
      <use xlink:href="#DejaVuSans-82"/>
      <use x="69.482422" xlink:href="#DejaVuSans-77"/>
      <use x="155.761719" xlink:href="#DejaVuSans-83"/>
      <use x="219.238281" xlink:href="#DejaVuSans-68"/>
     </g>
    </g>
   </g>
   <g id="PolyCollection_1">
    <defs>
     <path d="M 225.912572 -150.684881 
L 225.518678 -150.684881 
L 225.40541 -153.371152 
L 225.239935 -156.057424 
L 225.004931 -158.743696 
L 224.680286 -161.429967 
L 224.243783 -164.116239 
L 223.67228 -166.802511 
L 222.943381 -169.488782 
L 222.037551 -172.175054 
L 220.940509 -174.861325 
L 219.645655 -177.547597 
L 218.156204 -180.233869 
L 216.486635 -182.92014 
L 214.663126 -185.606412 
L 212.722739 -188.292684 
L 210.711309 -190.978955 
L 208.680198 -193.665227 
L 206.68232 -196.351499 
L 204.76792 -199.03777 
L 202.980694 -201.724042 
L 201.35471 -204.410313 
L 199.912447 -207.096585 
L 198.664096 -209.782857 
L 197.608063 -212.469128 
L 196.732464 -215.1554 
L 196.017367 -217.841672 
L 195.437434 -220.527943 
L 194.964675 -223.214215 
L 194.571029 -225.900486 
L 194.23056 -228.586758 
L 193.921145 -231.27303 
L 193.62563 -233.959301 
L 193.332546 -236.645573 
L 193.036501 -239.331845 
L 192.738421 -242.018116 
L 192.445688 -244.704388 
L 192.172178 -247.390659 
L 191.938063 -250.076931 
L 191.769186 -252.763203 
L 191.695839 -255.449474 
L 191.750821 -258.135746 
L 191.966826 -260.822018 
L 192.373354 -263.508289 
L 192.993475 -266.194561 
L 193.840882 -268.880833 
L 194.917644 -271.567104 
L 196.213032 -274.253376 
L 197.703613 -276.939647 
L 199.354641 -279.625919 
L 201.122571 -282.312191 
L 202.958363 -284.998462 
L 204.81117 -287.684734 
L 206.631942 -290.371006 
L 208.376582 -293.057277 
L 210.008353 -295.743549 
L 211.499383 -298.42982 
L 212.831242 -301.116092 
L 213.994676 -303.802364 
L 214.988684 -306.488635 
L 215.819129 -309.174907 
L 216.497151 -311.861179 
L 217.037548 -314.54745 
L 217.457302 -317.233722 
L 217.774315 -319.919993 
L 218.006383 -322.606265 
L 218.170391 -325.292537 
L 218.281685 -327.978808 
L 218.35362 -330.66508 
L 218.397281 -333.351352 
L 218.421384 -336.037623 
L 218.432391 -338.723895 
L 218.434814 -341.410167 
L 218.431701 -344.096438 
L 218.425248 -346.78271 
L 218.417519 -349.468981 
L 218.411206 -352.155253 
L 218.410386 -354.841525 
L 218.421158 -357.527796 
L 218.452018 -360.214068 
L 218.5138 -362.90034 
L 218.619011 -365.586611 
L 218.780539 -368.272883 
L 219.00982 -370.959154 
L 219.314778 -373.645426 
L 219.697936 -376.331698 
L 220.15516 -379.017969 
L 220.675366 -381.704241 
L 221.241332 -384.390513 
L 221.831498 -387.076784 
L 222.422424 -389.763056 
L 222.991441 -392.449328 
L 223.519021 -395.135599 
L 223.9905 -397.821871 
L 224.396942 -400.508142 
L 224.735141 -403.194414 
L 225.006908 -405.880686 
L 225.21788 -408.566957 
L 225.376135 -411.253229 
L 225.490861 -413.939501 
L 225.571243 -416.625772 
L 225.860007 -416.625772 
L 225.860007 -416.625772 
L 225.940389 -413.939501 
L 226.055115 -411.253229 
L 226.21337 -408.566957 
L 226.424342 -405.880686 
L 226.696109 -403.194414 
L 227.034308 -400.508142 
L 227.44075 -397.821871 
L 227.912229 -395.135599 
L 228.439809 -392.449328 
L 229.008826 -389.763056 
L 229.599752 -387.076784 
L 230.189918 -384.390513 
L 230.755884 -381.704241 
L 231.27609 -379.017969 
L 231.733314 -376.331698 
L 232.116472 -373.645426 
L 232.42143 -370.959154 
L 232.650711 -368.272883 
L 232.812239 -365.586611 
L 232.91745 -362.90034 
L 232.979232 -360.214068 
L 233.010092 -357.527796 
L 233.020864 -354.841525 
L 233.020044 -352.155253 
L 233.013731 -349.468981 
L 233.006002 -346.78271 
L 232.999549 -344.096438 
L 232.996436 -341.410167 
L 232.998859 -338.723895 
L 233.009866 -336.037623 
L 233.033969 -333.351352 
L 233.07763 -330.66508 
L 233.149565 -327.978808 
L 233.260859 -325.292537 
L 233.424867 -322.606265 
L 233.656935 -319.919993 
L 233.973948 -317.233722 
L 234.393702 -314.54745 
L 234.934099 -311.861179 
L 235.612121 -309.174907 
L 236.442566 -306.488635 
L 237.436574 -303.802364 
L 238.600008 -301.116092 
L 239.931867 -298.42982 
L 241.422897 -295.743549 
L 243.054668 -293.057277 
L 244.799308 -290.371006 
L 246.62008 -287.684734 
L 248.472887 -284.998462 
L 250.308679 -282.312191 
L 252.076609 -279.625919 
L 253.727637 -276.939647 
L 255.218218 -274.253376 
L 256.513606 -271.567104 
L 257.590368 -268.880833 
L 258.437775 -266.194561 
L 259.057896 -263.508289 
L 259.464424 -260.822018 
L 259.680429 -258.135746 
L 259.735411 -255.449474 
L 259.662064 -252.763203 
L 259.493187 -250.076931 
L 259.259072 -247.390659 
L 258.985562 -244.704388 
L 258.692829 -242.018116 
L 258.394749 -239.331845 
L 258.098704 -236.645573 
L 257.80562 -233.959301 
L 257.510105 -231.27303 
L 257.20069 -228.586758 
L 256.860221 -225.900486 
L 256.466575 -223.214215 
L 255.993816 -220.527943 
L 255.413883 -217.841672 
L 254.698786 -215.1554 
L 253.823187 -212.469128 
L 252.767154 -209.782857 
L 251.518803 -207.096585 
L 250.07654 -204.410313 
L 248.450556 -201.724042 
L 246.66333 -199.03777 
L 244.74893 -196.351499 
L 242.751052 -193.665227 
L 240.719941 -190.978955 
L 238.708511 -188.292684 
L 236.768124 -185.606412 
L 234.944615 -182.92014 
L 233.275046 -180.233869 
L 231.785595 -177.547597 
L 230.490741 -174.861325 
L 229.393699 -172.175054 
L 228.487869 -169.488782 
L 227.75897 -166.802511 
L 227.187467 -164.116239 
L 226.750964 -161.429967 
L 226.426319 -158.743696 
L 226.191315 -156.057424 
L 226.02584 -153.371152 
L 225.912572 -150.684881 
z
" id="mb1fa7253e9" style="stroke:#262626;stroke-width:1.5;"/>
    </defs>
    <g clip-path="url(#p21f6d90833)">
     <use style="fill:#b55d60;stroke:#262626;stroke-width:1.5;" x="0" xlink:href="#mb1fa7253e9" y="852.24475"/>
    </g>
   </g>
   <g id="PolyCollection_2">
    <defs>
     <path d="M 411.805013 -152.031389 
L 411.626237 -152.031389 
L 411.5455 -156.298469 
L 411.407768 -160.565548 
L 411.184654 -164.832628 
L 410.840557 -169.099707 
L 410.333964 -173.366787 
L 409.620164 -177.633866 
L 408.655403 -181.900946 
L 407.402277 -186.168026 
L 405.835967 -190.435105 
L 403.950517 -194.702185 
L 401.764037 -198.969264 
L 399.321499 -203.236344 
L 396.693921 -207.503423 
L 393.973329 -211.770503 
L 391.263828 -216.037582 
L 388.67014 -220.304662 
L 386.285957 -224.571742 
L 384.184894 -228.838821 
L 382.416466 -233.105901 
L 381.008021 -237.37298 
L 379.971215 -241.64006 
L 379.309483 -245.907139 
L 379.022365 -250.174219 
L 379.104289 -254.441299 
L 379.538806 -258.708378 
L 380.29238 -262.975458 
L 381.312603 -267.242537 
L 382.533541 -271.509617 
L 383.886938 -275.776696 
L 385.314749 -280.043776 
L 386.777641 -284.310856 
L 388.256179 -288.577935 
L 389.744988 -292.845015 
L 391.243345 -297.112094 
L 392.746808 -301.379174 
L 394.243331 -305.646253 
L 395.714722 -309.913333 
L 397.141618 -314.180413 
L 398.508776 -318.447492 
L 399.807802 -322.714572 
L 401.036196 -326.981651 
L 402.193597 -331.248731 
L 403.277426 -335.51581 
L 404.280183 -339.78289 
L 405.189588 -344.04997 
L 405.991321 -348.317049 
L 406.67307 -352.584129 
L 407.228236 -356.851208 
L 407.658059 -361.118288 
L 407.971646 -365.385367 
L 408.18413 -369.652447 
L 408.313741 -373.919526 
L 408.378778 -378.186606 
L 408.395377 -382.453686 
L 408.376532 -386.720765 
L 408.332221 -390.987845 
L 408.270056 -395.254924 
L 408.195815 -399.522004 
L 408.113603 -403.789083 
L 408.025923 -408.056163 
L 407.934157 -412.323243 
L 407.839632 -416.590322 
L 407.744846 -420.857402 
L 407.654022 -425.124481 
L 407.572468 -429.391561 
L 407.505027 -433.65864 
L 407.454701 -437.92572 
L 407.422582 -442.1928 
L 407.409416 -446.459879 
L 407.417933 -450.726959 
L 407.454365 -454.994038 
L 407.527799 -459.261118 
L 407.647279 -463.528197 
L 407.81786 -467.795277 
L 408.037595 -472.062357 
L 408.297014 -476.329436 
L 408.58144 -480.596516 
L 408.875061 -484.863595 
L 409.164925 -489.130675 
L 409.443204 -493.397754 
L 409.707048 -497.664834 
L 409.956544 -501.931913 
L 410.192049 -506.198993 
L 410.41225 -510.466073 
L 410.613755 -514.733152 
L 410.792196 -519.000232 
L 410.944153 -523.267311 
L 411.068908 -527.534391 
L 411.169182 -531.80147 
L 411.250511 -536.06855 
L 411.319544 -540.33563 
L 411.382035 -544.602709 
L 411.441363 -548.869789 
L 411.498137 -553.136868 
L 411.55086 -557.403948 
L 411.597213 -561.671027 
L 411.635291 -565.938107 
L 411.664346 -570.205187 
L 411.684895 -574.472266 
L 411.746355 -574.472266 
L 411.746355 -574.472266 
L 411.766904 -570.205187 
L 411.795959 -565.938107 
L 411.834037 -561.671027 
L 411.88039 -557.403948 
L 411.933113 -553.136868 
L 411.989887 -548.869789 
L 412.049215 -544.602709 
L 412.111706 -540.33563 
L 412.180739 -536.06855 
L 412.262068 -531.80147 
L 412.362342 -527.534391 
L 412.487097 -523.267311 
L 412.639054 -519.000232 
L 412.817495 -514.733152 
L 413.019 -510.466073 
L 413.239201 -506.198993 
L 413.474706 -501.931913 
L 413.724202 -497.664834 
L 413.988046 -493.397754 
L 414.266325 -489.130675 
L 414.556189 -484.863595 
L 414.84981 -480.596516 
L 415.134236 -476.329436 
L 415.393655 -472.062357 
L 415.61339 -467.795277 
L 415.783971 -463.528197 
L 415.903451 -459.261118 
L 415.976885 -454.994038 
L 416.013317 -450.726959 
L 416.021834 -446.459879 
L 416.008668 -442.1928 
L 415.976549 -437.92572 
L 415.926223 -433.65864 
L 415.858782 -429.391561 
L 415.777228 -425.124481 
L 415.686404 -420.857402 
L 415.591618 -416.590322 
L 415.497093 -412.323243 
L 415.405327 -408.056163 
L 415.317647 -403.789083 
L 415.235435 -399.522004 
L 415.161194 -395.254924 
L 415.099029 -390.987845 
L 415.054718 -386.720765 
L 415.035873 -382.453686 
L 415.052472 -378.186606 
L 415.117509 -373.919526 
L 415.24712 -369.652447 
L 415.459604 -365.385367 
L 415.773191 -361.118288 
L 416.203014 -356.851208 
L 416.75818 -352.584129 
L 417.439929 -348.317049 
L 418.241662 -344.04997 
L 419.151067 -339.78289 
L 420.153824 -335.51581 
L 421.237653 -331.248731 
L 422.395054 -326.981651 
L 423.623448 -322.714572 
L 424.922474 -318.447492 
L 426.289632 -314.180413 
L 427.716528 -309.913333 
L 429.187919 -305.646253 
L 430.684442 -301.379174 
L 432.187905 -297.112094 
L 433.686262 -292.845015 
L 435.175071 -288.577935 
L 436.653609 -284.310856 
L 438.116501 -280.043776 
L 439.544312 -275.776696 
L 440.897709 -271.509617 
L 442.118647 -267.242537 
L 443.13887 -262.975458 
L 443.892444 -258.708378 
L 444.326961 -254.441299 
L 444.408885 -250.174219 
L 444.121767 -245.907139 
L 443.460035 -241.64006 
L 442.423229 -237.37298 
L 441.014784 -233.105901 
L 439.246356 -228.838821 
L 437.145293 -224.571742 
L 434.76111 -220.304662 
L 432.167422 -216.037582 
L 429.457921 -211.770503 
L 426.737329 -207.503423 
L 424.109751 -203.236344 
L 421.667213 -198.969264 
L 419.480733 -194.702185 
L 417.595283 -190.435105 
L 416.028973 -186.168026 
L 414.775847 -181.900946 
L 413.811086 -177.633866 
L 413.097286 -173.366787 
L 412.590693 -169.099707 
L 412.246596 -164.832628 
L 412.023482 -160.565548 
L 411.88575 -156.298469 
L 411.805013 -152.031389 
z
" id="me8c016c226" style="stroke:#262626;stroke-width:1.5;"/>
    </defs>
    <g clip-path="url(#p21f6d90833)">
     <use style="fill:#5875a4;stroke:#262626;stroke-width:1.5;" x="0" xlink:href="#me8c016c226" y="852.24475"/>
    </g>
   </g>
   <g id="PolyCollection_3">
    <defs>
     <path d="M 601.659888 -194.762525 
L 593.771362 -194.762525 
L 593.055735 -195.742428 
L 592.243583 -196.722331 
L 591.328669 -197.702233 
L 590.305655 -198.682136 
L 589.170363 -199.662039 
L 587.920043 -200.641942 
L 586.553629 -201.621844 
L 585.07197 -202.601747 
L 583.478024 -203.58165 
L 581.777002 -204.561553 
L 579.976449 -205.541455 
L 578.086248 -206.521358 
L 576.118537 -207.501261 
L 574.087544 -208.481164 
L 572.00931 -209.461066 
L 569.901339 -210.440969 
L 567.782146 -211.420872 
L 565.670733 -212.400774 
L 563.586014 -213.380677 
L 561.546189 -214.36058 
L 559.568113 -215.340483 
L 557.66668 -216.320385 
L 555.854247 -217.300288 
L 554.140133 -218.280191 
L 552.530229 -219.260094 
L 551.026728 -220.239996 
L 549.628011 -221.219899 
L 548.328699 -222.199802 
L 547.119874 -223.179705 
L 545.989479 -224.159607 
L 544.92288 -225.13951 
L 543.903564 -226.119413 
L 542.913968 -227.099315 
L 541.936381 -228.079218 
L 540.953891 -229.059121 
L 539.95133 -230.039024 
L 538.916169 -231.018926 
L 537.839318 -231.998829 
L 536.715788 -232.978732 
L 535.545177 -233.958635 
L 534.331957 -234.938537 
L 533.085528 -235.91844 
L 531.82005 -236.898343 
L 530.554042 -237.878245 
L 529.309769 -238.858148 
L 528.112444 -239.838051 
L 526.989285 -240.817954 
L 525.968466 -241.797856 
L 525.078011 -242.777759 
L 524.344704 -243.757662 
L 523.793036 -244.737565 
L 523.444264 -245.717467 
L 523.315625 -246.69737 
L 523.41972 -247.677273 
L 523.764119 -248.657176 
L 524.351179 -249.637078 
L 525.178091 -250.616981 
L 526.23714 -251.596884 
L 527.51615 -252.576786 
L 528.99909 -253.556689 
L 530.666812 -254.536592 
L 532.497848 -255.516495 
L 534.469259 -256.496397 
L 536.557461 -257.4763 
L 538.739008 -258.456203 
L 540.991285 -259.436106 
L 543.293088 -260.416008 
L 545.625073 -261.395911 
L 547.970064 -262.375814 
L 550.313218 -263.355717 
L 552.64205 -264.335619 
L 554.946346 -265.315522 
L 557.217972 -266.295425 
L 559.450605 -267.275327 
L 561.639423 -268.25523 
L 563.780767 -269.235133 
L 565.871801 -270.215036 
L 567.910211 -271.194938 
L 569.893929 -272.174841 
L 571.820919 -273.154744 
L 573.689028 -274.134647 
L 575.495894 -275.114549 
L 577.238918 -276.094452 
L 578.915297 -277.074355 
L 580.522092 -278.054257 
L 582.056342 -279.03416 
L 583.515192 -280.014063 
L 584.896035 -280.993966 
L 586.196649 -281.973868 
L 587.415323 -282.953771 
L 588.550961 -283.933674 
L 589.60316 -284.913577 
L 590.572258 -285.893479 
L 591.459349 -286.873382 
L 592.26627 -287.853285 
L 592.995554 -288.833188 
L 593.650366 -289.81309 
L 594.234418 -290.792993 
L 594.751866 -291.772896 
L 600.679384 -291.772896 
L 600.679384 -291.772896 
L 601.196832 -290.792993 
L 601.780884 -289.81309 
L 602.435696 -288.833188 
L 603.16498 -287.853285 
L 603.971901 -286.873382 
L 604.858992 -285.893479 
L 605.82809 -284.913577 
L 606.880289 -283.933674 
L 608.015927 -282.953771 
L 609.234601 -281.973868 
L 610.535215 -280.993966 
L 611.916058 -280.014063 
L 613.374908 -279.03416 
L 614.909158 -278.054257 
L 616.515953 -277.074355 
L 618.192332 -276.094452 
L 619.935356 -275.114549 
L 621.742222 -274.134647 
L 623.610331 -273.154744 
L 625.537321 -272.174841 
L 627.521039 -271.194938 
L 629.559449 -270.215036 
L 631.650483 -269.235133 
L 633.791827 -268.25523 
L 635.980645 -267.275327 
L 638.213278 -266.295425 
L 640.484904 -265.315522 
L 642.7892 -264.335619 
L 645.118032 -263.355717 
L 647.461186 -262.375814 
L 649.806177 -261.395911 
L 652.138162 -260.416008 
L 654.439965 -259.436106 
L 656.692242 -258.456203 
L 658.873789 -257.4763 
L 660.961991 -256.496397 
L 662.933402 -255.516495 
L 664.764438 -254.536592 
L 666.43216 -253.556689 
L 667.9151 -252.576786 
L 669.19411 -251.596884 
L 670.253159 -250.616981 
L 671.080071 -249.637078 
L 671.667131 -248.657176 
L 672.01153 -247.677273 
L 672.115625 -246.69737 
L 671.986986 -245.717467 
L 671.638214 -244.737565 
L 671.086546 -243.757662 
L 670.353239 -242.777759 
L 669.462784 -241.797856 
L 668.441965 -240.817954 
L 667.318806 -239.838051 
L 666.121481 -238.858148 
L 664.877208 -237.878245 
L 663.6112 -236.898343 
L 662.345722 -235.91844 
L 661.099293 -234.938537 
L 659.886073 -233.958635 
L 658.715462 -232.978732 
L 657.591932 -231.998829 
L 656.515081 -231.018926 
L 655.47992 -230.039024 
L 654.477359 -229.059121 
L 653.494869 -228.079218 
L 652.517282 -227.099315 
L 651.527686 -226.119413 
L 650.50837 -225.13951 
L 649.441771 -224.159607 
L 648.311376 -223.179705 
L 647.102551 -222.199802 
L 645.803239 -221.219899 
L 644.404522 -220.239996 
L 642.901021 -219.260094 
L 641.291117 -218.280191 
L 639.577003 -217.300288 
L 637.76457 -216.320385 
L 635.863137 -215.340483 
L 633.885061 -214.36058 
L 631.845236 -213.380677 
L 629.760517 -212.400774 
L 627.649104 -211.420872 
L 625.529911 -210.440969 
L 623.42194 -209.461066 
L 621.343706 -208.481164 
L 619.312713 -207.501261 
L 617.345002 -206.521358 
L 615.454801 -205.541455 
L 613.654248 -204.561553 
L 611.953226 -203.58165 
L 610.35928 -202.601747 
L 608.877621 -201.621844 
L 607.511207 -200.641942 
L 606.260887 -199.662039 
L 605.125595 -198.682136 
L 604.102581 -197.702233 
L 603.187667 -196.722331 
L 602.375515 -195.742428 
L 601.659888 -194.762525 
z
" id="m95ff2e7e28" style="stroke:#262626;stroke-width:1.5;"/>
    </defs>
    <g clip-path="url(#p21f6d90833)">
     <use style="fill:#107010;stroke:#262626;stroke-width:1.5;" x="0" xlink:href="#m95ff2e7e28" y="852.24475"/>
    </g>
   </g>
   <g id="line2d_12">
    <path clip-path="url(#p21f6d90833)" d="M 225.715625 673.289064 
L 225.715625 483.464277 
" style="fill:none;stroke:#262626;stroke-linecap:round;stroke-width:1.5;"/>
   </g>
   <g id="line2d_13">
    <path clip-path="url(#p21f6d90833)" d="M 225.715625 629.9362 
L 225.715625 571.301318 
" style="fill:none;stroke:#262626;stroke-linecap:round;stroke-width:4.5;"/>
   </g>
   <g id="line2d_14">
    <path clip-path="url(#p21f6d90833)" d="M 411.715625 667.420695 
L 411.715625 438.537859 
" style="fill:none;stroke:#262626;stroke-linecap:round;stroke-width:1.5;"/>
   </g>
   <g id="line2d_15">
    <path clip-path="url(#p21f6d90833)" d="M 411.715625 613.494787 
L 411.715625 543.420513 
" style="fill:none;stroke:#262626;stroke-linecap:round;stroke-width:4.5;"/>
   </g>
   <g id="line2d_16">
    <path clip-path="url(#p21f6d90833)" d="M 597.715625 632.956437 
L 597.715625 584.997642 
" style="fill:none;stroke:#262626;stroke-linecap:round;stroke-width:1.5;"/>
   </g>
   <g id="line2d_17">
    <path clip-path="url(#p21f6d90833)" d="M 597.715625 622.293973 
L 597.715625 603.801164 
" style="fill:none;stroke:#262626;stroke-linecap:round;stroke-width:4.5;"/>
   </g>
   <g id="line2d_18">
    <path d="M 225.715625 163.7315 
L 225.715625 152.6435 
L 411.715625 152.6435 
L 411.715625 163.7315 
" style="fill:none;stroke:#333333;stroke-linecap:round;stroke-width:1.5;"/>
   </g>
   <g id="line2d_19">
    <path d="M 411.715625 103.1235 
L 411.715625 92.0355 
L 597.715625 92.0355 
L 597.715625 103.1235 
" style="fill:none;stroke:#333333;stroke-linecap:round;stroke-width:1.5;"/>
   </g>
   <g id="line2d_20">
    <path d="M 225.715625 42.5155 
L 225.715625 31.4275 
L 597.715625 31.4275 
L 597.715625 42.5155 
" style="fill:none;stroke:#333333;stroke-linecap:round;stroke-width:1.5;"/>
   </g>
   <g id="patch_3">
    <path d="M 132.715625 734.7635 
L 132.715625 180.3635 
" style="fill:none;stroke:#262626;stroke-linecap:square;stroke-linejoin:miter;stroke-width:1.25;"/>
   </g>
   <g id="patch_4">
    <path d="M 690.715625 734.7635 
L 690.715625 180.3635 
" style="fill:none;stroke:#262626;stroke-linecap:square;stroke-linejoin:miter;stroke-width:1.25;"/>
   </g>
   <g id="patch_5">
    <path d="M 132.715625 734.7635 
L 690.715625 734.7635 
" style="fill:none;stroke:#262626;stroke-linecap:square;stroke-linejoin:miter;stroke-width:1.25;"/>
   </g>
   <g id="patch_6">
    <path d="M 132.715625 180.3635 
L 690.715625 180.3635 
" style="fill:none;stroke:#262626;stroke-linecap:square;stroke-linejoin:miter;stroke-width:1.25;"/>
   </g>
   <g id="PathCollection_1">
    <defs>
     <path d="M 0 1.5 
C 0.397805 1.5 0.77937 1.341951 1.06066 1.06066 
C 1.341951 0.77937 1.5 0.397805 1.5 0 
C 1.5 -0.397805 1.341951 -0.77937 1.06066 -1.06066 
C 0.77937 -1.341951 0.397805 -1.5 0 -1.5 
C -0.397805 -1.5 -0.77937 -1.341951 -1.06066 -1.06066 
C -1.341951 -0.77937 -1.5 -0.397805 -1.5 0 
C -1.5 0.397805 -1.341951 0.77937 -1.06066 1.06066 
C -0.77937 1.341951 -0.397805 1.5 0 1.5 
z
" id="mbe7be73c9f" style="stroke:#262626;"/>
    </defs>
    <g clip-path="url(#p21f6d90833)">
     <use style="fill:#ffffff;stroke:#262626;" x="225.715625" xlink:href="#mbe7be73c9f" y="598.723241"/>
    </g>
   </g>
   <g id="PathCollection_2">
    <g clip-path="url(#p21f6d90833)">
     <use style="fill:#ffffff;stroke:#262626;" x="411.715625" xlink:href="#mbe7be73c9f" y="585.379178"/>
    </g>
   </g>
   <g id="PathCollection_3">
    <g clip-path="url(#p21f6d90833)">
     <use style="fill:#ffffff;stroke:#262626;" x="597.715625" xlink:href="#mbe7be73c9f" y="605.693953"/>
    </g>
   </g>
   <g id="text_14">
    <!-- Ranksum p = 6.968e-13 -->
    <defs>
     <path d="M 34.28125 27.484375 
Q 23.390625 27.484375 19.1875 25 
Q 14.984375 22.515625 14.984375 16.5 
Q 14.984375 11.71875 18.140625 8.90625 
Q 21.296875 6.109375 26.703125 6.109375 
Q 34.1875 6.109375 38.703125 11.40625 
Q 43.21875 16.703125 43.21875 25.484375 
L 43.21875 27.484375 
z
M 52.203125 31.203125 
L 52.203125 0 
L 43.21875 0 
L 43.21875 8.296875 
Q 40.140625 3.328125 35.546875 0.953125 
Q 30.953125 -1.421875 24.3125 -1.421875 
Q 15.921875 -1.421875 10.953125 3.296875 
Q 6 8.015625 6 15.921875 
Q 6 25.140625 12.171875 29.828125 
Q 18.359375 34.515625 30.609375 34.515625 
L 43.21875 34.515625 
L 43.21875 35.40625 
Q 43.21875 41.609375 39.140625 45 
Q 35.0625 48.390625 27.6875 48.390625 
Q 23 48.390625 18.546875 47.265625 
Q 14.109375 46.140625 10.015625 43.890625 
L 10.015625 52.203125 
Q 14.9375 54.109375 19.578125 55.046875 
Q 24.21875 56 28.609375 56 
Q 40.484375 56 46.34375 49.84375 
Q 52.203125 43.703125 52.203125 31.203125 
z
" id="DejaVuSans-97"/>
     <path d="M 9.078125 75.984375 
L 18.109375 75.984375 
L 18.109375 31.109375 
L 44.921875 54.6875 
L 56.390625 54.6875 
L 27.390625 29.109375 
L 57.625 0 
L 45.90625 0 
L 18.109375 26.703125 
L 18.109375 0 
L 9.078125 0 
z
" id="DejaVuSans-107"/>
     <path d="M 8.5 21.578125 
L 8.5 54.6875 
L 17.484375 54.6875 
L 17.484375 21.921875 
Q 17.484375 14.15625 20.5 10.265625 
Q 23.53125 6.390625 29.59375 6.390625 
Q 36.859375 6.390625 41.078125 11.03125 
Q 45.3125 15.671875 45.3125 23.6875 
L 45.3125 54.6875 
L 54.296875 54.6875 
L 54.296875 0 
L 45.3125 0 
L 45.3125 8.40625 
Q 42.046875 3.421875 37.71875 1 
Q 33.40625 -1.421875 27.6875 -1.421875 
Q 18.265625 -1.421875 13.375 4.4375 
Q 8.5 10.296875 8.5 21.578125 
z
M 31.109375 56 
z
" id="DejaVuSans-117"/>
     <path d="M 52 44.1875 
Q 55.375 50.25 60.0625 53.125 
Q 64.75 56 71.09375 56 
Q 79.640625 56 84.28125 50.015625 
Q 88.921875 44.046875 88.921875 33.015625 
L 88.921875 0 
L 79.890625 0 
L 79.890625 32.71875 
Q 79.890625 40.578125 77.09375 44.375 
Q 74.3125 48.1875 68.609375 48.1875 
Q 61.625 48.1875 57.5625 43.546875 
Q 53.515625 38.921875 53.515625 30.90625 
L 53.515625 0 
L 44.484375 0 
L 44.484375 32.71875 
Q 44.484375 40.625 41.703125 44.40625 
Q 38.921875 48.1875 33.109375 48.1875 
Q 26.21875 48.1875 22.15625 43.53125 
Q 18.109375 38.875 18.109375 30.90625 
L 18.109375 0 
L 9.078125 0 
L 9.078125 54.6875 
L 18.109375 54.6875 
L 18.109375 46.1875 
Q 21.1875 51.21875 25.484375 53.609375 
Q 29.78125 56 35.6875 56 
Q 41.65625 56 45.828125 52.96875 
Q 50 49.953125 52 44.1875 
z
" id="DejaVuSans-109"/>
     <path id="DejaVuSans-32"/>
     <path d="M 10.59375 45.40625 
L 73.1875 45.40625 
L 73.1875 37.203125 
L 10.59375 37.203125 
z
M 10.59375 25.484375 
L 73.1875 25.484375 
L 73.1875 17.1875 
L 10.59375 17.1875 
z
" id="DejaVuSans-61"/>
     <path d="M 10.6875 12.40625 
L 21 12.40625 
L 21 0 
L 10.6875 0 
z
" id="DejaVuSans-46"/>
     <path d="M 10.984375 1.515625 
L 10.984375 10.5 
Q 14.703125 8.734375 18.5 7.8125 
Q 22.3125 6.890625 25.984375 6.890625 
Q 35.75 6.890625 40.890625 13.453125 
Q 46.046875 20.015625 46.78125 33.40625 
Q 43.953125 29.203125 39.59375 26.953125 
Q 35.25 24.703125 29.984375 24.703125 
Q 19.046875 24.703125 12.671875 31.3125 
Q 6.296875 37.9375 6.296875 49.421875 
Q 6.296875 60.640625 12.9375 67.421875 
Q 19.578125 74.21875 30.609375 74.21875 
Q 43.265625 74.21875 49.921875 64.515625 
Q 56.59375 54.828125 56.59375 36.375 
Q 56.59375 19.140625 48.40625 8.859375 
Q 40.234375 -1.421875 26.421875 -1.421875 
Q 22.703125 -1.421875 18.890625 -0.6875 
Q 15.09375 0.046875 10.984375 1.515625 
z
M 30.609375 32.421875 
Q 37.25 32.421875 41.125 36.953125 
Q 45.015625 41.5 45.015625 49.421875 
Q 45.015625 57.28125 41.125 61.84375 
Q 37.25 66.40625 30.609375 66.40625 
Q 23.96875 66.40625 20.09375 61.84375 
Q 16.21875 57.28125 16.21875 49.421875 
Q 16.21875 41.5 20.09375 36.953125 
Q 23.96875 32.421875 30.609375 32.421875 
z
" id="DejaVuSans-57"/>
     <path d="M 40.578125 39.3125 
Q 47.65625 37.796875 51.625 33 
Q 55.609375 28.21875 55.609375 21.1875 
Q 55.609375 10.40625 48.1875 4.484375 
Q 40.765625 -1.421875 27.09375 -1.421875 
Q 22.515625 -1.421875 17.65625 -0.515625 
Q 12.796875 0.390625 7.625 2.203125 
L 7.625 11.71875 
Q 11.71875 9.328125 16.59375 8.109375 
Q 21.484375 6.890625 26.8125 6.890625 
Q 36.078125 6.890625 40.9375 10.546875 
Q 45.796875 14.203125 45.796875 21.1875 
Q 45.796875 27.640625 41.28125 31.265625 
Q 36.765625 34.90625 28.71875 34.90625 
L 20.21875 34.90625 
L 20.21875 43.015625 
L 29.109375 43.015625 
Q 36.375 43.015625 40.234375 45.921875 
Q 44.09375 48.828125 44.09375 54.296875 
Q 44.09375 59.90625 40.109375 62.90625 
Q 36.140625 65.921875 28.71875 65.921875 
Q 24.65625 65.921875 20.015625 65.03125 
Q 15.375 64.15625 9.8125 62.3125 
L 9.8125 71.09375 
Q 15.4375 72.65625 20.34375 73.4375 
Q 25.25 74.21875 29.59375 74.21875 
Q 40.828125 74.21875 47.359375 69.109375 
Q 53.90625 64.015625 53.90625 55.328125 
Q 53.90625 49.265625 50.4375 45.09375 
Q 46.96875 40.921875 40.578125 39.3125 
z
" id="DejaVuSans-51"/>
    </defs>
    <g style="fill:#262626;" transform="translate(172.743125 146.65225)scale(0.24 -0.24)">
     <use xlink:href="#DejaVuSans-82"/>
     <use x="67.232422" xlink:href="#DejaVuSans-97"/>
     <use x="128.511719" xlink:href="#DejaVuSans-110"/>
     <use x="191.890625" xlink:href="#DejaVuSans-107"/>
     <use x="249.800781" xlink:href="#DejaVuSans-115"/>
     <use x="301.900391" xlink:href="#DejaVuSans-117"/>
     <use x="365.279297" xlink:href="#DejaVuSans-109"/>
     <use x="462.691406" xlink:href="#DejaVuSans-32"/>
     <use x="494.478516" xlink:href="#DejaVuSans-112"/>
     <use x="557.955078" xlink:href="#DejaVuSans-32"/>
     <use x="589.742188" xlink:href="#DejaVuSans-61"/>
     <use x="673.53125" xlink:href="#DejaVuSans-32"/>
     <use x="705.318359" xlink:href="#DejaVuSans-54"/>
     <use x="768.941406" xlink:href="#DejaVuSans-46"/>
     <use x="800.728516" xlink:href="#DejaVuSans-57"/>
     <use x="864.351562" xlink:href="#DejaVuSans-54"/>
     <use x="927.974609" xlink:href="#DejaVuSans-56"/>
     <use x="991.597656" xlink:href="#DejaVuSans-101"/>
     <use x="1053.121094" xlink:href="#DejaVuSans-45"/>
     <use x="1089.205078" xlink:href="#DejaVuSans-49"/>
     <use x="1152.828125" xlink:href="#DejaVuSans-51"/>
    </g>
   </g>
   <g id="text_15">
    <!-- Ranksum p = 6.244e-02 -->
    <g style="fill:#262626;" transform="translate(358.743125 86.04425)scale(0.24 -0.24)">
     <use xlink:href="#DejaVuSans-82"/>
     <use x="67.232422" xlink:href="#DejaVuSans-97"/>
     <use x="128.511719" xlink:href="#DejaVuSans-110"/>
     <use x="191.890625" xlink:href="#DejaVuSans-107"/>
     <use x="249.800781" xlink:href="#DejaVuSans-115"/>
     <use x="301.900391" xlink:href="#DejaVuSans-117"/>
     <use x="365.279297" xlink:href="#DejaVuSans-109"/>
     <use x="462.691406" xlink:href="#DejaVuSans-32"/>
     <use x="494.478516" xlink:href="#DejaVuSans-112"/>
     <use x="557.955078" xlink:href="#DejaVuSans-32"/>
     <use x="589.742188" xlink:href="#DejaVuSans-61"/>
     <use x="673.53125" xlink:href="#DejaVuSans-32"/>
     <use x="705.318359" xlink:href="#DejaVuSans-54"/>
     <use x="768.941406" xlink:href="#DejaVuSans-46"/>
     <use x="800.728516" xlink:href="#DejaVuSans-50"/>
     <use x="864.351562" xlink:href="#DejaVuSans-52"/>
     <use x="927.974609" xlink:href="#DejaVuSans-52"/>
     <use x="991.597656" xlink:href="#DejaVuSans-101"/>
     <use x="1053.121094" xlink:href="#DejaVuSans-45"/>
     <use x="1089.205078" xlink:href="#DejaVuSans-48"/>
     <use x="1152.828125" xlink:href="#DejaVuSans-50"/>
    </g>
   </g>
   <g id="text_16">
    <!-- Ranksum p = 4.485e-01 -->
    <defs>
     <path d="M 10.796875 72.90625 
L 49.515625 72.90625 
L 49.515625 64.59375 
L 19.828125 64.59375 
L 19.828125 46.734375 
Q 21.96875 47.46875 24.109375 47.828125 
Q 26.265625 48.1875 28.421875 48.1875 
Q 40.625 48.1875 47.75 41.5 
Q 54.890625 34.8125 54.890625 23.390625 
Q 54.890625 11.625 47.5625 5.09375 
Q 40.234375 -1.421875 26.90625 -1.421875 
Q 22.3125 -1.421875 17.546875 -0.640625 
Q 12.796875 0.140625 7.71875 1.703125 
L 7.71875 11.625 
Q 12.109375 9.234375 16.796875 8.0625 
Q 21.484375 6.890625 26.703125 6.890625 
Q 35.15625 6.890625 40.078125 11.328125 
Q 45.015625 15.765625 45.015625 23.390625 
Q 45.015625 31 40.078125 35.4375 
Q 35.15625 39.890625 26.703125 39.890625 
Q 22.75 39.890625 18.8125 39.015625 
Q 14.890625 38.140625 10.796875 36.28125 
z
" id="DejaVuSans-53"/>
    </defs>
    <g style="fill:#262626;" transform="translate(265.743125 25.43625)scale(0.24 -0.24)">
     <use xlink:href="#DejaVuSans-82"/>
     <use x="67.232422" xlink:href="#DejaVuSans-97"/>
     <use x="128.511719" xlink:href="#DejaVuSans-110"/>
     <use x="191.890625" xlink:href="#DejaVuSans-107"/>
     <use x="249.800781" xlink:href="#DejaVuSans-115"/>
     <use x="301.900391" xlink:href="#DejaVuSans-117"/>
     <use x="365.279297" xlink:href="#DejaVuSans-109"/>
     <use x="462.691406" xlink:href="#DejaVuSans-32"/>
     <use x="494.478516" xlink:href="#DejaVuSans-112"/>
     <use x="557.955078" xlink:href="#DejaVuSans-32"/>
     <use x="589.742188" xlink:href="#DejaVuSans-61"/>
     <use x="673.53125" xlink:href="#DejaVuSans-32"/>
     <use x="705.318359" xlink:href="#DejaVuSans-52"/>
     <use x="768.941406" xlink:href="#DejaVuSans-46"/>
     <use x="800.728516" xlink:href="#DejaVuSans-52"/>
     <use x="864.351562" xlink:href="#DejaVuSans-56"/>
     <use x="927.974609" xlink:href="#DejaVuSans-53"/>
     <use x="991.597656" xlink:href="#DejaVuSans-101"/>
     <use x="1053.121094" xlink:href="#DejaVuSans-45"/>
     <use x="1089.205078" xlink:href="#DejaVuSans-48"/>
     <use x="1152.828125" xlink:href="#DejaVuSans-49"/>
    </g>
   </g>
  </g>
 </g>
 <defs>
  <clipPath id="p21f6d90833">
   <rect height="554.4" width="558" x="132.715625" y="180.3635"/>
  </clipPath>
 </defs>
</svg>
