<?xml version="1.0" encoding="utf-8" standalone="no"?>
<!DOCTYPE svg PUBLIC "-//W3C//DTD SVG 1.1//EN"
  "http://www.w3.org/Graphics/SVG/1.1/DTD/svg11.dtd">
<!-- Created with matplotlib (https://matplotlib.org/) -->
<svg height="852.24475pt" version="1.1" viewBox="0 0 697.915625 852.24475" width="697.915625pt" xmlns="http://www.w3.org/2000/svg" xmlns:xlink="http://www.w3.org/1999/xlink">
 <defs>
  <style type="text/css">
*{stroke-linecap:butt;stroke-linejoin:round;}
  </style>
 </defs>
 <g id="figure_1">
  <g id="patch_1">
   <path d="M 0 852.24475 
L 697.915625 852.24475 
L 697.915625 0 
L 0 0 
z
" style="fill:#ffffff;"/>
  </g>
  <g id="axes_1">
   <g id="patch_2">
    <path d="M 132.715625 734.7635 
L 690.715625 734.7635 
L 690.715625 180.3635 
L 132.715625 180.3635 
z
" style="fill:#ffffff;"/>
   </g>
   <g id="matplotlib.axis_1">
    <g id="xtick_1">
     <g id="line2d_1">
      <defs>
       <path d="M 0 0 
L 0 6 
" id="m4f0e8935f1" style="stroke:#262626;stroke-width:1.25;"/>
      </defs>
      <g>
       <use style="fill:#262626;stroke:#262626;stroke-width:1.25;" x="225.715625" xlink:href="#m4f0e8935f1" y="734.7635"/>
      </g>
     </g>
     <g id="text_1">
      <!-- Gs -->
      <defs>
       <path d="M 59.515625 10.40625 
L 59.515625 29.984375 
L 43.40625 29.984375 
L 43.40625 38.09375 
L 69.28125 38.09375 
L 69.28125 6.78125 
Q 63.578125 2.734375 56.6875 0.65625 
Q 49.8125 -1.421875 42 -1.421875 
Q 24.90625 -1.421875 15.25 8.5625 
Q 5.609375 18.5625 5.609375 36.375 
Q 5.609375 54.25 15.25 64.234375 
Q 24.90625 74.21875 42 74.21875 
Q 49.125 74.21875 55.546875 72.453125 
Q 61.96875 70.703125 67.390625 67.28125 
L 67.390625 56.78125 
Q 61.921875 61.421875 55.765625 63.765625 
Q 49.609375 66.109375 42.828125 66.109375 
Q 29.4375 66.109375 22.71875 58.640625 
Q 16.015625 51.171875 16.015625 36.375 
Q 16.015625 21.625 22.71875 14.15625 
Q 29.4375 6.6875 42.828125 6.6875 
Q 48.046875 6.6875 52.140625 7.59375 
Q 56.25 8.5 59.515625 10.40625 
z
" id="DejaVuSans-71"/>
       <path d="M 44.28125 53.078125 
L 44.28125 44.578125 
Q 40.484375 46.53125 36.375 47.5 
Q 32.28125 48.484375 27.875 48.484375 
Q 21.1875 48.484375 17.84375 46.4375 
Q 14.5 44.390625 14.5 40.28125 
Q 14.5 37.15625 16.890625 35.375 
Q 19.28125 33.59375 26.515625 31.984375 
L 29.59375 31.296875 
Q 39.15625 29.25 43.1875 25.515625 
Q 47.21875 21.78125 47.21875 15.09375 
Q 47.21875 7.46875 41.1875 3.015625 
Q 35.15625 -1.421875 24.609375 -1.421875 
Q 20.21875 -1.421875 15.453125 -0.5625 
Q 10.6875 0.296875 5.421875 2 
L 5.421875 11.28125 
Q 10.40625 8.6875 15.234375 7.390625 
Q 20.0625 6.109375 24.8125 6.109375 
Q 31.15625 6.109375 34.5625 8.28125 
Q 37.984375 10.453125 37.984375 14.40625 
Q 37.984375 18.0625 35.515625 20.015625 
Q 33.0625 21.96875 24.703125 23.78125 
L 21.578125 24.515625 
Q 13.234375 26.265625 9.515625 29.90625 
Q 5.8125 33.546875 5.8125 39.890625 
Q 5.8125 47.609375 11.28125 51.796875 
Q 16.75 56 26.8125 56 
Q 31.78125 56 36.171875 55.265625 
Q 40.578125 54.546875 44.28125 53.078125 
z
" id="DejaVuSans-115"/>
      </defs>
      <g style="fill:#262626;" transform="translate(193.321094 782.255688)scale(0.5 -0.5)">
       <use xlink:href="#DejaVuSans-71"/>
       <use x="77.490234" xlink:href="#DejaVuSans-115"/>
      </g>
     </g>
    </g>
    <g id="xtick_2">
     <g id="line2d_2">
      <g>
       <use style="fill:#262626;stroke:#262626;stroke-width:1.25;" x="411.715625" xlink:href="#m4f0e8935f1" y="734.7635"/>
      </g>
     </g>
     <g id="text_2">
      <!-- Gio -->
      <defs>
       <path d="M 9.421875 54.6875 
L 18.40625 54.6875 
L 18.40625 0 
L 9.421875 0 
z
M 9.421875 75.984375 
L 18.40625 75.984375 
L 18.40625 64.59375 
L 9.421875 64.59375 
z
" id="DejaVuSans-105"/>
       <path d="M 30.609375 48.390625 
Q 23.390625 48.390625 19.1875 42.75 
Q 14.984375 37.109375 14.984375 27.296875 
Q 14.984375 17.484375 19.15625 11.84375 
Q 23.34375 6.203125 30.609375 6.203125 
Q 37.796875 6.203125 41.984375 11.859375 
Q 46.1875 17.53125 46.1875 27.296875 
Q 46.1875 37.015625 41.984375 42.703125 
Q 37.796875 48.390625 30.609375 48.390625 
z
M 30.609375 56 
Q 42.328125 56 49.015625 48.375 
Q 55.71875 40.765625 55.71875 27.296875 
Q 55.71875 13.875 49.015625 6.21875 
Q 42.328125 -1.421875 30.609375 -1.421875 
Q 18.84375 -1.421875 12.171875 6.21875 
Q 5.515625 13.875 5.515625 27.296875 
Q 5.515625 40.765625 12.171875 48.375 
Q 18.84375 56 30.609375 56 
z
" id="DejaVuSans-111"/>
      </defs>
      <g style="fill:#262626;" transform="translate(370.102344 782.255688)scale(0.5 -0.5)">
       <use xlink:href="#DejaVuSans-71"/>
       <use x="77.490234" xlink:href="#DejaVuSans-105"/>
       <use x="105.273438" xlink:href="#DejaVuSans-111"/>
      </g>
     </g>
    </g>
    <g id="xtick_3">
     <g id="line2d_3">
      <g>
       <use style="fill:#262626;stroke:#262626;stroke-width:1.25;" x="597.715625" xlink:href="#m4f0e8935f1" y="734.7635"/>
      </g>
     </g>
     <g id="text_3">
      <!-- Gq11 -->
      <defs>
       <path d="M 14.796875 27.296875 
Q 14.796875 17.390625 18.875 11.75 
Q 22.953125 6.109375 30.078125 6.109375 
Q 37.203125 6.109375 41.296875 11.75 
Q 45.40625 17.390625 45.40625 27.296875 
Q 45.40625 37.203125 41.296875 42.84375 
Q 37.203125 48.484375 30.078125 48.484375 
Q 22.953125 48.484375 18.875 42.84375 
Q 14.796875 37.203125 14.796875 27.296875 
z
M 45.40625 8.203125 
Q 42.578125 3.328125 38.25 0.953125 
Q 33.9375 -1.421875 27.875 -1.421875 
Q 17.96875 -1.421875 11.734375 6.484375 
Q 5.515625 14.40625 5.515625 27.296875 
Q 5.515625 40.1875 11.734375 48.09375 
Q 17.96875 56 27.875 56 
Q 33.9375 56 38.25 53.625 
Q 42.578125 51.265625 45.40625 46.390625 
L 45.40625 54.6875 
L 54.390625 54.6875 
L 54.390625 -20.796875 
L 45.40625 -20.796875 
z
" id="DejaVuSans-113"/>
       <path d="M 12.40625 8.296875 
L 28.515625 8.296875 
L 28.515625 63.921875 
L 10.984375 60.40625 
L 10.984375 69.390625 
L 28.421875 72.90625 
L 38.28125 72.90625 
L 38.28125 8.296875 
L 54.390625 8.296875 
L 54.390625 0 
L 12.40625 0 
z
" id="DejaVuSans-49"/>
      </defs>
      <g style="fill:#262626;" transform="translate(530.660938 782.255688)scale(0.5 -0.5)">
       <use xlink:href="#DejaVuSans-71"/>
       <use x="77.490234" xlink:href="#DejaVuSans-113"/>
       <use x="140.966797" xlink:href="#DejaVuSans-49"/>
       <use x="204.589844" xlink:href="#DejaVuSans-49"/>
      </g>
     </g>
    </g>
    <g id="text_4">
     <!-- G-protein -->
     <defs>
      <path d="M 4.890625 31.390625 
L 31.203125 31.390625 
L 31.203125 23.390625 
L 4.890625 23.390625 
z
" id="DejaVuSans-45"/>
      <path d="M 18.109375 8.203125 
L 18.109375 -20.796875 
L 9.078125 -20.796875 
L 9.078125 54.6875 
L 18.109375 54.6875 
L 18.109375 46.390625 
Q 20.953125 51.265625 25.265625 53.625 
Q 29.59375 56 35.59375 56 
Q 45.5625 56 51.78125 48.09375 
Q 58.015625 40.1875 58.015625 27.296875 
Q 58.015625 14.40625 51.78125 6.484375 
Q 45.5625 -1.421875 35.59375 -1.421875 
Q 29.59375 -1.421875 25.265625 0.953125 
Q 20.953125 3.328125 18.109375 8.203125 
z
M 48.6875 27.296875 
Q 48.6875 37.203125 44.609375 42.84375 
Q 40.53125 48.484375 33.40625 48.484375 
Q 26.265625 48.484375 22.1875 42.84375 
Q 18.109375 37.203125 18.109375 27.296875 
Q 18.109375 17.390625 22.1875 11.75 
Q 26.265625 6.109375 33.40625 6.109375 
Q 40.53125 6.109375 44.609375 11.75 
Q 48.6875 17.390625 48.6875 27.296875 
z
" id="DejaVuSans-112"/>
      <path d="M 41.109375 46.296875 
Q 39.59375 47.171875 37.8125 47.578125 
Q 36.03125 48 33.890625 48 
Q 26.265625 48 22.1875 43.046875 
Q 18.109375 38.09375 18.109375 28.8125 
L 18.109375 0 
L 9.078125 0 
L 9.078125 54.6875 
L 18.109375 54.6875 
L 18.109375 46.1875 
Q 20.953125 51.171875 25.484375 53.578125 
Q 30.03125 56 36.53125 56 
Q 37.453125 56 38.578125 55.875 
Q 39.703125 55.765625 41.0625 55.515625 
z
" id="DejaVuSans-114"/>
      <path d="M 18.3125 70.21875 
L 18.3125 54.6875 
L 36.8125 54.6875 
L 36.8125 47.703125 
L 18.3125 47.703125 
L 18.3125 18.015625 
Q 18.3125 11.328125 20.140625 9.421875 
Q 21.96875 7.515625 27.59375 7.515625 
L 36.8125 7.515625 
L 36.8125 0 
L 27.59375 0 
Q 17.1875 0 13.234375 3.875 
Q 9.28125 7.765625 9.28125 18.015625 
L 9.28125 47.703125 
L 2.6875 47.703125 
L 2.6875 54.6875 
L 9.28125 54.6875 
L 9.28125 70.21875 
z
" id="DejaVuSans-116"/>
      <path d="M 56.203125 29.59375 
L 56.203125 25.203125 
L 14.890625 25.203125 
Q 15.484375 15.921875 20.484375 11.0625 
Q 25.484375 6.203125 34.421875 6.203125 
Q 39.59375 6.203125 44.453125 7.46875 
Q 49.3125 8.734375 54.109375 11.28125 
L 54.109375 2.78125 
Q 49.265625 0.734375 44.1875 -0.34375 
Q 39.109375 -1.421875 33.890625 -1.421875 
Q 20.796875 -1.421875 13.15625 6.1875 
Q 5.515625 13.8125 5.515625 26.8125 
Q 5.515625 40.234375 12.765625 48.109375 
Q 20.015625 56 32.328125 56 
Q 43.359375 56 49.78125 48.890625 
Q 56.203125 41.796875 56.203125 29.59375 
z
M 47.21875 32.234375 
Q 47.125 39.59375 43.09375 43.984375 
Q 39.0625 48.390625 32.421875 48.390625 
Q 24.90625 48.390625 20.390625 44.140625 
Q 15.875 39.890625 15.1875 32.171875 
z
" id="DejaVuSans-101"/>
      <path d="M 54.890625 33.015625 
L 54.890625 0 
L 45.90625 0 
L 45.90625 32.71875 
Q 45.90625 40.484375 42.875 44.328125 
Q 39.84375 48.1875 33.796875 48.1875 
Q 26.515625 48.1875 22.3125 43.546875 
Q 18.109375 38.921875 18.109375 30.90625 
L 18.109375 0 
L 9.078125 0 
L 9.078125 54.6875 
L 18.109375 54.6875 
L 18.109375 46.1875 
Q 21.34375 51.125 25.703125 53.5625 
Q 30.078125 56 35.796875 56 
Q 45.21875 56 50.046875 50.171875 
Q 54.890625 44.34375 54.890625 33.015625 
z
" id="DejaVuSans-110"/>
     </defs>
     <g style="fill:#262626;" transform="translate(294.469531 834.646313)scale(0.5 -0.5)">
      <use xlink:href="#DejaVuSans-71"/>
      <use x="77.490234" xlink:href="#DejaVuSans-45"/>
      <use x="113.574219" xlink:href="#DejaVuSans-112"/>
      <use x="177.050781" xlink:href="#DejaVuSans-114"/>
      <use x="215.914062" xlink:href="#DejaVuSans-111"/>
      <use x="277.095703" xlink:href="#DejaVuSans-116"/>
      <use x="316.304688" xlink:href="#DejaVuSans-101"/>
      <use x="377.828125" xlink:href="#DejaVuSans-105"/>
      <use x="405.611328" xlink:href="#DejaVuSans-110"/>
     </g>
    </g>
   </g>
   <g id="matplotlib.axis_2">
    <g id="ytick_1">
     <g id="line2d_4">
      <defs>
       <path d="M 0 0 
L -6 0 
" id="m1a711574e0" style="stroke:#262626;stroke-width:1.25;"/>
      </defs>
      <g>
       <use style="fill:#262626;stroke:#262626;stroke-width:1.25;" x="132.715625" xlink:href="#m1a711574e0" y="684.3635"/>
      </g>
     </g>
     <g id="text_5">
      <!-- 0 -->
      <defs>
       <path d="M 31.78125 66.40625 
Q 24.171875 66.40625 20.328125 58.90625 
Q 16.5 51.421875 16.5 36.375 
Q 16.5 21.390625 20.328125 13.890625 
Q 24.171875 6.390625 31.78125 6.390625 
Q 39.453125 6.390625 43.28125 13.890625 
Q 47.125 21.390625 47.125 36.375 
Q 47.125 51.421875 43.28125 58.90625 
Q 39.453125 66.40625 31.78125 66.40625 
z
M 31.78125 74.21875 
Q 44.046875 74.21875 50.515625 64.515625 
Q 56.984375 54.828125 56.984375 36.375 
Q 56.984375 17.96875 50.515625 8.265625 
Q 44.046875 -1.421875 31.78125 -1.421875 
Q 19.53125 -1.421875 13.0625 8.265625 
Q 6.59375 17.96875 6.59375 36.375 
Q 6.59375 54.828125 13.0625 64.515625 
Q 19.53125 74.21875 31.78125 74.21875 
z
" id="DejaVuSans-48"/>
      </defs>
      <g style="fill:#262626;" transform="translate(91.403125 703.359594)scale(0.5 -0.5)">
       <use xlink:href="#DejaVuSans-48"/>
      </g>
     </g>
    </g>
    <g id="ytick_2">
     <g id="line2d_5">
      <g>
       <use style="fill:#262626;stroke:#262626;stroke-width:1.25;" x="132.715625" xlink:href="#m1a711574e0" y="617.1635"/>
      </g>
     </g>
     <g id="text_6">
      <!-- 4 -->
      <defs>
       <path d="M 37.796875 64.3125 
L 12.890625 25.390625 
L 37.796875 25.390625 
z
M 35.203125 72.90625 
L 47.609375 72.90625 
L 47.609375 25.390625 
L 58.015625 25.390625 
L 58.015625 17.1875 
L 47.609375 17.1875 
L 47.609375 0 
L 37.796875 0 
L 37.796875 17.1875 
L 4.890625 17.1875 
L 4.890625 26.703125 
z
" id="DejaVuSans-52"/>
      </defs>
      <g style="fill:#262626;" transform="translate(91.403125 636.159594)scale(0.5 -0.5)">
       <use xlink:href="#DejaVuSans-52"/>
      </g>
     </g>
    </g>
    <g id="ytick_3">
     <g id="line2d_6">
      <g>
       <use style="fill:#262626;stroke:#262626;stroke-width:1.25;" x="132.715625" xlink:href="#m1a711574e0" y="549.9635"/>
      </g>
     </g>
     <g id="text_7">
      <!-- 8 -->
      <defs>
       <path d="M 31.78125 34.625 
Q 24.75 34.625 20.71875 30.859375 
Q 16.703125 27.09375 16.703125 20.515625 
Q 16.703125 13.921875 20.71875 10.15625 
Q 24.75 6.390625 31.78125 6.390625 
Q 38.8125 6.390625 42.859375 10.171875 
Q 46.921875 13.96875 46.921875 20.515625 
Q 46.921875 27.09375 42.890625 30.859375 
Q 38.875 34.625 31.78125 34.625 
z
M 21.921875 38.8125 
Q 15.578125 40.375 12.03125 44.71875 
Q 8.5 49.078125 8.5 55.328125 
Q 8.5 64.0625 14.71875 69.140625 
Q 20.953125 74.21875 31.78125 74.21875 
Q 42.671875 74.21875 48.875 69.140625 
Q 55.078125 64.0625 55.078125 55.328125 
Q 55.078125 49.078125 51.53125 44.71875 
Q 48 40.375 41.703125 38.8125 
Q 48.828125 37.15625 52.796875 32.3125 
Q 56.78125 27.484375 56.78125 20.515625 
Q 56.78125 9.90625 50.3125 4.234375 
Q 43.84375 -1.421875 31.78125 -1.421875 
Q 19.734375 -1.421875 13.25 4.234375 
Q 6.78125 9.90625 6.78125 20.515625 
Q 6.78125 27.484375 10.78125 32.3125 
Q 14.796875 37.15625 21.921875 38.8125 
z
M 18.3125 54.390625 
Q 18.3125 48.734375 21.84375 45.5625 
Q 25.390625 42.390625 31.78125 42.390625 
Q 38.140625 42.390625 41.71875 45.5625 
Q 45.3125 48.734375 45.3125 54.390625 
Q 45.3125 60.0625 41.71875 63.234375 
Q 38.140625 66.40625 31.78125 66.40625 
Q 25.390625 66.40625 21.84375 63.234375 
Q 18.3125 60.0625 18.3125 54.390625 
z
" id="DejaVuSans-56"/>
      </defs>
      <g style="fill:#262626;" transform="translate(91.403125 568.959594)scale(0.5 -0.5)">
       <use xlink:href="#DejaVuSans-56"/>
      </g>
     </g>
    </g>
    <g id="ytick_4">
     <g id="line2d_7">
      <g>
       <use style="fill:#262626;stroke:#262626;stroke-width:1.25;" x="132.715625" xlink:href="#m1a711574e0" y="482.7635"/>
      </g>
     </g>
     <g id="text_8">
      <!-- 12 -->
      <defs>
       <path d="M 19.1875 8.296875 
L 53.609375 8.296875 
L 53.609375 0 
L 7.328125 0 
L 7.328125 8.296875 
Q 12.9375 14.109375 22.625 23.890625 
Q 32.328125 33.6875 34.8125 36.53125 
Q 39.546875 41.84375 41.421875 45.53125 
Q 43.3125 49.21875 43.3125 52.78125 
Q 43.3125 58.59375 39.234375 62.25 
Q 35.15625 65.921875 28.609375 65.921875 
Q 23.96875 65.921875 18.8125 64.3125 
Q 13.671875 62.703125 7.8125 59.421875 
L 7.8125 69.390625 
Q 13.765625 71.78125 18.9375 73 
Q 24.125 74.21875 28.421875 74.21875 
Q 39.75 74.21875 46.484375 68.546875 
Q 53.21875 62.890625 53.21875 53.421875 
Q 53.21875 48.921875 51.53125 44.890625 
Q 49.859375 40.875 45.40625 35.40625 
Q 44.1875 33.984375 37.640625 27.21875 
Q 31.109375 20.453125 19.1875 8.296875 
z
" id="DejaVuSans-50"/>
      </defs>
      <g style="fill:#262626;" transform="translate(59.590625 501.759594)scale(0.5 -0.5)">
       <use xlink:href="#DejaVuSans-49"/>
       <use x="63.623047" xlink:href="#DejaVuSans-50"/>
      </g>
     </g>
    </g>
    <g id="ytick_5">
     <g id="line2d_8">
      <g>
       <use style="fill:#262626;stroke:#262626;stroke-width:1.25;" x="132.715625" xlink:href="#m1a711574e0" y="415.5635"/>
      </g>
     </g>
     <g id="text_9">
      <!-- 16 -->
      <defs>
       <path d="M 33.015625 40.375 
Q 26.375 40.375 22.484375 35.828125 
Q 18.609375 31.296875 18.609375 23.390625 
Q 18.609375 15.53125 22.484375 10.953125 
Q 26.375 6.390625 33.015625 6.390625 
Q 39.65625 6.390625 43.53125 10.953125 
Q 47.40625 15.53125 47.40625 23.390625 
Q 47.40625 31.296875 43.53125 35.828125 
Q 39.65625 40.375 33.015625 40.375 
z
M 52.59375 71.296875 
L 52.59375 62.3125 
Q 48.875 64.0625 45.09375 64.984375 
Q 41.3125 65.921875 37.59375 65.921875 
Q 27.828125 65.921875 22.671875 59.328125 
Q 17.53125 52.734375 16.796875 39.40625 
Q 19.671875 43.65625 24.015625 45.921875 
Q 28.375 48.1875 33.59375 48.1875 
Q 44.578125 48.1875 50.953125 41.515625 
Q 57.328125 34.859375 57.328125 23.390625 
Q 57.328125 12.15625 50.6875 5.359375 
Q 44.046875 -1.421875 33.015625 -1.421875 
Q 20.359375 -1.421875 13.671875 8.265625 
Q 6.984375 17.96875 6.984375 36.375 
Q 6.984375 53.65625 15.1875 63.9375 
Q 23.390625 74.21875 37.203125 74.21875 
Q 40.921875 74.21875 44.703125 73.484375 
Q 48.484375 72.75 52.59375 71.296875 
z
" id="DejaVuSans-54"/>
      </defs>
      <g style="fill:#262626;" transform="translate(59.590625 434.559594)scale(0.5 -0.5)">
       <use xlink:href="#DejaVuSans-49"/>
       <use x="63.623047" xlink:href="#DejaVuSans-54"/>
      </g>
     </g>
    </g>
    <g id="ytick_6">
     <g id="line2d_9">
      <g>
       <use style="fill:#262626;stroke:#262626;stroke-width:1.25;" x="132.715625" xlink:href="#m1a711574e0" y="348.3635"/>
      </g>
     </g>
     <g id="text_10">
      <!-- 20 -->
      <g style="fill:#262626;" transform="translate(59.590625 367.359594)scale(0.5 -0.5)">
       <use xlink:href="#DejaVuSans-50"/>
       <use x="63.623047" xlink:href="#DejaVuSans-48"/>
      </g>
     </g>
    </g>
    <g id="ytick_7">
     <g id="line2d_10">
      <g>
       <use style="fill:#262626;stroke:#262626;stroke-width:1.25;" x="132.715625" xlink:href="#m1a711574e0" y="281.1635"/>
      </g>
     </g>
     <g id="text_11">
      <!-- 24 -->
      <g style="fill:#262626;" transform="translate(59.590625 300.159594)scale(0.5 -0.5)">
       <use xlink:href="#DejaVuSans-50"/>
       <use x="63.623047" xlink:href="#DejaVuSans-52"/>
      </g>
     </g>
    </g>
    <g id="ytick_8">
     <g id="line2d_11">
      <g>
       <use style="fill:#262626;stroke:#262626;stroke-width:1.25;" x="132.715625" xlink:href="#m1a711574e0" y="213.9635"/>
      </g>
     </g>
     <g id="text_12">
      <!-- 28 -->
      <g style="fill:#262626;" transform="translate(59.590625 232.959594)scale(0.5 -0.5)">
       <use xlink:href="#DejaVuSans-50"/>
       <use x="63.623047" xlink:href="#DejaVuSans-56"/>
      </g>
     </g>
    </g>
    <g id="text_13">
     <!-- RMSD -->
     <defs>
      <path d="M 44.390625 34.1875 
Q 47.5625 33.109375 50.5625 29.59375 
Q 53.5625 26.078125 56.59375 19.921875 
L 66.609375 0 
L 56 0 
L 46.6875 18.703125 
Q 43.0625 26.03125 39.671875 28.421875 
Q 36.28125 30.8125 30.421875 30.8125 
L 19.671875 30.8125 
L 19.671875 0 
L 9.8125 0 
L 9.8125 72.90625 
L 32.078125 72.90625 
Q 44.578125 72.90625 50.734375 67.671875 
Q 56.890625 62.453125 56.890625 51.90625 
Q 56.890625 45.015625 53.6875 40.46875 
Q 50.484375 35.9375 44.390625 34.1875 
z
M 19.671875 64.796875 
L 19.671875 38.921875 
L 32.078125 38.921875 
Q 39.203125 38.921875 42.84375 42.21875 
Q 46.484375 45.515625 46.484375 51.90625 
Q 46.484375 58.296875 42.84375 61.546875 
Q 39.203125 64.796875 32.078125 64.796875 
z
" id="DejaVuSans-82"/>
      <path d="M 9.8125 72.90625 
L 24.515625 72.90625 
L 43.109375 23.296875 
L 61.8125 72.90625 
L 76.515625 72.90625 
L 76.515625 0 
L 66.890625 0 
L 66.890625 64.015625 
L 48.09375 14.015625 
L 38.1875 14.015625 
L 19.390625 64.015625 
L 19.390625 0 
L 9.8125 0 
z
" id="DejaVuSans-77"/>
      <path d="M 53.515625 70.515625 
L 53.515625 60.890625 
Q 47.90625 63.578125 42.921875 64.890625 
Q 37.9375 66.21875 33.296875 66.21875 
Q 25.25 66.21875 20.875 63.09375 
Q 16.5 59.96875 16.5 54.203125 
Q 16.5 49.359375 19.40625 46.890625 
Q 22.3125 44.4375 30.421875 42.921875 
L 36.375 41.703125 
Q 47.40625 39.59375 52.65625 34.296875 
Q 57.90625 29 57.90625 20.125 
Q 57.90625 9.515625 50.796875 4.046875 
Q 43.703125 -1.421875 29.984375 -1.421875 
Q 24.8125 -1.421875 18.96875 -0.25 
Q 13.140625 0.921875 6.890625 3.21875 
L 6.890625 13.375 
Q 12.890625 10.015625 18.65625 8.296875 
Q 24.421875 6.59375 29.984375 6.59375 
Q 38.421875 6.59375 43.015625 9.90625 
Q 47.609375 13.234375 47.609375 19.390625 
Q 47.609375 24.75 44.3125 27.78125 
Q 41.015625 30.8125 33.5 32.328125 
L 27.484375 33.5 
Q 16.453125 35.6875 11.515625 40.375 
Q 6.59375 45.0625 6.59375 53.421875 
Q 6.59375 63.09375 13.40625 68.65625 
Q 20.21875 74.21875 32.171875 74.21875 
Q 37.3125 74.21875 42.625 73.28125 
Q 47.953125 72.359375 53.515625 70.515625 
z
" id="DejaVuSans-83"/>
      <path d="M 19.671875 64.796875 
L 19.671875 8.109375 
L 31.59375 8.109375 
Q 46.6875 8.109375 53.6875 14.9375 
Q 60.6875 21.78125 60.6875 36.53125 
Q 60.6875 51.171875 53.6875 57.984375 
Q 46.6875 64.796875 31.59375 64.796875 
z
M 9.8125 72.90625 
L 30.078125 72.90625 
Q 51.265625 72.90625 61.171875 64.09375 
Q 71.09375 55.28125 71.09375 36.53125 
Q 71.09375 17.671875 61.125 8.828125 
Q 51.171875 0 30.078125 0 
L 9.8125 0 
z
" id="DejaVuSans-68"/>
     </defs>
     <g style="fill:#262626;" transform="translate(45.192187 531.626)rotate(-90)scale(0.5 -0.5)">
      <use xlink:href="#DejaVuSans-82"/>
      <use x="69.482422" xlink:href="#DejaVuSans-77"/>
      <use x="155.761719" xlink:href="#DejaVuSans-83"/>
      <use x="219.238281" xlink:href="#DejaVuSans-68"/>
     </g>
    </g>
   </g>
   <g id="PolyCollection_1">
    <defs>
     <path d="M 226.09628 -157.340857 
L 225.33497 -157.340857 
L 225.187043 -159.239947 
L 224.993107 -161.139036 
L 224.743244 -163.038126 
L 224.426847 -164.937216 
L 224.03303 -166.836306 
L 223.551148 -168.735396 
L 222.971423 -170.634485 
L 222.28562 -172.533575 
L 221.487749 -174.432665 
L 220.574695 -176.331755 
L 219.546739 -178.230845 
L 218.407885 -180.129934 
L 217.165961 -182.029024 
L 215.832444 -183.928114 
L 214.422034 -185.827204 
L 212.952006 -187.726294 
L 211.441397 -189.625384 
L 209.910145 -191.524473 
L 208.378247 -193.423563 
L 206.865056 -195.322653 
L 205.388765 -197.221743 
L 203.966103 -199.120833 
L 202.612213 -201.019922 
L 201.34065 -202.919012 
L 200.163393 -204.818102 
L 199.090759 -206.717192 
L 198.131153 -208.616282 
L 197.2906 -210.515371 
L 196.572109 -212.414461 
L 195.97497 -214.313551 
L 195.49412 -216.212641 
L 195.1198 -218.111731 
L 194.837628 -220.010821 
L 194.62922 -221.90991 
L 194.473387 -223.809 
L 194.347791 -225.70809 
L 194.230915 -227.60718 
L 194.104058 -229.50627 
L 193.953085 -231.405359 
L 193.769669 -233.304449 
L 193.551844 -235.203539 
L 193.30378 -237.102629 
L 193.034844 -239.001719 
L 192.758099 -240.900808 
L 192.488499 -242.799898 
L 192.241058 -244.698988 
L 192.029272 -246.598078 
L 191.863986 -248.497168 
L 191.752849 -250.396258 
L 191.700322 -252.295347 
L 191.70818 -254.194437 
L 191.776313 -256.093527 
L 191.903641 -257.992617 
L 192.088935 -259.891707 
L 192.33141 -261.790796 
L 192.631007 -263.689886 
L 192.988371 -265.588976 
L 193.404591 -267.488066 
L 193.880829 -269.387156 
L 194.417949 -271.286245 
L 195.016265 -273.185335 
L 195.675459 -275.084425 
L 196.394661 -276.983515 
L 197.172648 -278.882605 
L 198.008051 -280.781694 
L 198.89949 -282.680784 
L 199.845535 -284.579874 
L 200.844481 -286.478964 
L 201.893954 -288.378054 
L 202.990434 -290.277144 
L 204.128815 -292.176233 
L 205.30212 -294.075323 
L 206.501483 -295.974413 
L 207.716423 -297.873503 
L 208.935409 -299.772593 
L 210.146623 -301.671682 
L 211.338792 -303.570772 
L 212.501941 -305.469862 
L 213.627948 -307.368952 
L 214.710802 -309.268042 
L 215.74655 -311.167131 
L 216.732969 -313.066221 
L 217.669046 -314.965311 
L 218.554398 -316.864401 
L 219.388735 -318.763491 
L 220.171478 -320.662581 
L 220.901583 -322.56167 
L 221.57757 -324.46076 
L 222.197754 -326.35985 
L 222.76057 -328.25894 
L 223.264958 -330.15803 
L 223.710691 -332.057119 
L 224.09862 -333.956209 
L 224.430775 -335.855299 
L 224.710335 -337.754389 
L 224.941472 -339.653479 
L 225.1291 -341.552568 
L 225.278583 -343.451658 
L 225.395431 -345.350748 
L 226.035819 -345.350748 
L 226.035819 -345.350748 
L 226.152667 -343.451658 
L 226.30215 -341.552568 
L 226.489778 -339.653479 
L 226.720915 -337.754389 
L 227.000475 -335.855299 
L 227.33263 -333.956209 
L 227.720559 -332.057119 
L 228.166292 -330.15803 
L 228.67068 -328.25894 
L 229.233496 -326.35985 
L 229.85368 -324.46076 
L 230.529667 -322.56167 
L 231.259772 -320.662581 
L 232.042515 -318.763491 
L 232.876852 -316.864401 
L 233.762204 -314.965311 
L 234.698281 -313.066221 
L 235.6847 -311.167131 
L 236.720448 -309.268042 
L 237.803302 -307.368952 
L 238.929309 -305.469862 
L 240.092458 -303.570772 
L 241.284627 -301.671682 
L 242.495841 -299.772593 
L 243.714827 -297.873503 
L 244.929767 -295.974413 
L 246.12913 -294.075323 
L 247.302435 -292.176233 
L 248.440816 -290.277144 
L 249.537296 -288.378054 
L 250.586769 -286.478964 
L 251.585715 -284.579874 
L 252.53176 -282.680784 
L 253.423199 -280.781694 
L 254.258602 -278.882605 
L 255.036589 -276.983515 
L 255.755791 -275.084425 
L 256.414985 -273.185335 
L 257.013301 -271.286245 
L 257.550421 -269.387156 
L 258.026659 -267.488066 
L 258.442879 -265.588976 
L 258.800243 -263.689886 
L 259.09984 -261.790796 
L 259.342315 -259.891707 
L 259.527609 -257.992617 
L 259.654937 -256.093527 
L 259.72307 -254.194437 
L 259.730928 -252.295347 
L 259.678401 -250.396258 
L 259.567264 -248.497168 
L 259.401978 -246.598078 
L 259.190192 -244.698988 
L 258.942751 -242.799898 
L 258.673151 -240.900808 
L 258.396406 -239.001719 
L 258.12747 -237.102629 
L 257.879406 -235.203539 
L 257.661581 -233.304449 
L 257.478165 -231.405359 
L 257.327192 -229.50627 
L 257.200335 -227.60718 
L 257.083459 -225.70809 
L 256.957863 -223.809 
L 256.80203 -221.90991 
L 256.593622 -220.010821 
L 256.31145 -218.111731 
L 255.93713 -216.212641 
L 255.45628 -214.313551 
L 254.859141 -212.414461 
L 254.14065 -210.515371 
L 253.300097 -208.616282 
L 252.340491 -206.717192 
L 251.267857 -204.818102 
L 250.0906 -202.919012 
L 248.819037 -201.019922 
L 247.465147 -199.120833 
L 246.042485 -197.221743 
L 244.566194 -195.322653 
L 243.053003 -193.423563 
L 241.521105 -191.524473 
L 239.989853 -189.625384 
L 238.479244 -187.726294 
L 237.009216 -185.827204 
L 235.598806 -183.928114 
L 234.265289 -182.029024 
L 233.023365 -180.129934 
L 231.884511 -178.230845 
L 230.856555 -176.331755 
L 229.943501 -174.432665 
L 229.14563 -172.533575 
L 228.459827 -170.634485 
L 227.880102 -168.735396 
L 227.39822 -166.836306 
L 227.004403 -164.937216 
L 226.688006 -163.038126 
L 226.438143 -161.139036 
L 226.244207 -159.239947 
L 226.09628 -157.340857 
z
" id="mfa6cfaf26a" style="stroke:#262626;stroke-width:1.5;"/>
    </defs>
    <g clip-path="url(#p56970958f8)">
     <use style="fill:#b55d60;stroke:#262626;stroke-width:1.5;" x="0" xlink:href="#mfa6cfaf26a" y="852.24475"/>
    </g>
   </g>
   <g id="PolyCollection_2">
    <defs>
     <path d="M 411.818725 -154.906191 
L 411.612525 -154.906191 
L 411.495216 -159.549363 
L 411.277046 -164.192535 
L 410.900516 -168.835707 
L 410.295524 -173.478879 
L 409.387473 -178.122051 
L 408.109863 -182.765224 
L 406.418556 -187.408396 
L 404.303383 -192.051568 
L 401.792885 -196.69474 
L 398.950395 -201.337912 
L 395.863336 -205.981084 
L 392.630608 -210.624256 
L 389.353385 -215.267428 
L 386.132291 -219.9106 
L 383.070508 -224.553772 
L 380.27931 -229.196944 
L 377.880725 -233.840117 
L 376.002097 -238.483289 
L 374.760238 -243.126461 
L 374.238466 -247.769633 
L 374.465193 -252.412805 
L 375.403707 -257.055977 
L 376.957775 -261.699149 
L 378.989874 -266.342321 
L 381.343763 -270.985493 
L 383.864023 -275.628665 
L 386.41036 -280.271837 
L 388.868862 -284.91501 
L 391.162077 -289.558182 
L 393.255561 -294.201354 
L 395.155582 -298.844526 
L 396.895228 -303.487698 
L 398.51315 -308.13087 
L 400.034786 -312.774042 
L 401.464822 -317.417214 
L 402.792576 -322.060386 
L 404.004291 -326.703558 
L 405.093519 -331.34673 
L 406.06412 -335.989903 
L 406.926444 -340.633075 
L 407.691459 -345.276247 
L 408.367426 -349.919419 
L 408.960322 -354.562591 
L 409.475891 -359.205763 
L 409.920534 -363.848935 
L 410.300199 -368.492107 
L 410.618821 -373.135279 
L 410.878364 -377.778451 
L 411.080982 -382.421623 
L 411.231753 -387.064796 
L 411.339782 -391.707968 
L 411.416649 -396.35114 
L 411.473169 -400.994312 
L 411.516623 -405.637484 
L 411.550079 -410.280656 
L 411.573878 -414.923828 
L 411.587793 -419.567 
L 411.592183 -424.210172 
L 411.587385 -428.853344 
L 411.572104 -433.496516 
L 411.54234 -438.139689 
L 411.49205 -442.782861 
L 411.415411 -447.426033 
L 411.309382 -452.069205 
L 411.175001 -456.712377 
L 411.016948 -461.355549 
L 410.842194 -465.998721 
L 410.659085 -470.641893 
L 410.477209 -475.285065 
L 410.307179 -479.928237 
L 410.159217 -484.57141 
L 410.040748 -489.214582 
L 409.954696 -493.857754 
L 409.900152 -498.500926 
L 409.875291 -503.144098 
L 409.880424 -507.78727 
L 409.91876 -512.430442 
L 409.994189 -517.073614 
L 410.107651 -521.716786 
L 410.254604 -526.359958 
L 410.425106 -531.00313 
L 410.60619 -535.646303 
L 410.784958 -540.289475 
L 410.950892 -544.932647 
L 411.096741 -549.575819 
L 411.218311 -554.218991 
L 411.313913 -558.862163 
L 411.384128 -563.505335 
L 411.432023 -568.148507 
L 411.463302 -572.791679 
L 411.485597 -577.434851 
L 411.50662 -582.078023 
L 411.531805 -586.721196 
L 411.562723 -591.364368 
L 411.59721 -596.00754 
L 411.631064 -600.650712 
L 411.660264 -605.293884 
L 411.682506 -609.937056 
L 411.697555 -614.580228 
L 411.733695 -614.580228 
L 411.733695 -614.580228 
L 411.748744 -609.937056 
L 411.770986 -605.293884 
L 411.800186 -600.650712 
L 411.83404 -596.00754 
L 411.868527 -591.364368 
L 411.899445 -586.721196 
L 411.92463 -582.078023 
L 411.945653 -577.434851 
L 411.967948 -572.791679 
L 411.999227 -568.148507 
L 412.047122 -563.505335 
L 412.117337 -558.862163 
L 412.212939 -554.218991 
L 412.334509 -549.575819 
L 412.480358 -544.932647 
L 412.646292 -540.289475 
L 412.82506 -535.646303 
L 413.006144 -531.00313 
L 413.176646 -526.359958 
L 413.323599 -521.716786 
L 413.437061 -517.073614 
L 413.51249 -512.430442 
L 413.550826 -507.78727 
L 413.555959 -503.144098 
L 413.531098 -498.500926 
L 413.476554 -493.857754 
L 413.390502 -489.214582 
L 413.272033 -484.57141 
L 413.124071 -479.928237 
L 412.954041 -475.285065 
L 412.772165 -470.641893 
L 412.589056 -465.998721 
L 412.414302 -461.355549 
L 412.256249 -456.712377 
L 412.121868 -452.069205 
L 412.015839 -447.426033 
L 411.9392 -442.782861 
L 411.88891 -438.139689 
L 411.859146 -433.496516 
L 411.843865 -428.853344 
L 411.839067 -424.210172 
L 411.843457 -419.567 
L 411.857372 -414.923828 
L 411.881171 -410.280656 
L 411.914627 -405.637484 
L 411.958081 -400.994312 
L 412.014601 -396.35114 
L 412.091468 -391.707968 
L 412.199497 -387.064796 
L 412.350268 -382.421623 
L 412.552886 -377.778451 
L 412.812429 -373.135279 
L 413.131051 -368.492107 
L 413.510716 -363.848935 
L 413.955359 -359.205763 
L 414.470928 -354.562591 
L 415.063824 -349.919419 
L 415.739791 -345.276247 
L 416.504806 -340.633075 
L 417.36713 -335.989903 
L 418.337731 -331.34673 
L 419.426959 -326.703558 
L 420.638674 -322.060386 
L 421.966428 -317.417214 
L 423.396464 -312.774042 
L 424.9181 -308.13087 
L 426.536022 -303.487698 
L 428.275668 -298.844526 
L 430.175689 -294.201354 
L 432.269173 -289.558182 
L 434.562388 -284.91501 
L 437.02089 -280.271837 
L 439.567227 -275.628665 
L 442.087487 -270.985493 
L 444.441376 -266.342321 
L 446.473475 -261.699149 
L 448.027543 -257.055977 
L 448.966057 -252.412805 
L 449.192784 -247.769633 
L 448.671012 -243.126461 
L 447.429153 -238.483289 
L 445.550525 -233.840117 
L 443.15194 -229.196944 
L 440.360742 -224.553772 
L 437.298959 -219.9106 
L 434.077865 -215.267428 
L 430.800642 -210.624256 
L 427.567914 -205.981084 
L 424.480855 -201.337912 
L 421.638365 -196.69474 
L 419.127867 -192.051568 
L 417.012694 -187.408396 
L 415.321387 -182.765224 
L 414.043777 -178.122051 
L 413.135726 -173.478879 
L 412.530734 -168.835707 
L 412.154204 -164.192535 
L 411.936034 -159.549363 
L 411.818725 -154.906191 
z
" id="m5ecc1d8c8e" style="stroke:#262626;stroke-width:1.5;"/>
    </defs>
    <g clip-path="url(#p56970958f8)">
     <use style="fill:#5875a4;stroke:#262626;stroke-width:1.5;" x="0" xlink:href="#m5ecc1d8c8e" y="852.24475"/>
    </g>
   </g>
   <g id="PolyCollection_3">
    <defs>
     <path d="M 601.228683 -198.254285 
L 594.202567 -198.254285 
L 593.5697 -199.141052 
L 592.848064 -200.027819 
L 592.030044 -200.914586 
L 591.108209 -201.801353 
L 590.075461 -202.68812 
L 588.925217 -203.574887 
L 587.651583 -204.461654 
L 586.249544 -205.348421 
L 584.715154 -206.235188 
L 583.045721 -207.121955 
L 581.239985 -208.008722 
L 579.298287 -208.895489 
L 577.222719 -209.782256 
L 575.017257 -210.669023 
L 572.68786 -211.55579 
L 570.242552 -212.442558 
L 567.691462 -213.329325 
L 565.046834 -214.216092 
L 562.322999 -215.102859 
L 559.536305 -215.989626 
L 556.705004 -216.876393 
L 553.849102 -217.76316 
L 550.990159 -218.649927 
L 548.151051 -219.536694 
L 545.355683 -220.423461 
L 542.628664 -221.310228 
L 539.994946 -222.196995 
L 537.479419 -223.083762 
L 535.10648 -223.970529 
L 532.899584 -224.857296 
L 530.880764 -225.744063 
L 529.070161 -226.630831 
L 527.485548 -227.517598 
L 526.141882 -228.404365 
L 525.05088 -229.291132 
L 524.220648 -230.177899 
L 523.655379 -231.064666 
L 523.355116 -231.951433 
L 523.315625 -232.8382 
L 523.528356 -233.724967 
L 523.980533 -234.611734 
L 524.655349 -235.498501 
L 525.532298 -236.385268 
L 526.587613 -237.272035 
L 527.794818 -238.158802 
L 529.125383 -239.045569 
L 530.549456 -239.932336 
L 532.036649 -240.819104 
L 533.55687 -241.705871 
L 535.081148 -242.592638 
L 536.582444 -243.479405 
L 538.036408 -244.366172 
L 539.422049 -245.252939 
L 540.722307 -246.139706 
L 541.924492 -247.026473 
L 543.020576 -247.91324 
L 544.007331 -248.800007 
L 544.886296 -249.686774 
L 545.663588 -250.573541 
L 546.349558 -251.460308 
L 546.958298 -252.347075 
L 547.507038 -253.233842 
L 548.015429 -254.120609 
L 548.504778 -255.007376 
L 548.99722 -255.894144 
L 549.5149 -256.780911 
L 550.079171 -257.667678 
L 550.709844 -258.554445 
L 551.424519 -259.441212 
L 552.238014 -260.327979 
L 553.161921 -261.214746 
L 554.204283 -262.101513 
L 555.369415 -262.98828 
L 556.657862 -263.875047 
L 558.066488 -264.761814 
L 559.58869 -265.648581 
L 561.214718 -266.535348 
L 562.932086 -267.422115 
L 564.726052 -268.308882 
L 566.580146 -269.195649 
L 568.476725 -270.082417 
L 570.397521 -270.969184 
L 572.324186 -271.855951 
L 574.238791 -272.742718 
L 576.124276 -273.629485 
L 577.96484 -274.516252 
L 579.746258 -275.403019 
L 581.456122 -276.289786 
L 583.084005 -277.176553 
L 584.621551 -278.06332 
L 586.062495 -278.950087 
L 587.402612 -279.836854 
L 588.639622 -280.723621 
L 589.773044 -281.610388 
L 590.804011 -282.497155 
L 591.735067 -283.383922 
L 592.569949 -284.27069 
L 593.313358 -285.157457 
L 593.970738 -286.044224 
L 601.460512 -286.044224 
L 601.460512 -286.044224 
L 602.117892 -285.157457 
L 602.861301 -284.27069 
L 603.696183 -283.383922 
L 604.627239 -282.497155 
L 605.658206 -281.610388 
L 606.791628 -280.723621 
L 608.028638 -279.836854 
L 609.368755 -278.950087 
L 610.809699 -278.06332 
L 612.347245 -277.176553 
L 613.975128 -276.289786 
L 615.684992 -275.403019 
L 617.46641 -274.516252 
L 619.306974 -273.629485 
L 621.192459 -272.742718 
L 623.107064 -271.855951 
L 625.033729 -270.969184 
L 626.954525 -270.082417 
L 628.851104 -269.195649 
L 630.705198 -268.308882 
L 632.499164 -267.422115 
L 634.216532 -266.535348 
L 635.84256 -265.648581 
L 637.364762 -264.761814 
L 638.773388 -263.875047 
L 640.061835 -262.98828 
L 641.226967 -262.101513 
L 642.269329 -261.214746 
L 643.193236 -260.327979 
L 644.006731 -259.441212 
L 644.721406 -258.554445 
L 645.352079 -257.667678 
L 645.91635 -256.780911 
L 646.43403 -255.894144 
L 646.926472 -255.007376 
L 647.415821 -254.120609 
L 647.924212 -253.233842 
L 648.472952 -252.347075 
L 649.081692 -251.460308 
L 649.767662 -250.573541 
L 650.544954 -249.686774 
L 651.423919 -248.800007 
L 652.410674 -247.91324 
L 653.506758 -247.026473 
L 654.708943 -246.139706 
L 656.009201 -245.252939 
L 657.394842 -244.366172 
L 658.848806 -243.479405 
L 660.350102 -242.592638 
L 661.87438 -241.705871 
L 663.394601 -240.819104 
L 664.881794 -239.932336 
L 666.305867 -239.045569 
L 667.636432 -238.158802 
L 668.843637 -237.272035 
L 669.898952 -236.385268 
L 670.775901 -235.498501 
L 671.450717 -234.611734 
L 671.902894 -233.724967 
L 672.115625 -232.8382 
L 672.076134 -231.951433 
L 671.775871 -231.064666 
L 671.210602 -230.177899 
L 670.38037 -229.291132 
L 669.289368 -228.404365 
L 667.945702 -227.517598 
L 666.361089 -226.630831 
L 664.550486 -225.744063 
L 662.531666 -224.857296 
L 660.32477 -223.970529 
L 657.951831 -223.083762 
L 655.436304 -222.196995 
L 652.802586 -221.310228 
L 650.075567 -220.423461 
L 647.280199 -219.536694 
L 644.441091 -218.649927 
L 641.582148 -217.76316 
L 638.726246 -216.876393 
L 635.894945 -215.989626 
L 633.108251 -215.102859 
L 630.384416 -214.216092 
L 627.739788 -213.329325 
L 625.188698 -212.442558 
L 622.74339 -211.55579 
L 620.413993 -210.669023 
L 618.208531 -209.782256 
L 616.132963 -208.895489 
L 614.191265 -208.008722 
L 612.385529 -207.121955 
L 610.716096 -206.235188 
L 609.181706 -205.348421 
L 607.779667 -204.461654 
L 606.506033 -203.574887 
L 605.355789 -202.68812 
L 604.323041 -201.801353 
L 603.401206 -200.914586 
L 602.583186 -200.027819 
L 601.86155 -199.141052 
L 601.228683 -198.254285 
z
" id="m478ab75be9" style="stroke:#262626;stroke-width:1.5;"/>
    </defs>
    <g clip-path="url(#p56970958f8)">
     <use style="fill:#107010;stroke:#262626;stroke-width:1.5;" x="0" xlink:href="#m478ab75be9" y="852.24475"/>
    </g>
   </g>
   <g id="line2d_12">
    <path clip-path="url(#p56970958f8)" d="M 225.715625 667.744041 
L 225.715625 534.053854 
" style="fill:none;stroke:#262626;stroke-linecap:round;stroke-width:1.5;"/>
   </g>
   <g id="line2d_13">
    <path clip-path="url(#p56970958f8)" d="M 225.715625 633.83035 
L 225.715625 579.093671 
" style="fill:none;stroke:#262626;stroke-linecap:round;stroke-width:4.5;"/>
   </g>
   <g id="line2d_14">
    <path clip-path="url(#p56970958f8)" d="M 411.715625 667.394981 
L 411.715625 497.055935 
" style="fill:none;stroke:#262626;stroke-linecap:round;stroke-width:1.5;"/>
   </g>
   <g id="line2d_15">
    <path clip-path="url(#p56970958f8)" d="M 411.715625 618.10407 
L 411.715625 568.169118 
" style="fill:none;stroke:#262626;stroke-linecap:round;stroke-width:4.5;"/>
   </g>
   <g id="line2d_16">
    <path clip-path="url(#p56970958f8)" d="M 597.715625 631.095978 
L 597.715625 589.095014 
" style="fill:none;stroke:#262626;stroke-linecap:round;stroke-width:1.5;"/>
   </g>
   <g id="line2d_17">
    <path clip-path="url(#p56970958f8)" d="M 597.715625 621.4974 
L 597.715625 599.763561 
" style="fill:none;stroke:#262626;stroke-linecap:round;stroke-width:4.5;"/>
   </g>
   <g id="line2d_18">
    <path d="M 225.715625 163.7315 
L 225.715625 152.6435 
L 411.715625 152.6435 
L 411.715625 163.7315 
" style="fill:none;stroke:#333333;stroke-linecap:round;stroke-width:1.5;"/>
   </g>
   <g id="line2d_19">
    <path d="M 411.715625 103.1235 
L 411.715625 92.0355 
L 597.715625 92.0355 
L 597.715625 103.1235 
" style="fill:none;stroke:#333333;stroke-linecap:round;stroke-width:1.5;"/>
   </g>
   <g id="line2d_20">
    <path d="M 225.715625 42.5155 
L 225.715625 31.4275 
L 597.715625 31.4275 
L 597.715625 42.5155 
" style="fill:none;stroke:#333333;stroke-linecap:round;stroke-width:1.5;"/>
   </g>
   <g id="patch_3">
    <path d="M 132.715625 734.7635 
L 132.715625 180.3635 
" style="fill:none;stroke:#262626;stroke-linecap:square;stroke-linejoin:miter;stroke-width:1.25;"/>
   </g>
   <g id="patch_4">
    <path d="M 690.715625 734.7635 
L 690.715625 180.3635 
" style="fill:none;stroke:#262626;stroke-linecap:square;stroke-linejoin:miter;stroke-width:1.25;"/>
   </g>
   <g id="patch_5">
    <path d="M 132.715625 734.7635 
L 690.715625 734.7635 
" style="fill:none;stroke:#262626;stroke-linecap:square;stroke-linejoin:miter;stroke-width:1.25;"/>
   </g>
   <g id="patch_6">
    <path d="M 132.715625 180.3635 
L 690.715625 180.3635 
" style="fill:none;stroke:#262626;stroke-linecap:square;stroke-linejoin:miter;stroke-width:1.25;"/>
   </g>
   <g id="PathCollection_1">
    <defs>
     <path d="M 0 1.5 
C 0.397805 1.5 0.77937 1.341951 1.06066 1.06066 
C 1.341951 0.77937 1.5 0.397805 1.5 0 
C 1.5 -0.397805 1.341951 -0.77937 1.06066 -1.06066 
C 0.77937 -1.341951 0.397805 -1.5 0 -1.5 
C -0.397805 -1.5 -0.77937 -1.341951 -1.06066 -1.06066 
C -1.341951 -0.77937 -1.5 -0.397805 -1.5 0 
C -1.5 0.397805 -1.341951 0.77937 -1.06066 1.06066 
C -0.77937 1.341951 -0.397805 1.5 0 1.5 
z
" id="m6775dc1361" style="stroke:#262626;"/>
    </defs>
    <g clip-path="url(#p56970958f8)">
     <use style="fill:#ffffff;stroke:#262626;" x="225.715625" xlink:href="#m6775dc1361" y="603.790864"/>
    </g>
   </g>
   <g id="PathCollection_2">
    <g clip-path="url(#p56970958f8)">
     <use style="fill:#ffffff;stroke:#262626;" x="411.715625" xlink:href="#m6775dc1361" y="596.319264"/>
    </g>
   </g>
   <g id="PathCollection_3">
    <g clip-path="url(#p56970958f8)">
     <use style="fill:#ffffff;stroke:#262626;" x="597.715625" xlink:href="#m6775dc1361" y="616.047187"/>
    </g>
   </g>
   <g id="text_14">
    <!-- Ranksum p = 2.923e-03 -->
    <defs>
     <path d="M 34.28125 27.484375 
Q 23.390625 27.484375 19.1875 25 
Q 14.984375 22.515625 14.984375 16.5 
Q 14.984375 11.71875 18.140625 8.90625 
Q 21.296875 6.109375 26.703125 6.109375 
Q 34.1875 6.109375 38.703125 11.40625 
Q 43.21875 16.703125 43.21875 25.484375 
L 43.21875 27.484375 
z
M 52.203125 31.203125 
L 52.203125 0 
L 43.21875 0 
L 43.21875 8.296875 
Q 40.140625 3.328125 35.546875 0.953125 
Q 30.953125 -1.421875 24.3125 -1.421875 
Q 15.921875 -1.421875 10.953125 3.296875 
Q 6 8.015625 6 15.921875 
Q 6 25.140625 12.171875 29.828125 
Q 18.359375 34.515625 30.609375 34.515625 
L 43.21875 34.515625 
L 43.21875 35.40625 
Q 43.21875 41.609375 39.140625 45 
Q 35.0625 48.390625 27.6875 48.390625 
Q 23 48.390625 18.546875 47.265625 
Q 14.109375 46.140625 10.015625 43.890625 
L 10.015625 52.203125 
Q 14.9375 54.109375 19.578125 55.046875 
Q 24.21875 56 28.609375 56 
Q 40.484375 56 46.34375 49.84375 
Q 52.203125 43.703125 52.203125 31.203125 
z
" id="DejaVuSans-97"/>
     <path d="M 9.078125 75.984375 
L 18.109375 75.984375 
L 18.109375 31.109375 
L 44.921875 54.6875 
L 56.390625 54.6875 
L 27.390625 29.109375 
L 57.625 0 
L 45.90625 0 
L 18.109375 26.703125 
L 18.109375 0 
L 9.078125 0 
z
" id="DejaVuSans-107"/>
     <path d="M 8.5 21.578125 
L 8.5 54.6875 
L 17.484375 54.6875 
L 17.484375 21.921875 
Q 17.484375 14.15625 20.5 10.265625 
Q 23.53125 6.390625 29.59375 6.390625 
Q 36.859375 6.390625 41.078125 11.03125 
Q 45.3125 15.671875 45.3125 23.6875 
L 45.3125 54.6875 
L 54.296875 54.6875 
L 54.296875 0 
L 45.3125 0 
L 45.3125 8.40625 
Q 42.046875 3.421875 37.71875 1 
Q 33.40625 -1.421875 27.6875 -1.421875 
Q 18.265625 -1.421875 13.375 4.4375 
Q 8.5 10.296875 8.5 21.578125 
z
M 31.109375 56 
z
" id="DejaVuSans-117"/>
     <path d="M 52 44.1875 
Q 55.375 50.25 60.0625 53.125 
Q 64.75 56 71.09375 56 
Q 79.640625 56 84.28125 50.015625 
Q 88.921875 44.046875 88.921875 33.015625 
L 88.921875 0 
L 79.890625 0 
L 79.890625 32.71875 
Q 79.890625 40.578125 77.09375 44.375 
Q 74.3125 48.1875 68.609375 48.1875 
Q 61.625 48.1875 57.5625 43.546875 
Q 53.515625 38.921875 53.515625 30.90625 
L 53.515625 0 
L 44.484375 0 
L 44.484375 32.71875 
Q 44.484375 40.625 41.703125 44.40625 
Q 38.921875 48.1875 33.109375 48.1875 
Q 26.21875 48.1875 22.15625 43.53125 
Q 18.109375 38.875 18.109375 30.90625 
L 18.109375 0 
L 9.078125 0 
L 9.078125 54.6875 
L 18.109375 54.6875 
L 18.109375 46.1875 
Q 21.1875 51.21875 25.484375 53.609375 
Q 29.78125 56 35.6875 56 
Q 41.65625 56 45.828125 52.96875 
Q 50 49.953125 52 44.1875 
z
" id="DejaVuSans-109"/>
     <path id="DejaVuSans-32"/>
     <path d="M 10.59375 45.40625 
L 73.1875 45.40625 
L 73.1875 37.203125 
L 10.59375 37.203125 
z
M 10.59375 25.484375 
L 73.1875 25.484375 
L 73.1875 17.1875 
L 10.59375 17.1875 
z
" id="DejaVuSans-61"/>
     <path d="M 10.6875 12.40625 
L 21 12.40625 
L 21 0 
L 10.6875 0 
z
" id="DejaVuSans-46"/>
     <path d="M 10.984375 1.515625 
L 10.984375 10.5 
Q 14.703125 8.734375 18.5 7.8125 
Q 22.3125 6.890625 25.984375 6.890625 
Q 35.75 6.890625 40.890625 13.453125 
Q 46.046875 20.015625 46.78125 33.40625 
Q 43.953125 29.203125 39.59375 26.953125 
Q 35.25 24.703125 29.984375 24.703125 
Q 19.046875 24.703125 12.671875 31.3125 
Q 6.296875 37.9375 6.296875 49.421875 
Q 6.296875 60.640625 12.9375 67.421875 
Q 19.578125 74.21875 30.609375 74.21875 
Q 43.265625 74.21875 49.921875 64.515625 
Q 56.59375 54.828125 56.59375 36.375 
Q 56.59375 19.140625 48.40625 8.859375 
Q 40.234375 -1.421875 26.421875 -1.421875 
Q 22.703125 -1.421875 18.890625 -0.6875 
Q 15.09375 0.046875 10.984375 1.515625 
z
M 30.609375 32.421875 
Q 37.25 32.421875 41.125 36.953125 
Q 45.015625 41.5 45.015625 49.421875 
Q 45.015625 57.28125 41.125 61.84375 
Q 37.25 66.40625 30.609375 66.40625 
Q 23.96875 66.40625 20.09375 61.84375 
Q 16.21875 57.28125 16.21875 49.421875 
Q 16.21875 41.5 20.09375 36.953125 
Q 23.96875 32.421875 30.609375 32.421875 
z
" id="DejaVuSans-57"/>
     <path d="M 40.578125 39.3125 
Q 47.65625 37.796875 51.625 33 
Q 55.609375 28.21875 55.609375 21.1875 
Q 55.609375 10.40625 48.1875 4.484375 
Q 40.765625 -1.421875 27.09375 -1.421875 
Q 22.515625 -1.421875 17.65625 -0.515625 
Q 12.796875 0.390625 7.625 2.203125 
L 7.625 11.71875 
Q 11.71875 9.328125 16.59375 8.109375 
Q 21.484375 6.890625 26.8125 6.890625 
Q 36.078125 6.890625 40.9375 10.546875 
Q 45.796875 14.203125 45.796875 21.1875 
Q 45.796875 27.640625 41.28125 31.265625 
Q 36.765625 34.90625 28.71875 34.90625 
L 20.21875 34.90625 
L 20.21875 43.015625 
L 29.109375 43.015625 
Q 36.375 43.015625 40.234375 45.921875 
Q 44.09375 48.828125 44.09375 54.296875 
Q 44.09375 59.90625 40.109375 62.90625 
Q 36.140625 65.921875 28.71875 65.921875 
Q 24.65625 65.921875 20.015625 65.03125 
Q 15.375 64.15625 9.8125 62.3125 
L 9.8125 71.09375 
Q 15.4375 72.65625 20.34375 73.4375 
Q 25.25 74.21875 29.59375 74.21875 
Q 40.828125 74.21875 47.359375 69.109375 
Q 53.90625 64.015625 53.90625 55.328125 
Q 53.90625 49.265625 50.4375 45.09375 
Q 46.96875 40.921875 40.578125 39.3125 
z
" id="DejaVuSans-51"/>
    </defs>
    <g style="fill:#262626;" transform="translate(172.743125 146.65225)scale(0.24 -0.24)">
     <use xlink:href="#DejaVuSans-82"/>
     <use x="67.232422" xlink:href="#DejaVuSans-97"/>
     <use x="128.511719" xlink:href="#DejaVuSans-110"/>
     <use x="191.890625" xlink:href="#DejaVuSans-107"/>
     <use x="249.800781" xlink:href="#DejaVuSans-115"/>
     <use x="301.900391" xlink:href="#DejaVuSans-117"/>
     <use x="365.279297" xlink:href="#DejaVuSans-109"/>
     <use x="462.691406" xlink:href="#DejaVuSans-32"/>
     <use x="494.478516" xlink:href="#DejaVuSans-112"/>
     <use x="557.955078" xlink:href="#DejaVuSans-32"/>
     <use x="589.742188" xlink:href="#DejaVuSans-61"/>
     <use x="673.53125" xlink:href="#DejaVuSans-32"/>
     <use x="705.318359" xlink:href="#DejaVuSans-50"/>
     <use x="768.941406" xlink:href="#DejaVuSans-46"/>
     <use x="800.728516" xlink:href="#DejaVuSans-57"/>
     <use x="864.351562" xlink:href="#DejaVuSans-50"/>
     <use x="927.974609" xlink:href="#DejaVuSans-51"/>
     <use x="991.597656" xlink:href="#DejaVuSans-101"/>
     <use x="1053.121094" xlink:href="#DejaVuSans-45"/>
     <use x="1089.205078" xlink:href="#DejaVuSans-48"/>
     <use x="1152.828125" xlink:href="#DejaVuSans-51"/>
    </g>
   </g>
   <g id="text_15">
    <!-- Ranksum p = 1.510e-01 -->
    <defs>
     <path d="M 10.796875 72.90625 
L 49.515625 72.90625 
L 49.515625 64.59375 
L 19.828125 64.59375 
L 19.828125 46.734375 
Q 21.96875 47.46875 24.109375 47.828125 
Q 26.265625 48.1875 28.421875 48.1875 
Q 40.625 48.1875 47.75 41.5 
Q 54.890625 34.8125 54.890625 23.390625 
Q 54.890625 11.625 47.5625 5.09375 
Q 40.234375 -1.421875 26.90625 -1.421875 
Q 22.3125 -1.421875 17.546875 -0.640625 
Q 12.796875 0.140625 7.71875 1.703125 
L 7.71875 11.625 
Q 12.109375 9.234375 16.796875 8.0625 
Q 21.484375 6.890625 26.703125 6.890625 
Q 35.15625 6.890625 40.078125 11.328125 
Q 45.015625 15.765625 45.015625 23.390625 
Q 45.015625 31 40.078125 35.4375 
Q 35.15625 39.890625 26.703125 39.890625 
Q 22.75 39.890625 18.8125 39.015625 
Q 14.890625 38.140625 10.796875 36.28125 
z
" id="DejaVuSans-53"/>
    </defs>
    <g style="fill:#262626;" transform="translate(358.743125 86.04425)scale(0.24 -0.24)">
     <use xlink:href="#DejaVuSans-82"/>
     <use x="67.232422" xlink:href="#DejaVuSans-97"/>
     <use x="128.511719" xlink:href="#DejaVuSans-110"/>
     <use x="191.890625" xlink:href="#DejaVuSans-107"/>
     <use x="249.800781" xlink:href="#DejaVuSans-115"/>
     <use x="301.900391" xlink:href="#DejaVuSans-117"/>
     <use x="365.279297" xlink:href="#DejaVuSans-109"/>
     <use x="462.691406" xlink:href="#DejaVuSans-32"/>
     <use x="494.478516" xlink:href="#DejaVuSans-112"/>
     <use x="557.955078" xlink:href="#DejaVuSans-32"/>
     <use x="589.742188" xlink:href="#DejaVuSans-61"/>
     <use x="673.53125" xlink:href="#DejaVuSans-32"/>
     <use x="705.318359" xlink:href="#DejaVuSans-49"/>
     <use x="768.941406" xlink:href="#DejaVuSans-46"/>
     <use x="800.728516" xlink:href="#DejaVuSans-53"/>
     <use x="864.351562" xlink:href="#DejaVuSans-49"/>
     <use x="927.974609" xlink:href="#DejaVuSans-48"/>
     <use x="991.597656" xlink:href="#DejaVuSans-101"/>
     <use x="1053.121094" xlink:href="#DejaVuSans-45"/>
     <use x="1089.205078" xlink:href="#DejaVuSans-48"/>
     <use x="1152.828125" xlink:href="#DejaVuSans-49"/>
    </g>
   </g>
   <g id="text_16">
    <!-- Ranksum p = 6.002e-01 -->
    <g style="fill:#262626;" transform="translate(265.743125 25.43625)scale(0.24 -0.24)">
     <use xlink:href="#DejaVuSans-82"/>
     <use x="67.232422" xlink:href="#DejaVuSans-97"/>
     <use x="128.511719" xlink:href="#DejaVuSans-110"/>
     <use x="191.890625" xlink:href="#DejaVuSans-107"/>
     <use x="249.800781" xlink:href="#DejaVuSans-115"/>
     <use x="301.900391" xlink:href="#DejaVuSans-117"/>
     <use x="365.279297" xlink:href="#DejaVuSans-109"/>
     <use x="462.691406" xlink:href="#DejaVuSans-32"/>
     <use x="494.478516" xlink:href="#DejaVuSans-112"/>
     <use x="557.955078" xlink:href="#DejaVuSans-32"/>
     <use x="589.742188" xlink:href="#DejaVuSans-61"/>
     <use x="673.53125" xlink:href="#DejaVuSans-32"/>
     <use x="705.318359" xlink:href="#DejaVuSans-54"/>
     <use x="768.941406" xlink:href="#DejaVuSans-46"/>
     <use x="800.728516" xlink:href="#DejaVuSans-48"/>
     <use x="864.351562" xlink:href="#DejaVuSans-48"/>
     <use x="927.974609" xlink:href="#DejaVuSans-50"/>
     <use x="991.597656" xlink:href="#DejaVuSans-101"/>
     <use x="1053.121094" xlink:href="#DejaVuSans-45"/>
     <use x="1089.205078" xlink:href="#DejaVuSans-48"/>
     <use x="1152.828125" xlink:href="#DejaVuSans-49"/>
    </g>
   </g>
  </g>
 </g>
 <defs>
  <clipPath id="p56970958f8">
   <rect height="554.4" width="558" x="132.715625" y="180.3635"/>
  </clipPath>
 </defs>
</svg>
