<?xml version="1.0" encoding="utf-8" standalone="no"?>
<!DOCTYPE svg PUBLIC "-//W3C//DTD SVG 1.1//EN"
  "http://www.w3.org/Graphics/SVG/1.1/DTD/svg11.dtd">
<!-- Created with matplotlib (https://matplotlib.org/) -->
<svg height="852.24475pt" version="1.1" viewBox="0 0 697.915625 852.24475" width="697.915625pt" xmlns="http://www.w3.org/2000/svg" xmlns:xlink="http://www.w3.org/1999/xlink">
 <defs>
  <style type="text/css">
*{stroke-linecap:butt;stroke-linejoin:round;}
  </style>
 </defs>
 <g id="figure_1">
  <g id="patch_1">
   <path d="M 0 852.24475 
L 697.915625 852.24475 
L 697.915625 0 
L 0 0 
z
" style="fill:#ffffff;"/>
  </g>
  <g id="axes_1">
   <g id="patch_2">
    <path d="M 132.715625 734.7635 
L 690.715625 734.7635 
L 690.715625 180.3635 
L 132.715625 180.3635 
z
" style="fill:#ffffff;"/>
   </g>
   <g id="matplotlib.axis_1">
    <g id="xtick_1">
     <g id="line2d_1">
      <defs>
       <path d="M 0 0 
L 0 6 
" id="m1f7095443c" style="stroke:#262626;stroke-width:1.25;"/>
      </defs>
      <g>
       <use style="fill:#262626;stroke:#262626;stroke-width:1.25;" x="225.715625" xlink:href="#m1f7095443c" y="734.7635"/>
      </g>
     </g>
     <g id="text_1">
      <!-- Gs -->
      <defs>
       <path d="M 59.515625 10.40625 
L 59.515625 29.984375 
L 43.40625 29.984375 
L 43.40625 38.09375 
L 69.28125 38.09375 
L 69.28125 6.78125 
Q 63.578125 2.734375 56.6875 0.65625 
Q 49.8125 -1.421875 42 -1.421875 
Q 24.90625 -1.421875 15.25 8.5625 
Q 5.609375 18.5625 5.609375 36.375 
Q 5.609375 54.25 15.25 64.234375 
Q 24.90625 74.21875 42 74.21875 
Q 49.125 74.21875 55.546875 72.453125 
Q 61.96875 70.703125 67.390625 67.28125 
L 67.390625 56.78125 
Q 61.921875 61.421875 55.765625 63.765625 
Q 49.609375 66.109375 42.828125 66.109375 
Q 29.4375 66.109375 22.71875 58.640625 
Q 16.015625 51.171875 16.015625 36.375 
Q 16.015625 21.625 22.71875 14.15625 
Q 29.4375 6.6875 42.828125 6.6875 
Q 48.046875 6.6875 52.140625 7.59375 
Q 56.25 8.5 59.515625 10.40625 
z
" id="DejaVuSans-71"/>
       <path d="M 44.28125 53.078125 
L 44.28125 44.578125 
Q 40.484375 46.53125 36.375 47.5 
Q 32.28125 48.484375 27.875 48.484375 
Q 21.1875 48.484375 17.84375 46.4375 
Q 14.5 44.390625 14.5 40.28125 
Q 14.5 37.15625 16.890625 35.375 
Q 19.28125 33.59375 26.515625 31.984375 
L 29.59375 31.296875 
Q 39.15625 29.25 43.1875 25.515625 
Q 47.21875 21.78125 47.21875 15.09375 
Q 47.21875 7.46875 41.1875 3.015625 
Q 35.15625 -1.421875 24.609375 -1.421875 
Q 20.21875 -1.421875 15.453125 -0.5625 
Q 10.6875 0.296875 5.421875 2 
L 5.421875 11.28125 
Q 10.40625 8.6875 15.234375 7.390625 
Q 20.0625 6.109375 24.8125 6.109375 
Q 31.15625 6.109375 34.5625 8.28125 
Q 37.984375 10.453125 37.984375 14.40625 
Q 37.984375 18.0625 35.515625 20.015625 
Q 33.0625 21.96875 24.703125 23.78125 
L 21.578125 24.515625 
Q 13.234375 26.265625 9.515625 29.90625 
Q 5.8125 33.546875 5.8125 39.890625 
Q 5.8125 47.609375 11.28125 51.796875 
Q 16.75 56 26.8125 56 
Q 31.78125 56 36.171875 55.265625 
Q 40.578125 54.546875 44.28125 53.078125 
z
" id="DejaVuSans-115"/>
      </defs>
      <g style="fill:#262626;" transform="translate(193.321094 782.255688)scale(0.5 -0.5)">
       <use xlink:href="#DejaVuSans-71"/>
       <use x="77.490234" xlink:href="#DejaVuSans-115"/>
      </g>
     </g>
    </g>
    <g id="xtick_2">
     <g id="line2d_2">
      <g>
       <use style="fill:#262626;stroke:#262626;stroke-width:1.25;" x="411.715625" xlink:href="#m1f7095443c" y="734.7635"/>
      </g>
     </g>
     <g id="text_2">
      <!-- Gio -->
      <defs>
       <path d="M 9.421875 54.6875 
L 18.40625 54.6875 
L 18.40625 0 
L 9.421875 0 
z
M 9.421875 75.984375 
L 18.40625 75.984375 
L 18.40625 64.59375 
L 9.421875 64.59375 
z
" id="DejaVuSans-105"/>
       <path d="M 30.609375 48.390625 
Q 23.390625 48.390625 19.1875 42.75 
Q 14.984375 37.109375 14.984375 27.296875 
Q 14.984375 17.484375 19.15625 11.84375 
Q 23.34375 6.203125 30.609375 6.203125 
Q 37.796875 6.203125 41.984375 11.859375 
Q 46.1875 17.53125 46.1875 27.296875 
Q 46.1875 37.015625 41.984375 42.703125 
Q 37.796875 48.390625 30.609375 48.390625 
z
M 30.609375 56 
Q 42.328125 56 49.015625 48.375 
Q 55.71875 40.765625 55.71875 27.296875 
Q 55.71875 13.875 49.015625 6.21875 
Q 42.328125 -1.421875 30.609375 -1.421875 
Q 18.84375 -1.421875 12.171875 6.21875 
Q 5.515625 13.875 5.515625 27.296875 
Q 5.515625 40.765625 12.171875 48.375 
Q 18.84375 56 30.609375 56 
z
" id="DejaVuSans-111"/>
      </defs>
      <g style="fill:#262626;" transform="translate(370.102344 782.255688)scale(0.5 -0.5)">
       <use xlink:href="#DejaVuSans-71"/>
       <use x="77.490234" xlink:href="#DejaVuSans-105"/>
       <use x="105.273438" xlink:href="#DejaVuSans-111"/>
      </g>
     </g>
    </g>
    <g id="xtick_3">
     <g id="line2d_3">
      <g>
       <use style="fill:#262626;stroke:#262626;stroke-width:1.25;" x="597.715625" xlink:href="#m1f7095443c" y="734.7635"/>
      </g>
     </g>
     <g id="text_3">
      <!-- Gq11 -->
      <defs>
       <path d="M 14.796875 27.296875 
Q 14.796875 17.390625 18.875 11.75 
Q 22.953125 6.109375 30.078125 6.109375 
Q 37.203125 6.109375 41.296875 11.75 
Q 45.40625 17.390625 45.40625 27.296875 
Q 45.40625 37.203125 41.296875 42.84375 
Q 37.203125 48.484375 30.078125 48.484375 
Q 22.953125 48.484375 18.875 42.84375 
Q 14.796875 37.203125 14.796875 27.296875 
z
M 45.40625 8.203125 
Q 42.578125 3.328125 38.25 0.953125 
Q 33.9375 -1.421875 27.875 -1.421875 
Q 17.96875 -1.421875 11.734375 6.484375 
Q 5.515625 14.40625 5.515625 27.296875 
Q 5.515625 40.1875 11.734375 48.09375 
Q 17.96875 56 27.875 56 
Q 33.9375 56 38.25 53.625 
Q 42.578125 51.265625 45.40625 46.390625 
L 45.40625 54.6875 
L 54.390625 54.6875 
L 54.390625 -20.796875 
L 45.40625 -20.796875 
z
" id="DejaVuSans-113"/>
       <path d="M 12.40625 8.296875 
L 28.515625 8.296875 
L 28.515625 63.921875 
L 10.984375 60.40625 
L 10.984375 69.390625 
L 28.421875 72.90625 
L 38.28125 72.90625 
L 38.28125 8.296875 
L 54.390625 8.296875 
L 54.390625 0 
L 12.40625 0 
z
" id="DejaVuSans-49"/>
      </defs>
      <g style="fill:#262626;" transform="translate(530.660938 782.255688)scale(0.5 -0.5)">
       <use xlink:href="#DejaVuSans-71"/>
       <use x="77.490234" xlink:href="#DejaVuSans-113"/>
       <use x="140.966797" xlink:href="#DejaVuSans-49"/>
       <use x="204.589844" xlink:href="#DejaVuSans-49"/>
      </g>
     </g>
    </g>
    <g id="text_4">
     <!-- G-protein -->
     <defs>
      <path d="M 4.890625 31.390625 
L 31.203125 31.390625 
L 31.203125 23.390625 
L 4.890625 23.390625 
z
" id="DejaVuSans-45"/>
      <path d="M 18.109375 8.203125 
L 18.109375 -20.796875 
L 9.078125 -20.796875 
L 9.078125 54.6875 
L 18.109375 54.6875 
L 18.109375 46.390625 
Q 20.953125 51.265625 25.265625 53.625 
Q 29.59375 56 35.59375 56 
Q 45.5625 56 51.78125 48.09375 
Q 58.015625 40.1875 58.015625 27.296875 
Q 58.015625 14.40625 51.78125 6.484375 
Q 45.5625 -1.421875 35.59375 -1.421875 
Q 29.59375 -1.421875 25.265625 0.953125 
Q 20.953125 3.328125 18.109375 8.203125 
z
M 48.6875 27.296875 
Q 48.6875 37.203125 44.609375 42.84375 
Q 40.53125 48.484375 33.40625 48.484375 
Q 26.265625 48.484375 22.1875 42.84375 
Q 18.109375 37.203125 18.109375 27.296875 
Q 18.109375 17.390625 22.1875 11.75 
Q 26.265625 6.109375 33.40625 6.109375 
Q 40.53125 6.109375 44.609375 11.75 
Q 48.6875 17.390625 48.6875 27.296875 
z
" id="DejaVuSans-112"/>
      <path d="M 41.109375 46.296875 
Q 39.59375 47.171875 37.8125 47.578125 
Q 36.03125 48 33.890625 48 
Q 26.265625 48 22.1875 43.046875 
Q 18.109375 38.09375 18.109375 28.8125 
L 18.109375 0 
L 9.078125 0 
L 9.078125 54.6875 
L 18.109375 54.6875 
L 18.109375 46.1875 
Q 20.953125 51.171875 25.484375 53.578125 
Q 30.03125 56 36.53125 56 
Q 37.453125 56 38.578125 55.875 
Q 39.703125 55.765625 41.0625 55.515625 
z
" id="DejaVuSans-114"/>
      <path d="M 18.3125 70.21875 
L 18.3125 54.6875 
L 36.8125 54.6875 
L 36.8125 47.703125 
L 18.3125 47.703125 
L 18.3125 18.015625 
Q 18.3125 11.328125 20.140625 9.421875 
Q 21.96875 7.515625 27.59375 7.515625 
L 36.8125 7.515625 
L 36.8125 0 
L 27.59375 0 
Q 17.1875 0 13.234375 3.875 
Q 9.28125 7.765625 9.28125 18.015625 
L 9.28125 47.703125 
L 2.6875 47.703125 
L 2.6875 54.6875 
L 9.28125 54.6875 
L 9.28125 70.21875 
z
" id="DejaVuSans-116"/>
      <path d="M 56.203125 29.59375 
L 56.203125 25.203125 
L 14.890625 25.203125 
Q 15.484375 15.921875 20.484375 11.0625 
Q 25.484375 6.203125 34.421875 6.203125 
Q 39.59375 6.203125 44.453125 7.46875 
Q 49.3125 8.734375 54.109375 11.28125 
L 54.109375 2.78125 
Q 49.265625 0.734375 44.1875 -0.34375 
Q 39.109375 -1.421875 33.890625 -1.421875 
Q 20.796875 -1.421875 13.15625 6.1875 
Q 5.515625 13.8125 5.515625 26.8125 
Q 5.515625 40.234375 12.765625 48.109375 
Q 20.015625 56 32.328125 56 
Q 43.359375 56 49.78125 48.890625 
Q 56.203125 41.796875 56.203125 29.59375 
z
M 47.21875 32.234375 
Q 47.125 39.59375 43.09375 43.984375 
Q 39.0625 48.390625 32.421875 48.390625 
Q 24.90625 48.390625 20.390625 44.140625 
Q 15.875 39.890625 15.1875 32.171875 
z
" id="DejaVuSans-101"/>
      <path d="M 54.890625 33.015625 
L 54.890625 0 
L 45.90625 0 
L 45.90625 32.71875 
Q 45.90625 40.484375 42.875 44.328125 
Q 39.84375 48.1875 33.796875 48.1875 
Q 26.515625 48.1875 22.3125 43.546875 
Q 18.109375 38.921875 18.109375 30.90625 
L 18.109375 0 
L 9.078125 0 
L 9.078125 54.6875 
L 18.109375 54.6875 
L 18.109375 46.1875 
Q 21.34375 51.125 25.703125 53.5625 
Q 30.078125 56 35.796875 56 
Q 45.21875 56 50.046875 50.171875 
Q 54.890625 44.34375 54.890625 33.015625 
z
" id="DejaVuSans-110"/>
     </defs>
     <g style="fill:#262626;" transform="translate(294.469531 834.646313)scale(0.5 -0.5)">
      <use xlink:href="#DejaVuSans-71"/>
      <use x="77.490234" xlink:href="#DejaVuSans-45"/>
      <use x="113.574219" xlink:href="#DejaVuSans-112"/>
      <use x="177.050781" xlink:href="#DejaVuSans-114"/>
      <use x="215.914062" xlink:href="#DejaVuSans-111"/>
      <use x="277.095703" xlink:href="#DejaVuSans-116"/>
      <use x="316.304688" xlink:href="#DejaVuSans-101"/>
      <use x="377.828125" xlink:href="#DejaVuSans-105"/>
      <use x="405.611328" xlink:href="#DejaVuSans-110"/>
     </g>
    </g>
   </g>
   <g id="matplotlib.axis_2">
    <g id="ytick_1">
     <g id="line2d_4">
      <defs>
       <path d="M 0 0 
L -6 0 
" id="mdc92dd297d" style="stroke:#262626;stroke-width:1.25;"/>
      </defs>
      <g>
       <use style="fill:#262626;stroke:#262626;stroke-width:1.25;" x="132.715625" xlink:href="#mdc92dd297d" y="684.3635"/>
      </g>
     </g>
     <g id="text_5">
      <!-- 0 -->
      <defs>
       <path d="M 31.78125 66.40625 
Q 24.171875 66.40625 20.328125 58.90625 
Q 16.5 51.421875 16.5 36.375 
Q 16.5 21.390625 20.328125 13.890625 
Q 24.171875 6.390625 31.78125 6.390625 
Q 39.453125 6.390625 43.28125 13.890625 
Q 47.125 21.390625 47.125 36.375 
Q 47.125 51.421875 43.28125 58.90625 
Q 39.453125 66.40625 31.78125 66.40625 
z
M 31.78125 74.21875 
Q 44.046875 74.21875 50.515625 64.515625 
Q 56.984375 54.828125 56.984375 36.375 
Q 56.984375 17.96875 50.515625 8.265625 
Q 44.046875 -1.421875 31.78125 -1.421875 
Q 19.53125 -1.421875 13.0625 8.265625 
Q 6.59375 17.96875 6.59375 36.375 
Q 6.59375 54.828125 13.0625 64.515625 
Q 19.53125 74.21875 31.78125 74.21875 
z
" id="DejaVuSans-48"/>
      </defs>
      <g style="fill:#262626;" transform="translate(91.403125 703.359594)scale(0.5 -0.5)">
       <use xlink:href="#DejaVuSans-48"/>
      </g>
     </g>
    </g>
    <g id="ytick_2">
     <g id="line2d_5">
      <g>
       <use style="fill:#262626;stroke:#262626;stroke-width:1.25;" x="132.715625" xlink:href="#mdc92dd297d" y="617.1635"/>
      </g>
     </g>
     <g id="text_6">
      <!-- 4 -->
      <defs>
       <path d="M 37.796875 64.3125 
L 12.890625 25.390625 
L 37.796875 25.390625 
z
M 35.203125 72.90625 
L 47.609375 72.90625 
L 47.609375 25.390625 
L 58.015625 25.390625 
L 58.015625 17.1875 
L 47.609375 17.1875 
L 47.609375 0 
L 37.796875 0 
L 37.796875 17.1875 
L 4.890625 17.1875 
L 4.890625 26.703125 
z
" id="DejaVuSans-52"/>
      </defs>
      <g style="fill:#262626;" transform="translate(91.403125 636.159594)scale(0.5 -0.5)">
       <use xlink:href="#DejaVuSans-52"/>
      </g>
     </g>
    </g>
    <g id="ytick_3">
     <g id="line2d_6">
      <g>
       <use style="fill:#262626;stroke:#262626;stroke-width:1.25;" x="132.715625" xlink:href="#mdc92dd297d" y="549.9635"/>
      </g>
     </g>
     <g id="text_7">
      <!-- 8 -->
      <defs>
       <path d="M 31.78125 34.625 
Q 24.75 34.625 20.71875 30.859375 
Q 16.703125 27.09375 16.703125 20.515625 
Q 16.703125 13.921875 20.71875 10.15625 
Q 24.75 6.390625 31.78125 6.390625 
Q 38.8125 6.390625 42.859375 10.171875 
Q 46.921875 13.96875 46.921875 20.515625 
Q 46.921875 27.09375 42.890625 30.859375 
Q 38.875 34.625 31.78125 34.625 
z
M 21.921875 38.8125 
Q 15.578125 40.375 12.03125 44.71875 
Q 8.5 49.078125 8.5 55.328125 
Q 8.5 64.0625 14.71875 69.140625 
Q 20.953125 74.21875 31.78125 74.21875 
Q 42.671875 74.21875 48.875 69.140625 
Q 55.078125 64.0625 55.078125 55.328125 
Q 55.078125 49.078125 51.53125 44.71875 
Q 48 40.375 41.703125 38.8125 
Q 48.828125 37.15625 52.796875 32.3125 
Q 56.78125 27.484375 56.78125 20.515625 
Q 56.78125 9.90625 50.3125 4.234375 
Q 43.84375 -1.421875 31.78125 -1.421875 
Q 19.734375 -1.421875 13.25 4.234375 
Q 6.78125 9.90625 6.78125 20.515625 
Q 6.78125 27.484375 10.78125 32.3125 
Q 14.796875 37.15625 21.921875 38.8125 
z
M 18.3125 54.390625 
Q 18.3125 48.734375 21.84375 45.5625 
Q 25.390625 42.390625 31.78125 42.390625 
Q 38.140625 42.390625 41.71875 45.5625 
Q 45.3125 48.734375 45.3125 54.390625 
Q 45.3125 60.0625 41.71875 63.234375 
Q 38.140625 66.40625 31.78125 66.40625 
Q 25.390625 66.40625 21.84375 63.234375 
Q 18.3125 60.0625 18.3125 54.390625 
z
" id="DejaVuSans-56"/>
      </defs>
      <g style="fill:#262626;" transform="translate(91.403125 568.959594)scale(0.5 -0.5)">
       <use xlink:href="#DejaVuSans-56"/>
      </g>
     </g>
    </g>
    <g id="ytick_4">
     <g id="line2d_7">
      <g>
       <use style="fill:#262626;stroke:#262626;stroke-width:1.25;" x="132.715625" xlink:href="#mdc92dd297d" y="482.7635"/>
      </g>
     </g>
     <g id="text_8">
      <!-- 12 -->
      <defs>
       <path d="M 19.1875 8.296875 
L 53.609375 8.296875 
L 53.609375 0 
L 7.328125 0 
L 7.328125 8.296875 
Q 12.9375 14.109375 22.625 23.890625 
Q 32.328125 33.6875 34.8125 36.53125 
Q 39.546875 41.84375 41.421875 45.53125 
Q 43.3125 49.21875 43.3125 52.78125 
Q 43.3125 58.59375 39.234375 62.25 
Q 35.15625 65.921875 28.609375 65.921875 
Q 23.96875 65.921875 18.8125 64.3125 
Q 13.671875 62.703125 7.8125 59.421875 
L 7.8125 69.390625 
Q 13.765625 71.78125 18.9375 73 
Q 24.125 74.21875 28.421875 74.21875 
Q 39.75 74.21875 46.484375 68.546875 
Q 53.21875 62.890625 53.21875 53.421875 
Q 53.21875 48.921875 51.53125 44.890625 
Q 49.859375 40.875 45.40625 35.40625 
Q 44.1875 33.984375 37.640625 27.21875 
Q 31.109375 20.453125 19.1875 8.296875 
z
" id="DejaVuSans-50"/>
      </defs>
      <g style="fill:#262626;" transform="translate(59.590625 501.759594)scale(0.5 -0.5)">
       <use xlink:href="#DejaVuSans-49"/>
       <use x="63.623047" xlink:href="#DejaVuSans-50"/>
      </g>
     </g>
    </g>
    <g id="ytick_5">
     <g id="line2d_8">
      <g>
       <use style="fill:#262626;stroke:#262626;stroke-width:1.25;" x="132.715625" xlink:href="#mdc92dd297d" y="415.5635"/>
      </g>
     </g>
     <g id="text_9">
      <!-- 16 -->
      <defs>
       <path d="M 33.015625 40.375 
Q 26.375 40.375 22.484375 35.828125 
Q 18.609375 31.296875 18.609375 23.390625 
Q 18.609375 15.53125 22.484375 10.953125 
Q 26.375 6.390625 33.015625 6.390625 
Q 39.65625 6.390625 43.53125 10.953125 
Q 47.40625 15.53125 47.40625 23.390625 
Q 47.40625 31.296875 43.53125 35.828125 
Q 39.65625 40.375 33.015625 40.375 
z
M 52.59375 71.296875 
L 52.59375 62.3125 
Q 48.875 64.0625 45.09375 64.984375 
Q 41.3125 65.921875 37.59375 65.921875 
Q 27.828125 65.921875 22.671875 59.328125 
Q 17.53125 52.734375 16.796875 39.40625 
Q 19.671875 43.65625 24.015625 45.921875 
Q 28.375 48.1875 33.59375 48.1875 
Q 44.578125 48.1875 50.953125 41.515625 
Q 57.328125 34.859375 57.328125 23.390625 
Q 57.328125 12.15625 50.6875 5.359375 
Q 44.046875 -1.421875 33.015625 -1.421875 
Q 20.359375 -1.421875 13.671875 8.265625 
Q 6.984375 17.96875 6.984375 36.375 
Q 6.984375 53.65625 15.1875 63.9375 
Q 23.390625 74.21875 37.203125 74.21875 
Q 40.921875 74.21875 44.703125 73.484375 
Q 48.484375 72.75 52.59375 71.296875 
z
" id="DejaVuSans-54"/>
      </defs>
      <g style="fill:#262626;" transform="translate(59.590625 434.559594)scale(0.5 -0.5)">
       <use xlink:href="#DejaVuSans-49"/>
       <use x="63.623047" xlink:href="#DejaVuSans-54"/>
      </g>
     </g>
    </g>
    <g id="ytick_6">
     <g id="line2d_9">
      <g>
       <use style="fill:#262626;stroke:#262626;stroke-width:1.25;" x="132.715625" xlink:href="#mdc92dd297d" y="348.3635"/>
      </g>
     </g>
     <g id="text_10">
      <!-- 20 -->
      <g style="fill:#262626;" transform="translate(59.590625 367.359594)scale(0.5 -0.5)">
       <use xlink:href="#DejaVuSans-50"/>
       <use x="63.623047" xlink:href="#DejaVuSans-48"/>
      </g>
     </g>
    </g>
    <g id="ytick_7">
     <g id="line2d_10">
      <g>
       <use style="fill:#262626;stroke:#262626;stroke-width:1.25;" x="132.715625" xlink:href="#mdc92dd297d" y="281.1635"/>
      </g>
     </g>
     <g id="text_11">
      <!-- 24 -->
      <g style="fill:#262626;" transform="translate(59.590625 300.159594)scale(0.5 -0.5)">
       <use xlink:href="#DejaVuSans-50"/>
       <use x="63.623047" xlink:href="#DejaVuSans-52"/>
      </g>
     </g>
    </g>
    <g id="ytick_8">
     <g id="line2d_11">
      <g>
       <use style="fill:#262626;stroke:#262626;stroke-width:1.25;" x="132.715625" xlink:href="#mdc92dd297d" y="213.9635"/>
      </g>
     </g>
     <g id="text_12">
      <!-- 28 -->
      <g style="fill:#262626;" transform="translate(59.590625 232.959594)scale(0.5 -0.5)">
       <use xlink:href="#DejaVuSans-50"/>
       <use x="63.623047" xlink:href="#DejaVuSans-56"/>
      </g>
     </g>
    </g>
    <g id="text_13">
     <!-- RMSD -->
     <defs>
      <path d="M 44.390625 34.1875 
Q 47.5625 33.109375 50.5625 29.59375 
Q 53.5625 26.078125 56.59375 19.921875 
L 66.609375 0 
L 56 0 
L 46.6875 18.703125 
Q 43.0625 26.03125 39.671875 28.421875 
Q 36.28125 30.8125 30.421875 30.8125 
L 19.671875 30.8125 
L 19.671875 0 
L 9.8125 0 
L 9.8125 72.90625 
L 32.078125 72.90625 
Q 44.578125 72.90625 50.734375 67.671875 
Q 56.890625 62.453125 56.890625 51.90625 
Q 56.890625 45.015625 53.6875 40.46875 
Q 50.484375 35.9375 44.390625 34.1875 
z
M 19.671875 64.796875 
L 19.671875 38.921875 
L 32.078125 38.921875 
Q 39.203125 38.921875 42.84375 42.21875 
Q 46.484375 45.515625 46.484375 51.90625 
Q 46.484375 58.296875 42.84375 61.546875 
Q 39.203125 64.796875 32.078125 64.796875 
z
" id="DejaVuSans-82"/>
      <path d="M 9.8125 72.90625 
L 24.515625 72.90625 
L 43.109375 23.296875 
L 61.8125 72.90625 
L 76.515625 72.90625 
L 76.515625 0 
L 66.890625 0 
L 66.890625 64.015625 
L 48.09375 14.015625 
L 38.1875 14.015625 
L 19.390625 64.015625 
L 19.390625 0 
L 9.8125 0 
z
" id="DejaVuSans-77"/>
      <path d="M 53.515625 70.515625 
L 53.515625 60.890625 
Q 47.90625 63.578125 42.921875 64.890625 
Q 37.9375 66.21875 33.296875 66.21875 
Q 25.25 66.21875 20.875 63.09375 
Q 16.5 59.96875 16.5 54.203125 
Q 16.5 49.359375 19.40625 46.890625 
Q 22.3125 44.4375 30.421875 42.921875 
L 36.375 41.703125 
Q 47.40625 39.59375 52.65625 34.296875 
Q 57.90625 29 57.90625 20.125 
Q 57.90625 9.515625 50.796875 4.046875 
Q 43.703125 -1.421875 29.984375 -1.421875 
Q 24.8125 -1.421875 18.96875 -0.25 
Q 13.140625 0.921875 6.890625 3.21875 
L 6.890625 13.375 
Q 12.890625 10.015625 18.65625 8.296875 
Q 24.421875 6.59375 29.984375 6.59375 
Q 38.421875 6.59375 43.015625 9.90625 
Q 47.609375 13.234375 47.609375 19.390625 
Q 47.609375 24.75 44.3125 27.78125 
Q 41.015625 30.8125 33.5 32.328125 
L 27.484375 33.5 
Q 16.453125 35.6875 11.515625 40.375 
Q 6.59375 45.0625 6.59375 53.421875 
Q 6.59375 63.09375 13.40625 68.65625 
Q 20.21875 74.21875 32.171875 74.21875 
Q 37.3125 74.21875 42.625 73.28125 
Q 47.953125 72.359375 53.515625 70.515625 
z
" id="DejaVuSans-83"/>
      <path d="M 19.671875 64.796875 
L 19.671875 8.109375 
L 31.59375 8.109375 
Q 46.6875 8.109375 53.6875 14.9375 
Q 60.6875 21.78125 60.6875 36.53125 
Q 60.6875 51.171875 53.6875 57.984375 
Q 46.6875 64.796875 31.59375 64.796875 
z
M 9.8125 72.90625 
L 30.078125 72.90625 
Q 51.265625 72.90625 61.171875 64.09375 
Q 71.09375 55.28125 71.09375 36.53125 
Q 71.09375 17.671875 61.125 8.828125 
Q 51.171875 0 30.078125 0 
L 9.8125 0 
z
" id="DejaVuSans-68"/>
     </defs>
     <g style="fill:#262626;" transform="translate(45.192187 531.626)rotate(-90)scale(0.5 -0.5)">
      <use xlink:href="#DejaVuSans-82"/>
      <use x="69.482422" xlink:href="#DejaVuSans-77"/>
      <use x="155.761719" xlink:href="#DejaVuSans-83"/>
      <use x="219.238281" xlink:href="#DejaVuSans-68"/>
     </g>
    </g>
   </g>
   <g id="PolyCollection_1">
    <defs>
     <path d="M 226.232367 -156.70774 
L 225.198883 -156.70774 
L 224.995288 -159.366405 
L 224.729652 -162.02507 
L 224.390116 -164.683735 
L 223.964877 -167.3424 
L 223.442949 -170.001065 
L 222.815009 -172.65973 
L 222.074241 -175.318396 
L 221.217081 -177.977061 
L 220.243756 -180.635726 
L 219.158527 -183.294391 
L 217.96956 -185.953056 
L 216.68841 -188.611721 
L 215.329166 -191.270386 
L 213.907337 -193.929051 
L 212.438636 -196.587717 
L 210.937836 -199.246382 
L 209.417885 -201.905047 
L 207.889433 -204.563712 
L 206.360857 -207.222377 
L 204.838816 -209.881042 
L 203.329226 -212.539707 
L 201.838501 -215.198372 
L 200.374813 -217.857038 
L 198.949104 -220.515703 
L 197.575605 -223.174368 
L 196.271685 -225.833033 
L 195.056955 -228.491698 
L 193.951705 -231.150363 
L 192.974848 -233.809028 
L 192.141689 -236.467693 
L 191.46187 -239.126358 
L 190.937856 -241.785024 
L 190.564261 -244.443689 
L 190.328195 -247.102354 
L 190.210663 -249.761019 
L 190.188875 -252.419684 
L 190.239187 -255.078349 
L 190.340264 -257.737014 
L 190.476013 -260.395679 
L 190.63786 -263.054345 
L 190.826001 -265.71301 
L 191.049422 -268.371675 
L 191.324643 -271.03034 
L 191.673333 -273.689005 
L 192.119097 -276.34767 
L 192.683874 -279.006335 
L 193.384432 -281.665 
L 194.229439 -284.323666 
L 195.217518 -286.982331 
L 196.336535 -289.640996 
L 197.564229 -292.299661 
L 198.870087 -294.958326 
L 200.218217 -297.616991 
L 201.570823 -300.275656 
L 202.89186 -302.934321 
L 204.150376 -305.592986 
L 205.323158 -308.251652 
L 206.396367 -310.910317 
L 207.366013 -313.568982 
L 208.237255 -316.227647 
L 209.022697 -318.886312 
L 209.739937 -321.544977 
L 210.408759 -324.203642 
L 211.048332 -326.862307 
L 211.67482 -329.520973 
L 212.299658 -332.179638 
L 212.928698 -334.838303 
L 213.562246 -337.496968 
L 214.1959 -340.155633 
L 214.821985 -342.814298 
L 215.431312 -345.472963 
L 216.014958 -348.131628 
L 216.56581 -350.790294 
L 217.079667 -353.448959 
L 217.555776 -356.107624 
L 217.996819 -358.766289 
L 218.40839 -361.424954 
L 218.798116 -364.083619 
L 219.174582 -366.742284 
L 219.546225 -369.400949 
L 219.920343 -372.059614 
L 220.302331 -374.71828 
L 220.695194 -377.376945 
L 221.099372 -380.03561 
L 221.512842 -382.694275 
L 221.931467 -385.35294 
L 222.349514 -388.011605 
L 222.760285 -390.67027 
L 223.156774 -393.328935 
L 223.532298 -395.987601 
L 223.881025 -398.646266 
L 224.198384 -401.304931 
L 224.48131 -403.963596 
L 224.728333 -406.622261 
L 224.939514 -409.280926 
L 225.116263 -411.939591 
L 225.26107 -414.598256 
L 225.37719 -417.256922 
L 225.468322 -419.915587 
L 225.962928 -419.915587 
L 225.962928 -419.915587 
L 226.05406 -417.256922 
L 226.17018 -414.598256 
L 226.314987 -411.939591 
L 226.491736 -409.280926 
L 226.702917 -406.622261 
L 226.94994 -403.963596 
L 227.232866 -401.304931 
L 227.550225 -398.646266 
L 227.898952 -395.987601 
L 228.274476 -393.328935 
L 228.670965 -390.67027 
L 229.081736 -388.011605 
L 229.499783 -385.35294 
L 229.918408 -382.694275 
L 230.331878 -380.03561 
L 230.736056 -377.376945 
L 231.128919 -374.71828 
L 231.510907 -372.059614 
L 231.885025 -369.400949 
L 232.256668 -366.742284 
L 232.633134 -364.083619 
L 233.02286 -361.424954 
L 233.434431 -358.766289 
L 233.875474 -356.107624 
L 234.351583 -353.448959 
L 234.86544 -350.790294 
L 235.416292 -348.131628 
L 235.999938 -345.472963 
L 236.609265 -342.814298 
L 237.23535 -340.155633 
L 237.869004 -337.496968 
L 238.502552 -334.838303 
L 239.131592 -332.179638 
L 239.75643 -329.520973 
L 240.382918 -326.862307 
L 241.022491 -324.203642 
L 241.691313 -321.544977 
L 242.408553 -318.886312 
L 243.193995 -316.227647 
L 244.065237 -313.568982 
L 245.034883 -310.910317 
L 246.108092 -308.251652 
L 247.280874 -305.592986 
L 248.53939 -302.934321 
L 249.860427 -300.275656 
L 251.213033 -297.616991 
L 252.561163 -294.958326 
L 253.867021 -292.299661 
L 255.094715 -289.640996 
L 256.213732 -286.982331 
L 257.201811 -284.323666 
L 258.046818 -281.665 
L 258.747376 -279.006335 
L 259.312153 -276.34767 
L 259.757917 -273.689005 
L 260.106607 -271.03034 
L 260.381828 -268.371675 
L 260.605249 -265.71301 
L 260.79339 -263.054345 
L 260.955237 -260.395679 
L 261.090986 -257.737014 
L 261.192063 -255.078349 
L 261.242375 -252.419684 
L 261.220587 -249.761019 
L 261.103055 -247.102354 
L 260.866989 -244.443689 
L 260.493394 -241.785024 
L 259.96938 -239.126358 
L 259.289561 -236.467693 
L 258.456402 -233.809028 
L 257.479545 -231.150363 
L 256.374295 -228.491698 
L 255.159565 -225.833033 
L 253.855645 -223.174368 
L 252.482146 -220.515703 
L 251.056437 -217.857038 
L 249.592749 -215.198372 
L 248.102024 -212.539707 
L 246.592434 -209.881042 
L 245.070393 -207.222377 
L 243.541817 -204.563712 
L 242.013365 -201.905047 
L 240.493414 -199.246382 
L 238.992614 -196.587717 
L 237.523913 -193.929051 
L 236.102084 -191.270386 
L 234.74284 -188.611721 
L 233.46169 -185.953056 
L 232.272723 -183.294391 
L 231.187494 -180.635726 
L 230.214169 -177.977061 
L 229.357009 -175.318396 
L 228.616241 -172.65973 
L 227.988301 -170.001065 
L 227.466373 -167.3424 
L 227.041134 -164.683735 
L 226.701598 -162.02507 
L 226.435962 -159.366405 
L 226.232367 -156.70774 
z
" id="m8ef800bd73" style="stroke:#262626;stroke-width:1.5;"/>
    </defs>
    <g clip-path="url(#p66fa9c60f7)">
     <use style="fill:#b55d60;stroke:#262626;stroke-width:1.5;" x="0" xlink:href="#m8ef800bd73" y="852.24475"/>
    </g>
   </g>
   <g id="PolyCollection_2">
    <defs>
     <path d="M 411.817229 -167.188228 
L 411.614021 -167.188228 
L 411.514411 -169.920329 
L 411.343689 -172.65243 
L 411.072227 -175.384531 
L 410.670482 -178.116632 
L 410.11431 -180.848733 
L 409.388504 -183.580834 
L 408.485908 -186.312935 
L 407.401572 -189.045037 
L 406.124851 -191.777138 
L 404.63484 -194.509239 
L 402.903688 -197.24134 
L 400.908035 -199.973441 
L 398.643603 -202.705542 
L 396.135528 -205.437643 
L 393.438977 -208.169744 
L 390.629639 -210.901846 
L 387.788465 -213.633947 
L 384.987148 -216.366048 
L 382.280082 -219.098149 
L 379.705742 -221.83025 
L 377.29634 -224.562351 
L 375.090151 -227.294452 
L 373.137916 -230.026553 
L 371.49631 -232.758655 
L 370.208445 -235.490756 
L 369.280592 -238.222857 
L 368.669142 -240.954958 
L 368.287725 -243.687059 
L 368.033317 -246.41916 
L 367.819756 -249.151261 
L 367.604326 -251.883362 
L 367.39855 -254.615463 
L 367.262667 -257.347565 
L 367.288404 -260.079666 
L 367.575296 -262.811767 
L 368.204857 -265.543868 
L 369.217482 -268.275969 
L 370.598205 -271.00807 
L 372.276728 -273.740171 
L 374.142725 -276.472272 
L 376.071599 -279.204374 
L 377.952277 -281.936475 
L 379.708832 -284.668576 
L 381.310747 -287.400677 
L 382.77023 -290.132778 
L 384.128736 -292.864879 
L 385.438243 -295.59698 
L 386.744511 -298.329081 
L 388.077635 -301.061183 
L 389.450224 -303.793284 
L 390.859254 -306.525385 
L 392.287725 -309.257486 
L 393.706077 -311.989587 
L 395.076619 -314.721688 
L 396.363031 -317.453789 
L 397.542414 -320.18589 
L 398.613686 -322.917991 
L 399.597209 -325.650093 
L 400.525463 -328.382194 
L 401.429551 -331.114295 
L 402.327776 -333.846396 
L 403.220435 -336.578497 
L 404.091471 -339.310598 
L 404.915162 -342.042699 
L 405.665115 -344.7748 
L 406.322739 -347.506902 
L 406.882589 -350.239003 
L 407.352884 -352.971104 
L 407.751363 -355.703205 
L 408.098794 -358.435306 
L 408.41341 -361.167407 
L 408.708393 -363.899508 
L 408.992213 -366.631609 
L 409.269876 -369.363711 
L 409.543271 -372.095812 
L 409.810401 -374.827913 
L 410.064864 -377.560014 
L 410.29716 -380.292115 
L 410.498189 -383.024216 
L 410.663476 -385.756317 
L 410.7957 -388.488418 
L 410.903712 -391.220519 
L 410.99821 -393.952621 
L 411.08644 -396.684722 
L 411.16903 -399.416823 
L 411.240855 -402.148924 
L 411.295331 -404.881025 
L 411.329461 -407.613126 
L 411.3467 -410.345227 
L 411.356149 -413.077328 
L 411.368801 -415.80943 
L 411.393044 -418.541531 
L 411.431695 -421.273632 
L 411.481742 -424.005733 
L 411.53644 -426.737834 
L 411.58838 -429.469935 
L 411.632029 -432.202036 
L 411.664876 -434.934137 
L 411.687178 -437.666238 
L 411.744072 -437.666238 
L 411.744072 -437.666238 
L 411.766374 -434.934137 
L 411.799221 -432.202036 
L 411.84287 -429.469935 
L 411.89481 -426.737834 
L 411.949508 -424.005733 
L 411.999555 -421.273632 
L 412.038206 -418.541531 
L 412.062449 -415.80943 
L 412.075101 -413.077328 
L 412.08455 -410.345227 
L 412.101789 -407.613126 
L 412.135919 -404.881025 
L 412.190395 -402.148924 
L 412.26222 -399.416823 
L 412.34481 -396.684722 
L 412.43304 -393.952621 
L 412.527538 -391.220519 
L 412.63555 -388.488418 
L 412.767774 -385.756317 
L 412.933061 -383.024216 
L 413.13409 -380.292115 
L 413.366386 -377.560014 
L 413.620849 -374.827913 
L 413.887979 -372.095812 
L 414.161374 -369.363711 
L 414.439037 -366.631609 
L 414.722857 -363.899508 
L 415.01784 -361.167407 
L 415.332456 -358.435306 
L 415.679887 -355.703205 
L 416.078366 -352.971104 
L 416.548661 -350.239003 
L 417.108511 -347.506902 
L 417.766135 -344.7748 
L 418.516088 -342.042699 
L 419.339779 -339.310598 
L 420.210815 -336.578497 
L 421.103474 -333.846396 
L 422.001699 -331.114295 
L 422.905787 -328.382194 
L 423.834041 -325.650093 
L 424.817564 -322.917991 
L 425.888836 -320.18589 
L 427.068219 -317.453789 
L 428.354631 -314.721688 
L 429.725173 -311.989587 
L 431.143525 -309.257486 
L 432.571996 -306.525385 
L 433.981026 -303.793284 
L 435.353615 -301.061183 
L 436.686739 -298.329081 
L 437.993007 -295.59698 
L 439.302514 -292.864879 
L 440.66102 -290.132778 
L 442.120503 -287.400677 
L 443.722418 -284.668576 
L 445.478973 -281.936475 
L 447.359651 -279.204374 
L 449.288525 -276.472272 
L 451.154522 -273.740171 
L 452.833045 -271.00807 
L 454.213768 -268.275969 
L 455.226393 -265.543868 
L 455.855954 -262.811767 
L 456.142846 -260.079666 
L 456.168583 -257.347565 
L 456.0327 -254.615463 
L 455.826924 -251.883362 
L 455.611494 -249.151261 
L 455.397933 -246.41916 
L 455.143525 -243.687059 
L 454.762108 -240.954958 
L 454.150658 -238.222857 
L 453.222805 -235.490756 
L 451.93494 -232.758655 
L 450.293334 -230.026553 
L 448.341099 -227.294452 
L 446.13491 -224.562351 
L 443.725508 -221.83025 
L 441.151168 -219.098149 
L 438.444102 -216.366048 
L 435.642785 -213.633947 
L 432.801611 -210.901846 
L 429.992273 -208.169744 
L 427.295722 -205.437643 
L 424.787647 -202.705542 
L 422.523215 -199.973441 
L 420.527562 -197.24134 
L 418.79641 -194.509239 
L 417.306399 -191.777138 
L 416.029678 -189.045037 
L 414.945342 -186.312935 
L 414.042746 -183.580834 
L 413.31694 -180.848733 
L 412.760768 -178.116632 
L 412.359023 -175.384531 
L 412.087561 -172.65243 
L 411.916839 -169.920329 
L 411.817229 -167.188228 
z
" id="mc8aeb2e647" style="stroke:#262626;stroke-width:1.5;"/>
    </defs>
    <g clip-path="url(#p66fa9c60f7)">
     <use style="fill:#5875a4;stroke:#262626;stroke-width:1.5;" x="0" xlink:href="#mc8aeb2e647" y="852.24475"/>
    </g>
   </g>
   <g id="PolyCollection_3">
    <defs>
     <path d="M 602.243273 -195.946165 
L 593.187977 -195.946165 
L 592.383368 -197.010314 
L 591.473852 -198.074463 
L 590.453406 -199.138613 
L 589.317109 -200.202762 
L 588.061433 -201.266911 
L 586.684518 -202.331061 
L 585.186425 -203.39521 
L 583.569362 -204.459359 
L 581.83786 -205.523508 
L 579.998883 -206.587658 
L 578.061869 -207.651807 
L 576.038679 -208.715956 
L 573.943458 -209.780106 
L 571.792389 -210.844255 
L 569.603359 -211.908404 
L 567.395519 -212.972554 
L 565.188772 -214.036703 
L 563.003184 -215.100852 
L 560.858351 -216.165001 
L 558.772748 -217.229151 
L 556.763073 -218.2933 
L 554.843637 -219.357449 
L 553.02582 -220.421599 
L 551.317618 -221.485748 
L 549.723324 -222.549897 
L 548.243355 -223.614046 
L 546.874237 -224.678196 
L 545.608779 -225.742345 
L 544.436407 -226.806494 
L 543.343678 -227.870644 
L 542.31494 -228.934793 
L 541.333118 -229.998942 
L 540.38059 -231.063091 
L 539.440122 -232.127241 
L 538.495803 -233.19139 
L 537.533948 -234.255539 
L 536.54392 -235.319689 
L 535.518821 -236.383838 
L 534.456021 -237.447987 
L 533.357503 -238.512137 
L 532.229981 -239.576286 
L 531.084806 -240.640435 
L 529.937646 -241.704584 
L 528.807955 -242.768734 
L 527.718265 -243.832883 
L 526.693321 -244.897032 
L 525.759106 -245.961182 
L 524.941807 -247.025331 
L 524.266775 -248.08948 
L 523.757506 -249.153629 
L 523.434733 -250.217779 
L 523.315625 -251.281928 
L 523.413169 -252.346077 
L 523.73573 -253.410227 
L 524.286826 -254.474376 
L 525.065108 -255.538525 
L 526.064544 -256.602674 
L 527.274791 -257.666824 
L 528.681725 -258.730973 
L 530.268092 -259.795122 
L 532.01425 -260.859272 
L 533.898954 -261.923421 
L 535.900143 -262.98757 
L 537.995692 -264.051719 
L 540.164094 -265.115869 
L 542.385045 -266.180018 
L 544.639902 -267.244167 
L 546.912023 -268.308317 
L 549.18696 -269.372466 
L 551.452524 -270.436615 
L 553.698733 -271.500765 
L 555.917657 -272.564914 
L 558.103175 -273.629063 
L 560.250687 -274.693212 
L 562.356782 -275.757362 
L 564.418912 -276.821511 
L 566.435068 -277.88566 
L 568.403497 -278.94981 
L 570.32247 -280.013959 
L 572.190097 -281.078108 
L 574.004217 -282.142257 
L 575.76234 -283.206407 
L 577.461655 -284.270556 
L 579.099089 -285.334705 
L 580.6714 -286.398855 
L 582.175309 -287.463004 
L 583.607639 -288.527153 
L 584.965472 -289.591302 
L 586.246287 -290.655452 
L 587.448088 -291.719601 
L 588.569514 -292.78375 
L 589.609911 -293.8479 
L 590.56938 -294.912049 
L 591.44879 -295.976198 
L 592.249763 -297.040348 
L 592.974629 -298.104497 
L 593.626359 -299.168646 
L 594.208477 -300.232795 
L 594.724965 -301.296945 
L 600.706285 -301.296945 
L 600.706285 -301.296945 
L 601.222773 -300.232795 
L 601.804891 -299.168646 
L 602.456621 -298.104497 
L 603.181487 -297.040348 
L 603.98246 -295.976198 
L 604.86187 -294.912049 
L 605.821339 -293.8479 
L 606.861736 -292.78375 
L 607.983162 -291.719601 
L 609.184963 -290.655452 
L 610.465778 -289.591302 
L 611.823611 -288.527153 
L 613.255941 -287.463004 
L 614.75985 -286.398855 
L 616.332161 -285.334705 
L 617.969595 -284.270556 
L 619.66891 -283.206407 
L 621.427033 -282.142257 
L 623.241153 -281.078108 
L 625.10878 -280.013959 
L 627.027753 -278.94981 
L 628.996182 -277.88566 
L 631.012338 -276.821511 
L 633.074468 -275.757362 
L 635.180563 -274.693212 
L 637.328075 -273.629063 
L 639.513593 -272.564914 
L 641.732517 -271.500765 
L 643.978726 -270.436615 
L 646.24429 -269.372466 
L 648.519227 -268.308317 
L 650.791348 -267.244167 
L 653.046205 -266.180018 
L 655.267156 -265.115869 
L 657.435558 -264.051719 
L 659.531107 -262.98757 
L 661.532296 -261.923421 
L 663.417 -260.859272 
L 665.163158 -259.795122 
L 666.749525 -258.730973 
L 668.156459 -257.666824 
L 669.366706 -256.602674 
L 670.366142 -255.538525 
L 671.144424 -254.474376 
L 671.69552 -253.410227 
L 672.018081 -252.346077 
L 672.115625 -251.281928 
L 671.996517 -250.217779 
L 671.673744 -249.153629 
L 671.164475 -248.08948 
L 670.489443 -247.025331 
L 669.672144 -245.961182 
L 668.737929 -244.897032 
L 667.712985 -243.832883 
L 666.623295 -242.768734 
L 665.493604 -241.704584 
L 664.346444 -240.640435 
L 663.201269 -239.576286 
L 662.073747 -238.512137 
L 660.975229 -237.447987 
L 659.912429 -236.383838 
L 658.88733 -235.319689 
L 657.897302 -234.255539 
L 656.935447 -233.19139 
L 655.991128 -232.127241 
L 655.05066 -231.063091 
L 654.098132 -229.998942 
L 653.11631 -228.934793 
L 652.087572 -227.870644 
L 650.994843 -226.806494 
L 649.822471 -225.742345 
L 648.557013 -224.678196 
L 647.187895 -223.614046 
L 645.707926 -222.549897 
L 644.113632 -221.485748 
L 642.40543 -220.421599 
L 640.587613 -219.357449 
L 638.668177 -218.2933 
L 636.658502 -217.229151 
L 634.572899 -216.165001 
L 632.428066 -215.100852 
L 630.242478 -214.036703 
L 628.035731 -212.972554 
L 625.827891 -211.908404 
L 623.638861 -210.844255 
L 621.487792 -209.780106 
L 619.392571 -208.715956 
L 617.369381 -207.651807 
L 615.432367 -206.587658 
L 613.59339 -205.523508 
L 611.861888 -204.459359 
L 610.244825 -203.39521 
L 608.746732 -202.331061 
L 607.369817 -201.266911 
L 606.114141 -200.202762 
L 604.977844 -199.138613 
L 603.957398 -198.074463 
L 603.047882 -197.010314 
L 602.243273 -195.946165 
z
" id="mc9f5dcbe43" style="stroke:#262626;stroke-width:1.5;"/>
    </defs>
    <g clip-path="url(#p66fa9c60f7)">
     <use style="fill:#107010;stroke:#262626;stroke-width:1.5;" x="0" xlink:href="#mc9f5dcbe43" y="852.24475"/>
    </g>
   </g>
   <g id="line2d_12">
    <path clip-path="url(#p66fa9c60f7)" d="M 225.715625 659.192206 
L 225.715625 484.93358 
" style="fill:none;stroke:#262626;stroke-linecap:round;stroke-width:1.5;"/>
   </g>
   <g id="line2d_13">
    <path clip-path="url(#p66fa9c60f7)" d="M 225.715625 615.205164 
L 225.715625 559.460923 
" style="fill:none;stroke:#262626;stroke-linecap:round;stroke-width:4.5;"/>
   </g>
   <g id="line2d_14">
    <path clip-path="url(#p66fa9c60f7)" d="M 411.715625 666.311902 
L 411.715625 488.643702 
" style="fill:none;stroke:#262626;stroke-linecap:round;stroke-width:1.5;"/>
   </g>
   <g id="line2d_15">
    <path clip-path="url(#p66fa9c60f7)" d="M 411.715625 616.201769 
L 411.715625 564.423847 
" style="fill:none;stroke:#262626;stroke-linecap:round;stroke-width:4.5;"/>
   </g>
   <g id="line2d_16">
    <path clip-path="url(#p66fa9c60f7)" d="M 597.715625 629.426972 
L 597.715625 577.819419 
" style="fill:none;stroke:#262626;stroke-linecap:round;stroke-width:1.5;"/>
   </g>
   <g id="line2d_17">
    <path clip-path="url(#p66fa9c60f7)" d="M 597.715625 620.109061 
L 597.715625 598.594518 
" style="fill:none;stroke:#262626;stroke-linecap:round;stroke-width:4.5;"/>
   </g>
   <g id="line2d_18">
    <path d="M 225.715625 163.7315 
L 225.715625 152.6435 
L 411.715625 152.6435 
L 411.715625 163.7315 
" style="fill:none;stroke:#333333;stroke-linecap:round;stroke-width:1.5;"/>
   </g>
   <g id="line2d_19">
    <path d="M 411.715625 103.1235 
L 411.715625 92.0355 
L 597.715625 92.0355 
L 597.715625 103.1235 
" style="fill:none;stroke:#333333;stroke-linecap:round;stroke-width:1.5;"/>
   </g>
   <g id="line2d_20">
    <path d="M 225.715625 42.5155 
L 225.715625 31.4275 
L 597.715625 31.4275 
L 597.715625 42.5155 
" style="fill:none;stroke:#333333;stroke-linecap:round;stroke-width:1.5;"/>
   </g>
   <g id="patch_3">
    <path d="M 132.715625 734.7635 
L 132.715625 180.3635 
" style="fill:none;stroke:#262626;stroke-linecap:square;stroke-linejoin:miter;stroke-width:1.25;"/>
   </g>
   <g id="patch_4">
    <path d="M 690.715625 734.7635 
L 690.715625 180.3635 
" style="fill:none;stroke:#262626;stroke-linecap:square;stroke-linejoin:miter;stroke-width:1.25;"/>
   </g>
   <g id="patch_5">
    <path d="M 132.715625 734.7635 
L 690.715625 734.7635 
" style="fill:none;stroke:#262626;stroke-linecap:square;stroke-linejoin:miter;stroke-width:1.25;"/>
   </g>
   <g id="patch_6">
    <path d="M 132.715625 180.3635 
L 690.715625 180.3635 
" style="fill:none;stroke:#262626;stroke-linecap:square;stroke-linejoin:miter;stroke-width:1.25;"/>
   </g>
   <g id="PathCollection_1">
    <defs>
     <path d="M 0 1.5 
C 0.397805 1.5 0.77937 1.341951 1.06066 1.06066 
C 1.341951 0.77937 1.5 0.397805 1.5 0 
C 1.5 -0.397805 1.341951 -0.77937 1.06066 -1.06066 
C 0.77937 -1.341951 0.397805 -1.5 0 -1.5 
C -0.397805 -1.5 -0.77937 -1.341951 -1.06066 -1.06066 
C -1.341951 -0.77937 -1.5 -0.397805 -1.5 0 
C -1.5 0.397805 -1.341951 0.77937 -1.06066 1.06066 
C -0.77937 1.341951 -0.397805 1.5 0 1.5 
z
" id="ma1b5834ede" style="stroke:#262626;"/>
    </defs>
    <g clip-path="url(#p66fa9c60f7)">
     <use style="fill:#ffffff;stroke:#262626;" x="225.715625" xlink:href="#ma1b5834ede" y="585.179446"/>
    </g>
   </g>
   <g id="PathCollection_2">
    <g clip-path="url(#p66fa9c60f7)">
     <use style="fill:#ffffff;stroke:#262626;" x="411.715625" xlink:href="#ma1b5834ede" y="592.145413"/>
    </g>
   </g>
   <g id="PathCollection_3">
    <g clip-path="url(#p66fa9c60f7)">
     <use style="fill:#ffffff;stroke:#262626;" x="597.715625" xlink:href="#ma1b5834ede" y="600.946656"/>
    </g>
   </g>
   <g id="text_14">
    <!-- Ranksum p = 4.236e-01 -->
    <defs>
     <path d="M 34.28125 27.484375 
Q 23.390625 27.484375 19.1875 25 
Q 14.984375 22.515625 14.984375 16.5 
Q 14.984375 11.71875 18.140625 8.90625 
Q 21.296875 6.109375 26.703125 6.109375 
Q 34.1875 6.109375 38.703125 11.40625 
Q 43.21875 16.703125 43.21875 25.484375 
L 43.21875 27.484375 
z
M 52.203125 31.203125 
L 52.203125 0 
L 43.21875 0 
L 43.21875 8.296875 
Q 40.140625 3.328125 35.546875 0.953125 
Q 30.953125 -1.421875 24.3125 -1.421875 
Q 15.921875 -1.421875 10.953125 3.296875 
Q 6 8.015625 6 15.921875 
Q 6 25.140625 12.171875 29.828125 
Q 18.359375 34.515625 30.609375 34.515625 
L 43.21875 34.515625 
L 43.21875 35.40625 
Q 43.21875 41.609375 39.140625 45 
Q 35.0625 48.390625 27.6875 48.390625 
Q 23 48.390625 18.546875 47.265625 
Q 14.109375 46.140625 10.015625 43.890625 
L 10.015625 52.203125 
Q 14.9375 54.109375 19.578125 55.046875 
Q 24.21875 56 28.609375 56 
Q 40.484375 56 46.34375 49.84375 
Q 52.203125 43.703125 52.203125 31.203125 
z
" id="DejaVuSans-97"/>
     <path d="M 9.078125 75.984375 
L 18.109375 75.984375 
L 18.109375 31.109375 
L 44.921875 54.6875 
L 56.390625 54.6875 
L 27.390625 29.109375 
L 57.625 0 
L 45.90625 0 
L 18.109375 26.703125 
L 18.109375 0 
L 9.078125 0 
z
" id="DejaVuSans-107"/>
     <path d="M 8.5 21.578125 
L 8.5 54.6875 
L 17.484375 54.6875 
L 17.484375 21.921875 
Q 17.484375 14.15625 20.5 10.265625 
Q 23.53125 6.390625 29.59375 6.390625 
Q 36.859375 6.390625 41.078125 11.03125 
Q 45.3125 15.671875 45.3125 23.6875 
L 45.3125 54.6875 
L 54.296875 54.6875 
L 54.296875 0 
L 45.3125 0 
L 45.3125 8.40625 
Q 42.046875 3.421875 37.71875 1 
Q 33.40625 -1.421875 27.6875 -1.421875 
Q 18.265625 -1.421875 13.375 4.4375 
Q 8.5 10.296875 8.5 21.578125 
z
M 31.109375 56 
z
" id="DejaVuSans-117"/>
     <path d="M 52 44.1875 
Q 55.375 50.25 60.0625 53.125 
Q 64.75 56 71.09375 56 
Q 79.640625 56 84.28125 50.015625 
Q 88.921875 44.046875 88.921875 33.015625 
L 88.921875 0 
L 79.890625 0 
L 79.890625 32.71875 
Q 79.890625 40.578125 77.09375 44.375 
Q 74.3125 48.1875 68.609375 48.1875 
Q 61.625 48.1875 57.5625 43.546875 
Q 53.515625 38.921875 53.515625 30.90625 
L 53.515625 0 
L 44.484375 0 
L 44.484375 32.71875 
Q 44.484375 40.625 41.703125 44.40625 
Q 38.921875 48.1875 33.109375 48.1875 
Q 26.21875 48.1875 22.15625 43.53125 
Q 18.109375 38.875 18.109375 30.90625 
L 18.109375 0 
L 9.078125 0 
L 9.078125 54.6875 
L 18.109375 54.6875 
L 18.109375 46.1875 
Q 21.1875 51.21875 25.484375 53.609375 
Q 29.78125 56 35.6875 56 
Q 41.65625 56 45.828125 52.96875 
Q 50 49.953125 52 44.1875 
z
" id="DejaVuSans-109"/>
     <path id="DejaVuSans-32"/>
     <path d="M 10.59375 45.40625 
L 73.1875 45.40625 
L 73.1875 37.203125 
L 10.59375 37.203125 
z
M 10.59375 25.484375 
L 73.1875 25.484375 
L 73.1875 17.1875 
L 10.59375 17.1875 
z
" id="DejaVuSans-61"/>
     <path d="M 10.6875 12.40625 
L 21 12.40625 
L 21 0 
L 10.6875 0 
z
" id="DejaVuSans-46"/>
     <path d="M 40.578125 39.3125 
Q 47.65625 37.796875 51.625 33 
Q 55.609375 28.21875 55.609375 21.1875 
Q 55.609375 10.40625 48.1875 4.484375 
Q 40.765625 -1.421875 27.09375 -1.421875 
Q 22.515625 -1.421875 17.65625 -0.515625 
Q 12.796875 0.390625 7.625 2.203125 
L 7.625 11.71875 
Q 11.71875 9.328125 16.59375 8.109375 
Q 21.484375 6.890625 26.8125 6.890625 
Q 36.078125 6.890625 40.9375 10.546875 
Q 45.796875 14.203125 45.796875 21.1875 
Q 45.796875 27.640625 41.28125 31.265625 
Q 36.765625 34.90625 28.71875 34.90625 
L 20.21875 34.90625 
L 20.21875 43.015625 
L 29.109375 43.015625 
Q 36.375 43.015625 40.234375 45.921875 
Q 44.09375 48.828125 44.09375 54.296875 
Q 44.09375 59.90625 40.109375 62.90625 
Q 36.140625 65.921875 28.71875 65.921875 
Q 24.65625 65.921875 20.015625 65.03125 
Q 15.375 64.15625 9.8125 62.3125 
L 9.8125 71.09375 
Q 15.4375 72.65625 20.34375 73.4375 
Q 25.25 74.21875 29.59375 74.21875 
Q 40.828125 74.21875 47.359375 69.109375 
Q 53.90625 64.015625 53.90625 55.328125 
Q 53.90625 49.265625 50.4375 45.09375 
Q 46.96875 40.921875 40.578125 39.3125 
z
" id="DejaVuSans-51"/>
    </defs>
    <g style="fill:#262626;" transform="translate(172.743125 146.65225)scale(0.24 -0.24)">
     <use xlink:href="#DejaVuSans-82"/>
     <use x="67.232422" xlink:href="#DejaVuSans-97"/>
     <use x="128.511719" xlink:href="#DejaVuSans-110"/>
     <use x="191.890625" xlink:href="#DejaVuSans-107"/>
     <use x="249.800781" xlink:href="#DejaVuSans-115"/>
     <use x="301.900391" xlink:href="#DejaVuSans-117"/>
     <use x="365.279297" xlink:href="#DejaVuSans-109"/>
     <use x="462.691406" xlink:href="#DejaVuSans-32"/>
     <use x="494.478516" xlink:href="#DejaVuSans-112"/>
     <use x="557.955078" xlink:href="#DejaVuSans-32"/>
     <use x="589.742188" xlink:href="#DejaVuSans-61"/>
     <use x="673.53125" xlink:href="#DejaVuSans-32"/>
     <use x="705.318359" xlink:href="#DejaVuSans-52"/>
     <use x="768.941406" xlink:href="#DejaVuSans-46"/>
     <use x="800.728516" xlink:href="#DejaVuSans-50"/>
     <use x="864.351562" xlink:href="#DejaVuSans-51"/>
     <use x="927.974609" xlink:href="#DejaVuSans-54"/>
     <use x="991.597656" xlink:href="#DejaVuSans-101"/>
     <use x="1053.121094" xlink:href="#DejaVuSans-45"/>
     <use x="1089.205078" xlink:href="#DejaVuSans-48"/>
     <use x="1152.828125" xlink:href="#DejaVuSans-49"/>
    </g>
   </g>
   <g id="text_15">
    <!-- Ranksum p = 2.523e-01 -->
    <defs>
     <path d="M 10.796875 72.90625 
L 49.515625 72.90625 
L 49.515625 64.59375 
L 19.828125 64.59375 
L 19.828125 46.734375 
Q 21.96875 47.46875 24.109375 47.828125 
Q 26.265625 48.1875 28.421875 48.1875 
Q 40.625 48.1875 47.75 41.5 
Q 54.890625 34.8125 54.890625 23.390625 
Q 54.890625 11.625 47.5625 5.09375 
Q 40.234375 -1.421875 26.90625 -1.421875 
Q 22.3125 -1.421875 17.546875 -0.640625 
Q 12.796875 0.140625 7.71875 1.703125 
L 7.71875 11.625 
Q 12.109375 9.234375 16.796875 8.0625 
Q 21.484375 6.890625 26.703125 6.890625 
Q 35.15625 6.890625 40.078125 11.328125 
Q 45.015625 15.765625 45.015625 23.390625 
Q 45.015625 31 40.078125 35.4375 
Q 35.15625 39.890625 26.703125 39.890625 
Q 22.75 39.890625 18.8125 39.015625 
Q 14.890625 38.140625 10.796875 36.28125 
z
" id="DejaVuSans-53"/>
    </defs>
    <g style="fill:#262626;" transform="translate(358.743125 86.04425)scale(0.24 -0.24)">
     <use xlink:href="#DejaVuSans-82"/>
     <use x="67.232422" xlink:href="#DejaVuSans-97"/>
     <use x="128.511719" xlink:href="#DejaVuSans-110"/>
     <use x="191.890625" xlink:href="#DejaVuSans-107"/>
     <use x="249.800781" xlink:href="#DejaVuSans-115"/>
     <use x="301.900391" xlink:href="#DejaVuSans-117"/>
     <use x="365.279297" xlink:href="#DejaVuSans-109"/>
     <use x="462.691406" xlink:href="#DejaVuSans-32"/>
     <use x="494.478516" xlink:href="#DejaVuSans-112"/>
     <use x="557.955078" xlink:href="#DejaVuSans-32"/>
     <use x="589.742188" xlink:href="#DejaVuSans-61"/>
     <use x="673.53125" xlink:href="#DejaVuSans-32"/>
     <use x="705.318359" xlink:href="#DejaVuSans-50"/>
     <use x="768.941406" xlink:href="#DejaVuSans-46"/>
     <use x="800.728516" xlink:href="#DejaVuSans-53"/>
     <use x="864.351562" xlink:href="#DejaVuSans-50"/>
     <use x="927.974609" xlink:href="#DejaVuSans-51"/>
     <use x="991.597656" xlink:href="#DejaVuSans-101"/>
     <use x="1053.121094" xlink:href="#DejaVuSans-45"/>
     <use x="1089.205078" xlink:href="#DejaVuSans-48"/>
     <use x="1152.828125" xlink:href="#DejaVuSans-49"/>
    </g>
   </g>
   <g id="text_16">
    <!-- Ranksum p = 2.139e-01 -->
    <defs>
     <path d="M 10.984375 1.515625 
L 10.984375 10.5 
Q 14.703125 8.734375 18.5 7.8125 
Q 22.3125 6.890625 25.984375 6.890625 
Q 35.75 6.890625 40.890625 13.453125 
Q 46.046875 20.015625 46.78125 33.40625 
Q 43.953125 29.203125 39.59375 26.953125 
Q 35.25 24.703125 29.984375 24.703125 
Q 19.046875 24.703125 12.671875 31.3125 
Q 6.296875 37.9375 6.296875 49.421875 
Q 6.296875 60.640625 12.9375 67.421875 
Q 19.578125 74.21875 30.609375 74.21875 
Q 43.265625 74.21875 49.921875 64.515625 
Q 56.59375 54.828125 56.59375 36.375 
Q 56.59375 19.140625 48.40625 8.859375 
Q 40.234375 -1.421875 26.421875 -1.421875 
Q 22.703125 -1.421875 18.890625 -0.6875 
Q 15.09375 0.046875 10.984375 1.515625 
z
M 30.609375 32.421875 
Q 37.25 32.421875 41.125 36.953125 
Q 45.015625 41.5 45.015625 49.421875 
Q 45.015625 57.28125 41.125 61.84375 
Q 37.25 66.40625 30.609375 66.40625 
Q 23.96875 66.40625 20.09375 61.84375 
Q 16.21875 57.28125 16.21875 49.421875 
Q 16.21875 41.5 20.09375 36.953125 
Q 23.96875 32.421875 30.609375 32.421875 
z
" id="DejaVuSans-57"/>
    </defs>
    <g style="fill:#262626;" transform="translate(265.743125 25.43625)scale(0.24 -0.24)">
     <use xlink:href="#DejaVuSans-82"/>
     <use x="67.232422" xlink:href="#DejaVuSans-97"/>
     <use x="128.511719" xlink:href="#DejaVuSans-110"/>
     <use x="191.890625" xlink:href="#DejaVuSans-107"/>
     <use x="249.800781" xlink:href="#DejaVuSans-115"/>
     <use x="301.900391" xlink:href="#DejaVuSans-117"/>
     <use x="365.279297" xlink:href="#DejaVuSans-109"/>
     <use x="462.691406" xlink:href="#DejaVuSans-32"/>
     <use x="494.478516" xlink:href="#DejaVuSans-112"/>
     <use x="557.955078" xlink:href="#DejaVuSans-32"/>
     <use x="589.742188" xlink:href="#DejaVuSans-61"/>
     <use x="673.53125" xlink:href="#DejaVuSans-32"/>
     <use x="705.318359" xlink:href="#DejaVuSans-50"/>
     <use x="768.941406" xlink:href="#DejaVuSans-46"/>
     <use x="800.728516" xlink:href="#DejaVuSans-49"/>
     <use x="864.351562" xlink:href="#DejaVuSans-51"/>
     <use x="927.974609" xlink:href="#DejaVuSans-57"/>
     <use x="991.597656" xlink:href="#DejaVuSans-101"/>
     <use x="1053.121094" xlink:href="#DejaVuSans-45"/>
     <use x="1089.205078" xlink:href="#DejaVuSans-48"/>
     <use x="1152.828125" xlink:href="#DejaVuSans-49"/>
    </g>
   </g>
  </g>
 </g>
 <defs>
  <clipPath id="p66fa9c60f7">
   <rect height="554.4" width="558" x="132.715625" y="180.3635"/>
  </clipPath>
 </defs>
</svg>
