<?xml version="1.0" encoding="utf-8" standalone="no"?>
<!DOCTYPE svg PUBLIC "-//W3C//DTD SVG 1.1//EN"
  "http://www.w3.org/Graphics/SVG/1.1/DTD/svg11.dtd">
<!-- Created with matplotlib (https://matplotlib.org/) -->
<svg height="852.24475pt" version="1.1" viewBox="0 0 697.915625 852.24475" width="697.915625pt" xmlns="http://www.w3.org/2000/svg" xmlns:xlink="http://www.w3.org/1999/xlink">
 <defs>
  <style type="text/css">
*{stroke-linecap:butt;stroke-linejoin:round;}
  </style>
 </defs>
 <g id="figure_1">
  <g id="patch_1">
   <path d="M 0 852.24475 
L 697.915625 852.24475 
L 697.915625 0 
L 0 0 
z
" style="fill:#ffffff;"/>
  </g>
  <g id="axes_1">
   <g id="patch_2">
    <path d="M 132.715625 734.7635 
L 690.715625 734.7635 
L 690.715625 180.3635 
L 132.715625 180.3635 
z
" style="fill:#ffffff;"/>
   </g>
   <g id="matplotlib.axis_1">
    <g id="xtick_1">
     <g id="line2d_1">
      <defs>
       <path d="M 0 0 
L 0 6 
" id="mf5eaef5f79" style="stroke:#262626;stroke-width:1.25;"/>
      </defs>
      <g>
       <use style="fill:#262626;stroke:#262626;stroke-width:1.25;" x="225.715625" xlink:href="#mf5eaef5f79" y="734.7635"/>
      </g>
     </g>
     <g id="text_1">
      <!-- Gs -->
      <defs>
       <path d="M 59.515625 10.40625 
L 59.515625 29.984375 
L 43.40625 29.984375 
L 43.40625 38.09375 
L 69.28125 38.09375 
L 69.28125 6.78125 
Q 63.578125 2.734375 56.6875 0.65625 
Q 49.8125 -1.421875 42 -1.421875 
Q 24.90625 -1.421875 15.25 8.5625 
Q 5.609375 18.5625 5.609375 36.375 
Q 5.609375 54.25 15.25 64.234375 
Q 24.90625 74.21875 42 74.21875 
Q 49.125 74.21875 55.546875 72.453125 
Q 61.96875 70.703125 67.390625 67.28125 
L 67.390625 56.78125 
Q 61.921875 61.421875 55.765625 63.765625 
Q 49.609375 66.109375 42.828125 66.109375 
Q 29.4375 66.109375 22.71875 58.640625 
Q 16.015625 51.171875 16.015625 36.375 
Q 16.015625 21.625 22.71875 14.15625 
Q 29.4375 6.6875 42.828125 6.6875 
Q 48.046875 6.6875 52.140625 7.59375 
Q 56.25 8.5 59.515625 10.40625 
z
" id="DejaVuSans-71"/>
       <path d="M 44.28125 53.078125 
L 44.28125 44.578125 
Q 40.484375 46.53125 36.375 47.5 
Q 32.28125 48.484375 27.875 48.484375 
Q 21.1875 48.484375 17.84375 46.4375 
Q 14.5 44.390625 14.5 40.28125 
Q 14.5 37.15625 16.890625 35.375 
Q 19.28125 33.59375 26.515625 31.984375 
L 29.59375 31.296875 
Q 39.15625 29.25 43.1875 25.515625 
Q 47.21875 21.78125 47.21875 15.09375 
Q 47.21875 7.46875 41.1875 3.015625 
Q 35.15625 -1.421875 24.609375 -1.421875 
Q 20.21875 -1.421875 15.453125 -0.5625 
Q 10.6875 0.296875 5.421875 2 
L 5.421875 11.28125 
Q 10.40625 8.6875 15.234375 7.390625 
Q 20.0625 6.109375 24.8125 6.109375 
Q 31.15625 6.109375 34.5625 8.28125 
Q 37.984375 10.453125 37.984375 14.40625 
Q 37.984375 18.0625 35.515625 20.015625 
Q 33.0625 21.96875 24.703125 23.78125 
L 21.578125 24.515625 
Q 13.234375 26.265625 9.515625 29.90625 
Q 5.8125 33.546875 5.8125 39.890625 
Q 5.8125 47.609375 11.28125 51.796875 
Q 16.75 56 26.8125 56 
Q 31.78125 56 36.171875 55.265625 
Q 40.578125 54.546875 44.28125 53.078125 
z
" id="DejaVuSans-115"/>
      </defs>
      <g style="fill:#262626;" transform="translate(193.321094 782.255688)scale(0.5 -0.5)">
       <use xlink:href="#DejaVuSans-71"/>
       <use x="77.490234" xlink:href="#DejaVuSans-115"/>
      </g>
     </g>
    </g>
    <g id="xtick_2">
     <g id="line2d_2">
      <g>
       <use style="fill:#262626;stroke:#262626;stroke-width:1.25;" x="411.715625" xlink:href="#mf5eaef5f79" y="734.7635"/>
      </g>
     </g>
     <g id="text_2">
      <!-- Gio -->
      <defs>
       <path d="M 9.421875 54.6875 
L 18.40625 54.6875 
L 18.40625 0 
L 9.421875 0 
z
M 9.421875 75.984375 
L 18.40625 75.984375 
L 18.40625 64.59375 
L 9.421875 64.59375 
z
" id="DejaVuSans-105"/>
       <path d="M 30.609375 48.390625 
Q 23.390625 48.390625 19.1875 42.75 
Q 14.984375 37.109375 14.984375 27.296875 
Q 14.984375 17.484375 19.15625 11.84375 
Q 23.34375 6.203125 30.609375 6.203125 
Q 37.796875 6.203125 41.984375 11.859375 
Q 46.1875 17.53125 46.1875 27.296875 
Q 46.1875 37.015625 41.984375 42.703125 
Q 37.796875 48.390625 30.609375 48.390625 
z
M 30.609375 56 
Q 42.328125 56 49.015625 48.375 
Q 55.71875 40.765625 55.71875 27.296875 
Q 55.71875 13.875 49.015625 6.21875 
Q 42.328125 -1.421875 30.609375 -1.421875 
Q 18.84375 -1.421875 12.171875 6.21875 
Q 5.515625 13.875 5.515625 27.296875 
Q 5.515625 40.765625 12.171875 48.375 
Q 18.84375 56 30.609375 56 
z
" id="DejaVuSans-111"/>
      </defs>
      <g style="fill:#262626;" transform="translate(370.102344 782.255688)scale(0.5 -0.5)">
       <use xlink:href="#DejaVuSans-71"/>
       <use x="77.490234" xlink:href="#DejaVuSans-105"/>
       <use x="105.273438" xlink:href="#DejaVuSans-111"/>
      </g>
     </g>
    </g>
    <g id="xtick_3">
     <g id="line2d_3">
      <g>
       <use style="fill:#262626;stroke:#262626;stroke-width:1.25;" x="597.715625" xlink:href="#mf5eaef5f79" y="734.7635"/>
      </g>
     </g>
     <g id="text_3">
      <!-- Gq11 -->
      <defs>
       <path d="M 14.796875 27.296875 
Q 14.796875 17.390625 18.875 11.75 
Q 22.953125 6.109375 30.078125 6.109375 
Q 37.203125 6.109375 41.296875 11.75 
Q 45.40625 17.390625 45.40625 27.296875 
Q 45.40625 37.203125 41.296875 42.84375 
Q 37.203125 48.484375 30.078125 48.484375 
Q 22.953125 48.484375 18.875 42.84375 
Q 14.796875 37.203125 14.796875 27.296875 
z
M 45.40625 8.203125 
Q 42.578125 3.328125 38.25 0.953125 
Q 33.9375 -1.421875 27.875 -1.421875 
Q 17.96875 -1.421875 11.734375 6.484375 
Q 5.515625 14.40625 5.515625 27.296875 
Q 5.515625 40.1875 11.734375 48.09375 
Q 17.96875 56 27.875 56 
Q 33.9375 56 38.25 53.625 
Q 42.578125 51.265625 45.40625 46.390625 
L 45.40625 54.6875 
L 54.390625 54.6875 
L 54.390625 -20.796875 
L 45.40625 -20.796875 
z
" id="DejaVuSans-113"/>
       <path d="M 12.40625 8.296875 
L 28.515625 8.296875 
L 28.515625 63.921875 
L 10.984375 60.40625 
L 10.984375 69.390625 
L 28.421875 72.90625 
L 38.28125 72.90625 
L 38.28125 8.296875 
L 54.390625 8.296875 
L 54.390625 0 
L 12.40625 0 
z
" id="DejaVuSans-49"/>
      </defs>
      <g style="fill:#262626;" transform="translate(530.660938 782.255688)scale(0.5 -0.5)">
       <use xlink:href="#DejaVuSans-71"/>
       <use x="77.490234" xlink:href="#DejaVuSans-113"/>
       <use x="140.966797" xlink:href="#DejaVuSans-49"/>
       <use x="204.589844" xlink:href="#DejaVuSans-49"/>
      </g>
     </g>
    </g>
    <g id="text_4">
     <!-- G-protein -->
     <defs>
      <path d="M 4.890625 31.390625 
L 31.203125 31.390625 
L 31.203125 23.390625 
L 4.890625 23.390625 
z
" id="DejaVuSans-45"/>
      <path d="M 18.109375 8.203125 
L 18.109375 -20.796875 
L 9.078125 -20.796875 
L 9.078125 54.6875 
L 18.109375 54.6875 
L 18.109375 46.390625 
Q 20.953125 51.265625 25.265625 53.625 
Q 29.59375 56 35.59375 56 
Q 45.5625 56 51.78125 48.09375 
Q 58.015625 40.1875 58.015625 27.296875 
Q 58.015625 14.40625 51.78125 6.484375 
Q 45.5625 -1.421875 35.59375 -1.421875 
Q 29.59375 -1.421875 25.265625 0.953125 
Q 20.953125 3.328125 18.109375 8.203125 
z
M 48.6875 27.296875 
Q 48.6875 37.203125 44.609375 42.84375 
Q 40.53125 48.484375 33.40625 48.484375 
Q 26.265625 48.484375 22.1875 42.84375 
Q 18.109375 37.203125 18.109375 27.296875 
Q 18.109375 17.390625 22.1875 11.75 
Q 26.265625 6.109375 33.40625 6.109375 
Q 40.53125 6.109375 44.609375 11.75 
Q 48.6875 17.390625 48.6875 27.296875 
z
" id="DejaVuSans-112"/>
      <path d="M 41.109375 46.296875 
Q 39.59375 47.171875 37.8125 47.578125 
Q 36.03125 48 33.890625 48 
Q 26.265625 48 22.1875 43.046875 
Q 18.109375 38.09375 18.109375 28.8125 
L 18.109375 0 
L 9.078125 0 
L 9.078125 54.6875 
L 18.109375 54.6875 
L 18.109375 46.1875 
Q 20.953125 51.171875 25.484375 53.578125 
Q 30.03125 56 36.53125 56 
Q 37.453125 56 38.578125 55.875 
Q 39.703125 55.765625 41.0625 55.515625 
z
" id="DejaVuSans-114"/>
      <path d="M 18.3125 70.21875 
L 18.3125 54.6875 
L 36.8125 54.6875 
L 36.8125 47.703125 
L 18.3125 47.703125 
L 18.3125 18.015625 
Q 18.3125 11.328125 20.140625 9.421875 
Q 21.96875 7.515625 27.59375 7.515625 
L 36.8125 7.515625 
L 36.8125 0 
L 27.59375 0 
Q 17.1875 0 13.234375 3.875 
Q 9.28125 7.765625 9.28125 18.015625 
L 9.28125 47.703125 
L 2.6875 47.703125 
L 2.6875 54.6875 
L 9.28125 54.6875 
L 9.28125 70.21875 
z
" id="DejaVuSans-116"/>
      <path d="M 56.203125 29.59375 
L 56.203125 25.203125 
L 14.890625 25.203125 
Q 15.484375 15.921875 20.484375 11.0625 
Q 25.484375 6.203125 34.421875 6.203125 
Q 39.59375 6.203125 44.453125 7.46875 
Q 49.3125 8.734375 54.109375 11.28125 
L 54.109375 2.78125 
Q 49.265625 0.734375 44.1875 -0.34375 
Q 39.109375 -1.421875 33.890625 -1.421875 
Q 20.796875 -1.421875 13.15625 6.1875 
Q 5.515625 13.8125 5.515625 26.8125 
Q 5.515625 40.234375 12.765625 48.109375 
Q 20.015625 56 32.328125 56 
Q 43.359375 56 49.78125 48.890625 
Q 56.203125 41.796875 56.203125 29.59375 
z
M 47.21875 32.234375 
Q 47.125 39.59375 43.09375 43.984375 
Q 39.0625 48.390625 32.421875 48.390625 
Q 24.90625 48.390625 20.390625 44.140625 
Q 15.875 39.890625 15.1875 32.171875 
z
" id="DejaVuSans-101"/>
      <path d="M 54.890625 33.015625 
L 54.890625 0 
L 45.90625 0 
L 45.90625 32.71875 
Q 45.90625 40.484375 42.875 44.328125 
Q 39.84375 48.1875 33.796875 48.1875 
Q 26.515625 48.1875 22.3125 43.546875 
Q 18.109375 38.921875 18.109375 30.90625 
L 18.109375 0 
L 9.078125 0 
L 9.078125 54.6875 
L 18.109375 54.6875 
L 18.109375 46.1875 
Q 21.34375 51.125 25.703125 53.5625 
Q 30.078125 56 35.796875 56 
Q 45.21875 56 50.046875 50.171875 
Q 54.890625 44.34375 54.890625 33.015625 
z
" id="DejaVuSans-110"/>
     </defs>
     <g style="fill:#262626;" transform="translate(294.469531 834.646313)scale(0.5 -0.5)">
      <use xlink:href="#DejaVuSans-71"/>
      <use x="77.490234" xlink:href="#DejaVuSans-45"/>
      <use x="113.574219" xlink:href="#DejaVuSans-112"/>
      <use x="177.050781" xlink:href="#DejaVuSans-114"/>
      <use x="215.914062" xlink:href="#DejaVuSans-111"/>
      <use x="277.095703" xlink:href="#DejaVuSans-116"/>
      <use x="316.304688" xlink:href="#DejaVuSans-101"/>
      <use x="377.828125" xlink:href="#DejaVuSans-105"/>
      <use x="405.611328" xlink:href="#DejaVuSans-110"/>
     </g>
    </g>
   </g>
   <g id="matplotlib.axis_2">
    <g id="ytick_1">
     <g id="line2d_4">
      <defs>
       <path d="M 0 0 
L -6 0 
" id="mda6d9f1530" style="stroke:#262626;stroke-width:1.25;"/>
      </defs>
      <g>
       <use style="fill:#262626;stroke:#262626;stroke-width:1.25;" x="132.715625" xlink:href="#mda6d9f1530" y="684.3635"/>
      </g>
     </g>
     <g id="text_5">
      <!-- 0 -->
      <defs>
       <path d="M 31.78125 66.40625 
Q 24.171875 66.40625 20.328125 58.90625 
Q 16.5 51.421875 16.5 36.375 
Q 16.5 21.390625 20.328125 13.890625 
Q 24.171875 6.390625 31.78125 6.390625 
Q 39.453125 6.390625 43.28125 13.890625 
Q 47.125 21.390625 47.125 36.375 
Q 47.125 51.421875 43.28125 58.90625 
Q 39.453125 66.40625 31.78125 66.40625 
z
M 31.78125 74.21875 
Q 44.046875 74.21875 50.515625 64.515625 
Q 56.984375 54.828125 56.984375 36.375 
Q 56.984375 17.96875 50.515625 8.265625 
Q 44.046875 -1.421875 31.78125 -1.421875 
Q 19.53125 -1.421875 13.0625 8.265625 
Q 6.59375 17.96875 6.59375 36.375 
Q 6.59375 54.828125 13.0625 64.515625 
Q 19.53125 74.21875 31.78125 74.21875 
z
" id="DejaVuSans-48"/>
      </defs>
      <g style="fill:#262626;" transform="translate(91.403125 703.359594)scale(0.5 -0.5)">
       <use xlink:href="#DejaVuSans-48"/>
      </g>
     </g>
    </g>
    <g id="ytick_2">
     <g id="line2d_5">
      <g>
       <use style="fill:#262626;stroke:#262626;stroke-width:1.25;" x="132.715625" xlink:href="#mda6d9f1530" y="617.1635"/>
      </g>
     </g>
     <g id="text_6">
      <!-- 4 -->
      <defs>
       <path d="M 37.796875 64.3125 
L 12.890625 25.390625 
L 37.796875 25.390625 
z
M 35.203125 72.90625 
L 47.609375 72.90625 
L 47.609375 25.390625 
L 58.015625 25.390625 
L 58.015625 17.1875 
L 47.609375 17.1875 
L 47.609375 0 
L 37.796875 0 
L 37.796875 17.1875 
L 4.890625 17.1875 
L 4.890625 26.703125 
z
" id="DejaVuSans-52"/>
      </defs>
      <g style="fill:#262626;" transform="translate(91.403125 636.159594)scale(0.5 -0.5)">
       <use xlink:href="#DejaVuSans-52"/>
      </g>
     </g>
    </g>
    <g id="ytick_3">
     <g id="line2d_6">
      <g>
       <use style="fill:#262626;stroke:#262626;stroke-width:1.25;" x="132.715625" xlink:href="#mda6d9f1530" y="549.9635"/>
      </g>
     </g>
     <g id="text_7">
      <!-- 8 -->
      <defs>
       <path d="M 31.78125 34.625 
Q 24.75 34.625 20.71875 30.859375 
Q 16.703125 27.09375 16.703125 20.515625 
Q 16.703125 13.921875 20.71875 10.15625 
Q 24.75 6.390625 31.78125 6.390625 
Q 38.8125 6.390625 42.859375 10.171875 
Q 46.921875 13.96875 46.921875 20.515625 
Q 46.921875 27.09375 42.890625 30.859375 
Q 38.875 34.625 31.78125 34.625 
z
M 21.921875 38.8125 
Q 15.578125 40.375 12.03125 44.71875 
Q 8.5 49.078125 8.5 55.328125 
Q 8.5 64.0625 14.71875 69.140625 
Q 20.953125 74.21875 31.78125 74.21875 
Q 42.671875 74.21875 48.875 69.140625 
Q 55.078125 64.0625 55.078125 55.328125 
Q 55.078125 49.078125 51.53125 44.71875 
Q 48 40.375 41.703125 38.8125 
Q 48.828125 37.15625 52.796875 32.3125 
Q 56.78125 27.484375 56.78125 20.515625 
Q 56.78125 9.90625 50.3125 4.234375 
Q 43.84375 -1.421875 31.78125 -1.421875 
Q 19.734375 -1.421875 13.25 4.234375 
Q 6.78125 9.90625 6.78125 20.515625 
Q 6.78125 27.484375 10.78125 32.3125 
Q 14.796875 37.15625 21.921875 38.8125 
z
M 18.3125 54.390625 
Q 18.3125 48.734375 21.84375 45.5625 
Q 25.390625 42.390625 31.78125 42.390625 
Q 38.140625 42.390625 41.71875 45.5625 
Q 45.3125 48.734375 45.3125 54.390625 
Q 45.3125 60.0625 41.71875 63.234375 
Q 38.140625 66.40625 31.78125 66.40625 
Q 25.390625 66.40625 21.84375 63.234375 
Q 18.3125 60.0625 18.3125 54.390625 
z
" id="DejaVuSans-56"/>
      </defs>
      <g style="fill:#262626;" transform="translate(91.403125 568.959594)scale(0.5 -0.5)">
       <use xlink:href="#DejaVuSans-56"/>
      </g>
     </g>
    </g>
    <g id="ytick_4">
     <g id="line2d_7">
      <g>
       <use style="fill:#262626;stroke:#262626;stroke-width:1.25;" x="132.715625" xlink:href="#mda6d9f1530" y="482.7635"/>
      </g>
     </g>
     <g id="text_8">
      <!-- 12 -->
      <defs>
       <path d="M 19.1875 8.296875 
L 53.609375 8.296875 
L 53.609375 0 
L 7.328125 0 
L 7.328125 8.296875 
Q 12.9375 14.109375 22.625 23.890625 
Q 32.328125 33.6875 34.8125 36.53125 
Q 39.546875 41.84375 41.421875 45.53125 
Q 43.3125 49.21875 43.3125 52.78125 
Q 43.3125 58.59375 39.234375 62.25 
Q 35.15625 65.921875 28.609375 65.921875 
Q 23.96875 65.921875 18.8125 64.3125 
Q 13.671875 62.703125 7.8125 59.421875 
L 7.8125 69.390625 
Q 13.765625 71.78125 18.9375 73 
Q 24.125 74.21875 28.421875 74.21875 
Q 39.75 74.21875 46.484375 68.546875 
Q 53.21875 62.890625 53.21875 53.421875 
Q 53.21875 48.921875 51.53125 44.890625 
Q 49.859375 40.875 45.40625 35.40625 
Q 44.1875 33.984375 37.640625 27.21875 
Q 31.109375 20.453125 19.1875 8.296875 
z
" id="DejaVuSans-50"/>
      </defs>
      <g style="fill:#262626;" transform="translate(59.590625 501.759594)scale(0.5 -0.5)">
       <use xlink:href="#DejaVuSans-49"/>
       <use x="63.623047" xlink:href="#DejaVuSans-50"/>
      </g>
     </g>
    </g>
    <g id="ytick_5">
     <g id="line2d_8">
      <g>
       <use style="fill:#262626;stroke:#262626;stroke-width:1.25;" x="132.715625" xlink:href="#mda6d9f1530" y="415.5635"/>
      </g>
     </g>
     <g id="text_9">
      <!-- 16 -->
      <defs>
       <path d="M 33.015625 40.375 
Q 26.375 40.375 22.484375 35.828125 
Q 18.609375 31.296875 18.609375 23.390625 
Q 18.609375 15.53125 22.484375 10.953125 
Q 26.375 6.390625 33.015625 6.390625 
Q 39.65625 6.390625 43.53125 10.953125 
Q 47.40625 15.53125 47.40625 23.390625 
Q 47.40625 31.296875 43.53125 35.828125 
Q 39.65625 40.375 33.015625 40.375 
z
M 52.59375 71.296875 
L 52.59375 62.3125 
Q 48.875 64.0625 45.09375 64.984375 
Q 41.3125 65.921875 37.59375 65.921875 
Q 27.828125 65.921875 22.671875 59.328125 
Q 17.53125 52.734375 16.796875 39.40625 
Q 19.671875 43.65625 24.015625 45.921875 
Q 28.375 48.1875 33.59375 48.1875 
Q 44.578125 48.1875 50.953125 41.515625 
Q 57.328125 34.859375 57.328125 23.390625 
Q 57.328125 12.15625 50.6875 5.359375 
Q 44.046875 -1.421875 33.015625 -1.421875 
Q 20.359375 -1.421875 13.671875 8.265625 
Q 6.984375 17.96875 6.984375 36.375 
Q 6.984375 53.65625 15.1875 63.9375 
Q 23.390625 74.21875 37.203125 74.21875 
Q 40.921875 74.21875 44.703125 73.484375 
Q 48.484375 72.75 52.59375 71.296875 
z
" id="DejaVuSans-54"/>
      </defs>
      <g style="fill:#262626;" transform="translate(59.590625 434.559594)scale(0.5 -0.5)">
       <use xlink:href="#DejaVuSans-49"/>
       <use x="63.623047" xlink:href="#DejaVuSans-54"/>
      </g>
     </g>
    </g>
    <g id="ytick_6">
     <g id="line2d_9">
      <g>
       <use style="fill:#262626;stroke:#262626;stroke-width:1.25;" x="132.715625" xlink:href="#mda6d9f1530" y="348.3635"/>
      </g>
     </g>
     <g id="text_10">
      <!-- 20 -->
      <g style="fill:#262626;" transform="translate(59.590625 367.359594)scale(0.5 -0.5)">
       <use xlink:href="#DejaVuSans-50"/>
       <use x="63.623047" xlink:href="#DejaVuSans-48"/>
      </g>
     </g>
    </g>
    <g id="ytick_7">
     <g id="line2d_10">
      <g>
       <use style="fill:#262626;stroke:#262626;stroke-width:1.25;" x="132.715625" xlink:href="#mda6d9f1530" y="281.1635"/>
      </g>
     </g>
     <g id="text_11">
      <!-- 24 -->
      <g style="fill:#262626;" transform="translate(59.590625 300.159594)scale(0.5 -0.5)">
       <use xlink:href="#DejaVuSans-50"/>
       <use x="63.623047" xlink:href="#DejaVuSans-52"/>
      </g>
     </g>
    </g>
    <g id="ytick_8">
     <g id="line2d_11">
      <g>
       <use style="fill:#262626;stroke:#262626;stroke-width:1.25;" x="132.715625" xlink:href="#mda6d9f1530" y="213.9635"/>
      </g>
     </g>
     <g id="text_12">
      <!-- 28 -->
      <g style="fill:#262626;" transform="translate(59.590625 232.959594)scale(0.5 -0.5)">
       <use xlink:href="#DejaVuSans-50"/>
       <use x="63.623047" xlink:href="#DejaVuSans-56"/>
      </g>
     </g>
    </g>
    <g id="text_13">
     <!-- RMSD -->
     <defs>
      <path d="M 44.390625 34.1875 
Q 47.5625 33.109375 50.5625 29.59375 
Q 53.5625 26.078125 56.59375 19.921875 
L 66.609375 0 
L 56 0 
L 46.6875 18.703125 
Q 43.0625 26.03125 39.671875 28.421875 
Q 36.28125 30.8125 30.421875 30.8125 
L 19.671875 30.8125 
L 19.671875 0 
L 9.8125 0 
L 9.8125 72.90625 
L 32.078125 72.90625 
Q 44.578125 72.90625 50.734375 67.671875 
Q 56.890625 62.453125 56.890625 51.90625 
Q 56.890625 45.015625 53.6875 40.46875 
Q 50.484375 35.9375 44.390625 34.1875 
z
M 19.671875 64.796875 
L 19.671875 38.921875 
L 32.078125 38.921875 
Q 39.203125 38.921875 42.84375 42.21875 
Q 46.484375 45.515625 46.484375 51.90625 
Q 46.484375 58.296875 42.84375 61.546875 
Q 39.203125 64.796875 32.078125 64.796875 
z
" id="DejaVuSans-82"/>
      <path d="M 9.8125 72.90625 
L 24.515625 72.90625 
L 43.109375 23.296875 
L 61.8125 72.90625 
L 76.515625 72.90625 
L 76.515625 0 
L 66.890625 0 
L 66.890625 64.015625 
L 48.09375 14.015625 
L 38.1875 14.015625 
L 19.390625 64.015625 
L 19.390625 0 
L 9.8125 0 
z
" id="DejaVuSans-77"/>
      <path d="M 53.515625 70.515625 
L 53.515625 60.890625 
Q 47.90625 63.578125 42.921875 64.890625 
Q 37.9375 66.21875 33.296875 66.21875 
Q 25.25 66.21875 20.875 63.09375 
Q 16.5 59.96875 16.5 54.203125 
Q 16.5 49.359375 19.40625 46.890625 
Q 22.3125 44.4375 30.421875 42.921875 
L 36.375 41.703125 
Q 47.40625 39.59375 52.65625 34.296875 
Q 57.90625 29 57.90625 20.125 
Q 57.90625 9.515625 50.796875 4.046875 
Q 43.703125 -1.421875 29.984375 -1.421875 
Q 24.8125 -1.421875 18.96875 -0.25 
Q 13.140625 0.921875 6.890625 3.21875 
L 6.890625 13.375 
Q 12.890625 10.015625 18.65625 8.296875 
Q 24.421875 6.59375 29.984375 6.59375 
Q 38.421875 6.59375 43.015625 9.90625 
Q 47.609375 13.234375 47.609375 19.390625 
Q 47.609375 24.75 44.3125 27.78125 
Q 41.015625 30.8125 33.5 32.328125 
L 27.484375 33.5 
Q 16.453125 35.6875 11.515625 40.375 
Q 6.59375 45.0625 6.59375 53.421875 
Q 6.59375 63.09375 13.40625 68.65625 
Q 20.21875 74.21875 32.171875 74.21875 
Q 37.3125 74.21875 42.625 73.28125 
Q 47.953125 72.359375 53.515625 70.515625 
z
" id="DejaVuSans-83"/>
      <path d="M 19.671875 64.796875 
L 19.671875 8.109375 
L 31.59375 8.109375 
Q 46.6875 8.109375 53.6875 14.9375 
Q 60.6875 21.78125 60.6875 36.53125 
Q 60.6875 51.171875 53.6875 57.984375 
Q 46.6875 64.796875 31.59375 64.796875 
z
M 9.8125 72.90625 
L 30.078125 72.90625 
Q 51.265625 72.90625 61.171875 64.09375 
Q 71.09375 55.28125 71.09375 36.53125 
Q 71.09375 17.671875 61.125 8.828125 
Q 51.171875 0 30.078125 0 
L 9.8125 0 
z
" id="DejaVuSans-68"/>
     </defs>
     <g style="fill:#262626;" transform="translate(45.192187 531.626)rotate(-90)scale(0.5 -0.5)">
      <use xlink:href="#DejaVuSans-82"/>
      <use x="69.482422" xlink:href="#DejaVuSans-77"/>
      <use x="155.761719" xlink:href="#DejaVuSans-83"/>
      <use x="219.238281" xlink:href="#DejaVuSans-68"/>
     </g>
    </g>
   </g>
   <g id="PolyCollection_1">
    <defs>
     <path d="M 226.597287 -159.406042 
L 224.833963 -159.406042 
L 224.501449 -161.755211 
L 224.073943 -164.10438 
L 223.535802 -166.453549 
L 222.872563 -168.802718 
L 222.072255 -171.151887 
L 221.126769 -173.501056 
L 220.033162 -175.850225 
L 218.794727 -178.199394 
L 217.421654 -180.548563 
L 215.931158 -182.897732 
L 214.346981 -185.246901 
L 212.698258 -187.59607 
L 211.017799 -189.945239 
L 209.339956 -192.294408 
L 207.698266 -194.643577 
L 206.123119 -196.992746 
L 204.639726 -199.341915 
L 203.266589 -201.691084 
L 202.014652 -204.040253 
L 200.88722 -206.389422 
L 199.88062 -208.738591 
L 198.98552 -211.087761 
L 198.188703 -213.43693 
L 197.475077 -215.786099 
L 196.829637 -218.135268 
L 196.239156 -220.484437 
L 195.693368 -222.833606 
L 195.185552 -225.182775 
L 194.712441 -227.531944 
L 194.273556 -229.881113 
L 193.870095 -232.230282 
L 193.503621 -234.579451 
L 193.1748 -236.92862 
L 192.88245 -239.277789 
L 192.623101 -241.626958 
L 192.39119 -243.976127 
L 192.179908 -246.325296 
L 191.982583 -248.674465 
L 191.794412 -251.023634 
L 191.614248 -253.372803 
L 191.446147 -255.721972 
L 191.300368 -258.071141 
L 191.193615 -260.42031 
L 191.148392 -262.769479 
L 191.191462 -265.118648 
L 191.351561 -267.467817 
L 191.656593 -269.816986 
L 192.130651 -272.166155 
L 192.791215 -274.515324 
L 193.646906 -276.864493 
L 194.696051 -279.213662 
L 195.926287 -281.562831 
L 197.31523 -283.912 
L 198.832139 -286.26117 
L 200.440371 -288.610339 
L 202.100303 -290.959508 
L 203.772376 -293.308677 
L 205.419891 -295.657846 
L 207.01124 -298.007015 
L 208.521373 -300.356184 
L 209.932388 -302.705353 
L 211.233303 -305.054522 
L 212.419147 -307.403691 
L 213.489628 -309.75286 
L 214.447643 -312.102029 
L 215.297907 -314.451198 
L 216.045903 -316.800367 
L 216.69728 -319.149536 
L 217.257704 -321.498705 
L 217.733102 -323.847874 
L 218.130129 -326.197043 
L 218.456702 -328.546212 
L 218.722401 -330.895381 
L 218.938616 -333.24455 
L 219.118368 -335.593719 
L 219.275795 -337.942888 
L 219.425363 -340.292057 
L 219.58093 -342.641226 
L 219.754781 -344.990395 
L 219.956758 -347.339564 
L 220.193619 -349.688733 
L 220.468672 -352.037902 
L 220.781719 -354.387071 
L 221.129305 -356.73624 
L 221.505217 -359.085409 
L 221.901169 -361.434579 
L 222.307588 -363.783748 
L 222.714432 -366.132917 
L 223.11195 -368.482086 
L 223.491335 -370.831255 
L 223.84523 -373.180424 
L 224.168049 -375.529593 
L 224.456129 -377.878762 
L 224.707703 -380.227931 
L 224.922742 -382.5771 
L 225.102686 -384.926269 
L 225.250111 -387.275438 
L 225.368373 -389.624607 
L 225.461266 -391.973776 
L 225.969984 -391.973776 
L 225.969984 -391.973776 
L 226.062877 -389.624607 
L 226.181139 -387.275438 
L 226.328564 -384.926269 
L 226.508508 -382.5771 
L 226.723547 -380.227931 
L 226.975121 -377.878762 
L 227.263201 -375.529593 
L 227.58602 -373.180424 
L 227.939915 -370.831255 
L 228.3193 -368.482086 
L 228.716818 -366.132917 
L 229.123662 -363.783748 
L 229.530081 -361.434579 
L 229.926033 -359.085409 
L 230.301945 -356.73624 
L 230.649531 -354.387071 
L 230.962578 -352.037902 
L 231.237631 -349.688733 
L 231.474492 -347.339564 
L 231.676469 -344.990395 
L 231.85032 -342.641226 
L 232.005887 -340.292057 
L 232.155455 -337.942888 
L 232.312882 -335.593719 
L 232.492634 -333.24455 
L 232.708849 -330.895381 
L 232.974548 -328.546212 
L 233.301121 -326.197043 
L 233.698148 -323.847874 
L 234.173546 -321.498705 
L 234.73397 -319.149536 
L 235.385347 -316.800367 
L 236.133343 -314.451198 
L 236.983607 -312.102029 
L 237.941622 -309.75286 
L 239.012103 -307.403691 
L 240.197947 -305.054522 
L 241.498862 -302.705353 
L 242.909877 -300.356184 
L 244.42001 -298.007015 
L 246.011359 -295.657846 
L 247.658874 -293.308677 
L 249.330947 -290.959508 
L 250.990879 -288.610339 
L 252.599111 -286.26117 
L 254.11602 -283.912 
L 255.504963 -281.562831 
L 256.735199 -279.213662 
L 257.784344 -276.864493 
L 258.640035 -274.515324 
L 259.300599 -272.166155 
L 259.774657 -269.816986 
L 260.079689 -267.467817 
L 260.239788 -265.118648 
L 260.282858 -262.769479 
L 260.237635 -260.42031 
L 260.130882 -258.071141 
L 259.985103 -255.721972 
L 259.817002 -253.372803 
L 259.636838 -251.023634 
L 259.448667 -248.674465 
L 259.251342 -246.325296 
L 259.04006 -243.976127 
L 258.808149 -241.626958 
L 258.5488 -239.277789 
L 258.25645 -236.92862 
L 257.927629 -234.579451 
L 257.561155 -232.230282 
L 257.157694 -229.881113 
L 256.718809 -227.531944 
L 256.245698 -225.182775 
L 255.737882 -222.833606 
L 255.192094 -220.484437 
L 254.601613 -218.135268 
L 253.956173 -215.786099 
L 253.242547 -213.43693 
L 252.44573 -211.087761 
L 251.55063 -208.738591 
L 250.54403 -206.389422 
L 249.416598 -204.040253 
L 248.164661 -201.691084 
L 246.791524 -199.341915 
L 245.308131 -196.992746 
L 243.732984 -194.643577 
L 242.091294 -192.294408 
L 240.413451 -189.945239 
L 238.732992 -187.59607 
L 237.084269 -185.246901 
L 235.500092 -182.897732 
L 234.009596 -180.548563 
L 232.636523 -178.199394 
L 231.398088 -175.850225 
L 230.304481 -173.501056 
L 229.358995 -171.151887 
L 228.558687 -168.802718 
L 227.895448 -166.453549 
L 227.357307 -164.10438 
L 226.929801 -161.755211 
L 226.597287 -159.406042 
z
" id="m64a8fe8d91" style="stroke:#262626;stroke-width:1.5;"/>
    </defs>
    <g clip-path="url(#paa1d7f7196)">
     <use style="fill:#b55d60;stroke:#262626;stroke-width:1.5;" x="0" xlink:href="#m64a8fe8d91" y="852.24475"/>
    </g>
   </g>
   <g id="PolyCollection_2">
    <defs>
     <path d="M 411.803765 -166.965969 
L 411.627485 -166.965969 
L 411.540725 -169.5724 
L 411.391733 -172.178831 
L 411.154225 -174.785262 
L 410.801414 -177.391693 
L 410.310178 -179.998124 
L 409.663711 -182.604555 
L 408.850656 -185.210986 
L 407.860637 -187.817417 
L 406.678729 -190.423848 
L 405.283066 -193.030279 
L 403.648622 -195.63671 
L 401.756693 -198.24314 
L 399.605929 -200.849571 
L 397.219439 -203.456002 
L 394.644523 -206.062433 
L 391.945274 -208.668864 
L 389.191384 -211.275295 
L 386.447647 -213.881726 
L 383.768082 -216.488157 
L 381.196963 -219.094588 
L 378.776308 -221.701019 
L 376.555542 -224.30745 
L 374.595711 -226.913881 
L 372.961139 -229.520312 
L 371.697768 -232.126743 
L 370.807367 -234.733173 
L 370.233369 -237.339604 
L 369.871055 -239.946035 
L 369.602227 -242.552466 
L 369.340111 -245.158897 
L 369.063645 -247.765328 
L 368.825579 -250.371759 
L 368.731999 -252.97819 
L 368.903556 -255.584621 
L 369.4347 -258.191052 
L 370.365376 -260.797483 
L 371.672716 -263.403914 
L 373.281943 -266.010345 
L 375.089035 -268.616776 
L 376.984945 -271.223207 
L 378.873158 -273.829637 
L 380.677691 -276.436068 
L 382.344331 -279.042499 
L 383.840493 -281.64893 
L 385.157596 -284.255361 
L 386.315446 -286.861792 
L 387.363886 -289.468223 
L 388.375952 -292.074654 
L 389.430276 -294.681085 
L 390.586991 -297.287516 
L 391.866968 -299.893947 
L 393.244604 -302.500378 
L 394.658456 -305.106809 
L 396.035001 -307.71324 
L 397.314321 -310.31967 
L 398.466602 -312.926101 
L 399.494251 -315.532532 
L 400.422055 -318.138963 
L 401.282405 -320.745394 
L 402.102658 -323.351825 
L 402.898475 -325.958256 
L 403.673212 -328.564687 
L 404.421245 -331.171118 
L 405.132749 -333.777549 
L 405.798135 -336.38398 
L 406.41106 -338.990411 
L 406.96937 -341.596842 
L 407.474006 -344.203273 
L 407.92689 -346.809703 
L 408.329549 -349.416134 
L 408.683702 -352.022565 
L 408.993245 -354.628996 
L 409.265549 -357.235427 
L 409.510203 -359.841858 
L 409.735484 -362.448289 
L 409.945025 -365.05472 
L 410.13735 -367.661151 
L 410.308894 -370.267582 
L 410.458474 -372.874013 
L 410.590056 -375.480444 
L 410.711872 -378.086875 
L 410.832388 -380.693306 
L 410.955577 -383.299736 
L 411.078295 -385.906167 
L 411.191269 -388.512598 
L 411.283235 -391.119029 
L 411.346188 -393.72546 
L 411.379271 -396.331891 
L 411.389578 -398.938322 
L 411.389649 -401.544753 
L 411.392913 -404.151184 
L 411.409113 -406.757615 
L 411.441609 -409.364046 
L 411.487399 -411.970477 
L 411.539437 -414.576908 
L 411.589882 -417.183339 
L 411.632771 -419.789769 
L 411.66526 -422.3962 
L 411.687393 -425.002631 
L 411.743857 -425.002631 
L 411.743857 -425.002631 
L 411.76599 -422.3962 
L 411.798479 -419.789769 
L 411.841368 -417.183339 
L 411.891813 -414.576908 
L 411.943851 -411.970477 
L 411.989641 -409.364046 
L 412.022137 -406.757615 
L 412.038337 -404.151184 
L 412.041601 -401.544753 
L 412.041672 -398.938322 
L 412.051979 -396.331891 
L 412.085062 -393.72546 
L 412.148015 -391.119029 
L 412.239981 -388.512598 
L 412.352955 -385.906167 
L 412.475673 -383.299736 
L 412.598862 -380.693306 
L 412.719378 -378.086875 
L 412.841194 -375.480444 
L 412.972776 -372.874013 
L 413.122356 -370.267582 
L 413.2939 -367.661151 
L 413.486225 -365.05472 
L 413.695766 -362.448289 
L 413.921047 -359.841858 
L 414.165701 -357.235427 
L 414.438005 -354.628996 
L 414.747548 -352.022565 
L 415.101701 -349.416134 
L 415.50436 -346.809703 
L 415.957244 -344.203273 
L 416.46188 -341.596842 
L 417.02019 -338.990411 
L 417.633115 -336.38398 
L 418.298501 -333.777549 
L 419.010005 -331.171118 
L 419.758038 -328.564687 
L 420.532775 -325.958256 
L 421.328592 -323.351825 
L 422.148845 -320.745394 
L 423.009195 -318.138963 
L 423.936999 -315.532532 
L 424.964648 -312.926101 
L 426.116929 -310.31967 
L 427.396249 -307.71324 
L 428.772794 -305.106809 
L 430.186646 -302.500378 
L 431.564282 -299.893947 
L 432.844259 -297.287516 
L 434.000974 -294.681085 
L 435.055298 -292.074654 
L 436.067364 -289.468223 
L 437.115804 -286.861792 
L 438.273654 -284.255361 
L 439.590757 -281.64893 
L 441.086919 -279.042499 
L 442.753559 -276.436068 
L 444.558092 -273.829637 
L 446.446305 -271.223207 
L 448.342215 -268.616776 
L 450.149307 -266.010345 
L 451.758534 -263.403914 
L 453.065874 -260.797483 
L 453.99655 -258.191052 
L 454.527694 -255.584621 
L 454.699251 -252.97819 
L 454.605671 -250.371759 
L 454.367605 -247.765328 
L 454.091139 -245.158897 
L 453.829023 -242.552466 
L 453.560195 -239.946035 
L 453.197881 -237.339604 
L 452.623883 -234.733173 
L 451.733482 -232.126743 
L 450.470111 -229.520312 
L 448.835539 -226.913881 
L 446.875708 -224.30745 
L 444.654942 -221.701019 
L 442.234287 -219.094588 
L 439.663168 -216.488157 
L 436.983603 -213.881726 
L 434.239866 -211.275295 
L 431.485976 -208.668864 
L 428.786727 -206.062433 
L 426.211811 -203.456002 
L 423.825321 -200.849571 
L 421.674557 -198.24314 
L 419.782628 -195.63671 
L 418.148184 -193.030279 
L 416.752521 -190.423848 
L 415.570613 -187.817417 
L 414.580594 -185.210986 
L 413.767539 -182.604555 
L 413.121072 -179.998124 
L 412.629836 -177.391693 
L 412.277025 -174.785262 
L 412.039517 -172.178831 
L 411.890525 -169.5724 
L 411.803765 -166.965969 
z
" id="m40ede432c2" style="stroke:#262626;stroke-width:1.5;"/>
    </defs>
    <g clip-path="url(#paa1d7f7196)">
     <use style="fill:#5875a4;stroke:#262626;stroke-width:1.5;" x="0" xlink:href="#m40ede432c2" y="852.24475"/>
    </g>
   </g>
   <g id="PolyCollection_3">
    <defs>
     <path d="M 601.659888 -194.762525 
L 593.771362 -194.762525 
L 593.055735 -195.742428 
L 592.243583 -196.722331 
L 591.328669 -197.702233 
L 590.305655 -198.682136 
L 589.170363 -199.662039 
L 587.920043 -200.641942 
L 586.553629 -201.621844 
L 585.07197 -202.601747 
L 583.478024 -203.58165 
L 581.777002 -204.561553 
L 579.976449 -205.541455 
L 578.086248 -206.521358 
L 576.118537 -207.501261 
L 574.087544 -208.481164 
L 572.00931 -209.461066 
L 569.901339 -210.440969 
L 567.782146 -211.420872 
L 565.670733 -212.400774 
L 563.586014 -213.380677 
L 561.546189 -214.36058 
L 559.568113 -215.340483 
L 557.66668 -216.320385 
L 555.854247 -217.300288 
L 554.140133 -218.280191 
L 552.530229 -219.260094 
L 551.026728 -220.239996 
L 549.628011 -221.219899 
L 548.328699 -222.199802 
L 547.119874 -223.179705 
L 545.989479 -224.159607 
L 544.92288 -225.13951 
L 543.903564 -226.119413 
L 542.913968 -227.099315 
L 541.936381 -228.079218 
L 540.953891 -229.059121 
L 539.95133 -230.039024 
L 538.916169 -231.018926 
L 537.839318 -231.998829 
L 536.715788 -232.978732 
L 535.545177 -233.958635 
L 534.331957 -234.938537 
L 533.085528 -235.91844 
L 531.82005 -236.898343 
L 530.554042 -237.878245 
L 529.309769 -238.858148 
L 528.112444 -239.838051 
L 526.989285 -240.817954 
L 525.968466 -241.797856 
L 525.078011 -242.777759 
L 524.344704 -243.757662 
L 523.793036 -244.737565 
L 523.444264 -245.717467 
L 523.315625 -246.69737 
L 523.41972 -247.677273 
L 523.764119 -248.657176 
L 524.351179 -249.637078 
L 525.178091 -250.616981 
L 526.23714 -251.596884 
L 527.51615 -252.576786 
L 528.99909 -253.556689 
L 530.666812 -254.536592 
L 532.497848 -255.516495 
L 534.469259 -256.496397 
L 536.557461 -257.4763 
L 538.739008 -258.456203 
L 540.991285 -259.436106 
L 543.293088 -260.416008 
L 545.625073 -261.395911 
L 547.970064 -262.375814 
L 550.313218 -263.355717 
L 552.64205 -264.335619 
L 554.946346 -265.315522 
L 557.217972 -266.295425 
L 559.450605 -267.275327 
L 561.639423 -268.25523 
L 563.780767 -269.235133 
L 565.871801 -270.215036 
L 567.910211 -271.194938 
L 569.893929 -272.174841 
L 571.820919 -273.154744 
L 573.689028 -274.134647 
L 575.495894 -275.114549 
L 577.238918 -276.094452 
L 578.915297 -277.074355 
L 580.522092 -278.054257 
L 582.056342 -279.03416 
L 583.515192 -280.014063 
L 584.896035 -280.993966 
L 586.196649 -281.973868 
L 587.415323 -282.953771 
L 588.550961 -283.933674 
L 589.60316 -284.913577 
L 590.572258 -285.893479 
L 591.459349 -286.873382 
L 592.26627 -287.853285 
L 592.995554 -288.833188 
L 593.650366 -289.81309 
L 594.234418 -290.792993 
L 594.751866 -291.772896 
L 600.679384 -291.772896 
L 600.679384 -291.772896 
L 601.196832 -290.792993 
L 601.780884 -289.81309 
L 602.435696 -288.833188 
L 603.16498 -287.853285 
L 603.971901 -286.873382 
L 604.858992 -285.893479 
L 605.82809 -284.913577 
L 606.880289 -283.933674 
L 608.015927 -282.953771 
L 609.234601 -281.973868 
L 610.535215 -280.993966 
L 611.916058 -280.014063 
L 613.374908 -279.03416 
L 614.909158 -278.054257 
L 616.515953 -277.074355 
L 618.192332 -276.094452 
L 619.935356 -275.114549 
L 621.742222 -274.134647 
L 623.610331 -273.154744 
L 625.537321 -272.174841 
L 627.521039 -271.194938 
L 629.559449 -270.215036 
L 631.650483 -269.235133 
L 633.791827 -268.25523 
L 635.980645 -267.275327 
L 638.213278 -266.295425 
L 640.484904 -265.315522 
L 642.7892 -264.335619 
L 645.118032 -263.355717 
L 647.461186 -262.375814 
L 649.806177 -261.395911 
L 652.138162 -260.416008 
L 654.439965 -259.436106 
L 656.692242 -258.456203 
L 658.873789 -257.4763 
L 660.961991 -256.496397 
L 662.933402 -255.516495 
L 664.764438 -254.536592 
L 666.43216 -253.556689 
L 667.9151 -252.576786 
L 669.19411 -251.596884 
L 670.253159 -250.616981 
L 671.080071 -249.637078 
L 671.667131 -248.657176 
L 672.01153 -247.677273 
L 672.115625 -246.69737 
L 671.986986 -245.717467 
L 671.638214 -244.737565 
L 671.086546 -243.757662 
L 670.353239 -242.777759 
L 669.462784 -241.797856 
L 668.441965 -240.817954 
L 667.318806 -239.838051 
L 666.121481 -238.858148 
L 664.877208 -237.878245 
L 663.6112 -236.898343 
L 662.345722 -235.91844 
L 661.099293 -234.938537 
L 659.886073 -233.958635 
L 658.715462 -232.978732 
L 657.591932 -231.998829 
L 656.515081 -231.018926 
L 655.47992 -230.039024 
L 654.477359 -229.059121 
L 653.494869 -228.079218 
L 652.517282 -227.099315 
L 651.527686 -226.119413 
L 650.50837 -225.13951 
L 649.441771 -224.159607 
L 648.311376 -223.179705 
L 647.102551 -222.199802 
L 645.803239 -221.219899 
L 644.404522 -220.239996 
L 642.901021 -219.260094 
L 641.291117 -218.280191 
L 639.577003 -217.300288 
L 637.76457 -216.320385 
L 635.863137 -215.340483 
L 633.885061 -214.36058 
L 631.845236 -213.380677 
L 629.760517 -212.400774 
L 627.649104 -211.420872 
L 625.529911 -210.440969 
L 623.42194 -209.461066 
L 621.343706 -208.481164 
L 619.312713 -207.501261 
L 617.345002 -206.521358 
L 615.454801 -205.541455 
L 613.654248 -204.561553 
L 611.953226 -203.58165 
L 610.35928 -202.601747 
L 608.877621 -201.621844 
L 607.511207 -200.641942 
L 606.260887 -199.662039 
L 605.125595 -198.682136 
L 604.102581 -197.702233 
L 603.187667 -196.722331 
L 602.375515 -195.742428 
L 601.659888 -194.762525 
z
" id="m285101eed2" style="stroke:#262626;stroke-width:1.5;"/>
    </defs>
    <g clip-path="url(#paa1d7f7196)">
     <use style="fill:#107010;stroke:#262626;stroke-width:1.5;" x="0" xlink:href="#m285101eed2" y="852.24475"/>
    </g>
   </g>
   <g id="line2d_12">
    <path clip-path="url(#paa1d7f7196)" d="M 225.715625 660.302439 
L 225.715625 492.807243 
" style="fill:none;stroke:#262626;stroke-linecap:round;stroke-width:1.5;"/>
   </g>
   <g id="line2d_13">
    <path clip-path="url(#paa1d7f7196)" d="M 225.715625 629.446899 
L 225.715625 573.184864 
" style="fill:none;stroke:#262626;stroke-linecap:round;stroke-width:4.5;"/>
   </g>
   <g id="line2d_14">
    <path clip-path="url(#paa1d7f7196)" d="M 411.715625 667.420695 
L 411.715625 499.73748 
" style="fill:none;stroke:#262626;stroke-linecap:round;stroke-width:1.5;"/>
   </g>
   <g id="line2d_15">
    <path clip-path="url(#paa1d7f7196)" d="M 411.715625 619.386492 
L 411.715625 570.971322 
" style="fill:none;stroke:#262626;stroke-linecap:round;stroke-width:4.5;"/>
   </g>
   <g id="line2d_16">
    <path clip-path="url(#paa1d7f7196)" d="M 597.715625 632.956437 
L 597.715625 584.997642 
" style="fill:none;stroke:#262626;stroke-linecap:round;stroke-width:1.5;"/>
   </g>
   <g id="line2d_17">
    <path clip-path="url(#paa1d7f7196)" d="M 597.715625 622.293973 
L 597.715625 603.801164 
" style="fill:none;stroke:#262626;stroke-linecap:round;stroke-width:4.5;"/>
   </g>
   <g id="line2d_18">
    <path d="M 225.715625 163.7315 
L 225.715625 152.6435 
L 411.715625 152.6435 
L 411.715625 163.7315 
" style="fill:none;stroke:#333333;stroke-linecap:round;stroke-width:1.5;"/>
   </g>
   <g id="line2d_19">
    <path d="M 411.715625 103.1235 
L 411.715625 92.0355 
L 597.715625 92.0355 
L 597.715625 103.1235 
" style="fill:none;stroke:#333333;stroke-linecap:round;stroke-width:1.5;"/>
   </g>
   <g id="line2d_20">
    <path d="M 225.715625 42.5155 
L 225.715625 31.4275 
L 597.715625 31.4275 
L 597.715625 42.5155 
" style="fill:none;stroke:#333333;stroke-linecap:round;stroke-width:1.5;"/>
   </g>
   <g id="patch_3">
    <path d="M 132.715625 734.7635 
L 132.715625 180.3635 
" style="fill:none;stroke:#262626;stroke-linecap:square;stroke-linejoin:miter;stroke-width:1.25;"/>
   </g>
   <g id="patch_4">
    <path d="M 690.715625 734.7635 
L 690.715625 180.3635 
" style="fill:none;stroke:#262626;stroke-linecap:square;stroke-linejoin:miter;stroke-width:1.25;"/>
   </g>
   <g id="patch_5">
    <path d="M 132.715625 734.7635 
L 690.715625 734.7635 
" style="fill:none;stroke:#262626;stroke-linecap:square;stroke-linejoin:miter;stroke-width:1.25;"/>
   </g>
   <g id="patch_6">
    <path d="M 132.715625 180.3635 
L 690.715625 180.3635 
" style="fill:none;stroke:#262626;stroke-linecap:square;stroke-linejoin:miter;stroke-width:1.25;"/>
   </g>
   <g id="PathCollection_1">
    <defs>
     <path d="M 0 1.5 
C 0.397805 1.5 0.77937 1.341951 1.06066 1.06066 
C 1.341951 0.77937 1.5 0.397805 1.5 0 
C 1.5 -0.397805 1.341951 -0.77937 1.06066 -1.06066 
C 0.77937 -1.341951 0.397805 -1.5 0 -1.5 
C -0.397805 -1.5 -0.77937 -1.341951 -1.06066 -1.06066 
C -1.341951 -0.77937 -1.5 -0.397805 -1.5 0 
C -1.5 0.397805 -1.341951 0.77937 -1.06066 1.06066 
C -0.77937 1.341951 -0.397805 1.5 0 1.5 
z
" id="mff56aee900" style="stroke:#262626;"/>
    </defs>
    <g clip-path="url(#paa1d7f7196)">
     <use style="fill:#ffffff;stroke:#262626;" x="225.715625" xlink:href="#mff56aee900" y="598.879191"/>
    </g>
   </g>
   <g id="PathCollection_2">
    <g clip-path="url(#paa1d7f7196)">
     <use style="fill:#ffffff;stroke:#262626;" x="411.715625" xlink:href="#mff56aee900" y="597.081994"/>
    </g>
   </g>
   <g id="PathCollection_3">
    <g clip-path="url(#paa1d7f7196)">
     <use style="fill:#ffffff;stroke:#262626;" x="597.715625" xlink:href="#mff56aee900" y="605.693953"/>
    </g>
   </g>
   <g id="text_14">
    <!-- Ranksum p = 2.702e-01 -->
    <defs>
     <path d="M 34.28125 27.484375 
Q 23.390625 27.484375 19.1875 25 
Q 14.984375 22.515625 14.984375 16.5 
Q 14.984375 11.71875 18.140625 8.90625 
Q 21.296875 6.109375 26.703125 6.109375 
Q 34.1875 6.109375 38.703125 11.40625 
Q 43.21875 16.703125 43.21875 25.484375 
L 43.21875 27.484375 
z
M 52.203125 31.203125 
L 52.203125 0 
L 43.21875 0 
L 43.21875 8.296875 
Q 40.140625 3.328125 35.546875 0.953125 
Q 30.953125 -1.421875 24.3125 -1.421875 
Q 15.921875 -1.421875 10.953125 3.296875 
Q 6 8.015625 6 15.921875 
Q 6 25.140625 12.171875 29.828125 
Q 18.359375 34.515625 30.609375 34.515625 
L 43.21875 34.515625 
L 43.21875 35.40625 
Q 43.21875 41.609375 39.140625 45 
Q 35.0625 48.390625 27.6875 48.390625 
Q 23 48.390625 18.546875 47.265625 
Q 14.109375 46.140625 10.015625 43.890625 
L 10.015625 52.203125 
Q 14.9375 54.109375 19.578125 55.046875 
Q 24.21875 56 28.609375 56 
Q 40.484375 56 46.34375 49.84375 
Q 52.203125 43.703125 52.203125 31.203125 
z
" id="DejaVuSans-97"/>
     <path d="M 9.078125 75.984375 
L 18.109375 75.984375 
L 18.109375 31.109375 
L 44.921875 54.6875 
L 56.390625 54.6875 
L 27.390625 29.109375 
L 57.625 0 
L 45.90625 0 
L 18.109375 26.703125 
L 18.109375 0 
L 9.078125 0 
z
" id="DejaVuSans-107"/>
     <path d="M 8.5 21.578125 
L 8.5 54.6875 
L 17.484375 54.6875 
L 17.484375 21.921875 
Q 17.484375 14.15625 20.5 10.265625 
Q 23.53125 6.390625 29.59375 6.390625 
Q 36.859375 6.390625 41.078125 11.03125 
Q 45.3125 15.671875 45.3125 23.6875 
L 45.3125 54.6875 
L 54.296875 54.6875 
L 54.296875 0 
L 45.3125 0 
L 45.3125 8.40625 
Q 42.046875 3.421875 37.71875 1 
Q 33.40625 -1.421875 27.6875 -1.421875 
Q 18.265625 -1.421875 13.375 4.4375 
Q 8.5 10.296875 8.5 21.578125 
z
M 31.109375 56 
z
" id="DejaVuSans-117"/>
     <path d="M 52 44.1875 
Q 55.375 50.25 60.0625 53.125 
Q 64.75 56 71.09375 56 
Q 79.640625 56 84.28125 50.015625 
Q 88.921875 44.046875 88.921875 33.015625 
L 88.921875 0 
L 79.890625 0 
L 79.890625 32.71875 
Q 79.890625 40.578125 77.09375 44.375 
Q 74.3125 48.1875 68.609375 48.1875 
Q 61.625 48.1875 57.5625 43.546875 
Q 53.515625 38.921875 53.515625 30.90625 
L 53.515625 0 
L 44.484375 0 
L 44.484375 32.71875 
Q 44.484375 40.625 41.703125 44.40625 
Q 38.921875 48.1875 33.109375 48.1875 
Q 26.21875 48.1875 22.15625 43.53125 
Q 18.109375 38.875 18.109375 30.90625 
L 18.109375 0 
L 9.078125 0 
L 9.078125 54.6875 
L 18.109375 54.6875 
L 18.109375 46.1875 
Q 21.1875 51.21875 25.484375 53.609375 
Q 29.78125 56 35.6875 56 
Q 41.65625 56 45.828125 52.96875 
Q 50 49.953125 52 44.1875 
z
" id="DejaVuSans-109"/>
     <path id="DejaVuSans-32"/>
     <path d="M 10.59375 45.40625 
L 73.1875 45.40625 
L 73.1875 37.203125 
L 10.59375 37.203125 
z
M 10.59375 25.484375 
L 73.1875 25.484375 
L 73.1875 17.1875 
L 10.59375 17.1875 
z
" id="DejaVuSans-61"/>
     <path d="M 10.6875 12.40625 
L 21 12.40625 
L 21 0 
L 10.6875 0 
z
" id="DejaVuSans-46"/>
     <path d="M 8.203125 72.90625 
L 55.078125 72.90625 
L 55.078125 68.703125 
L 28.609375 0 
L 18.3125 0 
L 43.21875 64.59375 
L 8.203125 64.59375 
z
" id="DejaVuSans-55"/>
    </defs>
    <g style="fill:#262626;" transform="translate(172.743125 146.65225)scale(0.24 -0.24)">
     <use xlink:href="#DejaVuSans-82"/>
     <use x="67.232422" xlink:href="#DejaVuSans-97"/>
     <use x="128.511719" xlink:href="#DejaVuSans-110"/>
     <use x="191.890625" xlink:href="#DejaVuSans-107"/>
     <use x="249.800781" xlink:href="#DejaVuSans-115"/>
     <use x="301.900391" xlink:href="#DejaVuSans-117"/>
     <use x="365.279297" xlink:href="#DejaVuSans-109"/>
     <use x="462.691406" xlink:href="#DejaVuSans-32"/>
     <use x="494.478516" xlink:href="#DejaVuSans-112"/>
     <use x="557.955078" xlink:href="#DejaVuSans-32"/>
     <use x="589.742188" xlink:href="#DejaVuSans-61"/>
     <use x="673.53125" xlink:href="#DejaVuSans-32"/>
     <use x="705.318359" xlink:href="#DejaVuSans-50"/>
     <use x="768.941406" xlink:href="#DejaVuSans-46"/>
     <use x="800.728516" xlink:href="#DejaVuSans-55"/>
     <use x="864.351562" xlink:href="#DejaVuSans-48"/>
     <use x="927.974609" xlink:href="#DejaVuSans-50"/>
     <use x="991.597656" xlink:href="#DejaVuSans-101"/>
     <use x="1053.121094" xlink:href="#DejaVuSans-45"/>
     <use x="1089.205078" xlink:href="#DejaVuSans-48"/>
     <use x="1152.828125" xlink:href="#DejaVuSans-49"/>
    </g>
   </g>
   <g id="text_15">
    <!-- Ranksum p = 2.317e-01 -->
    <defs>
     <path d="M 40.578125 39.3125 
Q 47.65625 37.796875 51.625 33 
Q 55.609375 28.21875 55.609375 21.1875 
Q 55.609375 10.40625 48.1875 4.484375 
Q 40.765625 -1.421875 27.09375 -1.421875 
Q 22.515625 -1.421875 17.65625 -0.515625 
Q 12.796875 0.390625 7.625 2.203125 
L 7.625 11.71875 
Q 11.71875 9.328125 16.59375 8.109375 
Q 21.484375 6.890625 26.8125 6.890625 
Q 36.078125 6.890625 40.9375 10.546875 
Q 45.796875 14.203125 45.796875 21.1875 
Q 45.796875 27.640625 41.28125 31.265625 
Q 36.765625 34.90625 28.71875 34.90625 
L 20.21875 34.90625 
L 20.21875 43.015625 
L 29.109375 43.015625 
Q 36.375 43.015625 40.234375 45.921875 
Q 44.09375 48.828125 44.09375 54.296875 
Q 44.09375 59.90625 40.109375 62.90625 
Q 36.140625 65.921875 28.71875 65.921875 
Q 24.65625 65.921875 20.015625 65.03125 
Q 15.375 64.15625 9.8125 62.3125 
L 9.8125 71.09375 
Q 15.4375 72.65625 20.34375 73.4375 
Q 25.25 74.21875 29.59375 74.21875 
Q 40.828125 74.21875 47.359375 69.109375 
Q 53.90625 64.015625 53.90625 55.328125 
Q 53.90625 49.265625 50.4375 45.09375 
Q 46.96875 40.921875 40.578125 39.3125 
z
" id="DejaVuSans-51"/>
    </defs>
    <g style="fill:#262626;" transform="translate(358.743125 86.04425)scale(0.24 -0.24)">
     <use xlink:href="#DejaVuSans-82"/>
     <use x="67.232422" xlink:href="#DejaVuSans-97"/>
     <use x="128.511719" xlink:href="#DejaVuSans-110"/>
     <use x="191.890625" xlink:href="#DejaVuSans-107"/>
     <use x="249.800781" xlink:href="#DejaVuSans-115"/>
     <use x="301.900391" xlink:href="#DejaVuSans-117"/>
     <use x="365.279297" xlink:href="#DejaVuSans-109"/>
     <use x="462.691406" xlink:href="#DejaVuSans-32"/>
     <use x="494.478516" xlink:href="#DejaVuSans-112"/>
     <use x="557.955078" xlink:href="#DejaVuSans-32"/>
     <use x="589.742188" xlink:href="#DejaVuSans-61"/>
     <use x="673.53125" xlink:href="#DejaVuSans-32"/>
     <use x="705.318359" xlink:href="#DejaVuSans-50"/>
     <use x="768.941406" xlink:href="#DejaVuSans-46"/>
     <use x="800.728516" xlink:href="#DejaVuSans-51"/>
     <use x="864.351562" xlink:href="#DejaVuSans-49"/>
     <use x="927.974609" xlink:href="#DejaVuSans-55"/>
     <use x="991.597656" xlink:href="#DejaVuSans-101"/>
     <use x="1053.121094" xlink:href="#DejaVuSans-45"/>
     <use x="1089.205078" xlink:href="#DejaVuSans-48"/>
     <use x="1152.828125" xlink:href="#DejaVuSans-49"/>
    </g>
   </g>
   <g id="text_16">
    <!-- Ranksum p = 4.450e-01 -->
    <defs>
     <path d="M 10.796875 72.90625 
L 49.515625 72.90625 
L 49.515625 64.59375 
L 19.828125 64.59375 
L 19.828125 46.734375 
Q 21.96875 47.46875 24.109375 47.828125 
Q 26.265625 48.1875 28.421875 48.1875 
Q 40.625 48.1875 47.75 41.5 
Q 54.890625 34.8125 54.890625 23.390625 
Q 54.890625 11.625 47.5625 5.09375 
Q 40.234375 -1.421875 26.90625 -1.421875 
Q 22.3125 -1.421875 17.546875 -0.640625 
Q 12.796875 0.140625 7.71875 1.703125 
L 7.71875 11.625 
Q 12.109375 9.234375 16.796875 8.0625 
Q 21.484375 6.890625 26.703125 6.890625 
Q 35.15625 6.890625 40.078125 11.328125 
Q 45.015625 15.765625 45.015625 23.390625 
Q 45.015625 31 40.078125 35.4375 
Q 35.15625 39.890625 26.703125 39.890625 
Q 22.75 39.890625 18.8125 39.015625 
Q 14.890625 38.140625 10.796875 36.28125 
z
" id="DejaVuSans-53"/>
    </defs>
    <g style="fill:#262626;" transform="translate(265.743125 25.43625)scale(0.24 -0.24)">
     <use xlink:href="#DejaVuSans-82"/>
     <use x="67.232422" xlink:href="#DejaVuSans-97"/>
     <use x="128.511719" xlink:href="#DejaVuSans-110"/>
     <use x="191.890625" xlink:href="#DejaVuSans-107"/>
     <use x="249.800781" xlink:href="#DejaVuSans-115"/>
     <use x="301.900391" xlink:href="#DejaVuSans-117"/>
     <use x="365.279297" xlink:href="#DejaVuSans-109"/>
     <use x="462.691406" xlink:href="#DejaVuSans-32"/>
     <use x="494.478516" xlink:href="#DejaVuSans-112"/>
     <use x="557.955078" xlink:href="#DejaVuSans-32"/>
     <use x="589.742188" xlink:href="#DejaVuSans-61"/>
     <use x="673.53125" xlink:href="#DejaVuSans-32"/>
     <use x="705.318359" xlink:href="#DejaVuSans-52"/>
     <use x="768.941406" xlink:href="#DejaVuSans-46"/>
     <use x="800.728516" xlink:href="#DejaVuSans-52"/>
     <use x="864.351562" xlink:href="#DejaVuSans-53"/>
     <use x="927.974609" xlink:href="#DejaVuSans-48"/>
     <use x="991.597656" xlink:href="#DejaVuSans-101"/>
     <use x="1053.121094" xlink:href="#DejaVuSans-45"/>
     <use x="1089.205078" xlink:href="#DejaVuSans-48"/>
     <use x="1152.828125" xlink:href="#DejaVuSans-49"/>
    </g>
   </g>
  </g>
 </g>
 <defs>
  <clipPath id="paa1d7f7196">
   <rect height="554.4" width="558" x="132.715625" y="180.3635"/>
  </clipPath>
 </defs>
</svg>
