<?xml version="1.0" encoding="utf-8" standalone="no"?>
<!DOCTYPE svg PUBLIC "-//W3C//DTD SVG 1.1//EN"
  "http://www.w3.org/Graphics/SVG/1.1/DTD/svg11.dtd">
<!-- Created with matplotlib (https://matplotlib.org/) -->
<svg height="1677.6pt" version="1.1" viewBox="0 0 1722.002952 1677.6" width="1722.002952pt" xmlns="http://www.w3.org/2000/svg" xmlns:xlink="http://www.w3.org/1999/xlink">
 <defs>
  <style type="text/css">
*{stroke-linecap:butt;stroke-linejoin:round;}
  </style>
 </defs>
 <g id="figure_1">
  <g id="patch_1">
   <path d="M 0 1677.6 
L 1722.002952 1677.6 
L 1722.002952 0 
L 0 0 
z
" style="fill:#ffffff;"/>
  </g>
  <g id="axes_1">
   <g id="patch_2">
    <path d="M 1519.968351 838.8 
C 1519.968351 831.14399 1519.836193 823.48855 1519.571937 815.837102 
C 1519.307681 808.185654 1518.911366 800.539338 1518.38317 792.90157 
L 854.688351 838.8 
L 1519.968351 838.8 
z
" style="fill:#1f77b4;stroke:#000000;stroke-linejoin:miter;stroke-width:2;"/>
   </g>
   <g id="patch_3">
    <path d="M 1518.38317 792.90157 
C 1507.443734 634.716499 1440.303927 485.537968 1329.154887 372.453579 
C 1218.005848 259.369191 1070.008416 189.66447 912.035732 175.996291 
C 754.063048 162.328112 596.292592 205.577055 467.372074 297.890044 
C 338.451556 390.203034 246.686754 525.632753 208.740175 679.588088 
L 854.688351 838.8 
L 1518.38317 792.90157 
z
" style="fill:#ff7f0e;stroke:#000000;stroke-linejoin:miter;stroke-width:2;"/>
   </g>
   <g id="patch_4">
    <path d="M 208.740175 679.588088 
C 203.242475 701.893138 198.903776 724.467984 195.741519 747.221887 
C 192.579261 769.975789 190.597688 792.878221 189.804763 815.837124 
L 854.688351 838.8 
L 208.740175 679.588088 
z
" style="fill:#2ca02c;stroke:#000000;stroke-linejoin:miter;stroke-width:2;"/>
   </g>
   <g id="patch_5">
    <path d="M 189.804763 815.837124 
C 189.276213 831.14116 189.276213 846.458883 189.804765 861.762919 
C 190.333317 877.066955 191.390104 892.34818 192.97324 907.579285 
L 854.688351 838.8 
L 189.804763 815.837124 
z
" style="fill:#d62728;stroke:#000000;stroke-linejoin:miter;stroke-width:2;"/>
   </g>
   <g id="patch_6">
    <path d="M 192.97324 907.579285 
C 199.315197 968.594299 214.065839 1028.439996 236.80541 1085.41336 
C 259.54498 1142.386724 290.055715 1195.942153 327.469377 1244.555631 
L 854.688351 838.8 
L 192.97324 907.579285 
z
" style="fill:#9467bd;stroke:#000000;stroke-linejoin:miter;stroke-width:2;"/>
   </g>
   <g id="patch_7">
    <path d="M 327.469377 1244.555631 
C 341.480408 1262.760877 356.424999 1280.228195 372.243082 1296.887373 
C 388.061165 1313.546551 404.731516 1329.375239 422.187129 1344.309814 
L 854.688351 838.8 
L 327.469377 1244.555631 
z
" style="fill:#8c564b;stroke:#000000;stroke-linejoin:miter;stroke-width:2;"/>
   </g>
   <g id="patch_8">
    <path d="M 422.187129 1344.309814 
C 515.850467 1424.445761 629.968234 1476.995063 751.750067 1496.067973 
C 873.5319 1515.140883 998.251435 1499.997179 1111.930055 1452.334175 
C 1225.608676 1404.671171 1323.834505 1326.338671 1395.598352 1226.116213 
C 1467.362199 1125.893756 1509.878903 1007.670983 1518.383175 884.698352 
L 854.688351 838.8 
L 422.187129 1344.309814 
z
" style="fill:#e377c2;stroke:#000000;stroke-linejoin:miter;stroke-width:2;"/>
   </g>
   <g id="patch_9">
    <path d="M 1518.383175 884.698352 
C 1518.911371 877.060584 1519.307685 869.414268 1519.57194 861.76282 
C 1519.836195 854.111372 1519.968352 846.455932 1519.968351 838.799922 
L 854.688351 838.8 
L 1518.383175 884.698352 
z
" style="fill:#7f7f7f;stroke:#000000;stroke-linejoin:miter;stroke-width:2;"/>
   </g>
   <g id="matplotlib.axis_1"/>
   <g id="matplotlib.axis_2"/>
   <g id="text_1">
    <!-- GNA11 -->
    <defs>
     <path d="M 59.515625 10.40625 
L 59.515625 29.984375 
L 43.40625 29.984375 
L 43.40625 38.09375 
L 69.28125 38.09375 
L 69.28125 6.78125 
Q 63.578125 2.734375 56.6875 0.65625 
Q 49.8125 -1.421875 42 -1.421875 
Q 24.90625 -1.421875 15.25 8.5625 
Q 5.609375 18.5625 5.609375 36.375 
Q 5.609375 54.25 15.25 64.234375 
Q 24.90625 74.21875 42 74.21875 
Q 49.125 74.21875 55.546875 72.453125 
Q 61.96875 70.703125 67.390625 67.28125 
L 67.390625 56.78125 
Q 61.921875 61.421875 55.765625 63.765625 
Q 49.609375 66.109375 42.828125 66.109375 
Q 29.4375 66.109375 22.71875 58.640625 
Q 16.015625 51.171875 16.015625 36.375 
Q 16.015625 21.625 22.71875 14.15625 
Q 29.4375 6.6875 42.828125 6.6875 
Q 48.046875 6.6875 52.140625 7.59375 
Q 56.25 8.5 59.515625 10.40625 
z
" id="DejaVuSans-71"/>
     <path d="M 9.8125 72.90625 
L 23.09375 72.90625 
L 55.421875 11.921875 
L 55.421875 72.90625 
L 64.984375 72.90625 
L 64.984375 0 
L 51.703125 0 
L 19.390625 60.984375 
L 19.390625 0 
L 9.8125 0 
z
" id="DejaVuSans-78"/>
     <path d="M 34.1875 63.1875 
L 20.796875 26.90625 
L 47.609375 26.90625 
z
M 28.609375 72.90625 
L 39.796875 72.90625 
L 67.578125 0 
L 57.328125 0 
L 50.6875 18.703125 
L 17.828125 18.703125 
L 11.1875 0 
L 0.78125 0 
z
" id="DejaVuSans-65"/>
     <path d="M 12.40625 8.296875 
L 28.515625 8.296875 
L 28.515625 63.921875 
L 10.984375 60.40625 
L 10.984375 69.390625 
L 28.421875 72.90625 
L 38.28125 72.90625 
L 38.28125 8.296875 
L 54.390625 8.296875 
L 54.390625 0 
L 12.40625 0 
z
" id="DejaVuSans-49"/>
    </defs>
    <g transform="translate(1586.060296 823.7505)scale(0.37 -0.37)">
     <use xlink:href="#DejaVuSans-71"/>
     <use x="77.490234" xlink:href="#DejaVuSans-78"/>
     <use x="152.294922" xlink:href="#DejaVuSans-65"/>
     <use x="220.703125" xlink:href="#DejaVuSans-49"/>
     <use x="284.326172" xlink:href="#DejaVuSans-49"/>
    </g>
   </g>
   <g id="text_2">
    <!-- GNAI1 -->
    <defs>
     <path d="M 9.8125 72.90625 
L 19.671875 72.90625 
L 19.671875 0 
L 9.8125 0 
z
" id="DejaVuSans-73"/>
    </defs>
    <g transform="translate(917.77047 119.925608)scale(0.37 -0.37)">
     <use xlink:href="#DejaVuSans-71"/>
     <use x="77.490234" xlink:href="#DejaVuSans-78"/>
     <use x="152.294922" xlink:href="#DejaVuSans-65"/>
     <use x="220.703125" xlink:href="#DejaVuSans-73"/>
     <use x="250.195312" xlink:href="#DejaVuSans-49"/>
    </g>
   </g>
   <g id="text_3">
    <!-- GNAI2 -->
    <defs>
     <path d="M 19.1875 8.296875 
L 53.609375 8.296875 
L 53.609375 0 
L 7.328125 0 
L 7.328125 8.296875 
Q 12.9375 14.109375 22.625 23.890625 
Q 32.328125 33.6875 34.8125 36.53125 
Q 39.546875 41.84375 41.421875 45.53125 
Q 43.3125 49.21875 43.3125 52.78125 
Q 43.3125 58.59375 39.234375 62.25 
Q 35.15625 65.921875 28.609375 65.921875 
Q 23.96875 65.921875 18.8125 64.3125 
Q 13.671875 62.703125 7.8125 59.421875 
L 7.8125 69.390625 
Q 13.765625 71.78125 18.9375 73 
Q 24.125 74.21875 28.421875 74.21875 
Q 39.75 74.21875 46.484375 68.546875 
Q 53.21875 62.890625 53.21875 53.421875 
Q 53.21875 48.921875 51.53125 44.890625 
Q 49.859375 40.875 45.40625 35.40625 
Q 44.1875 33.984375 37.640625 27.21875 
Q 31.109375 20.453125 19.1875 8.296875 
z
" id="DejaVuSans-50"/>
    </defs>
    <g transform="translate(13.730429 748.273763)scale(0.37 -0.37)">
     <use xlink:href="#DejaVuSans-71"/>
     <use x="77.490234" xlink:href="#DejaVuSans-78"/>
     <use x="152.294922" xlink:href="#DejaVuSans-65"/>
     <use x="220.703125" xlink:href="#DejaVuSans-73"/>
     <use x="250.195312" xlink:href="#DejaVuSans-50"/>
    </g>
   </g>
   <g id="text_4">
    <!-- GNAI3 -->
    <defs>
     <path d="M 40.578125 39.3125 
Q 47.65625 37.796875 51.625 33 
Q 55.609375 28.21875 55.609375 21.1875 
Q 55.609375 10.40625 48.1875 4.484375 
Q 40.765625 -1.421875 27.09375 -1.421875 
Q 22.515625 -1.421875 17.65625 -0.515625 
Q 12.796875 0.390625 7.625 2.203125 
L 7.625 11.71875 
Q 11.71875 9.328125 16.59375 8.109375 
Q 21.484375 6.890625 26.8125 6.890625 
Q 36.078125 6.890625 40.9375 10.546875 
Q 45.796875 14.203125 45.796875 21.1875 
Q 45.796875 27.640625 41.28125 31.265625 
Q 36.765625 34.90625 28.71875 34.90625 
L 20.21875 34.90625 
L 20.21875 43.015625 
L 29.109375 43.015625 
Q 36.375 43.015625 40.234375 45.921875 
Q 44.09375 48.828125 44.09375 54.296875 
Q 44.09375 59.90625 40.109375 62.90625 
Q 36.140625 65.921875 28.71875 65.921875 
Q 24.65625 65.921875 20.015625 65.03125 
Q 15.375 64.15625 9.8125 62.3125 
L 9.8125 71.09375 
Q 15.4375 72.65625 20.34375 73.4375 
Q 25.25 74.21875 29.59375 74.21875 
Q 40.828125 74.21875 47.359375 69.109375 
Q 53.90625 64.015625 53.90625 55.328125 
Q 53.90625 49.265625 50.4375 45.09375 
Q 46.96875 40.921875 40.578125 39.3125 
z
" id="DejaVuSans-51"/>
    </defs>
    <g transform="translate(7.2 874.268898)scale(0.37 -0.37)">
     <use xlink:href="#DejaVuSans-71"/>
     <use x="77.490234" xlink:href="#DejaVuSans-78"/>
     <use x="152.294922" xlink:href="#DejaVuSans-65"/>
     <use x="220.703125" xlink:href="#DejaVuSans-73"/>
     <use x="250.195312" xlink:href="#DejaVuSans-51"/>
    </g>
   </g>
   <g id="text_5">
    <!-- GNAO1 -->
    <defs>
     <path d="M 39.40625 66.21875 
Q 28.65625 66.21875 22.328125 58.203125 
Q 16.015625 50.203125 16.015625 36.375 
Q 16.015625 22.609375 22.328125 14.59375 
Q 28.65625 6.59375 39.40625 6.59375 
Q 50.140625 6.59375 56.421875 14.59375 
Q 62.703125 22.609375 62.703125 36.375 
Q 62.703125 50.203125 56.421875 58.203125 
Q 50.140625 66.21875 39.40625 66.21875 
z
M 39.40625 74.21875 
Q 54.734375 74.21875 63.90625 63.9375 
Q 73.09375 53.65625 73.09375 36.375 
Q 73.09375 19.140625 63.90625 8.859375 
Q 54.734375 -1.421875 39.40625 -1.421875 
Q 24.03125 -1.421875 14.8125 8.828125 
Q 5.609375 19.09375 5.609375 36.375 
Q 5.609375 53.65625 14.8125 63.9375 
Q 24.03125 74.21875 39.40625 74.21875 
z
" id="DejaVuSans-79"/>
    </defs>
    <g transform="translate(41.337272 1120.284384)scale(0.37 -0.37)">
     <use xlink:href="#DejaVuSans-71"/>
     <use x="77.490234" xlink:href="#DejaVuSans-78"/>
     <use x="152.294922" xlink:href="#DejaVuSans-65"/>
     <use x="218.953125" xlink:href="#DejaVuSans-79"/>
     <use x="297.664062" xlink:href="#DejaVuSans-49"/>
    </g>
   </g>
   <g id="text_6">
    <!-- GNAQ -->
    <defs>
     <path d="M 39.40625 66.21875 
Q 28.65625 66.21875 22.328125 58.203125 
Q 16.015625 50.203125 16.015625 36.375 
Q 16.015625 22.609375 22.328125 14.59375 
Q 28.65625 6.59375 39.40625 6.59375 
Q 50.140625 6.59375 56.421875 14.59375 
Q 62.703125 22.609375 62.703125 36.375 
Q 62.703125 50.203125 56.421875 58.203125 
Q 50.140625 66.21875 39.40625 66.21875 
z
M 53.21875 1.3125 
L 66.21875 -12.890625 
L 54.296875 -12.890625 
L 43.5 -1.21875 
Q 41.890625 -1.3125 41.03125 -1.359375 
Q 40.1875 -1.421875 39.40625 -1.421875 
Q 24.03125 -1.421875 14.8125 8.859375 
Q 5.609375 19.140625 5.609375 36.375 
Q 5.609375 53.65625 14.8125 63.9375 
Q 24.03125 74.21875 39.40625 74.21875 
Q 54.734375 74.21875 63.90625 63.9375 
Q 73.09375 53.65625 73.09375 36.375 
Q 73.09375 23.6875 67.984375 14.640625 
Q 62.890625 5.609375 53.21875 1.3125 
z
" id="DejaVuSans-81"/>
    </defs>
    <g transform="translate(213.859961 1352.905797)scale(0.37 -0.37)">
     <use xlink:href="#DejaVuSans-71"/>
     <use x="77.490234" xlink:href="#DejaVuSans-78"/>
     <use x="152.294922" xlink:href="#DejaVuSans-65"/>
     <use x="218.953125" xlink:href="#DejaVuSans-81"/>
    </g>
   </g>
   <g id="text_7">
    <!-- GNAS -->
    <defs>
     <path d="M 53.515625 70.515625 
L 53.515625 60.890625 
Q 47.90625 63.578125 42.921875 64.890625 
Q 37.9375 66.21875 33.296875 66.21875 
Q 25.25 66.21875 20.875 63.09375 
Q 16.5 59.96875 16.5 54.203125 
Q 16.5 49.359375 19.40625 46.890625 
Q 22.3125 44.4375 30.421875 42.921875 
L 36.375 41.703125 
Q 47.40625 39.59375 52.65625 34.296875 
Q 57.90625 29 57.90625 20.125 
Q 57.90625 9.515625 50.796875 4.046875 
Q 43.703125 -1.421875 29.984375 -1.421875 
Q 24.8125 -1.421875 18.96875 -0.25 
Q 13.140625 0.921875 6.890625 3.21875 
L 6.890625 13.375 
Q 12.890625 10.015625 18.65625 8.296875 
Q 24.421875 6.59375 29.984375 6.59375 
Q 38.421875 6.59375 43.015625 9.90625 
Q 47.609375 13.234375 47.609375 19.390625 
Q 47.609375 24.75 44.3125 27.78125 
Q 41.015625 30.8125 33.5 32.328125 
L 27.484375 33.5 
Q 16.453125 35.6875 11.515625 40.375 
Q 6.59375 45.0625 6.59375 53.421875 
Q 6.59375 63.09375 13.40625 68.65625 
Q 20.21875 74.21875 32.171875 74.21875 
Q 37.3125 74.21875 42.625 73.28125 
Q 47.953125 72.359375 53.515625 70.515625 
z
" id="DejaVuSans-83"/>
    </defs>
    <g transform="translate(1137.654226 1523.89728)scale(0.37 -0.37)">
     <use xlink:href="#DejaVuSans-71"/>
     <use x="77.490234" xlink:href="#DejaVuSans-78"/>
     <use x="152.294922" xlink:href="#DejaVuSans-65"/>
     <use x="220.703125" xlink:href="#DejaVuSans-83"/>
    </g>
   </g>
   <g id="text_8">
    <!-- GNAT1 -->
    <defs>
     <path d="M -0.296875 72.90625 
L 61.375 72.90625 
L 61.375 64.59375 
L 35.5 64.59375 
L 35.5 0 
L 25.59375 0 
L 25.59375 64.59375 
L -0.296875 64.59375 
z
" id="DejaVuSans-84"/>
    </defs>
    <g transform="translate(1586.060299 874.268789)scale(0.37 -0.37)">
     <use xlink:href="#DejaVuSans-71"/>
     <use x="77.490234" xlink:href="#DejaVuSans-78"/>
     <use x="152.294922" xlink:href="#DejaVuSans-65"/>
     <use x="212.953125" xlink:href="#DejaVuSans-84"/>
     <use x="274.037109" xlink:href="#DejaVuSans-49"/>
    </g>
   </g>
  </g>
 </g>
</svg>
