<?xml version="1.0" encoding="utf-8" standalone="no"?>
<!DOCTYPE svg PUBLIC "-//W3C//DTD SVG 1.1//EN"
  "http://www.w3.org/Graphics/SVG/1.1/DTD/svg11.dtd">
<!-- Created with matplotlib (https://matplotlib.org/) -->
<svg height="399.203885pt" version="1.1" viewBox="0 0 572.4 399.203885" width="572.4pt" xmlns="http://www.w3.org/2000/svg" xmlns:xlink="http://www.w3.org/1999/xlink">
 <defs>
  <style type="text/css">
*{stroke-linecap:butt;stroke-linejoin:round;}
  </style>
 </defs>
 <g id="figure_1">
  <g id="patch_1">
   <path d="M 0 399.203885 
L 572.4 399.203885 
L 572.4 0 
L 0 0 
z
" style="fill:#ffffff;"/>
  </g>
  <g id="axes_1">
   <g id="patch_2">
    <path clip-path="url(#p4632b54186)" d="M 315.346385 121.957365 
C 308.360383 108.988202 299.451701 97.150659 288.923364 86.847381 
C 278.395026 76.544104 266.367773 67.893252 253.250704 61.18908 
C 240.133635 54.484908 226.077179 49.804299 211.559458 47.306463 
C 197.041736 44.808626 182.229241 44.522207 167.62581 46.456948 
C 153.022379 48.391689 138.795487 52.525401 125.429052 58.71748 
C 112.062617 64.909559 99.709928 73.088992 88.791154 82.977561 
C 77.872381 92.86613 68.51274 104.350432 61.030596 117.039834 
C 53.548451 129.729237 48.029609 143.478216 44.661789 157.819109 
C 41.293969 172.160002 40.115794 186.928345 41.167339 201.621801 
C 42.218884 216.315258 45.488089 230.765322 50.863755 244.480483 
C 56.239421 258.195644 63.659899 271.018614 72.872785 282.513228 
C 82.085671 294.007841 92.985311 304.042277 105.20096 312.275219 
C 117.41661 320.508162 130.808177 326.845194 144.920156 331.070765 
C 159.032136 335.296337 173.702689 337.361989 188.432806 337.197459 
C 203.162923 337.032929 217.783677 334.640104 231.797751 330.100375 
C 245.811825 325.560645 259.058505 318.926074 271.087211 310.422331 
C 267.471954 303.607117 265.400885 296.078879 265.021423 288.373475 
C 264.641961 280.668072 265.963328 272.972769 268.89147 265.835317 
C 271.819611 258.697865 276.283363 252.291726 281.964998 247.072889 
C 287.646633 241.854052 294.408068 237.94935 301.768025 235.63672 
C 294.310604 217.072147 291.645019 196.925599 294.017807 177.060393 
C 296.390594 157.195187 303.726274 138.243235 315.346385 121.957365 
" style="fill:#4c72b0;opacity:0.4;"/>
   </g>
   <g id="patch_3">
    <path clip-path="url(#p4632b54186)" d="M 315.346385 121.957365 
C 324.509345 138.967941 330.205247 157.629374 332.103154 176.857412 
C 334.00106 196.08545 332.063487 215.500347 326.40301 233.974071 
C 333.80786 235.242655 340.855448 238.083994 347.069545 242.306092 
C 353.283642 246.528189 358.521054 252.033752 362.427871 258.450752 
C 366.334688 264.867752 368.820883 272.048319 369.718457 279.507238 
C 370.616031 286.966156 369.9043 294.531548 367.631358 301.692193 
C 388.378928 310.096801 411.080188 312.490134 433.124283 308.596937 
C 455.168377 304.70374 475.676526 294.679214 492.2901 279.676273 
C 508.903674 264.673332 520.960379 245.290063 527.073583 223.755723 
C 533.186786 202.221382 533.112787 179.394429 526.860095 157.900175 
C 520.607404 136.405922 508.425281 117.101229 491.714785 102.206317 
C 475.00429 87.311404 454.431579 77.420053 432.362706 73.669859 
C 410.293834 69.919666 387.608568 72.460131 366.915925 80.999078 
C 346.223281 89.538025 328.348167 103.73505 315.346385 121.957365 
" style="fill:#c24a4d;opacity:0.4;"/>
   </g>
   <g id="patch_4">
    <path clip-path="url(#p4632b54186)" d="M 315.346385 121.957365 
C 303.726274 138.243235 296.390594 157.195187 294.017807 177.060393 
C 291.645019 196.925599 294.310604 217.072147 301.768025 235.63672 
C 305.735597 234.390039 309.83713 233.618576 313.986517 233.338528 
C 318.135904 233.05848 322.303903 233.271821 326.40301 233.974071 
C 332.063487 215.500347 334.00106 196.08545 332.103154 176.857412 
C 330.205247 157.629374 324.509345 138.967941 315.346385 121.957365 
" style="fill:#bd84b1;opacity:0.4;"/>
   </g>
   <g id="patch_5">
    <path clip-path="url(#p4632b54186)" d="M 271.087211 310.422331 
C 275.938564 319.567742 283.385052 327.079456 292.487806 332.010381 
C 301.59056 336.941307 311.950235 339.07512 322.260662 338.142785 
C 332.57109 337.21045 342.379942 333.25287 350.4505 326.769024 
C 358.521058 320.285178 364.499258 311.559519 367.631358 301.692193 
C 357.187585 297.461538 347.396185 291.771454 338.549816 284.792014 
C 329.703447 277.812573 321.891135 269.614015 315.346385 260.441388 
C 310.016689 270.335702 303.562392 279.581659 296.111804 287.995448 
C 288.661217 296.409238 280.264041 303.934735 271.087211 310.422331 
" style="fill:#008000;opacity:0.4;"/>
   </g>
   <g id="patch_6">
    <path clip-path="url(#p4632b54186)" d="M 271.087211 310.422331 
C 280.264041 303.934735 288.661217 296.409238 296.111804 287.995448 
C 303.562392 279.581659 310.016689 270.335702 315.346385 260.441388 
C 312.601721 256.594674 310.088201 252.588168 307.819134 248.443083 
C 305.550067 244.297998 303.529465 240.021663 301.768025 235.63672 
C 294.408068 237.94935 287.646633 241.854052 281.964998 247.072889 
C 276.283363 252.291726 271.819611 258.697865 268.89147 265.835317 
C 265.963328 272.972769 264.641961 280.668072 265.021423 288.373475 
C 265.400885 296.078879 267.471954 303.607117 271.087211 310.422331 
" style="fill:#35a97b;opacity:0.4;"/>
   </g>
   <g id="patch_7">
    <path clip-path="url(#p4632b54186)" d="M 326.40301 233.974071 
C 324.99991 238.553275 323.372349 243.06067 321.52623 247.479905 
C 319.68011 251.89914 317.617668 256.224865 315.346385 260.441388 
C 321.891135 269.614015 329.703447 277.812573 338.549816 284.792014 
C 347.396185 291.771454 357.187585 297.461538 367.631358 301.692193 
C 369.9043 294.531548 370.616031 286.966156 369.718457 279.507238 
C 368.820883 272.048319 366.334688 264.867752 362.427871 258.450752 
C 358.521054 252.033752 353.283642 246.528189 347.069545 242.306092 
C 340.855448 238.083994 333.80786 235.242655 326.40301 233.974071 
" style="fill:#888d36;opacity:0.4;"/>
   </g>
   <g id="patch_8">
    <path clip-path="url(#p4632b54186)" d="M 301.768025 235.63672 
C 303.529465 240.021663 305.550067 244.297998 307.819134 248.443083 
C 310.088201 252.588168 312.601721 256.594674 315.346385 260.441388 
C 317.617668 256.224865 319.68011 251.89914 321.52623 247.479905 
C 323.372349 243.06067 324.99991 238.553275 326.40301 233.974071 
C 322.303903 233.271821 318.135904 233.05848 313.986517 233.338528 
C 309.83713 233.618576 305.735597 234.390039 301.768025 235.63672 
" style="fill:#6c7e65;opacity:0.4;"/>
   </g>
   <g id="text_1">
    <!-- 50 -->
    <defs>
     <path d="M 10.796875 72.90625 
L 49.515625 72.90625 
L 49.515625 64.59375 
L 19.828125 64.59375 
L 19.828125 46.734375 
Q 21.96875 47.46875 24.109375 47.828125 
Q 26.265625 48.1875 28.421875 48.1875 
Q 40.625 48.1875 47.75 41.5 
Q 54.890625 34.8125 54.890625 23.390625 
Q 54.890625 11.625 47.5625 5.09375 
Q 40.234375 -1.421875 26.90625 -1.421875 
Q 22.3125 -1.421875 17.546875 -0.640625 
Q 12.796875 0.140625 7.71875 1.703125 
L 7.71875 11.625 
Q 12.109375 9.234375 16.796875 8.0625 
Q 21.484375 6.890625 26.703125 6.890625 
Q 35.15625 6.890625 40.078125 11.328125 
Q 45.015625 15.765625 45.015625 23.390625 
Q 45.015625 31 40.078125 35.4375 
Q 35.15625 39.890625 26.703125 39.890625 
Q 22.75 39.890625 18.8125 39.015625 
Q 14.890625 38.140625 10.796875 36.28125 
z
" id="DejaVuSans-53"/>
     <path d="M 31.78125 66.40625 
Q 24.171875 66.40625 20.328125 58.90625 
Q 16.5 51.421875 16.5 36.375 
Q 16.5 21.390625 20.328125 13.890625 
Q 24.171875 6.390625 31.78125 6.390625 
Q 39.453125 6.390625 43.28125 13.890625 
Q 47.125 21.390625 47.125 36.375 
Q 47.125 51.421875 43.28125 58.90625 
Q 39.453125 66.40625 31.78125 66.40625 
z
M 31.78125 74.21875 
Q 44.046875 74.21875 50.515625 64.515625 
Q 56.984375 54.828125 56.984375 36.375 
Q 56.984375 17.96875 50.515625 8.265625 
Q 44.046875 -1.421875 31.78125 -1.421875 
Q 19.53125 -1.421875 13.0625 8.265625 
Q 6.59375 17.96875 6.59375 36.375 
Q 6.59375 54.828125 13.0625 64.515625 
Q 19.53125 74.21875 31.78125 74.21875 
z
" id="DejaVuSans-48"/>
    </defs>
    <g transform="translate(110.309914 193.601511)scale(0.3 -0.3)">
     <use xlink:href="#DejaVuSans-53"/>
     <use x="63.623047" xlink:href="#DejaVuSans-48"/>
    </g>
   </g>
   <g id="text_2">
    <!-- 32 -->
    <defs>
     <path d="M 40.578125 39.3125 
Q 47.65625 37.796875 51.625 33 
Q 55.609375 28.21875 55.609375 21.1875 
Q 55.609375 10.40625 48.1875 4.484375 
Q 40.765625 -1.421875 27.09375 -1.421875 
Q 22.515625 -1.421875 17.65625 -0.515625 
Q 12.796875 0.390625 7.625 2.203125 
L 7.625 11.71875 
Q 11.71875 9.328125 16.59375 8.109375 
Q 21.484375 6.890625 26.8125 6.890625 
Q 36.078125 6.890625 40.9375 10.546875 
Q 45.796875 14.203125 45.796875 21.1875 
Q 45.796875 27.640625 41.28125 31.265625 
Q 36.765625 34.90625 28.71875 34.90625 
L 20.21875 34.90625 
L 20.21875 43.015625 
L 29.109375 43.015625 
Q 36.375 43.015625 40.234375 45.921875 
Q 44.09375 48.828125 44.09375 54.296875 
Q 44.09375 59.90625 40.109375 62.90625 
Q 36.140625 65.921875 28.71875 65.921875 
Q 24.65625 65.921875 20.015625 65.03125 
Q 15.375 64.15625 9.8125 62.3125 
L 9.8125 71.09375 
Q 15.4375 72.65625 20.34375 73.4375 
Q 25.25 74.21875 29.59375 74.21875 
Q 40.828125 74.21875 47.359375 69.109375 
Q 53.90625 64.015625 53.90625 55.328125 
Q 53.90625 49.265625 50.4375 45.09375 
Q 46.96875 40.921875 40.578125 39.3125 
z
" id="DejaVuSans-51"/>
     <path d="M 19.1875 8.296875 
L 53.609375 8.296875 
L 53.609375 0 
L 7.328125 0 
L 7.328125 8.296875 
Q 12.9375 14.109375 22.625 23.890625 
Q 32.328125 33.6875 34.8125 36.53125 
Q 39.546875 41.84375 41.421875 45.53125 
Q 43.3125 49.21875 43.3125 52.78125 
Q 43.3125 58.59375 39.234375 62.25 
Q 35.15625 65.921875 28.609375 65.921875 
Q 23.96875 65.921875 18.8125 64.3125 
Q 13.671875 62.703125 7.8125 59.421875 
L 7.8125 69.390625 
Q 13.765625 71.78125 18.9375 73 
Q 24.125 74.21875 28.421875 74.21875 
Q 39.75 74.21875 46.484375 68.546875 
Q 53.21875 62.890625 53.21875 53.421875 
Q 53.21875 48.921875 51.53125 44.890625 
Q 49.859375 40.875 45.40625 35.40625 
Q 44.1875 33.984375 37.640625 27.21875 
Q 31.109375 20.453125 19.1875 8.296875 
z
" id="DejaVuSans-50"/>
    </defs>
    <g transform="translate(445.41954 192.949201)scale(0.3 -0.3)">
     <use xlink:href="#DejaVuSans-51"/>
     <use x="63.623047" xlink:href="#DejaVuSans-50"/>
    </g>
   </g>
   <g id="text_3">
    <!-- 2 -->
    <g transform="translate(301.944184 197.036369)scale(0.3 -0.3)">
     <use xlink:href="#DejaVuSans-50"/>
    </g>
   </g>
   <g id="text_4">
    <!-- 4 -->
    <defs>
     <path d="M 37.796875 64.3125 
L 12.890625 25.390625 
L 37.796875 25.390625 
z
M 35.203125 72.90625 
L 47.609375 72.90625 
L 47.609375 25.390625 
L 58.015625 25.390625 
L 58.015625 17.1875 
L 47.609375 17.1875 
L 47.609375 0 
L 37.796875 0 
L 37.796875 17.1875 
L 4.890625 17.1875 
L 4.890625 26.703125 
z
" id="DejaVuSans-52"/>
    </defs>
    <g transform="translate(311.875035 330.61181)scale(0.3 -0.3)">
     <use xlink:href="#DejaVuSans-52"/>
    </g>
   </g>
   <g id="text_5">
    <!-- 1 -->
    <defs>
     <path d="M 12.40625 8.296875 
L 28.515625 8.296875 
L 28.515625 63.921875 
L 10.984375 60.40625 
L 10.984375 69.390625 
L 28.421875 72.90625 
L 38.28125 72.90625 
L 38.28125 8.296875 
L 54.390625 8.296875 
L 54.390625 0 
L 12.40625 0 
z
" id="DejaVuSans-49"/>
    </defs>
    <g transform="translate(268.239473 276.595031)scale(0.3 -0.3)">
     <use xlink:href="#DejaVuSans-49"/>
    </g>
   </g>
   <g id="text_6">
    <!-- 1 -->
    <g transform="translate(344.157409 271.889853)scale(0.3 -0.3)">
     <use xlink:href="#DejaVuSans-49"/>
    </g>
   </g>
   <g id="text_7">
    <!-- 1 -->
    <g transform="translate(304.46174 248.631343)scale(0.3 -0.3)">
     <use xlink:href="#DejaVuSans-49"/>
    </g>
   </g>
   <g id="text_8">
    <!-- Gio -->
    <defs>
     <path d="M 59.515625 10.40625 
L 59.515625 29.984375 
L 43.40625 29.984375 
L 43.40625 38.09375 
L 69.28125 38.09375 
L 69.28125 6.78125 
Q 63.578125 2.734375 56.6875 0.65625 
Q 49.8125 -1.421875 42 -1.421875 
Q 24.90625 -1.421875 15.25 8.5625 
Q 5.609375 18.5625 5.609375 36.375 
Q 5.609375 54.25 15.25 64.234375 
Q 24.90625 74.21875 42 74.21875 
Q 49.125 74.21875 55.546875 72.453125 
Q 61.96875 70.703125 67.390625 67.28125 
L 67.390625 56.78125 
Q 61.921875 61.421875 55.765625 63.765625 
Q 49.609375 66.109375 42.828125 66.109375 
Q 29.4375 66.109375 22.71875 58.640625 
Q 16.015625 51.171875 16.015625 36.375 
Q 16.015625 21.625 22.71875 14.15625 
Q 29.4375 6.6875 42.828125 6.6875 
Q 48.046875 6.6875 52.140625 7.59375 
Q 56.25 8.5 59.515625 10.40625 
z
" id="DejaVuSans-71"/>
     <path d="M 9.421875 54.6875 
L 18.40625 54.6875 
L 18.40625 0 
L 9.421875 0 
z
M 9.421875 75.984375 
L 18.40625 75.984375 
L 18.40625 64.59375 
L 9.421875 64.59375 
z
" id="DejaVuSans-105"/>
     <path d="M 30.609375 48.390625 
Q 23.390625 48.390625 19.1875 42.75 
Q 14.984375 37.109375 14.984375 27.296875 
Q 14.984375 17.484375 19.15625 11.84375 
Q 23.34375 6.203125 30.609375 6.203125 
Q 37.796875 6.203125 41.984375 11.859375 
Q 46.1875 17.53125 46.1875 27.296875 
Q 46.1875 37.015625 41.984375 42.703125 
Q 37.796875 48.390625 30.609375 48.390625 
z
M 30.609375 56 
Q 42.328125 56 49.015625 48.375 
Q 55.71875 40.765625 55.71875 27.296875 
Q 55.71875 13.875 49.015625 6.21875 
Q 42.328125 -1.421875 30.609375 -1.421875 
Q 18.84375 -1.421875 12.171875 6.21875 
Q 5.515625 13.875 5.515625 27.296875 
Q 5.515625 40.765625 12.171875 48.375 
Q 18.84375 56 30.609375 56 
z
" id="DejaVuSans-111"/>
    </defs>
    <g transform="translate(30.571904 45.192187)scale(0.5 -0.5)">
     <use xlink:href="#DejaVuSans-71"/>
     <use x="77.490234" xlink:href="#DejaVuSans-105"/>
     <use x="105.273438" xlink:href="#DejaVuSans-111"/>
    </g>
   </g>
   <g id="text_9">
    <!-- Gs -->
    <defs>
     <path d="M 44.28125 53.078125 
L 44.28125 44.578125 
Q 40.484375 46.53125 36.375 47.5 
Q 32.28125 48.484375 27.875 48.484375 
Q 21.1875 48.484375 17.84375 46.4375 
Q 14.5 44.390625 14.5 40.28125 
Q 14.5 37.15625 16.890625 35.375 
Q 19.28125 33.59375 26.515625 31.984375 
L 29.59375 31.296875 
Q 39.15625 29.25 43.1875 25.515625 
Q 47.21875 21.78125 47.21875 15.09375 
Q 47.21875 7.46875 41.1875 3.015625 
Q 35.15625 -1.421875 24.609375 -1.421875 
Q 20.21875 -1.421875 15.453125 -0.5625 
Q 10.6875 0.296875 5.421875 2 
L 5.421875 11.28125 
Q 10.40625 8.6875 15.234375 7.390625 
Q 20.0625 6.109375 24.8125 6.109375 
Q 31.15625 6.109375 34.5625 8.28125 
Q 37.984375 10.453125 37.984375 14.40625 
Q 37.984375 18.0625 35.515625 20.015625 
Q 33.0625 21.96875 24.703125 23.78125 
L 21.578125 24.515625 
Q 13.234375 26.265625 9.515625 29.90625 
Q 5.8125 33.546875 5.8125 39.890625 
Q 5.8125 47.609375 11.28125 51.796875 
Q 16.75 56 26.8125 56 
Q 31.78125 56 36.171875 55.265625 
Q 40.578125 54.546875 44.28125 53.078125 
z
" id="DejaVuSans-115"/>
    </defs>
    <g transform="translate(471.997942 71.985006)scale(0.5 -0.5)">
     <use xlink:href="#DejaVuSans-71"/>
     <use x="77.490234" xlink:href="#DejaVuSans-115"/>
    </g>
   </g>
   <g id="text_10">
    <!-- Gq11 -->
    <defs>
     <path d="M 14.796875 27.296875 
Q 14.796875 17.390625 18.875 11.75 
Q 22.953125 6.109375 30.078125 6.109375 
Q 37.203125 6.109375 41.296875 11.75 
Q 45.40625 17.390625 45.40625 27.296875 
Q 45.40625 37.203125 41.296875 42.84375 
Q 37.203125 48.484375 30.078125 48.484375 
Q 22.953125 48.484375 18.875 42.84375 
Q 14.796875 37.203125 14.796875 27.296875 
z
M 45.40625 8.203125 
Q 42.578125 3.328125 38.25 0.953125 
Q 33.9375 -1.421875 27.875 -1.421875 
Q 17.96875 -1.421875 11.734375 6.484375 
Q 5.515625 14.40625 5.515625 27.296875 
Q 5.515625 40.1875 11.734375 48.09375 
Q 17.96875 56 27.875 56 
Q 33.9375 56 38.25 53.625 
Q 42.578125 51.265625 45.40625 46.390625 
L 45.40625 54.6875 
L 54.390625 54.6875 
L 54.390625 -20.796875 
L 45.40625 -20.796875 
z
" id="DejaVuSans-113"/>
    </defs>
    <g transform="translate(250.471703 381.605448)scale(0.5 -0.5)">
     <use xlink:href="#DejaVuSans-71"/>
     <use x="77.490234" xlink:href="#DejaVuSans-113"/>
     <use x="140.966797" xlink:href="#DejaVuSans-49"/>
     <use x="204.589844" xlink:href="#DejaVuSans-49"/>
    </g>
   </g>
  </g>
 </g>
 <defs>
  <clipPath id="p4632b54186">
   <rect height="360.353958" width="558" x="7.2" y="11.597315"/>
  </clipPath>
 </defs>
</svg>
