<?xml version="1.0" encoding="utf-8" standalone="no"?>
<!DOCTYPE svg PUBLIC "-//W3C//DTD SVG 1.1//EN"
  "http://www.w3.org/Graphics/SVG/1.1/DTD/svg11.dtd">
<!-- Created with matplotlib (https://matplotlib.org/) -->
<svg height="852.24475pt" version="1.1" viewBox="0 0 697.915625 852.24475" width="697.915625pt" xmlns="http://www.w3.org/2000/svg" xmlns:xlink="http://www.w3.org/1999/xlink">
 <defs>
  <style type="text/css">
*{stroke-linecap:butt;stroke-linejoin:round;}
  </style>
 </defs>
 <g id="figure_1">
  <g id="patch_1">
   <path d="M 0 852.24475 
L 697.915625 852.24475 
L 697.915625 0 
L 0 0 
z
" style="fill:#ffffff;"/>
  </g>
  <g id="axes_1">
   <g id="patch_2">
    <path d="M 132.715625 734.7635 
L 690.715625 734.7635 
L 690.715625 180.3635 
L 132.715625 180.3635 
z
" style="fill:#ffffff;"/>
   </g>
   <g id="matplotlib.axis_1">
    <g id="xtick_1">
     <g id="line2d_1">
      <defs>
       <path d="M 0 0 
L 0 6 
" id="m56dc9b7afa" style="stroke:#262626;stroke-width:1.25;"/>
      </defs>
      <g>
       <use style="fill:#262626;stroke:#262626;stroke-width:1.25;" x="225.715625" xlink:href="#m56dc9b7afa" y="734.7635"/>
      </g>
     </g>
     <g id="text_1">
      <!-- Gs -->
      <defs>
       <path d="M 59.515625 10.40625 
L 59.515625 29.984375 
L 43.40625 29.984375 
L 43.40625 38.09375 
L 69.28125 38.09375 
L 69.28125 6.78125 
Q 63.578125 2.734375 56.6875 0.65625 
Q 49.8125 -1.421875 42 -1.421875 
Q 24.90625 -1.421875 15.25 8.5625 
Q 5.609375 18.5625 5.609375 36.375 
Q 5.609375 54.25 15.25 64.234375 
Q 24.90625 74.21875 42 74.21875 
Q 49.125 74.21875 55.546875 72.453125 
Q 61.96875 70.703125 67.390625 67.28125 
L 67.390625 56.78125 
Q 61.921875 61.421875 55.765625 63.765625 
Q 49.609375 66.109375 42.828125 66.109375 
Q 29.4375 66.109375 22.71875 58.640625 
Q 16.015625 51.171875 16.015625 36.375 
Q 16.015625 21.625 22.71875 14.15625 
Q 29.4375 6.6875 42.828125 6.6875 
Q 48.046875 6.6875 52.140625 7.59375 
Q 56.25 8.5 59.515625 10.40625 
z
" id="DejaVuSans-71"/>
       <path d="M 44.28125 53.078125 
L 44.28125 44.578125 
Q 40.484375 46.53125 36.375 47.5 
Q 32.28125 48.484375 27.875 48.484375 
Q 21.1875 48.484375 17.84375 46.4375 
Q 14.5 44.390625 14.5 40.28125 
Q 14.5 37.15625 16.890625 35.375 
Q 19.28125 33.59375 26.515625 31.984375 
L 29.59375 31.296875 
Q 39.15625 29.25 43.1875 25.515625 
Q 47.21875 21.78125 47.21875 15.09375 
Q 47.21875 7.46875 41.1875 3.015625 
Q 35.15625 -1.421875 24.609375 -1.421875 
Q 20.21875 -1.421875 15.453125 -0.5625 
Q 10.6875 0.296875 5.421875 2 
L 5.421875 11.28125 
Q 10.40625 8.6875 15.234375 7.390625 
Q 20.0625 6.109375 24.8125 6.109375 
Q 31.15625 6.109375 34.5625 8.28125 
Q 37.984375 10.453125 37.984375 14.40625 
Q 37.984375 18.0625 35.515625 20.015625 
Q 33.0625 21.96875 24.703125 23.78125 
L 21.578125 24.515625 
Q 13.234375 26.265625 9.515625 29.90625 
Q 5.8125 33.546875 5.8125 39.890625 
Q 5.8125 47.609375 11.28125 51.796875 
Q 16.75 56 26.8125 56 
Q 31.78125 56 36.171875 55.265625 
Q 40.578125 54.546875 44.28125 53.078125 
z
" id="DejaVuSans-115"/>
      </defs>
      <g style="fill:#262626;" transform="translate(193.321094 782.255688)scale(0.5 -0.5)">
       <use xlink:href="#DejaVuSans-71"/>
       <use x="77.490234" xlink:href="#DejaVuSans-115"/>
      </g>
     </g>
    </g>
    <g id="xtick_2">
     <g id="line2d_2">
      <g>
       <use style="fill:#262626;stroke:#262626;stroke-width:1.25;" x="411.715625" xlink:href="#m56dc9b7afa" y="734.7635"/>
      </g>
     </g>
     <g id="text_2">
      <!-- Gio -->
      <defs>
       <path d="M 9.421875 54.6875 
L 18.40625 54.6875 
L 18.40625 0 
L 9.421875 0 
z
M 9.421875 75.984375 
L 18.40625 75.984375 
L 18.40625 64.59375 
L 9.421875 64.59375 
z
" id="DejaVuSans-105"/>
       <path d="M 30.609375 48.390625 
Q 23.390625 48.390625 19.1875 42.75 
Q 14.984375 37.109375 14.984375 27.296875 
Q 14.984375 17.484375 19.15625 11.84375 
Q 23.34375 6.203125 30.609375 6.203125 
Q 37.796875 6.203125 41.984375 11.859375 
Q 46.1875 17.53125 46.1875 27.296875 
Q 46.1875 37.015625 41.984375 42.703125 
Q 37.796875 48.390625 30.609375 48.390625 
z
M 30.609375 56 
Q 42.328125 56 49.015625 48.375 
Q 55.71875 40.765625 55.71875 27.296875 
Q 55.71875 13.875 49.015625 6.21875 
Q 42.328125 -1.421875 30.609375 -1.421875 
Q 18.84375 -1.421875 12.171875 6.21875 
Q 5.515625 13.875 5.515625 27.296875 
Q 5.515625 40.765625 12.171875 48.375 
Q 18.84375 56 30.609375 56 
z
" id="DejaVuSans-111"/>
      </defs>
      <g style="fill:#262626;" transform="translate(370.102344 782.255688)scale(0.5 -0.5)">
       <use xlink:href="#DejaVuSans-71"/>
       <use x="77.490234" xlink:href="#DejaVuSans-105"/>
       <use x="105.273438" xlink:href="#DejaVuSans-111"/>
      </g>
     </g>
    </g>
    <g id="xtick_3">
     <g id="line2d_3">
      <g>
       <use style="fill:#262626;stroke:#262626;stroke-width:1.25;" x="597.715625" xlink:href="#m56dc9b7afa" y="734.7635"/>
      </g>
     </g>
     <g id="text_3">
      <!-- Gq11 -->
      <defs>
       <path d="M 14.796875 27.296875 
Q 14.796875 17.390625 18.875 11.75 
Q 22.953125 6.109375 30.078125 6.109375 
Q 37.203125 6.109375 41.296875 11.75 
Q 45.40625 17.390625 45.40625 27.296875 
Q 45.40625 37.203125 41.296875 42.84375 
Q 37.203125 48.484375 30.078125 48.484375 
Q 22.953125 48.484375 18.875 42.84375 
Q 14.796875 37.203125 14.796875 27.296875 
z
M 45.40625 8.203125 
Q 42.578125 3.328125 38.25 0.953125 
Q 33.9375 -1.421875 27.875 -1.421875 
Q 17.96875 -1.421875 11.734375 6.484375 
Q 5.515625 14.40625 5.515625 27.296875 
Q 5.515625 40.1875 11.734375 48.09375 
Q 17.96875 56 27.875 56 
Q 33.9375 56 38.25 53.625 
Q 42.578125 51.265625 45.40625 46.390625 
L 45.40625 54.6875 
L 54.390625 54.6875 
L 54.390625 -20.796875 
L 45.40625 -20.796875 
z
" id="DejaVuSans-113"/>
       <path d="M 12.40625 8.296875 
L 28.515625 8.296875 
L 28.515625 63.921875 
L 10.984375 60.40625 
L 10.984375 69.390625 
L 28.421875 72.90625 
L 38.28125 72.90625 
L 38.28125 8.296875 
L 54.390625 8.296875 
L 54.390625 0 
L 12.40625 0 
z
" id="DejaVuSans-49"/>
      </defs>
      <g style="fill:#262626;" transform="translate(530.660938 782.255688)scale(0.5 -0.5)">
       <use xlink:href="#DejaVuSans-71"/>
       <use x="77.490234" xlink:href="#DejaVuSans-113"/>
       <use x="140.966797" xlink:href="#DejaVuSans-49"/>
       <use x="204.589844" xlink:href="#DejaVuSans-49"/>
      </g>
     </g>
    </g>
    <g id="text_4">
     <!-- G-protein -->
     <defs>
      <path d="M 4.890625 31.390625 
L 31.203125 31.390625 
L 31.203125 23.390625 
L 4.890625 23.390625 
z
" id="DejaVuSans-45"/>
      <path d="M 18.109375 8.203125 
L 18.109375 -20.796875 
L 9.078125 -20.796875 
L 9.078125 54.6875 
L 18.109375 54.6875 
L 18.109375 46.390625 
Q 20.953125 51.265625 25.265625 53.625 
Q 29.59375 56 35.59375 56 
Q 45.5625 56 51.78125 48.09375 
Q 58.015625 40.1875 58.015625 27.296875 
Q 58.015625 14.40625 51.78125 6.484375 
Q 45.5625 -1.421875 35.59375 -1.421875 
Q 29.59375 -1.421875 25.265625 0.953125 
Q 20.953125 3.328125 18.109375 8.203125 
z
M 48.6875 27.296875 
Q 48.6875 37.203125 44.609375 42.84375 
Q 40.53125 48.484375 33.40625 48.484375 
Q 26.265625 48.484375 22.1875 42.84375 
Q 18.109375 37.203125 18.109375 27.296875 
Q 18.109375 17.390625 22.1875 11.75 
Q 26.265625 6.109375 33.40625 6.109375 
Q 40.53125 6.109375 44.609375 11.75 
Q 48.6875 17.390625 48.6875 27.296875 
z
" id="DejaVuSans-112"/>
      <path d="M 41.109375 46.296875 
Q 39.59375 47.171875 37.8125 47.578125 
Q 36.03125 48 33.890625 48 
Q 26.265625 48 22.1875 43.046875 
Q 18.109375 38.09375 18.109375 28.8125 
L 18.109375 0 
L 9.078125 0 
L 9.078125 54.6875 
L 18.109375 54.6875 
L 18.109375 46.1875 
Q 20.953125 51.171875 25.484375 53.578125 
Q 30.03125 56 36.53125 56 
Q 37.453125 56 38.578125 55.875 
Q 39.703125 55.765625 41.0625 55.515625 
z
" id="DejaVuSans-114"/>
      <path d="M 18.3125 70.21875 
L 18.3125 54.6875 
L 36.8125 54.6875 
L 36.8125 47.703125 
L 18.3125 47.703125 
L 18.3125 18.015625 
Q 18.3125 11.328125 20.140625 9.421875 
Q 21.96875 7.515625 27.59375 7.515625 
L 36.8125 7.515625 
L 36.8125 0 
L 27.59375 0 
Q 17.1875 0 13.234375 3.875 
Q 9.28125 7.765625 9.28125 18.015625 
L 9.28125 47.703125 
L 2.6875 47.703125 
L 2.6875 54.6875 
L 9.28125 54.6875 
L 9.28125 70.21875 
z
" id="DejaVuSans-116"/>
      <path d="M 56.203125 29.59375 
L 56.203125 25.203125 
L 14.890625 25.203125 
Q 15.484375 15.921875 20.484375 11.0625 
Q 25.484375 6.203125 34.421875 6.203125 
Q 39.59375 6.203125 44.453125 7.46875 
Q 49.3125 8.734375 54.109375 11.28125 
L 54.109375 2.78125 
Q 49.265625 0.734375 44.1875 -0.34375 
Q 39.109375 -1.421875 33.890625 -1.421875 
Q 20.796875 -1.421875 13.15625 6.1875 
Q 5.515625 13.8125 5.515625 26.8125 
Q 5.515625 40.234375 12.765625 48.109375 
Q 20.015625 56 32.328125 56 
Q 43.359375 56 49.78125 48.890625 
Q 56.203125 41.796875 56.203125 29.59375 
z
M 47.21875 32.234375 
Q 47.125 39.59375 43.09375 43.984375 
Q 39.0625 48.390625 32.421875 48.390625 
Q 24.90625 48.390625 20.390625 44.140625 
Q 15.875 39.890625 15.1875 32.171875 
z
" id="DejaVuSans-101"/>
      <path d="M 54.890625 33.015625 
L 54.890625 0 
L 45.90625 0 
L 45.90625 32.71875 
Q 45.90625 40.484375 42.875 44.328125 
Q 39.84375 48.1875 33.796875 48.1875 
Q 26.515625 48.1875 22.3125 43.546875 
Q 18.109375 38.921875 18.109375 30.90625 
L 18.109375 0 
L 9.078125 0 
L 9.078125 54.6875 
L 18.109375 54.6875 
L 18.109375 46.1875 
Q 21.34375 51.125 25.703125 53.5625 
Q 30.078125 56 35.796875 56 
Q 45.21875 56 50.046875 50.171875 
Q 54.890625 44.34375 54.890625 33.015625 
z
" id="DejaVuSans-110"/>
     </defs>
     <g style="fill:#262626;" transform="translate(294.469531 834.646313)scale(0.5 -0.5)">
      <use xlink:href="#DejaVuSans-71"/>
      <use x="77.490234" xlink:href="#DejaVuSans-45"/>
      <use x="113.574219" xlink:href="#DejaVuSans-112"/>
      <use x="177.050781" xlink:href="#DejaVuSans-114"/>
      <use x="215.914062" xlink:href="#DejaVuSans-111"/>
      <use x="277.095703" xlink:href="#DejaVuSans-116"/>
      <use x="316.304688" xlink:href="#DejaVuSans-101"/>
      <use x="377.828125" xlink:href="#DejaVuSans-105"/>
      <use x="405.611328" xlink:href="#DejaVuSans-110"/>
     </g>
    </g>
   </g>
   <g id="matplotlib.axis_2">
    <g id="ytick_1">
     <g id="line2d_4">
      <defs>
       <path d="M 0 0 
L -6 0 
" id="m968e6a7c29" style="stroke:#262626;stroke-width:1.25;"/>
      </defs>
      <g>
       <use style="fill:#262626;stroke:#262626;stroke-width:1.25;" x="132.715625" xlink:href="#m968e6a7c29" y="684.3635"/>
      </g>
     </g>
     <g id="text_5">
      <!-- 0 -->
      <defs>
       <path d="M 31.78125 66.40625 
Q 24.171875 66.40625 20.328125 58.90625 
Q 16.5 51.421875 16.5 36.375 
Q 16.5 21.390625 20.328125 13.890625 
Q 24.171875 6.390625 31.78125 6.390625 
Q 39.453125 6.390625 43.28125 13.890625 
Q 47.125 21.390625 47.125 36.375 
Q 47.125 51.421875 43.28125 58.90625 
Q 39.453125 66.40625 31.78125 66.40625 
z
M 31.78125 74.21875 
Q 44.046875 74.21875 50.515625 64.515625 
Q 56.984375 54.828125 56.984375 36.375 
Q 56.984375 17.96875 50.515625 8.265625 
Q 44.046875 -1.421875 31.78125 -1.421875 
Q 19.53125 -1.421875 13.0625 8.265625 
Q 6.59375 17.96875 6.59375 36.375 
Q 6.59375 54.828125 13.0625 64.515625 
Q 19.53125 74.21875 31.78125 74.21875 
z
" id="DejaVuSans-48"/>
      </defs>
      <g style="fill:#262626;" transform="translate(91.403125 703.359594)scale(0.5 -0.5)">
       <use xlink:href="#DejaVuSans-48"/>
      </g>
     </g>
    </g>
    <g id="ytick_2">
     <g id="line2d_5">
      <g>
       <use style="fill:#262626;stroke:#262626;stroke-width:1.25;" x="132.715625" xlink:href="#m968e6a7c29" y="617.1635"/>
      </g>
     </g>
     <g id="text_6">
      <!-- 4 -->
      <defs>
       <path d="M 37.796875 64.3125 
L 12.890625 25.390625 
L 37.796875 25.390625 
z
M 35.203125 72.90625 
L 47.609375 72.90625 
L 47.609375 25.390625 
L 58.015625 25.390625 
L 58.015625 17.1875 
L 47.609375 17.1875 
L 47.609375 0 
L 37.796875 0 
L 37.796875 17.1875 
L 4.890625 17.1875 
L 4.890625 26.703125 
z
" id="DejaVuSans-52"/>
      </defs>
      <g style="fill:#262626;" transform="translate(91.403125 636.159594)scale(0.5 -0.5)">
       <use xlink:href="#DejaVuSans-52"/>
      </g>
     </g>
    </g>
    <g id="ytick_3">
     <g id="line2d_6">
      <g>
       <use style="fill:#262626;stroke:#262626;stroke-width:1.25;" x="132.715625" xlink:href="#m968e6a7c29" y="549.9635"/>
      </g>
     </g>
     <g id="text_7">
      <!-- 8 -->
      <defs>
       <path d="M 31.78125 34.625 
Q 24.75 34.625 20.71875 30.859375 
Q 16.703125 27.09375 16.703125 20.515625 
Q 16.703125 13.921875 20.71875 10.15625 
Q 24.75 6.390625 31.78125 6.390625 
Q 38.8125 6.390625 42.859375 10.171875 
Q 46.921875 13.96875 46.921875 20.515625 
Q 46.921875 27.09375 42.890625 30.859375 
Q 38.875 34.625 31.78125 34.625 
z
M 21.921875 38.8125 
Q 15.578125 40.375 12.03125 44.71875 
Q 8.5 49.078125 8.5 55.328125 
Q 8.5 64.0625 14.71875 69.140625 
Q 20.953125 74.21875 31.78125 74.21875 
Q 42.671875 74.21875 48.875 69.140625 
Q 55.078125 64.0625 55.078125 55.328125 
Q 55.078125 49.078125 51.53125 44.71875 
Q 48 40.375 41.703125 38.8125 
Q 48.828125 37.15625 52.796875 32.3125 
Q 56.78125 27.484375 56.78125 20.515625 
Q 56.78125 9.90625 50.3125 4.234375 
Q 43.84375 -1.421875 31.78125 -1.421875 
Q 19.734375 -1.421875 13.25 4.234375 
Q 6.78125 9.90625 6.78125 20.515625 
Q 6.78125 27.484375 10.78125 32.3125 
Q 14.796875 37.15625 21.921875 38.8125 
z
M 18.3125 54.390625 
Q 18.3125 48.734375 21.84375 45.5625 
Q 25.390625 42.390625 31.78125 42.390625 
Q 38.140625 42.390625 41.71875 45.5625 
Q 45.3125 48.734375 45.3125 54.390625 
Q 45.3125 60.0625 41.71875 63.234375 
Q 38.140625 66.40625 31.78125 66.40625 
Q 25.390625 66.40625 21.84375 63.234375 
Q 18.3125 60.0625 18.3125 54.390625 
z
" id="DejaVuSans-56"/>
      </defs>
      <g style="fill:#262626;" transform="translate(91.403125 568.959594)scale(0.5 -0.5)">
       <use xlink:href="#DejaVuSans-56"/>
      </g>
     </g>
    </g>
    <g id="ytick_4">
     <g id="line2d_7">
      <g>
       <use style="fill:#262626;stroke:#262626;stroke-width:1.25;" x="132.715625" xlink:href="#m968e6a7c29" y="482.7635"/>
      </g>
     </g>
     <g id="text_8">
      <!-- 12 -->
      <defs>
       <path d="M 19.1875 8.296875 
L 53.609375 8.296875 
L 53.609375 0 
L 7.328125 0 
L 7.328125 8.296875 
Q 12.9375 14.109375 22.625 23.890625 
Q 32.328125 33.6875 34.8125 36.53125 
Q 39.546875 41.84375 41.421875 45.53125 
Q 43.3125 49.21875 43.3125 52.78125 
Q 43.3125 58.59375 39.234375 62.25 
Q 35.15625 65.921875 28.609375 65.921875 
Q 23.96875 65.921875 18.8125 64.3125 
Q 13.671875 62.703125 7.8125 59.421875 
L 7.8125 69.390625 
Q 13.765625 71.78125 18.9375 73 
Q 24.125 74.21875 28.421875 74.21875 
Q 39.75 74.21875 46.484375 68.546875 
Q 53.21875 62.890625 53.21875 53.421875 
Q 53.21875 48.921875 51.53125 44.890625 
Q 49.859375 40.875 45.40625 35.40625 
Q 44.1875 33.984375 37.640625 27.21875 
Q 31.109375 20.453125 19.1875 8.296875 
z
" id="DejaVuSans-50"/>
      </defs>
      <g style="fill:#262626;" transform="translate(59.590625 501.759594)scale(0.5 -0.5)">
       <use xlink:href="#DejaVuSans-49"/>
       <use x="63.623047" xlink:href="#DejaVuSans-50"/>
      </g>
     </g>
    </g>
    <g id="ytick_5">
     <g id="line2d_8">
      <g>
       <use style="fill:#262626;stroke:#262626;stroke-width:1.25;" x="132.715625" xlink:href="#m968e6a7c29" y="415.5635"/>
      </g>
     </g>
     <g id="text_9">
      <!-- 16 -->
      <defs>
       <path d="M 33.015625 40.375 
Q 26.375 40.375 22.484375 35.828125 
Q 18.609375 31.296875 18.609375 23.390625 
Q 18.609375 15.53125 22.484375 10.953125 
Q 26.375 6.390625 33.015625 6.390625 
Q 39.65625 6.390625 43.53125 10.953125 
Q 47.40625 15.53125 47.40625 23.390625 
Q 47.40625 31.296875 43.53125 35.828125 
Q 39.65625 40.375 33.015625 40.375 
z
M 52.59375 71.296875 
L 52.59375 62.3125 
Q 48.875 64.0625 45.09375 64.984375 
Q 41.3125 65.921875 37.59375 65.921875 
Q 27.828125 65.921875 22.671875 59.328125 
Q 17.53125 52.734375 16.796875 39.40625 
Q 19.671875 43.65625 24.015625 45.921875 
Q 28.375 48.1875 33.59375 48.1875 
Q 44.578125 48.1875 50.953125 41.515625 
Q 57.328125 34.859375 57.328125 23.390625 
Q 57.328125 12.15625 50.6875 5.359375 
Q 44.046875 -1.421875 33.015625 -1.421875 
Q 20.359375 -1.421875 13.671875 8.265625 
Q 6.984375 17.96875 6.984375 36.375 
Q 6.984375 53.65625 15.1875 63.9375 
Q 23.390625 74.21875 37.203125 74.21875 
Q 40.921875 74.21875 44.703125 73.484375 
Q 48.484375 72.75 52.59375 71.296875 
z
" id="DejaVuSans-54"/>
      </defs>
      <g style="fill:#262626;" transform="translate(59.590625 434.559594)scale(0.5 -0.5)">
       <use xlink:href="#DejaVuSans-49"/>
       <use x="63.623047" xlink:href="#DejaVuSans-54"/>
      </g>
     </g>
    </g>
    <g id="ytick_6">
     <g id="line2d_9">
      <g>
       <use style="fill:#262626;stroke:#262626;stroke-width:1.25;" x="132.715625" xlink:href="#m968e6a7c29" y="348.3635"/>
      </g>
     </g>
     <g id="text_10">
      <!-- 20 -->
      <g style="fill:#262626;" transform="translate(59.590625 367.359594)scale(0.5 -0.5)">
       <use xlink:href="#DejaVuSans-50"/>
       <use x="63.623047" xlink:href="#DejaVuSans-48"/>
      </g>
     </g>
    </g>
    <g id="ytick_7">
     <g id="line2d_10">
      <g>
       <use style="fill:#262626;stroke:#262626;stroke-width:1.25;" x="132.715625" xlink:href="#m968e6a7c29" y="281.1635"/>
      </g>
     </g>
     <g id="text_11">
      <!-- 24 -->
      <g style="fill:#262626;" transform="translate(59.590625 300.159594)scale(0.5 -0.5)">
       <use xlink:href="#DejaVuSans-50"/>
       <use x="63.623047" xlink:href="#DejaVuSans-52"/>
      </g>
     </g>
    </g>
    <g id="ytick_8">
     <g id="line2d_11">
      <g>
       <use style="fill:#262626;stroke:#262626;stroke-width:1.25;" x="132.715625" xlink:href="#m968e6a7c29" y="213.9635"/>
      </g>
     </g>
     <g id="text_12">
      <!-- 28 -->
      <g style="fill:#262626;" transform="translate(59.590625 232.959594)scale(0.5 -0.5)">
       <use xlink:href="#DejaVuSans-50"/>
       <use x="63.623047" xlink:href="#DejaVuSans-56"/>
      </g>
     </g>
    </g>
    <g id="text_13">
     <!-- RMSD -->
     <defs>
      <path d="M 44.390625 34.1875 
Q 47.5625 33.109375 50.5625 29.59375 
Q 53.5625 26.078125 56.59375 19.921875 
L 66.609375 0 
L 56 0 
L 46.6875 18.703125 
Q 43.0625 26.03125 39.671875 28.421875 
Q 36.28125 30.8125 30.421875 30.8125 
L 19.671875 30.8125 
L 19.671875 0 
L 9.8125 0 
L 9.8125 72.90625 
L 32.078125 72.90625 
Q 44.578125 72.90625 50.734375 67.671875 
Q 56.890625 62.453125 56.890625 51.90625 
Q 56.890625 45.015625 53.6875 40.46875 
Q 50.484375 35.9375 44.390625 34.1875 
z
M 19.671875 64.796875 
L 19.671875 38.921875 
L 32.078125 38.921875 
Q 39.203125 38.921875 42.84375 42.21875 
Q 46.484375 45.515625 46.484375 51.90625 
Q 46.484375 58.296875 42.84375 61.546875 
Q 39.203125 64.796875 32.078125 64.796875 
z
" id="DejaVuSans-82"/>
      <path d="M 9.8125 72.90625 
L 24.515625 72.90625 
L 43.109375 23.296875 
L 61.8125 72.90625 
L 76.515625 72.90625 
L 76.515625 0 
L 66.890625 0 
L 66.890625 64.015625 
L 48.09375 14.015625 
L 38.1875 14.015625 
L 19.390625 64.015625 
L 19.390625 0 
L 9.8125 0 
z
" id="DejaVuSans-77"/>
      <path d="M 53.515625 70.515625 
L 53.515625 60.890625 
Q 47.90625 63.578125 42.921875 64.890625 
Q 37.9375 66.21875 33.296875 66.21875 
Q 25.25 66.21875 20.875 63.09375 
Q 16.5 59.96875 16.5 54.203125 
Q 16.5 49.359375 19.40625 46.890625 
Q 22.3125 44.4375 30.421875 42.921875 
L 36.375 41.703125 
Q 47.40625 39.59375 52.65625 34.296875 
Q 57.90625 29 57.90625 20.125 
Q 57.90625 9.515625 50.796875 4.046875 
Q 43.703125 -1.421875 29.984375 -1.421875 
Q 24.8125 -1.421875 18.96875 -0.25 
Q 13.140625 0.921875 6.890625 3.21875 
L 6.890625 13.375 
Q 12.890625 10.015625 18.65625 8.296875 
Q 24.421875 6.59375 29.984375 6.59375 
Q 38.421875 6.59375 43.015625 9.90625 
Q 47.609375 13.234375 47.609375 19.390625 
Q 47.609375 24.75 44.3125 27.78125 
Q 41.015625 30.8125 33.5 32.328125 
L 27.484375 33.5 
Q 16.453125 35.6875 11.515625 40.375 
Q 6.59375 45.0625 6.59375 53.421875 
Q 6.59375 63.09375 13.40625 68.65625 
Q 20.21875 74.21875 32.171875 74.21875 
Q 37.3125 74.21875 42.625 73.28125 
Q 47.953125 72.359375 53.515625 70.515625 
z
" id="DejaVuSans-83"/>
      <path d="M 19.671875 64.796875 
L 19.671875 8.109375 
L 31.59375 8.109375 
Q 46.6875 8.109375 53.6875 14.9375 
Q 60.6875 21.78125 60.6875 36.53125 
Q 60.6875 51.171875 53.6875 57.984375 
Q 46.6875 64.796875 31.59375 64.796875 
z
M 9.8125 72.90625 
L 30.078125 72.90625 
Q 51.265625 72.90625 61.171875 64.09375 
Q 71.09375 55.28125 71.09375 36.53125 
Q 71.09375 17.671875 61.125 8.828125 
Q 51.171875 0 30.078125 0 
L 9.8125 0 
z
" id="DejaVuSans-68"/>
     </defs>
     <g style="fill:#262626;" transform="translate(45.192187 531.626)rotate(-90)scale(0.5 -0.5)">
      <use xlink:href="#DejaVuSans-82"/>
      <use x="69.482422" xlink:href="#DejaVuSans-77"/>
      <use x="155.761719" xlink:href="#DejaVuSans-83"/>
      <use x="219.238281" xlink:href="#DejaVuSans-68"/>
     </g>
    </g>
   </g>
   <g id="PolyCollection_1">
    <defs>
     <path d="M 225.814659 -149.595394 
L 225.616591 -149.595394 
L 225.534542 -151.899107 
L 225.398625 -154.20282 
L 225.183375 -156.506533 
L 224.856693 -158.810246 
L 224.380112 -161.11396 
L 223.70939 -163.417673 
L 222.795105 -165.721386 
L 221.583167 -168.025099 
L 220.015816 -170.328812 
L 218.034552 -172.632525 
L 215.586925 -174.936238 
L 212.638535 -177.239951 
L 209.18951 -179.543664 
L 205.291749 -181.847377 
L 201.06072 -184.15109 
L 196.675375 -186.454803 
L 192.362737 -188.758516 
L 188.369119 -191.062229 
L 184.925444 -193.365942 
L 182.216799 -195.669655 
L 180.3646 -197.973368 
L 179.42421 -200.277081 
L 179.394272 -202.580794 
L 180.229863 -204.884507 
L 181.851728 -207.18822 
L 184.148226 -209.491933 
L 186.972445 -211.795646 
L 190.14114 -214.099359 
L 193.442336 -216.403072 
L 196.654575 -218.706785 
L 199.574911 -221.010498 
L 202.047781 -223.314211 
L 203.985303 -225.617924 
L 205.372053 -227.921637 
L 206.252632 -230.22535 
L 206.706216 -232.529063 
L 206.816178 -234.832776 
L 206.64379 -237.136489 
L 206.212912 -239.440202 
L 205.5087 -241.743915 
L 204.489259 -244.047629 
L 203.10606 -246.351342 
L 201.327356 -248.655055 
L 199.158829 -250.958768 
L 196.65685 -253.262481 
L 193.931577 -255.566194 
L 191.139328 -257.869907 
L 188.465879 -260.17362 
L 186.104212 -262.477333 
L 184.231278 -264.781046 
L 182.988178 -267.084759 
L 182.466824 -269.388472 
L 182.704051 -271.692185 
L 183.682306 -273.995898 
L 185.335151 -276.299611 
L 187.556005 -278.603324 
L 190.209287 -280.907037 
L 193.143506 -283.21075 
L 196.205443 -285.514463 
L 199.253722 -287.818176 
L 202.1695 -290.121889 
L 204.862529 -292.425602 
L 207.272235 -294.729315 
L 209.365155 -297.033028 
L 211.13092 -299.336741 
L 212.578703 -301.640454 
L 213.734822 -303.944167 
L 214.640866 -306.24788 
L 215.351024 -308.551593 
L 215.92749 -310.855306 
L 216.433723 -313.159019 
L 216.926443 -315.462732 
L 217.448036 -317.766445 
L 218.021328 -320.070158 
L 218.648286 -322.373871 
L 219.313208 -324.677584 
L 219.989647 -326.981298 
L 220.6491 -329.285011 
L 221.268831 -331.588724 
L 221.836566 -333.892437 
L 222.35092 -336.19615 
L 222.818118 -338.499863 
L 223.24682 -340.803576 
L 223.643373 -343.107289 
L 224.009262 -345.411002 
L 224.341324 -347.714715 
L 224.63408 -350.018428 
L 224.88278 -352.322141 
L 225.085766 -354.625854 
L 225.245345 -356.929567 
L 225.367133 -359.23328 
L 225.45849 -361.536993 
L 225.5268 -363.840706 
L 225.578259 -366.144419 
L 225.617383 -368.448132 
L 225.64716 -370.751845 
L 225.669521 -373.055558 
L 225.685836 -375.359271 
L 225.697255 -377.662984 
L 225.733995 -377.662984 
L 225.733995 -377.662984 
L 225.745414 -375.359271 
L 225.761729 -373.055558 
L 225.78409 -370.751845 
L 225.813867 -368.448132 
L 225.852991 -366.144419 
L 225.90445 -363.840706 
L 225.97276 -361.536993 
L 226.064117 -359.23328 
L 226.185905 -356.929567 
L 226.345484 -354.625854 
L 226.54847 -352.322141 
L 226.79717 -350.018428 
L 227.089926 -347.714715 
L 227.421988 -345.411002 
L 227.787877 -343.107289 
L 228.18443 -340.803576 
L 228.613132 -338.499863 
L 229.08033 -336.19615 
L 229.594684 -333.892437 
L 230.162419 -331.588724 
L 230.78215 -329.285011 
L 231.441603 -326.981298 
L 232.118042 -324.677584 
L 232.782964 -322.373871 
L 233.409922 -320.070158 
L 233.983214 -317.766445 
L 234.504807 -315.462732 
L 234.997527 -313.159019 
L 235.50376 -310.855306 
L 236.080226 -308.551593 
L 236.790384 -306.24788 
L 237.696428 -303.944167 
L 238.852547 -301.640454 
L 240.30033 -299.336741 
L 242.066095 -297.033028 
L 244.159015 -294.729315 
L 246.568721 -292.425602 
L 249.26175 -290.121889 
L 252.177528 -287.818176 
L 255.225807 -285.514463 
L 258.287744 -283.21075 
L 261.221963 -280.907037 
L 263.875245 -278.603324 
L 266.096099 -276.299611 
L 267.748944 -273.995898 
L 268.727199 -271.692185 
L 268.964426 -269.388472 
L 268.443072 -267.084759 
L 267.199972 -264.781046 
L 265.327038 -262.477333 
L 262.965371 -260.17362 
L 260.291922 -257.869907 
L 257.499673 -255.566194 
L 254.7744 -253.262481 
L 252.272421 -250.958768 
L 250.103894 -248.655055 
L 248.32519 -246.351342 
L 246.941991 -244.047629 
L 245.92255 -241.743915 
L 245.218338 -239.440202 
L 244.78746 -237.136489 
L 244.615072 -234.832776 
L 244.725034 -232.529063 
L 245.178618 -230.22535 
L 246.059197 -227.921637 
L 247.445947 -225.617924 
L 249.383469 -223.314211 
L 251.856339 -221.010498 
L 254.776675 -218.706785 
L 257.988914 -216.403072 
L 261.29011 -214.099359 
L 264.458805 -211.795646 
L 267.283024 -209.491933 
L 269.579522 -207.18822 
L 271.201387 -204.884507 
L 272.036978 -202.580794 
L 272.00704 -200.277081 
L 271.06665 -197.973368 
L 269.214451 -195.669655 
L 266.505806 -193.365942 
L 263.062131 -191.062229 
L 259.068513 -188.758516 
L 254.755875 -186.454803 
L 250.37053 -184.15109 
L 246.139501 -181.847377 
L 242.24174 -179.543664 
L 238.792715 -177.239951 
L 235.844325 -174.936238 
L 233.396698 -172.632525 
L 231.415434 -170.328812 
L 229.848083 -168.025099 
L 228.636145 -165.721386 
L 227.72186 -163.417673 
L 227.051138 -161.11396 
L 226.574557 -158.810246 
L 226.247875 -156.506533 
L 226.032625 -154.20282 
L 225.896708 -151.899107 
L 225.814659 -149.595394 
z
" id="me9f17b7cec" style="stroke:#262626;stroke-width:1.5;"/>
    </defs>
    <g clip-path="url(#p8afbeb9285)">
     <use style="fill:#b55d60;stroke:#262626;stroke-width:1.5;" x="0" xlink:href="#me9f17b7cec" y="852.24475"/>
    </g>
   </g>
   <g id="PolyCollection_2">
    <defs>
     <path d="M 411.739363 -154.896281 
L 411.691887 -154.896281 
L 411.655468 -157.371598 
L 411.576167 -159.846916 
L 411.419307 -162.322233 
L 411.138691 -164.79755 
L 410.687264 -167.272867 
L 410.037631 -169.748184 
L 409.203906 -172.223501 
L 408.249103 -174.698818 
L 407.266198 -177.174135 
L 406.336944 -179.649452 
L 405.488389 -182.124769 
L 404.669779 -184.600086 
L 403.760836 -187.075403 
L 402.606629 -189.55072 
L 401.064641 -192.026038 
L 399.047771 -194.501355 
L 396.548666 -196.976672 
L 393.635567 -199.451989 
L 390.42319 -201.927306 
L 387.040125 -204.402623 
L 383.617601 -206.87794 
L 380.300743 -209.353257 
L 377.254057 -211.828574 
L 374.634607 -214.303891 
L 372.541369 -216.779208 
L 370.977492 -219.254525 
L 369.853726 -221.729843 
L 369.031016 -224.20516 
L 368.378462 -226.680477 
L 367.818822 -229.155794 
L 367.342286 -231.631111 
L 366.986638 -234.106428 
L 366.799978 -236.581745 
L 366.807339 -239.057062 
L 366.993504 -241.532379 
L 367.306126 -244.007696 
L 367.683062 -246.483013 
L 368.100899 -248.95833 
L 368.618734 -251.433647 
L 369.375645 -253.908965 
L 370.523439 -256.384282 
L 372.12908 -258.859599 
L 374.112604 -261.334916 
L 376.261025 -263.810233 
L 378.302545 -266.28555 
L 379.993997 -268.760867 
L 381.187689 -271.236184 
L 381.868768 -273.711501 
L 382.159719 -276.186818 
L 382.284815 -278.662135 
L 382.498838 -281.137452 
L 383.006738 -283.612769 
L 383.909039 -286.088087 
L 385.193149 -288.563404 
L 386.7672 -291.038721 
L 388.514746 -293.514038 
L 390.341008 -295.989355 
L 392.188971 -298.464672 
L 394.025722 -300.939989 
L 395.820465 -303.415306 
L 397.536135 -305.890623 
L 399.137474 -308.36594 
L 400.601125 -310.841257 
L 401.914306 -313.316574 
L 403.063354 -315.791891 
L 404.025699 -318.267209 
L 404.778227 -320.742526 
L 405.321873 -323.217843 
L 405.704685 -325.69316 
L 406.018272 -328.168477 
L 406.358211 -330.643794 
L 406.771015 -333.119111 
L 407.228372 -335.594428 
L 407.650827 -338.069745 
L 407.96282 -340.545062 
L 408.137947 -343.020379 
L 408.206622 -345.495696 
L 408.230636 -347.971013 
L 408.27018 -350.446331 
L 408.365436 -352.921648 
L 408.536563 -355.396965 
L 408.790737 -357.872282 
L 409.124199 -360.347599 
L 409.518213 -362.822916 
L 409.93744 -365.298233 
L 410.337358 -367.77355 
L 410.677775 -370.248867 
L 410.934304 -372.724184 
L 411.103006 -375.199501 
L 411.198796 -377.674818 
L 411.249383 -380.150135 
L 411.285846 -382.625453 
L 411.332046 -385.10077 
L 411.397264 -387.576087 
L 411.475926 -390.051404 
L 411.55427 -392.526721 
L 411.619367 -395.002038 
L 411.665027 -397.477355 
L 411.692284 -399.952672 
L 411.738966 -399.952672 
L 411.738966 -399.952672 
L 411.766223 -397.477355 
L 411.811883 -395.002038 
L 411.87698 -392.526721 
L 411.955324 -390.051404 
L 412.033986 -387.576087 
L 412.099204 -385.10077 
L 412.145404 -382.625453 
L 412.181867 -380.150135 
L 412.232454 -377.674818 
L 412.328244 -375.199501 
L 412.496946 -372.724184 
L 412.753475 -370.248867 
L 413.093892 -367.77355 
L 413.49381 -365.298233 
L 413.913037 -362.822916 
L 414.307051 -360.347599 
L 414.640513 -357.872282 
L 414.894687 -355.396965 
L 415.065814 -352.921648 
L 415.16107 -350.446331 
L 415.200614 -347.971013 
L 415.224628 -345.495696 
L 415.293303 -343.020379 
L 415.46843 -340.545062 
L 415.780423 -338.069745 
L 416.202878 -335.594428 
L 416.660235 -333.119111 
L 417.073039 -330.643794 
L 417.412978 -328.168477 
L 417.726565 -325.69316 
L 418.109377 -323.217843 
L 418.653023 -320.742526 
L 419.405551 -318.267209 
L 420.367896 -315.791891 
L 421.516944 -313.316574 
L 422.830125 -310.841257 
L 424.293776 -308.36594 
L 425.895115 -305.890623 
L 427.610785 -303.415306 
L 429.405528 -300.939989 
L 431.242279 -298.464672 
L 433.090242 -295.989355 
L 434.916504 -293.514038 
L 436.66405 -291.038721 
L 438.238101 -288.563404 
L 439.522211 -286.088087 
L 440.424512 -283.612769 
L 440.932412 -281.137452 
L 441.146435 -278.662135 
L 441.271531 -276.186818 
L 441.562482 -273.711501 
L 442.243561 -271.236184 
L 443.437253 -268.760867 
L 445.128705 -266.28555 
L 447.170225 -263.810233 
L 449.318646 -261.334916 
L 451.30217 -258.859599 
L 452.907811 -256.384282 
L 454.055605 -253.908965 
L 454.812516 -251.433647 
L 455.330351 -248.95833 
L 455.748188 -246.483013 
L 456.125124 -244.007696 
L 456.437746 -241.532379 
L 456.623911 -239.057062 
L 456.631272 -236.581745 
L 456.444612 -234.106428 
L 456.088964 -231.631111 
L 455.612428 -229.155794 
L 455.052788 -226.680477 
L 454.400234 -224.20516 
L 453.577524 -221.729843 
L 452.453758 -219.254525 
L 450.889881 -216.779208 
L 448.796643 -214.303891 
L 446.177193 -211.828574 
L 443.130507 -209.353257 
L 439.813649 -206.87794 
L 436.391125 -204.402623 
L 433.00806 -201.927306 
L 429.795683 -199.451989 
L 426.882584 -196.976672 
L 424.383479 -194.501355 
L 422.366609 -192.026038 
L 420.824621 -189.55072 
L 419.670414 -187.075403 
L 418.761471 -184.600086 
L 417.942861 -182.124769 
L 417.094306 -179.649452 
L 416.165052 -177.174135 
L 415.182147 -174.698818 
L 414.227344 -172.223501 
L 413.393619 -169.748184 
L 412.743986 -167.272867 
L 412.292559 -164.79755 
L 412.011943 -162.322233 
L 411.855083 -159.846916 
L 411.775782 -157.371598 
L 411.739363 -154.896281 
z
" id="m1fc2d25cf1" style="stroke:#262626;stroke-width:1.5;"/>
    </defs>
    <g clip-path="url(#p8afbeb9285)">
     <use style="fill:#5875a4;stroke:#262626;stroke-width:1.5;" x="0" xlink:href="#m1fc2d25cf1" y="852.24475"/>
    </g>
   </g>
   <g id="PolyCollection_3">
    <defs>
     <path d="M 600.649418 -168.724268 
L 594.781832 -168.724268 
L 594.277732 -169.768089 
L 593.711445 -170.811909 
L 593.079964 -171.855729 
L 592.38095 -172.899549 
L 591.612859 -173.94337 
L 590.775045 -174.98719 
L 589.867851 -176.03101 
L 588.892658 -177.074831 
L 587.851903 -178.118651 
L 586.749055 -179.162471 
L 585.588546 -180.206292 
L 584.375647 -181.250112 
L 583.116312 -182.293932 
L 581.816963 -183.337752 
L 580.48425 -184.381573 
L 579.124783 -185.425393 
L 577.744846 -186.469213 
L 576.350109 -187.513034 
L 574.945365 -188.556854 
L 573.534288 -189.600674 
L 572.119242 -190.644494 
L 570.701154 -191.688315 
L 569.279458 -192.732135 
L 567.852124 -193.775955 
L 566.415773 -194.819776 
L 564.965879 -195.863596 
L 563.497054 -196.907416 
L 562.003404 -197.951237 
L 560.478941 -198.995057 
L 558.918031 -200.038877 
L 557.315853 -201.082697 
L 555.668853 -202.126518 
L 553.975154 -203.170338 
L 552.23491 -204.214158 
L 550.450573 -205.257979 
L 548.627057 -206.301799 
L 546.771794 -207.345619 
L 544.894663 -208.389439 
L 543.007799 -209.43326 
L 541.125287 -210.47708 
L 539.26276 -211.5209 
L 537.436907 -212.564721 
L 535.664939 -213.608541 
L 533.96401 -214.652361 
L 532.350658 -215.696182 
L 530.840263 -216.740002 
L 529.446578 -217.783822 
L 528.181337 -218.827642 
L 527.05398 -219.871463 
L 526.071483 -220.915283 
L 525.238329 -221.959103 
L 524.556597 -223.002924 
L 524.026168 -224.046744 
L 523.645038 -225.090564 
L 523.409707 -226.134384 
L 523.315625 -227.178205 
L 523.357664 -228.222025 
L 523.530586 -229.265845 
L 523.829481 -230.309666 
L 524.250135 -231.353486 
L 524.789325 -232.397306 
L 525.445003 -233.441127 
L 526.216378 -234.484947 
L 527.103871 -235.528767 
L 528.108965 -236.572587 
L 529.233947 -237.616408 
L 530.481565 -238.660228 
L 531.854624 -239.704048 
L 533.355539 -240.747869 
L 534.985877 -241.791689 
L 536.745922 -242.835509 
L 538.634271 -243.87933 
L 540.647513 -244.92315 
L 542.779987 -245.96697 
L 545.023639 -247.01079 
L 547.368 -248.054611 
L 549.800266 -249.098431 
L 552.305492 -250.142251 
L 554.866883 -251.186072 
L 557.466166 -252.229892 
L 560.084034 -253.273712 
L 562.70062 -254.317532 
L 565.296004 -255.361353 
L 567.85071 -256.405173 
L 570.34618 -257.448993 
L 572.765204 -258.492814 
L 575.092292 -259.536634 
L 577.313972 -260.580454 
L 579.419009 -261.624275 
L 581.398543 -262.668095 
L 583.246143 -263.711915 
L 584.957779 -264.755735 
L 586.53173 -265.799556 
L 587.968427 -266.843376 
L 589.270248 -267.887196 
L 590.441275 -268.931017 
L 591.487027 -269.974837 
L 592.414188 -271.018657 
L 593.230319 -272.062477 
L 602.200931 -272.062477 
L 602.200931 -272.062477 
L 603.017062 -271.018657 
L 603.944223 -269.974837 
L 604.989975 -268.931017 
L 606.161002 -267.887196 
L 607.462823 -266.843376 
L 608.89952 -265.799556 
L 610.473471 -264.755735 
L 612.185107 -263.711915 
L 614.032707 -262.668095 
L 616.012241 -261.624275 
L 618.117278 -260.580454 
L 620.338958 -259.536634 
L 622.666046 -258.492814 
L 625.08507 -257.448993 
L 627.58054 -256.405173 
L 630.135246 -255.361353 
L 632.73063 -254.317532 
L 635.347216 -253.273712 
L 637.965084 -252.229892 
L 640.564367 -251.186072 
L 643.125758 -250.142251 
L 645.630984 -249.098431 
L 648.06325 -248.054611 
L 650.407611 -247.01079 
L 652.651263 -245.96697 
L 654.783737 -244.92315 
L 656.796979 -243.87933 
L 658.685328 -242.835509 
L 660.445373 -241.791689 
L 662.075711 -240.747869 
L 663.576626 -239.704048 
L 664.949685 -238.660228 
L 666.197303 -237.616408 
L 667.322285 -236.572587 
L 668.327379 -235.528767 
L 669.214872 -234.484947 
L 669.986247 -233.441127 
L 670.641925 -232.397306 
L 671.181115 -231.353486 
L 671.601769 -230.309666 
L 671.900664 -229.265845 
L 672.073586 -228.222025 
L 672.115625 -227.178205 
L 672.021543 -226.134384 
L 671.786212 -225.090564 
L 671.405082 -224.046744 
L 670.874653 -223.002924 
L 670.192921 -221.959103 
L 669.359767 -220.915283 
L 668.37727 -219.871463 
L 667.249913 -218.827642 
L 665.984672 -217.783822 
L 664.590987 -216.740002 
L 663.080592 -215.696182 
L 661.46724 -214.652361 
L 659.766311 -213.608541 
L 657.994343 -212.564721 
L 656.16849 -211.5209 
L 654.305963 -210.47708 
L 652.423451 -209.43326 
L 650.536587 -208.389439 
L 648.659456 -207.345619 
L 646.804193 -206.301799 
L 644.980677 -205.257979 
L 643.19634 -204.214158 
L 641.456096 -203.170338 
L 639.762397 -202.126518 
L 638.115397 -201.082697 
L 636.513219 -200.038877 
L 634.952309 -198.995057 
L 633.427846 -197.951237 
L 631.934196 -196.907416 
L 630.465371 -195.863596 
L 629.015477 -194.819776 
L 627.579126 -193.775955 
L 626.151792 -192.732135 
L 624.730096 -191.688315 
L 623.312008 -190.644494 
L 621.896962 -189.600674 
L 620.485885 -188.556854 
L 619.081141 -187.513034 
L 617.686404 -186.469213 
L 616.306467 -185.425393 
L 614.947 -184.381573 
L 613.614287 -183.337752 
L 612.314938 -182.293932 
L 611.055603 -181.250112 
L 609.842704 -180.206292 
L 608.682195 -179.162471 
L 607.579347 -178.118651 
L 606.538592 -177.074831 
L 605.563399 -176.03101 
L 604.656205 -174.98719 
L 603.818391 -173.94337 
L 603.0503 -172.899549 
L 602.351286 -171.855729 
L 601.719805 -170.811909 
L 601.153518 -169.768089 
L 600.649418 -168.724268 
z
" id="m0261103156" style="stroke:#262626;stroke-width:1.5;"/>
    </defs>
    <g clip-path="url(#p8afbeb9285)">
     <use style="fill:#107010;stroke:#262626;stroke-width:1.5;" x="0" xlink:href="#m0261103156" y="852.24475"/>
    </g>
   </g>
   <g id="line2d_12">
    <path clip-path="url(#p8afbeb9285)" d="M 225.715625 683.716906 
L 225.715625 493.514216 
" style="fill:none;stroke:#262626;stroke-linecap:round;stroke-width:1.5;"/>
   </g>
   <g id="line2d_13">
    <path clip-path="url(#p8afbeb9285)" d="M 225.715625 647.626047 
L 225.715625 579.408229 
" style="fill:none;stroke:#262626;stroke-linecap:round;stroke-width:4.5;"/>
   </g>
   <g id="line2d_14">
    <path clip-path="url(#p8afbeb9285)" d="M 411.715625 684.3635 
L 411.715625 497.605004 
" style="fill:none;stroke:#262626;stroke-linecap:round;stroke-width:1.5;"/>
   </g>
   <g id="line2d_15">
    <path clip-path="url(#p8afbeb9285)" d="M 411.715625 628.067832 
L 411.715625 575.726452 
" style="fill:none;stroke:#262626;stroke-linecap:round;stroke-width:4.5;"/>
   </g>
   <g id="line2d_16">
    <path clip-path="url(#p8afbeb9285)" d="M 597.715625 657.381125 
L 597.715625 606.32163 
" style="fill:none;stroke:#262626;stroke-linecap:round;stroke-width:1.5;"/>
   </g>
   <g id="line2d_17">
    <path clip-path="url(#p8afbeb9285)" d="M 597.715625 635.154471 
L 597.715625 613.673668 
" style="fill:none;stroke:#262626;stroke-linecap:round;stroke-width:4.5;"/>
   </g>
   <g id="line2d_18">
    <path d="M 225.715625 163.7315 
L 225.715625 152.6435 
L 411.715625 152.6435 
L 411.715625 163.7315 
" style="fill:none;stroke:#333333;stroke-linecap:round;stroke-width:1.5;"/>
   </g>
   <g id="line2d_19">
    <path d="M 411.715625 103.1235 
L 411.715625 92.0355 
L 597.715625 92.0355 
L 597.715625 103.1235 
" style="fill:none;stroke:#333333;stroke-linecap:round;stroke-width:1.5;"/>
   </g>
   <g id="line2d_20">
    <path d="M 225.715625 42.5155 
L 225.715625 31.4275 
L 597.715625 31.4275 
L 597.715625 42.5155 
" style="fill:none;stroke:#333333;stroke-linecap:round;stroke-width:1.5;"/>
   </g>
   <g id="patch_3">
    <path d="M 132.715625 734.7635 
L 132.715625 180.3635 
" style="fill:none;stroke:#262626;stroke-linecap:square;stroke-linejoin:miter;stroke-width:1.25;"/>
   </g>
   <g id="patch_4">
    <path d="M 690.715625 734.7635 
L 690.715625 180.3635 
" style="fill:none;stroke:#262626;stroke-linecap:square;stroke-linejoin:miter;stroke-width:1.25;"/>
   </g>
   <g id="patch_5">
    <path d="M 132.715625 734.7635 
L 690.715625 734.7635 
" style="fill:none;stroke:#262626;stroke-linecap:square;stroke-linejoin:miter;stroke-width:1.25;"/>
   </g>
   <g id="patch_6">
    <path d="M 132.715625 180.3635 
L 690.715625 180.3635 
" style="fill:none;stroke:#262626;stroke-linecap:square;stroke-linejoin:miter;stroke-width:1.25;"/>
   </g>
   <g id="PathCollection_1">
    <defs>
     <path d="M 0 1.5 
C 0.397805 1.5 0.77937 1.341951 1.06066 1.06066 
C 1.341951 0.77937 1.5 0.397805 1.5 0 
C 1.5 -0.397805 1.341951 -0.77937 1.06066 -1.06066 
C 0.77937 -1.341951 0.397805 -1.5 0 -1.5 
C -0.397805 -1.5 -0.77937 -1.341951 -1.06066 -1.06066 
C -1.341951 -0.77937 -1.5 -0.397805 -1.5 0 
C -1.5 0.397805 -1.341951 0.77937 -1.06066 1.06066 
C -0.77937 1.341951 -0.397805 1.5 0 1.5 
z
" id="m525a9060ce" style="stroke:#262626;"/>
    </defs>
    <g clip-path="url(#p8afbeb9285)">
     <use style="fill:#ffffff;stroke:#262626;" x="225.715625" xlink:href="#m525a9060ce" y="608.793098"/>
    </g>
   </g>
   <g id="PathCollection_2">
    <g clip-path="url(#p8afbeb9285)">
     <use style="fill:#ffffff;stroke:#262626;" x="411.715625" xlink:href="#m525a9060ce" y="604.616282"/>
    </g>
   </g>
   <g id="PathCollection_3">
    <g clip-path="url(#p8afbeb9285)">
     <use style="fill:#ffffff;stroke:#262626;" x="597.715625" xlink:href="#m525a9060ce" y="628.18064"/>
    </g>
   </g>
   <g id="text_14">
    <!-- Ranksum p = 6.916e-16 -->
    <defs>
     <path d="M 34.28125 27.484375 
Q 23.390625 27.484375 19.1875 25 
Q 14.984375 22.515625 14.984375 16.5 
Q 14.984375 11.71875 18.140625 8.90625 
Q 21.296875 6.109375 26.703125 6.109375 
Q 34.1875 6.109375 38.703125 11.40625 
Q 43.21875 16.703125 43.21875 25.484375 
L 43.21875 27.484375 
z
M 52.203125 31.203125 
L 52.203125 0 
L 43.21875 0 
L 43.21875 8.296875 
Q 40.140625 3.328125 35.546875 0.953125 
Q 30.953125 -1.421875 24.3125 -1.421875 
Q 15.921875 -1.421875 10.953125 3.296875 
Q 6 8.015625 6 15.921875 
Q 6 25.140625 12.171875 29.828125 
Q 18.359375 34.515625 30.609375 34.515625 
L 43.21875 34.515625 
L 43.21875 35.40625 
Q 43.21875 41.609375 39.140625 45 
Q 35.0625 48.390625 27.6875 48.390625 
Q 23 48.390625 18.546875 47.265625 
Q 14.109375 46.140625 10.015625 43.890625 
L 10.015625 52.203125 
Q 14.9375 54.109375 19.578125 55.046875 
Q 24.21875 56 28.609375 56 
Q 40.484375 56 46.34375 49.84375 
Q 52.203125 43.703125 52.203125 31.203125 
z
" id="DejaVuSans-97"/>
     <path d="M 9.078125 75.984375 
L 18.109375 75.984375 
L 18.109375 31.109375 
L 44.921875 54.6875 
L 56.390625 54.6875 
L 27.390625 29.109375 
L 57.625 0 
L 45.90625 0 
L 18.109375 26.703125 
L 18.109375 0 
L 9.078125 0 
z
" id="DejaVuSans-107"/>
     <path d="M 8.5 21.578125 
L 8.5 54.6875 
L 17.484375 54.6875 
L 17.484375 21.921875 
Q 17.484375 14.15625 20.5 10.265625 
Q 23.53125 6.390625 29.59375 6.390625 
Q 36.859375 6.390625 41.078125 11.03125 
Q 45.3125 15.671875 45.3125 23.6875 
L 45.3125 54.6875 
L 54.296875 54.6875 
L 54.296875 0 
L 45.3125 0 
L 45.3125 8.40625 
Q 42.046875 3.421875 37.71875 1 
Q 33.40625 -1.421875 27.6875 -1.421875 
Q 18.265625 -1.421875 13.375 4.4375 
Q 8.5 10.296875 8.5 21.578125 
z
M 31.109375 56 
z
" id="DejaVuSans-117"/>
     <path d="M 52 44.1875 
Q 55.375 50.25 60.0625 53.125 
Q 64.75 56 71.09375 56 
Q 79.640625 56 84.28125 50.015625 
Q 88.921875 44.046875 88.921875 33.015625 
L 88.921875 0 
L 79.890625 0 
L 79.890625 32.71875 
Q 79.890625 40.578125 77.09375 44.375 
Q 74.3125 48.1875 68.609375 48.1875 
Q 61.625 48.1875 57.5625 43.546875 
Q 53.515625 38.921875 53.515625 30.90625 
L 53.515625 0 
L 44.484375 0 
L 44.484375 32.71875 
Q 44.484375 40.625 41.703125 44.40625 
Q 38.921875 48.1875 33.109375 48.1875 
Q 26.21875 48.1875 22.15625 43.53125 
Q 18.109375 38.875 18.109375 30.90625 
L 18.109375 0 
L 9.078125 0 
L 9.078125 54.6875 
L 18.109375 54.6875 
L 18.109375 46.1875 
Q 21.1875 51.21875 25.484375 53.609375 
Q 29.78125 56 35.6875 56 
Q 41.65625 56 45.828125 52.96875 
Q 50 49.953125 52 44.1875 
z
" id="DejaVuSans-109"/>
     <path id="DejaVuSans-32"/>
     <path d="M 10.59375 45.40625 
L 73.1875 45.40625 
L 73.1875 37.203125 
L 10.59375 37.203125 
z
M 10.59375 25.484375 
L 73.1875 25.484375 
L 73.1875 17.1875 
L 10.59375 17.1875 
z
" id="DejaVuSans-61"/>
     <path d="M 10.6875 12.40625 
L 21 12.40625 
L 21 0 
L 10.6875 0 
z
" id="DejaVuSans-46"/>
     <path d="M 10.984375 1.515625 
L 10.984375 10.5 
Q 14.703125 8.734375 18.5 7.8125 
Q 22.3125 6.890625 25.984375 6.890625 
Q 35.75 6.890625 40.890625 13.453125 
Q 46.046875 20.015625 46.78125 33.40625 
Q 43.953125 29.203125 39.59375 26.953125 
Q 35.25 24.703125 29.984375 24.703125 
Q 19.046875 24.703125 12.671875 31.3125 
Q 6.296875 37.9375 6.296875 49.421875 
Q 6.296875 60.640625 12.9375 67.421875 
Q 19.578125 74.21875 30.609375 74.21875 
Q 43.265625 74.21875 49.921875 64.515625 
Q 56.59375 54.828125 56.59375 36.375 
Q 56.59375 19.140625 48.40625 8.859375 
Q 40.234375 -1.421875 26.421875 -1.421875 
Q 22.703125 -1.421875 18.890625 -0.6875 
Q 15.09375 0.046875 10.984375 1.515625 
z
M 30.609375 32.421875 
Q 37.25 32.421875 41.125 36.953125 
Q 45.015625 41.5 45.015625 49.421875 
Q 45.015625 57.28125 41.125 61.84375 
Q 37.25 66.40625 30.609375 66.40625 
Q 23.96875 66.40625 20.09375 61.84375 
Q 16.21875 57.28125 16.21875 49.421875 
Q 16.21875 41.5 20.09375 36.953125 
Q 23.96875 32.421875 30.609375 32.421875 
z
" id="DejaVuSans-57"/>
    </defs>
    <g style="fill:#262626;" transform="translate(172.743125 146.65225)scale(0.24 -0.24)">
     <use xlink:href="#DejaVuSans-82"/>
     <use x="67.232422" xlink:href="#DejaVuSans-97"/>
     <use x="128.511719" xlink:href="#DejaVuSans-110"/>
     <use x="191.890625" xlink:href="#DejaVuSans-107"/>
     <use x="249.800781" xlink:href="#DejaVuSans-115"/>
     <use x="301.900391" xlink:href="#DejaVuSans-117"/>
     <use x="365.279297" xlink:href="#DejaVuSans-109"/>
     <use x="462.691406" xlink:href="#DejaVuSans-32"/>
     <use x="494.478516" xlink:href="#DejaVuSans-112"/>
     <use x="557.955078" xlink:href="#DejaVuSans-32"/>
     <use x="589.742188" xlink:href="#DejaVuSans-61"/>
     <use x="673.53125" xlink:href="#DejaVuSans-32"/>
     <use x="705.318359" xlink:href="#DejaVuSans-54"/>
     <use x="768.941406" xlink:href="#DejaVuSans-46"/>
     <use x="800.728516" xlink:href="#DejaVuSans-57"/>
     <use x="864.351562" xlink:href="#DejaVuSans-49"/>
     <use x="927.974609" xlink:href="#DejaVuSans-54"/>
     <use x="991.597656" xlink:href="#DejaVuSans-101"/>
     <use x="1053.121094" xlink:href="#DejaVuSans-45"/>
     <use x="1089.205078" xlink:href="#DejaVuSans-49"/>
     <use x="1152.828125" xlink:href="#DejaVuSans-54"/>
    </g>
   </g>
   <g id="text_15">
    <!-- Ranksum p = 5.161e-02 -->
    <defs>
     <path d="M 10.796875 72.90625 
L 49.515625 72.90625 
L 49.515625 64.59375 
L 19.828125 64.59375 
L 19.828125 46.734375 
Q 21.96875 47.46875 24.109375 47.828125 
Q 26.265625 48.1875 28.421875 48.1875 
Q 40.625 48.1875 47.75 41.5 
Q 54.890625 34.8125 54.890625 23.390625 
Q 54.890625 11.625 47.5625 5.09375 
Q 40.234375 -1.421875 26.90625 -1.421875 
Q 22.3125 -1.421875 17.546875 -0.640625 
Q 12.796875 0.140625 7.71875 1.703125 
L 7.71875 11.625 
Q 12.109375 9.234375 16.796875 8.0625 
Q 21.484375 6.890625 26.703125 6.890625 
Q 35.15625 6.890625 40.078125 11.328125 
Q 45.015625 15.765625 45.015625 23.390625 
Q 45.015625 31 40.078125 35.4375 
Q 35.15625 39.890625 26.703125 39.890625 
Q 22.75 39.890625 18.8125 39.015625 
Q 14.890625 38.140625 10.796875 36.28125 
z
" id="DejaVuSans-53"/>
    </defs>
    <g style="fill:#262626;" transform="translate(358.743125 86.04425)scale(0.24 -0.24)">
     <use xlink:href="#DejaVuSans-82"/>
     <use x="67.232422" xlink:href="#DejaVuSans-97"/>
     <use x="128.511719" xlink:href="#DejaVuSans-110"/>
     <use x="191.890625" xlink:href="#DejaVuSans-107"/>
     <use x="249.800781" xlink:href="#DejaVuSans-115"/>
     <use x="301.900391" xlink:href="#DejaVuSans-117"/>
     <use x="365.279297" xlink:href="#DejaVuSans-109"/>
     <use x="462.691406" xlink:href="#DejaVuSans-32"/>
     <use x="494.478516" xlink:href="#DejaVuSans-112"/>
     <use x="557.955078" xlink:href="#DejaVuSans-32"/>
     <use x="589.742188" xlink:href="#DejaVuSans-61"/>
     <use x="673.53125" xlink:href="#DejaVuSans-32"/>
     <use x="705.318359" xlink:href="#DejaVuSans-53"/>
     <use x="768.941406" xlink:href="#DejaVuSans-46"/>
     <use x="800.728516" xlink:href="#DejaVuSans-49"/>
     <use x="864.351562" xlink:href="#DejaVuSans-54"/>
     <use x="927.974609" xlink:href="#DejaVuSans-49"/>
     <use x="991.597656" xlink:href="#DejaVuSans-101"/>
     <use x="1053.121094" xlink:href="#DejaVuSans-45"/>
     <use x="1089.205078" xlink:href="#DejaVuSans-48"/>
     <use x="1152.828125" xlink:href="#DejaVuSans-50"/>
    </g>
   </g>
   <g id="text_16">
    <!-- Ranksum p = 3.564e-01 -->
    <defs>
     <path d="M 40.578125 39.3125 
Q 47.65625 37.796875 51.625 33 
Q 55.609375 28.21875 55.609375 21.1875 
Q 55.609375 10.40625 48.1875 4.484375 
Q 40.765625 -1.421875 27.09375 -1.421875 
Q 22.515625 -1.421875 17.65625 -0.515625 
Q 12.796875 0.390625 7.625 2.203125 
L 7.625 11.71875 
Q 11.71875 9.328125 16.59375 8.109375 
Q 21.484375 6.890625 26.8125 6.890625 
Q 36.078125 6.890625 40.9375 10.546875 
Q 45.796875 14.203125 45.796875 21.1875 
Q 45.796875 27.640625 41.28125 31.265625 
Q 36.765625 34.90625 28.71875 34.90625 
L 20.21875 34.90625 
L 20.21875 43.015625 
L 29.109375 43.015625 
Q 36.375 43.015625 40.234375 45.921875 
Q 44.09375 48.828125 44.09375 54.296875 
Q 44.09375 59.90625 40.109375 62.90625 
Q 36.140625 65.921875 28.71875 65.921875 
Q 24.65625 65.921875 20.015625 65.03125 
Q 15.375 64.15625 9.8125 62.3125 
L 9.8125 71.09375 
Q 15.4375 72.65625 20.34375 73.4375 
Q 25.25 74.21875 29.59375 74.21875 
Q 40.828125 74.21875 47.359375 69.109375 
Q 53.90625 64.015625 53.90625 55.328125 
Q 53.90625 49.265625 50.4375 45.09375 
Q 46.96875 40.921875 40.578125 39.3125 
z
" id="DejaVuSans-51"/>
    </defs>
    <g style="fill:#262626;" transform="translate(265.743125 25.43625)scale(0.24 -0.24)">
     <use xlink:href="#DejaVuSans-82"/>
     <use x="67.232422" xlink:href="#DejaVuSans-97"/>
     <use x="128.511719" xlink:href="#DejaVuSans-110"/>
     <use x="191.890625" xlink:href="#DejaVuSans-107"/>
     <use x="249.800781" xlink:href="#DejaVuSans-115"/>
     <use x="301.900391" xlink:href="#DejaVuSans-117"/>
     <use x="365.279297" xlink:href="#DejaVuSans-109"/>
     <use x="462.691406" xlink:href="#DejaVuSans-32"/>
     <use x="494.478516" xlink:href="#DejaVuSans-112"/>
     <use x="557.955078" xlink:href="#DejaVuSans-32"/>
     <use x="589.742188" xlink:href="#DejaVuSans-61"/>
     <use x="673.53125" xlink:href="#DejaVuSans-32"/>
     <use x="705.318359" xlink:href="#DejaVuSans-51"/>
     <use x="768.941406" xlink:href="#DejaVuSans-46"/>
     <use x="800.728516" xlink:href="#DejaVuSans-53"/>
     <use x="864.351562" xlink:href="#DejaVuSans-54"/>
     <use x="927.974609" xlink:href="#DejaVuSans-52"/>
     <use x="991.597656" xlink:href="#DejaVuSans-101"/>
     <use x="1053.121094" xlink:href="#DejaVuSans-45"/>
     <use x="1089.205078" xlink:href="#DejaVuSans-48"/>
     <use x="1152.828125" xlink:href="#DejaVuSans-49"/>
    </g>
   </g>
  </g>
 </g>
 <defs>
  <clipPath id="p8afbeb9285">
   <rect height="554.4" width="558" x="132.715625" y="180.3635"/>
  </clipPath>
 </defs>
</svg>
