<?xml version="1.0" encoding="utf-8" standalone="no"?>
<!DOCTYPE svg PUBLIC "-//W3C//DTD SVG 1.1//EN"
  "http://www.w3.org/Graphics/SVG/1.1/DTD/svg11.dtd">
<!-- Created with matplotlib (https://matplotlib.org/) -->
<svg height="852.24475pt" version="1.1" viewBox="0 0 697.915625 852.24475" width="697.915625pt" xmlns="http://www.w3.org/2000/svg" xmlns:xlink="http://www.w3.org/1999/xlink">
 <defs>
  <style type="text/css">
*{stroke-linecap:butt;stroke-linejoin:round;}
  </style>
 </defs>
 <g id="figure_1">
  <g id="patch_1">
   <path d="M 0 852.24475 
L 697.915625 852.24475 
L 697.915625 0 
L 0 0 
z
" style="fill:#ffffff;"/>
  </g>
  <g id="axes_1">
   <g id="patch_2">
    <path d="M 132.715625 734.7635 
L 690.715625 734.7635 
L 690.715625 180.3635 
L 132.715625 180.3635 
z
" style="fill:#ffffff;"/>
   </g>
   <g id="matplotlib.axis_1">
    <g id="xtick_1">
     <g id="line2d_1">
      <defs>
       <path d="M 0 0 
L 0 6 
" id="m7313004aa1" style="stroke:#262626;stroke-width:1.25;"/>
      </defs>
      <g>
       <use style="fill:#262626;stroke:#262626;stroke-width:1.25;" x="225.715625" xlink:href="#m7313004aa1" y="734.7635"/>
      </g>
     </g>
     <g id="text_1">
      <!-- Gs -->
      <defs>
       <path d="M 59.515625 10.40625 
L 59.515625 29.984375 
L 43.40625 29.984375 
L 43.40625 38.09375 
L 69.28125 38.09375 
L 69.28125 6.78125 
Q 63.578125 2.734375 56.6875 0.65625 
Q 49.8125 -1.421875 42 -1.421875 
Q 24.90625 -1.421875 15.25 8.5625 
Q 5.609375 18.5625 5.609375 36.375 
Q 5.609375 54.25 15.25 64.234375 
Q 24.90625 74.21875 42 74.21875 
Q 49.125 74.21875 55.546875 72.453125 
Q 61.96875 70.703125 67.390625 67.28125 
L 67.390625 56.78125 
Q 61.921875 61.421875 55.765625 63.765625 
Q 49.609375 66.109375 42.828125 66.109375 
Q 29.4375 66.109375 22.71875 58.640625 
Q 16.015625 51.171875 16.015625 36.375 
Q 16.015625 21.625 22.71875 14.15625 
Q 29.4375 6.6875 42.828125 6.6875 
Q 48.046875 6.6875 52.140625 7.59375 
Q 56.25 8.5 59.515625 10.40625 
z
" id="DejaVuSans-71"/>
       <path d="M 44.28125 53.078125 
L 44.28125 44.578125 
Q 40.484375 46.53125 36.375 47.5 
Q 32.28125 48.484375 27.875 48.484375 
Q 21.1875 48.484375 17.84375 46.4375 
Q 14.5 44.390625 14.5 40.28125 
Q 14.5 37.15625 16.890625 35.375 
Q 19.28125 33.59375 26.515625 31.984375 
L 29.59375 31.296875 
Q 39.15625 29.25 43.1875 25.515625 
Q 47.21875 21.78125 47.21875 15.09375 
Q 47.21875 7.46875 41.1875 3.015625 
Q 35.15625 -1.421875 24.609375 -1.421875 
Q 20.21875 -1.421875 15.453125 -0.5625 
Q 10.6875 0.296875 5.421875 2 
L 5.421875 11.28125 
Q 10.40625 8.6875 15.234375 7.390625 
Q 20.0625 6.109375 24.8125 6.109375 
Q 31.15625 6.109375 34.5625 8.28125 
Q 37.984375 10.453125 37.984375 14.40625 
Q 37.984375 18.0625 35.515625 20.015625 
Q 33.0625 21.96875 24.703125 23.78125 
L 21.578125 24.515625 
Q 13.234375 26.265625 9.515625 29.90625 
Q 5.8125 33.546875 5.8125 39.890625 
Q 5.8125 47.609375 11.28125 51.796875 
Q 16.75 56 26.8125 56 
Q 31.78125 56 36.171875 55.265625 
Q 40.578125 54.546875 44.28125 53.078125 
z
" id="DejaVuSans-115"/>
      </defs>
      <g style="fill:#262626;" transform="translate(193.321094 782.255688)scale(0.5 -0.5)">
       <use xlink:href="#DejaVuSans-71"/>
       <use x="77.490234" xlink:href="#DejaVuSans-115"/>
      </g>
     </g>
    </g>
    <g id="xtick_2">
     <g id="line2d_2">
      <g>
       <use style="fill:#262626;stroke:#262626;stroke-width:1.25;" x="411.715625" xlink:href="#m7313004aa1" y="734.7635"/>
      </g>
     </g>
     <g id="text_2">
      <!-- Gio -->
      <defs>
       <path d="M 9.421875 54.6875 
L 18.40625 54.6875 
L 18.40625 0 
L 9.421875 0 
z
M 9.421875 75.984375 
L 18.40625 75.984375 
L 18.40625 64.59375 
L 9.421875 64.59375 
z
" id="DejaVuSans-105"/>
       <path d="M 30.609375 48.390625 
Q 23.390625 48.390625 19.1875 42.75 
Q 14.984375 37.109375 14.984375 27.296875 
Q 14.984375 17.484375 19.15625 11.84375 
Q 23.34375 6.203125 30.609375 6.203125 
Q 37.796875 6.203125 41.984375 11.859375 
Q 46.1875 17.53125 46.1875 27.296875 
Q 46.1875 37.015625 41.984375 42.703125 
Q 37.796875 48.390625 30.609375 48.390625 
z
M 30.609375 56 
Q 42.328125 56 49.015625 48.375 
Q 55.71875 40.765625 55.71875 27.296875 
Q 55.71875 13.875 49.015625 6.21875 
Q 42.328125 -1.421875 30.609375 -1.421875 
Q 18.84375 -1.421875 12.171875 6.21875 
Q 5.515625 13.875 5.515625 27.296875 
Q 5.515625 40.765625 12.171875 48.375 
Q 18.84375 56 30.609375 56 
z
" id="DejaVuSans-111"/>
      </defs>
      <g style="fill:#262626;" transform="translate(370.102344 782.255688)scale(0.5 -0.5)">
       <use xlink:href="#DejaVuSans-71"/>
       <use x="77.490234" xlink:href="#DejaVuSans-105"/>
       <use x="105.273438" xlink:href="#DejaVuSans-111"/>
      </g>
     </g>
    </g>
    <g id="xtick_3">
     <g id="line2d_3">
      <g>
       <use style="fill:#262626;stroke:#262626;stroke-width:1.25;" x="597.715625" xlink:href="#m7313004aa1" y="734.7635"/>
      </g>
     </g>
     <g id="text_3">
      <!-- Gq11 -->
      <defs>
       <path d="M 14.796875 27.296875 
Q 14.796875 17.390625 18.875 11.75 
Q 22.953125 6.109375 30.078125 6.109375 
Q 37.203125 6.109375 41.296875 11.75 
Q 45.40625 17.390625 45.40625 27.296875 
Q 45.40625 37.203125 41.296875 42.84375 
Q 37.203125 48.484375 30.078125 48.484375 
Q 22.953125 48.484375 18.875 42.84375 
Q 14.796875 37.203125 14.796875 27.296875 
z
M 45.40625 8.203125 
Q 42.578125 3.328125 38.25 0.953125 
Q 33.9375 -1.421875 27.875 -1.421875 
Q 17.96875 -1.421875 11.734375 6.484375 
Q 5.515625 14.40625 5.515625 27.296875 
Q 5.515625 40.1875 11.734375 48.09375 
Q 17.96875 56 27.875 56 
Q 33.9375 56 38.25 53.625 
Q 42.578125 51.265625 45.40625 46.390625 
L 45.40625 54.6875 
L 54.390625 54.6875 
L 54.390625 -20.796875 
L 45.40625 -20.796875 
z
" id="DejaVuSans-113"/>
       <path d="M 12.40625 8.296875 
L 28.515625 8.296875 
L 28.515625 63.921875 
L 10.984375 60.40625 
L 10.984375 69.390625 
L 28.421875 72.90625 
L 38.28125 72.90625 
L 38.28125 8.296875 
L 54.390625 8.296875 
L 54.390625 0 
L 12.40625 0 
z
" id="DejaVuSans-49"/>
      </defs>
      <g style="fill:#262626;" transform="translate(530.660938 782.255688)scale(0.5 -0.5)">
       <use xlink:href="#DejaVuSans-71"/>
       <use x="77.490234" xlink:href="#DejaVuSans-113"/>
       <use x="140.966797" xlink:href="#DejaVuSans-49"/>
       <use x="204.589844" xlink:href="#DejaVuSans-49"/>
      </g>
     </g>
    </g>
    <g id="text_4">
     <!-- G-protein -->
     <defs>
      <path d="M 4.890625 31.390625 
L 31.203125 31.390625 
L 31.203125 23.390625 
L 4.890625 23.390625 
z
" id="DejaVuSans-45"/>
      <path d="M 18.109375 8.203125 
L 18.109375 -20.796875 
L 9.078125 -20.796875 
L 9.078125 54.6875 
L 18.109375 54.6875 
L 18.109375 46.390625 
Q 20.953125 51.265625 25.265625 53.625 
Q 29.59375 56 35.59375 56 
Q 45.5625 56 51.78125 48.09375 
Q 58.015625 40.1875 58.015625 27.296875 
Q 58.015625 14.40625 51.78125 6.484375 
Q 45.5625 -1.421875 35.59375 -1.421875 
Q 29.59375 -1.421875 25.265625 0.953125 
Q 20.953125 3.328125 18.109375 8.203125 
z
M 48.6875 27.296875 
Q 48.6875 37.203125 44.609375 42.84375 
Q 40.53125 48.484375 33.40625 48.484375 
Q 26.265625 48.484375 22.1875 42.84375 
Q 18.109375 37.203125 18.109375 27.296875 
Q 18.109375 17.390625 22.1875 11.75 
Q 26.265625 6.109375 33.40625 6.109375 
Q 40.53125 6.109375 44.609375 11.75 
Q 48.6875 17.390625 48.6875 27.296875 
z
" id="DejaVuSans-112"/>
      <path d="M 41.109375 46.296875 
Q 39.59375 47.171875 37.8125 47.578125 
Q 36.03125 48 33.890625 48 
Q 26.265625 48 22.1875 43.046875 
Q 18.109375 38.09375 18.109375 28.8125 
L 18.109375 0 
L 9.078125 0 
L 9.078125 54.6875 
L 18.109375 54.6875 
L 18.109375 46.1875 
Q 20.953125 51.171875 25.484375 53.578125 
Q 30.03125 56 36.53125 56 
Q 37.453125 56 38.578125 55.875 
Q 39.703125 55.765625 41.0625 55.515625 
z
" id="DejaVuSans-114"/>
      <path d="M 18.3125 70.21875 
L 18.3125 54.6875 
L 36.8125 54.6875 
L 36.8125 47.703125 
L 18.3125 47.703125 
L 18.3125 18.015625 
Q 18.3125 11.328125 20.140625 9.421875 
Q 21.96875 7.515625 27.59375 7.515625 
L 36.8125 7.515625 
L 36.8125 0 
L 27.59375 0 
Q 17.1875 0 13.234375 3.875 
Q 9.28125 7.765625 9.28125 18.015625 
L 9.28125 47.703125 
L 2.6875 47.703125 
L 2.6875 54.6875 
L 9.28125 54.6875 
L 9.28125 70.21875 
z
" id="DejaVuSans-116"/>
      <path d="M 56.203125 29.59375 
L 56.203125 25.203125 
L 14.890625 25.203125 
Q 15.484375 15.921875 20.484375 11.0625 
Q 25.484375 6.203125 34.421875 6.203125 
Q 39.59375 6.203125 44.453125 7.46875 
Q 49.3125 8.734375 54.109375 11.28125 
L 54.109375 2.78125 
Q 49.265625 0.734375 44.1875 -0.34375 
Q 39.109375 -1.421875 33.890625 -1.421875 
Q 20.796875 -1.421875 13.15625 6.1875 
Q 5.515625 13.8125 5.515625 26.8125 
Q 5.515625 40.234375 12.765625 48.109375 
Q 20.015625 56 32.328125 56 
Q 43.359375 56 49.78125 48.890625 
Q 56.203125 41.796875 56.203125 29.59375 
z
M 47.21875 32.234375 
Q 47.125 39.59375 43.09375 43.984375 
Q 39.0625 48.390625 32.421875 48.390625 
Q 24.90625 48.390625 20.390625 44.140625 
Q 15.875 39.890625 15.1875 32.171875 
z
" id="DejaVuSans-101"/>
      <path d="M 54.890625 33.015625 
L 54.890625 0 
L 45.90625 0 
L 45.90625 32.71875 
Q 45.90625 40.484375 42.875 44.328125 
Q 39.84375 48.1875 33.796875 48.1875 
Q 26.515625 48.1875 22.3125 43.546875 
Q 18.109375 38.921875 18.109375 30.90625 
L 18.109375 0 
L 9.078125 0 
L 9.078125 54.6875 
L 18.109375 54.6875 
L 18.109375 46.1875 
Q 21.34375 51.125 25.703125 53.5625 
Q 30.078125 56 35.796875 56 
Q 45.21875 56 50.046875 50.171875 
Q 54.890625 44.34375 54.890625 33.015625 
z
" id="DejaVuSans-110"/>
     </defs>
     <g style="fill:#262626;" transform="translate(294.469531 834.646313)scale(0.5 -0.5)">
      <use xlink:href="#DejaVuSans-71"/>
      <use x="77.490234" xlink:href="#DejaVuSans-45"/>
      <use x="113.574219" xlink:href="#DejaVuSans-112"/>
      <use x="177.050781" xlink:href="#DejaVuSans-114"/>
      <use x="215.914062" xlink:href="#DejaVuSans-111"/>
      <use x="277.095703" xlink:href="#DejaVuSans-116"/>
      <use x="316.304688" xlink:href="#DejaVuSans-101"/>
      <use x="377.828125" xlink:href="#DejaVuSans-105"/>
      <use x="405.611328" xlink:href="#DejaVuSans-110"/>
     </g>
    </g>
   </g>
   <g id="matplotlib.axis_2">
    <g id="ytick_1">
     <g id="line2d_4">
      <defs>
       <path d="M 0 0 
L -6 0 
" id="md155eb0860" style="stroke:#262626;stroke-width:1.25;"/>
      </defs>
      <g>
       <use style="fill:#262626;stroke:#262626;stroke-width:1.25;" x="132.715625" xlink:href="#md155eb0860" y="684.3635"/>
      </g>
     </g>
     <g id="text_5">
      <!-- 0 -->
      <defs>
       <path d="M 31.78125 66.40625 
Q 24.171875 66.40625 20.328125 58.90625 
Q 16.5 51.421875 16.5 36.375 
Q 16.5 21.390625 20.328125 13.890625 
Q 24.171875 6.390625 31.78125 6.390625 
Q 39.453125 6.390625 43.28125 13.890625 
Q 47.125 21.390625 47.125 36.375 
Q 47.125 51.421875 43.28125 58.90625 
Q 39.453125 66.40625 31.78125 66.40625 
z
M 31.78125 74.21875 
Q 44.046875 74.21875 50.515625 64.515625 
Q 56.984375 54.828125 56.984375 36.375 
Q 56.984375 17.96875 50.515625 8.265625 
Q 44.046875 -1.421875 31.78125 -1.421875 
Q 19.53125 -1.421875 13.0625 8.265625 
Q 6.59375 17.96875 6.59375 36.375 
Q 6.59375 54.828125 13.0625 64.515625 
Q 19.53125 74.21875 31.78125 74.21875 
z
" id="DejaVuSans-48"/>
      </defs>
      <g style="fill:#262626;" transform="translate(91.403125 703.359594)scale(0.5 -0.5)">
       <use xlink:href="#DejaVuSans-48"/>
      </g>
     </g>
    </g>
    <g id="ytick_2">
     <g id="line2d_5">
      <g>
       <use style="fill:#262626;stroke:#262626;stroke-width:1.25;" x="132.715625" xlink:href="#md155eb0860" y="617.1635"/>
      </g>
     </g>
     <g id="text_6">
      <!-- 4 -->
      <defs>
       <path d="M 37.796875 64.3125 
L 12.890625 25.390625 
L 37.796875 25.390625 
z
M 35.203125 72.90625 
L 47.609375 72.90625 
L 47.609375 25.390625 
L 58.015625 25.390625 
L 58.015625 17.1875 
L 47.609375 17.1875 
L 47.609375 0 
L 37.796875 0 
L 37.796875 17.1875 
L 4.890625 17.1875 
L 4.890625 26.703125 
z
" id="DejaVuSans-52"/>
      </defs>
      <g style="fill:#262626;" transform="translate(91.403125 636.159594)scale(0.5 -0.5)">
       <use xlink:href="#DejaVuSans-52"/>
      </g>
     </g>
    </g>
    <g id="ytick_3">
     <g id="line2d_6">
      <g>
       <use style="fill:#262626;stroke:#262626;stroke-width:1.25;" x="132.715625" xlink:href="#md155eb0860" y="549.9635"/>
      </g>
     </g>
     <g id="text_7">
      <!-- 8 -->
      <defs>
       <path d="M 31.78125 34.625 
Q 24.75 34.625 20.71875 30.859375 
Q 16.703125 27.09375 16.703125 20.515625 
Q 16.703125 13.921875 20.71875 10.15625 
Q 24.75 6.390625 31.78125 6.390625 
Q 38.8125 6.390625 42.859375 10.171875 
Q 46.921875 13.96875 46.921875 20.515625 
Q 46.921875 27.09375 42.890625 30.859375 
Q 38.875 34.625 31.78125 34.625 
z
M 21.921875 38.8125 
Q 15.578125 40.375 12.03125 44.71875 
Q 8.5 49.078125 8.5 55.328125 
Q 8.5 64.0625 14.71875 69.140625 
Q 20.953125 74.21875 31.78125 74.21875 
Q 42.671875 74.21875 48.875 69.140625 
Q 55.078125 64.0625 55.078125 55.328125 
Q 55.078125 49.078125 51.53125 44.71875 
Q 48 40.375 41.703125 38.8125 
Q 48.828125 37.15625 52.796875 32.3125 
Q 56.78125 27.484375 56.78125 20.515625 
Q 56.78125 9.90625 50.3125 4.234375 
Q 43.84375 -1.421875 31.78125 -1.421875 
Q 19.734375 -1.421875 13.25 4.234375 
Q 6.78125 9.90625 6.78125 20.515625 
Q 6.78125 27.484375 10.78125 32.3125 
Q 14.796875 37.15625 21.921875 38.8125 
z
M 18.3125 54.390625 
Q 18.3125 48.734375 21.84375 45.5625 
Q 25.390625 42.390625 31.78125 42.390625 
Q 38.140625 42.390625 41.71875 45.5625 
Q 45.3125 48.734375 45.3125 54.390625 
Q 45.3125 60.0625 41.71875 63.234375 
Q 38.140625 66.40625 31.78125 66.40625 
Q 25.390625 66.40625 21.84375 63.234375 
Q 18.3125 60.0625 18.3125 54.390625 
z
" id="DejaVuSans-56"/>
      </defs>
      <g style="fill:#262626;" transform="translate(91.403125 568.959594)scale(0.5 -0.5)">
       <use xlink:href="#DejaVuSans-56"/>
      </g>
     </g>
    </g>
    <g id="ytick_4">
     <g id="line2d_7">
      <g>
       <use style="fill:#262626;stroke:#262626;stroke-width:1.25;" x="132.715625" xlink:href="#md155eb0860" y="482.7635"/>
      </g>
     </g>
     <g id="text_8">
      <!-- 12 -->
      <defs>
       <path d="M 19.1875 8.296875 
L 53.609375 8.296875 
L 53.609375 0 
L 7.328125 0 
L 7.328125 8.296875 
Q 12.9375 14.109375 22.625 23.890625 
Q 32.328125 33.6875 34.8125 36.53125 
Q 39.546875 41.84375 41.421875 45.53125 
Q 43.3125 49.21875 43.3125 52.78125 
Q 43.3125 58.59375 39.234375 62.25 
Q 35.15625 65.921875 28.609375 65.921875 
Q 23.96875 65.921875 18.8125 64.3125 
Q 13.671875 62.703125 7.8125 59.421875 
L 7.8125 69.390625 
Q 13.765625 71.78125 18.9375 73 
Q 24.125 74.21875 28.421875 74.21875 
Q 39.75 74.21875 46.484375 68.546875 
Q 53.21875 62.890625 53.21875 53.421875 
Q 53.21875 48.921875 51.53125 44.890625 
Q 49.859375 40.875 45.40625 35.40625 
Q 44.1875 33.984375 37.640625 27.21875 
Q 31.109375 20.453125 19.1875 8.296875 
z
" id="DejaVuSans-50"/>
      </defs>
      <g style="fill:#262626;" transform="translate(59.590625 501.759594)scale(0.5 -0.5)">
       <use xlink:href="#DejaVuSans-49"/>
       <use x="63.623047" xlink:href="#DejaVuSans-50"/>
      </g>
     </g>
    </g>
    <g id="ytick_5">
     <g id="line2d_8">
      <g>
       <use style="fill:#262626;stroke:#262626;stroke-width:1.25;" x="132.715625" xlink:href="#md155eb0860" y="415.5635"/>
      </g>
     </g>
     <g id="text_9">
      <!-- 16 -->
      <defs>
       <path d="M 33.015625 40.375 
Q 26.375 40.375 22.484375 35.828125 
Q 18.609375 31.296875 18.609375 23.390625 
Q 18.609375 15.53125 22.484375 10.953125 
Q 26.375 6.390625 33.015625 6.390625 
Q 39.65625 6.390625 43.53125 10.953125 
Q 47.40625 15.53125 47.40625 23.390625 
Q 47.40625 31.296875 43.53125 35.828125 
Q 39.65625 40.375 33.015625 40.375 
z
M 52.59375 71.296875 
L 52.59375 62.3125 
Q 48.875 64.0625 45.09375 64.984375 
Q 41.3125 65.921875 37.59375 65.921875 
Q 27.828125 65.921875 22.671875 59.328125 
Q 17.53125 52.734375 16.796875 39.40625 
Q 19.671875 43.65625 24.015625 45.921875 
Q 28.375 48.1875 33.59375 48.1875 
Q 44.578125 48.1875 50.953125 41.515625 
Q 57.328125 34.859375 57.328125 23.390625 
Q 57.328125 12.15625 50.6875 5.359375 
Q 44.046875 -1.421875 33.015625 -1.421875 
Q 20.359375 -1.421875 13.671875 8.265625 
Q 6.984375 17.96875 6.984375 36.375 
Q 6.984375 53.65625 15.1875 63.9375 
Q 23.390625 74.21875 37.203125 74.21875 
Q 40.921875 74.21875 44.703125 73.484375 
Q 48.484375 72.75 52.59375 71.296875 
z
" id="DejaVuSans-54"/>
      </defs>
      <g style="fill:#262626;" transform="translate(59.590625 434.559594)scale(0.5 -0.5)">
       <use xlink:href="#DejaVuSans-49"/>
       <use x="63.623047" xlink:href="#DejaVuSans-54"/>
      </g>
     </g>
    </g>
    <g id="ytick_6">
     <g id="line2d_9">
      <g>
       <use style="fill:#262626;stroke:#262626;stroke-width:1.25;" x="132.715625" xlink:href="#md155eb0860" y="348.3635"/>
      </g>
     </g>
     <g id="text_10">
      <!-- 20 -->
      <g style="fill:#262626;" transform="translate(59.590625 367.359594)scale(0.5 -0.5)">
       <use xlink:href="#DejaVuSans-50"/>
       <use x="63.623047" xlink:href="#DejaVuSans-48"/>
      </g>
     </g>
    </g>
    <g id="ytick_7">
     <g id="line2d_10">
      <g>
       <use style="fill:#262626;stroke:#262626;stroke-width:1.25;" x="132.715625" xlink:href="#md155eb0860" y="281.1635"/>
      </g>
     </g>
     <g id="text_11">
      <!-- 24 -->
      <g style="fill:#262626;" transform="translate(59.590625 300.159594)scale(0.5 -0.5)">
       <use xlink:href="#DejaVuSans-50"/>
       <use x="63.623047" xlink:href="#DejaVuSans-52"/>
      </g>
     </g>
    </g>
    <g id="ytick_8">
     <g id="line2d_11">
      <g>
       <use style="fill:#262626;stroke:#262626;stroke-width:1.25;" x="132.715625" xlink:href="#md155eb0860" y="213.9635"/>
      </g>
     </g>
     <g id="text_12">
      <!-- 28 -->
      <g style="fill:#262626;" transform="translate(59.590625 232.959594)scale(0.5 -0.5)">
       <use xlink:href="#DejaVuSans-50"/>
       <use x="63.623047" xlink:href="#DejaVuSans-56"/>
      </g>
     </g>
    </g>
    <g id="text_13">
     <!-- RMSD -->
     <defs>
      <path d="M 44.390625 34.1875 
Q 47.5625 33.109375 50.5625 29.59375 
Q 53.5625 26.078125 56.59375 19.921875 
L 66.609375 0 
L 56 0 
L 46.6875 18.703125 
Q 43.0625 26.03125 39.671875 28.421875 
Q 36.28125 30.8125 30.421875 30.8125 
L 19.671875 30.8125 
L 19.671875 0 
L 9.8125 0 
L 9.8125 72.90625 
L 32.078125 72.90625 
Q 44.578125 72.90625 50.734375 67.671875 
Q 56.890625 62.453125 56.890625 51.90625 
Q 56.890625 45.015625 53.6875 40.46875 
Q 50.484375 35.9375 44.390625 34.1875 
z
M 19.671875 64.796875 
L 19.671875 38.921875 
L 32.078125 38.921875 
Q 39.203125 38.921875 42.84375 42.21875 
Q 46.484375 45.515625 46.484375 51.90625 
Q 46.484375 58.296875 42.84375 61.546875 
Q 39.203125 64.796875 32.078125 64.796875 
z
" id="DejaVuSans-82"/>
      <path d="M 9.8125 72.90625 
L 24.515625 72.90625 
L 43.109375 23.296875 
L 61.8125 72.90625 
L 76.515625 72.90625 
L 76.515625 0 
L 66.890625 0 
L 66.890625 64.015625 
L 48.09375 14.015625 
L 38.1875 14.015625 
L 19.390625 64.015625 
L 19.390625 0 
L 9.8125 0 
z
" id="DejaVuSans-77"/>
      <path d="M 53.515625 70.515625 
L 53.515625 60.890625 
Q 47.90625 63.578125 42.921875 64.890625 
Q 37.9375 66.21875 33.296875 66.21875 
Q 25.25 66.21875 20.875 63.09375 
Q 16.5 59.96875 16.5 54.203125 
Q 16.5 49.359375 19.40625 46.890625 
Q 22.3125 44.4375 30.421875 42.921875 
L 36.375 41.703125 
Q 47.40625 39.59375 52.65625 34.296875 
Q 57.90625 29 57.90625 20.125 
Q 57.90625 9.515625 50.796875 4.046875 
Q 43.703125 -1.421875 29.984375 -1.421875 
Q 24.8125 -1.421875 18.96875 -0.25 
Q 13.140625 0.921875 6.890625 3.21875 
L 6.890625 13.375 
Q 12.890625 10.015625 18.65625 8.296875 
Q 24.421875 6.59375 29.984375 6.59375 
Q 38.421875 6.59375 43.015625 9.90625 
Q 47.609375 13.234375 47.609375 19.390625 
Q 47.609375 24.75 44.3125 27.78125 
Q 41.015625 30.8125 33.5 32.328125 
L 27.484375 33.5 
Q 16.453125 35.6875 11.515625 40.375 
Q 6.59375 45.0625 6.59375 53.421875 
Q 6.59375 63.09375 13.40625 68.65625 
Q 20.21875 74.21875 32.171875 74.21875 
Q 37.3125 74.21875 42.625 73.28125 
Q 47.953125 72.359375 53.515625 70.515625 
z
" id="DejaVuSans-83"/>
      <path d="M 19.671875 64.796875 
L 19.671875 8.109375 
L 31.59375 8.109375 
Q 46.6875 8.109375 53.6875 14.9375 
Q 60.6875 21.78125 60.6875 36.53125 
Q 60.6875 51.171875 53.6875 57.984375 
Q 46.6875 64.796875 31.59375 64.796875 
z
M 9.8125 72.90625 
L 30.078125 72.90625 
Q 51.265625 72.90625 61.171875 64.09375 
Q 71.09375 55.28125 71.09375 36.53125 
Q 71.09375 17.671875 61.125 8.828125 
Q 51.171875 0 30.078125 0 
L 9.8125 0 
z
" id="DejaVuSans-68"/>
     </defs>
     <g style="fill:#262626;" transform="translate(45.192187 531.626)rotate(-90)scale(0.5 -0.5)">
      <use xlink:href="#DejaVuSans-82"/>
      <use x="69.482422" xlink:href="#DejaVuSans-77"/>
      <use x="155.761719" xlink:href="#DejaVuSans-83"/>
      <use x="219.238281" xlink:href="#DejaVuSans-68"/>
     </g>
    </g>
   </g>
   <g id="PolyCollection_1">
    <defs>
     <path d="M 225.764865 -155.540473 
L 225.666385 -155.540473 
L 225.562593 -158.249566 
L 225.297424 -160.95866 
L 224.707915 -163.667753 
L 223.565881 -166.376846 
L 221.632977 -169.08594 
L 218.764289 -171.795033 
L 215.013799 -174.504126 
L 210.671983 -177.21322 
L 206.19736 -179.922313 
L 202.072088 -182.631406 
L 198.657074 -185.3405 
L 196.104682 -188.049593 
L 194.335127 -190.758687 
L 193.060736 -193.46778 
L 191.864192 -196.176873 
L 190.344242 -198.885967 
L 188.29612 -201.59506 
L 185.841161 -204.304153 
L 183.429562 -207.013247 
L 181.704014 -209.72234 
L 181.269435 -212.431433 
L 182.445723 -215.140527 
L 185.104621 -217.84962 
L 188.684174 -220.558713 
L 192.389934 -223.267807 
L 195.473971 -225.9769 
L 197.444224 -228.685993 
L 198.130003 -231.395087 
L 197.625807 -234.10418 
L 196.176239 -236.813273 
L 194.059904 -239.522367 
L 191.514502 -242.23146 
L 188.725537 -244.940553 
L 185.876214 -247.649647 
L 183.226415 -250.35874 
L 181.156542 -253.067833 
L 180.107995 -255.776927 
L 180.414602 -258.48602 
L 182.120915 -261.195113 
L 184.928682 -263.904207 
L 188.336631 -266.6133 
L 191.887419 -269.322393 
L 195.342714 -272.031487 
L 198.670119 -274.74058 
L 201.891567 -277.449673 
L 204.950454 -280.158767 
L 207.70955 -282.86786 
L 210.056422 -285.576953 
L 211.999201 -288.286047 
L 213.656406 -290.99514 
L 215.151747 -293.704233 
L 216.516948 -296.413327 
L 217.692029 -299.12242 
L 218.608811 -301.831514 
L 219.263778 -304.540607 
L 219.715154 -307.2497 
L 220.030051 -309.958794 
L 220.248408 -312.667887 
L 220.387931 -315.37698 
L 220.461233 -318.086074 
L 220.477405 -320.795167 
L 220.434359 -323.50426 
L 220.323023 -326.213354 
L 220.148713 -328.922447 
L 219.954646 -331.63154 
L 219.827641 -334.340634 
L 219.87568 -337.049727 
L 220.183909 -339.75882 
L 220.771566 -342.467914 
L 221.575965 -345.177007 
L 222.474844 -347.8861 
L 223.334324 -350.595194 
L 224.054843 -353.304287 
L 224.593004 -356.01338 
L 224.956367 -358.722474 
L 225.183415 -361.431567 
L 225.322087 -364.14066 
L 225.413699 -366.849754 
L 225.484451 -369.558847 
L 225.545141 -372.26794 
L 225.596988 -374.977034 
L 225.638492 -377.686127 
L 225.669181 -380.39522 
L 225.690072 -383.104314 
L 225.702991 -385.813407 
L 225.71004 -388.5225 
L 225.713174 -391.231594 
L 225.71373 -393.940687 
L 225.712133 -396.64978 
L 225.708079 -399.358874 
L 225.701316 -402.067967 
L 225.69272 -404.77706 
L 225.684803 -407.486154 
L 225.680774 -410.195247 
L 225.682512 -412.904341 
L 225.689189 -415.613434 
L 225.697892 -418.322527 
L 225.705629 -421.031621 
L 225.710891 -423.740714 
L 225.720359 -423.740714 
L 225.720359 -423.740714 
L 225.725621 -421.031621 
L 225.733358 -418.322527 
L 225.742061 -415.613434 
L 225.748738 -412.904341 
L 225.750476 -410.195247 
L 225.746447 -407.486154 
L 225.73853 -404.77706 
L 225.729934 -402.067967 
L 225.723171 -399.358874 
L 225.719117 -396.64978 
L 225.71752 -393.940687 
L 225.718076 -391.231594 
L 225.72121 -388.5225 
L 225.728259 -385.813407 
L 225.741178 -383.104314 
L 225.762069 -380.39522 
L 225.792758 -377.686127 
L 225.834262 -374.977034 
L 225.886109 -372.26794 
L 225.946799 -369.558847 
L 226.017551 -366.849754 
L 226.109163 -364.14066 
L 226.247835 -361.431567 
L 226.474883 -358.722474 
L 226.838246 -356.01338 
L 227.376407 -353.304287 
L 228.096926 -350.595194 
L 228.956406 -347.8861 
L 229.855285 -345.177007 
L 230.659684 -342.467914 
L 231.247341 -339.75882 
L 231.55557 -337.049727 
L 231.603609 -334.340634 
L 231.476604 -331.63154 
L 231.282537 -328.922447 
L 231.108227 -326.213354 
L 230.996891 -323.50426 
L 230.953845 -320.795167 
L 230.970017 -318.086074 
L 231.043319 -315.37698 
L 231.182842 -312.667887 
L 231.401199 -309.958794 
L 231.716096 -307.2497 
L 232.167472 -304.540607 
L 232.822439 -301.831514 
L 233.739221 -299.12242 
L 234.914302 -296.413327 
L 236.279503 -293.704233 
L 237.774844 -290.99514 
L 239.432049 -288.286047 
L 241.374828 -285.576953 
L 243.7217 -282.86786 
L 246.480796 -280.158767 
L 249.539683 -277.449673 
L 252.761131 -274.74058 
L 256.088536 -272.031487 
L 259.543831 -269.322393 
L 263.094619 -266.6133 
L 266.502568 -263.904207 
L 269.310335 -261.195113 
L 271.016648 -258.48602 
L 271.323255 -255.776927 
L 270.274708 -253.067833 
L 268.204835 -250.35874 
L 265.555036 -247.649647 
L 262.705713 -244.940553 
L 259.916748 -242.23146 
L 257.371346 -239.522367 
L 255.255011 -236.813273 
L 253.805443 -234.10418 
L 253.301247 -231.395087 
L 253.987026 -228.685993 
L 255.957279 -225.9769 
L 259.041316 -223.267807 
L 262.747076 -220.558713 
L 266.326629 -217.84962 
L 268.985527 -215.140527 
L 270.161815 -212.431433 
L 269.727236 -209.72234 
L 268.001688 -207.013247 
L 265.590089 -204.304153 
L 263.13513 -201.59506 
L 261.087008 -198.885967 
L 259.567058 -196.176873 
L 258.370514 -193.46778 
L 257.096123 -190.758687 
L 255.326568 -188.049593 
L 252.774176 -185.3405 
L 249.359162 -182.631406 
L 245.23389 -179.922313 
L 240.759267 -177.21322 
L 236.417451 -174.504126 
L 232.666961 -171.795033 
L 229.798273 -169.08594 
L 227.865369 -166.376846 
L 226.723335 -163.667753 
L 226.133826 -160.95866 
L 225.868657 -158.249566 
L 225.764865 -155.540473 
z
" id="mad5bb06867" style="stroke:#262626;stroke-width:1.5;"/>
    </defs>
    <g clip-path="url(#pac01c5e230)">
     <use style="fill:#b55d60;stroke:#262626;stroke-width:1.5;" x="0" xlink:href="#mad5bb06867" y="852.24475"/>
    </g>
   </g>
   <g id="PolyCollection_2">
    <defs>
     <path d="M 411.745083 -149.451598 
L 411.686167 -149.451598 
L 411.633554 -153.16091 
L 411.513701 -156.870221 
L 411.276001 -160.579533 
L 410.865697 -164.288845 
L 410.247961 -167.998156 
L 409.430593 -171.707468 
L 408.461828 -175.41678 
L 407.391301 -179.126092 
L 406.213516 -182.835403 
L 404.836527 -186.544715 
L 403.107049 -190.254027 
L 400.883364 -193.963338 
L 398.113912 -197.67265 
L 394.879553 -201.381962 
L 391.384359 -205.091274 
L 387.905303 -208.800585 
L 384.719331 -212.509897 
L 382.028637 -216.219209 
L 379.912623 -219.92852 
L 378.332879 -223.637832 
L 377.188674 -227.347144 
L 376.383952 -231.056456 
L 375.861667 -234.765767 
L 375.595597 -238.475079 
L 375.568749 -242.184391 
L 375.771662 -245.893702 
L 376.220108 -249.603014 
L 376.956848 -253.312326 
L 378.009259 -257.021638 
L 379.323919 -260.730949 
L 380.737755 -264.440261 
L 382.025816 -268.149573 
L 383.003952 -271.858884 
L 383.619464 -275.568196 
L 383.972068 -279.277508 
L 384.259738 -282.98682 
L 384.694562 -286.696131 
L 385.440273 -290.405443 
L 386.586703 -294.114755 
L 388.143065 -297.824067 
L 390.035421 -301.533378 
L 392.115143 -305.24269 
L 394.189325 -308.952002 
L 396.07021 -312.661313 
L 397.629589 -316.370625 
L 398.840879 -320.079937 
L 399.789069 -323.789249 
L 400.632353 -327.49856 
L 401.521993 -331.207872 
L 402.520714 -334.917184 
L 403.572379 -338.626495 
L 404.545385 -342.335807 
L 405.319884 -346.045119 
L 405.859869 -349.754431 
L 406.227266 -353.463742 
L 406.537593 -357.173054 
L 406.892242 -360.882366 
L 407.330298 -364.591677 
L 407.822869 -368.300989 
L 408.302618 -372.010301 
L 408.703162 -375.719613 
L 408.985544 -379.428924 
L 409.142904 -383.138236 
L 409.188818 -386.847548 
L 409.143053 -390.556859 
L 409.025535 -394.266171 
L 408.857877 -397.975483 
L 408.664799 -401.684795 
L 408.472552 -405.394106 
L 408.307407 -409.103418 
L 408.194306 -412.81273 
L 408.151562 -416.522041 
L 408.18308 -420.231353 
L 408.277937 -423.940665 
L 408.422439 -427.649977 
L 408.613665 -431.359288 
L 408.85735 -435.0686 
L 409.149222 -438.777912 
L 409.460484 -442.487223 
L 409.747493 -446.196535 
L 409.980642 -449.905847 
L 410.165949 -453.615159 
L 410.338626 -457.32447 
L 410.533991 -461.033782 
L 410.760649 -464.743094 
L 410.996463 -468.452405 
L 411.206419 -472.161717 
L 411.364901 -475.871029 
L 411.466467 -479.580341 
L 411.522621 -483.289652 
L 411.552032 -486.998964 
L 411.571786 -490.708276 
L 411.592615 -494.417587 
L 411.617887 -498.126899 
L 411.645392 -501.836211 
L 411.670688 -505.545523 
L 411.69027 -509.254834 
L 411.703092 -512.964146 
L 411.710225 -516.673458 
L 411.721025 -516.673458 
L 411.721025 -516.673458 
L 411.728158 -512.964146 
L 411.74098 -509.254834 
L 411.760562 -505.545523 
L 411.785858 -501.836211 
L 411.813363 -498.126899 
L 411.838635 -494.417587 
L 411.859464 -490.708276 
L 411.879218 -486.998964 
L 411.908629 -483.289652 
L 411.964783 -479.580341 
L 412.066349 -475.871029 
L 412.224831 -472.161717 
L 412.434787 -468.452405 
L 412.670601 -464.743094 
L 412.897259 -461.033782 
L 413.092624 -457.32447 
L 413.265301 -453.615159 
L 413.450608 -449.905847 
L 413.683757 -446.196535 
L 413.970766 -442.487223 
L 414.282028 -438.777912 
L 414.5739 -435.0686 
L 414.817585 -431.359288 
L 415.008811 -427.649977 
L 415.153313 -423.940665 
L 415.24817 -420.231353 
L 415.279688 -416.522041 
L 415.236944 -412.81273 
L 415.123843 -409.103418 
L 414.958698 -405.394106 
L 414.766451 -401.684795 
L 414.573373 -397.975483 
L 414.405715 -394.266171 
L 414.288197 -390.556859 
L 414.242432 -386.847548 
L 414.288346 -383.138236 
L 414.445706 -379.428924 
L 414.728088 -375.719613 
L 415.128632 -372.010301 
L 415.608381 -368.300989 
L 416.100952 -364.591677 
L 416.539008 -360.882366 
L 416.893657 -357.173054 
L 417.203984 -353.463742 
L 417.571381 -349.754431 
L 418.111366 -346.045119 
L 418.885865 -342.335807 
L 419.858871 -338.626495 
L 420.910536 -334.917184 
L 421.909257 -331.207872 
L 422.798897 -327.49856 
L 423.642181 -323.789249 
L 424.590371 -320.079937 
L 425.801661 -316.370625 
L 427.36104 -312.661313 
L 429.241925 -308.952002 
L 431.316107 -305.24269 
L 433.395829 -301.533378 
L 435.288185 -297.824067 
L 436.844547 -294.114755 
L 437.990977 -290.405443 
L 438.736688 -286.696131 
L 439.171512 -282.98682 
L 439.459182 -279.277508 
L 439.811786 -275.568196 
L 440.427298 -271.858884 
L 441.405434 -268.149573 
L 442.693495 -264.440261 
L 444.107331 -260.730949 
L 445.421991 -257.021638 
L 446.474402 -253.312326 
L 447.211142 -249.603014 
L 447.659588 -245.893702 
L 447.862501 -242.184391 
L 447.835653 -238.475079 
L 447.569583 -234.765767 
L 447.047298 -231.056456 
L 446.242576 -227.347144 
L 445.098371 -223.637832 
L 443.518627 -219.92852 
L 441.402613 -216.219209 
L 438.711919 -212.509897 
L 435.525947 -208.800585 
L 432.046891 -205.091274 
L 428.551697 -201.381962 
L 425.317338 -197.67265 
L 422.547886 -193.963338 
L 420.324201 -190.254027 
L 418.594723 -186.544715 
L 417.217734 -182.835403 
L 416.039949 -179.126092 
L 414.969422 -175.41678 
L 414.000657 -171.707468 
L 413.183289 -167.998156 
L 412.565553 -164.288845 
L 412.155249 -160.579533 
L 411.917549 -156.870221 
L 411.797696 -153.16091 
L 411.745083 -149.451598 
z
" id="mf903c29bdd" style="stroke:#262626;stroke-width:1.5;"/>
    </defs>
    <g clip-path="url(#pac01c5e230)">
     <use style="fill:#5875a4;stroke:#262626;stroke-width:1.5;" x="0" xlink:href="#mf903c29bdd" y="852.24475"/>
    </g>
   </g>
   <g id="PolyCollection_3">
    <defs>
     <path d="M 600.649418 -168.724268 
L 594.781832 -168.724268 
L 594.277732 -169.768089 
L 593.711445 -170.811909 
L 593.079964 -171.855729 
L 592.38095 -172.899549 
L 591.612859 -173.94337 
L 590.775045 -174.98719 
L 589.867851 -176.03101 
L 588.892658 -177.074831 
L 587.851903 -178.118651 
L 586.749055 -179.162471 
L 585.588546 -180.206292 
L 584.375647 -181.250112 
L 583.116312 -182.293932 
L 581.816963 -183.337752 
L 580.48425 -184.381573 
L 579.124783 -185.425393 
L 577.744846 -186.469213 
L 576.350109 -187.513034 
L 574.945365 -188.556854 
L 573.534288 -189.600674 
L 572.119242 -190.644494 
L 570.701154 -191.688315 
L 569.279458 -192.732135 
L 567.852124 -193.775955 
L 566.415773 -194.819776 
L 564.965879 -195.863596 
L 563.497054 -196.907416 
L 562.003404 -197.951237 
L 560.478941 -198.995057 
L 558.918031 -200.038877 
L 557.315853 -201.082697 
L 555.668853 -202.126518 
L 553.975154 -203.170338 
L 552.23491 -204.214158 
L 550.450573 -205.257979 
L 548.627057 -206.301799 
L 546.771794 -207.345619 
L 544.894663 -208.389439 
L 543.007799 -209.43326 
L 541.125287 -210.47708 
L 539.26276 -211.5209 
L 537.436907 -212.564721 
L 535.664939 -213.608541 
L 533.96401 -214.652361 
L 532.350658 -215.696182 
L 530.840263 -216.740002 
L 529.446578 -217.783822 
L 528.181337 -218.827642 
L 527.05398 -219.871463 
L 526.071483 -220.915283 
L 525.238329 -221.959103 
L 524.556597 -223.002924 
L 524.026168 -224.046744 
L 523.645038 -225.090564 
L 523.409707 -226.134384 
L 523.315625 -227.178205 
L 523.357664 -228.222025 
L 523.530586 -229.265845 
L 523.829481 -230.309666 
L 524.250135 -231.353486 
L 524.789325 -232.397306 
L 525.445003 -233.441127 
L 526.216378 -234.484947 
L 527.103871 -235.528767 
L 528.108965 -236.572587 
L 529.233947 -237.616408 
L 530.481565 -238.660228 
L 531.854624 -239.704048 
L 533.355539 -240.747869 
L 534.985877 -241.791689 
L 536.745922 -242.835509 
L 538.634271 -243.87933 
L 540.647513 -244.92315 
L 542.779987 -245.96697 
L 545.023639 -247.01079 
L 547.368 -248.054611 
L 549.800266 -249.098431 
L 552.305492 -250.142251 
L 554.866883 -251.186072 
L 557.466166 -252.229892 
L 560.084034 -253.273712 
L 562.70062 -254.317532 
L 565.296004 -255.361353 
L 567.85071 -256.405173 
L 570.34618 -257.448993 
L 572.765204 -258.492814 
L 575.092292 -259.536634 
L 577.313972 -260.580454 
L 579.419009 -261.624275 
L 581.398543 -262.668095 
L 583.246143 -263.711915 
L 584.957779 -264.755735 
L 586.53173 -265.799556 
L 587.968427 -266.843376 
L 589.270248 -267.887196 
L 590.441275 -268.931017 
L 591.487027 -269.974837 
L 592.414188 -271.018657 
L 593.230319 -272.062477 
L 602.200931 -272.062477 
L 602.200931 -272.062477 
L 603.017062 -271.018657 
L 603.944223 -269.974837 
L 604.989975 -268.931017 
L 606.161002 -267.887196 
L 607.462823 -266.843376 
L 608.89952 -265.799556 
L 610.473471 -264.755735 
L 612.185107 -263.711915 
L 614.032707 -262.668095 
L 616.012241 -261.624275 
L 618.117278 -260.580454 
L 620.338958 -259.536634 
L 622.666046 -258.492814 
L 625.08507 -257.448993 
L 627.58054 -256.405173 
L 630.135246 -255.361353 
L 632.73063 -254.317532 
L 635.347216 -253.273712 
L 637.965084 -252.229892 
L 640.564367 -251.186072 
L 643.125758 -250.142251 
L 645.630984 -249.098431 
L 648.06325 -248.054611 
L 650.407611 -247.01079 
L 652.651263 -245.96697 
L 654.783737 -244.92315 
L 656.796979 -243.87933 
L 658.685328 -242.835509 
L 660.445373 -241.791689 
L 662.075711 -240.747869 
L 663.576626 -239.704048 
L 664.949685 -238.660228 
L 666.197303 -237.616408 
L 667.322285 -236.572587 
L 668.327379 -235.528767 
L 669.214872 -234.484947 
L 669.986247 -233.441127 
L 670.641925 -232.397306 
L 671.181115 -231.353486 
L 671.601769 -230.309666 
L 671.900664 -229.265845 
L 672.073586 -228.222025 
L 672.115625 -227.178205 
L 672.021543 -226.134384 
L 671.786212 -225.090564 
L 671.405082 -224.046744 
L 670.874653 -223.002924 
L 670.192921 -221.959103 
L 669.359767 -220.915283 
L 668.37727 -219.871463 
L 667.249913 -218.827642 
L 665.984672 -217.783822 
L 664.590987 -216.740002 
L 663.080592 -215.696182 
L 661.46724 -214.652361 
L 659.766311 -213.608541 
L 657.994343 -212.564721 
L 656.16849 -211.5209 
L 654.305963 -210.47708 
L 652.423451 -209.43326 
L 650.536587 -208.389439 
L 648.659456 -207.345619 
L 646.804193 -206.301799 
L 644.980677 -205.257979 
L 643.19634 -204.214158 
L 641.456096 -203.170338 
L 639.762397 -202.126518 
L 638.115397 -201.082697 
L 636.513219 -200.038877 
L 634.952309 -198.995057 
L 633.427846 -197.951237 
L 631.934196 -196.907416 
L 630.465371 -195.863596 
L 629.015477 -194.819776 
L 627.579126 -193.775955 
L 626.151792 -192.732135 
L 624.730096 -191.688315 
L 623.312008 -190.644494 
L 621.896962 -189.600674 
L 620.485885 -188.556854 
L 619.081141 -187.513034 
L 617.686404 -186.469213 
L 616.306467 -185.425393 
L 614.947 -184.381573 
L 613.614287 -183.337752 
L 612.314938 -182.293932 
L 611.055603 -181.250112 
L 609.842704 -180.206292 
L 608.682195 -179.162471 
L 607.579347 -178.118651 
L 606.538592 -177.074831 
L 605.563399 -176.03101 
L 604.656205 -174.98719 
L 603.818391 -173.94337 
L 603.0503 -172.899549 
L 602.351286 -171.855729 
L 601.719805 -170.811909 
L 601.153518 -169.768089 
L 600.649418 -168.724268 
z
" id="mc76fb43290" style="stroke:#262626;stroke-width:1.5;"/>
    </defs>
    <g clip-path="url(#pac01c5e230)">
     <use style="fill:#107010;stroke:#262626;stroke-width:1.5;" x="0" xlink:href="#mc76fb43290" y="852.24475"/>
    </g>
   </g>
   <g id="line2d_12">
    <path clip-path="url(#pac01c5e230)" d="M 225.715625 683.716906 
L 225.715625 507.974456 
" style="fill:none;stroke:#262626;stroke-linecap:round;stroke-width:1.5;"/>
   </g>
   <g id="line2d_13">
    <path clip-path="url(#pac01c5e230)" d="M 225.715625 643.769155 
L 225.715625 589.405923 
" style="fill:none;stroke:#262626;stroke-linecap:round;stroke-width:4.5;"/>
   </g>
   <g id="line2d_14">
    <path clip-path="url(#pac01c5e230)" d="M 411.715625 684.3635 
L 411.715625 456.810796 
" style="fill:none;stroke:#262626;stroke-linecap:round;stroke-width:1.5;"/>
   </g>
   <g id="line2d_15">
    <path clip-path="url(#pac01c5e230)" d="M 411.715625 622.04229 
L 411.715625 555.945294 
" style="fill:none;stroke:#262626;stroke-linecap:round;stroke-width:4.5;"/>
   </g>
   <g id="line2d_16">
    <path clip-path="url(#pac01c5e230)" d="M 597.715625 657.381125 
L 597.715625 606.32163 
" style="fill:none;stroke:#262626;stroke-linecap:round;stroke-width:1.5;"/>
   </g>
   <g id="line2d_17">
    <path clip-path="url(#pac01c5e230)" d="M 597.715625 635.154471 
L 597.715625 613.673668 
" style="fill:none;stroke:#262626;stroke-linecap:round;stroke-width:4.5;"/>
   </g>
   <g id="line2d_18">
    <path d="M 225.715625 163.7315 
L 225.715625 152.6435 
L 411.715625 152.6435 
L 411.715625 163.7315 
" style="fill:none;stroke:#333333;stroke-linecap:round;stroke-width:1.5;"/>
   </g>
   <g id="line2d_19">
    <path d="M 411.715625 103.1235 
L 411.715625 92.0355 
L 597.715625 92.0355 
L 597.715625 103.1235 
" style="fill:none;stroke:#333333;stroke-linecap:round;stroke-width:1.5;"/>
   </g>
   <g id="line2d_20">
    <path d="M 225.715625 42.5155 
L 225.715625 31.4275 
L 597.715625 31.4275 
L 597.715625 42.5155 
" style="fill:none;stroke:#333333;stroke-linecap:round;stroke-width:1.5;"/>
   </g>
   <g id="patch_3">
    <path d="M 132.715625 734.7635 
L 132.715625 180.3635 
" style="fill:none;stroke:#262626;stroke-linecap:square;stroke-linejoin:miter;stroke-width:1.25;"/>
   </g>
   <g id="patch_4">
    <path d="M 690.715625 734.7635 
L 690.715625 180.3635 
" style="fill:none;stroke:#262626;stroke-linecap:square;stroke-linejoin:miter;stroke-width:1.25;"/>
   </g>
   <g id="patch_5">
    <path d="M 132.715625 734.7635 
L 690.715625 734.7635 
" style="fill:none;stroke:#262626;stroke-linecap:square;stroke-linejoin:miter;stroke-width:1.25;"/>
   </g>
   <g id="patch_6">
    <path d="M 132.715625 180.3635 
L 690.715625 180.3635 
" style="fill:none;stroke:#262626;stroke-linecap:square;stroke-linejoin:miter;stroke-width:1.25;"/>
   </g>
   <g id="PathCollection_1">
    <defs>
     <path d="M 0 1.5 
C 0.397805 1.5 0.77937 1.341951 1.06066 1.06066 
C 1.341951 0.77937 1.5 0.397805 1.5 0 
C 1.5 -0.397805 1.341951 -0.77937 1.06066 -1.06066 
C 0.77937 -1.341951 0.397805 -1.5 0 -1.5 
C -0.397805 -1.5 -0.77937 -1.341951 -1.06066 -1.06066 
C -1.341951 -0.77937 -1.5 -0.397805 -1.5 0 
C -1.5 0.397805 -1.341951 0.77937 -1.06066 1.06066 
C -0.77937 1.341951 -0.397805 1.5 0 1.5 
z
" id="m9b07cf1a70" style="stroke:#262626;"/>
    </defs>
    <g clip-path="url(#pac01c5e230)">
     <use style="fill:#ffffff;stroke:#262626;" x="225.715625" xlink:href="#m9b07cf1a70" y="613.765162"/>
    </g>
   </g>
   <g id="PathCollection_2">
    <g clip-path="url(#pac01c5e230)">
     <use style="fill:#ffffff;stroke:#262626;" x="411.715625" xlink:href="#m9b07cf1a70" y="593.222385"/>
    </g>
   </g>
   <g id="PathCollection_3">
    <g clip-path="url(#pac01c5e230)">
     <use style="fill:#ffffff;stroke:#262626;" x="597.715625" xlink:href="#m9b07cf1a70" y="628.18064"/>
    </g>
   </g>
   <g id="text_14">
    <!-- Ranksum p = 9.485e-277 -->
    <defs>
     <path d="M 34.28125 27.484375 
Q 23.390625 27.484375 19.1875 25 
Q 14.984375 22.515625 14.984375 16.5 
Q 14.984375 11.71875 18.140625 8.90625 
Q 21.296875 6.109375 26.703125 6.109375 
Q 34.1875 6.109375 38.703125 11.40625 
Q 43.21875 16.703125 43.21875 25.484375 
L 43.21875 27.484375 
z
M 52.203125 31.203125 
L 52.203125 0 
L 43.21875 0 
L 43.21875 8.296875 
Q 40.140625 3.328125 35.546875 0.953125 
Q 30.953125 -1.421875 24.3125 -1.421875 
Q 15.921875 -1.421875 10.953125 3.296875 
Q 6 8.015625 6 15.921875 
Q 6 25.140625 12.171875 29.828125 
Q 18.359375 34.515625 30.609375 34.515625 
L 43.21875 34.515625 
L 43.21875 35.40625 
Q 43.21875 41.609375 39.140625 45 
Q 35.0625 48.390625 27.6875 48.390625 
Q 23 48.390625 18.546875 47.265625 
Q 14.109375 46.140625 10.015625 43.890625 
L 10.015625 52.203125 
Q 14.9375 54.109375 19.578125 55.046875 
Q 24.21875 56 28.609375 56 
Q 40.484375 56 46.34375 49.84375 
Q 52.203125 43.703125 52.203125 31.203125 
z
" id="DejaVuSans-97"/>
     <path d="M 9.078125 75.984375 
L 18.109375 75.984375 
L 18.109375 31.109375 
L 44.921875 54.6875 
L 56.390625 54.6875 
L 27.390625 29.109375 
L 57.625 0 
L 45.90625 0 
L 18.109375 26.703125 
L 18.109375 0 
L 9.078125 0 
z
" id="DejaVuSans-107"/>
     <path d="M 8.5 21.578125 
L 8.5 54.6875 
L 17.484375 54.6875 
L 17.484375 21.921875 
Q 17.484375 14.15625 20.5 10.265625 
Q 23.53125 6.390625 29.59375 6.390625 
Q 36.859375 6.390625 41.078125 11.03125 
Q 45.3125 15.671875 45.3125 23.6875 
L 45.3125 54.6875 
L 54.296875 54.6875 
L 54.296875 0 
L 45.3125 0 
L 45.3125 8.40625 
Q 42.046875 3.421875 37.71875 1 
Q 33.40625 -1.421875 27.6875 -1.421875 
Q 18.265625 -1.421875 13.375 4.4375 
Q 8.5 10.296875 8.5 21.578125 
z
M 31.109375 56 
z
" id="DejaVuSans-117"/>
     <path d="M 52 44.1875 
Q 55.375 50.25 60.0625 53.125 
Q 64.75 56 71.09375 56 
Q 79.640625 56 84.28125 50.015625 
Q 88.921875 44.046875 88.921875 33.015625 
L 88.921875 0 
L 79.890625 0 
L 79.890625 32.71875 
Q 79.890625 40.578125 77.09375 44.375 
Q 74.3125 48.1875 68.609375 48.1875 
Q 61.625 48.1875 57.5625 43.546875 
Q 53.515625 38.921875 53.515625 30.90625 
L 53.515625 0 
L 44.484375 0 
L 44.484375 32.71875 
Q 44.484375 40.625 41.703125 44.40625 
Q 38.921875 48.1875 33.109375 48.1875 
Q 26.21875 48.1875 22.15625 43.53125 
Q 18.109375 38.875 18.109375 30.90625 
L 18.109375 0 
L 9.078125 0 
L 9.078125 54.6875 
L 18.109375 54.6875 
L 18.109375 46.1875 
Q 21.1875 51.21875 25.484375 53.609375 
Q 29.78125 56 35.6875 56 
Q 41.65625 56 45.828125 52.96875 
Q 50 49.953125 52 44.1875 
z
" id="DejaVuSans-109"/>
     <path id="DejaVuSans-32"/>
     <path d="M 10.59375 45.40625 
L 73.1875 45.40625 
L 73.1875 37.203125 
L 10.59375 37.203125 
z
M 10.59375 25.484375 
L 73.1875 25.484375 
L 73.1875 17.1875 
L 10.59375 17.1875 
z
" id="DejaVuSans-61"/>
     <path d="M 10.984375 1.515625 
L 10.984375 10.5 
Q 14.703125 8.734375 18.5 7.8125 
Q 22.3125 6.890625 25.984375 6.890625 
Q 35.75 6.890625 40.890625 13.453125 
Q 46.046875 20.015625 46.78125 33.40625 
Q 43.953125 29.203125 39.59375 26.953125 
Q 35.25 24.703125 29.984375 24.703125 
Q 19.046875 24.703125 12.671875 31.3125 
Q 6.296875 37.9375 6.296875 49.421875 
Q 6.296875 60.640625 12.9375 67.421875 
Q 19.578125 74.21875 30.609375 74.21875 
Q 43.265625 74.21875 49.921875 64.515625 
Q 56.59375 54.828125 56.59375 36.375 
Q 56.59375 19.140625 48.40625 8.859375 
Q 40.234375 -1.421875 26.421875 -1.421875 
Q 22.703125 -1.421875 18.890625 -0.6875 
Q 15.09375 0.046875 10.984375 1.515625 
z
M 30.609375 32.421875 
Q 37.25 32.421875 41.125 36.953125 
Q 45.015625 41.5 45.015625 49.421875 
Q 45.015625 57.28125 41.125 61.84375 
Q 37.25 66.40625 30.609375 66.40625 
Q 23.96875 66.40625 20.09375 61.84375 
Q 16.21875 57.28125 16.21875 49.421875 
Q 16.21875 41.5 20.09375 36.953125 
Q 23.96875 32.421875 30.609375 32.421875 
z
" id="DejaVuSans-57"/>
     <path d="M 10.6875 12.40625 
L 21 12.40625 
L 21 0 
L 10.6875 0 
z
" id="DejaVuSans-46"/>
     <path d="M 10.796875 72.90625 
L 49.515625 72.90625 
L 49.515625 64.59375 
L 19.828125 64.59375 
L 19.828125 46.734375 
Q 21.96875 47.46875 24.109375 47.828125 
Q 26.265625 48.1875 28.421875 48.1875 
Q 40.625 48.1875 47.75 41.5 
Q 54.890625 34.8125 54.890625 23.390625 
Q 54.890625 11.625 47.5625 5.09375 
Q 40.234375 -1.421875 26.90625 -1.421875 
Q 22.3125 -1.421875 17.546875 -0.640625 
Q 12.796875 0.140625 7.71875 1.703125 
L 7.71875 11.625 
Q 12.109375 9.234375 16.796875 8.0625 
Q 21.484375 6.890625 26.703125 6.890625 
Q 35.15625 6.890625 40.078125 11.328125 
Q 45.015625 15.765625 45.015625 23.390625 
Q 45.015625 31 40.078125 35.4375 
Q 35.15625 39.890625 26.703125 39.890625 
Q 22.75 39.890625 18.8125 39.015625 
Q 14.890625 38.140625 10.796875 36.28125 
z
" id="DejaVuSans-53"/>
     <path d="M 8.203125 72.90625 
L 55.078125 72.90625 
L 55.078125 68.703125 
L 28.609375 0 
L 18.3125 0 
L 43.21875 64.59375 
L 8.203125 64.59375 
z
" id="DejaVuSans-55"/>
    </defs>
    <g style="fill:#262626;" transform="translate(165.108125 146.65225)scale(0.24 -0.24)">
     <use xlink:href="#DejaVuSans-82"/>
     <use x="67.232422" xlink:href="#DejaVuSans-97"/>
     <use x="128.511719" xlink:href="#DejaVuSans-110"/>
     <use x="191.890625" xlink:href="#DejaVuSans-107"/>
     <use x="249.800781" xlink:href="#DejaVuSans-115"/>
     <use x="301.900391" xlink:href="#DejaVuSans-117"/>
     <use x="365.279297" xlink:href="#DejaVuSans-109"/>
     <use x="462.691406" xlink:href="#DejaVuSans-32"/>
     <use x="494.478516" xlink:href="#DejaVuSans-112"/>
     <use x="557.955078" xlink:href="#DejaVuSans-32"/>
     <use x="589.742188" xlink:href="#DejaVuSans-61"/>
     <use x="673.53125" xlink:href="#DejaVuSans-32"/>
     <use x="705.318359" xlink:href="#DejaVuSans-57"/>
     <use x="768.941406" xlink:href="#DejaVuSans-46"/>
     <use x="800.728516" xlink:href="#DejaVuSans-52"/>
     <use x="864.351562" xlink:href="#DejaVuSans-56"/>
     <use x="927.974609" xlink:href="#DejaVuSans-53"/>
     <use x="991.597656" xlink:href="#DejaVuSans-101"/>
     <use x="1053.121094" xlink:href="#DejaVuSans-45"/>
     <use x="1089.205078" xlink:href="#DejaVuSans-50"/>
     <use x="1152.828125" xlink:href="#DejaVuSans-55"/>
     <use x="1216.451172" xlink:href="#DejaVuSans-55"/>
    </g>
   </g>
   <g id="text_15">
    <!-- Ranksum p = 1.648e-02 -->
    <g style="fill:#262626;" transform="translate(358.743125 86.04425)scale(0.24 -0.24)">
     <use xlink:href="#DejaVuSans-82"/>
     <use x="67.232422" xlink:href="#DejaVuSans-97"/>
     <use x="128.511719" xlink:href="#DejaVuSans-110"/>
     <use x="191.890625" xlink:href="#DejaVuSans-107"/>
     <use x="249.800781" xlink:href="#DejaVuSans-115"/>
     <use x="301.900391" xlink:href="#DejaVuSans-117"/>
     <use x="365.279297" xlink:href="#DejaVuSans-109"/>
     <use x="462.691406" xlink:href="#DejaVuSans-32"/>
     <use x="494.478516" xlink:href="#DejaVuSans-112"/>
     <use x="557.955078" xlink:href="#DejaVuSans-32"/>
     <use x="589.742188" xlink:href="#DejaVuSans-61"/>
     <use x="673.53125" xlink:href="#DejaVuSans-32"/>
     <use x="705.318359" xlink:href="#DejaVuSans-49"/>
     <use x="768.941406" xlink:href="#DejaVuSans-46"/>
     <use x="800.728516" xlink:href="#DejaVuSans-54"/>
     <use x="864.351562" xlink:href="#DejaVuSans-52"/>
     <use x="927.974609" xlink:href="#DejaVuSans-56"/>
     <use x="991.597656" xlink:href="#DejaVuSans-101"/>
     <use x="1053.121094" xlink:href="#DejaVuSans-45"/>
     <use x="1089.205078" xlink:href="#DejaVuSans-48"/>
     <use x="1152.828125" xlink:href="#DejaVuSans-50"/>
    </g>
   </g>
   <g id="text_16">
    <!-- Ranksum p = 3.803e-01 -->
    <defs>
     <path d="M 40.578125 39.3125 
Q 47.65625 37.796875 51.625 33 
Q 55.609375 28.21875 55.609375 21.1875 
Q 55.609375 10.40625 48.1875 4.484375 
Q 40.765625 -1.421875 27.09375 -1.421875 
Q 22.515625 -1.421875 17.65625 -0.515625 
Q 12.796875 0.390625 7.625 2.203125 
L 7.625 11.71875 
Q 11.71875 9.328125 16.59375 8.109375 
Q 21.484375 6.890625 26.8125 6.890625 
Q 36.078125 6.890625 40.9375 10.546875 
Q 45.796875 14.203125 45.796875 21.1875 
Q 45.796875 27.640625 41.28125 31.265625 
Q 36.765625 34.90625 28.71875 34.90625 
L 20.21875 34.90625 
L 20.21875 43.015625 
L 29.109375 43.015625 
Q 36.375 43.015625 40.234375 45.921875 
Q 44.09375 48.828125 44.09375 54.296875 
Q 44.09375 59.90625 40.109375 62.90625 
Q 36.140625 65.921875 28.71875 65.921875 
Q 24.65625 65.921875 20.015625 65.03125 
Q 15.375 64.15625 9.8125 62.3125 
L 9.8125 71.09375 
Q 15.4375 72.65625 20.34375 73.4375 
Q 25.25 74.21875 29.59375 74.21875 
Q 40.828125 74.21875 47.359375 69.109375 
Q 53.90625 64.015625 53.90625 55.328125 
Q 53.90625 49.265625 50.4375 45.09375 
Q 46.96875 40.921875 40.578125 39.3125 
z
" id="DejaVuSans-51"/>
    </defs>
    <g style="fill:#262626;" transform="translate(265.743125 25.43625)scale(0.24 -0.24)">
     <use xlink:href="#DejaVuSans-82"/>
     <use x="67.232422" xlink:href="#DejaVuSans-97"/>
     <use x="128.511719" xlink:href="#DejaVuSans-110"/>
     <use x="191.890625" xlink:href="#DejaVuSans-107"/>
     <use x="249.800781" xlink:href="#DejaVuSans-115"/>
     <use x="301.900391" xlink:href="#DejaVuSans-117"/>
     <use x="365.279297" xlink:href="#DejaVuSans-109"/>
     <use x="462.691406" xlink:href="#DejaVuSans-32"/>
     <use x="494.478516" xlink:href="#DejaVuSans-112"/>
     <use x="557.955078" xlink:href="#DejaVuSans-32"/>
     <use x="589.742188" xlink:href="#DejaVuSans-61"/>
     <use x="673.53125" xlink:href="#DejaVuSans-32"/>
     <use x="705.318359" xlink:href="#DejaVuSans-51"/>
     <use x="768.941406" xlink:href="#DejaVuSans-46"/>
     <use x="800.728516" xlink:href="#DejaVuSans-56"/>
     <use x="864.351562" xlink:href="#DejaVuSans-48"/>
     <use x="927.974609" xlink:href="#DejaVuSans-51"/>
     <use x="991.597656" xlink:href="#DejaVuSans-101"/>
     <use x="1053.121094" xlink:href="#DejaVuSans-45"/>
     <use x="1089.205078" xlink:href="#DejaVuSans-48"/>
     <use x="1152.828125" xlink:href="#DejaVuSans-49"/>
    </g>
   </g>
  </g>
 </g>
 <defs>
  <clipPath id="pac01c5e230">
   <rect height="554.4" width="558" x="132.715625" y="180.3635"/>
  </clipPath>
 </defs>
</svg>
