<?xml version="1.0" encoding="utf-8" standalone="no"?>
<!DOCTYPE svg PUBLIC "-//W3C//DTD SVG 1.1//EN"
  "http://www.w3.org/Graphics/SVG/1.1/DTD/svg11.dtd">
<!-- Created with matplotlib (https://matplotlib.org/) -->
<svg height="852.24475pt" version="1.1" viewBox="0 0 697.915625 852.24475" width="697.915625pt" xmlns="http://www.w3.org/2000/svg" xmlns:xlink="http://www.w3.org/1999/xlink">
 <defs>
  <style type="text/css">
*{stroke-linecap:butt;stroke-linejoin:round;}
  </style>
 </defs>
 <g id="figure_1">
  <g id="patch_1">
   <path d="M 0 852.24475 
L 697.915625 852.24475 
L 697.915625 0 
L 0 0 
z
" style="fill:#ffffff;"/>
  </g>
  <g id="axes_1">
   <g id="patch_2">
    <path d="M 132.715625 734.7635 
L 690.715625 734.7635 
L 690.715625 180.3635 
L 132.715625 180.3635 
z
" style="fill:#ffffff;"/>
   </g>
   <g id="matplotlib.axis_1">
    <g id="xtick_1">
     <g id="line2d_1">
      <defs>
       <path d="M 0 0 
L 0 6 
" id="m76b82687c0" style="stroke:#262626;stroke-width:1.25;"/>
      </defs>
      <g>
       <use style="fill:#262626;stroke:#262626;stroke-width:1.25;" x="225.715625" xlink:href="#m76b82687c0" y="734.7635"/>
      </g>
     </g>
     <g id="text_1">
      <!-- Gs -->
      <defs>
       <path d="M 59.515625 10.40625 
L 59.515625 29.984375 
L 43.40625 29.984375 
L 43.40625 38.09375 
L 69.28125 38.09375 
L 69.28125 6.78125 
Q 63.578125 2.734375 56.6875 0.65625 
Q 49.8125 -1.421875 42 -1.421875 
Q 24.90625 -1.421875 15.25 8.5625 
Q 5.609375 18.5625 5.609375 36.375 
Q 5.609375 54.25 15.25 64.234375 
Q 24.90625 74.21875 42 74.21875 
Q 49.125 74.21875 55.546875 72.453125 
Q 61.96875 70.703125 67.390625 67.28125 
L 67.390625 56.78125 
Q 61.921875 61.421875 55.765625 63.765625 
Q 49.609375 66.109375 42.828125 66.109375 
Q 29.4375 66.109375 22.71875 58.640625 
Q 16.015625 51.171875 16.015625 36.375 
Q 16.015625 21.625 22.71875 14.15625 
Q 29.4375 6.6875 42.828125 6.6875 
Q 48.046875 6.6875 52.140625 7.59375 
Q 56.25 8.5 59.515625 10.40625 
z
" id="DejaVuSans-71"/>
       <path d="M 44.28125 53.078125 
L 44.28125 44.578125 
Q 40.484375 46.53125 36.375 47.5 
Q 32.28125 48.484375 27.875 48.484375 
Q 21.1875 48.484375 17.84375 46.4375 
Q 14.5 44.390625 14.5 40.28125 
Q 14.5 37.15625 16.890625 35.375 
Q 19.28125 33.59375 26.515625 31.984375 
L 29.59375 31.296875 
Q 39.15625 29.25 43.1875 25.515625 
Q 47.21875 21.78125 47.21875 15.09375 
Q 47.21875 7.46875 41.1875 3.015625 
Q 35.15625 -1.421875 24.609375 -1.421875 
Q 20.21875 -1.421875 15.453125 -0.5625 
Q 10.6875 0.296875 5.421875 2 
L 5.421875 11.28125 
Q 10.40625 8.6875 15.234375 7.390625 
Q 20.0625 6.109375 24.8125 6.109375 
Q 31.15625 6.109375 34.5625 8.28125 
Q 37.984375 10.453125 37.984375 14.40625 
Q 37.984375 18.0625 35.515625 20.015625 
Q 33.0625 21.96875 24.703125 23.78125 
L 21.578125 24.515625 
Q 13.234375 26.265625 9.515625 29.90625 
Q 5.8125 33.546875 5.8125 39.890625 
Q 5.8125 47.609375 11.28125 51.796875 
Q 16.75 56 26.8125 56 
Q 31.78125 56 36.171875 55.265625 
Q 40.578125 54.546875 44.28125 53.078125 
z
" id="DejaVuSans-115"/>
      </defs>
      <g style="fill:#262626;" transform="translate(193.321094 782.255688)scale(0.5 -0.5)">
       <use xlink:href="#DejaVuSans-71"/>
       <use x="77.490234" xlink:href="#DejaVuSans-115"/>
      </g>
     </g>
    </g>
    <g id="xtick_2">
     <g id="line2d_2">
      <g>
       <use style="fill:#262626;stroke:#262626;stroke-width:1.25;" x="411.715625" xlink:href="#m76b82687c0" y="734.7635"/>
      </g>
     </g>
     <g id="text_2">
      <!-- Gio -->
      <defs>
       <path d="M 9.421875 54.6875 
L 18.40625 54.6875 
L 18.40625 0 
L 9.421875 0 
z
M 9.421875 75.984375 
L 18.40625 75.984375 
L 18.40625 64.59375 
L 9.421875 64.59375 
z
" id="DejaVuSans-105"/>
       <path d="M 30.609375 48.390625 
Q 23.390625 48.390625 19.1875 42.75 
Q 14.984375 37.109375 14.984375 27.296875 
Q 14.984375 17.484375 19.15625 11.84375 
Q 23.34375 6.203125 30.609375 6.203125 
Q 37.796875 6.203125 41.984375 11.859375 
Q 46.1875 17.53125 46.1875 27.296875 
Q 46.1875 37.015625 41.984375 42.703125 
Q 37.796875 48.390625 30.609375 48.390625 
z
M 30.609375 56 
Q 42.328125 56 49.015625 48.375 
Q 55.71875 40.765625 55.71875 27.296875 
Q 55.71875 13.875 49.015625 6.21875 
Q 42.328125 -1.421875 30.609375 -1.421875 
Q 18.84375 -1.421875 12.171875 6.21875 
Q 5.515625 13.875 5.515625 27.296875 
Q 5.515625 40.765625 12.171875 48.375 
Q 18.84375 56 30.609375 56 
z
" id="DejaVuSans-111"/>
      </defs>
      <g style="fill:#262626;" transform="translate(370.102344 782.255688)scale(0.5 -0.5)">
       <use xlink:href="#DejaVuSans-71"/>
       <use x="77.490234" xlink:href="#DejaVuSans-105"/>
       <use x="105.273438" xlink:href="#DejaVuSans-111"/>
      </g>
     </g>
    </g>
    <g id="xtick_3">
     <g id="line2d_3">
      <g>
       <use style="fill:#262626;stroke:#262626;stroke-width:1.25;" x="597.715625" xlink:href="#m76b82687c0" y="734.7635"/>
      </g>
     </g>
     <g id="text_3">
      <!-- Gq11 -->
      <defs>
       <path d="M 14.796875 27.296875 
Q 14.796875 17.390625 18.875 11.75 
Q 22.953125 6.109375 30.078125 6.109375 
Q 37.203125 6.109375 41.296875 11.75 
Q 45.40625 17.390625 45.40625 27.296875 
Q 45.40625 37.203125 41.296875 42.84375 
Q 37.203125 48.484375 30.078125 48.484375 
Q 22.953125 48.484375 18.875 42.84375 
Q 14.796875 37.203125 14.796875 27.296875 
z
M 45.40625 8.203125 
Q 42.578125 3.328125 38.25 0.953125 
Q 33.9375 -1.421875 27.875 -1.421875 
Q 17.96875 -1.421875 11.734375 6.484375 
Q 5.515625 14.40625 5.515625 27.296875 
Q 5.515625 40.1875 11.734375 48.09375 
Q 17.96875 56 27.875 56 
Q 33.9375 56 38.25 53.625 
Q 42.578125 51.265625 45.40625 46.390625 
L 45.40625 54.6875 
L 54.390625 54.6875 
L 54.390625 -20.796875 
L 45.40625 -20.796875 
z
" id="DejaVuSans-113"/>
       <path d="M 12.40625 8.296875 
L 28.515625 8.296875 
L 28.515625 63.921875 
L 10.984375 60.40625 
L 10.984375 69.390625 
L 28.421875 72.90625 
L 38.28125 72.90625 
L 38.28125 8.296875 
L 54.390625 8.296875 
L 54.390625 0 
L 12.40625 0 
z
" id="DejaVuSans-49"/>
      </defs>
      <g style="fill:#262626;" transform="translate(530.660938 782.255688)scale(0.5 -0.5)">
       <use xlink:href="#DejaVuSans-71"/>
       <use x="77.490234" xlink:href="#DejaVuSans-113"/>
       <use x="140.966797" xlink:href="#DejaVuSans-49"/>
       <use x="204.589844" xlink:href="#DejaVuSans-49"/>
      </g>
     </g>
    </g>
    <g id="text_4">
     <!-- G-protein -->
     <defs>
      <path d="M 4.890625 31.390625 
L 31.203125 31.390625 
L 31.203125 23.390625 
L 4.890625 23.390625 
z
" id="DejaVuSans-45"/>
      <path d="M 18.109375 8.203125 
L 18.109375 -20.796875 
L 9.078125 -20.796875 
L 9.078125 54.6875 
L 18.109375 54.6875 
L 18.109375 46.390625 
Q 20.953125 51.265625 25.265625 53.625 
Q 29.59375 56 35.59375 56 
Q 45.5625 56 51.78125 48.09375 
Q 58.015625 40.1875 58.015625 27.296875 
Q 58.015625 14.40625 51.78125 6.484375 
Q 45.5625 -1.421875 35.59375 -1.421875 
Q 29.59375 -1.421875 25.265625 0.953125 
Q 20.953125 3.328125 18.109375 8.203125 
z
M 48.6875 27.296875 
Q 48.6875 37.203125 44.609375 42.84375 
Q 40.53125 48.484375 33.40625 48.484375 
Q 26.265625 48.484375 22.1875 42.84375 
Q 18.109375 37.203125 18.109375 27.296875 
Q 18.109375 17.390625 22.1875 11.75 
Q 26.265625 6.109375 33.40625 6.109375 
Q 40.53125 6.109375 44.609375 11.75 
Q 48.6875 17.390625 48.6875 27.296875 
z
" id="DejaVuSans-112"/>
      <path d="M 41.109375 46.296875 
Q 39.59375 47.171875 37.8125 47.578125 
Q 36.03125 48 33.890625 48 
Q 26.265625 48 22.1875 43.046875 
Q 18.109375 38.09375 18.109375 28.8125 
L 18.109375 0 
L 9.078125 0 
L 9.078125 54.6875 
L 18.109375 54.6875 
L 18.109375 46.1875 
Q 20.953125 51.171875 25.484375 53.578125 
Q 30.03125 56 36.53125 56 
Q 37.453125 56 38.578125 55.875 
Q 39.703125 55.765625 41.0625 55.515625 
z
" id="DejaVuSans-114"/>
      <path d="M 18.3125 70.21875 
L 18.3125 54.6875 
L 36.8125 54.6875 
L 36.8125 47.703125 
L 18.3125 47.703125 
L 18.3125 18.015625 
Q 18.3125 11.328125 20.140625 9.421875 
Q 21.96875 7.515625 27.59375 7.515625 
L 36.8125 7.515625 
L 36.8125 0 
L 27.59375 0 
Q 17.1875 0 13.234375 3.875 
Q 9.28125 7.765625 9.28125 18.015625 
L 9.28125 47.703125 
L 2.6875 47.703125 
L 2.6875 54.6875 
L 9.28125 54.6875 
L 9.28125 70.21875 
z
" id="DejaVuSans-116"/>
      <path d="M 56.203125 29.59375 
L 56.203125 25.203125 
L 14.890625 25.203125 
Q 15.484375 15.921875 20.484375 11.0625 
Q 25.484375 6.203125 34.421875 6.203125 
Q 39.59375 6.203125 44.453125 7.46875 
Q 49.3125 8.734375 54.109375 11.28125 
L 54.109375 2.78125 
Q 49.265625 0.734375 44.1875 -0.34375 
Q 39.109375 -1.421875 33.890625 -1.421875 
Q 20.796875 -1.421875 13.15625 6.1875 
Q 5.515625 13.8125 5.515625 26.8125 
Q 5.515625 40.234375 12.765625 48.109375 
Q 20.015625 56 32.328125 56 
Q 43.359375 56 49.78125 48.890625 
Q 56.203125 41.796875 56.203125 29.59375 
z
M 47.21875 32.234375 
Q 47.125 39.59375 43.09375 43.984375 
Q 39.0625 48.390625 32.421875 48.390625 
Q 24.90625 48.390625 20.390625 44.140625 
Q 15.875 39.890625 15.1875 32.171875 
z
" id="DejaVuSans-101"/>
      <path d="M 54.890625 33.015625 
L 54.890625 0 
L 45.90625 0 
L 45.90625 32.71875 
Q 45.90625 40.484375 42.875 44.328125 
Q 39.84375 48.1875 33.796875 48.1875 
Q 26.515625 48.1875 22.3125 43.546875 
Q 18.109375 38.921875 18.109375 30.90625 
L 18.109375 0 
L 9.078125 0 
L 9.078125 54.6875 
L 18.109375 54.6875 
L 18.109375 46.1875 
Q 21.34375 51.125 25.703125 53.5625 
Q 30.078125 56 35.796875 56 
Q 45.21875 56 50.046875 50.171875 
Q 54.890625 44.34375 54.890625 33.015625 
z
" id="DejaVuSans-110"/>
     </defs>
     <g style="fill:#262626;" transform="translate(294.469531 834.646313)scale(0.5 -0.5)">
      <use xlink:href="#DejaVuSans-71"/>
      <use x="77.490234" xlink:href="#DejaVuSans-45"/>
      <use x="113.574219" xlink:href="#DejaVuSans-112"/>
      <use x="177.050781" xlink:href="#DejaVuSans-114"/>
      <use x="215.914062" xlink:href="#DejaVuSans-111"/>
      <use x="277.095703" xlink:href="#DejaVuSans-116"/>
      <use x="316.304688" xlink:href="#DejaVuSans-101"/>
      <use x="377.828125" xlink:href="#DejaVuSans-105"/>
      <use x="405.611328" xlink:href="#DejaVuSans-110"/>
     </g>
    </g>
   </g>
   <g id="matplotlib.axis_2">
    <g id="ytick_1">
     <g id="line2d_4">
      <defs>
       <path d="M 0 0 
L -6 0 
" id="me95fa9d448" style="stroke:#262626;stroke-width:1.25;"/>
      </defs>
      <g>
       <use style="fill:#262626;stroke:#262626;stroke-width:1.25;" x="132.715625" xlink:href="#me95fa9d448" y="684.3635"/>
      </g>
     </g>
     <g id="text_5">
      <!-- 0 -->
      <defs>
       <path d="M 31.78125 66.40625 
Q 24.171875 66.40625 20.328125 58.90625 
Q 16.5 51.421875 16.5 36.375 
Q 16.5 21.390625 20.328125 13.890625 
Q 24.171875 6.390625 31.78125 6.390625 
Q 39.453125 6.390625 43.28125 13.890625 
Q 47.125 21.390625 47.125 36.375 
Q 47.125 51.421875 43.28125 58.90625 
Q 39.453125 66.40625 31.78125 66.40625 
z
M 31.78125 74.21875 
Q 44.046875 74.21875 50.515625 64.515625 
Q 56.984375 54.828125 56.984375 36.375 
Q 56.984375 17.96875 50.515625 8.265625 
Q 44.046875 -1.421875 31.78125 -1.421875 
Q 19.53125 -1.421875 13.0625 8.265625 
Q 6.59375 17.96875 6.59375 36.375 
Q 6.59375 54.828125 13.0625 64.515625 
Q 19.53125 74.21875 31.78125 74.21875 
z
" id="DejaVuSans-48"/>
      </defs>
      <g style="fill:#262626;" transform="translate(91.403125 703.359594)scale(0.5 -0.5)">
       <use xlink:href="#DejaVuSans-48"/>
      </g>
     </g>
    </g>
    <g id="ytick_2">
     <g id="line2d_5">
      <g>
       <use style="fill:#262626;stroke:#262626;stroke-width:1.25;" x="132.715625" xlink:href="#me95fa9d448" y="617.1635"/>
      </g>
     </g>
     <g id="text_6">
      <!-- 4 -->
      <defs>
       <path d="M 37.796875 64.3125 
L 12.890625 25.390625 
L 37.796875 25.390625 
z
M 35.203125 72.90625 
L 47.609375 72.90625 
L 47.609375 25.390625 
L 58.015625 25.390625 
L 58.015625 17.1875 
L 47.609375 17.1875 
L 47.609375 0 
L 37.796875 0 
L 37.796875 17.1875 
L 4.890625 17.1875 
L 4.890625 26.703125 
z
" id="DejaVuSans-52"/>
      </defs>
      <g style="fill:#262626;" transform="translate(91.403125 636.159594)scale(0.5 -0.5)">
       <use xlink:href="#DejaVuSans-52"/>
      </g>
     </g>
    </g>
    <g id="ytick_3">
     <g id="line2d_6">
      <g>
       <use style="fill:#262626;stroke:#262626;stroke-width:1.25;" x="132.715625" xlink:href="#me95fa9d448" y="549.9635"/>
      </g>
     </g>
     <g id="text_7">
      <!-- 8 -->
      <defs>
       <path d="M 31.78125 34.625 
Q 24.75 34.625 20.71875 30.859375 
Q 16.703125 27.09375 16.703125 20.515625 
Q 16.703125 13.921875 20.71875 10.15625 
Q 24.75 6.390625 31.78125 6.390625 
Q 38.8125 6.390625 42.859375 10.171875 
Q 46.921875 13.96875 46.921875 20.515625 
Q 46.921875 27.09375 42.890625 30.859375 
Q 38.875 34.625 31.78125 34.625 
z
M 21.921875 38.8125 
Q 15.578125 40.375 12.03125 44.71875 
Q 8.5 49.078125 8.5 55.328125 
Q 8.5 64.0625 14.71875 69.140625 
Q 20.953125 74.21875 31.78125 74.21875 
Q 42.671875 74.21875 48.875 69.140625 
Q 55.078125 64.0625 55.078125 55.328125 
Q 55.078125 49.078125 51.53125 44.71875 
Q 48 40.375 41.703125 38.8125 
Q 48.828125 37.15625 52.796875 32.3125 
Q 56.78125 27.484375 56.78125 20.515625 
Q 56.78125 9.90625 50.3125 4.234375 
Q 43.84375 -1.421875 31.78125 -1.421875 
Q 19.734375 -1.421875 13.25 4.234375 
Q 6.78125 9.90625 6.78125 20.515625 
Q 6.78125 27.484375 10.78125 32.3125 
Q 14.796875 37.15625 21.921875 38.8125 
z
M 18.3125 54.390625 
Q 18.3125 48.734375 21.84375 45.5625 
Q 25.390625 42.390625 31.78125 42.390625 
Q 38.140625 42.390625 41.71875 45.5625 
Q 45.3125 48.734375 45.3125 54.390625 
Q 45.3125 60.0625 41.71875 63.234375 
Q 38.140625 66.40625 31.78125 66.40625 
Q 25.390625 66.40625 21.84375 63.234375 
Q 18.3125 60.0625 18.3125 54.390625 
z
" id="DejaVuSans-56"/>
      </defs>
      <g style="fill:#262626;" transform="translate(91.403125 568.959594)scale(0.5 -0.5)">
       <use xlink:href="#DejaVuSans-56"/>
      </g>
     </g>
    </g>
    <g id="ytick_4">
     <g id="line2d_7">
      <g>
       <use style="fill:#262626;stroke:#262626;stroke-width:1.25;" x="132.715625" xlink:href="#me95fa9d448" y="482.7635"/>
      </g>
     </g>
     <g id="text_8">
      <!-- 12 -->
      <defs>
       <path d="M 19.1875 8.296875 
L 53.609375 8.296875 
L 53.609375 0 
L 7.328125 0 
L 7.328125 8.296875 
Q 12.9375 14.109375 22.625 23.890625 
Q 32.328125 33.6875 34.8125 36.53125 
Q 39.546875 41.84375 41.421875 45.53125 
Q 43.3125 49.21875 43.3125 52.78125 
Q 43.3125 58.59375 39.234375 62.25 
Q 35.15625 65.921875 28.609375 65.921875 
Q 23.96875 65.921875 18.8125 64.3125 
Q 13.671875 62.703125 7.8125 59.421875 
L 7.8125 69.390625 
Q 13.765625 71.78125 18.9375 73 
Q 24.125 74.21875 28.421875 74.21875 
Q 39.75 74.21875 46.484375 68.546875 
Q 53.21875 62.890625 53.21875 53.421875 
Q 53.21875 48.921875 51.53125 44.890625 
Q 49.859375 40.875 45.40625 35.40625 
Q 44.1875 33.984375 37.640625 27.21875 
Q 31.109375 20.453125 19.1875 8.296875 
z
" id="DejaVuSans-50"/>
      </defs>
      <g style="fill:#262626;" transform="translate(59.590625 501.759594)scale(0.5 -0.5)">
       <use xlink:href="#DejaVuSans-49"/>
       <use x="63.623047" xlink:href="#DejaVuSans-50"/>
      </g>
     </g>
    </g>
    <g id="ytick_5">
     <g id="line2d_8">
      <g>
       <use style="fill:#262626;stroke:#262626;stroke-width:1.25;" x="132.715625" xlink:href="#me95fa9d448" y="415.5635"/>
      </g>
     </g>
     <g id="text_9">
      <!-- 16 -->
      <defs>
       <path d="M 33.015625 40.375 
Q 26.375 40.375 22.484375 35.828125 
Q 18.609375 31.296875 18.609375 23.390625 
Q 18.609375 15.53125 22.484375 10.953125 
Q 26.375 6.390625 33.015625 6.390625 
Q 39.65625 6.390625 43.53125 10.953125 
Q 47.40625 15.53125 47.40625 23.390625 
Q 47.40625 31.296875 43.53125 35.828125 
Q 39.65625 40.375 33.015625 40.375 
z
M 52.59375 71.296875 
L 52.59375 62.3125 
Q 48.875 64.0625 45.09375 64.984375 
Q 41.3125 65.921875 37.59375 65.921875 
Q 27.828125 65.921875 22.671875 59.328125 
Q 17.53125 52.734375 16.796875 39.40625 
Q 19.671875 43.65625 24.015625 45.921875 
Q 28.375 48.1875 33.59375 48.1875 
Q 44.578125 48.1875 50.953125 41.515625 
Q 57.328125 34.859375 57.328125 23.390625 
Q 57.328125 12.15625 50.6875 5.359375 
Q 44.046875 -1.421875 33.015625 -1.421875 
Q 20.359375 -1.421875 13.671875 8.265625 
Q 6.984375 17.96875 6.984375 36.375 
Q 6.984375 53.65625 15.1875 63.9375 
Q 23.390625 74.21875 37.203125 74.21875 
Q 40.921875 74.21875 44.703125 73.484375 
Q 48.484375 72.75 52.59375 71.296875 
z
" id="DejaVuSans-54"/>
      </defs>
      <g style="fill:#262626;" transform="translate(59.590625 434.559594)scale(0.5 -0.5)">
       <use xlink:href="#DejaVuSans-49"/>
       <use x="63.623047" xlink:href="#DejaVuSans-54"/>
      </g>
     </g>
    </g>
    <g id="ytick_6">
     <g id="line2d_9">
      <g>
       <use style="fill:#262626;stroke:#262626;stroke-width:1.25;" x="132.715625" xlink:href="#me95fa9d448" y="348.3635"/>
      </g>
     </g>
     <g id="text_10">
      <!-- 20 -->
      <g style="fill:#262626;" transform="translate(59.590625 367.359594)scale(0.5 -0.5)">
       <use xlink:href="#DejaVuSans-50"/>
       <use x="63.623047" xlink:href="#DejaVuSans-48"/>
      </g>
     </g>
    </g>
    <g id="ytick_7">
     <g id="line2d_10">
      <g>
       <use style="fill:#262626;stroke:#262626;stroke-width:1.25;" x="132.715625" xlink:href="#me95fa9d448" y="281.1635"/>
      </g>
     </g>
     <g id="text_11">
      <!-- 24 -->
      <g style="fill:#262626;" transform="translate(59.590625 300.159594)scale(0.5 -0.5)">
       <use xlink:href="#DejaVuSans-50"/>
       <use x="63.623047" xlink:href="#DejaVuSans-52"/>
      </g>
     </g>
    </g>
    <g id="ytick_8">
     <g id="line2d_11">
      <g>
       <use style="fill:#262626;stroke:#262626;stroke-width:1.25;" x="132.715625" xlink:href="#me95fa9d448" y="213.9635"/>
      </g>
     </g>
     <g id="text_12">
      <!-- 28 -->
      <g style="fill:#262626;" transform="translate(59.590625 232.959594)scale(0.5 -0.5)">
       <use xlink:href="#DejaVuSans-50"/>
       <use x="63.623047" xlink:href="#DejaVuSans-56"/>
      </g>
     </g>
    </g>
    <g id="text_13">
     <!-- RMSD -->
     <defs>
      <path d="M 44.390625 34.1875 
Q 47.5625 33.109375 50.5625 29.59375 
Q 53.5625 26.078125 56.59375 19.921875 
L 66.609375 0 
L 56 0 
L 46.6875 18.703125 
Q 43.0625 26.03125 39.671875 28.421875 
Q 36.28125 30.8125 30.421875 30.8125 
L 19.671875 30.8125 
L 19.671875 0 
L 9.8125 0 
L 9.8125 72.90625 
L 32.078125 72.90625 
Q 44.578125 72.90625 50.734375 67.671875 
Q 56.890625 62.453125 56.890625 51.90625 
Q 56.890625 45.015625 53.6875 40.46875 
Q 50.484375 35.9375 44.390625 34.1875 
z
M 19.671875 64.796875 
L 19.671875 38.921875 
L 32.078125 38.921875 
Q 39.203125 38.921875 42.84375 42.21875 
Q 46.484375 45.515625 46.484375 51.90625 
Q 46.484375 58.296875 42.84375 61.546875 
Q 39.203125 64.796875 32.078125 64.796875 
z
" id="DejaVuSans-82"/>
      <path d="M 9.8125 72.90625 
L 24.515625 72.90625 
L 43.109375 23.296875 
L 61.8125 72.90625 
L 76.515625 72.90625 
L 76.515625 0 
L 66.890625 0 
L 66.890625 64.015625 
L 48.09375 14.015625 
L 38.1875 14.015625 
L 19.390625 64.015625 
L 19.390625 0 
L 9.8125 0 
z
" id="DejaVuSans-77"/>
      <path d="M 53.515625 70.515625 
L 53.515625 60.890625 
Q 47.90625 63.578125 42.921875 64.890625 
Q 37.9375 66.21875 33.296875 66.21875 
Q 25.25 66.21875 20.875 63.09375 
Q 16.5 59.96875 16.5 54.203125 
Q 16.5 49.359375 19.40625 46.890625 
Q 22.3125 44.4375 30.421875 42.921875 
L 36.375 41.703125 
Q 47.40625 39.59375 52.65625 34.296875 
Q 57.90625 29 57.90625 20.125 
Q 57.90625 9.515625 50.796875 4.046875 
Q 43.703125 -1.421875 29.984375 -1.421875 
Q 24.8125 -1.421875 18.96875 -0.25 
Q 13.140625 0.921875 6.890625 3.21875 
L 6.890625 13.375 
Q 12.890625 10.015625 18.65625 8.296875 
Q 24.421875 6.59375 29.984375 6.59375 
Q 38.421875 6.59375 43.015625 9.90625 
Q 47.609375 13.234375 47.609375 19.390625 
Q 47.609375 24.75 44.3125 27.78125 
Q 41.015625 30.8125 33.5 32.328125 
L 27.484375 33.5 
Q 16.453125 35.6875 11.515625 40.375 
Q 6.59375 45.0625 6.59375 53.421875 
Q 6.59375 63.09375 13.40625 68.65625 
Q 20.21875 74.21875 32.171875 74.21875 
Q 37.3125 74.21875 42.625 73.28125 
Q 47.953125 72.359375 53.515625 70.515625 
z
" id="DejaVuSans-83"/>
      <path d="M 19.671875 64.796875 
L 19.671875 8.109375 
L 31.59375 8.109375 
Q 46.6875 8.109375 53.6875 14.9375 
Q 60.6875 21.78125 60.6875 36.53125 
Q 60.6875 51.171875 53.6875 57.984375 
Q 46.6875 64.796875 31.59375 64.796875 
z
M 9.8125 72.90625 
L 30.078125 72.90625 
Q 51.265625 72.90625 61.171875 64.09375 
Q 71.09375 55.28125 71.09375 36.53125 
Q 71.09375 17.671875 61.125 8.828125 
Q 51.171875 0 30.078125 0 
L 9.8125 0 
z
" id="DejaVuSans-68"/>
     </defs>
     <g style="fill:#262626;" transform="translate(45.192187 531.626)rotate(-90)scale(0.5 -0.5)">
      <use xlink:href="#DejaVuSans-82"/>
      <use x="69.482422" xlink:href="#DejaVuSans-77"/>
      <use x="155.761719" xlink:href="#DejaVuSans-83"/>
      <use x="219.238281" xlink:href="#DejaVuSans-68"/>
     </g>
    </g>
   </g>
   <g id="PolyCollection_1">
    <defs>
     <path d="M 225.825951 -147.716177 
L 225.605299 -147.716177 
L 225.512102 -150.313859 
L 225.356599 -152.911541 
L 225.108691 -155.509223 
L 224.730009 -158.106905 
L 224.173945 -160.704587 
L 223.386142 -163.302268 
L 222.305332 -165.89995 
L 220.864833 -168.497632 
L 218.995674 -171.095314 
L 216.632996 -173.692996 
L 213.727254 -176.290678 
L 210.260358 -178.88836 
L 206.264199 -181.486042 
L 201.836177 -184.083724 
L 197.144921 -186.681406 
L 192.420989 -189.279088 
L 187.931878 -191.87677 
L 183.946608 -194.474452 
L 180.699451 -197.072134 
L 178.362835 -199.669816 
L 177.035352 -202.267498 
L 176.744307 -204.86518 
L 177.456532 -207.462862 
L 179.089458 -210.060544 
L 181.517274 -212.658226 
L 184.572633 -215.255908 
L 188.049156 -217.85359 
L 191.711047 -220.451272 
L 195.312798 -223.048954 
L 198.626279 -225.646636 
L 201.467862 -228.244318 
L 203.717224 -230.842 
L 205.322453 -233.439682 
L 206.291234 -236.037364 
L 206.672514 -238.635046 
L 206.535236 -241.232728 
L 205.950082 -243.83041 
L 204.977851 -246.428092 
L 203.665364 -249.025774 
L 202.047804 -251.623456 
L 200.155295 -254.221138 
L 198.021186 -256.81882 
L 195.689715 -259.416502 
L 193.221419 -262.014184 
L 190.695669 -264.611866 
L 188.210739 -267.209548 
L 185.882269 -269.80723 
L 183.84041 -272.404912 
L 182.224659 -275.002594 
L 181.174382 -277.600276 
L 180.813459 -280.197958 
L 181.22993 -282.79564 
L 182.454981 -285.393322 
L 184.448165 -287.991004 
L 187.095418 -290.588686 
L 190.22269 -293.186368 
L 193.62247 -295.78405 
L 197.085749 -298.381732 
L 200.430417 -300.979414 
L 203.519298 -303.577096 
L 206.265635 -306.174777 
L 208.628385 -308.772459 
L 210.602259 -311.370141 
L 212.207322 -313.967823 
L 213.481014 -316.565505 
L 214.473059 -319.163187 
L 215.242041 -321.760869 
L 215.852027 -324.358551 
L 216.368026 -326.956233 
L 216.850047 -329.553915 
L 217.34642 -332.151597 
L 217.887817 -334.749279 
L 218.483746 -337.346961 
L 219.123121 -339.944643 
L 219.779482 -342.542325 
L 220.419985 -345.140007 
L 221.015675 -347.737689 
L 221.549799 -350.335371 
L 222.021383 -352.933053 
L 222.443003 -355.530735 
L 222.833953 -358.128417 
L 223.211723 -360.726099 
L 223.585234 -363.323781 
L 223.952222 -365.921463 
L 224.301256 -368.519145 
L 224.616967 -371.116827 
L 224.885989 -373.714509 
L 225.101297 -376.312191 
L 225.263671 -378.909873 
L 225.380387 -381.507555 
L 225.462239 -384.105237 
L 225.520314 -386.702919 
L 225.563637 -389.300601 
L 225.598159 -391.898283 
L 225.626957 -394.495965 
L 225.65113 -397.093647 
L 225.670845 -399.691329 
L 225.686128 -402.289011 
L 225.697259 -404.886693 
L 225.733991 -404.886693 
L 225.733991 -404.886693 
L 225.745122 -402.289011 
L 225.760405 -399.691329 
L 225.78012 -397.093647 
L 225.804293 -394.495965 
L 225.833091 -391.898283 
L 225.867613 -389.300601 
L 225.910936 -386.702919 
L 225.969011 -384.105237 
L 226.050863 -381.507555 
L 226.167579 -378.909873 
L 226.329953 -376.312191 
L 226.545261 -373.714509 
L 226.814283 -371.116827 
L 227.129994 -368.519145 
L 227.479028 -365.921463 
L 227.846016 -363.323781 
L 228.219527 -360.726099 
L 228.597297 -358.128417 
L 228.988247 -355.530735 
L 229.409867 -352.933053 
L 229.881451 -350.335371 
L 230.415575 -347.737689 
L 231.011265 -345.140007 
L 231.651768 -342.542325 
L 232.308129 -339.944643 
L 232.947504 -337.346961 
L 233.543433 -334.749279 
L 234.08483 -332.151597 
L 234.581203 -329.553915 
L 235.063224 -326.956233 
L 235.579223 -324.358551 
L 236.189209 -321.760869 
L 236.958191 -319.163187 
L 237.950236 -316.565505 
L 239.223928 -313.967823 
L 240.828991 -311.370141 
L 242.802865 -308.772459 
L 245.165615 -306.174777 
L 247.911952 -303.577096 
L 251.000833 -300.979414 
L 254.345501 -298.381732 
L 257.80878 -295.78405 
L 261.20856 -293.186368 
L 264.335832 -290.588686 
L 266.983085 -287.991004 
L 268.976269 -285.393322 
L 270.20132 -282.79564 
L 270.617791 -280.197958 
L 270.256868 -277.600276 
L 269.206591 -275.002594 
L 267.59084 -272.404912 
L 265.548981 -269.80723 
L 263.220511 -267.209548 
L 260.735581 -264.611866 
L 258.209831 -262.014184 
L 255.741535 -259.416502 
L 253.410064 -256.81882 
L 251.275955 -254.221138 
L 249.383446 -251.623456 
L 247.765886 -249.025774 
L 246.453399 -246.428092 
L 245.481168 -243.83041 
L 244.896014 -241.232728 
L 244.758736 -238.635046 
L 245.140016 -236.037364 
L 246.108797 -233.439682 
L 247.714026 -230.842 
L 249.963388 -228.244318 
L 252.804971 -225.646636 
L 256.118452 -223.048954 
L 259.720203 -220.451272 
L 263.382094 -217.85359 
L 266.858617 -215.255908 
L 269.913976 -212.658226 
L 272.341792 -210.060544 
L 273.974718 -207.462862 
L 274.686943 -204.86518 
L 274.395898 -202.267498 
L 273.068415 -199.669816 
L 270.731799 -197.072134 
L 267.484642 -194.474452 
L 263.499372 -191.87677 
L 259.010261 -189.279088 
L 254.286329 -186.681406 
L 249.595073 -184.083724 
L 245.167051 -181.486042 
L 241.170892 -178.88836 
L 237.703996 -176.290678 
L 234.798254 -173.692996 
L 232.435576 -171.095314 
L 230.566417 -168.497632 
L 229.125918 -165.89995 
L 228.045108 -163.302268 
L 227.257305 -160.704587 
L 226.701241 -158.106905 
L 226.322559 -155.509223 
L 226.074651 -152.911541 
L 225.919148 -150.313859 
L 225.825951 -147.716177 
z
" id="mdb6c59ae73" style="stroke:#262626;stroke-width:1.5;"/>
    </defs>
    <g clip-path="url(#p275e7a43d3)">
     <use style="fill:#b55d60;stroke:#262626;stroke-width:1.5;" x="0" xlink:href="#mdb6c59ae73" y="852.24475"/>
    </g>
   </g>
   <g id="PolyCollection_2">
    <defs>
     <path d="M 411.742823 -153.441663 
L 411.688427 -153.441663 
L 411.646584 -156.197665 
L 411.555948 -158.953666 
L 411.378273 -161.709668 
L 411.063798 -164.46567 
L 410.562931 -167.221672 
L 409.846963 -169.977674 
L 408.928714 -172.733676 
L 407.868165 -175.489677 
L 406.753602 -178.245679 
L 405.663886 -181.001681 
L 404.629482 -183.757683 
L 403.6088 -186.513685 
L 402.486665 -189.269687 
L 401.095574 -192.025688 
L 399.260482 -194.78169 
L 396.863004 -197.537692 
L 393.903677 -200.293694 
L 390.525649 -203.049696 
L 386.975439 -205.805698 
L 383.518286 -208.5617 
L 380.360977 -211.317701 
L 377.624941 -214.073703 
L 375.363923 -216.829705 
L 373.585065 -219.585707 
L 372.24631 -222.341709 
L 371.244782 -225.097711 
L 370.429174 -227.853712 
L 369.645739 -230.609714 
L 368.792331 -233.365716 
L 367.846718 -236.121718 
L 366.859119 -238.87772 
L 365.925675 -241.633722 
L 365.161455 -244.389723 
L 364.67379 -247.145725 
L 364.529363 -249.901727 
L 364.72534 -252.657729 
L 365.191944 -255.413731 
L 365.840043 -258.169733 
L 366.628101 -260.925735 
L 367.597819 -263.681736 
L 368.84416 -266.437738 
L 370.43082 -269.19374 
L 372.302208 -271.949742 
L 374.252016 -274.705744 
L 375.981467 -277.461746 
L 377.229768 -280.217747 
L 377.910075 -282.973749 
L 378.169294 -285.729751 
L 378.329745 -288.485753 
L 378.745326 -291.241755 
L 379.657846 -293.997757 
L 381.128762 -296.753758 
L 383.0632 -299.50976 
L 385.288798 -302.265762 
L 387.636098 -305.021764 
L 389.984831 -307.777766 
L 392.268099 -310.533768 
L 394.447803 -313.289769 
L 396.485628 -316.045771 
L 398.33277 -318.801773 
L 399.946027 -321.557775 
L 401.314449 -324.313777 
L 402.468661 -327.069779 
L 403.458301 -329.825781 
L 404.312596 -332.581782 
L 405.018366 -335.337784 
L 405.538876 -338.093786 
L 405.862039 -340.849788 
L 406.037599 -343.60579 
L 406.168682 -346.361792 
L 406.360778 -349.117793 
L 406.667057 -351.873795 
L 407.070425 -354.629797 
L 407.509897 -357.385799 
L 407.92328 -360.141801 
L 408.271631 -362.897803 
L 408.535992 -365.653804 
L 408.704869 -368.409806 
L 408.774075 -371.165808 
L 408.760317 -373.92181 
L 408.711551 -376.677812 
L 408.698396 -379.433814 
L 408.787092 -382.189815 
L 409.009836 -384.945817 
L 409.351046 -387.701819 
L 409.757204 -390.457821 
L 410.162071 -393.213823 
L 410.511477 -395.969825 
L 410.777101 -398.725827 
L 410.95849 -401.481828 
L 411.077037 -404.23783 
L 411.16459 -406.993832 
L 411.2493 -409.749834 
L 411.344346 -412.505836 
L 411.445727 -415.261838 
L 411.539776 -418.017839 
L 411.614034 -420.773841 
L 411.663906 -423.529843 
L 411.69251 -426.285845 
L 411.73874 -426.285845 
L 411.73874 -426.285845 
L 411.767344 -423.529843 
L 411.817216 -420.773841 
L 411.891474 -418.017839 
L 411.985523 -415.261838 
L 412.086904 -412.505836 
L 412.18195 -409.749834 
L 412.26666 -406.993832 
L 412.354213 -404.23783 
L 412.47276 -401.481828 
L 412.654149 -398.725827 
L 412.919773 -395.969825 
L 413.269179 -393.213823 
L 413.674046 -390.457821 
L 414.080204 -387.701819 
L 414.421414 -384.945817 
L 414.644158 -382.189815 
L 414.732854 -379.433814 
L 414.719699 -376.677812 
L 414.670933 -373.92181 
L 414.657175 -371.165808 
L 414.726381 -368.409806 
L 414.895258 -365.653804 
L 415.159619 -362.897803 
L 415.50797 -360.141801 
L 415.921353 -357.385799 
L 416.360825 -354.629797 
L 416.764193 -351.873795 
L 417.070472 -349.117793 
L 417.262568 -346.361792 
L 417.393651 -343.60579 
L 417.569211 -340.849788 
L 417.892374 -338.093786 
L 418.412884 -335.337784 
L 419.118654 -332.581782 
L 419.972949 -329.825781 
L 420.962589 -327.069779 
L 422.116801 -324.313777 
L 423.485223 -321.557775 
L 425.09848 -318.801773 
L 426.945622 -316.045771 
L 428.983447 -313.289769 
L 431.163151 -310.533768 
L 433.446419 -307.777766 
L 435.795152 -305.021764 
L 438.142452 -302.265762 
L 440.36805 -299.50976 
L 442.302488 -296.753758 
L 443.773404 -293.997757 
L 444.685924 -291.241755 
L 445.101505 -288.485753 
L 445.261956 -285.729751 
L 445.521175 -282.973749 
L 446.201482 -280.217747 
L 447.449783 -277.461746 
L 449.179234 -274.705744 
L 451.129042 -271.949742 
L 453.00043 -269.19374 
L 454.58709 -266.437738 
L 455.833431 -263.681736 
L 456.803149 -260.925735 
L 457.591207 -258.169733 
L 458.239306 -255.413731 
L 458.70591 -252.657729 
L 458.901887 -249.901727 
L 458.75746 -247.145725 
L 458.269795 -244.389723 
L 457.505575 -241.633722 
L 456.572131 -238.87772 
L 455.584532 -236.121718 
L 454.638919 -233.365716 
L 453.785511 -230.609714 
L 453.002076 -227.853712 
L 452.186468 -225.097711 
L 451.18494 -222.341709 
L 449.846185 -219.585707 
L 448.067327 -216.829705 
L 445.806309 -214.073703 
L 443.070273 -211.317701 
L 439.912964 -208.5617 
L 436.455811 -205.805698 
L 432.905601 -203.049696 
L 429.527573 -200.293694 
L 426.568246 -197.537692 
L 424.170768 -194.78169 
L 422.335676 -192.025688 
L 420.944585 -189.269687 
L 419.82245 -186.513685 
L 418.801768 -183.757683 
L 417.767364 -181.001681 
L 416.677648 -178.245679 
L 415.563085 -175.489677 
L 414.502536 -172.733676 
L 413.584287 -169.977674 
L 412.868319 -167.221672 
L 412.367452 -164.46567 
L 412.052977 -161.709668 
L 411.875302 -158.953666 
L 411.784666 -156.197665 
L 411.742823 -153.441663 
z
" id="mceb98980ca" style="stroke:#262626;stroke-width:1.5;"/>
    </defs>
    <g clip-path="url(#p275e7a43d3)">
     <use style="fill:#5875a4;stroke:#262626;stroke-width:1.5;" x="0" xlink:href="#mceb98980ca" y="852.24475"/>
    </g>
   </g>
   <g id="PolyCollection_3">
    <defs>
     <path d="M 600.900815 -170.636779 
L 594.530435 -170.636779 
L 593.977857 -171.771104 
L 593.354023 -172.905429 
L 592.65431 -174.039754 
L 591.87454 -175.174079 
L 591.01109 -176.308404 
L 590.061006 -177.442729 
L 589.022092 -178.577055 
L 587.892993 -179.71138 
L 586.673245 -180.845705 
L 585.363309 -181.98003 
L 583.964568 -183.114355 
L 582.4793 -184.24868 
L 580.910627 -185.383005 
L 579.262428 -186.51733 
L 577.539242 -187.651655 
L 575.74615 -188.78598 
L 573.888651 -189.920305 
L 571.972539 -191.05463 
L 570.003791 -192.188955 
L 567.988468 -193.32328 
L 565.932648 -194.457605 
L 563.842384 -195.59193 
L 561.723702 -196.726255 
L 559.582631 -197.86058 
L 557.425272 -198.994905 
L 555.257893 -200.12923 
L 553.08705 -201.263555 
L 550.919716 -202.39788 
L 548.763417 -203.532206 
L 546.626346 -204.666531 
L 544.517456 -205.800856 
L 542.44651 -206.935181 
L 540.424082 -208.069506 
L 538.461489 -209.203831 
L 536.570671 -210.338156 
L 534.763985 -211.472481 
L 533.053954 -212.606806 
L 531.452943 -213.741131 
L 529.972805 -214.875456 
L 528.624488 -216.009781 
L 527.417641 -217.144106 
L 526.360233 -218.278431 
L 525.458205 -219.412756 
L 524.715184 -220.547081 
L 524.13227 -221.681406 
L 523.707923 -222.815731 
L 523.437952 -223.950056 
L 523.315625 -225.084381 
L 523.331886 -226.218706 
L 523.47569 -227.353031 
L 523.734429 -228.487357 
L 524.094448 -229.621682 
L 524.541613 -230.756007 
L 525.061914 -231.890332 
L 525.642077 -233.024657 
L 526.270137 -234.158982 
L 526.935972 -235.293307 
L 527.631743 -236.427632 
L 528.352228 -237.561957 
L 529.095039 -238.696282 
L 529.860691 -239.830607 
L 530.652535 -240.964932 
L 531.476547 -242.099257 
L 532.340988 -243.233582 
L 533.255936 -244.367907 
L 534.232742 -245.502232 
L 535.283396 -246.636557 
L 536.419871 -247.770882 
L 537.653456 -248.905207 
L 538.994105 -250.039532 
L 540.449857 -251.173857 
L 542.026328 -252.308182 
L 543.72631 -253.442508 
L 545.549496 -254.576833 
L 547.492335 -255.711158 
L 549.548025 -256.845483 
L 551.706636 -257.979808 
L 553.955368 -259.114133 
L 556.278904 -260.248458 
L 558.659863 -261.382783 
L 561.07932 -262.517108 
L 563.517364 -263.651433 
L 565.953672 -264.785758 
L 568.368083 -265.920083 
L 570.741133 -267.054408 
L 573.054541 -268.188733 
L 575.291631 -269.323058 
L 577.437672 -270.457383 
L 579.480134 -271.591708 
L 581.408855 -272.726033 
L 583.216116 -273.860358 
L 584.896636 -274.994683 
L 586.447498 -276.129008 
L 587.868 -277.263333 
L 589.159458 -278.397659 
L 590.324976 -279.531984 
L 591.369181 -280.666309 
L 592.297948 -281.800634 
L 593.118124 -282.934959 
L 602.313126 -282.934959 
L 602.313126 -282.934959 
L 603.133302 -281.800634 
L 604.062069 -280.666309 
L 605.106274 -279.531984 
L 606.271792 -278.397659 
L 607.56325 -277.263333 
L 608.983752 -276.129008 
L 610.534614 -274.994683 
L 612.215134 -273.860358 
L 614.022395 -272.726033 
L 615.951116 -271.591708 
L 617.993578 -270.457383 
L 620.139619 -269.323058 
L 622.376709 -268.188733 
L 624.690117 -267.054408 
L 627.063167 -265.920083 
L 629.477578 -264.785758 
L 631.913886 -263.651433 
L 634.35193 -262.517108 
L 636.771387 -261.382783 
L 639.152346 -260.248458 
L 641.475882 -259.114133 
L 643.724614 -257.979808 
L 645.883225 -256.845483 
L 647.938915 -255.711158 
L 649.881754 -254.576833 
L 651.70494 -253.442508 
L 653.404922 -252.308182 
L 654.981393 -251.173857 
L 656.437145 -250.039532 
L 657.777794 -248.905207 
L 659.011379 -247.770882 
L 660.147854 -246.636557 
L 661.198508 -245.502232 
L 662.175314 -244.367907 
L 663.090262 -243.233582 
L 663.954703 -242.099257 
L 664.778715 -240.964932 
L 665.570559 -239.830607 
L 666.336211 -238.696282 
L 667.079022 -237.561957 
L 667.799507 -236.427632 
L 668.495278 -235.293307 
L 669.161113 -234.158982 
L 669.789173 -233.024657 
L 670.369336 -231.890332 
L 670.889637 -230.756007 
L 671.336802 -229.621682 
L 671.696821 -228.487357 
L 671.95556 -227.353031 
L 672.099364 -226.218706 
L 672.115625 -225.084381 
L 671.993298 -223.950056 
L 671.723327 -222.815731 
L 671.29898 -221.681406 
L 670.716066 -220.547081 
L 669.973045 -219.412756 
L 669.071017 -218.278431 
L 668.013609 -217.144106 
L 666.806762 -216.009781 
L 665.458445 -214.875456 
L 663.978307 -213.741131 
L 662.377296 -212.606806 
L 660.667265 -211.472481 
L 658.860579 -210.338156 
L 656.969761 -209.203831 
L 655.007168 -208.069506 
L 652.98474 -206.935181 
L 650.913794 -205.800856 
L 648.804904 -204.666531 
L 646.667833 -203.532206 
L 644.511534 -202.39788 
L 642.3442 -201.263555 
L 640.173357 -200.12923 
L 638.005978 -198.994905 
L 635.848619 -197.86058 
L 633.707548 -196.726255 
L 631.588866 -195.59193 
L 629.498602 -194.457605 
L 627.442782 -193.32328 
L 625.427459 -192.188955 
L 623.458711 -191.05463 
L 621.542599 -189.920305 
L 619.6851 -188.78598 
L 617.892008 -187.651655 
L 616.168822 -186.51733 
L 614.520623 -185.383005 
L 612.95195 -184.24868 
L 611.466682 -183.114355 
L 610.067941 -181.98003 
L 608.758005 -180.845705 
L 607.538257 -179.71138 
L 606.409158 -178.577055 
L 605.370244 -177.442729 
L 604.42016 -176.308404 
L 603.55671 -175.174079 
L 602.77694 -174.039754 
L 602.077227 -172.905429 
L 601.453393 -171.771104 
L 600.900815 -170.636779 
z
" id="mde8cbc5a33" style="stroke:#262626;stroke-width:1.5;"/>
    </defs>
    <g clip-path="url(#p275e7a43d3)">
     <use style="fill:#107010;stroke:#262626;stroke-width:1.5;" x="0" xlink:href="#mde8cbc5a33" y="852.24475"/>
    </g>
   </g>
   <g id="line2d_12">
    <path clip-path="url(#p275e7a43d3)" d="M 225.715625 683.624289 
L 225.715625 468.262342 
" style="fill:none;stroke:#262626;stroke-linecap:round;stroke-width:1.5;"/>
   </g>
   <g id="line2d_13">
    <path clip-path="url(#p275e7a43d3)" d="M 225.715625 644.523977 
L 225.715625 568.296696 
" style="fill:none;stroke:#262626;stroke-linecap:round;stroke-width:4.5;"/>
   </g>
   <g id="line2d_14">
    <path clip-path="url(#p275e7a43d3)" d="M 411.715625 684.3635 
L 411.715625 479.125321 
" style="fill:none;stroke:#262626;stroke-linecap:round;stroke-width:1.5;"/>
   </g>
   <g id="line2d_15">
    <path clip-path="url(#p275e7a43d3)" d="M 411.715625 622.757674 
L 411.715625 565.254856 
" style="fill:none;stroke:#262626;stroke-linecap:round;stroke-width:4.5;"/>
   </g>
   <g id="line2d_16">
    <path clip-path="url(#p275e7a43d3)" d="M 597.715625 652.829283 
L 597.715625 598.088479 
" style="fill:none;stroke:#262626;stroke-linecap:round;stroke-width:1.5;"/>
   </g>
   <g id="line2d_17">
    <path clip-path="url(#p275e7a43d3)" d="M 597.715625 633.655886 
L 597.715625 607.201003 
" style="fill:none;stroke:#262626;stroke-linecap:round;stroke-width:4.5;"/>
   </g>
   <g id="line2d_18">
    <path d="M 225.715625 163.7315 
L 225.715625 152.6435 
L 411.715625 152.6435 
L 411.715625 163.7315 
" style="fill:none;stroke:#333333;stroke-linecap:round;stroke-width:1.5;"/>
   </g>
   <g id="line2d_19">
    <path d="M 411.715625 103.1235 
L 411.715625 92.0355 
L 597.715625 92.0355 
L 597.715625 103.1235 
" style="fill:none;stroke:#333333;stroke-linecap:round;stroke-width:1.5;"/>
   </g>
   <g id="line2d_20">
    <path d="M 225.715625 42.5155 
L 225.715625 31.4275 
L 597.715625 31.4275 
L 597.715625 42.5155 
" style="fill:none;stroke:#333333;stroke-linecap:round;stroke-width:1.5;"/>
   </g>
   <g id="patch_3">
    <path d="M 132.715625 734.7635 
L 132.715625 180.3635 
" style="fill:none;stroke:#262626;stroke-linecap:square;stroke-linejoin:miter;stroke-width:1.25;"/>
   </g>
   <g id="patch_4">
    <path d="M 690.715625 734.7635 
L 690.715625 180.3635 
" style="fill:none;stroke:#262626;stroke-linecap:square;stroke-linejoin:miter;stroke-width:1.25;"/>
   </g>
   <g id="patch_5">
    <path d="M 132.715625 734.7635 
L 690.715625 734.7635 
" style="fill:none;stroke:#262626;stroke-linecap:square;stroke-linejoin:miter;stroke-width:1.25;"/>
   </g>
   <g id="patch_6">
    <path d="M 132.715625 180.3635 
L 690.715625 180.3635 
" style="fill:none;stroke:#262626;stroke-linecap:square;stroke-linejoin:miter;stroke-width:1.25;"/>
   </g>
   <g id="PathCollection_1">
    <defs>
     <path d="M 0 1.5 
C 0.397805 1.5 0.77937 1.341951 1.06066 1.06066 
C 1.341951 0.77937 1.5 0.397805 1.5 0 
C 1.5 -0.397805 1.341951 -0.77937 1.06066 -1.06066 
C 0.77937 -1.341951 0.397805 -1.5 0 -1.5 
C -0.397805 -1.5 -0.77937 -1.341951 -1.06066 -1.06066 
C -1.341951 -0.77937 -1.5 -0.397805 -1.5 0 
C -1.5 0.397805 -1.341951 0.77937 -1.06066 1.06066 
C -0.77937 1.341951 -0.397805 1.5 0 1.5 
z
" id="m459891b162" style="stroke:#262626;"/>
    </defs>
    <g clip-path="url(#p275e7a43d3)">
     <use style="fill:#ffffff;stroke:#262626;" x="225.715625" xlink:href="#m459891b162" y="600.384073"/>
    </g>
   </g>
   <g id="PathCollection_2">
    <g clip-path="url(#p275e7a43d3)">
     <use style="fill:#ffffff;stroke:#262626;" x="411.715625" xlink:href="#m459891b162" y="596.308676"/>
    </g>
   </g>
   <g id="PathCollection_3">
    <g clip-path="url(#p275e7a43d3)">
     <use style="fill:#ffffff;stroke:#262626;" x="597.715625" xlink:href="#m459891b162" y="625.525157"/>
    </g>
   </g>
   <g id="text_14">
    <!-- Ranksum p = 3.149e-16 -->
    <defs>
     <path d="M 34.28125 27.484375 
Q 23.390625 27.484375 19.1875 25 
Q 14.984375 22.515625 14.984375 16.5 
Q 14.984375 11.71875 18.140625 8.90625 
Q 21.296875 6.109375 26.703125 6.109375 
Q 34.1875 6.109375 38.703125 11.40625 
Q 43.21875 16.703125 43.21875 25.484375 
L 43.21875 27.484375 
z
M 52.203125 31.203125 
L 52.203125 0 
L 43.21875 0 
L 43.21875 8.296875 
Q 40.140625 3.328125 35.546875 0.953125 
Q 30.953125 -1.421875 24.3125 -1.421875 
Q 15.921875 -1.421875 10.953125 3.296875 
Q 6 8.015625 6 15.921875 
Q 6 25.140625 12.171875 29.828125 
Q 18.359375 34.515625 30.609375 34.515625 
L 43.21875 34.515625 
L 43.21875 35.40625 
Q 43.21875 41.609375 39.140625 45 
Q 35.0625 48.390625 27.6875 48.390625 
Q 23 48.390625 18.546875 47.265625 
Q 14.109375 46.140625 10.015625 43.890625 
L 10.015625 52.203125 
Q 14.9375 54.109375 19.578125 55.046875 
Q 24.21875 56 28.609375 56 
Q 40.484375 56 46.34375 49.84375 
Q 52.203125 43.703125 52.203125 31.203125 
z
" id="DejaVuSans-97"/>
     <path d="M 9.078125 75.984375 
L 18.109375 75.984375 
L 18.109375 31.109375 
L 44.921875 54.6875 
L 56.390625 54.6875 
L 27.390625 29.109375 
L 57.625 0 
L 45.90625 0 
L 18.109375 26.703125 
L 18.109375 0 
L 9.078125 0 
z
" id="DejaVuSans-107"/>
     <path d="M 8.5 21.578125 
L 8.5 54.6875 
L 17.484375 54.6875 
L 17.484375 21.921875 
Q 17.484375 14.15625 20.5 10.265625 
Q 23.53125 6.390625 29.59375 6.390625 
Q 36.859375 6.390625 41.078125 11.03125 
Q 45.3125 15.671875 45.3125 23.6875 
L 45.3125 54.6875 
L 54.296875 54.6875 
L 54.296875 0 
L 45.3125 0 
L 45.3125 8.40625 
Q 42.046875 3.421875 37.71875 1 
Q 33.40625 -1.421875 27.6875 -1.421875 
Q 18.265625 -1.421875 13.375 4.4375 
Q 8.5 10.296875 8.5 21.578125 
z
M 31.109375 56 
z
" id="DejaVuSans-117"/>
     <path d="M 52 44.1875 
Q 55.375 50.25 60.0625 53.125 
Q 64.75 56 71.09375 56 
Q 79.640625 56 84.28125 50.015625 
Q 88.921875 44.046875 88.921875 33.015625 
L 88.921875 0 
L 79.890625 0 
L 79.890625 32.71875 
Q 79.890625 40.578125 77.09375 44.375 
Q 74.3125 48.1875 68.609375 48.1875 
Q 61.625 48.1875 57.5625 43.546875 
Q 53.515625 38.921875 53.515625 30.90625 
L 53.515625 0 
L 44.484375 0 
L 44.484375 32.71875 
Q 44.484375 40.625 41.703125 44.40625 
Q 38.921875 48.1875 33.109375 48.1875 
Q 26.21875 48.1875 22.15625 43.53125 
Q 18.109375 38.875 18.109375 30.90625 
L 18.109375 0 
L 9.078125 0 
L 9.078125 54.6875 
L 18.109375 54.6875 
L 18.109375 46.1875 
Q 21.1875 51.21875 25.484375 53.609375 
Q 29.78125 56 35.6875 56 
Q 41.65625 56 45.828125 52.96875 
Q 50 49.953125 52 44.1875 
z
" id="DejaVuSans-109"/>
     <path id="DejaVuSans-32"/>
     <path d="M 10.59375 45.40625 
L 73.1875 45.40625 
L 73.1875 37.203125 
L 10.59375 37.203125 
z
M 10.59375 25.484375 
L 73.1875 25.484375 
L 73.1875 17.1875 
L 10.59375 17.1875 
z
" id="DejaVuSans-61"/>
     <path d="M 40.578125 39.3125 
Q 47.65625 37.796875 51.625 33 
Q 55.609375 28.21875 55.609375 21.1875 
Q 55.609375 10.40625 48.1875 4.484375 
Q 40.765625 -1.421875 27.09375 -1.421875 
Q 22.515625 -1.421875 17.65625 -0.515625 
Q 12.796875 0.390625 7.625 2.203125 
L 7.625 11.71875 
Q 11.71875 9.328125 16.59375 8.109375 
Q 21.484375 6.890625 26.8125 6.890625 
Q 36.078125 6.890625 40.9375 10.546875 
Q 45.796875 14.203125 45.796875 21.1875 
Q 45.796875 27.640625 41.28125 31.265625 
Q 36.765625 34.90625 28.71875 34.90625 
L 20.21875 34.90625 
L 20.21875 43.015625 
L 29.109375 43.015625 
Q 36.375 43.015625 40.234375 45.921875 
Q 44.09375 48.828125 44.09375 54.296875 
Q 44.09375 59.90625 40.109375 62.90625 
Q 36.140625 65.921875 28.71875 65.921875 
Q 24.65625 65.921875 20.015625 65.03125 
Q 15.375 64.15625 9.8125 62.3125 
L 9.8125 71.09375 
Q 15.4375 72.65625 20.34375 73.4375 
Q 25.25 74.21875 29.59375 74.21875 
Q 40.828125 74.21875 47.359375 69.109375 
Q 53.90625 64.015625 53.90625 55.328125 
Q 53.90625 49.265625 50.4375 45.09375 
Q 46.96875 40.921875 40.578125 39.3125 
z
" id="DejaVuSans-51"/>
     <path d="M 10.6875 12.40625 
L 21 12.40625 
L 21 0 
L 10.6875 0 
z
" id="DejaVuSans-46"/>
     <path d="M 10.984375 1.515625 
L 10.984375 10.5 
Q 14.703125 8.734375 18.5 7.8125 
Q 22.3125 6.890625 25.984375 6.890625 
Q 35.75 6.890625 40.890625 13.453125 
Q 46.046875 20.015625 46.78125 33.40625 
Q 43.953125 29.203125 39.59375 26.953125 
Q 35.25 24.703125 29.984375 24.703125 
Q 19.046875 24.703125 12.671875 31.3125 
Q 6.296875 37.9375 6.296875 49.421875 
Q 6.296875 60.640625 12.9375 67.421875 
Q 19.578125 74.21875 30.609375 74.21875 
Q 43.265625 74.21875 49.921875 64.515625 
Q 56.59375 54.828125 56.59375 36.375 
Q 56.59375 19.140625 48.40625 8.859375 
Q 40.234375 -1.421875 26.421875 -1.421875 
Q 22.703125 -1.421875 18.890625 -0.6875 
Q 15.09375 0.046875 10.984375 1.515625 
z
M 30.609375 32.421875 
Q 37.25 32.421875 41.125 36.953125 
Q 45.015625 41.5 45.015625 49.421875 
Q 45.015625 57.28125 41.125 61.84375 
Q 37.25 66.40625 30.609375 66.40625 
Q 23.96875 66.40625 20.09375 61.84375 
Q 16.21875 57.28125 16.21875 49.421875 
Q 16.21875 41.5 20.09375 36.953125 
Q 23.96875 32.421875 30.609375 32.421875 
z
" id="DejaVuSans-57"/>
    </defs>
    <g style="fill:#262626;" transform="translate(172.743125 146.65225)scale(0.24 -0.24)">
     <use xlink:href="#DejaVuSans-82"/>
     <use x="67.232422" xlink:href="#DejaVuSans-97"/>
     <use x="128.511719" xlink:href="#DejaVuSans-110"/>
     <use x="191.890625" xlink:href="#DejaVuSans-107"/>
     <use x="249.800781" xlink:href="#DejaVuSans-115"/>
     <use x="301.900391" xlink:href="#DejaVuSans-117"/>
     <use x="365.279297" xlink:href="#DejaVuSans-109"/>
     <use x="462.691406" xlink:href="#DejaVuSans-32"/>
     <use x="494.478516" xlink:href="#DejaVuSans-112"/>
     <use x="557.955078" xlink:href="#DejaVuSans-32"/>
     <use x="589.742188" xlink:href="#DejaVuSans-61"/>
     <use x="673.53125" xlink:href="#DejaVuSans-32"/>
     <use x="705.318359" xlink:href="#DejaVuSans-51"/>
     <use x="768.941406" xlink:href="#DejaVuSans-46"/>
     <use x="800.728516" xlink:href="#DejaVuSans-49"/>
     <use x="864.351562" xlink:href="#DejaVuSans-52"/>
     <use x="927.974609" xlink:href="#DejaVuSans-57"/>
     <use x="991.597656" xlink:href="#DejaVuSans-101"/>
     <use x="1053.121094" xlink:href="#DejaVuSans-45"/>
     <use x="1089.205078" xlink:href="#DejaVuSans-49"/>
     <use x="1152.828125" xlink:href="#DejaVuSans-54"/>
    </g>
   </g>
   <g id="text_15">
    <!-- Ranksum p = 4.251e-02 -->
    <defs>
     <path d="M 10.796875 72.90625 
L 49.515625 72.90625 
L 49.515625 64.59375 
L 19.828125 64.59375 
L 19.828125 46.734375 
Q 21.96875 47.46875 24.109375 47.828125 
Q 26.265625 48.1875 28.421875 48.1875 
Q 40.625 48.1875 47.75 41.5 
Q 54.890625 34.8125 54.890625 23.390625 
Q 54.890625 11.625 47.5625 5.09375 
Q 40.234375 -1.421875 26.90625 -1.421875 
Q 22.3125 -1.421875 17.546875 -0.640625 
Q 12.796875 0.140625 7.71875 1.703125 
L 7.71875 11.625 
Q 12.109375 9.234375 16.796875 8.0625 
Q 21.484375 6.890625 26.703125 6.890625 
Q 35.15625 6.890625 40.078125 11.328125 
Q 45.015625 15.765625 45.015625 23.390625 
Q 45.015625 31 40.078125 35.4375 
Q 35.15625 39.890625 26.703125 39.890625 
Q 22.75 39.890625 18.8125 39.015625 
Q 14.890625 38.140625 10.796875 36.28125 
z
" id="DejaVuSans-53"/>
    </defs>
    <g style="fill:#262626;" transform="translate(358.743125 86.04425)scale(0.24 -0.24)">
     <use xlink:href="#DejaVuSans-82"/>
     <use x="67.232422" xlink:href="#DejaVuSans-97"/>
     <use x="128.511719" xlink:href="#DejaVuSans-110"/>
     <use x="191.890625" xlink:href="#DejaVuSans-107"/>
     <use x="249.800781" xlink:href="#DejaVuSans-115"/>
     <use x="301.900391" xlink:href="#DejaVuSans-117"/>
     <use x="365.279297" xlink:href="#DejaVuSans-109"/>
     <use x="462.691406" xlink:href="#DejaVuSans-32"/>
     <use x="494.478516" xlink:href="#DejaVuSans-112"/>
     <use x="557.955078" xlink:href="#DejaVuSans-32"/>
     <use x="589.742188" xlink:href="#DejaVuSans-61"/>
     <use x="673.53125" xlink:href="#DejaVuSans-32"/>
     <use x="705.318359" xlink:href="#DejaVuSans-52"/>
     <use x="768.941406" xlink:href="#DejaVuSans-46"/>
     <use x="800.728516" xlink:href="#DejaVuSans-50"/>
     <use x="864.351562" xlink:href="#DejaVuSans-53"/>
     <use x="927.974609" xlink:href="#DejaVuSans-49"/>
     <use x="991.597656" xlink:href="#DejaVuSans-101"/>
     <use x="1053.121094" xlink:href="#DejaVuSans-45"/>
     <use x="1089.205078" xlink:href="#DejaVuSans-48"/>
     <use x="1152.828125" xlink:href="#DejaVuSans-50"/>
    </g>
   </g>
   <g id="text_16">
    <!-- Ranksum p = 3.442e-01 -->
    <g style="fill:#262626;" transform="translate(265.743125 25.43625)scale(0.24 -0.24)">
     <use xlink:href="#DejaVuSans-82"/>
     <use x="67.232422" xlink:href="#DejaVuSans-97"/>
     <use x="128.511719" xlink:href="#DejaVuSans-110"/>
     <use x="191.890625" xlink:href="#DejaVuSans-107"/>
     <use x="249.800781" xlink:href="#DejaVuSans-115"/>
     <use x="301.900391" xlink:href="#DejaVuSans-117"/>
     <use x="365.279297" xlink:href="#DejaVuSans-109"/>
     <use x="462.691406" xlink:href="#DejaVuSans-32"/>
     <use x="494.478516" xlink:href="#DejaVuSans-112"/>
     <use x="557.955078" xlink:href="#DejaVuSans-32"/>
     <use x="589.742188" xlink:href="#DejaVuSans-61"/>
     <use x="673.53125" xlink:href="#DejaVuSans-32"/>
     <use x="705.318359" xlink:href="#DejaVuSans-51"/>
     <use x="768.941406" xlink:href="#DejaVuSans-46"/>
     <use x="800.728516" xlink:href="#DejaVuSans-52"/>
     <use x="864.351562" xlink:href="#DejaVuSans-52"/>
     <use x="927.974609" xlink:href="#DejaVuSans-50"/>
     <use x="991.597656" xlink:href="#DejaVuSans-101"/>
     <use x="1053.121094" xlink:href="#DejaVuSans-45"/>
     <use x="1089.205078" xlink:href="#DejaVuSans-48"/>
     <use x="1152.828125" xlink:href="#DejaVuSans-49"/>
    </g>
   </g>
  </g>
 </g>
 <defs>
  <clipPath id="p275e7a43d3">
   <rect height="554.4" width="558" x="132.715625" y="180.3635"/>
  </clipPath>
 </defs>
</svg>
