<?xml version="1.0" encoding="utf-8" standalone="no"?>
<!DOCTYPE svg PUBLIC "-//W3C//DTD SVG 1.1//EN"
  "http://www.w3.org/Graphics/SVG/1.1/DTD/svg11.dtd">
<!-- Created with matplotlib (https://matplotlib.org/) -->
<svg height="852.24475pt" version="1.1" viewBox="0 0 697.915625 852.24475" width="697.915625pt" xmlns="http://www.w3.org/2000/svg" xmlns:xlink="http://www.w3.org/1999/xlink">
 <defs>
  <style type="text/css">
*{stroke-linecap:butt;stroke-linejoin:round;}
  </style>
 </defs>
 <g id="figure_1">
  <g id="patch_1">
   <path d="M 0 852.24475 
L 697.915625 852.24475 
L 697.915625 0 
L 0 0 
z
" style="fill:#ffffff;"/>
  </g>
  <g id="axes_1">
   <g id="patch_2">
    <path d="M 132.715625 734.7635 
L 690.715625 734.7635 
L 690.715625 180.3635 
L 132.715625 180.3635 
z
" style="fill:#ffffff;"/>
   </g>
   <g id="matplotlib.axis_1">
    <g id="xtick_1">
     <g id="line2d_1">
      <defs>
       <path d="M 0 0 
L 0 6 
" id="m7245c3bfda" style="stroke:#262626;stroke-width:1.25;"/>
      </defs>
      <g>
       <use style="fill:#262626;stroke:#262626;stroke-width:1.25;" x="225.715625" xlink:href="#m7245c3bfda" y="734.7635"/>
      </g>
     </g>
     <g id="text_1">
      <!-- Gs -->
      <defs>
       <path d="M 59.515625 10.40625 
L 59.515625 29.984375 
L 43.40625 29.984375 
L 43.40625 38.09375 
L 69.28125 38.09375 
L 69.28125 6.78125 
Q 63.578125 2.734375 56.6875 0.65625 
Q 49.8125 -1.421875 42 -1.421875 
Q 24.90625 -1.421875 15.25 8.5625 
Q 5.609375 18.5625 5.609375 36.375 
Q 5.609375 54.25 15.25 64.234375 
Q 24.90625 74.21875 42 74.21875 
Q 49.125 74.21875 55.546875 72.453125 
Q 61.96875 70.703125 67.390625 67.28125 
L 67.390625 56.78125 
Q 61.921875 61.421875 55.765625 63.765625 
Q 49.609375 66.109375 42.828125 66.109375 
Q 29.4375 66.109375 22.71875 58.640625 
Q 16.015625 51.171875 16.015625 36.375 
Q 16.015625 21.625 22.71875 14.15625 
Q 29.4375 6.6875 42.828125 6.6875 
Q 48.046875 6.6875 52.140625 7.59375 
Q 56.25 8.5 59.515625 10.40625 
z
" id="DejaVuSans-71"/>
       <path d="M 44.28125 53.078125 
L 44.28125 44.578125 
Q 40.484375 46.53125 36.375 47.5 
Q 32.28125 48.484375 27.875 48.484375 
Q 21.1875 48.484375 17.84375 46.4375 
Q 14.5 44.390625 14.5 40.28125 
Q 14.5 37.15625 16.890625 35.375 
Q 19.28125 33.59375 26.515625 31.984375 
L 29.59375 31.296875 
Q 39.15625 29.25 43.1875 25.515625 
Q 47.21875 21.78125 47.21875 15.09375 
Q 47.21875 7.46875 41.1875 3.015625 
Q 35.15625 -1.421875 24.609375 -1.421875 
Q 20.21875 -1.421875 15.453125 -0.5625 
Q 10.6875 0.296875 5.421875 2 
L 5.421875 11.28125 
Q 10.40625 8.6875 15.234375 7.390625 
Q 20.0625 6.109375 24.8125 6.109375 
Q 31.15625 6.109375 34.5625 8.28125 
Q 37.984375 10.453125 37.984375 14.40625 
Q 37.984375 18.0625 35.515625 20.015625 
Q 33.0625 21.96875 24.703125 23.78125 
L 21.578125 24.515625 
Q 13.234375 26.265625 9.515625 29.90625 
Q 5.8125 33.546875 5.8125 39.890625 
Q 5.8125 47.609375 11.28125 51.796875 
Q 16.75 56 26.8125 56 
Q 31.78125 56 36.171875 55.265625 
Q 40.578125 54.546875 44.28125 53.078125 
z
" id="DejaVuSans-115"/>
      </defs>
      <g style="fill:#262626;" transform="translate(193.321094 782.255688)scale(0.5 -0.5)">
       <use xlink:href="#DejaVuSans-71"/>
       <use x="77.490234" xlink:href="#DejaVuSans-115"/>
      </g>
     </g>
    </g>
    <g id="xtick_2">
     <g id="line2d_2">
      <g>
       <use style="fill:#262626;stroke:#262626;stroke-width:1.25;" x="411.715625" xlink:href="#m7245c3bfda" y="734.7635"/>
      </g>
     </g>
     <g id="text_2">
      <!-- Gio -->
      <defs>
       <path d="M 9.421875 54.6875 
L 18.40625 54.6875 
L 18.40625 0 
L 9.421875 0 
z
M 9.421875 75.984375 
L 18.40625 75.984375 
L 18.40625 64.59375 
L 9.421875 64.59375 
z
" id="DejaVuSans-105"/>
       <path d="M 30.609375 48.390625 
Q 23.390625 48.390625 19.1875 42.75 
Q 14.984375 37.109375 14.984375 27.296875 
Q 14.984375 17.484375 19.15625 11.84375 
Q 23.34375 6.203125 30.609375 6.203125 
Q 37.796875 6.203125 41.984375 11.859375 
Q 46.1875 17.53125 46.1875 27.296875 
Q 46.1875 37.015625 41.984375 42.703125 
Q 37.796875 48.390625 30.609375 48.390625 
z
M 30.609375 56 
Q 42.328125 56 49.015625 48.375 
Q 55.71875 40.765625 55.71875 27.296875 
Q 55.71875 13.875 49.015625 6.21875 
Q 42.328125 -1.421875 30.609375 -1.421875 
Q 18.84375 -1.421875 12.171875 6.21875 
Q 5.515625 13.875 5.515625 27.296875 
Q 5.515625 40.765625 12.171875 48.375 
Q 18.84375 56 30.609375 56 
z
" id="DejaVuSans-111"/>
      </defs>
      <g style="fill:#262626;" transform="translate(370.102344 782.255688)scale(0.5 -0.5)">
       <use xlink:href="#DejaVuSans-71"/>
       <use x="77.490234" xlink:href="#DejaVuSans-105"/>
       <use x="105.273438" xlink:href="#DejaVuSans-111"/>
      </g>
     </g>
    </g>
    <g id="xtick_3">
     <g id="line2d_3">
      <g>
       <use style="fill:#262626;stroke:#262626;stroke-width:1.25;" x="597.715625" xlink:href="#m7245c3bfda" y="734.7635"/>
      </g>
     </g>
     <g id="text_3">
      <!-- Gq11 -->
      <defs>
       <path d="M 14.796875 27.296875 
Q 14.796875 17.390625 18.875 11.75 
Q 22.953125 6.109375 30.078125 6.109375 
Q 37.203125 6.109375 41.296875 11.75 
Q 45.40625 17.390625 45.40625 27.296875 
Q 45.40625 37.203125 41.296875 42.84375 
Q 37.203125 48.484375 30.078125 48.484375 
Q 22.953125 48.484375 18.875 42.84375 
Q 14.796875 37.203125 14.796875 27.296875 
z
M 45.40625 8.203125 
Q 42.578125 3.328125 38.25 0.953125 
Q 33.9375 -1.421875 27.875 -1.421875 
Q 17.96875 -1.421875 11.734375 6.484375 
Q 5.515625 14.40625 5.515625 27.296875 
Q 5.515625 40.1875 11.734375 48.09375 
Q 17.96875 56 27.875 56 
Q 33.9375 56 38.25 53.625 
Q 42.578125 51.265625 45.40625 46.390625 
L 45.40625 54.6875 
L 54.390625 54.6875 
L 54.390625 -20.796875 
L 45.40625 -20.796875 
z
" id="DejaVuSans-113"/>
       <path d="M 12.40625 8.296875 
L 28.515625 8.296875 
L 28.515625 63.921875 
L 10.984375 60.40625 
L 10.984375 69.390625 
L 28.421875 72.90625 
L 38.28125 72.90625 
L 38.28125 8.296875 
L 54.390625 8.296875 
L 54.390625 0 
L 12.40625 0 
z
" id="DejaVuSans-49"/>
      </defs>
      <g style="fill:#262626;" transform="translate(530.660938 782.255688)scale(0.5 -0.5)">
       <use xlink:href="#DejaVuSans-71"/>
       <use x="77.490234" xlink:href="#DejaVuSans-113"/>
       <use x="140.966797" xlink:href="#DejaVuSans-49"/>
       <use x="204.589844" xlink:href="#DejaVuSans-49"/>
      </g>
     </g>
    </g>
    <g id="text_4">
     <!-- G-protein -->
     <defs>
      <path d="M 4.890625 31.390625 
L 31.203125 31.390625 
L 31.203125 23.390625 
L 4.890625 23.390625 
z
" id="DejaVuSans-45"/>
      <path d="M 18.109375 8.203125 
L 18.109375 -20.796875 
L 9.078125 -20.796875 
L 9.078125 54.6875 
L 18.109375 54.6875 
L 18.109375 46.390625 
Q 20.953125 51.265625 25.265625 53.625 
Q 29.59375 56 35.59375 56 
Q 45.5625 56 51.78125 48.09375 
Q 58.015625 40.1875 58.015625 27.296875 
Q 58.015625 14.40625 51.78125 6.484375 
Q 45.5625 -1.421875 35.59375 -1.421875 
Q 29.59375 -1.421875 25.265625 0.953125 
Q 20.953125 3.328125 18.109375 8.203125 
z
M 48.6875 27.296875 
Q 48.6875 37.203125 44.609375 42.84375 
Q 40.53125 48.484375 33.40625 48.484375 
Q 26.265625 48.484375 22.1875 42.84375 
Q 18.109375 37.203125 18.109375 27.296875 
Q 18.109375 17.390625 22.1875 11.75 
Q 26.265625 6.109375 33.40625 6.109375 
Q 40.53125 6.109375 44.609375 11.75 
Q 48.6875 17.390625 48.6875 27.296875 
z
" id="DejaVuSans-112"/>
      <path d="M 41.109375 46.296875 
Q 39.59375 47.171875 37.8125 47.578125 
Q 36.03125 48 33.890625 48 
Q 26.265625 48 22.1875 43.046875 
Q 18.109375 38.09375 18.109375 28.8125 
L 18.109375 0 
L 9.078125 0 
L 9.078125 54.6875 
L 18.109375 54.6875 
L 18.109375 46.1875 
Q 20.953125 51.171875 25.484375 53.578125 
Q 30.03125 56 36.53125 56 
Q 37.453125 56 38.578125 55.875 
Q 39.703125 55.765625 41.0625 55.515625 
z
" id="DejaVuSans-114"/>
      <path d="M 18.3125 70.21875 
L 18.3125 54.6875 
L 36.8125 54.6875 
L 36.8125 47.703125 
L 18.3125 47.703125 
L 18.3125 18.015625 
Q 18.3125 11.328125 20.140625 9.421875 
Q 21.96875 7.515625 27.59375 7.515625 
L 36.8125 7.515625 
L 36.8125 0 
L 27.59375 0 
Q 17.1875 0 13.234375 3.875 
Q 9.28125 7.765625 9.28125 18.015625 
L 9.28125 47.703125 
L 2.6875 47.703125 
L 2.6875 54.6875 
L 9.28125 54.6875 
L 9.28125 70.21875 
z
" id="DejaVuSans-116"/>
      <path d="M 56.203125 29.59375 
L 56.203125 25.203125 
L 14.890625 25.203125 
Q 15.484375 15.921875 20.484375 11.0625 
Q 25.484375 6.203125 34.421875 6.203125 
Q 39.59375 6.203125 44.453125 7.46875 
Q 49.3125 8.734375 54.109375 11.28125 
L 54.109375 2.78125 
Q 49.265625 0.734375 44.1875 -0.34375 
Q 39.109375 -1.421875 33.890625 -1.421875 
Q 20.796875 -1.421875 13.15625 6.1875 
Q 5.515625 13.8125 5.515625 26.8125 
Q 5.515625 40.234375 12.765625 48.109375 
Q 20.015625 56 32.328125 56 
Q 43.359375 56 49.78125 48.890625 
Q 56.203125 41.796875 56.203125 29.59375 
z
M 47.21875 32.234375 
Q 47.125 39.59375 43.09375 43.984375 
Q 39.0625 48.390625 32.421875 48.390625 
Q 24.90625 48.390625 20.390625 44.140625 
Q 15.875 39.890625 15.1875 32.171875 
z
" id="DejaVuSans-101"/>
      <path d="M 54.890625 33.015625 
L 54.890625 0 
L 45.90625 0 
L 45.90625 32.71875 
Q 45.90625 40.484375 42.875 44.328125 
Q 39.84375 48.1875 33.796875 48.1875 
Q 26.515625 48.1875 22.3125 43.546875 
Q 18.109375 38.921875 18.109375 30.90625 
L 18.109375 0 
L 9.078125 0 
L 9.078125 54.6875 
L 18.109375 54.6875 
L 18.109375 46.1875 
Q 21.34375 51.125 25.703125 53.5625 
Q 30.078125 56 35.796875 56 
Q 45.21875 56 50.046875 50.171875 
Q 54.890625 44.34375 54.890625 33.015625 
z
" id="DejaVuSans-110"/>
     </defs>
     <g style="fill:#262626;" transform="translate(294.469531 834.646313)scale(0.5 -0.5)">
      <use xlink:href="#DejaVuSans-71"/>
      <use x="77.490234" xlink:href="#DejaVuSans-45"/>
      <use x="113.574219" xlink:href="#DejaVuSans-112"/>
      <use x="177.050781" xlink:href="#DejaVuSans-114"/>
      <use x="215.914062" xlink:href="#DejaVuSans-111"/>
      <use x="277.095703" xlink:href="#DejaVuSans-116"/>
      <use x="316.304688" xlink:href="#DejaVuSans-101"/>
      <use x="377.828125" xlink:href="#DejaVuSans-105"/>
      <use x="405.611328" xlink:href="#DejaVuSans-110"/>
     </g>
    </g>
   </g>
   <g id="matplotlib.axis_2">
    <g id="ytick_1">
     <g id="line2d_4">
      <defs>
       <path d="M 0 0 
L -6 0 
" id="m903d4e72ff" style="stroke:#262626;stroke-width:1.25;"/>
      </defs>
      <g>
       <use style="fill:#262626;stroke:#262626;stroke-width:1.25;" x="132.715625" xlink:href="#m903d4e72ff" y="684.3635"/>
      </g>
     </g>
     <g id="text_5">
      <!-- 0 -->
      <defs>
       <path d="M 31.78125 66.40625 
Q 24.171875 66.40625 20.328125 58.90625 
Q 16.5 51.421875 16.5 36.375 
Q 16.5 21.390625 20.328125 13.890625 
Q 24.171875 6.390625 31.78125 6.390625 
Q 39.453125 6.390625 43.28125 13.890625 
Q 47.125 21.390625 47.125 36.375 
Q 47.125 51.421875 43.28125 58.90625 
Q 39.453125 66.40625 31.78125 66.40625 
z
M 31.78125 74.21875 
Q 44.046875 74.21875 50.515625 64.515625 
Q 56.984375 54.828125 56.984375 36.375 
Q 56.984375 17.96875 50.515625 8.265625 
Q 44.046875 -1.421875 31.78125 -1.421875 
Q 19.53125 -1.421875 13.0625 8.265625 
Q 6.59375 17.96875 6.59375 36.375 
Q 6.59375 54.828125 13.0625 64.515625 
Q 19.53125 74.21875 31.78125 74.21875 
z
" id="DejaVuSans-48"/>
      </defs>
      <g style="fill:#262626;" transform="translate(91.403125 703.359594)scale(0.5 -0.5)">
       <use xlink:href="#DejaVuSans-48"/>
      </g>
     </g>
    </g>
    <g id="ytick_2">
     <g id="line2d_5">
      <g>
       <use style="fill:#262626;stroke:#262626;stroke-width:1.25;" x="132.715625" xlink:href="#m903d4e72ff" y="617.1635"/>
      </g>
     </g>
     <g id="text_6">
      <!-- 4 -->
      <defs>
       <path d="M 37.796875 64.3125 
L 12.890625 25.390625 
L 37.796875 25.390625 
z
M 35.203125 72.90625 
L 47.609375 72.90625 
L 47.609375 25.390625 
L 58.015625 25.390625 
L 58.015625 17.1875 
L 47.609375 17.1875 
L 47.609375 0 
L 37.796875 0 
L 37.796875 17.1875 
L 4.890625 17.1875 
L 4.890625 26.703125 
z
" id="DejaVuSans-52"/>
      </defs>
      <g style="fill:#262626;" transform="translate(91.403125 636.159594)scale(0.5 -0.5)">
       <use xlink:href="#DejaVuSans-52"/>
      </g>
     </g>
    </g>
    <g id="ytick_3">
     <g id="line2d_6">
      <g>
       <use style="fill:#262626;stroke:#262626;stroke-width:1.25;" x="132.715625" xlink:href="#m903d4e72ff" y="549.9635"/>
      </g>
     </g>
     <g id="text_7">
      <!-- 8 -->
      <defs>
       <path d="M 31.78125 34.625 
Q 24.75 34.625 20.71875 30.859375 
Q 16.703125 27.09375 16.703125 20.515625 
Q 16.703125 13.921875 20.71875 10.15625 
Q 24.75 6.390625 31.78125 6.390625 
Q 38.8125 6.390625 42.859375 10.171875 
Q 46.921875 13.96875 46.921875 20.515625 
Q 46.921875 27.09375 42.890625 30.859375 
Q 38.875 34.625 31.78125 34.625 
z
M 21.921875 38.8125 
Q 15.578125 40.375 12.03125 44.71875 
Q 8.5 49.078125 8.5 55.328125 
Q 8.5 64.0625 14.71875 69.140625 
Q 20.953125 74.21875 31.78125 74.21875 
Q 42.671875 74.21875 48.875 69.140625 
Q 55.078125 64.0625 55.078125 55.328125 
Q 55.078125 49.078125 51.53125 44.71875 
Q 48 40.375 41.703125 38.8125 
Q 48.828125 37.15625 52.796875 32.3125 
Q 56.78125 27.484375 56.78125 20.515625 
Q 56.78125 9.90625 50.3125 4.234375 
Q 43.84375 -1.421875 31.78125 -1.421875 
Q 19.734375 -1.421875 13.25 4.234375 
Q 6.78125 9.90625 6.78125 20.515625 
Q 6.78125 27.484375 10.78125 32.3125 
Q 14.796875 37.15625 21.921875 38.8125 
z
M 18.3125 54.390625 
Q 18.3125 48.734375 21.84375 45.5625 
Q 25.390625 42.390625 31.78125 42.390625 
Q 38.140625 42.390625 41.71875 45.5625 
Q 45.3125 48.734375 45.3125 54.390625 
Q 45.3125 60.0625 41.71875 63.234375 
Q 38.140625 66.40625 31.78125 66.40625 
Q 25.390625 66.40625 21.84375 63.234375 
Q 18.3125 60.0625 18.3125 54.390625 
z
" id="DejaVuSans-56"/>
      </defs>
      <g style="fill:#262626;" transform="translate(91.403125 568.959594)scale(0.5 -0.5)">
       <use xlink:href="#DejaVuSans-56"/>
      </g>
     </g>
    </g>
    <g id="ytick_4">
     <g id="line2d_7">
      <g>
       <use style="fill:#262626;stroke:#262626;stroke-width:1.25;" x="132.715625" xlink:href="#m903d4e72ff" y="482.7635"/>
      </g>
     </g>
     <g id="text_8">
      <!-- 12 -->
      <defs>
       <path d="M 19.1875 8.296875 
L 53.609375 8.296875 
L 53.609375 0 
L 7.328125 0 
L 7.328125 8.296875 
Q 12.9375 14.109375 22.625 23.890625 
Q 32.328125 33.6875 34.8125 36.53125 
Q 39.546875 41.84375 41.421875 45.53125 
Q 43.3125 49.21875 43.3125 52.78125 
Q 43.3125 58.59375 39.234375 62.25 
Q 35.15625 65.921875 28.609375 65.921875 
Q 23.96875 65.921875 18.8125 64.3125 
Q 13.671875 62.703125 7.8125 59.421875 
L 7.8125 69.390625 
Q 13.765625 71.78125 18.9375 73 
Q 24.125 74.21875 28.421875 74.21875 
Q 39.75 74.21875 46.484375 68.546875 
Q 53.21875 62.890625 53.21875 53.421875 
Q 53.21875 48.921875 51.53125 44.890625 
Q 49.859375 40.875 45.40625 35.40625 
Q 44.1875 33.984375 37.640625 27.21875 
Q 31.109375 20.453125 19.1875 8.296875 
z
" id="DejaVuSans-50"/>
      </defs>
      <g style="fill:#262626;" transform="translate(59.590625 501.759594)scale(0.5 -0.5)">
       <use xlink:href="#DejaVuSans-49"/>
       <use x="63.623047" xlink:href="#DejaVuSans-50"/>
      </g>
     </g>
    </g>
    <g id="ytick_5">
     <g id="line2d_8">
      <g>
       <use style="fill:#262626;stroke:#262626;stroke-width:1.25;" x="132.715625" xlink:href="#m903d4e72ff" y="415.5635"/>
      </g>
     </g>
     <g id="text_9">
      <!-- 16 -->
      <defs>
       <path d="M 33.015625 40.375 
Q 26.375 40.375 22.484375 35.828125 
Q 18.609375 31.296875 18.609375 23.390625 
Q 18.609375 15.53125 22.484375 10.953125 
Q 26.375 6.390625 33.015625 6.390625 
Q 39.65625 6.390625 43.53125 10.953125 
Q 47.40625 15.53125 47.40625 23.390625 
Q 47.40625 31.296875 43.53125 35.828125 
Q 39.65625 40.375 33.015625 40.375 
z
M 52.59375 71.296875 
L 52.59375 62.3125 
Q 48.875 64.0625 45.09375 64.984375 
Q 41.3125 65.921875 37.59375 65.921875 
Q 27.828125 65.921875 22.671875 59.328125 
Q 17.53125 52.734375 16.796875 39.40625 
Q 19.671875 43.65625 24.015625 45.921875 
Q 28.375 48.1875 33.59375 48.1875 
Q 44.578125 48.1875 50.953125 41.515625 
Q 57.328125 34.859375 57.328125 23.390625 
Q 57.328125 12.15625 50.6875 5.359375 
Q 44.046875 -1.421875 33.015625 -1.421875 
Q 20.359375 -1.421875 13.671875 8.265625 
Q 6.984375 17.96875 6.984375 36.375 
Q 6.984375 53.65625 15.1875 63.9375 
Q 23.390625 74.21875 37.203125 74.21875 
Q 40.921875 74.21875 44.703125 73.484375 
Q 48.484375 72.75 52.59375 71.296875 
z
" id="DejaVuSans-54"/>
      </defs>
      <g style="fill:#262626;" transform="translate(59.590625 434.559594)scale(0.5 -0.5)">
       <use xlink:href="#DejaVuSans-49"/>
       <use x="63.623047" xlink:href="#DejaVuSans-54"/>
      </g>
     </g>
    </g>
    <g id="ytick_6">
     <g id="line2d_9">
      <g>
       <use style="fill:#262626;stroke:#262626;stroke-width:1.25;" x="132.715625" xlink:href="#m903d4e72ff" y="348.3635"/>
      </g>
     </g>
     <g id="text_10">
      <!-- 20 -->
      <g style="fill:#262626;" transform="translate(59.590625 367.359594)scale(0.5 -0.5)">
       <use xlink:href="#DejaVuSans-50"/>
       <use x="63.623047" xlink:href="#DejaVuSans-48"/>
      </g>
     </g>
    </g>
    <g id="ytick_7">
     <g id="line2d_10">
      <g>
       <use style="fill:#262626;stroke:#262626;stroke-width:1.25;" x="132.715625" xlink:href="#m903d4e72ff" y="281.1635"/>
      </g>
     </g>
     <g id="text_11">
      <!-- 24 -->
      <g style="fill:#262626;" transform="translate(59.590625 300.159594)scale(0.5 -0.5)">
       <use xlink:href="#DejaVuSans-50"/>
       <use x="63.623047" xlink:href="#DejaVuSans-52"/>
      </g>
     </g>
    </g>
    <g id="ytick_8">
     <g id="line2d_11">
      <g>
       <use style="fill:#262626;stroke:#262626;stroke-width:1.25;" x="132.715625" xlink:href="#m903d4e72ff" y="213.9635"/>
      </g>
     </g>
     <g id="text_12">
      <!-- 28 -->
      <g style="fill:#262626;" transform="translate(59.590625 232.959594)scale(0.5 -0.5)">
       <use xlink:href="#DejaVuSans-50"/>
       <use x="63.623047" xlink:href="#DejaVuSans-56"/>
      </g>
     </g>
    </g>
    <g id="text_13">
     <!-- RMSD -->
     <defs>
      <path d="M 44.390625 34.1875 
Q 47.5625 33.109375 50.5625 29.59375 
Q 53.5625 26.078125 56.59375 19.921875 
L 66.609375 0 
L 56 0 
L 46.6875 18.703125 
Q 43.0625 26.03125 39.671875 28.421875 
Q 36.28125 30.8125 30.421875 30.8125 
L 19.671875 30.8125 
L 19.671875 0 
L 9.8125 0 
L 9.8125 72.90625 
L 32.078125 72.90625 
Q 44.578125 72.90625 50.734375 67.671875 
Q 56.890625 62.453125 56.890625 51.90625 
Q 56.890625 45.015625 53.6875 40.46875 
Q 50.484375 35.9375 44.390625 34.1875 
z
M 19.671875 64.796875 
L 19.671875 38.921875 
L 32.078125 38.921875 
Q 39.203125 38.921875 42.84375 42.21875 
Q 46.484375 45.515625 46.484375 51.90625 
Q 46.484375 58.296875 42.84375 61.546875 
Q 39.203125 64.796875 32.078125 64.796875 
z
" id="DejaVuSans-82"/>
      <path d="M 9.8125 72.90625 
L 24.515625 72.90625 
L 43.109375 23.296875 
L 61.8125 72.90625 
L 76.515625 72.90625 
L 76.515625 0 
L 66.890625 0 
L 66.890625 64.015625 
L 48.09375 14.015625 
L 38.1875 14.015625 
L 19.390625 64.015625 
L 19.390625 0 
L 9.8125 0 
z
" id="DejaVuSans-77"/>
      <path d="M 53.515625 70.515625 
L 53.515625 60.890625 
Q 47.90625 63.578125 42.921875 64.890625 
Q 37.9375 66.21875 33.296875 66.21875 
Q 25.25 66.21875 20.875 63.09375 
Q 16.5 59.96875 16.5 54.203125 
Q 16.5 49.359375 19.40625 46.890625 
Q 22.3125 44.4375 30.421875 42.921875 
L 36.375 41.703125 
Q 47.40625 39.59375 52.65625 34.296875 
Q 57.90625 29 57.90625 20.125 
Q 57.90625 9.515625 50.796875 4.046875 
Q 43.703125 -1.421875 29.984375 -1.421875 
Q 24.8125 -1.421875 18.96875 -0.25 
Q 13.140625 0.921875 6.890625 3.21875 
L 6.890625 13.375 
Q 12.890625 10.015625 18.65625 8.296875 
Q 24.421875 6.59375 29.984375 6.59375 
Q 38.421875 6.59375 43.015625 9.90625 
Q 47.609375 13.234375 47.609375 19.390625 
Q 47.609375 24.75 44.3125 27.78125 
Q 41.015625 30.8125 33.5 32.328125 
L 27.484375 33.5 
Q 16.453125 35.6875 11.515625 40.375 
Q 6.59375 45.0625 6.59375 53.421875 
Q 6.59375 63.09375 13.40625 68.65625 
Q 20.21875 74.21875 32.171875 74.21875 
Q 37.3125 74.21875 42.625 73.28125 
Q 47.953125 72.359375 53.515625 70.515625 
z
" id="DejaVuSans-83"/>
      <path d="M 19.671875 64.796875 
L 19.671875 8.109375 
L 31.59375 8.109375 
Q 46.6875 8.109375 53.6875 14.9375 
Q 60.6875 21.78125 60.6875 36.53125 
Q 60.6875 51.171875 53.6875 57.984375 
Q 46.6875 64.796875 31.59375 64.796875 
z
M 9.8125 72.90625 
L 30.078125 72.90625 
Q 51.265625 72.90625 61.171875 64.09375 
Q 71.09375 55.28125 71.09375 36.53125 
Q 71.09375 17.671875 61.125 8.828125 
Q 51.171875 0 30.078125 0 
L 9.8125 0 
z
" id="DejaVuSans-68"/>
     </defs>
     <g style="fill:#262626;" transform="translate(45.192187 531.626)rotate(-90)scale(0.5 -0.5)">
      <use xlink:href="#DejaVuSans-82"/>
      <use x="69.482422" xlink:href="#DejaVuSans-77"/>
      <use x="155.761719" xlink:href="#DejaVuSans-83"/>
      <use x="219.238281" xlink:href="#DejaVuSans-68"/>
     </g>
    </g>
   </g>
   <g id="PolyCollection_1">
    <defs>
     <path d="M 225.793351 -157.789101 
L 225.637899 -157.789101 
L 225.487478 -160.455726 
L 225.122468 -163.12235 
L 224.343748 -165.788975 
L 222.878705 -168.4556 
L 220.439665 -171.122224 
L 216.83477 -173.788849 
L 212.095746 -176.455474 
L 206.557095 -179.122099 
L 200.818584 -181.788723 
L 195.566559 -184.455348 
L 191.31933 -187.121973 
L 188.236609 -189.788597 
L 186.104531 -192.455222 
L 184.486628 -195.121847 
L 182.939361 -197.788471 
L 181.198238 -200.455096 
L 179.284118 -203.121721 
L 177.490373 -205.788346 
L 176.223047 -208.45497 
L 175.739952 -211.121595 
L 175.942121 -213.78822 
L 176.390345 -216.454844 
L 176.570815 -219.121469 
L 176.217092 -221.788094 
L 175.432219 -224.454718 
L 174.534184 -227.121343 
L 173.791717 -229.787968 
L 173.27996 -232.454592 
L 172.937071 -235.121217 
L 172.725326 -237.787842 
L 172.746762 -240.454467 
L 173.226272 -243.121091 
L 174.374981 -245.787716 
L 176.231898 -248.454341 
L 178.609991 -251.120965 
L 181.199694 -253.78759 
L 183.746748 -256.454215 
L 186.156906 -259.120839 
L 188.463169 -261.787464 
L 190.725115 -264.454089 
L 192.965235 -267.120714 
L 195.170308 -269.787338 
L 197.312555 -272.453963 
L 199.355223 -275.120588 
L 201.254541 -277.787212 
L 202.975674 -280.453837 
L 204.509746 -283.120462 
L 205.872283 -285.787086 
L 207.089059 -288.453711 
L 208.188415 -291.120336 
L 209.204537 -293.786961 
L 210.182867 -296.453585 
L 211.179573 -299.12021 
L 212.247995 -301.786835 
L 213.409363 -304.453459 
L 214.625037 -307.120084 
L 215.799733 -309.786709 
L 216.82088 -312.453333 
L 217.604141 -315.119958 
L 218.115882 -317.786583 
L 218.373581 -320.453208 
L 218.441199 -323.119832 
L 218.423688 -325.786457 
L 218.448223 -328.453082 
L 218.625196 -331.119706 
L 219.007044 -333.786331 
L 219.576414 -336.452956 
L 220.272087 -339.11958 
L 221.025099 -341.786205 
L 221.776046 -344.45283 
L 222.4764 -347.119455 
L 223.092682 -349.786079 
L 223.61477 -352.452704 
L 224.053994 -355.119329 
L 224.427697 -357.785953 
L 224.744507 -360.452578 
L 225.00317 -363.119203 
L 225.202035 -365.785827 
L 225.347034 -368.452452 
L 225.45119 -371.119077 
L 225.528489 -373.785701 
L 225.588527 -376.452326 
L 225.635344 -379.118951 
L 225.669748 -381.785576 
L 225.692382 -384.4522 
L 225.705245 -387.118825 
L 225.711219 -389.78545 
L 225.712756 -392.452074 
L 225.71101 -395.118699 
L 225.705964 -397.785324 
L 225.697495 -400.451948 
L 225.6868 -403.118573 
L 225.677038 -405.785198 
L 225.672165 -408.451823 
L 225.674442 -411.118447 
L 225.682793 -413.785072 
L 225.693603 -416.451697 
L 225.703198 -419.118321 
L 225.709725 -421.784946 
L 225.721525 -421.784946 
L 225.721525 -421.784946 
L 225.728052 -419.118321 
L 225.737647 -416.451697 
L 225.748457 -413.785072 
L 225.756808 -411.118447 
L 225.759085 -408.451823 
L 225.754212 -405.785198 
L 225.74445 -403.118573 
L 225.733755 -400.451948 
L 225.725286 -397.785324 
L 225.72024 -395.118699 
L 225.718494 -392.452074 
L 225.720031 -389.78545 
L 225.726005 -387.118825 
L 225.738868 -384.4522 
L 225.761502 -381.785576 
L 225.795906 -379.118951 
L 225.842723 -376.452326 
L 225.902761 -373.785701 
L 225.98006 -371.119077 
L 226.084216 -368.452452 
L 226.229215 -365.785827 
L 226.42808 -363.119203 
L 226.686743 -360.452578 
L 227.003553 -357.785953 
L 227.377256 -355.119329 
L 227.81648 -352.452704 
L 228.338568 -349.786079 
L 228.95485 -347.119455 
L 229.655204 -344.45283 
L 230.406151 -341.786205 
L 231.159163 -339.11958 
L 231.854836 -336.452956 
L 232.424206 -333.786331 
L 232.806054 -331.119706 
L 232.983027 -328.453082 
L 233.007562 -325.786457 
L 232.990051 -323.119832 
L 233.057669 -320.453208 
L 233.315368 -317.786583 
L 233.827109 -315.119958 
L 234.61037 -312.453333 
L 235.631517 -309.786709 
L 236.806213 -307.120084 
L 238.021887 -304.453459 
L 239.183255 -301.786835 
L 240.251677 -299.12021 
L 241.248383 -296.453585 
L 242.226713 -293.786961 
L 243.242835 -291.120336 
L 244.342191 -288.453711 
L 245.558967 -285.787086 
L 246.921504 -283.120462 
L 248.455576 -280.453837 
L 250.176709 -277.787212 
L 252.076027 -275.120588 
L 254.118695 -272.453963 
L 256.260942 -269.787338 
L 258.466015 -267.120714 
L 260.706135 -264.454089 
L 262.968081 -261.787464 
L 265.274344 -259.120839 
L 267.684502 -256.454215 
L 270.231556 -253.78759 
L 272.821259 -251.120965 
L 275.199352 -248.454341 
L 277.056269 -245.787716 
L 278.204978 -243.121091 
L 278.684488 -240.454467 
L 278.705924 -237.787842 
L 278.494179 -235.121217 
L 278.15129 -232.454592 
L 277.639533 -229.787968 
L 276.897066 -227.121343 
L 275.999031 -224.454718 
L 275.214158 -221.788094 
L 274.860435 -219.121469 
L 275.040905 -216.454844 
L 275.489129 -213.78822 
L 275.691298 -211.121595 
L 275.208203 -208.45497 
L 273.940877 -205.788346 
L 272.147132 -203.121721 
L 270.233012 -200.455096 
L 268.491889 -197.788471 
L 266.944622 -195.121847 
L 265.326719 -192.455222 
L 263.194641 -189.788597 
L 260.11192 -187.121973 
L 255.864691 -184.455348 
L 250.612666 -181.788723 
L 244.874155 -179.122099 
L 239.335504 -176.455474 
L 234.59648 -173.788849 
L 230.991585 -171.122224 
L 228.552545 -168.4556 
L 227.087502 -165.788975 
L 226.308782 -163.12235 
L 225.943772 -160.455726 
L 225.793351 -157.789101 
z
" id="mc83401b6d9" style="stroke:#262626;stroke-width:1.5;"/>
    </defs>
    <g clip-path="url(#p7149d8d842)">
     <use style="fill:#b55d60;stroke:#262626;stroke-width:1.5;" x="0" xlink:href="#mc83401b6d9" y="852.24475"/>
    </g>
   </g>
   <g id="PolyCollection_2">
    <defs>
     <path d="M 411.751171 -148.127162 
L 411.680079 -148.127162 
L 411.58301 -153.271827 
L 411.3145 -158.416491 
L 410.726429 -163.561155 
L 409.698722 -168.70582 
L 408.219172 -173.850484 
L 406.31887 -178.995149 
L 403.857567 -184.139813 
L 400.443142 -189.284477 
L 395.734306 -194.429142 
L 389.923477 -199.573806 
L 383.866762 -204.718471 
L 378.59195 -209.863135 
L 374.59627 -215.007799 
L 371.648026 -220.152464 
L 369.240185 -225.297128 
L 367.154092 -230.441793 
L 365.659822 -235.586457 
L 365.304608 -240.731121 
L 366.448123 -245.875786 
L 368.88522 -251.02045 
L 371.922644 -256.165115 
L 374.816921 -261.309779 
L 377.100917 -266.454443 
L 378.618329 -271.599108 
L 379.507238 -276.743772 
L 380.223191 -281.888437 
L 381.376907 -287.033101 
L 383.352476 -292.177765 
L 386.029675 -297.32243 
L 388.877732 -302.467094 
L 391.364968 -307.611759 
L 393.356039 -312.756423 
L 395.122729 -317.901087 
L 396.957807 -323.045752 
L 398.838206 -328.190416 
L 400.491019 -333.335081 
L 401.699444 -338.479745 
L 402.488245 -343.624409 
L 403.077639 -348.769074 
L 403.710833 -353.913738 
L 404.492069 -359.058403 
L 405.344922 -364.203067 
L 406.096428 -369.347731 
L 406.587139 -374.492396 
L 406.744618 -379.63706 
L 406.625902 -384.781725 
L 406.412074 -389.926389 
L 406.330583 -395.071053 
L 406.543361 -400.215718 
L 407.074287 -405.360382 
L 407.817974 -410.505047 
L 408.613601 -415.649711 
L 409.325219 -420.794375 
L 409.88305 -425.93904 
L 410.286813 -431.083704 
L 410.584902 -436.228369 
L 410.832558 -441.373033 
L 411.049913 -446.517697 
L 411.217263 -451.662362 
L 411.308132 -456.807026 
L 411.318216 -461.951691 
L 411.264993 -467.096355 
L 411.171751 -472.241019 
L 411.055114 -477.385684 
L 410.923712 -482.530348 
L 410.790204 -487.675013 
L 410.682998 -492.819677 
L 410.631399 -497.964341 
L 410.633352 -503.109006 
L 410.658209 -508.25367 
L 410.693726 -513.398335 
L 410.767196 -518.542999 
L 410.902163 -523.687663 
L 411.075532 -528.832328 
L 411.238304 -533.976992 
L 411.363764 -539.121657 
L 411.456713 -544.266321 
L 411.526859 -549.410985 
L 411.574429 -554.55565 
L 411.600654 -559.700314 
L 411.615893 -564.844979 
L 411.632007 -569.989643 
L 411.652984 -575.134307 
L 411.674983 -580.278972 
L 411.691782 -585.423636 
L 411.698913 -590.5683 
L 411.69498 -595.712965 
L 411.681448 -600.857629 
L 411.661751 -606.002294 
L 411.640007 -611.146958 
L 411.620341 -616.291622 
L 411.607233 -621.436287 
L 411.605179 -626.580951 
L 411.616423 -631.725616 
L 411.638536 -636.87028 
L 411.664779 -642.014944 
L 411.687697 -647.159609 
L 411.703086 -652.304273 
L 411.711102 -657.448938 
L 411.720148 -657.448938 
L 411.720148 -657.448938 
L 411.728164 -652.304273 
L 411.743553 -647.159609 
L 411.766471 -642.014944 
L 411.792714 -636.87028 
L 411.814827 -631.725616 
L 411.826071 -626.580951 
L 411.824017 -621.436287 
L 411.810909 -616.291622 
L 411.791243 -611.146958 
L 411.769499 -606.002294 
L 411.749802 -600.857629 
L 411.73627 -595.712965 
L 411.732337 -590.5683 
L 411.739468 -585.423636 
L 411.756267 -580.278972 
L 411.778266 -575.134307 
L 411.799243 -569.989643 
L 411.815357 -564.844979 
L 411.830596 -559.700314 
L 411.856821 -554.55565 
L 411.904391 -549.410985 
L 411.974537 -544.266321 
L 412.067486 -539.121657 
L 412.192946 -533.976992 
L 412.355718 -528.832328 
L 412.529087 -523.687663 
L 412.664054 -518.542999 
L 412.737524 -513.398335 
L 412.773041 -508.25367 
L 412.797898 -503.109006 
L 412.799851 -497.964341 
L 412.748252 -492.819677 
L 412.641046 -487.675013 
L 412.507538 -482.530348 
L 412.376136 -477.385684 
L 412.259499 -472.241019 
L 412.166257 -467.096355 
L 412.113034 -461.951691 
L 412.123118 -456.807026 
L 412.213987 -451.662362 
L 412.381337 -446.517697 
L 412.598692 -441.373033 
L 412.846348 -436.228369 
L 413.144437 -431.083704 
L 413.5482 -425.93904 
L 414.106031 -420.794375 
L 414.817649 -415.649711 
L 415.613276 -410.505047 
L 416.356963 -405.360382 
L 416.887889 -400.215718 
L 417.100667 -395.071053 
L 417.019176 -389.926389 
L 416.805348 -384.781725 
L 416.686632 -379.63706 
L 416.844111 -374.492396 
L 417.334822 -369.347731 
L 418.086328 -364.203067 
L 418.939181 -359.058403 
L 419.720417 -353.913738 
L 420.353611 -348.769074 
L 420.943005 -343.624409 
L 421.731806 -338.479745 
L 422.940231 -333.335081 
L 424.593044 -328.190416 
L 426.473443 -323.045752 
L 428.308521 -317.901087 
L 430.075211 -312.756423 
L 432.066282 -307.611759 
L 434.553518 -302.467094 
L 437.401575 -297.32243 
L 440.078774 -292.177765 
L 442.054343 -287.033101 
L 443.208059 -281.888437 
L 443.924012 -276.743772 
L 444.812921 -271.599108 
L 446.330333 -266.454443 
L 448.614329 -261.309779 
L 451.508606 -256.165115 
L 454.54603 -251.02045 
L 456.983127 -245.875786 
L 458.126642 -240.731121 
L 457.771428 -235.586457 
L 456.277158 -230.441793 
L 454.191065 -225.297128 
L 451.783224 -220.152464 
L 448.83498 -215.007799 
L 444.8393 -209.863135 
L 439.564488 -204.718471 
L 433.507773 -199.573806 
L 427.696944 -194.429142 
L 422.988108 -189.284477 
L 419.573683 -184.139813 
L 417.11238 -178.995149 
L 415.212078 -173.850484 
L 413.732528 -168.70582 
L 412.704821 -163.561155 
L 412.11675 -158.416491 
L 411.84824 -153.271827 
L 411.751171 -148.127162 
z
" id="mfa0df6eda0" style="stroke:#262626;stroke-width:1.5;"/>
    </defs>
    <g clip-path="url(#p7149d8d842)">
     <use style="fill:#5875a4;stroke:#262626;stroke-width:1.5;" x="0" xlink:href="#mfa0df6eda0" y="852.24475"/>
    </g>
   </g>
   <g id="PolyCollection_3">
    <defs>
     <path d="M 601.567641 -168.658851 
L 593.863609 -168.658851 
L 593.179706 -169.768003 
L 592.402422 -170.877156 
L 591.524363 -171.986308 
L 590.538475 -173.09546 
L 589.438227 -174.204613 
L 588.217801 -175.313765 
L 586.872287 -176.422917 
L 585.397886 -177.53207 
L 583.792101 -178.641222 
L 582.053922 -179.750374 
L 580.183993 -180.859526 
L 578.184758 -181.968679 
L 576.06058 -183.077831 
L 573.817821 -184.186983 
L 571.46489 -185.296136 
L 569.012246 -186.405288 
L 566.47235 -187.51444 
L 563.859578 -188.623593 
L 561.190076 -189.732745 
L 558.481572 -190.841897 
L 555.753134 -191.95105 
L 553.02489 -193.060202 
L 550.317699 -194.169354 
L 547.652793 -195.278507 
L 545.051384 -196.387659 
L 542.534257 -197.496811 
L 540.121344 -198.605964 
L 537.831303 -199.715116 
L 535.681102 -200.824268 
L 533.685628 -201.933421 
L 531.85733 -203.042573 
L 530.205906 -204.151725 
L 528.738054 -205.260878 
L 527.457283 -206.37003 
L 526.363812 -207.479182 
L 525.454552 -208.588335 
L 524.723179 -209.697487 
L 524.1603 -210.806639 
L 523.753718 -211.915792 
L 523.488781 -213.024944 
L 523.348815 -214.134096 
L 523.315625 -215.243249 
L 523.370057 -216.352401 
L 523.492597 -217.461553 
L 523.663987 -218.570706 
L 523.865849 -219.679858 
L 524.081276 -220.78901 
L 524.295393 -221.898163 
L 524.495845 -223.007315 
L 524.673211 -224.116467 
L 524.82132 -225.225619 
L 524.93746 -226.334772 
L 525.022474 -227.443924 
L 525.080731 -228.553076 
L 525.119983 -229.662229 
L 525.151113 -230.771381 
L 525.187765 -231.880533 
L 525.245897 -232.989686 
L 525.343245 -234.098838 
L 525.49874 -235.20799 
L 525.731874 -236.317143 
L 526.062061 -237.426295 
L 526.507995 -238.535447 
L 527.087032 -239.6446 
L 527.814621 -240.753752 
L 528.703792 -241.862904 
L 529.76472 -242.972057 
L 531.004388 -244.081209 
L 532.426335 -245.190361 
L 534.030522 -246.299514 
L 535.813291 -247.408666 
L 537.767442 -248.517818 
L 539.882406 -249.626971 
L 542.144504 -250.736123 
L 544.537301 -251.845275 
L 547.042016 -252.954428 
L 549.637995 -254.06358 
L 552.303215 -255.172732 
L 555.014811 -256.281885 
L 557.749606 -257.391037 
L 560.484628 -258.500189 
L 563.197593 -259.609342 
L 565.867356 -260.718494 
L 568.4743 -261.827646 
L 571.000662 -262.936799 
L 573.430798 -264.045951 
L 575.751367 -265.155103 
L 577.951449 -266.264256 
L 580.022586 -267.373408 
L 581.958764 -268.48256 
L 583.756323 -269.591713 
L 585.41383 -270.700865 
L 586.931892 -271.810017 
L 588.312949 -272.919169 
L 589.561034 -274.028322 
L 590.681524 -275.137474 
L 591.680882 -276.246626 
L 592.566405 -277.355779 
L 593.345983 -278.464931 
L 602.085267 -278.464931 
L 602.085267 -278.464931 
L 602.864845 -277.355779 
L 603.750368 -276.246626 
L 604.749726 -275.137474 
L 605.870216 -274.028322 
L 607.118301 -272.919169 
L 608.499358 -271.810017 
L 610.01742 -270.700865 
L 611.674927 -269.591713 
L 613.472486 -268.48256 
L 615.408664 -267.373408 
L 617.479801 -266.264256 
L 619.679883 -265.155103 
L 622.000452 -264.045951 
L 624.430588 -262.936799 
L 626.95695 -261.827646 
L 629.563894 -260.718494 
L 632.233657 -259.609342 
L 634.946622 -258.500189 
L 637.681644 -257.391037 
L 640.416439 -256.281885 
L 643.128035 -255.172732 
L 645.793255 -254.06358 
L 648.389234 -252.954428 
L 650.893949 -251.845275 
L 653.286746 -250.736123 
L 655.548844 -249.626971 
L 657.663808 -248.517818 
L 659.617959 -247.408666 
L 661.400728 -246.299514 
L 663.004915 -245.190361 
L 664.426862 -244.081209 
L 665.66653 -242.972057 
L 666.727458 -241.862904 
L 667.616629 -240.753752 
L 668.344218 -239.6446 
L 668.923255 -238.535447 
L 669.369189 -237.426295 
L 669.699376 -236.317143 
L 669.93251 -235.20799 
L 670.088005 -234.098838 
L 670.185353 -232.989686 
L 670.243485 -231.880533 
L 670.280137 -230.771381 
L 670.311267 -229.662229 
L 670.350519 -228.553076 
L 670.408776 -227.443924 
L 670.49379 -226.334772 
L 670.60993 -225.225619 
L 670.758039 -224.116467 
L 670.935405 -223.007315 
L 671.135857 -221.898163 
L 671.349974 -220.78901 
L 671.565401 -219.679858 
L 671.767263 -218.570706 
L 671.938653 -217.461553 
L 672.061193 -216.352401 
L 672.115625 -215.243249 
L 672.082435 -214.134096 
L 671.942469 -213.024944 
L 671.677532 -211.915792 
L 671.27095 -210.806639 
L 670.708071 -209.697487 
L 669.976698 -208.588335 
L 669.067438 -207.479182 
L 667.973967 -206.37003 
L 666.693196 -205.260878 
L 665.225344 -204.151725 
L 663.57392 -203.042573 
L 661.745622 -201.933421 
L 659.750148 -200.824268 
L 657.599947 -199.715116 
L 655.309906 -198.605964 
L 652.896993 -197.496811 
L 650.379866 -196.387659 
L 647.778457 -195.278507 
L 645.113551 -194.169354 
L 642.40636 -193.060202 
L 639.678116 -191.95105 
L 636.949678 -190.841897 
L 634.241174 -189.732745 
L 631.571672 -188.623593 
L 628.9589 -187.51444 
L 626.419004 -186.405288 
L 623.96636 -185.296136 
L 621.613429 -184.186983 
L 619.37067 -183.077831 
L 617.246492 -181.968679 
L 615.247257 -180.859526 
L 613.377328 -179.750374 
L 611.639149 -178.641222 
L 610.033364 -177.53207 
L 608.558963 -176.422917 
L 607.213449 -175.313765 
L 605.993023 -174.204613 
L 604.892775 -173.09546 
L 603.906887 -171.986308 
L 603.028828 -170.877156 
L 602.251544 -169.768003 
L 601.567641 -168.658851 
z
" id="m98321788d8" style="stroke:#262626;stroke-width:1.5;"/>
    </defs>
    <g clip-path="url(#p7149d8d842)">
     <use style="fill:#107010;stroke:#262626;stroke-width:1.5;" x="0" xlink:href="#m98321788d8" y="852.24475"/>
    </g>
   </g>
   <g id="line2d_12">
    <path clip-path="url(#p7149d8d842)" d="M 225.715625 681.625102 
L 225.715625 512.280891 
" style="fill:none;stroke:#262626;stroke-linecap:round;stroke-width:1.5;"/>
   </g>
   <g id="line2d_13">
    <path clip-path="url(#p7149d8d842)" d="M 225.715625 642.744377 
L 225.715625 590.540169 
" style="fill:none;stroke:#262626;stroke-linecap:round;stroke-width:4.5;"/>
   </g>
   <g id="line2d_14">
    <path clip-path="url(#p7149d8d842)" d="M 411.715625 684.3635 
L 411.715625 454.798522 
" style="fill:none;stroke:#262626;stroke-linecap:round;stroke-width:1.5;"/>
   </g>
   <g id="line2d_15">
    <path clip-path="url(#p7149d8d842)" d="M 411.715625 623.756664 
L 411.715625 556.13305 
" style="fill:none;stroke:#262626;stroke-linecap:round;stroke-width:4.5;"/>
   </g>
   <g id="line2d_16">
    <path clip-path="url(#p7149d8d842)" d="M 597.715625 654.951618 
L 597.715625 602.4141 
" style="fill:none;stroke:#262626;stroke-linecap:round;stroke-width:1.5;"/>
   </g>
   <g id="line2d_17">
    <path clip-path="url(#p7149d8d842)" d="M 597.715625 641.869565 
L 597.715625 612.522688 
" style="fill:none;stroke:#262626;stroke-linecap:round;stroke-width:4.5;"/>
   </g>
   <g id="line2d_18">
    <path d="M 225.715625 163.7315 
L 225.715625 152.6435 
L 411.715625 152.6435 
L 411.715625 163.7315 
" style="fill:none;stroke:#333333;stroke-linecap:round;stroke-width:1.5;"/>
   </g>
   <g id="line2d_19">
    <path d="M 411.715625 103.1235 
L 411.715625 92.0355 
L 597.715625 92.0355 
L 597.715625 103.1235 
" style="fill:none;stroke:#333333;stroke-linecap:round;stroke-width:1.5;"/>
   </g>
   <g id="line2d_20">
    <path d="M 225.715625 42.5155 
L 225.715625 31.4275 
L 597.715625 31.4275 
L 597.715625 42.5155 
" style="fill:none;stroke:#333333;stroke-linecap:round;stroke-width:1.5;"/>
   </g>
   <g id="patch_3">
    <path d="M 132.715625 734.7635 
L 132.715625 180.3635 
" style="fill:none;stroke:#262626;stroke-linecap:square;stroke-linejoin:miter;stroke-width:1.25;"/>
   </g>
   <g id="patch_4">
    <path d="M 690.715625 734.7635 
L 690.715625 180.3635 
" style="fill:none;stroke:#262626;stroke-linecap:square;stroke-linejoin:miter;stroke-width:1.25;"/>
   </g>
   <g id="patch_5">
    <path d="M 132.715625 734.7635 
L 690.715625 734.7635 
" style="fill:none;stroke:#262626;stroke-linecap:square;stroke-linejoin:miter;stroke-width:1.25;"/>
   </g>
   <g id="patch_6">
    <path d="M 132.715625 180.3635 
L 690.715625 180.3635 
" style="fill:none;stroke:#262626;stroke-linecap:square;stroke-linejoin:miter;stroke-width:1.25;"/>
   </g>
   <g id="PathCollection_1">
    <defs>
     <path d="M 0 1.5 
C 0.397805 1.5 0.77937 1.341951 1.06066 1.06066 
C 1.341951 0.77937 1.5 0.397805 1.5 0 
C 1.5 -0.397805 1.341951 -0.77937 1.06066 -1.06066 
C 0.77937 -1.341951 0.397805 -1.5 0 -1.5 
C -0.397805 -1.5 -0.77937 -1.341951 -1.06066 -1.06066 
C -1.341951 -0.77937 -1.5 -0.397805 -1.5 0 
C -1.5 0.397805 -1.341951 0.77937 -1.06066 1.06066 
C -0.77937 1.341951 -0.397805 1.5 0 1.5 
z
" id="mc6840baad9" style="stroke:#262626;"/>
    </defs>
    <g clip-path="url(#p7149d8d842)">
     <use style="fill:#ffffff;stroke:#262626;" x="225.715625" xlink:href="#mc6840baad9" y="617.274735"/>
    </g>
   </g>
   <g id="PathCollection_2">
    <g clip-path="url(#p7149d8d842)">
     <use style="fill:#ffffff;stroke:#262626;" x="411.715625" xlink:href="#mc6840baad9" y="595.975285"/>
    </g>
   </g>
   <g id="PathCollection_3">
    <g clip-path="url(#p7149d8d842)">
     <use style="fill:#ffffff;stroke:#262626;" x="597.715625" xlink:href="#mc6840baad9" y="629.307406"/>
    </g>
   </g>
   <g id="text_14">
    <!-- Ranksum p = 1.370e-249 -->
    <defs>
     <path d="M 34.28125 27.484375 
Q 23.390625 27.484375 19.1875 25 
Q 14.984375 22.515625 14.984375 16.5 
Q 14.984375 11.71875 18.140625 8.90625 
Q 21.296875 6.109375 26.703125 6.109375 
Q 34.1875 6.109375 38.703125 11.40625 
Q 43.21875 16.703125 43.21875 25.484375 
L 43.21875 27.484375 
z
M 52.203125 31.203125 
L 52.203125 0 
L 43.21875 0 
L 43.21875 8.296875 
Q 40.140625 3.328125 35.546875 0.953125 
Q 30.953125 -1.421875 24.3125 -1.421875 
Q 15.921875 -1.421875 10.953125 3.296875 
Q 6 8.015625 6 15.921875 
Q 6 25.140625 12.171875 29.828125 
Q 18.359375 34.515625 30.609375 34.515625 
L 43.21875 34.515625 
L 43.21875 35.40625 
Q 43.21875 41.609375 39.140625 45 
Q 35.0625 48.390625 27.6875 48.390625 
Q 23 48.390625 18.546875 47.265625 
Q 14.109375 46.140625 10.015625 43.890625 
L 10.015625 52.203125 
Q 14.9375 54.109375 19.578125 55.046875 
Q 24.21875 56 28.609375 56 
Q 40.484375 56 46.34375 49.84375 
Q 52.203125 43.703125 52.203125 31.203125 
z
" id="DejaVuSans-97"/>
     <path d="M 9.078125 75.984375 
L 18.109375 75.984375 
L 18.109375 31.109375 
L 44.921875 54.6875 
L 56.390625 54.6875 
L 27.390625 29.109375 
L 57.625 0 
L 45.90625 0 
L 18.109375 26.703125 
L 18.109375 0 
L 9.078125 0 
z
" id="DejaVuSans-107"/>
     <path d="M 8.5 21.578125 
L 8.5 54.6875 
L 17.484375 54.6875 
L 17.484375 21.921875 
Q 17.484375 14.15625 20.5 10.265625 
Q 23.53125 6.390625 29.59375 6.390625 
Q 36.859375 6.390625 41.078125 11.03125 
Q 45.3125 15.671875 45.3125 23.6875 
L 45.3125 54.6875 
L 54.296875 54.6875 
L 54.296875 0 
L 45.3125 0 
L 45.3125 8.40625 
Q 42.046875 3.421875 37.71875 1 
Q 33.40625 -1.421875 27.6875 -1.421875 
Q 18.265625 -1.421875 13.375 4.4375 
Q 8.5 10.296875 8.5 21.578125 
z
M 31.109375 56 
z
" id="DejaVuSans-117"/>
     <path d="M 52 44.1875 
Q 55.375 50.25 60.0625 53.125 
Q 64.75 56 71.09375 56 
Q 79.640625 56 84.28125 50.015625 
Q 88.921875 44.046875 88.921875 33.015625 
L 88.921875 0 
L 79.890625 0 
L 79.890625 32.71875 
Q 79.890625 40.578125 77.09375 44.375 
Q 74.3125 48.1875 68.609375 48.1875 
Q 61.625 48.1875 57.5625 43.546875 
Q 53.515625 38.921875 53.515625 30.90625 
L 53.515625 0 
L 44.484375 0 
L 44.484375 32.71875 
Q 44.484375 40.625 41.703125 44.40625 
Q 38.921875 48.1875 33.109375 48.1875 
Q 26.21875 48.1875 22.15625 43.53125 
Q 18.109375 38.875 18.109375 30.90625 
L 18.109375 0 
L 9.078125 0 
L 9.078125 54.6875 
L 18.109375 54.6875 
L 18.109375 46.1875 
Q 21.1875 51.21875 25.484375 53.609375 
Q 29.78125 56 35.6875 56 
Q 41.65625 56 45.828125 52.96875 
Q 50 49.953125 52 44.1875 
z
" id="DejaVuSans-109"/>
     <path id="DejaVuSans-32"/>
     <path d="M 10.59375 45.40625 
L 73.1875 45.40625 
L 73.1875 37.203125 
L 10.59375 37.203125 
z
M 10.59375 25.484375 
L 73.1875 25.484375 
L 73.1875 17.1875 
L 10.59375 17.1875 
z
" id="DejaVuSans-61"/>
     <path d="M 10.6875 12.40625 
L 21 12.40625 
L 21 0 
L 10.6875 0 
z
" id="DejaVuSans-46"/>
     <path d="M 40.578125 39.3125 
Q 47.65625 37.796875 51.625 33 
Q 55.609375 28.21875 55.609375 21.1875 
Q 55.609375 10.40625 48.1875 4.484375 
Q 40.765625 -1.421875 27.09375 -1.421875 
Q 22.515625 -1.421875 17.65625 -0.515625 
Q 12.796875 0.390625 7.625 2.203125 
L 7.625 11.71875 
Q 11.71875 9.328125 16.59375 8.109375 
Q 21.484375 6.890625 26.8125 6.890625 
Q 36.078125 6.890625 40.9375 10.546875 
Q 45.796875 14.203125 45.796875 21.1875 
Q 45.796875 27.640625 41.28125 31.265625 
Q 36.765625 34.90625 28.71875 34.90625 
L 20.21875 34.90625 
L 20.21875 43.015625 
L 29.109375 43.015625 
Q 36.375 43.015625 40.234375 45.921875 
Q 44.09375 48.828125 44.09375 54.296875 
Q 44.09375 59.90625 40.109375 62.90625 
Q 36.140625 65.921875 28.71875 65.921875 
Q 24.65625 65.921875 20.015625 65.03125 
Q 15.375 64.15625 9.8125 62.3125 
L 9.8125 71.09375 
Q 15.4375 72.65625 20.34375 73.4375 
Q 25.25 74.21875 29.59375 74.21875 
Q 40.828125 74.21875 47.359375 69.109375 
Q 53.90625 64.015625 53.90625 55.328125 
Q 53.90625 49.265625 50.4375 45.09375 
Q 46.96875 40.921875 40.578125 39.3125 
z
" id="DejaVuSans-51"/>
     <path d="M 8.203125 72.90625 
L 55.078125 72.90625 
L 55.078125 68.703125 
L 28.609375 0 
L 18.3125 0 
L 43.21875 64.59375 
L 8.203125 64.59375 
z
" id="DejaVuSans-55"/>
     <path d="M 10.984375 1.515625 
L 10.984375 10.5 
Q 14.703125 8.734375 18.5 7.8125 
Q 22.3125 6.890625 25.984375 6.890625 
Q 35.75 6.890625 40.890625 13.453125 
Q 46.046875 20.015625 46.78125 33.40625 
Q 43.953125 29.203125 39.59375 26.953125 
Q 35.25 24.703125 29.984375 24.703125 
Q 19.046875 24.703125 12.671875 31.3125 
Q 6.296875 37.9375 6.296875 49.421875 
Q 6.296875 60.640625 12.9375 67.421875 
Q 19.578125 74.21875 30.609375 74.21875 
Q 43.265625 74.21875 49.921875 64.515625 
Q 56.59375 54.828125 56.59375 36.375 
Q 56.59375 19.140625 48.40625 8.859375 
Q 40.234375 -1.421875 26.421875 -1.421875 
Q 22.703125 -1.421875 18.890625 -0.6875 
Q 15.09375 0.046875 10.984375 1.515625 
z
M 30.609375 32.421875 
Q 37.25 32.421875 41.125 36.953125 
Q 45.015625 41.5 45.015625 49.421875 
Q 45.015625 57.28125 41.125 61.84375 
Q 37.25 66.40625 30.609375 66.40625 
Q 23.96875 66.40625 20.09375 61.84375 
Q 16.21875 57.28125 16.21875 49.421875 
Q 16.21875 41.5 20.09375 36.953125 
Q 23.96875 32.421875 30.609375 32.421875 
z
" id="DejaVuSans-57"/>
    </defs>
    <g style="fill:#262626;" transform="translate(165.108125 146.65225)scale(0.24 -0.24)">
     <use xlink:href="#DejaVuSans-82"/>
     <use x="67.232422" xlink:href="#DejaVuSans-97"/>
     <use x="128.511719" xlink:href="#DejaVuSans-110"/>
     <use x="191.890625" xlink:href="#DejaVuSans-107"/>
     <use x="249.800781" xlink:href="#DejaVuSans-115"/>
     <use x="301.900391" xlink:href="#DejaVuSans-117"/>
     <use x="365.279297" xlink:href="#DejaVuSans-109"/>
     <use x="462.691406" xlink:href="#DejaVuSans-32"/>
     <use x="494.478516" xlink:href="#DejaVuSans-112"/>
     <use x="557.955078" xlink:href="#DejaVuSans-32"/>
     <use x="589.742188" xlink:href="#DejaVuSans-61"/>
     <use x="673.53125" xlink:href="#DejaVuSans-32"/>
     <use x="705.318359" xlink:href="#DejaVuSans-49"/>
     <use x="768.941406" xlink:href="#DejaVuSans-46"/>
     <use x="800.728516" xlink:href="#DejaVuSans-51"/>
     <use x="864.351562" xlink:href="#DejaVuSans-55"/>
     <use x="927.974609" xlink:href="#DejaVuSans-48"/>
     <use x="991.597656" xlink:href="#DejaVuSans-101"/>
     <use x="1053.121094" xlink:href="#DejaVuSans-45"/>
     <use x="1089.205078" xlink:href="#DejaVuSans-50"/>
     <use x="1152.828125" xlink:href="#DejaVuSans-52"/>
     <use x="1216.451172" xlink:href="#DejaVuSans-57"/>
    </g>
   </g>
   <g id="text_15">
    <!-- Ranksum p = 2.184e-02 -->
    <g style="fill:#262626;" transform="translate(358.743125 86.04425)scale(0.24 -0.24)">
     <use xlink:href="#DejaVuSans-82"/>
     <use x="67.232422" xlink:href="#DejaVuSans-97"/>
     <use x="128.511719" xlink:href="#DejaVuSans-110"/>
     <use x="191.890625" xlink:href="#DejaVuSans-107"/>
     <use x="249.800781" xlink:href="#DejaVuSans-115"/>
     <use x="301.900391" xlink:href="#DejaVuSans-117"/>
     <use x="365.279297" xlink:href="#DejaVuSans-109"/>
     <use x="462.691406" xlink:href="#DejaVuSans-32"/>
     <use x="494.478516" xlink:href="#DejaVuSans-112"/>
     <use x="557.955078" xlink:href="#DejaVuSans-32"/>
     <use x="589.742188" xlink:href="#DejaVuSans-61"/>
     <use x="673.53125" xlink:href="#DejaVuSans-32"/>
     <use x="705.318359" xlink:href="#DejaVuSans-50"/>
     <use x="768.941406" xlink:href="#DejaVuSans-46"/>
     <use x="800.728516" xlink:href="#DejaVuSans-49"/>
     <use x="864.351562" xlink:href="#DejaVuSans-56"/>
     <use x="927.974609" xlink:href="#DejaVuSans-52"/>
     <use x="991.597656" xlink:href="#DejaVuSans-101"/>
     <use x="1053.121094" xlink:href="#DejaVuSans-45"/>
     <use x="1089.205078" xlink:href="#DejaVuSans-48"/>
     <use x="1152.828125" xlink:href="#DejaVuSans-50"/>
    </g>
   </g>
   <g id="text_16">
    <!-- Ranksum p = 3.809e-01 -->
    <g style="fill:#262626;" transform="translate(265.743125 25.43625)scale(0.24 -0.24)">
     <use xlink:href="#DejaVuSans-82"/>
     <use x="67.232422" xlink:href="#DejaVuSans-97"/>
     <use x="128.511719" xlink:href="#DejaVuSans-110"/>
     <use x="191.890625" xlink:href="#DejaVuSans-107"/>
     <use x="249.800781" xlink:href="#DejaVuSans-115"/>
     <use x="301.900391" xlink:href="#DejaVuSans-117"/>
     <use x="365.279297" xlink:href="#DejaVuSans-109"/>
     <use x="462.691406" xlink:href="#DejaVuSans-32"/>
     <use x="494.478516" xlink:href="#DejaVuSans-112"/>
     <use x="557.955078" xlink:href="#DejaVuSans-32"/>
     <use x="589.742188" xlink:href="#DejaVuSans-61"/>
     <use x="673.53125" xlink:href="#DejaVuSans-32"/>
     <use x="705.318359" xlink:href="#DejaVuSans-51"/>
     <use x="768.941406" xlink:href="#DejaVuSans-46"/>
     <use x="800.728516" xlink:href="#DejaVuSans-56"/>
     <use x="864.351562" xlink:href="#DejaVuSans-48"/>
     <use x="927.974609" xlink:href="#DejaVuSans-57"/>
     <use x="991.597656" xlink:href="#DejaVuSans-101"/>
     <use x="1053.121094" xlink:href="#DejaVuSans-45"/>
     <use x="1089.205078" xlink:href="#DejaVuSans-48"/>
     <use x="1152.828125" xlink:href="#DejaVuSans-49"/>
    </g>
   </g>
  </g>
 </g>
 <defs>
  <clipPath id="p7149d8d842">
   <rect height="554.4" width="558" x="132.715625" y="180.3635"/>
  </clipPath>
 </defs>
</svg>
