<?xml version="1.0" encoding="utf-8" standalone="no"?>
<!DOCTYPE svg PUBLIC "-//W3C//DTD SVG 1.1//EN"
  "http://www.w3.org/Graphics/SVG/1.1/DTD/svg11.dtd">
<!-- Created with matplotlib (https://matplotlib.org/) -->
<svg height="852.24475pt" version="1.1" viewBox="0 0 697.915625 852.24475" width="697.915625pt" xmlns="http://www.w3.org/2000/svg" xmlns:xlink="http://www.w3.org/1999/xlink">
 <defs>
  <style type="text/css">
*{stroke-linecap:butt;stroke-linejoin:round;}
  </style>
 </defs>
 <g id="figure_1">
  <g id="patch_1">
   <path d="M 0 852.24475 
L 697.915625 852.24475 
L 697.915625 0 
L 0 0 
z
" style="fill:#ffffff;"/>
  </g>
  <g id="axes_1">
   <g id="patch_2">
    <path d="M 132.715625 734.7635 
L 690.715625 734.7635 
L 690.715625 180.3635 
L 132.715625 180.3635 
z
" style="fill:#ffffff;"/>
   </g>
   <g id="matplotlib.axis_1">
    <g id="xtick_1">
     <g id="line2d_1">
      <defs>
       <path d="M 0 0 
L 0 6 
" id="m91e4496b83" style="stroke:#262626;stroke-width:1.25;"/>
      </defs>
      <g>
       <use style="fill:#262626;stroke:#262626;stroke-width:1.25;" x="225.715625" xlink:href="#m91e4496b83" y="734.7635"/>
      </g>
     </g>
     <g id="text_1">
      <!-- Gs -->
      <defs>
       <path d="M 59.515625 10.40625 
L 59.515625 29.984375 
L 43.40625 29.984375 
L 43.40625 38.09375 
L 69.28125 38.09375 
L 69.28125 6.78125 
Q 63.578125 2.734375 56.6875 0.65625 
Q 49.8125 -1.421875 42 -1.421875 
Q 24.90625 -1.421875 15.25 8.5625 
Q 5.609375 18.5625 5.609375 36.375 
Q 5.609375 54.25 15.25 64.234375 
Q 24.90625 74.21875 42 74.21875 
Q 49.125 74.21875 55.546875 72.453125 
Q 61.96875 70.703125 67.390625 67.28125 
L 67.390625 56.78125 
Q 61.921875 61.421875 55.765625 63.765625 
Q 49.609375 66.109375 42.828125 66.109375 
Q 29.4375 66.109375 22.71875 58.640625 
Q 16.015625 51.171875 16.015625 36.375 
Q 16.015625 21.625 22.71875 14.15625 
Q 29.4375 6.6875 42.828125 6.6875 
Q 48.046875 6.6875 52.140625 7.59375 
Q 56.25 8.5 59.515625 10.40625 
z
" id="DejaVuSans-71"/>
       <path d="M 44.28125 53.078125 
L 44.28125 44.578125 
Q 40.484375 46.53125 36.375 47.5 
Q 32.28125 48.484375 27.875 48.484375 
Q 21.1875 48.484375 17.84375 46.4375 
Q 14.5 44.390625 14.5 40.28125 
Q 14.5 37.15625 16.890625 35.375 
Q 19.28125 33.59375 26.515625 31.984375 
L 29.59375 31.296875 
Q 39.15625 29.25 43.1875 25.515625 
Q 47.21875 21.78125 47.21875 15.09375 
Q 47.21875 7.46875 41.1875 3.015625 
Q 35.15625 -1.421875 24.609375 -1.421875 
Q 20.21875 -1.421875 15.453125 -0.5625 
Q 10.6875 0.296875 5.421875 2 
L 5.421875 11.28125 
Q 10.40625 8.6875 15.234375 7.390625 
Q 20.0625 6.109375 24.8125 6.109375 
Q 31.15625 6.109375 34.5625 8.28125 
Q 37.984375 10.453125 37.984375 14.40625 
Q 37.984375 18.0625 35.515625 20.015625 
Q 33.0625 21.96875 24.703125 23.78125 
L 21.578125 24.515625 
Q 13.234375 26.265625 9.515625 29.90625 
Q 5.8125 33.546875 5.8125 39.890625 
Q 5.8125 47.609375 11.28125 51.796875 
Q 16.75 56 26.8125 56 
Q 31.78125 56 36.171875 55.265625 
Q 40.578125 54.546875 44.28125 53.078125 
z
" id="DejaVuSans-115"/>
      </defs>
      <g style="fill:#262626;" transform="translate(193.321094 782.255688)scale(0.5 -0.5)">
       <use xlink:href="#DejaVuSans-71"/>
       <use x="77.490234" xlink:href="#DejaVuSans-115"/>
      </g>
     </g>
    </g>
    <g id="xtick_2">
     <g id="line2d_2">
      <g>
       <use style="fill:#262626;stroke:#262626;stroke-width:1.25;" x="411.715625" xlink:href="#m91e4496b83" y="734.7635"/>
      </g>
     </g>
     <g id="text_2">
      <!-- Gio -->
      <defs>
       <path d="M 9.421875 54.6875 
L 18.40625 54.6875 
L 18.40625 0 
L 9.421875 0 
z
M 9.421875 75.984375 
L 18.40625 75.984375 
L 18.40625 64.59375 
L 9.421875 64.59375 
z
" id="DejaVuSans-105"/>
       <path d="M 30.609375 48.390625 
Q 23.390625 48.390625 19.1875 42.75 
Q 14.984375 37.109375 14.984375 27.296875 
Q 14.984375 17.484375 19.15625 11.84375 
Q 23.34375 6.203125 30.609375 6.203125 
Q 37.796875 6.203125 41.984375 11.859375 
Q 46.1875 17.53125 46.1875 27.296875 
Q 46.1875 37.015625 41.984375 42.703125 
Q 37.796875 48.390625 30.609375 48.390625 
z
M 30.609375 56 
Q 42.328125 56 49.015625 48.375 
Q 55.71875 40.765625 55.71875 27.296875 
Q 55.71875 13.875 49.015625 6.21875 
Q 42.328125 -1.421875 30.609375 -1.421875 
Q 18.84375 -1.421875 12.171875 6.21875 
Q 5.515625 13.875 5.515625 27.296875 
Q 5.515625 40.765625 12.171875 48.375 
Q 18.84375 56 30.609375 56 
z
" id="DejaVuSans-111"/>
      </defs>
      <g style="fill:#262626;" transform="translate(370.102344 782.255688)scale(0.5 -0.5)">
       <use xlink:href="#DejaVuSans-71"/>
       <use x="77.490234" xlink:href="#DejaVuSans-105"/>
       <use x="105.273438" xlink:href="#DejaVuSans-111"/>
      </g>
     </g>
    </g>
    <g id="xtick_3">
     <g id="line2d_3">
      <g>
       <use style="fill:#262626;stroke:#262626;stroke-width:1.25;" x="597.715625" xlink:href="#m91e4496b83" y="734.7635"/>
      </g>
     </g>
     <g id="text_3">
      <!-- Gq11 -->
      <defs>
       <path d="M 14.796875 27.296875 
Q 14.796875 17.390625 18.875 11.75 
Q 22.953125 6.109375 30.078125 6.109375 
Q 37.203125 6.109375 41.296875 11.75 
Q 45.40625 17.390625 45.40625 27.296875 
Q 45.40625 37.203125 41.296875 42.84375 
Q 37.203125 48.484375 30.078125 48.484375 
Q 22.953125 48.484375 18.875 42.84375 
Q 14.796875 37.203125 14.796875 27.296875 
z
M 45.40625 8.203125 
Q 42.578125 3.328125 38.25 0.953125 
Q 33.9375 -1.421875 27.875 -1.421875 
Q 17.96875 -1.421875 11.734375 6.484375 
Q 5.515625 14.40625 5.515625 27.296875 
Q 5.515625 40.1875 11.734375 48.09375 
Q 17.96875 56 27.875 56 
Q 33.9375 56 38.25 53.625 
Q 42.578125 51.265625 45.40625 46.390625 
L 45.40625 54.6875 
L 54.390625 54.6875 
L 54.390625 -20.796875 
L 45.40625 -20.796875 
z
" id="DejaVuSans-113"/>
       <path d="M 12.40625 8.296875 
L 28.515625 8.296875 
L 28.515625 63.921875 
L 10.984375 60.40625 
L 10.984375 69.390625 
L 28.421875 72.90625 
L 38.28125 72.90625 
L 38.28125 8.296875 
L 54.390625 8.296875 
L 54.390625 0 
L 12.40625 0 
z
" id="DejaVuSans-49"/>
      </defs>
      <g style="fill:#262626;" transform="translate(530.660938 782.255688)scale(0.5 -0.5)">
       <use xlink:href="#DejaVuSans-71"/>
       <use x="77.490234" xlink:href="#DejaVuSans-113"/>
       <use x="140.966797" xlink:href="#DejaVuSans-49"/>
       <use x="204.589844" xlink:href="#DejaVuSans-49"/>
      </g>
     </g>
    </g>
    <g id="text_4">
     <!-- G-protein -->
     <defs>
      <path d="M 4.890625 31.390625 
L 31.203125 31.390625 
L 31.203125 23.390625 
L 4.890625 23.390625 
z
" id="DejaVuSans-45"/>
      <path d="M 18.109375 8.203125 
L 18.109375 -20.796875 
L 9.078125 -20.796875 
L 9.078125 54.6875 
L 18.109375 54.6875 
L 18.109375 46.390625 
Q 20.953125 51.265625 25.265625 53.625 
Q 29.59375 56 35.59375 56 
Q 45.5625 56 51.78125 48.09375 
Q 58.015625 40.1875 58.015625 27.296875 
Q 58.015625 14.40625 51.78125 6.484375 
Q 45.5625 -1.421875 35.59375 -1.421875 
Q 29.59375 -1.421875 25.265625 0.953125 
Q 20.953125 3.328125 18.109375 8.203125 
z
M 48.6875 27.296875 
Q 48.6875 37.203125 44.609375 42.84375 
Q 40.53125 48.484375 33.40625 48.484375 
Q 26.265625 48.484375 22.1875 42.84375 
Q 18.109375 37.203125 18.109375 27.296875 
Q 18.109375 17.390625 22.1875 11.75 
Q 26.265625 6.109375 33.40625 6.109375 
Q 40.53125 6.109375 44.609375 11.75 
Q 48.6875 17.390625 48.6875 27.296875 
z
" id="DejaVuSans-112"/>
      <path d="M 41.109375 46.296875 
Q 39.59375 47.171875 37.8125 47.578125 
Q 36.03125 48 33.890625 48 
Q 26.265625 48 22.1875 43.046875 
Q 18.109375 38.09375 18.109375 28.8125 
L 18.109375 0 
L 9.078125 0 
L 9.078125 54.6875 
L 18.109375 54.6875 
L 18.109375 46.1875 
Q 20.953125 51.171875 25.484375 53.578125 
Q 30.03125 56 36.53125 56 
Q 37.453125 56 38.578125 55.875 
Q 39.703125 55.765625 41.0625 55.515625 
z
" id="DejaVuSans-114"/>
      <path d="M 18.3125 70.21875 
L 18.3125 54.6875 
L 36.8125 54.6875 
L 36.8125 47.703125 
L 18.3125 47.703125 
L 18.3125 18.015625 
Q 18.3125 11.328125 20.140625 9.421875 
Q 21.96875 7.515625 27.59375 7.515625 
L 36.8125 7.515625 
L 36.8125 0 
L 27.59375 0 
Q 17.1875 0 13.234375 3.875 
Q 9.28125 7.765625 9.28125 18.015625 
L 9.28125 47.703125 
L 2.6875 47.703125 
L 2.6875 54.6875 
L 9.28125 54.6875 
L 9.28125 70.21875 
z
" id="DejaVuSans-116"/>
      <path d="M 56.203125 29.59375 
L 56.203125 25.203125 
L 14.890625 25.203125 
Q 15.484375 15.921875 20.484375 11.0625 
Q 25.484375 6.203125 34.421875 6.203125 
Q 39.59375 6.203125 44.453125 7.46875 
Q 49.3125 8.734375 54.109375 11.28125 
L 54.109375 2.78125 
Q 49.265625 0.734375 44.1875 -0.34375 
Q 39.109375 -1.421875 33.890625 -1.421875 
Q 20.796875 -1.421875 13.15625 6.1875 
Q 5.515625 13.8125 5.515625 26.8125 
Q 5.515625 40.234375 12.765625 48.109375 
Q 20.015625 56 32.328125 56 
Q 43.359375 56 49.78125 48.890625 
Q 56.203125 41.796875 56.203125 29.59375 
z
M 47.21875 32.234375 
Q 47.125 39.59375 43.09375 43.984375 
Q 39.0625 48.390625 32.421875 48.390625 
Q 24.90625 48.390625 20.390625 44.140625 
Q 15.875 39.890625 15.1875 32.171875 
z
" id="DejaVuSans-101"/>
      <path d="M 54.890625 33.015625 
L 54.890625 0 
L 45.90625 0 
L 45.90625 32.71875 
Q 45.90625 40.484375 42.875 44.328125 
Q 39.84375 48.1875 33.796875 48.1875 
Q 26.515625 48.1875 22.3125 43.546875 
Q 18.109375 38.921875 18.109375 30.90625 
L 18.109375 0 
L 9.078125 0 
L 9.078125 54.6875 
L 18.109375 54.6875 
L 18.109375 46.1875 
Q 21.34375 51.125 25.703125 53.5625 
Q 30.078125 56 35.796875 56 
Q 45.21875 56 50.046875 50.171875 
Q 54.890625 44.34375 54.890625 33.015625 
z
" id="DejaVuSans-110"/>
     </defs>
     <g style="fill:#262626;" transform="translate(294.469531 834.646313)scale(0.5 -0.5)">
      <use xlink:href="#DejaVuSans-71"/>
      <use x="77.490234" xlink:href="#DejaVuSans-45"/>
      <use x="113.574219" xlink:href="#DejaVuSans-112"/>
      <use x="177.050781" xlink:href="#DejaVuSans-114"/>
      <use x="215.914062" xlink:href="#DejaVuSans-111"/>
      <use x="277.095703" xlink:href="#DejaVuSans-116"/>
      <use x="316.304688" xlink:href="#DejaVuSans-101"/>
      <use x="377.828125" xlink:href="#DejaVuSans-105"/>
      <use x="405.611328" xlink:href="#DejaVuSans-110"/>
     </g>
    </g>
   </g>
   <g id="matplotlib.axis_2">
    <g id="ytick_1">
     <g id="line2d_4">
      <defs>
       <path d="M 0 0 
L -6 0 
" id="m9c757f2144" style="stroke:#262626;stroke-width:1.25;"/>
      </defs>
      <g>
       <use style="fill:#262626;stroke:#262626;stroke-width:1.25;" x="132.715625" xlink:href="#m9c757f2144" y="684.3635"/>
      </g>
     </g>
     <g id="text_5">
      <!-- 0 -->
      <defs>
       <path d="M 31.78125 66.40625 
Q 24.171875 66.40625 20.328125 58.90625 
Q 16.5 51.421875 16.5 36.375 
Q 16.5 21.390625 20.328125 13.890625 
Q 24.171875 6.390625 31.78125 6.390625 
Q 39.453125 6.390625 43.28125 13.890625 
Q 47.125 21.390625 47.125 36.375 
Q 47.125 51.421875 43.28125 58.90625 
Q 39.453125 66.40625 31.78125 66.40625 
z
M 31.78125 74.21875 
Q 44.046875 74.21875 50.515625 64.515625 
Q 56.984375 54.828125 56.984375 36.375 
Q 56.984375 17.96875 50.515625 8.265625 
Q 44.046875 -1.421875 31.78125 -1.421875 
Q 19.53125 -1.421875 13.0625 8.265625 
Q 6.59375 17.96875 6.59375 36.375 
Q 6.59375 54.828125 13.0625 64.515625 
Q 19.53125 74.21875 31.78125 74.21875 
z
" id="DejaVuSans-48"/>
      </defs>
      <g style="fill:#262626;" transform="translate(91.403125 703.359594)scale(0.5 -0.5)">
       <use xlink:href="#DejaVuSans-48"/>
      </g>
     </g>
    </g>
    <g id="ytick_2">
     <g id="line2d_5">
      <g>
       <use style="fill:#262626;stroke:#262626;stroke-width:1.25;" x="132.715625" xlink:href="#m9c757f2144" y="617.1635"/>
      </g>
     </g>
     <g id="text_6">
      <!-- 4 -->
      <defs>
       <path d="M 37.796875 64.3125 
L 12.890625 25.390625 
L 37.796875 25.390625 
z
M 35.203125 72.90625 
L 47.609375 72.90625 
L 47.609375 25.390625 
L 58.015625 25.390625 
L 58.015625 17.1875 
L 47.609375 17.1875 
L 47.609375 0 
L 37.796875 0 
L 37.796875 17.1875 
L 4.890625 17.1875 
L 4.890625 26.703125 
z
" id="DejaVuSans-52"/>
      </defs>
      <g style="fill:#262626;" transform="translate(91.403125 636.159594)scale(0.5 -0.5)">
       <use xlink:href="#DejaVuSans-52"/>
      </g>
     </g>
    </g>
    <g id="ytick_3">
     <g id="line2d_6">
      <g>
       <use style="fill:#262626;stroke:#262626;stroke-width:1.25;" x="132.715625" xlink:href="#m9c757f2144" y="549.9635"/>
      </g>
     </g>
     <g id="text_7">
      <!-- 8 -->
      <defs>
       <path d="M 31.78125 34.625 
Q 24.75 34.625 20.71875 30.859375 
Q 16.703125 27.09375 16.703125 20.515625 
Q 16.703125 13.921875 20.71875 10.15625 
Q 24.75 6.390625 31.78125 6.390625 
Q 38.8125 6.390625 42.859375 10.171875 
Q 46.921875 13.96875 46.921875 20.515625 
Q 46.921875 27.09375 42.890625 30.859375 
Q 38.875 34.625 31.78125 34.625 
z
M 21.921875 38.8125 
Q 15.578125 40.375 12.03125 44.71875 
Q 8.5 49.078125 8.5 55.328125 
Q 8.5 64.0625 14.71875 69.140625 
Q 20.953125 74.21875 31.78125 74.21875 
Q 42.671875 74.21875 48.875 69.140625 
Q 55.078125 64.0625 55.078125 55.328125 
Q 55.078125 49.078125 51.53125 44.71875 
Q 48 40.375 41.703125 38.8125 
Q 48.828125 37.15625 52.796875 32.3125 
Q 56.78125 27.484375 56.78125 20.515625 
Q 56.78125 9.90625 50.3125 4.234375 
Q 43.84375 -1.421875 31.78125 -1.421875 
Q 19.734375 -1.421875 13.25 4.234375 
Q 6.78125 9.90625 6.78125 20.515625 
Q 6.78125 27.484375 10.78125 32.3125 
Q 14.796875 37.15625 21.921875 38.8125 
z
M 18.3125 54.390625 
Q 18.3125 48.734375 21.84375 45.5625 
Q 25.390625 42.390625 31.78125 42.390625 
Q 38.140625 42.390625 41.71875 45.5625 
Q 45.3125 48.734375 45.3125 54.390625 
Q 45.3125 60.0625 41.71875 63.234375 
Q 38.140625 66.40625 31.78125 66.40625 
Q 25.390625 66.40625 21.84375 63.234375 
Q 18.3125 60.0625 18.3125 54.390625 
z
" id="DejaVuSans-56"/>
      </defs>
      <g style="fill:#262626;" transform="translate(91.403125 568.959594)scale(0.5 -0.5)">
       <use xlink:href="#DejaVuSans-56"/>
      </g>
     </g>
    </g>
    <g id="ytick_4">
     <g id="line2d_7">
      <g>
       <use style="fill:#262626;stroke:#262626;stroke-width:1.25;" x="132.715625" xlink:href="#m9c757f2144" y="482.7635"/>
      </g>
     </g>
     <g id="text_8">
      <!-- 12 -->
      <defs>
       <path d="M 19.1875 8.296875 
L 53.609375 8.296875 
L 53.609375 0 
L 7.328125 0 
L 7.328125 8.296875 
Q 12.9375 14.109375 22.625 23.890625 
Q 32.328125 33.6875 34.8125 36.53125 
Q 39.546875 41.84375 41.421875 45.53125 
Q 43.3125 49.21875 43.3125 52.78125 
Q 43.3125 58.59375 39.234375 62.25 
Q 35.15625 65.921875 28.609375 65.921875 
Q 23.96875 65.921875 18.8125 64.3125 
Q 13.671875 62.703125 7.8125 59.421875 
L 7.8125 69.390625 
Q 13.765625 71.78125 18.9375 73 
Q 24.125 74.21875 28.421875 74.21875 
Q 39.75 74.21875 46.484375 68.546875 
Q 53.21875 62.890625 53.21875 53.421875 
Q 53.21875 48.921875 51.53125 44.890625 
Q 49.859375 40.875 45.40625 35.40625 
Q 44.1875 33.984375 37.640625 27.21875 
Q 31.109375 20.453125 19.1875 8.296875 
z
" id="DejaVuSans-50"/>
      </defs>
      <g style="fill:#262626;" transform="translate(59.590625 501.759594)scale(0.5 -0.5)">
       <use xlink:href="#DejaVuSans-49"/>
       <use x="63.623047" xlink:href="#DejaVuSans-50"/>
      </g>
     </g>
    </g>
    <g id="ytick_5">
     <g id="line2d_8">
      <g>
       <use style="fill:#262626;stroke:#262626;stroke-width:1.25;" x="132.715625" xlink:href="#m9c757f2144" y="415.5635"/>
      </g>
     </g>
     <g id="text_9">
      <!-- 16 -->
      <defs>
       <path d="M 33.015625 40.375 
Q 26.375 40.375 22.484375 35.828125 
Q 18.609375 31.296875 18.609375 23.390625 
Q 18.609375 15.53125 22.484375 10.953125 
Q 26.375 6.390625 33.015625 6.390625 
Q 39.65625 6.390625 43.53125 10.953125 
Q 47.40625 15.53125 47.40625 23.390625 
Q 47.40625 31.296875 43.53125 35.828125 
Q 39.65625 40.375 33.015625 40.375 
z
M 52.59375 71.296875 
L 52.59375 62.3125 
Q 48.875 64.0625 45.09375 64.984375 
Q 41.3125 65.921875 37.59375 65.921875 
Q 27.828125 65.921875 22.671875 59.328125 
Q 17.53125 52.734375 16.796875 39.40625 
Q 19.671875 43.65625 24.015625 45.921875 
Q 28.375 48.1875 33.59375 48.1875 
Q 44.578125 48.1875 50.953125 41.515625 
Q 57.328125 34.859375 57.328125 23.390625 
Q 57.328125 12.15625 50.6875 5.359375 
Q 44.046875 -1.421875 33.015625 -1.421875 
Q 20.359375 -1.421875 13.671875 8.265625 
Q 6.984375 17.96875 6.984375 36.375 
Q 6.984375 53.65625 15.1875 63.9375 
Q 23.390625 74.21875 37.203125 74.21875 
Q 40.921875 74.21875 44.703125 73.484375 
Q 48.484375 72.75 52.59375 71.296875 
z
" id="DejaVuSans-54"/>
      </defs>
      <g style="fill:#262626;" transform="translate(59.590625 434.559594)scale(0.5 -0.5)">
       <use xlink:href="#DejaVuSans-49"/>
       <use x="63.623047" xlink:href="#DejaVuSans-54"/>
      </g>
     </g>
    </g>
    <g id="ytick_6">
     <g id="line2d_9">
      <g>
       <use style="fill:#262626;stroke:#262626;stroke-width:1.25;" x="132.715625" xlink:href="#m9c757f2144" y="348.3635"/>
      </g>
     </g>
     <g id="text_10">
      <!-- 20 -->
      <g style="fill:#262626;" transform="translate(59.590625 367.359594)scale(0.5 -0.5)">
       <use xlink:href="#DejaVuSans-50"/>
       <use x="63.623047" xlink:href="#DejaVuSans-48"/>
      </g>
     </g>
    </g>
    <g id="ytick_7">
     <g id="line2d_10">
      <g>
       <use style="fill:#262626;stroke:#262626;stroke-width:1.25;" x="132.715625" xlink:href="#m9c757f2144" y="281.1635"/>
      </g>
     </g>
     <g id="text_11">
      <!-- 24 -->
      <g style="fill:#262626;" transform="translate(59.590625 300.159594)scale(0.5 -0.5)">
       <use xlink:href="#DejaVuSans-50"/>
       <use x="63.623047" xlink:href="#DejaVuSans-52"/>
      </g>
     </g>
    </g>
    <g id="ytick_8">
     <g id="line2d_11">
      <g>
       <use style="fill:#262626;stroke:#262626;stroke-width:1.25;" x="132.715625" xlink:href="#m9c757f2144" y="213.9635"/>
      </g>
     </g>
     <g id="text_12">
      <!-- 28 -->
      <g style="fill:#262626;" transform="translate(59.590625 232.959594)scale(0.5 -0.5)">
       <use xlink:href="#DejaVuSans-50"/>
       <use x="63.623047" xlink:href="#DejaVuSans-56"/>
      </g>
     </g>
    </g>
    <g id="text_13">
     <!-- RMSD -->
     <defs>
      <path d="M 44.390625 34.1875 
Q 47.5625 33.109375 50.5625 29.59375 
Q 53.5625 26.078125 56.59375 19.921875 
L 66.609375 0 
L 56 0 
L 46.6875 18.703125 
Q 43.0625 26.03125 39.671875 28.421875 
Q 36.28125 30.8125 30.421875 30.8125 
L 19.671875 30.8125 
L 19.671875 0 
L 9.8125 0 
L 9.8125 72.90625 
L 32.078125 72.90625 
Q 44.578125 72.90625 50.734375 67.671875 
Q 56.890625 62.453125 56.890625 51.90625 
Q 56.890625 45.015625 53.6875 40.46875 
Q 50.484375 35.9375 44.390625 34.1875 
z
M 19.671875 64.796875 
L 19.671875 38.921875 
L 32.078125 38.921875 
Q 39.203125 38.921875 42.84375 42.21875 
Q 46.484375 45.515625 46.484375 51.90625 
Q 46.484375 58.296875 42.84375 61.546875 
Q 39.203125 64.796875 32.078125 64.796875 
z
" id="DejaVuSans-82"/>
      <path d="M 9.8125 72.90625 
L 24.515625 72.90625 
L 43.109375 23.296875 
L 61.8125 72.90625 
L 76.515625 72.90625 
L 76.515625 0 
L 66.890625 0 
L 66.890625 64.015625 
L 48.09375 14.015625 
L 38.1875 14.015625 
L 19.390625 64.015625 
L 19.390625 0 
L 9.8125 0 
z
" id="DejaVuSans-77"/>
      <path d="M 53.515625 70.515625 
L 53.515625 60.890625 
Q 47.90625 63.578125 42.921875 64.890625 
Q 37.9375 66.21875 33.296875 66.21875 
Q 25.25 66.21875 20.875 63.09375 
Q 16.5 59.96875 16.5 54.203125 
Q 16.5 49.359375 19.40625 46.890625 
Q 22.3125 44.4375 30.421875 42.921875 
L 36.375 41.703125 
Q 47.40625 39.59375 52.65625 34.296875 
Q 57.90625 29 57.90625 20.125 
Q 57.90625 9.515625 50.796875 4.046875 
Q 43.703125 -1.421875 29.984375 -1.421875 
Q 24.8125 -1.421875 18.96875 -0.25 
Q 13.140625 0.921875 6.890625 3.21875 
L 6.890625 13.375 
Q 12.890625 10.015625 18.65625 8.296875 
Q 24.421875 6.59375 29.984375 6.59375 
Q 38.421875 6.59375 43.015625 9.90625 
Q 47.609375 13.234375 47.609375 19.390625 
Q 47.609375 24.75 44.3125 27.78125 
Q 41.015625 30.8125 33.5 32.328125 
L 27.484375 33.5 
Q 16.453125 35.6875 11.515625 40.375 
Q 6.59375 45.0625 6.59375 53.421875 
Q 6.59375 63.09375 13.40625 68.65625 
Q 20.21875 74.21875 32.171875 74.21875 
Q 37.3125 74.21875 42.625 73.28125 
Q 47.953125 72.359375 53.515625 70.515625 
z
" id="DejaVuSans-83"/>
      <path d="M 19.671875 64.796875 
L 19.671875 8.109375 
L 31.59375 8.109375 
Q 46.6875 8.109375 53.6875 14.9375 
Q 60.6875 21.78125 60.6875 36.53125 
Q 60.6875 51.171875 53.6875 57.984375 
Q 46.6875 64.796875 31.59375 64.796875 
z
M 9.8125 72.90625 
L 30.078125 72.90625 
Q 51.265625 72.90625 61.171875 64.09375 
Q 71.09375 55.28125 71.09375 36.53125 
Q 71.09375 17.671875 61.125 8.828125 
Q 51.171875 0 30.078125 0 
L 9.8125 0 
z
" id="DejaVuSans-68"/>
     </defs>
     <g style="fill:#262626;" transform="translate(45.192187 531.626)rotate(-90)scale(0.5 -0.5)">
      <use xlink:href="#DejaVuSans-82"/>
      <use x="69.482422" xlink:href="#DejaVuSans-77"/>
      <use x="155.761719" xlink:href="#DejaVuSans-83"/>
      <use x="219.238281" xlink:href="#DejaVuSans-68"/>
     </g>
    </g>
   </g>
   <g id="PolyCollection_1">
    <defs>
     <path d="M 225.772302 -154.334356 
L 225.658948 -154.334356 
L 225.546323 -157.23781 
L 225.268204 -160.141264 
L 224.666214 -163.044718 
L 223.521358 -165.948172 
L 221.601305 -168.851626 
L 218.748307 -171.75508 
L 214.974493 -174.658534 
L 210.515342 -177.561988 
L 205.805824 -180.465442 
L 201.374974 -183.368896 
L 197.687071 -186.27235 
L 194.984509 -189.175804 
L 193.198192 -192.079258 
L 191.970247 -194.982712 
L 190.786616 -197.886166 
L 189.174108 -200.789621 
L 186.897724 -203.693075 
L 184.09047 -206.596529 
L 181.253266 -209.499983 
L 179.097568 -212.403437 
L 178.276805 -215.306891 
L 179.121863 -218.210345 
L 181.503726 -221.113799 
L 184.883493 -224.017253 
L 188.51655 -226.920707 
L 191.705132 -229.824161 
L 193.980588 -232.727615 
L 195.151764 -235.631069 
L 195.242893 -238.534523 
L 194.39885 -241.437977 
L 192.819058 -244.341431 
L 190.723478 -247.244885 
L 188.326477 -250.148339 
L 185.822728 -253.051793 
L 183.41511 -255.955247 
L 181.375944 -258.858701 
L 180.066101 -261.762155 
L 179.842083 -264.665609 
L 180.881704 -267.569063 
L 183.054421 -270.472517 
L 185.950695 -273.375971 
L 189.073374 -276.279425 
L 192.072101 -279.182879 
L 194.862068 -282.086333 
L 197.553077 -284.989787 
L 200.267611 -287.893241 
L 203.009075 -290.796696 
L 205.671856 -293.70015 
L 208.142932 -296.603604 
L 210.378771 -299.507058 
L 212.396731 -302.410512 
L 214.214 -305.313966 
L 215.80518 -308.21742 
L 217.116092 -311.120874 
L 218.113988 -314.024328 
L 218.82419 -316.927782 
L 219.319358 -319.831236 
L 219.672897 -322.73469 
L 219.921244 -325.638144 
L 220.06669 -328.541598 
L 220.106533 -331.445052 
L 220.05018 -334.348506 
L 219.911314 -337.25196 
L 219.700154 -340.155414 
L 219.439741 -343.058868 
L 219.19349 -345.962322 
L 219.067838 -348.865776 
L 219.174348 -351.76923 
L 219.575831 -354.672684 
L 220.255591 -357.576138 
L 221.126208 -360.479592 
L 222.065173 -363.383046 
L 222.955338 -366.2865 
L 223.714171 -369.189954 
L 224.304365 -372.093408 
L 224.72734 -374.996862 
L 225.008979 -377.900316 
L 225.186915 -380.803771 
L 225.301279 -383.707225 
L 225.385965 -386.610679 
L 225.460788 -389.514133 
L 225.529585 -392.417587 
L 225.586722 -395.321041 
L 225.627085 -398.224495 
L 225.651839 -401.127949 
L 225.667 -404.031403 
L 225.678395 -406.934857 
L 225.68824 -409.838311 
L 225.695413 -412.741765 
L 225.697891 -415.645219 
L 225.695017 -418.548673 
L 225.688473 -421.452127 
L 225.681823 -424.355581 
L 225.67883 -427.259035 
L 225.681394 -430.162489 
L 225.688573 -433.065943 
L 225.697493 -435.969397 
L 225.705321 -438.872851 
L 225.710661 -441.776305 
L 225.720589 -441.776305 
L 225.720589 -441.776305 
L 225.725929 -438.872851 
L 225.733757 -435.969397 
L 225.742677 -433.065943 
L 225.749856 -430.162489 
L 225.75242 -427.259035 
L 225.749427 -424.355581 
L 225.742777 -421.452127 
L 225.736233 -418.548673 
L 225.733359 -415.645219 
L 225.735837 -412.741765 
L 225.74301 -409.838311 
L 225.752855 -406.934857 
L 225.76425 -404.031403 
L 225.779411 -401.127949 
L 225.804165 -398.224495 
L 225.844528 -395.321041 
L 225.901665 -392.417587 
L 225.970462 -389.514133 
L 226.045285 -386.610679 
L 226.129971 -383.707225 
L 226.244335 -380.803771 
L 226.422271 -377.900316 
L 226.70391 -374.996862 
L 227.126885 -372.093408 
L 227.717079 -369.189954 
L 228.475912 -366.2865 
L 229.366077 -363.383046 
L 230.305042 -360.479592 
L 231.175659 -357.576138 
L 231.855419 -354.672684 
L 232.256902 -351.76923 
L 232.363412 -348.865776 
L 232.23776 -345.962322 
L 231.991509 -343.058868 
L 231.731096 -340.155414 
L 231.519936 -337.25196 
L 231.38107 -334.348506 
L 231.324717 -331.445052 
L 231.36456 -328.541598 
L 231.510006 -325.638144 
L 231.758353 -322.73469 
L 232.111892 -319.831236 
L 232.60706 -316.927782 
L 233.317262 -314.024328 
L 234.315158 -311.120874 
L 235.62607 -308.21742 
L 237.21725 -305.313966 
L 239.034519 -302.410512 
L 241.052479 -299.507058 
L 243.288318 -296.603604 
L 245.759394 -293.70015 
L 248.422175 -290.796696 
L 251.163639 -287.893241 
L 253.878173 -284.989787 
L 256.569182 -282.086333 
L 259.359149 -279.182879 
L 262.357876 -276.279425 
L 265.480555 -273.375971 
L 268.376829 -270.472517 
L 270.549546 -267.569063 
L 271.589167 -264.665609 
L 271.365149 -261.762155 
L 270.055306 -258.858701 
L 268.01614 -255.955247 
L 265.608522 -253.051793 
L 263.104773 -250.148339 
L 260.707772 -247.244885 
L 258.612192 -244.341431 
L 257.0324 -241.437977 
L 256.188357 -238.534523 
L 256.279486 -235.631069 
L 257.450662 -232.727615 
L 259.726118 -229.824161 
L 262.9147 -226.920707 
L 266.547757 -224.017253 
L 269.927524 -221.113799 
L 272.309387 -218.210345 
L 273.154445 -215.306891 
L 272.333682 -212.403437 
L 270.177984 -209.499983 
L 267.34078 -206.596529 
L 264.533526 -203.693075 
L 262.257142 -200.789621 
L 260.644634 -197.886166 
L 259.461003 -194.982712 
L 258.233058 -192.079258 
L 256.446741 -189.175804 
L 253.744179 -186.27235 
L 250.056276 -183.368896 
L 245.625426 -180.465442 
L 240.915908 -177.561988 
L 236.456757 -174.658534 
L 232.682943 -171.75508 
L 229.829945 -168.851626 
L 227.909892 -165.948172 
L 226.765036 -163.044718 
L 226.163046 -160.141264 
L 225.884927 -157.23781 
L 225.772302 -154.334356 
z
" id="m83e4a1cc0f" style="stroke:#262626;stroke-width:1.5;"/>
    </defs>
    <g clip-path="url(#p9d5fae94d7)">
     <use style="fill:#b55d60;stroke:#262626;stroke-width:1.5;" x="0" xlink:href="#m83e4a1cc0f" y="852.24475"/>
    </g>
   </g>
   <g id="PolyCollection_2">
    <defs>
     <path d="M 411.749469 -147.057181 
L 411.681781 -147.057181 
L 411.622161 -151.230334 
L 411.487591 -155.403488 
L 411.222605 -159.576641 
L 410.766776 -163.749795 
L 410.079023 -167.922948 
L 409.160102 -172.096102 
L 408.050351 -176.269255 
L 406.791173 -180.442409 
L 405.369067 -184.615562 
L 403.685785 -188.788716 
L 401.59104 -192.961869 
L 398.972854 -197.135023 
L 395.853001 -201.308177 
L 392.42103 -205.48133 
L 388.978524 -209.654484 
L 385.826637 -213.827637 
L 383.161888 -218.000791 
L 381.028544 -222.173944 
L 379.33882 -226.347098 
L 377.943616 -230.520251 
L 376.718889 -234.693405 
L 375.625615 -238.866558 
L 374.7148 -243.039712 
L 374.082182 -247.212865 
L 373.808521 -251.386019 
L 373.926337 -255.559172 
L 374.425842 -259.732326 
L 375.272903 -263.905479 
L 376.401847 -268.078633 
L 377.685916 -272.251787 
L 378.937686 -276.42494 
L 379.981536 -280.598094 
L 380.762399 -284.771247 
L 381.394861 -288.944401 
L 382.097519 -293.117554 
L 383.064767 -297.290708 
L 384.380978 -301.463861 
L 386.025847 -305.637015 
L 387.929923 -309.810168 
L 390.013585 -313.983322 
L 392.185896 -318.156475 
L 394.327983 -322.329629 
L 396.295518 -326.502782 
L 397.953889 -330.675936 
L 399.232328 -334.84909 
L 400.164571 -339.022243 
L 400.882809 -343.195397 
L 401.556412 -347.36855 
L 402.307309 -351.541704 
L 403.155441 -355.714857 
L 404.025599 -359.888011 
L 404.802672 -364.061164 
L 405.398517 -368.234318 
L 405.799033 -372.407471 
L 406.072406 -376.580625 
L 406.332373 -380.753778 
L 406.674355 -384.926932 
L 407.124744 -389.100085 
L 407.636281 -393.273239 
L 408.126765 -397.446393 
L 408.528335 -401.619546 
L 408.814077 -405.7927 
L 408.991666 -409.965853 
L 409.078947 -414.139007 
L 409.085352 -418.31216 
L 409.011854 -422.485314 
L 408.864386 -426.658467 
L 408.667198 -430.831621 
L 408.465494 -435.004774 
L 408.313783 -439.177928 
L 408.254557 -443.351081 
L 408.299382 -447.524235 
L 408.425231 -451.697388 
L 408.589312 -455.870542 
L 408.753114 -460.043696 
L 408.90095 -464.216849 
L 409.042623 -468.390003 
L 409.199843 -472.563156 
L 409.386425 -476.73631 
L 409.596717 -480.909463 
L 409.810579 -485.082617 
L 410.010165 -489.25577 
L 410.194374 -493.428924 
L 410.378754 -497.602077 
L 410.580636 -501.775231 
L 410.801971 -505.948384 
L 411.024416 -510.121538 
L 411.220084 -514.294691 
L 411.368006 -518.467845 
L 411.463744 -522.640999 
L 411.517963 -526.814152 
L 411.54837 -530.987306 
L 411.571289 -535.160459 
L 411.59636 -539.333613 
L 411.625366 -543.506766 
L 411.65468 -547.67992 
L 411.679458 -551.853073 
L 411.696931 -556.026227 
L 411.707258 -560.19938 
L 411.723992 -560.19938 
L 411.723992 -560.19938 
L 411.734319 -556.026227 
L 411.751792 -551.853073 
L 411.77657 -547.67992 
L 411.805884 -543.506766 
L 411.83489 -539.333613 
L 411.859961 -535.160459 
L 411.88288 -530.987306 
L 411.913287 -526.814152 
L 411.967506 -522.640999 
L 412.063244 -518.467845 
L 412.211166 -514.294691 
L 412.406834 -510.121538 
L 412.629279 -505.948384 
L 412.850614 -501.775231 
L 413.052496 -497.602077 
L 413.236876 -493.428924 
L 413.421085 -489.25577 
L 413.620671 -485.082617 
L 413.834533 -480.909463 
L 414.044825 -476.73631 
L 414.231407 -472.563156 
L 414.388627 -468.390003 
L 414.5303 -464.216849 
L 414.678136 -460.043696 
L 414.841938 -455.870542 
L 415.006019 -451.697388 
L 415.131868 -447.524235 
L 415.176693 -443.351081 
L 415.117467 -439.177928 
L 414.965756 -435.004774 
L 414.764052 -430.831621 
L 414.566864 -426.658467 
L 414.419396 -422.485314 
L 414.345898 -418.31216 
L 414.352303 -414.139007 
L 414.439584 -409.965853 
L 414.617173 -405.7927 
L 414.902915 -401.619546 
L 415.304485 -397.446393 
L 415.794969 -393.273239 
L 416.306506 -389.100085 
L 416.756895 -384.926932 
L 417.098877 -380.753778 
L 417.358844 -376.580625 
L 417.632217 -372.407471 
L 418.032733 -368.234318 
L 418.628578 -364.061164 
L 419.405651 -359.888011 
L 420.275809 -355.714857 
L 421.123941 -351.541704 
L 421.874838 -347.36855 
L 422.548441 -343.195397 
L 423.266679 -339.022243 
L 424.198922 -334.84909 
L 425.477361 -330.675936 
L 427.135732 -326.502782 
L 429.103267 -322.329629 
L 431.245354 -318.156475 
L 433.417665 -313.983322 
L 435.501327 -309.810168 
L 437.405403 -305.637015 
L 439.050272 -301.463861 
L 440.366483 -297.290708 
L 441.333731 -293.117554 
L 442.036389 -288.944401 
L 442.668851 -284.771247 
L 443.449714 -280.598094 
L 444.493564 -276.42494 
L 445.745334 -272.251787 
L 447.029403 -268.078633 
L 448.158347 -263.905479 
L 449.005408 -259.732326 
L 449.504913 -255.559172 
L 449.622729 -251.386019 
L 449.349068 -247.212865 
L 448.71645 -243.039712 
L 447.805635 -238.866558 
L 446.712361 -234.693405 
L 445.487634 -230.520251 
L 444.09243 -226.347098 
L 442.402706 -222.173944 
L 440.269362 -218.000791 
L 437.604613 -213.827637 
L 434.452726 -209.654484 
L 431.01022 -205.48133 
L 427.578249 -201.308177 
L 424.458396 -197.135023 
L 421.84021 -192.961869 
L 419.745465 -188.788716 
L 418.062183 -184.615562 
L 416.640077 -180.442409 
L 415.380899 -176.269255 
L 414.271148 -172.096102 
L 413.352227 -167.922948 
L 412.664474 -163.749795 
L 412.208645 -159.576641 
L 411.943659 -155.403488 
L 411.809089 -151.230334 
L 411.749469 -147.057181 
z
" id="m478f500d57" style="stroke:#262626;stroke-width:1.5;"/>
    </defs>
    <g clip-path="url(#p9d5fae94d7)">
     <use style="fill:#5875a4;stroke:#262626;stroke-width:1.5;" x="0" xlink:href="#m478f500d57" y="852.24475"/>
    </g>
   </g>
   <g id="PolyCollection_3">
    <defs>
     <path d="M 600.900815 -170.636779 
L 594.530435 -170.636779 
L 593.977857 -171.771104 
L 593.354023 -172.905429 
L 592.65431 -174.039754 
L 591.87454 -175.174079 
L 591.01109 -176.308404 
L 590.061006 -177.442729 
L 589.022092 -178.577055 
L 587.892993 -179.71138 
L 586.673245 -180.845705 
L 585.363309 -181.98003 
L 583.964568 -183.114355 
L 582.4793 -184.24868 
L 580.910627 -185.383005 
L 579.262428 -186.51733 
L 577.539242 -187.651655 
L 575.74615 -188.78598 
L 573.888651 -189.920305 
L 571.972539 -191.05463 
L 570.003791 -192.188955 
L 567.988468 -193.32328 
L 565.932648 -194.457605 
L 563.842384 -195.59193 
L 561.723702 -196.726255 
L 559.582631 -197.86058 
L 557.425272 -198.994905 
L 555.257893 -200.12923 
L 553.08705 -201.263555 
L 550.919716 -202.39788 
L 548.763417 -203.532206 
L 546.626346 -204.666531 
L 544.517456 -205.800856 
L 542.44651 -206.935181 
L 540.424082 -208.069506 
L 538.461489 -209.203831 
L 536.570671 -210.338156 
L 534.763985 -211.472481 
L 533.053954 -212.606806 
L 531.452943 -213.741131 
L 529.972805 -214.875456 
L 528.624488 -216.009781 
L 527.417641 -217.144106 
L 526.360233 -218.278431 
L 525.458205 -219.412756 
L 524.715184 -220.547081 
L 524.13227 -221.681406 
L 523.707923 -222.815731 
L 523.437952 -223.950056 
L 523.315625 -225.084381 
L 523.331886 -226.218706 
L 523.47569 -227.353031 
L 523.734429 -228.487357 
L 524.094448 -229.621682 
L 524.541613 -230.756007 
L 525.061914 -231.890332 
L 525.642077 -233.024657 
L 526.270137 -234.158982 
L 526.935972 -235.293307 
L 527.631743 -236.427632 
L 528.352228 -237.561957 
L 529.095039 -238.696282 
L 529.860691 -239.830607 
L 530.652535 -240.964932 
L 531.476547 -242.099257 
L 532.340988 -243.233582 
L 533.255936 -244.367907 
L 534.232742 -245.502232 
L 535.283396 -246.636557 
L 536.419871 -247.770882 
L 537.653456 -248.905207 
L 538.994105 -250.039532 
L 540.449857 -251.173857 
L 542.026328 -252.308182 
L 543.72631 -253.442508 
L 545.549496 -254.576833 
L 547.492335 -255.711158 
L 549.548025 -256.845483 
L 551.706636 -257.979808 
L 553.955368 -259.114133 
L 556.278904 -260.248458 
L 558.659863 -261.382783 
L 561.07932 -262.517108 
L 563.517364 -263.651433 
L 565.953672 -264.785758 
L 568.368083 -265.920083 
L 570.741133 -267.054408 
L 573.054541 -268.188733 
L 575.291631 -269.323058 
L 577.437672 -270.457383 
L 579.480134 -271.591708 
L 581.408855 -272.726033 
L 583.216116 -273.860358 
L 584.896636 -274.994683 
L 586.447498 -276.129008 
L 587.868 -277.263333 
L 589.159458 -278.397659 
L 590.324976 -279.531984 
L 591.369181 -280.666309 
L 592.297948 -281.800634 
L 593.118124 -282.934959 
L 602.313126 -282.934959 
L 602.313126 -282.934959 
L 603.133302 -281.800634 
L 604.062069 -280.666309 
L 605.106274 -279.531984 
L 606.271792 -278.397659 
L 607.56325 -277.263333 
L 608.983752 -276.129008 
L 610.534614 -274.994683 
L 612.215134 -273.860358 
L 614.022395 -272.726033 
L 615.951116 -271.591708 
L 617.993578 -270.457383 
L 620.139619 -269.323058 
L 622.376709 -268.188733 
L 624.690117 -267.054408 
L 627.063167 -265.920083 
L 629.477578 -264.785758 
L 631.913886 -263.651433 
L 634.35193 -262.517108 
L 636.771387 -261.382783 
L 639.152346 -260.248458 
L 641.475882 -259.114133 
L 643.724614 -257.979808 
L 645.883225 -256.845483 
L 647.938915 -255.711158 
L 649.881754 -254.576833 
L 651.70494 -253.442508 
L 653.404922 -252.308182 
L 654.981393 -251.173857 
L 656.437145 -250.039532 
L 657.777794 -248.905207 
L 659.011379 -247.770882 
L 660.147854 -246.636557 
L 661.198508 -245.502232 
L 662.175314 -244.367907 
L 663.090262 -243.233582 
L 663.954703 -242.099257 
L 664.778715 -240.964932 
L 665.570559 -239.830607 
L 666.336211 -238.696282 
L 667.079022 -237.561957 
L 667.799507 -236.427632 
L 668.495278 -235.293307 
L 669.161113 -234.158982 
L 669.789173 -233.024657 
L 670.369336 -231.890332 
L 670.889637 -230.756007 
L 671.336802 -229.621682 
L 671.696821 -228.487357 
L 671.95556 -227.353031 
L 672.099364 -226.218706 
L 672.115625 -225.084381 
L 671.993298 -223.950056 
L 671.723327 -222.815731 
L 671.29898 -221.681406 
L 670.716066 -220.547081 
L 669.973045 -219.412756 
L 669.071017 -218.278431 
L 668.013609 -217.144106 
L 666.806762 -216.009781 
L 665.458445 -214.875456 
L 663.978307 -213.741131 
L 662.377296 -212.606806 
L 660.667265 -211.472481 
L 658.860579 -210.338156 
L 656.969761 -209.203831 
L 655.007168 -208.069506 
L 652.98474 -206.935181 
L 650.913794 -205.800856 
L 648.804904 -204.666531 
L 646.667833 -203.532206 
L 644.511534 -202.39788 
L 642.3442 -201.263555 
L 640.173357 -200.12923 
L 638.005978 -198.994905 
L 635.848619 -197.86058 
L 633.707548 -196.726255 
L 631.588866 -195.59193 
L 629.498602 -194.457605 
L 627.442782 -193.32328 
L 625.427459 -192.188955 
L 623.458711 -191.05463 
L 621.542599 -189.920305 
L 619.6851 -188.78598 
L 617.892008 -187.651655 
L 616.168822 -186.51733 
L 614.520623 -185.383005 
L 612.95195 -184.24868 
L 611.466682 -183.114355 
L 610.067941 -181.98003 
L 608.758005 -180.845705 
L 607.538257 -179.71138 
L 606.409158 -178.577055 
L 605.370244 -177.442729 
L 604.42016 -176.308404 
L 603.55671 -175.174079 
L 602.77694 -174.039754 
L 602.077227 -172.905429 
L 601.453393 -171.771104 
L 600.900815 -170.636779 
z
" id="mb2840a8162" style="stroke:#262626;stroke-width:1.5;"/>
    </defs>
    <g clip-path="url(#p9d5fae94d7)">
     <use style="fill:#107010;stroke:#262626;stroke-width:1.5;" x="0" xlink:href="#mb2840a8162" y="852.24475"/>
    </g>
   </g>
   <g id="line2d_12">
    <path clip-path="url(#p9d5fae94d7)" d="M 225.715625 683.624289 
L 225.715625 490.696123 
" style="fill:none;stroke:#262626;stroke-linecap:round;stroke-width:1.5;"/>
   </g>
   <g id="line2d_13">
    <path clip-path="url(#p9d5fae94d7)" d="M 225.715625 640.082935 
L 225.715625 580.32468 
" style="fill:none;stroke:#262626;stroke-linecap:round;stroke-width:4.5;"/>
   </g>
   <g id="line2d_14">
    <path clip-path="url(#p9d5fae94d7)" d="M 411.715625 684.3635 
L 411.715625 437.043047 
" style="fill:none;stroke:#262626;stroke-linecap:round;stroke-width:1.5;"/>
   </g>
   <g id="line2d_15">
    <path clip-path="url(#p9d5fae94d7)" d="M 411.715625 615.817212 
L 411.715625 544.262086 
" style="fill:none;stroke:#262626;stroke-linecap:round;stroke-width:4.5;"/>
   </g>
   <g id="line2d_16">
    <path clip-path="url(#p9d5fae94d7)" d="M 597.715625 652.829283 
L 597.715625 598.088479 
" style="fill:none;stroke:#262626;stroke-linecap:round;stroke-width:1.5;"/>
   </g>
   <g id="line2d_17">
    <path clip-path="url(#p9d5fae94d7)" d="M 597.715625 633.655886 
L 597.715625 607.201003 
" style="fill:none;stroke:#262626;stroke-linecap:round;stroke-width:4.5;"/>
   </g>
   <g id="line2d_18">
    <path d="M 225.715625 163.7315 
L 225.715625 152.6435 
L 411.715625 152.6435 
L 411.715625 163.7315 
" style="fill:none;stroke:#333333;stroke-linecap:round;stroke-width:1.5;"/>
   </g>
   <g id="line2d_19">
    <path d="M 411.715625 103.1235 
L 411.715625 92.0355 
L 597.715625 92.0355 
L 597.715625 103.1235 
" style="fill:none;stroke:#333333;stroke-linecap:round;stroke-width:1.5;"/>
   </g>
   <g id="line2d_20">
    <path d="M 225.715625 42.5155 
L 225.715625 31.4275 
L 597.715625 31.4275 
L 597.715625 42.5155 
" style="fill:none;stroke:#333333;stroke-linecap:round;stroke-width:1.5;"/>
   </g>
   <g id="patch_3">
    <path d="M 132.715625 734.7635 
L 132.715625 180.3635 
" style="fill:none;stroke:#262626;stroke-linecap:square;stroke-linejoin:miter;stroke-width:1.25;"/>
   </g>
   <g id="patch_4">
    <path d="M 690.715625 734.7635 
L 690.715625 180.3635 
" style="fill:none;stroke:#262626;stroke-linecap:square;stroke-linejoin:miter;stroke-width:1.25;"/>
   </g>
   <g id="patch_5">
    <path d="M 132.715625 734.7635 
L 690.715625 734.7635 
" style="fill:none;stroke:#262626;stroke-linecap:square;stroke-linejoin:miter;stroke-width:1.25;"/>
   </g>
   <g id="patch_6">
    <path d="M 132.715625 180.3635 
L 690.715625 180.3635 
" style="fill:none;stroke:#262626;stroke-linecap:square;stroke-linejoin:miter;stroke-width:1.25;"/>
   </g>
   <g id="PathCollection_1">
    <defs>
     <path d="M 0 1.5 
C 0.397805 1.5 0.77937 1.341951 1.06066 1.06066 
C 1.341951 0.77937 1.5 0.397805 1.5 0 
C 1.5 -0.397805 1.341951 -0.77937 1.06066 -1.06066 
C 0.77937 -1.341951 0.397805 -1.5 0 -1.5 
C -0.397805 -1.5 -0.77937 -1.341951 -1.06066 -1.06066 
C -1.341951 -0.77937 -1.5 -0.397805 -1.5 0 
C -1.5 0.397805 -1.341951 0.77937 -1.06066 1.06066 
C -0.77937 1.341951 -0.397805 1.5 0 1.5 
z
" id="m1f70d55882" style="stroke:#262626;"/>
    </defs>
    <g clip-path="url(#p9d5fae94d7)">
     <use style="fill:#ffffff;stroke:#262626;" x="225.715625" xlink:href="#m1f70d55882" y="608.218722"/>
    </g>
   </g>
   <g id="PathCollection_2">
    <g clip-path="url(#p9d5fae94d7)">
     <use style="fill:#ffffff;stroke:#262626;" x="411.715625" xlink:href="#m1f70d55882" y="584.034317"/>
    </g>
   </g>
   <g id="PathCollection_3">
    <g clip-path="url(#p9d5fae94d7)">
     <use style="fill:#ffffff;stroke:#262626;" x="597.715625" xlink:href="#m1f70d55882" y="625.525157"/>
    </g>
   </g>
   <g id="text_14">
    <!-- Ranksum p = 1.293e-282 -->
    <defs>
     <path d="M 34.28125 27.484375 
Q 23.390625 27.484375 19.1875 25 
Q 14.984375 22.515625 14.984375 16.5 
Q 14.984375 11.71875 18.140625 8.90625 
Q 21.296875 6.109375 26.703125 6.109375 
Q 34.1875 6.109375 38.703125 11.40625 
Q 43.21875 16.703125 43.21875 25.484375 
L 43.21875 27.484375 
z
M 52.203125 31.203125 
L 52.203125 0 
L 43.21875 0 
L 43.21875 8.296875 
Q 40.140625 3.328125 35.546875 0.953125 
Q 30.953125 -1.421875 24.3125 -1.421875 
Q 15.921875 -1.421875 10.953125 3.296875 
Q 6 8.015625 6 15.921875 
Q 6 25.140625 12.171875 29.828125 
Q 18.359375 34.515625 30.609375 34.515625 
L 43.21875 34.515625 
L 43.21875 35.40625 
Q 43.21875 41.609375 39.140625 45 
Q 35.0625 48.390625 27.6875 48.390625 
Q 23 48.390625 18.546875 47.265625 
Q 14.109375 46.140625 10.015625 43.890625 
L 10.015625 52.203125 
Q 14.9375 54.109375 19.578125 55.046875 
Q 24.21875 56 28.609375 56 
Q 40.484375 56 46.34375 49.84375 
Q 52.203125 43.703125 52.203125 31.203125 
z
" id="DejaVuSans-97"/>
     <path d="M 9.078125 75.984375 
L 18.109375 75.984375 
L 18.109375 31.109375 
L 44.921875 54.6875 
L 56.390625 54.6875 
L 27.390625 29.109375 
L 57.625 0 
L 45.90625 0 
L 18.109375 26.703125 
L 18.109375 0 
L 9.078125 0 
z
" id="DejaVuSans-107"/>
     <path d="M 8.5 21.578125 
L 8.5 54.6875 
L 17.484375 54.6875 
L 17.484375 21.921875 
Q 17.484375 14.15625 20.5 10.265625 
Q 23.53125 6.390625 29.59375 6.390625 
Q 36.859375 6.390625 41.078125 11.03125 
Q 45.3125 15.671875 45.3125 23.6875 
L 45.3125 54.6875 
L 54.296875 54.6875 
L 54.296875 0 
L 45.3125 0 
L 45.3125 8.40625 
Q 42.046875 3.421875 37.71875 1 
Q 33.40625 -1.421875 27.6875 -1.421875 
Q 18.265625 -1.421875 13.375 4.4375 
Q 8.5 10.296875 8.5 21.578125 
z
M 31.109375 56 
z
" id="DejaVuSans-117"/>
     <path d="M 52 44.1875 
Q 55.375 50.25 60.0625 53.125 
Q 64.75 56 71.09375 56 
Q 79.640625 56 84.28125 50.015625 
Q 88.921875 44.046875 88.921875 33.015625 
L 88.921875 0 
L 79.890625 0 
L 79.890625 32.71875 
Q 79.890625 40.578125 77.09375 44.375 
Q 74.3125 48.1875 68.609375 48.1875 
Q 61.625 48.1875 57.5625 43.546875 
Q 53.515625 38.921875 53.515625 30.90625 
L 53.515625 0 
L 44.484375 0 
L 44.484375 32.71875 
Q 44.484375 40.625 41.703125 44.40625 
Q 38.921875 48.1875 33.109375 48.1875 
Q 26.21875 48.1875 22.15625 43.53125 
Q 18.109375 38.875 18.109375 30.90625 
L 18.109375 0 
L 9.078125 0 
L 9.078125 54.6875 
L 18.109375 54.6875 
L 18.109375 46.1875 
Q 21.1875 51.21875 25.484375 53.609375 
Q 29.78125 56 35.6875 56 
Q 41.65625 56 45.828125 52.96875 
Q 50 49.953125 52 44.1875 
z
" id="DejaVuSans-109"/>
     <path id="DejaVuSans-32"/>
     <path d="M 10.59375 45.40625 
L 73.1875 45.40625 
L 73.1875 37.203125 
L 10.59375 37.203125 
z
M 10.59375 25.484375 
L 73.1875 25.484375 
L 73.1875 17.1875 
L 10.59375 17.1875 
z
" id="DejaVuSans-61"/>
     <path d="M 10.6875 12.40625 
L 21 12.40625 
L 21 0 
L 10.6875 0 
z
" id="DejaVuSans-46"/>
     <path d="M 10.984375 1.515625 
L 10.984375 10.5 
Q 14.703125 8.734375 18.5 7.8125 
Q 22.3125 6.890625 25.984375 6.890625 
Q 35.75 6.890625 40.890625 13.453125 
Q 46.046875 20.015625 46.78125 33.40625 
Q 43.953125 29.203125 39.59375 26.953125 
Q 35.25 24.703125 29.984375 24.703125 
Q 19.046875 24.703125 12.671875 31.3125 
Q 6.296875 37.9375 6.296875 49.421875 
Q 6.296875 60.640625 12.9375 67.421875 
Q 19.578125 74.21875 30.609375 74.21875 
Q 43.265625 74.21875 49.921875 64.515625 
Q 56.59375 54.828125 56.59375 36.375 
Q 56.59375 19.140625 48.40625 8.859375 
Q 40.234375 -1.421875 26.421875 -1.421875 
Q 22.703125 -1.421875 18.890625 -0.6875 
Q 15.09375 0.046875 10.984375 1.515625 
z
M 30.609375 32.421875 
Q 37.25 32.421875 41.125 36.953125 
Q 45.015625 41.5 45.015625 49.421875 
Q 45.015625 57.28125 41.125 61.84375 
Q 37.25 66.40625 30.609375 66.40625 
Q 23.96875 66.40625 20.09375 61.84375 
Q 16.21875 57.28125 16.21875 49.421875 
Q 16.21875 41.5 20.09375 36.953125 
Q 23.96875 32.421875 30.609375 32.421875 
z
" id="DejaVuSans-57"/>
     <path d="M 40.578125 39.3125 
Q 47.65625 37.796875 51.625 33 
Q 55.609375 28.21875 55.609375 21.1875 
Q 55.609375 10.40625 48.1875 4.484375 
Q 40.765625 -1.421875 27.09375 -1.421875 
Q 22.515625 -1.421875 17.65625 -0.515625 
Q 12.796875 0.390625 7.625 2.203125 
L 7.625 11.71875 
Q 11.71875 9.328125 16.59375 8.109375 
Q 21.484375 6.890625 26.8125 6.890625 
Q 36.078125 6.890625 40.9375 10.546875 
Q 45.796875 14.203125 45.796875 21.1875 
Q 45.796875 27.640625 41.28125 31.265625 
Q 36.765625 34.90625 28.71875 34.90625 
L 20.21875 34.90625 
L 20.21875 43.015625 
L 29.109375 43.015625 
Q 36.375 43.015625 40.234375 45.921875 
Q 44.09375 48.828125 44.09375 54.296875 
Q 44.09375 59.90625 40.109375 62.90625 
Q 36.140625 65.921875 28.71875 65.921875 
Q 24.65625 65.921875 20.015625 65.03125 
Q 15.375 64.15625 9.8125 62.3125 
L 9.8125 71.09375 
Q 15.4375 72.65625 20.34375 73.4375 
Q 25.25 74.21875 29.59375 74.21875 
Q 40.828125 74.21875 47.359375 69.109375 
Q 53.90625 64.015625 53.90625 55.328125 
Q 53.90625 49.265625 50.4375 45.09375 
Q 46.96875 40.921875 40.578125 39.3125 
z
" id="DejaVuSans-51"/>
    </defs>
    <g style="fill:#262626;" transform="translate(165.108125 146.65225)scale(0.24 -0.24)">
     <use xlink:href="#DejaVuSans-82"/>
     <use x="67.232422" xlink:href="#DejaVuSans-97"/>
     <use x="128.511719" xlink:href="#DejaVuSans-110"/>
     <use x="191.890625" xlink:href="#DejaVuSans-107"/>
     <use x="249.800781" xlink:href="#DejaVuSans-115"/>
     <use x="301.900391" xlink:href="#DejaVuSans-117"/>
     <use x="365.279297" xlink:href="#DejaVuSans-109"/>
     <use x="462.691406" xlink:href="#DejaVuSans-32"/>
     <use x="494.478516" xlink:href="#DejaVuSans-112"/>
     <use x="557.955078" xlink:href="#DejaVuSans-32"/>
     <use x="589.742188" xlink:href="#DejaVuSans-61"/>
     <use x="673.53125" xlink:href="#DejaVuSans-32"/>
     <use x="705.318359" xlink:href="#DejaVuSans-49"/>
     <use x="768.941406" xlink:href="#DejaVuSans-46"/>
     <use x="800.728516" xlink:href="#DejaVuSans-50"/>
     <use x="864.351562" xlink:href="#DejaVuSans-57"/>
     <use x="927.974609" xlink:href="#DejaVuSans-51"/>
     <use x="991.597656" xlink:href="#DejaVuSans-101"/>
     <use x="1053.121094" xlink:href="#DejaVuSans-45"/>
     <use x="1089.205078" xlink:href="#DejaVuSans-50"/>
     <use x="1152.828125" xlink:href="#DejaVuSans-56"/>
     <use x="1216.451172" xlink:href="#DejaVuSans-50"/>
    </g>
   </g>
   <g id="text_15">
    <!-- Ranksum p = 1.383e-02 -->
    <g style="fill:#262626;" transform="translate(358.743125 86.04425)scale(0.24 -0.24)">
     <use xlink:href="#DejaVuSans-82"/>
     <use x="67.232422" xlink:href="#DejaVuSans-97"/>
     <use x="128.511719" xlink:href="#DejaVuSans-110"/>
     <use x="191.890625" xlink:href="#DejaVuSans-107"/>
     <use x="249.800781" xlink:href="#DejaVuSans-115"/>
     <use x="301.900391" xlink:href="#DejaVuSans-117"/>
     <use x="365.279297" xlink:href="#DejaVuSans-109"/>
     <use x="462.691406" xlink:href="#DejaVuSans-32"/>
     <use x="494.478516" xlink:href="#DejaVuSans-112"/>
     <use x="557.955078" xlink:href="#DejaVuSans-32"/>
     <use x="589.742188" xlink:href="#DejaVuSans-61"/>
     <use x="673.53125" xlink:href="#DejaVuSans-32"/>
     <use x="705.318359" xlink:href="#DejaVuSans-49"/>
     <use x="768.941406" xlink:href="#DejaVuSans-46"/>
     <use x="800.728516" xlink:href="#DejaVuSans-51"/>
     <use x="864.351562" xlink:href="#DejaVuSans-56"/>
     <use x="927.974609" xlink:href="#DejaVuSans-51"/>
     <use x="991.597656" xlink:href="#DejaVuSans-101"/>
     <use x="1053.121094" xlink:href="#DejaVuSans-45"/>
     <use x="1089.205078" xlink:href="#DejaVuSans-48"/>
     <use x="1152.828125" xlink:href="#DejaVuSans-50"/>
    </g>
   </g>
   <g id="text_16">
    <!-- Ranksum p = 3.630e-01 -->
    <g style="fill:#262626;" transform="translate(265.743125 25.43625)scale(0.24 -0.24)">
     <use xlink:href="#DejaVuSans-82"/>
     <use x="67.232422" xlink:href="#DejaVuSans-97"/>
     <use x="128.511719" xlink:href="#DejaVuSans-110"/>
     <use x="191.890625" xlink:href="#DejaVuSans-107"/>
     <use x="249.800781" xlink:href="#DejaVuSans-115"/>
     <use x="301.900391" xlink:href="#DejaVuSans-117"/>
     <use x="365.279297" xlink:href="#DejaVuSans-109"/>
     <use x="462.691406" xlink:href="#DejaVuSans-32"/>
     <use x="494.478516" xlink:href="#DejaVuSans-112"/>
     <use x="557.955078" xlink:href="#DejaVuSans-32"/>
     <use x="589.742188" xlink:href="#DejaVuSans-61"/>
     <use x="673.53125" xlink:href="#DejaVuSans-32"/>
     <use x="705.318359" xlink:href="#DejaVuSans-51"/>
     <use x="768.941406" xlink:href="#DejaVuSans-46"/>
     <use x="800.728516" xlink:href="#DejaVuSans-54"/>
     <use x="864.351562" xlink:href="#DejaVuSans-51"/>
     <use x="927.974609" xlink:href="#DejaVuSans-48"/>
     <use x="991.597656" xlink:href="#DejaVuSans-101"/>
     <use x="1053.121094" xlink:href="#DejaVuSans-45"/>
     <use x="1089.205078" xlink:href="#DejaVuSans-48"/>
     <use x="1152.828125" xlink:href="#DejaVuSans-49"/>
    </g>
   </g>
  </g>
 </g>
 <defs>
  <clipPath id="p9d5fae94d7">
   <rect height="554.4" width="558" x="132.715625" y="180.3635"/>
  </clipPath>
 </defs>
</svg>
