<?xml version="1.0" encoding="utf-8" standalone="no"?>
<!DOCTYPE svg PUBLIC "-//W3C//DTD SVG 1.1//EN"
  "http://www.w3.org/Graphics/SVG/1.1/DTD/svg11.dtd">
<!-- Created with matplotlib (https://matplotlib.org/) -->
<svg height="852.24475pt" version="1.1" viewBox="0 0 697.915625 852.24475" width="697.915625pt" xmlns="http://www.w3.org/2000/svg" xmlns:xlink="http://www.w3.org/1999/xlink">
 <defs>
  <style type="text/css">
*{stroke-linecap:butt;stroke-linejoin:round;}
  </style>
 </defs>
 <g id="figure_1">
  <g id="patch_1">
   <path d="M 0 852.24475 
L 697.915625 852.24475 
L 697.915625 0 
L 0 0 
z
" style="fill:#ffffff;"/>
  </g>
  <g id="axes_1">
   <g id="patch_2">
    <path d="M 132.715625 734.7635 
L 690.715625 734.7635 
L 690.715625 180.3635 
L 132.715625 180.3635 
z
" style="fill:#ffffff;"/>
   </g>
   <g id="matplotlib.axis_1">
    <g id="xtick_1">
     <g id="line2d_1">
      <defs>
       <path d="M 0 0 
L 0 6 
" id="m1c538d44c0" style="stroke:#262626;stroke-width:1.25;"/>
      </defs>
      <g>
       <use style="fill:#262626;stroke:#262626;stroke-width:1.25;" x="225.715625" xlink:href="#m1c538d44c0" y="734.7635"/>
      </g>
     </g>
     <g id="text_1">
      <!-- Gs -->
      <defs>
       <path d="M 59.515625 10.40625 
L 59.515625 29.984375 
L 43.40625 29.984375 
L 43.40625 38.09375 
L 69.28125 38.09375 
L 69.28125 6.78125 
Q 63.578125 2.734375 56.6875 0.65625 
Q 49.8125 -1.421875 42 -1.421875 
Q 24.90625 -1.421875 15.25 8.5625 
Q 5.609375 18.5625 5.609375 36.375 
Q 5.609375 54.25 15.25 64.234375 
Q 24.90625 74.21875 42 74.21875 
Q 49.125 74.21875 55.546875 72.453125 
Q 61.96875 70.703125 67.390625 67.28125 
L 67.390625 56.78125 
Q 61.921875 61.421875 55.765625 63.765625 
Q 49.609375 66.109375 42.828125 66.109375 
Q 29.4375 66.109375 22.71875 58.640625 
Q 16.015625 51.171875 16.015625 36.375 
Q 16.015625 21.625 22.71875 14.15625 
Q 29.4375 6.6875 42.828125 6.6875 
Q 48.046875 6.6875 52.140625 7.59375 
Q 56.25 8.5 59.515625 10.40625 
z
" id="DejaVuSans-71"/>
       <path d="M 44.28125 53.078125 
L 44.28125 44.578125 
Q 40.484375 46.53125 36.375 47.5 
Q 32.28125 48.484375 27.875 48.484375 
Q 21.1875 48.484375 17.84375 46.4375 
Q 14.5 44.390625 14.5 40.28125 
Q 14.5 37.15625 16.890625 35.375 
Q 19.28125 33.59375 26.515625 31.984375 
L 29.59375 31.296875 
Q 39.15625 29.25 43.1875 25.515625 
Q 47.21875 21.78125 47.21875 15.09375 
Q 47.21875 7.46875 41.1875 3.015625 
Q 35.15625 -1.421875 24.609375 -1.421875 
Q 20.21875 -1.421875 15.453125 -0.5625 
Q 10.6875 0.296875 5.421875 2 
L 5.421875 11.28125 
Q 10.40625 8.6875 15.234375 7.390625 
Q 20.0625 6.109375 24.8125 6.109375 
Q 31.15625 6.109375 34.5625 8.28125 
Q 37.984375 10.453125 37.984375 14.40625 
Q 37.984375 18.0625 35.515625 20.015625 
Q 33.0625 21.96875 24.703125 23.78125 
L 21.578125 24.515625 
Q 13.234375 26.265625 9.515625 29.90625 
Q 5.8125 33.546875 5.8125 39.890625 
Q 5.8125 47.609375 11.28125 51.796875 
Q 16.75 56 26.8125 56 
Q 31.78125 56 36.171875 55.265625 
Q 40.578125 54.546875 44.28125 53.078125 
z
" id="DejaVuSans-115"/>
      </defs>
      <g style="fill:#262626;" transform="translate(193.321094 782.255688)scale(0.5 -0.5)">
       <use xlink:href="#DejaVuSans-71"/>
       <use x="77.490234" xlink:href="#DejaVuSans-115"/>
      </g>
     </g>
    </g>
    <g id="xtick_2">
     <g id="line2d_2">
      <g>
       <use style="fill:#262626;stroke:#262626;stroke-width:1.25;" x="411.715625" xlink:href="#m1c538d44c0" y="734.7635"/>
      </g>
     </g>
     <g id="text_2">
      <!-- Gio -->
      <defs>
       <path d="M 9.421875 54.6875 
L 18.40625 54.6875 
L 18.40625 0 
L 9.421875 0 
z
M 9.421875 75.984375 
L 18.40625 75.984375 
L 18.40625 64.59375 
L 9.421875 64.59375 
z
" id="DejaVuSans-105"/>
       <path d="M 30.609375 48.390625 
Q 23.390625 48.390625 19.1875 42.75 
Q 14.984375 37.109375 14.984375 27.296875 
Q 14.984375 17.484375 19.15625 11.84375 
Q 23.34375 6.203125 30.609375 6.203125 
Q 37.796875 6.203125 41.984375 11.859375 
Q 46.1875 17.53125 46.1875 27.296875 
Q 46.1875 37.015625 41.984375 42.703125 
Q 37.796875 48.390625 30.609375 48.390625 
z
M 30.609375 56 
Q 42.328125 56 49.015625 48.375 
Q 55.71875 40.765625 55.71875 27.296875 
Q 55.71875 13.875 49.015625 6.21875 
Q 42.328125 -1.421875 30.609375 -1.421875 
Q 18.84375 -1.421875 12.171875 6.21875 
Q 5.515625 13.875 5.515625 27.296875 
Q 5.515625 40.765625 12.171875 48.375 
Q 18.84375 56 30.609375 56 
z
" id="DejaVuSans-111"/>
      </defs>
      <g style="fill:#262626;" transform="translate(370.102344 782.255688)scale(0.5 -0.5)">
       <use xlink:href="#DejaVuSans-71"/>
       <use x="77.490234" xlink:href="#DejaVuSans-105"/>
       <use x="105.273438" xlink:href="#DejaVuSans-111"/>
      </g>
     </g>
    </g>
    <g id="xtick_3">
     <g id="line2d_3">
      <g>
       <use style="fill:#262626;stroke:#262626;stroke-width:1.25;" x="597.715625" xlink:href="#m1c538d44c0" y="734.7635"/>
      </g>
     </g>
     <g id="text_3">
      <!-- Gq11 -->
      <defs>
       <path d="M 14.796875 27.296875 
Q 14.796875 17.390625 18.875 11.75 
Q 22.953125 6.109375 30.078125 6.109375 
Q 37.203125 6.109375 41.296875 11.75 
Q 45.40625 17.390625 45.40625 27.296875 
Q 45.40625 37.203125 41.296875 42.84375 
Q 37.203125 48.484375 30.078125 48.484375 
Q 22.953125 48.484375 18.875 42.84375 
Q 14.796875 37.203125 14.796875 27.296875 
z
M 45.40625 8.203125 
Q 42.578125 3.328125 38.25 0.953125 
Q 33.9375 -1.421875 27.875 -1.421875 
Q 17.96875 -1.421875 11.734375 6.484375 
Q 5.515625 14.40625 5.515625 27.296875 
Q 5.515625 40.1875 11.734375 48.09375 
Q 17.96875 56 27.875 56 
Q 33.9375 56 38.25 53.625 
Q 42.578125 51.265625 45.40625 46.390625 
L 45.40625 54.6875 
L 54.390625 54.6875 
L 54.390625 -20.796875 
L 45.40625 -20.796875 
z
" id="DejaVuSans-113"/>
       <path d="M 12.40625 8.296875 
L 28.515625 8.296875 
L 28.515625 63.921875 
L 10.984375 60.40625 
L 10.984375 69.390625 
L 28.421875 72.90625 
L 38.28125 72.90625 
L 38.28125 8.296875 
L 54.390625 8.296875 
L 54.390625 0 
L 12.40625 0 
z
" id="DejaVuSans-49"/>
      </defs>
      <g style="fill:#262626;" transform="translate(530.660938 782.255688)scale(0.5 -0.5)">
       <use xlink:href="#DejaVuSans-71"/>
       <use x="77.490234" xlink:href="#DejaVuSans-113"/>
       <use x="140.966797" xlink:href="#DejaVuSans-49"/>
       <use x="204.589844" xlink:href="#DejaVuSans-49"/>
      </g>
     </g>
    </g>
    <g id="text_4">
     <!-- G-protein -->
     <defs>
      <path d="M 4.890625 31.390625 
L 31.203125 31.390625 
L 31.203125 23.390625 
L 4.890625 23.390625 
z
" id="DejaVuSans-45"/>
      <path d="M 18.109375 8.203125 
L 18.109375 -20.796875 
L 9.078125 -20.796875 
L 9.078125 54.6875 
L 18.109375 54.6875 
L 18.109375 46.390625 
Q 20.953125 51.265625 25.265625 53.625 
Q 29.59375 56 35.59375 56 
Q 45.5625 56 51.78125 48.09375 
Q 58.015625 40.1875 58.015625 27.296875 
Q 58.015625 14.40625 51.78125 6.484375 
Q 45.5625 -1.421875 35.59375 -1.421875 
Q 29.59375 -1.421875 25.265625 0.953125 
Q 20.953125 3.328125 18.109375 8.203125 
z
M 48.6875 27.296875 
Q 48.6875 37.203125 44.609375 42.84375 
Q 40.53125 48.484375 33.40625 48.484375 
Q 26.265625 48.484375 22.1875 42.84375 
Q 18.109375 37.203125 18.109375 27.296875 
Q 18.109375 17.390625 22.1875 11.75 
Q 26.265625 6.109375 33.40625 6.109375 
Q 40.53125 6.109375 44.609375 11.75 
Q 48.6875 17.390625 48.6875 27.296875 
z
" id="DejaVuSans-112"/>
      <path d="M 41.109375 46.296875 
Q 39.59375 47.171875 37.8125 47.578125 
Q 36.03125 48 33.890625 48 
Q 26.265625 48 22.1875 43.046875 
Q 18.109375 38.09375 18.109375 28.8125 
L 18.109375 0 
L 9.078125 0 
L 9.078125 54.6875 
L 18.109375 54.6875 
L 18.109375 46.1875 
Q 20.953125 51.171875 25.484375 53.578125 
Q 30.03125 56 36.53125 56 
Q 37.453125 56 38.578125 55.875 
Q 39.703125 55.765625 41.0625 55.515625 
z
" id="DejaVuSans-114"/>
      <path d="M 18.3125 70.21875 
L 18.3125 54.6875 
L 36.8125 54.6875 
L 36.8125 47.703125 
L 18.3125 47.703125 
L 18.3125 18.015625 
Q 18.3125 11.328125 20.140625 9.421875 
Q 21.96875 7.515625 27.59375 7.515625 
L 36.8125 7.515625 
L 36.8125 0 
L 27.59375 0 
Q 17.1875 0 13.234375 3.875 
Q 9.28125 7.765625 9.28125 18.015625 
L 9.28125 47.703125 
L 2.6875 47.703125 
L 2.6875 54.6875 
L 9.28125 54.6875 
L 9.28125 70.21875 
z
" id="DejaVuSans-116"/>
      <path d="M 56.203125 29.59375 
L 56.203125 25.203125 
L 14.890625 25.203125 
Q 15.484375 15.921875 20.484375 11.0625 
Q 25.484375 6.203125 34.421875 6.203125 
Q 39.59375 6.203125 44.453125 7.46875 
Q 49.3125 8.734375 54.109375 11.28125 
L 54.109375 2.78125 
Q 49.265625 0.734375 44.1875 -0.34375 
Q 39.109375 -1.421875 33.890625 -1.421875 
Q 20.796875 -1.421875 13.15625 6.1875 
Q 5.515625 13.8125 5.515625 26.8125 
Q 5.515625 40.234375 12.765625 48.109375 
Q 20.015625 56 32.328125 56 
Q 43.359375 56 49.78125 48.890625 
Q 56.203125 41.796875 56.203125 29.59375 
z
M 47.21875 32.234375 
Q 47.125 39.59375 43.09375 43.984375 
Q 39.0625 48.390625 32.421875 48.390625 
Q 24.90625 48.390625 20.390625 44.140625 
Q 15.875 39.890625 15.1875 32.171875 
z
" id="DejaVuSans-101"/>
      <path d="M 54.890625 33.015625 
L 54.890625 0 
L 45.90625 0 
L 45.90625 32.71875 
Q 45.90625 40.484375 42.875 44.328125 
Q 39.84375 48.1875 33.796875 48.1875 
Q 26.515625 48.1875 22.3125 43.546875 
Q 18.109375 38.921875 18.109375 30.90625 
L 18.109375 0 
L 9.078125 0 
L 9.078125 54.6875 
L 18.109375 54.6875 
L 18.109375 46.1875 
Q 21.34375 51.125 25.703125 53.5625 
Q 30.078125 56 35.796875 56 
Q 45.21875 56 50.046875 50.171875 
Q 54.890625 44.34375 54.890625 33.015625 
z
" id="DejaVuSans-110"/>
     </defs>
     <g style="fill:#262626;" transform="translate(294.469531 834.646313)scale(0.5 -0.5)">
      <use xlink:href="#DejaVuSans-71"/>
      <use x="77.490234" xlink:href="#DejaVuSans-45"/>
      <use x="113.574219" xlink:href="#DejaVuSans-112"/>
      <use x="177.050781" xlink:href="#DejaVuSans-114"/>
      <use x="215.914062" xlink:href="#DejaVuSans-111"/>
      <use x="277.095703" xlink:href="#DejaVuSans-116"/>
      <use x="316.304688" xlink:href="#DejaVuSans-101"/>
      <use x="377.828125" xlink:href="#DejaVuSans-105"/>
      <use x="405.611328" xlink:href="#DejaVuSans-110"/>
     </g>
    </g>
   </g>
   <g id="matplotlib.axis_2">
    <g id="ytick_1">
     <g id="line2d_4">
      <defs>
       <path d="M 0 0 
L -6 0 
" id="me26742be5a" style="stroke:#262626;stroke-width:1.25;"/>
      </defs>
      <g>
       <use style="fill:#262626;stroke:#262626;stroke-width:1.25;" x="132.715625" xlink:href="#me26742be5a" y="684.3635"/>
      </g>
     </g>
     <g id="text_5">
      <!-- 0 -->
      <defs>
       <path d="M 31.78125 66.40625 
Q 24.171875 66.40625 20.328125 58.90625 
Q 16.5 51.421875 16.5 36.375 
Q 16.5 21.390625 20.328125 13.890625 
Q 24.171875 6.390625 31.78125 6.390625 
Q 39.453125 6.390625 43.28125 13.890625 
Q 47.125 21.390625 47.125 36.375 
Q 47.125 51.421875 43.28125 58.90625 
Q 39.453125 66.40625 31.78125 66.40625 
z
M 31.78125 74.21875 
Q 44.046875 74.21875 50.515625 64.515625 
Q 56.984375 54.828125 56.984375 36.375 
Q 56.984375 17.96875 50.515625 8.265625 
Q 44.046875 -1.421875 31.78125 -1.421875 
Q 19.53125 -1.421875 13.0625 8.265625 
Q 6.59375 17.96875 6.59375 36.375 
Q 6.59375 54.828125 13.0625 64.515625 
Q 19.53125 74.21875 31.78125 74.21875 
z
" id="DejaVuSans-48"/>
      </defs>
      <g style="fill:#262626;" transform="translate(91.403125 703.359594)scale(0.5 -0.5)">
       <use xlink:href="#DejaVuSans-48"/>
      </g>
     </g>
    </g>
    <g id="ytick_2">
     <g id="line2d_5">
      <g>
       <use style="fill:#262626;stroke:#262626;stroke-width:1.25;" x="132.715625" xlink:href="#me26742be5a" y="617.1635"/>
      </g>
     </g>
     <g id="text_6">
      <!-- 4 -->
      <defs>
       <path d="M 37.796875 64.3125 
L 12.890625 25.390625 
L 37.796875 25.390625 
z
M 35.203125 72.90625 
L 47.609375 72.90625 
L 47.609375 25.390625 
L 58.015625 25.390625 
L 58.015625 17.1875 
L 47.609375 17.1875 
L 47.609375 0 
L 37.796875 0 
L 37.796875 17.1875 
L 4.890625 17.1875 
L 4.890625 26.703125 
z
" id="DejaVuSans-52"/>
      </defs>
      <g style="fill:#262626;" transform="translate(91.403125 636.159594)scale(0.5 -0.5)">
       <use xlink:href="#DejaVuSans-52"/>
      </g>
     </g>
    </g>
    <g id="ytick_3">
     <g id="line2d_6">
      <g>
       <use style="fill:#262626;stroke:#262626;stroke-width:1.25;" x="132.715625" xlink:href="#me26742be5a" y="549.9635"/>
      </g>
     </g>
     <g id="text_7">
      <!-- 8 -->
      <defs>
       <path d="M 31.78125 34.625 
Q 24.75 34.625 20.71875 30.859375 
Q 16.703125 27.09375 16.703125 20.515625 
Q 16.703125 13.921875 20.71875 10.15625 
Q 24.75 6.390625 31.78125 6.390625 
Q 38.8125 6.390625 42.859375 10.171875 
Q 46.921875 13.96875 46.921875 20.515625 
Q 46.921875 27.09375 42.890625 30.859375 
Q 38.875 34.625 31.78125 34.625 
z
M 21.921875 38.8125 
Q 15.578125 40.375 12.03125 44.71875 
Q 8.5 49.078125 8.5 55.328125 
Q 8.5 64.0625 14.71875 69.140625 
Q 20.953125 74.21875 31.78125 74.21875 
Q 42.671875 74.21875 48.875 69.140625 
Q 55.078125 64.0625 55.078125 55.328125 
Q 55.078125 49.078125 51.53125 44.71875 
Q 48 40.375 41.703125 38.8125 
Q 48.828125 37.15625 52.796875 32.3125 
Q 56.78125 27.484375 56.78125 20.515625 
Q 56.78125 9.90625 50.3125 4.234375 
Q 43.84375 -1.421875 31.78125 -1.421875 
Q 19.734375 -1.421875 13.25 4.234375 
Q 6.78125 9.90625 6.78125 20.515625 
Q 6.78125 27.484375 10.78125 32.3125 
Q 14.796875 37.15625 21.921875 38.8125 
z
M 18.3125 54.390625 
Q 18.3125 48.734375 21.84375 45.5625 
Q 25.390625 42.390625 31.78125 42.390625 
Q 38.140625 42.390625 41.71875 45.5625 
Q 45.3125 48.734375 45.3125 54.390625 
Q 45.3125 60.0625 41.71875 63.234375 
Q 38.140625 66.40625 31.78125 66.40625 
Q 25.390625 66.40625 21.84375 63.234375 
Q 18.3125 60.0625 18.3125 54.390625 
z
" id="DejaVuSans-56"/>
      </defs>
      <g style="fill:#262626;" transform="translate(91.403125 568.959594)scale(0.5 -0.5)">
       <use xlink:href="#DejaVuSans-56"/>
      </g>
     </g>
    </g>
    <g id="ytick_4">
     <g id="line2d_7">
      <g>
       <use style="fill:#262626;stroke:#262626;stroke-width:1.25;" x="132.715625" xlink:href="#me26742be5a" y="482.7635"/>
      </g>
     </g>
     <g id="text_8">
      <!-- 12 -->
      <defs>
       <path d="M 19.1875 8.296875 
L 53.609375 8.296875 
L 53.609375 0 
L 7.328125 0 
L 7.328125 8.296875 
Q 12.9375 14.109375 22.625 23.890625 
Q 32.328125 33.6875 34.8125 36.53125 
Q 39.546875 41.84375 41.421875 45.53125 
Q 43.3125 49.21875 43.3125 52.78125 
Q 43.3125 58.59375 39.234375 62.25 
Q 35.15625 65.921875 28.609375 65.921875 
Q 23.96875 65.921875 18.8125 64.3125 
Q 13.671875 62.703125 7.8125 59.421875 
L 7.8125 69.390625 
Q 13.765625 71.78125 18.9375 73 
Q 24.125 74.21875 28.421875 74.21875 
Q 39.75 74.21875 46.484375 68.546875 
Q 53.21875 62.890625 53.21875 53.421875 
Q 53.21875 48.921875 51.53125 44.890625 
Q 49.859375 40.875 45.40625 35.40625 
Q 44.1875 33.984375 37.640625 27.21875 
Q 31.109375 20.453125 19.1875 8.296875 
z
" id="DejaVuSans-50"/>
      </defs>
      <g style="fill:#262626;" transform="translate(59.590625 501.759594)scale(0.5 -0.5)">
       <use xlink:href="#DejaVuSans-49"/>
       <use x="63.623047" xlink:href="#DejaVuSans-50"/>
      </g>
     </g>
    </g>
    <g id="ytick_5">
     <g id="line2d_8">
      <g>
       <use style="fill:#262626;stroke:#262626;stroke-width:1.25;" x="132.715625" xlink:href="#me26742be5a" y="415.5635"/>
      </g>
     </g>
     <g id="text_9">
      <!-- 16 -->
      <defs>
       <path d="M 33.015625 40.375 
Q 26.375 40.375 22.484375 35.828125 
Q 18.609375 31.296875 18.609375 23.390625 
Q 18.609375 15.53125 22.484375 10.953125 
Q 26.375 6.390625 33.015625 6.390625 
Q 39.65625 6.390625 43.53125 10.953125 
Q 47.40625 15.53125 47.40625 23.390625 
Q 47.40625 31.296875 43.53125 35.828125 
Q 39.65625 40.375 33.015625 40.375 
z
M 52.59375 71.296875 
L 52.59375 62.3125 
Q 48.875 64.0625 45.09375 64.984375 
Q 41.3125 65.921875 37.59375 65.921875 
Q 27.828125 65.921875 22.671875 59.328125 
Q 17.53125 52.734375 16.796875 39.40625 
Q 19.671875 43.65625 24.015625 45.921875 
Q 28.375 48.1875 33.59375 48.1875 
Q 44.578125 48.1875 50.953125 41.515625 
Q 57.328125 34.859375 57.328125 23.390625 
Q 57.328125 12.15625 50.6875 5.359375 
Q 44.046875 -1.421875 33.015625 -1.421875 
Q 20.359375 -1.421875 13.671875 8.265625 
Q 6.984375 17.96875 6.984375 36.375 
Q 6.984375 53.65625 15.1875 63.9375 
Q 23.390625 74.21875 37.203125 74.21875 
Q 40.921875 74.21875 44.703125 73.484375 
Q 48.484375 72.75 52.59375 71.296875 
z
" id="DejaVuSans-54"/>
      </defs>
      <g style="fill:#262626;" transform="translate(59.590625 434.559594)scale(0.5 -0.5)">
       <use xlink:href="#DejaVuSans-49"/>
       <use x="63.623047" xlink:href="#DejaVuSans-54"/>
      </g>
     </g>
    </g>
    <g id="ytick_6">
     <g id="line2d_9">
      <g>
       <use style="fill:#262626;stroke:#262626;stroke-width:1.25;" x="132.715625" xlink:href="#me26742be5a" y="348.3635"/>
      </g>
     </g>
     <g id="text_10">
      <!-- 20 -->
      <g style="fill:#262626;" transform="translate(59.590625 367.359594)scale(0.5 -0.5)">
       <use xlink:href="#DejaVuSans-50"/>
       <use x="63.623047" xlink:href="#DejaVuSans-48"/>
      </g>
     </g>
    </g>
    <g id="ytick_7">
     <g id="line2d_10">
      <g>
       <use style="fill:#262626;stroke:#262626;stroke-width:1.25;" x="132.715625" xlink:href="#me26742be5a" y="281.1635"/>
      </g>
     </g>
     <g id="text_11">
      <!-- 24 -->
      <g style="fill:#262626;" transform="translate(59.590625 300.159594)scale(0.5 -0.5)">
       <use xlink:href="#DejaVuSans-50"/>
       <use x="63.623047" xlink:href="#DejaVuSans-52"/>
      </g>
     </g>
    </g>
    <g id="ytick_8">
     <g id="line2d_11">
      <g>
       <use style="fill:#262626;stroke:#262626;stroke-width:1.25;" x="132.715625" xlink:href="#me26742be5a" y="213.9635"/>
      </g>
     </g>
     <g id="text_12">
      <!-- 28 -->
      <g style="fill:#262626;" transform="translate(59.590625 232.959594)scale(0.5 -0.5)">
       <use xlink:href="#DejaVuSans-50"/>
       <use x="63.623047" xlink:href="#DejaVuSans-56"/>
      </g>
     </g>
    </g>
    <g id="text_13">
     <!-- RMSD -->
     <defs>
      <path d="M 44.390625 34.1875 
Q 47.5625 33.109375 50.5625 29.59375 
Q 53.5625 26.078125 56.59375 19.921875 
L 66.609375 0 
L 56 0 
L 46.6875 18.703125 
Q 43.0625 26.03125 39.671875 28.421875 
Q 36.28125 30.8125 30.421875 30.8125 
L 19.671875 30.8125 
L 19.671875 0 
L 9.8125 0 
L 9.8125 72.90625 
L 32.078125 72.90625 
Q 44.578125 72.90625 50.734375 67.671875 
Q 56.890625 62.453125 56.890625 51.90625 
Q 56.890625 45.015625 53.6875 40.46875 
Q 50.484375 35.9375 44.390625 34.1875 
z
M 19.671875 64.796875 
L 19.671875 38.921875 
L 32.078125 38.921875 
Q 39.203125 38.921875 42.84375 42.21875 
Q 46.484375 45.515625 46.484375 51.90625 
Q 46.484375 58.296875 42.84375 61.546875 
Q 39.203125 64.796875 32.078125 64.796875 
z
" id="DejaVuSans-82"/>
      <path d="M 9.8125 72.90625 
L 24.515625 72.90625 
L 43.109375 23.296875 
L 61.8125 72.90625 
L 76.515625 72.90625 
L 76.515625 0 
L 66.890625 0 
L 66.890625 64.015625 
L 48.09375 14.015625 
L 38.1875 14.015625 
L 19.390625 64.015625 
L 19.390625 0 
L 9.8125 0 
z
" id="DejaVuSans-77"/>
      <path d="M 53.515625 70.515625 
L 53.515625 60.890625 
Q 47.90625 63.578125 42.921875 64.890625 
Q 37.9375 66.21875 33.296875 66.21875 
Q 25.25 66.21875 20.875 63.09375 
Q 16.5 59.96875 16.5 54.203125 
Q 16.5 49.359375 19.40625 46.890625 
Q 22.3125 44.4375 30.421875 42.921875 
L 36.375 41.703125 
Q 47.40625 39.59375 52.65625 34.296875 
Q 57.90625 29 57.90625 20.125 
Q 57.90625 9.515625 50.796875 4.046875 
Q 43.703125 -1.421875 29.984375 -1.421875 
Q 24.8125 -1.421875 18.96875 -0.25 
Q 13.140625 0.921875 6.890625 3.21875 
L 6.890625 13.375 
Q 12.890625 10.015625 18.65625 8.296875 
Q 24.421875 6.59375 29.984375 6.59375 
Q 38.421875 6.59375 43.015625 9.90625 
Q 47.609375 13.234375 47.609375 19.390625 
Q 47.609375 24.75 44.3125 27.78125 
Q 41.015625 30.8125 33.5 32.328125 
L 27.484375 33.5 
Q 16.453125 35.6875 11.515625 40.375 
Q 6.59375 45.0625 6.59375 53.421875 
Q 6.59375 63.09375 13.40625 68.65625 
Q 20.21875 74.21875 32.171875 74.21875 
Q 37.3125 74.21875 42.625 73.28125 
Q 47.953125 72.359375 53.515625 70.515625 
z
" id="DejaVuSans-83"/>
      <path d="M 19.671875 64.796875 
L 19.671875 8.109375 
L 31.59375 8.109375 
Q 46.6875 8.109375 53.6875 14.9375 
Q 60.6875 21.78125 60.6875 36.53125 
Q 60.6875 51.171875 53.6875 57.984375 
Q 46.6875 64.796875 31.59375 64.796875 
z
M 9.8125 72.90625 
L 30.078125 72.90625 
Q 51.265625 72.90625 61.171875 64.09375 
Q 71.09375 55.28125 71.09375 36.53125 
Q 71.09375 17.671875 61.125 8.828125 
Q 51.171875 0 30.078125 0 
L 9.8125 0 
z
" id="DejaVuSans-68"/>
     </defs>
     <g style="fill:#262626;" transform="translate(45.192187 531.626)rotate(-90)scale(0.5 -0.5)">
      <use xlink:href="#DejaVuSans-82"/>
      <use x="69.482422" xlink:href="#DejaVuSans-77"/>
      <use x="155.761719" xlink:href="#DejaVuSans-83"/>
      <use x="219.238281" xlink:href="#DejaVuSans-68"/>
     </g>
    </g>
   </g>
   <g id="PolyCollection_1">
    <defs>
     <path d="M 225.789351 -156.509708 
L 225.641899 -156.509708 
L 225.503363 -159.383709 
L 225.171521 -162.257709 
L 224.468305 -165.13171 
L 223.145659 -168.005711 
L 220.930237 -170.879712 
L 217.616841 -173.753712 
L 213.188797 -176.627713 
L 207.912256 -179.501714 
L 202.333186 -182.375714 
L 197.129214 -185.249715 
L 192.854078 -188.123716 
L 189.714143 -190.997717 
L 187.523626 -193.871717 
L 185.856963 -196.745718 
L 184.272547 -199.619719 
L 182.471654 -202.493719 
L 180.363686 -205.36772 
L 178.08038 -208.241721 
L 175.941981 -211.115721 
L 174.329399 -213.989722 
L 173.477619 -216.863723 
L 173.322966 -219.737724 
L 173.539446 -222.611724 
L 173.744715 -225.485725 
L 173.708596 -228.359726 
L 173.418764 -231.233726 
L 173.006784 -234.107727 
L 172.640663 -236.981728 
L 172.464947 -239.855729 
L 172.590129 -242.729729 
L 173.099058 -245.60373 
L 174.054057 -248.477731 
L 175.500063 -251.351731 
L 177.452233 -254.225732 
L 179.86696 -257.099733 
L 182.627094 -259.973734 
L 185.573268 -262.847734 
L 188.562659 -265.721735 
L 191.49844 -268.595736 
L 194.307899 -271.469736 
L 196.908951 -274.343737 
L 199.208589 -277.217738 
L 201.131026 -280.091738 
L 202.650579 -282.965739 
L 203.815251 -285.83974 
L 204.747547 -288.713741 
L 205.603036 -291.587741 
L 206.49587 -294.461742 
L 207.446119 -297.335743 
L 208.398424 -300.209743 
L 209.293751 -303.083744 
L 210.123035 -305.957745 
L 210.919406 -308.831746 
L 211.717781 -311.705746 
L 212.53465 -314.579747 
L 213.375428 -317.453748 
L 214.236264 -320.327748 
L 215.087535 -323.201749 
L 215.865479 -326.07575 
L 216.493582 -328.94975 
L 216.920381 -331.823751 
L 217.148755 -334.697752 
L 217.2467 -337.571753 
L 217.336539 -340.445753 
L 217.557244 -343.319754 
L 218.008358 -346.193755 
L 218.707244 -349.067755 
L 219.588949 -351.941756 
L 220.545217 -354.815757 
L 221.471683 -357.689758 
L 222.296427 -360.563758 
L 222.985772 -363.437759 
L 223.537805 -366.31176 
L 223.972075 -369.18576 
L 224.317293 -372.059761 
L 224.59887 -374.933762 
L 224.831916 -377.807763 
L 225.023422 -380.681763 
L 225.179116 -383.555764 
L 225.306604 -386.429765 
L 225.412595 -389.303765 
L 225.499805 -392.177766 
L 225.568276 -395.051767 
L 225.618914 -397.925767 
L 225.654734 -400.799768 
L 225.67933 -403.673769 
L 225.695298 -406.54777 
L 225.704113 -409.42177 
L 225.706661 -412.295771 
L 225.703642 -415.169772 
L 225.696079 -418.043772 
L 225.686106 -420.917773 
L 225.677246 -423.791774 
L 225.673255 -426.665775 
L 225.676001 -429.539775 
L 225.684249 -432.413776 
L 225.69459 -435.287777 
L 225.703685 -438.161777 
L 225.709887 -441.035778 
L 225.721363 -441.035778 
L 225.721363 -441.035778 
L 225.727565 -438.161777 
L 225.73666 -435.287777 
L 225.747001 -432.413776 
L 225.755249 -429.539775 
L 225.757995 -426.665775 
L 225.754004 -423.791774 
L 225.745144 -420.917773 
L 225.735171 -418.043772 
L 225.727608 -415.169772 
L 225.724589 -412.295771 
L 225.727137 -409.42177 
L 225.735952 -406.54777 
L 225.75192 -403.673769 
L 225.776516 -400.799768 
L 225.812336 -397.925767 
L 225.862974 -395.051767 
L 225.931445 -392.177766 
L 226.018655 -389.303765 
L 226.124646 -386.429765 
L 226.252134 -383.555764 
L 226.407828 -380.681763 
L 226.599334 -377.807763 
L 226.83238 -374.933762 
L 227.113957 -372.059761 
L 227.459175 -369.18576 
L 227.893445 -366.31176 
L 228.445478 -363.437759 
L 229.134823 -360.563758 
L 229.959567 -357.689758 
L 230.886033 -354.815757 
L 231.842301 -351.941756 
L 232.724006 -349.067755 
L 233.422892 -346.193755 
L 233.874006 -343.319754 
L 234.094711 -340.445753 
L 234.18455 -337.571753 
L 234.282495 -334.697752 
L 234.510869 -331.823751 
L 234.937668 -328.94975 
L 235.565771 -326.07575 
L 236.343715 -323.201749 
L 237.194986 -320.327748 
L 238.055822 -317.453748 
L 238.8966 -314.579747 
L 239.713469 -311.705746 
L 240.511844 -308.831746 
L 241.308215 -305.957745 
L 242.137499 -303.083744 
L 243.032826 -300.209743 
L 243.985131 -297.335743 
L 244.93538 -294.461742 
L 245.828214 -291.587741 
L 246.683703 -288.713741 
L 247.615999 -285.83974 
L 248.780671 -282.965739 
L 250.300224 -280.091738 
L 252.222661 -277.217738 
L 254.522299 -274.343737 
L 257.123351 -271.469736 
L 259.93281 -268.595736 
L 262.868591 -265.721735 
L 265.857982 -262.847734 
L 268.804156 -259.973734 
L 271.56429 -257.099733 
L 273.979017 -254.225732 
L 275.931187 -251.351731 
L 277.377193 -248.477731 
L 278.332192 -245.60373 
L 278.841121 -242.729729 
L 278.966303 -239.855729 
L 278.790587 -236.981728 
L 278.424466 -234.107727 
L 278.012486 -231.233726 
L 277.722654 -228.359726 
L 277.686535 -225.485725 
L 277.891804 -222.611724 
L 278.108284 -219.737724 
L 277.953631 -216.863723 
L 277.101851 -213.989722 
L 275.489269 -211.115721 
L 273.35087 -208.241721 
L 271.067564 -205.36772 
L 268.959596 -202.493719 
L 267.158703 -199.619719 
L 265.574287 -196.745718 
L 263.907624 -193.871717 
L 261.717107 -190.997717 
L 258.577172 -188.123716 
L 254.302036 -185.249715 
L 249.098064 -182.375714 
L 243.518994 -179.501714 
L 238.242453 -176.627713 
L 233.814409 -173.753712 
L 230.501013 -170.879712 
L 228.285591 -168.005711 
L 226.962945 -165.13171 
L 226.259729 -162.257709 
L 225.927887 -159.383709 
L 225.789351 -156.509708 
z
" id="m6253635e35" style="stroke:#262626;stroke-width:1.5;"/>
    </defs>
    <g clip-path="url(#p4da0141957)">
     <use style="fill:#b55d60;stroke:#262626;stroke-width:1.5;" x="0" xlink:href="#m6253635e35" y="852.24475"/>
    </g>
   </g>
   <g id="PolyCollection_2">
    <defs>
     <path d="M 411.752407 -145.962453 
L 411.678843 -145.962453 
L 411.582509 -151.549848 
L 411.32093 -157.137244 
L 410.748394 -162.724639 
L 409.722356 -168.312034 
L 408.158569 -173.89943 
L 405.995247 -179.486825 
L 403.097462 -185.074221 
L 399.30524 -190.661616 
L 394.689123 -196.249011 
L 389.725213 -201.836407 
L 385.094147 -207.423802 
L 381.236541 -213.011198 
L 378.104101 -218.598593 
L 375.339806 -224.185989 
L 372.667838 -229.773384 
L 370.133076 -235.360779 
L 368.093808 -240.948175 
L 367.064065 -246.53557 
L 367.433881 -252.122966 
L 369.14516 -257.710361 
L 371.616127 -263.297756 
L 374.072819 -268.885152 
L 375.982507 -274.472547 
L 377.2302 -280.059943 
L 378.083425 -285.647338 
L 379.092477 -291.234733 
L 380.851655 -296.822129 
L 383.627669 -302.409524 
L 387.130732 -307.99692 
L 390.649622 -313.584315 
L 393.482098 -319.171711 
L 395.371939 -324.759106 
L 396.616792 -330.346501 
L 397.746921 -335.933897 
L 399.077071 -341.521292 
L 400.538639 -347.108688 
L 401.859474 -352.696083 
L 402.828842 -358.283478 
L 403.430177 -363.870874 
L 403.82547 -369.458269 
L 404.239694 -375.045665 
L 404.809212 -380.63306 
L 405.50699 -386.220456 
L 406.199935 -391.807851 
L 406.751307 -397.395246 
L 407.072129 -402.982642 
L 407.139678 -408.570037 
L 407.023126 -414.157433 
L 406.881396 -419.744828 
L 406.893691 -425.332223 
L 407.15908 -430.919619 
L 407.644577 -436.507014 
L 408.228209 -442.09441 
L 408.80061 -447.681805 
L 409.327731 -453.269201 
L 409.821976 -458.856596 
L 410.277028 -464.443991 
L 410.651935 -470.031387 
L 410.910422 -475.618782 
L 411.051829 -481.206178 
L 411.100555 -486.793573 
L 411.083476 -492.380968 
L 411.022205 -497.968364 
L 410.932848 -503.555759 
L 410.829025 -509.143155 
L 410.732269 -514.73055 
L 410.672033 -520.317945 
L 410.66147 -525.905341 
L 410.682677 -531.492736 
L 410.714921 -537.080132 
L 410.768702 -542.667527 
L 410.870328 -548.254923 
L 411.018775 -553.842318 
L 411.178745 -559.429713 
L 411.315368 -565.017109 
L 411.419691 -570.604504 
L 411.498636 -576.1919 
L 411.555167 -581.779295 
L 411.587912 -587.36669 
L 411.602973 -592.954086 
L 411.61484 -598.541481 
L 411.634362 -604.128877 
L 411.660495 -609.716272 
L 411.684597 -615.303668 
L 411.699455 -620.891063 
L 411.702973 -626.478458 
L 411.696315 -632.065854 
L 411.681842 -637.653249 
L 411.662712 -643.240645 
L 411.642521 -648.82804 
L 411.624677 -654.415435 
L 411.612449 -660.002831 
L 411.609342 -665.590226 
L 411.618112 -671.177622 
L 411.638043 -676.765017 
L 411.663476 -682.352413 
L 411.68663 -687.939808 
L 411.702502 -693.527203 
L 411.710849 -699.114599 
L 411.720401 -699.114599 
L 411.720401 -699.114599 
L 411.728748 -693.527203 
L 411.74462 -687.939808 
L 411.767774 -682.352413 
L 411.793207 -676.765017 
L 411.813138 -671.177622 
L 411.821908 -665.590226 
L 411.818801 -660.002831 
L 411.806573 -654.415435 
L 411.788729 -648.82804 
L 411.768538 -643.240645 
L 411.749408 -637.653249 
L 411.734935 -632.065854 
L 411.728277 -626.478458 
L 411.731795 -620.891063 
L 411.746653 -615.303668 
L 411.770755 -609.716272 
L 411.796888 -604.128877 
L 411.81641 -598.541481 
L 411.828277 -592.954086 
L 411.843338 -587.36669 
L 411.876083 -581.779295 
L 411.932614 -576.1919 
L 412.011559 -570.604504 
L 412.115882 -565.017109 
L 412.252505 -559.429713 
L 412.412475 -553.842318 
L 412.560922 -548.254923 
L 412.662548 -542.667527 
L 412.716329 -537.080132 
L 412.748573 -531.492736 
L 412.76978 -525.905341 
L 412.759217 -520.317945 
L 412.698981 -514.73055 
L 412.602225 -509.143155 
L 412.498402 -503.555759 
L 412.409045 -497.968364 
L 412.347774 -492.380968 
L 412.330695 -486.793573 
L 412.379421 -481.206178 
L 412.520828 -475.618782 
L 412.779315 -470.031387 
L 413.154222 -464.443991 
L 413.609274 -458.856596 
L 414.103519 -453.269201 
L 414.63064 -447.681805 
L 415.203041 -442.09441 
L 415.786673 -436.507014 
L 416.27217 -430.919619 
L 416.537559 -425.332223 
L 416.549854 -419.744828 
L 416.408124 -414.157433 
L 416.291572 -408.570037 
L 416.359121 -402.982642 
L 416.679943 -397.395246 
L 417.231315 -391.807851 
L 417.92426 -386.220456 
L 418.622038 -380.63306 
L 419.191556 -375.045665 
L 419.60578 -369.458269 
L 420.001073 -363.870874 
L 420.602408 -358.283478 
L 421.571776 -352.696083 
L 422.892611 -347.108688 
L 424.354179 -341.521292 
L 425.684329 -335.933897 
L 426.814458 -330.346501 
L 428.059311 -324.759106 
L 429.949152 -319.171711 
L 432.781628 -313.584315 
L 436.300518 -307.99692 
L 439.803581 -302.409524 
L 442.579595 -296.822129 
L 444.338773 -291.234733 
L 445.347825 -285.647338 
L 446.20105 -280.059943 
L 447.448743 -274.472547 
L 449.358431 -268.885152 
L 451.815123 -263.297756 
L 454.28609 -257.710361 
L 455.997369 -252.122966 
L 456.367185 -246.53557 
L 455.337442 -240.948175 
L 453.298174 -235.360779 
L 450.763412 -229.773384 
L 448.091444 -224.185989 
L 445.327149 -218.598593 
L 442.194709 -213.011198 
L 438.337103 -207.423802 
L 433.706037 -201.836407 
L 428.742127 -196.249011 
L 424.12601 -190.661616 
L 420.333788 -185.074221 
L 417.436003 -179.486825 
L 415.272681 -173.89943 
L 413.708894 -168.312034 
L 412.682856 -162.724639 
L 412.11032 -157.137244 
L 411.848741 -151.549848 
L 411.752407 -145.962453 
z
" id="m82b399b0de" style="stroke:#262626;stroke-width:1.5;"/>
    </defs>
    <g clip-path="url(#p4da0141957)">
     <use style="fill:#5875a4;stroke:#262626;stroke-width:1.5;" x="0" xlink:href="#m82b399b0de" y="852.24475"/>
    </g>
   </g>
   <g id="PolyCollection_3">
    <defs>
     <path d="M 602.266351 -170.646076 
L 593.164899 -170.646076 
L 592.357069 -171.855478 
L 591.439085 -173.06488 
L 590.402442 -174.274282 
L 589.239161 -175.483684 
L 587.942042 -176.693086 
L 586.504918 -177.902489 
L 584.922934 -179.111891 
L 583.192817 -180.321293 
L 581.313139 -181.530695 
L 579.284567 -182.740097 
L 577.110075 -183.949499 
L 574.795133 -185.158902 
L 572.347829 -186.368304 
L 569.778949 -187.577706 
L 567.10198 -188.787108 
L 564.333046 -189.99651 
L 561.490765 -191.205912 
L 558.596025 -192.415314 
L 555.671689 -193.624717 
L 552.742216 -194.834119 
L 549.833224 -196.043521 
L 546.97099 -197.252923 
L 544.181908 -198.462325 
L 541.491918 -199.671727 
L 538.92592 -200.881129 
L 536.507199 -202.090532 
L 534.256866 -203.299934 
L 532.193355 -204.509336 
L 530.331965 -205.718738 
L 528.684494 -206.92814 
L 527.258952 -208.137542 
L 526.059388 -209.346944 
L 525.08581 -210.556347 
L 524.334232 -211.765749 
L 523.796822 -212.975151 
L 523.462166 -214.184553 
L 523.315625 -215.393955 
L 523.339779 -216.603357 
L 523.514949 -217.812759 
L 523.819776 -219.022162 
L 524.231827 -220.231564 
L 524.728236 -221.440966 
L 525.286327 -222.650368 
L 525.884235 -223.85977 
L 526.501474 -225.069172 
L 527.119459 -226.278574 
L 527.721967 -227.487977 
L 528.295505 -228.697379 
L 528.829612 -229.906781 
L 529.317048 -231.116183 
L 529.753912 -232.325585 
L 530.139644 -233.534987 
L 530.476953 -234.744389 
L 530.77165 -235.953792 
L 531.032403 -237.163194 
L 531.270419 -238.372596 
L 531.499071 -239.581998 
L 531.733464 -240.7914 
L 531.989968 -242.000802 
L 532.285728 -243.210204 
L 532.63815 -244.419607 
L 533.064391 -245.629009 
L 533.580865 -246.838411 
L 534.202762 -248.047813 
L 534.943616 -249.257215 
L 535.814908 -250.466617 
L 536.825734 -251.67602 
L 537.982535 -252.885422 
L 539.288903 -254.094824 
L 540.745465 -255.304226 
L 542.349839 -256.513628 
L 544.096686 -257.72303 
L 545.977826 -258.932432 
L 547.98244 -260.141835 
L 550.097336 -261.351237 
L 552.30727 -262.560639 
L 554.595319 -263.770041 
L 556.943289 -264.979443 
L 559.332149 -266.188845 
L 561.742462 -267.398247 
L 564.154827 -268.60765 
L 566.550287 -269.817052 
L 568.910719 -271.026454 
L 571.219177 -272.235856 
L 573.460189 -273.445258 
L 575.619995 -274.65466 
L 577.686727 -275.864062 
L 579.650534 -277.073465 
L 581.503635 -278.282867 
L 583.240326 -279.492269 
L 584.856924 -280.701671 
L 586.351672 -281.911073 
L 587.724601 -283.120475 
L 588.977357 -284.329877 
L 590.113014 -285.53928 
L 591.135858 -286.748682 
L 592.051178 -287.958084 
L 592.865047 -289.167486 
L 593.584116 -290.376888 
L 601.847134 -290.376888 
L 601.847134 -290.376888 
L 602.566203 -289.167486 
L 603.380072 -287.958084 
L 604.295392 -286.748682 
L 605.318236 -285.53928 
L 606.453893 -284.329877 
L 607.706649 -283.120475 
L 609.079578 -281.911073 
L 610.574326 -280.701671 
L 612.190924 -279.492269 
L 613.927615 -278.282867 
L 615.780716 -277.073465 
L 617.744523 -275.864062 
L 619.811255 -274.65466 
L 621.971061 -273.445258 
L 624.212073 -272.235856 
L 626.520531 -271.026454 
L 628.880963 -269.817052 
L 631.276423 -268.60765 
L 633.688788 -267.398247 
L 636.099101 -266.188845 
L 638.487961 -264.979443 
L 640.835931 -263.770041 
L 643.12398 -262.560639 
L 645.333914 -261.351237 
L 647.44881 -260.141835 
L 649.453424 -258.932432 
L 651.334564 -257.72303 
L 653.081411 -256.513628 
L 654.685785 -255.304226 
L 656.142347 -254.094824 
L 657.448715 -252.885422 
L 658.605516 -251.67602 
L 659.616342 -250.466617 
L 660.487634 -249.257215 
L 661.228488 -248.047813 
L 661.850385 -246.838411 
L 662.366859 -245.629009 
L 662.7931 -244.419607 
L 663.145522 -243.210204 
L 663.441282 -242.000802 
L 663.697786 -240.7914 
L 663.932179 -239.581998 
L 664.160831 -238.372596 
L 664.398847 -237.163194 
L 664.6596 -235.953792 
L 664.954297 -234.744389 
L 665.291606 -233.534987 
L 665.677338 -232.325585 
L 666.114202 -231.116183 
L 666.601638 -229.906781 
L 667.135745 -228.697379 
L 667.709283 -227.487977 
L 668.311791 -226.278574 
L 668.929776 -225.069172 
L 669.547015 -223.85977 
L 670.144923 -222.650368 
L 670.703014 -221.440966 
L 671.199423 -220.231564 
L 671.611474 -219.022162 
L 671.916301 -217.812759 
L 672.091471 -216.603357 
L 672.115625 -215.393955 
L 671.969084 -214.184553 
L 671.634428 -212.975151 
L 671.097018 -211.765749 
L 670.34544 -210.556347 
L 669.371862 -209.346944 
L 668.172298 -208.137542 
L 666.746756 -206.92814 
L 665.099285 -205.718738 
L 663.237895 -204.509336 
L 661.174384 -203.299934 
L 658.924051 -202.090532 
L 656.50533 -200.881129 
L 653.939332 -199.671727 
L 651.249342 -198.462325 
L 648.46026 -197.252923 
L 645.598026 -196.043521 
L 642.689034 -194.834119 
L 639.759561 -193.624717 
L 636.835225 -192.415314 
L 633.940485 -191.205912 
L 631.098204 -189.99651 
L 628.32927 -188.787108 
L 625.652301 -187.577706 
L 623.083421 -186.368304 
L 620.636117 -185.158902 
L 618.321175 -183.949499 
L 616.146683 -182.740097 
L 614.118111 -181.530695 
L 612.238433 -180.321293 
L 610.508316 -179.111891 
L 608.926332 -177.902489 
L 607.489208 -176.693086 
L 606.192089 -175.483684 
L 605.028808 -174.274282 
L 603.992165 -173.06488 
L 603.074181 -171.855478 
L 602.266351 -170.646076 
z
" id="m9ecf0178db" style="stroke:#262626;stroke-width:1.5;"/>
    </defs>
    <g clip-path="url(#p4da0141957)">
     <use style="fill:#107010;stroke:#262626;stroke-width:1.5;" x="0" xlink:href="#m9ecf0178db" y="852.24475"/>
    </g>
   </g>
   <g id="line2d_12">
    <path clip-path="url(#p4da0141957)" d="M 225.715625 681.646875 
L 225.715625 501.825242 
" style="fill:none;stroke:#262626;stroke-linecap:round;stroke-width:1.5;"/>
   </g>
   <g id="line2d_13">
    <path clip-path="url(#p4da0141957)" d="M 225.715625 638.923746 
L 225.715625 584.00482 
" style="fill:none;stroke:#262626;stroke-linecap:round;stroke-width:4.5;"/>
   </g>
   <g id="line2d_14">
    <path clip-path="url(#p4da0141957)" d="M 411.715625 684.3635 
L 411.715625 439.065182 
" style="fill:none;stroke:#262626;stroke-linecap:round;stroke-width:1.5;"/>
   </g>
   <g id="line2d_15">
    <path clip-path="url(#p4da0141957)" d="M 411.715625 617.785165 
L 411.715625 546.101385 
" style="fill:none;stroke:#262626;stroke-linecap:round;stroke-width:4.5;"/>
   </g>
   <g id="line2d_16">
    <path clip-path="url(#p4da0141957)" d="M 597.715625 649.84052 
L 597.715625 593.626016 
" style="fill:none;stroke:#262626;stroke-linecap:round;stroke-width:1.5;"/>
   </g>
   <g id="line2d_17">
    <path clip-path="url(#p4da0141957)" d="M 597.715625 640.560952 
L 597.715625 605.737372 
" style="fill:none;stroke:#262626;stroke-linecap:round;stroke-width:4.5;"/>
   </g>
   <g id="line2d_18">
    <path d="M 225.715625 163.7315 
L 225.715625 152.6435 
L 411.715625 152.6435 
L 411.715625 163.7315 
" style="fill:none;stroke:#333333;stroke-linecap:round;stroke-width:1.5;"/>
   </g>
   <g id="line2d_19">
    <path d="M 411.715625 103.1235 
L 411.715625 92.0355 
L 597.715625 92.0355 
L 597.715625 103.1235 
" style="fill:none;stroke:#333333;stroke-linecap:round;stroke-width:1.5;"/>
   </g>
   <g id="line2d_20">
    <path d="M 225.715625 42.5155 
L 225.715625 31.4275 
L 597.715625 31.4275 
L 597.715625 42.5155 
" style="fill:none;stroke:#333333;stroke-linecap:round;stroke-width:1.5;"/>
   </g>
   <g id="patch_3">
    <path d="M 132.715625 734.7635 
L 132.715625 180.3635 
" style="fill:none;stroke:#262626;stroke-linecap:square;stroke-linejoin:miter;stroke-width:1.25;"/>
   </g>
   <g id="patch_4">
    <path d="M 690.715625 734.7635 
L 690.715625 180.3635 
" style="fill:none;stroke:#262626;stroke-linecap:square;stroke-linejoin:miter;stroke-width:1.25;"/>
   </g>
   <g id="patch_5">
    <path d="M 132.715625 734.7635 
L 690.715625 734.7635 
" style="fill:none;stroke:#262626;stroke-linecap:square;stroke-linejoin:miter;stroke-width:1.25;"/>
   </g>
   <g id="patch_6">
    <path d="M 132.715625 180.3635 
L 690.715625 180.3635 
" style="fill:none;stroke:#262626;stroke-linecap:square;stroke-linejoin:miter;stroke-width:1.25;"/>
   </g>
   <g id="PathCollection_1">
    <defs>
     <path d="M 0 1.5 
C 0.397805 1.5 0.77937 1.341951 1.06066 1.06066 
C 1.341951 0.77937 1.5 0.397805 1.5 0 
C 1.5 -0.397805 1.341951 -0.77937 1.06066 -1.06066 
C 0.77937 -1.341951 0.397805 -1.5 0 -1.5 
C -0.397805 -1.5 -0.77937 -1.341951 -1.06066 -1.06066 
C -1.341951 -0.77937 -1.5 -0.397805 -1.5 0 
C -1.5 0.397805 -1.341951 0.77937 -1.06066 1.06066 
C -0.77937 1.341951 -0.397805 1.5 0 1.5 
z
" id="mf235c1ef6d" style="stroke:#262626;"/>
    </defs>
    <g clip-path="url(#p4da0141957)">
     <use style="fill:#ffffff;stroke:#262626;" x="225.715625" xlink:href="#mf235c1ef6d" y="612.800145"/>
    </g>
   </g>
   <g id="PathCollection_2">
    <g clip-path="url(#p4da0141957)">
     <use style="fill:#ffffff;stroke:#262626;" x="411.715625" xlink:href="#mf235c1ef6d" y="586.978772"/>
    </g>
   </g>
   <g id="PathCollection_3">
    <g clip-path="url(#p4da0141957)">
     <use style="fill:#ffffff;stroke:#262626;" x="597.715625" xlink:href="#mf235c1ef6d" y="625.922141"/>
    </g>
   </g>
   <g id="text_14">
    <!-- Ranksum p = 8.326e-268 -->
    <defs>
     <path d="M 34.28125 27.484375 
Q 23.390625 27.484375 19.1875 25 
Q 14.984375 22.515625 14.984375 16.5 
Q 14.984375 11.71875 18.140625 8.90625 
Q 21.296875 6.109375 26.703125 6.109375 
Q 34.1875 6.109375 38.703125 11.40625 
Q 43.21875 16.703125 43.21875 25.484375 
L 43.21875 27.484375 
z
M 52.203125 31.203125 
L 52.203125 0 
L 43.21875 0 
L 43.21875 8.296875 
Q 40.140625 3.328125 35.546875 0.953125 
Q 30.953125 -1.421875 24.3125 -1.421875 
Q 15.921875 -1.421875 10.953125 3.296875 
Q 6 8.015625 6 15.921875 
Q 6 25.140625 12.171875 29.828125 
Q 18.359375 34.515625 30.609375 34.515625 
L 43.21875 34.515625 
L 43.21875 35.40625 
Q 43.21875 41.609375 39.140625 45 
Q 35.0625 48.390625 27.6875 48.390625 
Q 23 48.390625 18.546875 47.265625 
Q 14.109375 46.140625 10.015625 43.890625 
L 10.015625 52.203125 
Q 14.9375 54.109375 19.578125 55.046875 
Q 24.21875 56 28.609375 56 
Q 40.484375 56 46.34375 49.84375 
Q 52.203125 43.703125 52.203125 31.203125 
z
" id="DejaVuSans-97"/>
     <path d="M 9.078125 75.984375 
L 18.109375 75.984375 
L 18.109375 31.109375 
L 44.921875 54.6875 
L 56.390625 54.6875 
L 27.390625 29.109375 
L 57.625 0 
L 45.90625 0 
L 18.109375 26.703125 
L 18.109375 0 
L 9.078125 0 
z
" id="DejaVuSans-107"/>
     <path d="M 8.5 21.578125 
L 8.5 54.6875 
L 17.484375 54.6875 
L 17.484375 21.921875 
Q 17.484375 14.15625 20.5 10.265625 
Q 23.53125 6.390625 29.59375 6.390625 
Q 36.859375 6.390625 41.078125 11.03125 
Q 45.3125 15.671875 45.3125 23.6875 
L 45.3125 54.6875 
L 54.296875 54.6875 
L 54.296875 0 
L 45.3125 0 
L 45.3125 8.40625 
Q 42.046875 3.421875 37.71875 1 
Q 33.40625 -1.421875 27.6875 -1.421875 
Q 18.265625 -1.421875 13.375 4.4375 
Q 8.5 10.296875 8.5 21.578125 
z
M 31.109375 56 
z
" id="DejaVuSans-117"/>
     <path d="M 52 44.1875 
Q 55.375 50.25 60.0625 53.125 
Q 64.75 56 71.09375 56 
Q 79.640625 56 84.28125 50.015625 
Q 88.921875 44.046875 88.921875 33.015625 
L 88.921875 0 
L 79.890625 0 
L 79.890625 32.71875 
Q 79.890625 40.578125 77.09375 44.375 
Q 74.3125 48.1875 68.609375 48.1875 
Q 61.625 48.1875 57.5625 43.546875 
Q 53.515625 38.921875 53.515625 30.90625 
L 53.515625 0 
L 44.484375 0 
L 44.484375 32.71875 
Q 44.484375 40.625 41.703125 44.40625 
Q 38.921875 48.1875 33.109375 48.1875 
Q 26.21875 48.1875 22.15625 43.53125 
Q 18.109375 38.875 18.109375 30.90625 
L 18.109375 0 
L 9.078125 0 
L 9.078125 54.6875 
L 18.109375 54.6875 
L 18.109375 46.1875 
Q 21.1875 51.21875 25.484375 53.609375 
Q 29.78125 56 35.6875 56 
Q 41.65625 56 45.828125 52.96875 
Q 50 49.953125 52 44.1875 
z
" id="DejaVuSans-109"/>
     <path id="DejaVuSans-32"/>
     <path d="M 10.59375 45.40625 
L 73.1875 45.40625 
L 73.1875 37.203125 
L 10.59375 37.203125 
z
M 10.59375 25.484375 
L 73.1875 25.484375 
L 73.1875 17.1875 
L 10.59375 17.1875 
z
" id="DejaVuSans-61"/>
     <path d="M 10.6875 12.40625 
L 21 12.40625 
L 21 0 
L 10.6875 0 
z
" id="DejaVuSans-46"/>
     <path d="M 40.578125 39.3125 
Q 47.65625 37.796875 51.625 33 
Q 55.609375 28.21875 55.609375 21.1875 
Q 55.609375 10.40625 48.1875 4.484375 
Q 40.765625 -1.421875 27.09375 -1.421875 
Q 22.515625 -1.421875 17.65625 -0.515625 
Q 12.796875 0.390625 7.625 2.203125 
L 7.625 11.71875 
Q 11.71875 9.328125 16.59375 8.109375 
Q 21.484375 6.890625 26.8125 6.890625 
Q 36.078125 6.890625 40.9375 10.546875 
Q 45.796875 14.203125 45.796875 21.1875 
Q 45.796875 27.640625 41.28125 31.265625 
Q 36.765625 34.90625 28.71875 34.90625 
L 20.21875 34.90625 
L 20.21875 43.015625 
L 29.109375 43.015625 
Q 36.375 43.015625 40.234375 45.921875 
Q 44.09375 48.828125 44.09375 54.296875 
Q 44.09375 59.90625 40.109375 62.90625 
Q 36.140625 65.921875 28.71875 65.921875 
Q 24.65625 65.921875 20.015625 65.03125 
Q 15.375 64.15625 9.8125 62.3125 
L 9.8125 71.09375 
Q 15.4375 72.65625 20.34375 73.4375 
Q 25.25 74.21875 29.59375 74.21875 
Q 40.828125 74.21875 47.359375 69.109375 
Q 53.90625 64.015625 53.90625 55.328125 
Q 53.90625 49.265625 50.4375 45.09375 
Q 46.96875 40.921875 40.578125 39.3125 
z
" id="DejaVuSans-51"/>
    </defs>
    <g style="fill:#262626;" transform="translate(165.108125 146.65225)scale(0.24 -0.24)">
     <use xlink:href="#DejaVuSans-82"/>
     <use x="67.232422" xlink:href="#DejaVuSans-97"/>
     <use x="128.511719" xlink:href="#DejaVuSans-110"/>
     <use x="191.890625" xlink:href="#DejaVuSans-107"/>
     <use x="249.800781" xlink:href="#DejaVuSans-115"/>
     <use x="301.900391" xlink:href="#DejaVuSans-117"/>
     <use x="365.279297" xlink:href="#DejaVuSans-109"/>
     <use x="462.691406" xlink:href="#DejaVuSans-32"/>
     <use x="494.478516" xlink:href="#DejaVuSans-112"/>
     <use x="557.955078" xlink:href="#DejaVuSans-32"/>
     <use x="589.742188" xlink:href="#DejaVuSans-61"/>
     <use x="673.53125" xlink:href="#DejaVuSans-32"/>
     <use x="705.318359" xlink:href="#DejaVuSans-56"/>
     <use x="768.941406" xlink:href="#DejaVuSans-46"/>
     <use x="800.728516" xlink:href="#DejaVuSans-51"/>
     <use x="864.351562" xlink:href="#DejaVuSans-50"/>
     <use x="927.974609" xlink:href="#DejaVuSans-54"/>
     <use x="991.597656" xlink:href="#DejaVuSans-101"/>
     <use x="1053.121094" xlink:href="#DejaVuSans-45"/>
     <use x="1089.205078" xlink:href="#DejaVuSans-50"/>
     <use x="1152.828125" xlink:href="#DejaVuSans-54"/>
     <use x="1216.451172" xlink:href="#DejaVuSans-56"/>
    </g>
   </g>
   <g id="text_15">
    <!-- Ranksum p = 2.140e-02 -->
    <g style="fill:#262626;" transform="translate(358.743125 86.04425)scale(0.24 -0.24)">
     <use xlink:href="#DejaVuSans-82"/>
     <use x="67.232422" xlink:href="#DejaVuSans-97"/>
     <use x="128.511719" xlink:href="#DejaVuSans-110"/>
     <use x="191.890625" xlink:href="#DejaVuSans-107"/>
     <use x="249.800781" xlink:href="#DejaVuSans-115"/>
     <use x="301.900391" xlink:href="#DejaVuSans-117"/>
     <use x="365.279297" xlink:href="#DejaVuSans-109"/>
     <use x="462.691406" xlink:href="#DejaVuSans-32"/>
     <use x="494.478516" xlink:href="#DejaVuSans-112"/>
     <use x="557.955078" xlink:href="#DejaVuSans-32"/>
     <use x="589.742188" xlink:href="#DejaVuSans-61"/>
     <use x="673.53125" xlink:href="#DejaVuSans-32"/>
     <use x="705.318359" xlink:href="#DejaVuSans-50"/>
     <use x="768.941406" xlink:href="#DejaVuSans-46"/>
     <use x="800.728516" xlink:href="#DejaVuSans-49"/>
     <use x="864.351562" xlink:href="#DejaVuSans-52"/>
     <use x="927.974609" xlink:href="#DejaVuSans-48"/>
     <use x="991.597656" xlink:href="#DejaVuSans-101"/>
     <use x="1053.121094" xlink:href="#DejaVuSans-45"/>
     <use x="1089.205078" xlink:href="#DejaVuSans-48"/>
     <use x="1152.828125" xlink:href="#DejaVuSans-50"/>
    </g>
   </g>
   <g id="text_16">
    <!-- Ranksum p = 4.075e-01 -->
    <defs>
     <path d="M 8.203125 72.90625 
L 55.078125 72.90625 
L 55.078125 68.703125 
L 28.609375 0 
L 18.3125 0 
L 43.21875 64.59375 
L 8.203125 64.59375 
z
" id="DejaVuSans-55"/>
     <path d="M 10.796875 72.90625 
L 49.515625 72.90625 
L 49.515625 64.59375 
L 19.828125 64.59375 
L 19.828125 46.734375 
Q 21.96875 47.46875 24.109375 47.828125 
Q 26.265625 48.1875 28.421875 48.1875 
Q 40.625 48.1875 47.75 41.5 
Q 54.890625 34.8125 54.890625 23.390625 
Q 54.890625 11.625 47.5625 5.09375 
Q 40.234375 -1.421875 26.90625 -1.421875 
Q 22.3125 -1.421875 17.546875 -0.640625 
Q 12.796875 0.140625 7.71875 1.703125 
L 7.71875 11.625 
Q 12.109375 9.234375 16.796875 8.0625 
Q 21.484375 6.890625 26.703125 6.890625 
Q 35.15625 6.890625 40.078125 11.328125 
Q 45.015625 15.765625 45.015625 23.390625 
Q 45.015625 31 40.078125 35.4375 
Q 35.15625 39.890625 26.703125 39.890625 
Q 22.75 39.890625 18.8125 39.015625 
Q 14.890625 38.140625 10.796875 36.28125 
z
" id="DejaVuSans-53"/>
    </defs>
    <g style="fill:#262626;" transform="translate(265.743125 25.43625)scale(0.24 -0.24)">
     <use xlink:href="#DejaVuSans-82"/>
     <use x="67.232422" xlink:href="#DejaVuSans-97"/>
     <use x="128.511719" xlink:href="#DejaVuSans-110"/>
     <use x="191.890625" xlink:href="#DejaVuSans-107"/>
     <use x="249.800781" xlink:href="#DejaVuSans-115"/>
     <use x="301.900391" xlink:href="#DejaVuSans-117"/>
     <use x="365.279297" xlink:href="#DejaVuSans-109"/>
     <use x="462.691406" xlink:href="#DejaVuSans-32"/>
     <use x="494.478516" xlink:href="#DejaVuSans-112"/>
     <use x="557.955078" xlink:href="#DejaVuSans-32"/>
     <use x="589.742188" xlink:href="#DejaVuSans-61"/>
     <use x="673.53125" xlink:href="#DejaVuSans-32"/>
     <use x="705.318359" xlink:href="#DejaVuSans-52"/>
     <use x="768.941406" xlink:href="#DejaVuSans-46"/>
     <use x="800.728516" xlink:href="#DejaVuSans-48"/>
     <use x="864.351562" xlink:href="#DejaVuSans-55"/>
     <use x="927.974609" xlink:href="#DejaVuSans-53"/>
     <use x="991.597656" xlink:href="#DejaVuSans-101"/>
     <use x="1053.121094" xlink:href="#DejaVuSans-45"/>
     <use x="1089.205078" xlink:href="#DejaVuSans-48"/>
     <use x="1152.828125" xlink:href="#DejaVuSans-49"/>
    </g>
   </g>
  </g>
 </g>
 <defs>
  <clipPath id="p4da0141957">
   <rect height="554.4" width="558" x="132.715625" y="180.3635"/>
  </clipPath>
 </defs>
</svg>
